<?xml version="1.0" encoding="utf-8"?>
<!-- Generator: Adobe Illustrator 27.0.0, SVG Export Plug-In . SVG Version: 6.00 Build 0)  -->
<svg version="1.1" id="Layer_1" xmlns="http://www.w3.org/2000/svg" xmlns:xlink="http://www.w3.org/1999/xlink" x="0px" y="0px"
	 viewBox="0 0 400 400" style="enable-background:new 0 0 400 400;" xml:space="preserve">
<style type="text/css">
	.st0{fill:#D61F26;}
	.st1{fill:#FFFFFF;}
	.st2{fill:#233068;}
</style>
<g id="_x33_U">
	<path class="st0" d="M3.2,46.3L110.7,281l5.3,11.5l28,61.1h252.8L129.4,68.4c-13.3-14.1-31.8-22.1-51.1-22.1
		C78.3,46.3,3.2,46.3,3.2,46.3z"/>
	<g>
		<circle class="st1" cx="174.8" cy="235.3" r="63.9"/>
		<g>
			<g>
				<path class="st2" d="M174.8,302.3c-33.4,0.8-69.3-28-66.9-70.6c2.4-41.8,37.1-63.9,67.7-63.5c36.7,0.4,66.2,30.2,66.1,67.5
					C241.7,272.7,212,302.3,174.8,302.3z M179.8,253.4c-0.2,3.8,2,5.7,5.4,4.9c4.6-1,8.8-3.1,12.6-6c8.6-6.4,17.2-12.8,25.9-19.1
					c3.3-2.4,6.8-4.8,10.9-5.8c2-0.5,2.5-1.6,2.1-3.7c-4.6-27.4-29.5-49.5-57.8-51.2c-29.7-1.8-56.8,17.4-64.7,45.9
					c-0.4,1.3-0.6,2.5-0.1,3.9c4.5,11.9,16.8,20.8,29.5,21.5c11,0.7,21.5-1.4,31.9-4.8c2.4-0.8,5-1.4,6.9,0.7
					c1.9,2.1,0.6,4.4-0.2,6.6C181.4,248.9,180,251.3,179.8,253.4z M142.5,289.5c18.6,9.9,36.8,11.6,55.6,4.2
					c1.4-0.5,3.8-0.6,3.7-2.2c-0.1-1.5-2.5-1.2-4-1.6c-7.9-2-16-3.3-23.1-7.5c-5-3-8.5-7.1-9.1-13.2c-0.2-2.1,0-4.2-0.6-6.5
					C159.3,272.8,154.3,283.5,142.5,289.5z M112.1,239.5c0.4,2.9-0.5,6.2,2.5,8.1c11,7,22.8,9.9,35.7,6.4c7.7-2.1,14.6-6.1,21.8-9.4
					c1.4-0.6,2.9-1.2,4.4-1.6c2.1-0.4,3,0.4,2.1,2.6c-1,2.3-2,4.5-2.8,6.8c-2.3,6.8,1.6,12.5,8.8,12.7c3.2,0.1,6.2-0.3,9.3-1.1
					c10.7-2.6,20-8,29.5-13.3c3.3-1.8,6.6-3.2,10.3-3.7c3.2-0.4,4.4-2.1,3.9-6c-0.4-2.8-2.8-1.3-4.3-1.5c-1.8-0.2-3.5,0.6-5.1,1.4
					c-3.2,1.8-6.4,3.6-9.5,5.6c-7.4,4.7-14.7,9.3-22.7,12.9c-3.8,1.7-7.8,2.5-12.1,2.3c-4.6-0.3-7.1-3.5-6.1-8c0.6-2.9,2-5.4,3-8.1
					c0.6-1.6,2.1-3.4,0.5-4.9c-1.4-1.3-3.4-0.6-5.1-0.2c-1.4,0.3-2.7,0.9-4.1,1.4c-4.8,1.7-9.6,3.5-14.5,5.2
					c-15.2,5.3-29.4,3.3-42.4-6.4C114.3,240.2,113.6,239.4,112.1,239.5z M172.7,248.6c0.9,1.8-0.1,2.9-0.6,4.1
					c-4.3,10.8-0.5,17.6,10.9,19.6c1.1,0.2,2.2,0.2,3.3,0.3c7.8,0.1,15.2-2.1,22.8-3.6c5.5-1.1,10.8-3.4,16.4-2.9
					c3.4,0.3,4.9-0.8,5.9-3.6c0.4-1.1,1.6-2.2,0.7-3.4c-0.9-1.1-2.3-0.6-3.5-0.4c-6.7,1.2-13,3.9-19.5,5.9c-8.1,2.5-16.2,5-24.9,4.5
					c-9.6-0.6-13.9-6.9-10.6-15.8c0.7-1.9,1.7-3.6,2.4-5.5c0.4-1,1.8-2,0.8-2.9s-2.3,0.1-3.3,0.6c-3.7,1.9-6.8,4.6-10.2,7.1
					c-11,8-23,11.6-36.6,9.2c-3-0.5-6-1.5-9.6-1.2c1.9,2.8,1.7,6.6,5.6,7.3c5.1,1,10.2,0.9,15.4,0.3c10.4-1.2,18.5-6.8,26.2-13.2
					C167,252.9,169.5,250.5,172.7,248.6z M166,259c1,1.9,0.6,3.3,0.6,4.7c-0.1,5.6,2.3,9.9,6.9,13c3.4,2.3,7.2,3.5,11.2,4.1
					c9.8,1.4,19.6,0.4,29.4,1.5c2.2,0.2,3.9-0.7,5.3-2.4c0.7-0.8,2-1.6,1.4-2.8c-0.5-1.1-1.9-1.1-3-1.1c-5.4-0.3-10.7,0.7-16,1
					c-8.4,0.5-16.8,0.9-24.8-2.3c-7-2.8-9.8-8.3-8-15.5c0.4-1.7,1.1-3.4,1.6-5.1c0.3-0.9,1-1.8,0.3-2.8c-1.4,0.1-2.1,1.2-2.9,2
					c-2.8,3-5.7,6-8.5,9.1c-5.1,5.6-11.2,9.4-18.4,11.8c-4.2,1.4-8.6,1.9-13,2.8c2.8,5,5.2,6.2,10.1,5.1c8.1-1.7,14.4-6.4,19.6-12.6
					C160.6,266,163.1,262.6,166,259z"/>
				<path class="st2" d="M164.7,225.6c1.9-1.3,3.5-2,5.4-2.2s1.7-1.1,0.6-2.1c-1.2-1.3-2.7-2-4.3-2.4c-3.5-1-7.1-2.1-10.6-3.1
					c-5.2-1.4-9.2-4.4-12.1-9c-2.5-4.1-4.9-8.4-9.5-10.7c4.5-3.1,10.8-2.1,15.4,2.5c3,3,5.8,6.2,8.6,9.4c3.8,4.4,8.5,7.5,13.6,10.2
					c1.8,1,3,0.8,4.2-1c6.1-9.4,14.9-13.8,26-13.8c5.6,0,8.6-1.2,16.8-5.9c1,3.3-0.3,5.9-2.2,8.3c-1.8,2.2-3.8,1.7-6.1,0.8
					c-4.9-1.9-9.4-0.9-13.7,1.9c-5.6,3.7-9.6,9-14.2,13.7c-1,1-0.8,1.8,0.5,2.3c0.7,0.3,1.5,0.5,2.2,0.9c0.7,0.3,2.1,0.2,1.8,1.5
					c-0.3,1.1-1.5,0.8-2.3,0.4c-1.9-0.8-3.5,0-5.2,0.5C174.4,229.7,169.6,228.5,164.7,225.6z"/>
			</g>
		</g>
	</g>
</g>
</svg>
