<?xml version="1.0" encoding="utf-8"?>
<!-- Generator: Adobe Illustrator 26.0.1, SVG Export Plug-In . SVG Version: 6.00 Build 0)  -->
<svg version="1.1" id="Layer_1" xmlns="http://www.w3.org/2000/svg" xmlns:xlink="http://www.w3.org/1999/xlink" x="0px" y="0px"
	 viewBox="0 0 400 400" style="enable-background:new 0 0 400 400;" xml:space="preserve">
<style type="text/css">
	.st0{fill:#36429F;stroke:#E0E0E0;stroke-miterlimit:10;}
	.st1{fill:#FFFFFF;}
	.st2{fill:none;stroke:#333333;stroke-width:3;stroke-miterlimit:10;}
</style>
<g>
	<path class="st0" d="M399,348.4c-92.4-0.2-184.7,0.1-277.1,0H63.4c-4.1-20.5-8.2-41.1-12.3-61.7l0,0l-0.6-2.7l0,0l-9.3-46.5
		c-2.5-12.2-4.9-24.5-7.3-36.7C23,146.8,12.1,92.7,1.4,38.7c-0.5-1.5-0.5-3.2,0.2-4.6c0.7-1.3,1.9-2.3,3.3-2.8h78.6
		c6.3,0.4,12.5,2.1,18,5.2c5.6,3.1,10.4,7.4,14.1,12.6c3.4,4.5,12.5,16.6,26.2,34.6c3.8,5,8,10.5,12.5,16.5
		c4.9,6.5,10.2,13.5,15.9,21c21.2,28.1,47.5,62.9,77.2,102.3c21.5,28.1,54.5,62.2,102.3,87.6c9.7,5.1,19.6,9.7,29.7,13.8
		c6.2,2.1,11.5,6.1,15.2,11.4c1.4,2.1,2.6,4.4,3.4,6.8C398.5,345.2,398.8,347,399,348.4z"/>
	<path id="Combined-Shape" class="st1" d="M240.6,326.6c-11.9,10-29.4,9.4-40.6-1.3c-11.5-11.3-11.7-29.7-0.4-41.3
		c0.1-0.1,0.3-0.3,0.4-0.4c5.5-5.6,13.1-8.8,20.9-8.7c4.3-0.1,8.6,0.7,12.6,2.4c4.1,1.9,7.8,4.5,10.9,7.8l0.3,0.3l-5.6,6.1l-0.3-0.3
		c-2.6-2.3-5.4-4.3-8.3-6.1c-8.2-4.2-18.1-2.5-24.5,4c-8,8.5-8,21.8,0,30.4c3.9,4.1,9.3,6.4,15,6.3c5.1,0.2,10.1-1.6,14-4.8
		c3.9-3.1,6.1-7.8,6.1-12.7h-19.6v-7.9h28.4v5.2C250,314.3,246.8,321.3,240.6,326.6z M289.4,327.8c-8,7.7-20.7,7.7-28.7,0
		c-8-8.1-8-21-0.1-29.2c8-7.8,20.7-7.8,28.7,0C297.4,306.6,297.5,319.6,289.4,327.8C289.5,327.7,289.4,327.7,289.4,327.8
		L289.4,327.8z M283.7,303.8c-2.3-2.4-5.4-3.7-8.7-3.6c-3.3-0.1-6.5,1.2-8.8,3.6c-2.2,2.3-3.3,5.4-3.3,9.3c-0.1,3.4,1.1,6.8,3.4,9.3
		c4.8,4.7,12.6,4.7,17.4,0c2.3-2.5,3.6-5.9,3.4-9.3C287.3,309.7,286.1,306.4,283.7,303.8z M185.3,288.6c-0.9,0.9-2.2,1.4-3.5,1.4
		s-2.5-0.4-3.5-1.4c-0.8-0.9-1.3-2.1-1.3-3.4c0-1.2,0.4-2.4,1.3-3.3c0.9-0.9,2.2-1.4,3.5-1.4c1.3-0.1,2.5,0.5,3.4,1.4
		c0.9,0.8,1.3,2,1.4,3.2C186.6,286.5,186.1,287.7,185.3,288.6z M177.8,332.7v-39.2h8v39.2H177.8z M166.7,327.6
		c-3.7,3.9-8.9,6.1-14.2,5.9c-5.7,0.2-11.1-2.1-14.9-6.4c-3.6-4-5.4-9-5.4-15c-0.1-5.2,1.9-10.1,5.5-13.8c3.5-3.7,8.3-5.7,13.4-5.7
		c3.9,0,7.7,0.9,11.1,2.7l0.2,0.1v8.5l-0.7-0.5c-1.5-0.9-3-1.7-4.7-2.3c-1.5-0.6-3.1-1-4.8-1c-3.3-0.2-6.5,1.1-8.9,3.5
		c-2.2,2.3-3.3,5.4-3.3,9.3c-0.1,3.4,1.1,6.8,3.4,9.3c2.4,2.4,5.6,3.7,9,3.6c3.3,0.1,6.4-1.4,8.5-3.9c2.3-2.5,3.4-6.4,3.4-11.4
		v-34.9h7.9v36.1C172.4,318.4,170.5,323.6,166.7,327.6z M119.5,332.7v-22.8c0.1-2.5-0.8-5-2.6-6.8c-1.6-1.8-3.9-2.8-6.3-2.7
		c-2.4,0-4.7,1-6.3,2.7c-1.8,1.8-2.7,4.3-2.6,6.8v22.8h-7.9v-22.8c-0.2-4.6,1.5-9.1,4.7-12.4c6.8-6.4,17.4-6.4,24.2,0
		c3.2,3.3,5,7.8,4.8,12.4v22.8H119.5z M80.7,332.7v-56.9H89v56.9H80.7z"/>
	<circle class="st1" cx="134.1" cy="166.4" r="4.4"/>
	<circle class="st1" cx="121" cy="153.2" r="4.4"/>
	<circle class="st1" cx="134.1" cy="153.2" r="4.4"/>
	<circle class="st1" cx="107.8" cy="153.2" r="4.4"/>
	<path class="st1" d="M146,139.1c1.7,1.8,1.7,4.5,0,6.3c-1.7,1.7-4.5,1.7-6.2,0c-1.7-1.8-1.7-4.5,0-6.3
		C141.6,137.4,144.3,137.4,146,139.1z"/>
	<path class="st1" d="M157,130.3c1.7,1.7,1.7,4.5,0,6.3c-1.7,1.7-4.5,1.7-6.2,0s-1.7-4.5,0-6.3c1.6-1.7,4.3-1.8,6-0.2
		C156.9,130.2,156.9,130.3,157,130.3z"/>
	<circle class="st1" cx="92.4" cy="153.2" r="4.4"/>
	<circle class="st1" cx="79.3" cy="153.2" r="4.4"/>
	<circle class="st1" cx="134.1" cy="179.6" r="4.4"/>
	<path class="st1" d="M85.9,219.2c0,2.4-1.9,4.4-4.3,4.4h-0.1c-2.4,0-4.4-2-4.4-4.4s1.9-4.4,4.3-4.4h0.1
		C83.9,214.8,85.8,216.7,85.9,219.2z"/>
	<circle class="st1" cx="68.3" cy="206" r="4.4"/>
	<circle class="st1" cx="81.5" cy="206" r="4.4"/>
	<circle class="st1" cx="55.2" cy="206" r="4.4"/>
	<path class="st1" d="M81.5,228c2.4,0,4.4,2,4.4,4.4s-1.9,4.4-4.3,4.4h-0.1c-2.4,0-4.4-2-4.4-4.4S79.1,228.1,81.5,228z"/>
	<circle class="st1" cx="134.1" cy="192.8" r="4.4"/>
	<circle class="st1" cx="134.1" cy="208.2" r="4.4"/>
	<path class="st1" d="M105.6,186.2c0,2.4-1.9,4.4-4.3,4.4h-0.1c-2.4,0-4.4-2-4.4-4.4s1.9-4.4,4.3-4.4h0.1
		C103.6,181.8,105.6,183.7,105.6,186.2z"/>
	<path class="st1" d="M113.1,172.1c1.7,1.8,1.7,4.5,0,6.3c-1.7,1.7-4.5,1.7-6.2,0c-1.7-1.8-1.7-4.5,0-6.3
		C108.7,170.4,111.4,170.4,113.1,172.1z"/>
	<path class="st1" d="M124.1,163.3c1.7,1.7,1.7,4.5,0,6.3c-1.7,1.7-4.5,1.7-6.2,0s-1.7-4.5,0-6.3c1.6-1.7,4.3-1.8,6-0.2
		C124,163.2,124,163.3,124.1,163.3z"/>
	<path class="st1" d="M95.6,191.9c1.7,1.8,1.7,4.5,0,6.3c-1.7,1.7-4.5,1.7-6.2,0c-1.7-1.8-1.7-4.5,0-6.3c1.6-1.7,4.3-1.8,6-0.1
		C95.5,191.8,95.5,191.8,95.6,191.9z"/>
</g>
<path class="st2" d="M398.7,346.9c-92.1-0.2-184,0.1-276.1,0H64.3c-4.1-20.4-8.2-40.9-12.3-61.5l0,0l-0.6-2.7l0,0l-9.3-46.4
	c-2.5-12.2-4.9-24.4-7.3-36.6C24.1,146,13.3,92.2,2.5,38.4c-0.6-1.5-0.5-3.1,0.2-4.6C3.5,32.5,4.6,31.5,6,31h78.3
	c6.3,0.4,12.4,2.1,17.9,5.2c5.5,3.1,10.3,7.4,14,12.5c3.4,4.5,12.5,16.5,26.1,34.5c3.8,5,8,10.5,12.5,16.4
	c4.9,6.5,10.2,13.4,15.8,20.9c21.1,28,47.3,62.7,76.9,101.9c21.4,28,54.3,62,101.9,87.3c9.6,5.1,19.5,9.7,29.6,13.8
	c6.1,2,11.5,6,15.1,11.4c1.4,2.1,2.5,4.4,3.4,6.8C398.2,343.7,398.5,345.5,398.7,346.9z"/>
</svg>
