<?xml version="1.0" encoding="utf-8"?>
<!-- Generator: Adobe Illustrator 26.0.1, SVG Export Plug-In . SVG Version: 6.00 Build 0)  -->
<svg version="1.1" id="Layer_1" xmlns="http://www.w3.org/2000/svg" xmlns:xlink="http://www.w3.org/1999/xlink" x="0px" y="0px"
	 viewBox="0 0 400 400" style="enable-background:new 0 0 400 400;" xml:space="preserve">
<style type="text/css">
	.st0{fill:url(#SVGID_1_);}
	.st1{fill:#FFFFFF;}
	.st2{fill:none;stroke:#E0E0E0;stroke-width:0.9989;stroke-miterlimit:10;}
	.st3{fill:none;stroke:#333333;stroke-width:3;stroke-miterlimit:10;}
</style>
<linearGradient id="SVGID_1_" gradientUnits="userSpaceOnUse" x1="274.547" y1="-18.7352" x2="38.902" y2="389.4138" gradientTransform="matrix(1 0 0 -1 0 401.2756)">
	<stop  offset="0.2859" style="stop-color:#212BC9"/>
	<stop  offset="1" style="stop-color:#BF001B"/>
</linearGradient>
<path class="st0" d="M399.1,348.1c-92.2-0.2-184.3,0.1-276.5,0l0,0c-19.5,0-38.9,0-58.4,0c-4.1-20.5-8.2-41.1-12.3-61.7l0,0
	c-0.2-0.9-0.4-1.8-0.6-2.7l0,0c-3.1-15.5-6.2-31-9.3-46.5c-2.5-12.2-4.9-24.5-7.3-36.7C24,146.5,13.2,92.4,2.4,38.4
	c-0.1-0.3-0.9-2.4,0.2-4.6c1-2,3-2.6,3.3-2.8h78.4c3.7,0.2,10.6,1.1,18,5.2c8,4.4,12.6,10.5,14.1,12.6c3.4,4.5,12.5,16.6,26.1,34.6
	c3.8,5,8,10.5,12.5,16.5c4.9,6.5,10.2,13.5,15.9,21c21.2,28.1,47.4,62.9,77,102.3c21.5,28.1,54.4,62.2,102.1,87.6
	c10.1,5.4,20.1,9.9,29.6,13.8c2.6,0.9,10,3.7,15.2,11.4c1.6,2.4,2.7,4.8,3.4,6.8C398.6,344.9,398.9,346.7,399.1,348.1z"/>
<g id="_x38_D">
	<g>
		<path class="st1" d="M187.8,184.7l-16.4,9.5c-10.3,6-20,3.8-31.7-2.6c-18.8-10.3-58.5-31.7-102.4-37.7c16.2,4.4,34.7,12.7,69,48
			s55.6,57.5,70.1,66c14.6,8.5,35.9,20.5,54.4,25.9c-19-8.2-45.1-20.6-58.1-39c-5.8-8.2-13.5-23.4-5.7-43.3
			C170.7,201.8,183.9,187,187.8,184.7z"/>
		<path class="st1" d="M236.1,291.8c0,0-23.2-14.6-23.6-27.6c-0.4-13,13.9-18.7,13.9-18.7s-35.9,2.4-46.5-12.2
			c-4-5.5-9-23.1,11.7-47.9c0,0-15.4,10.8-23,37.1c-3.2,11.1,0,28.4,23.3,46.8C203.7,278.6,236.1,291.8,236.1,291.8z"/>
	</g>
</g>
<path class="st2" d="M399.1,348.1c-92.2-0.2-184.3,0.1-276.5,0l0,0c-19.5,0-38.9,0-58.4,0c-4.1-20.5-8.2-41.1-12.3-61.7l0,0
	c-0.2-0.9-0.4-1.8-0.6-2.7l0,0c-3.1-15.5-6.2-31-9.3-46.5c-2.5-12.2-4.9-24.5-7.3-36.7C24,146.5,13.2,92.4,2.4,38.4
	c-0.1-0.3-0.9-2.4,0.2-4.6c1-2,3-2.6,3.3-2.8h78.4c3.7,0.2,10.6,1.1,18,5.2c8,4.4,12.6,10.5,14.1,12.6c3.4,4.5,12.5,16.6,26.1,34.6
	c3.8,5,8,10.5,12.5,16.5c4.9,6.5,10.2,13.5,15.9,21c21.2,28.1,47.4,62.9,77,102.3c21.5,28.1,54.4,62.2,102.1,87.6
	c10.1,5.4,20.1,9.9,29.6,13.8c2.6,0.9,10,3.7,15.2,11.4c1.6,2.4,2.7,4.8,3.4,6.8C398.6,344.9,398.9,346.7,399.1,348.1z"/>
<path class="st3" d="M398.7,346.9c-92.1-0.2-184,0.1-276.1,0H64.3c-4.1-20.4-8.2-40.9-12.3-61.5l0,0l-0.6-2.7l0,0l-9.3-46.4
	c-2.5-12.2-4.9-24.4-7.3-36.6C24.1,146,13.3,92.2,2.5,38.4c-0.6-1.5-0.5-3.1,0.2-4.6C3.5,32.5,4.6,31.5,6,31h78.3
	c6.3,0.4,12.4,2.1,17.9,5.2c5.5,3.1,10.3,7.4,14,12.5c3.4,4.5,12.5,16.5,26.1,34.5c3.8,5,8,10.5,12.5,16.4
	c4.9,6.5,10.2,13.4,15.8,20.9c21.1,28,47.3,62.7,76.9,101.9c21.4,28,54.3,62,101.9,87.3c9.6,5.1,19.5,9.7,29.6,13.8
	c6.1,2,11.5,6,15.1,11.4c1.4,2.1,2.5,4.4,3.4,6.8C398.2,343.7,398.5,345.5,398.7,346.9z"/>
</svg>
