<?xml version="1.0" encoding="utf-8"?>
<!-- Generator: Adobe Illustrator 26.0.1, SVG Export Plug-In . SVG Version: 6.00 Build 0)  -->
<svg version="1.1" id="Layer_1" xmlns="http://www.w3.org/2000/svg" xmlns:xlink="http://www.w3.org/1999/xlink" x="0px" y="0px"
	 viewBox="0 0 400 400" style="enable-background:new 0 0 400 400;" xml:space="preserve">
<style type="text/css">
	.st0{fill:#FFFFFF;stroke:#E0E0E0;stroke-width:0.9989;stroke-miterlimit:10;}
	.st1{fill:#F9D448;}
	.st2{fill:#1A4D9C;}
	.st3{fill:#FFFFFF;}
	.st4{fill:none;stroke:#E0E0E0;stroke-width:0.9989;stroke-miterlimit:10;}
	.st5{fill:none;stroke:#333333;stroke-width:3;stroke-miterlimit:10;}
</style>
<path class="st0" d="M399.1,348.1c-29.5-0.1-59-0.1-88.5-0.1c-18.8,0-37.6,0-56.4,0c-9.6,0-19.1,0-28.7,0c-10.9,0-21.8,0-32.7,0
	c-23.4,0-46.8,0-70.3,0H64.3c-4.1-20.5-8.2-41.1-12.3-61.7c-0.2-0.9-0.4-1.8-0.6-2.7c-3.1-15.5-6.2-31-9.3-46.5
	c-2.5-12.2-4.9-24.5-7.3-36.7C24,146.5,13.2,92.4,2.4,38.4c-0.1-0.3-0.9-2.4,0.2-4.6c1-2,3-2.6,3.3-2.8h78.4
	c3.7,0.2,10.6,1.1,18,5.2c8,4.4,12.6,10.5,14.1,12.6c3.4,4.5,12.5,16.6,26.2,34.6c3.8,5,8,10.5,12.5,16.5c4.9,6.5,10.2,13.5,15.9,21
	c21.2,28.1,47.4,62.9,77,102.3c21.5,28.1,54.4,62.2,102.1,87.6c10.1,5.4,20,9.9,29.6,13.8c2.6,0.9,10,3.7,15.2,11.4
	c1.6,2.4,2.7,4.8,3.4,6.8C398.6,344.9,398.9,346.7,399.1,348.1z"/>
<path class="st1" d="M310.7,348c-18.8,0-37.6,0-56.4,0c-21.8-17.2-41.7-36.5-58.6-56c-9.5-11.2-18.5-22.8-26.7-34.9
	c-7.3-10.8-14.1-21.9-20.2-33.5l40.2-22.3c22.3,38.1,48.2,74.4,78.7,106.4C280.8,322,295.5,335.3,310.7,348z"/>
<path class="st2" d="M225.6,348.1c-10.9,0-21.8,0-32.7,0c-6.6-5.9-13-12.1-19.2-18.4c-26.6-27.4-49.9-58.2-68.3-91.7l23-12.8
	C154,271,186.9,312.8,225.6,348.1z"/>
<g>
	<path class="st1" d="M139,264.8c-34.8,0-63.2-28.3-63.2-63.2c0-34.8,28.3-63.2,63.2-63.2s63.2,28.3,63.2,63.2
		C202.2,236.4,173.9,264.8,139,264.8z"/>
	<path class="st3" d="M139,147.9c29.7,0,53.7,24,53.7,53.7s-24,53.7-53.7,53.7s-53.7-24-53.7-53.7S109.4,147.9,139,147.9 M139,128.9
		c-40.1,0-72.7,32.6-72.7,72.7s32.6,72.7,72.7,72.7s72.7-32.6,72.7-72.7S179.1,128.9,139,128.9L139,128.9z"/>
</g>
<path class="st2" d="M158.2,147.2c-1.1,1.4-2.1,3-2.6,4.6c-0.9,3.3-0.7,3.4-4.3,3.8c-1.2,0.1-2.4,0.4-3.8,0.6c1.9,2.7,2,2.7,7.3,0.5
	c0.9,2.1,1.8,4.2,2.8,6.7c-1-0.2-1.5-0.2-1.9-0.4c-1.6-0.8-3.2-1.2-4.4,0.6c-1.2,1.9,0.3,3.2,1.6,4.2c1,0.8,2.4,1.3,3.7,1.5
	c1.2,0.2,2.4,0.1,3.7,0c4.1-0.1,7.9,0.6,10.7,4c0.2,0.3,1.6,0.2,1.8-0.1c1-2.1,1.8-4.3,2.8-6.5c0.3-0.6,1-1.4,1.6-1.5
	c4.7-0.4,9.3-0.6,14-0.8c0.6,0,1.4,0.4,1.7,0.9c1.8,3.5,3.5,7,5.4,10.9c-3.4-0.7-6.6-1.3-10-2c0.4-1,0.9-1.8,1.1-2.7
	c0.1-0.6-0.1-1.7-0.6-2c-2.9-2.1-8.8,0.1-9.7,3.6c-1.4,5.5-2.7,11-4.3,16.4c-1.9,6.3-6,10.5-12,13.5c-10.6,5.4-20.9,11.5-31.2,17.5
	c-2.1,1.2-3.9,3.4-5.3,5.4c-2.9,4.1-5.9,7.9-10.1,10.7c-1.8,1.2-3.4,2.7-4.8,4.3c-2.5,2.9-4.8,5.9-7.1,8.9c-6.9,9.1-15,17-24.7,23.1
	c-2.1,1.3-4.4,2.5-6.5,3.7c-0.1-0.1-0.3-0.3-0.4-0.4c0.9-2.9,1.9-5.8,2.6-7.9c2.7-0.8,5.1-1,6.8-2.1c5-3.3,9.4-7.2,11.5-13.2
	c1.7-4.8,3.2-9.9,6.8-13.8c0.3-0.4,0.5-1.1,0.4-1.6c-0.5-4.6-1.1-9.1-1.7-13.7c-0.1-1.2-0.6-1.6-1.8-1.5c-2.4,0.2-4.7,0.3-7.1,0.2
	c-8.1-0.4-11.1-3.5-11.4-11.6c0-0.6-1.1-1.5-1.8-1.8c-3.6-1.3-5.9-4.2-5.4-7.8c0.5-4.2,1.2-8.3,1.9-12.7c5.9,3.4,9.3,8.3,9.2,15.9
	c6.7-6.7,13.9-8.6,22.6-5.7c-0.4,0.5-0.5,0.8-0.7,1c-3.2,3-6.6,5.8-9.5,9c-3,3.3-6.4,3.7-10.4,2.7c-0.7-0.2-1.3-0.3-2-0.5
	c-0.6,3.5,0.7,6,3.8,6.2c2.8,0.2,5.7-0.4,8.4-1.1c2.6-0.6,4.7-2,5-5.2c0.1-1.1,1-2.2,1.7-3.2c3-4,7-6.8,11.3-9.1
	c1.8-1,2.1-2.4,0.9-4c-1.3-1.7-3.1-2.3-5.1-2.2c-3.5,0.2-7,0.5-10.5,0.9c-4.1,0.4-8.2,0.7-12.1-0.7c-2.9-1-5.1-2.8-6.3-5.8
	c2.3-0.4,4.3-0.8,6.3-1.1c0-0.2,0-0.5,0-0.7c-5.4-1.2-10.8-2.3-15-6.2c-4.2-3.8-6.9-8.4-7.7-14.4c2.9,1.3,5.4,2.6,8.9,2.1
	c-9.7-7.5-11.2-17.9-12.4-29c0.9,0.7,1.4,1,1.8,1.4c7.9,6.7,16,13,25.2,18c9.5,5.2,19.3,9.2,30.3,9.6c5.2,0.2,10.2,1.4,14.9,3.9
	c5.5,2.9,7.6,8.1,5.5,13.8c-0.5,1.4-1.2,2.7-1.9,4c0.2,0.1,0.3,0.2,0.5,0.3c3-3.2,6-6.3,6.2-11.1c0.1-1.6-0.3-3.4-1.1-4.7
	c-2-3.7-4.9-6.1-9.5-5.5c-2.7,0.4-5.1-0.6-7.6-2.6c2.6-0.4,5-0.1,6.3-2.5c-8.1-2.4-10.8-3.9-12.1-6.9c3.9,1.3,7.8,1.4,11.9,0.6
	c-0.9-1.3-1.6-2.3-2.5-3.6c3,0.6,5.5,1.2,8,1.7c0.1-0.2,0.2-0.5,0.3-0.7c-0.6-0.6-1.1-1.3-1.9-2.1c0.8-0.6,1.5-1.2,2.3-1.7
	c3.2-1.9,6.7-2.2,10.4-1.8c1,0.1,2.3-0.3,2.9-1c1.9-2.2,1.4-3.8-1.4-5c-1.9-0.8-3.5-1.9-2.7-4.2c0.6-1.8,1.7-3.3,2.6-5.1
	c1,1,1.8,1.6,2.5,2.3c-1.9,2.3-1.8,3.3-0.1,4.6c2.1,1.6,4.1,3.2,6.5,5.2c1.6-1.3,3.7-2.9,5.8-4.7C162.2,143,160,144.9,158.2,147.2z
	 M147.1,152.8c0.5,0,1-0.7,1.5-1.1c-0.4-0.5-0.8-1.3-1.3-1.5c-0.4-0.1-1,0.6-1.9,1.2C146.1,152,146.6,152.7,147.1,152.8z"/>
<path class="st4" d="M399.1,348.1c-29.5-0.1-59-0.1-88.5-0.1c-18.8,0-37.6,0-56.4,0c-9.6,0-19.1,0-28.7,0c-10.9,0-21.8,0-32.7,0
	c-23.4,0-46.8,0-70.3,0H64.3c-4.1-20.5-8.2-41.1-12.3-61.7c-0.2-0.9-0.4-1.8-0.6-2.7c-3.1-15.5-6.2-31-9.3-46.5
	c-2.5-12.2-4.9-24.5-7.3-36.7C24,146.5,13.2,92.4,2.4,38.4c-0.1-0.3-0.9-2.4,0.2-4.6c1-2,3-2.6,3.3-2.8h78.4
	c3.7,0.2,10.6,1.1,18,5.2c8,4.4,12.6,10.5,14.1,12.6c3.4,4.5,12.5,16.6,26.2,34.6c3.8,5,8,10.5,12.5,16.5c4.9,6.5,10.2,13.5,15.9,21
	c21.2,28.1,47.4,62.9,77,102.3c21.5,28.1,54.4,62.2,102.1,87.6c10.1,5.4,20,9.9,29.6,13.8c2.6,0.9,10,3.7,15.2,11.4
	c1.6,2.4,2.7,4.8,3.4,6.8C398.6,344.9,398.9,346.7,399.1,348.1z"/>
<path class="st5" d="M398.7,346.9c-92.1-0.2-184,0.1-276.1,0H64.3c-4.1-20.4-8.2-40.9-12.3-61.5l0,0l-0.6-2.7l0,0l-9.3-46.4
	c-2.5-12.2-4.9-24.4-7.3-36.6C24.1,146,13.3,92.2,2.5,38.4c-0.6-1.5-0.5-3.1,0.2-4.6C3.5,32.5,4.6,31.5,6,31h78.3
	c6.3,0.4,12.4,2.1,17.9,5.2c5.5,3.1,10.3,7.4,14,12.5c3.4,4.5,12.5,16.5,26.1,34.5c3.8,5,8,10.5,12.5,16.4
	c4.9,6.5,10.2,13.4,15.8,20.9c21.1,28,47.3,62.7,76.9,101.9c21.4,28,54.3,62,101.9,87.3c9.6,5.1,19.5,9.7,29.6,13.8
	c6.1,2,11.5,6,15.1,11.4c1.4,2.1,2.5,4.4,3.4,6.8C398.2,343.7,398.5,345.5,398.7,346.9z"/>
</svg>
