<?xml version="1.0" encoding="utf-8"?>
<!-- Generator: Adobe Illustrator 27.0.0, SVG Export Plug-In . SVG Version: 6.00 Build 0)  -->
<svg version="1.1" id="Layer_1" xmlns="http://www.w3.org/2000/svg" xmlns:xlink="http://www.w3.org/1999/xlink" x="0px" y="0px"
	 viewBox="0 0 400 400" style="enable-background:new 0 0 400 400;" xml:space="preserve">
<style type="text/css">
	.st0{fill:#002577;}
	.st1{fill:#FFFFFF;}
	.st2{fill:#0271A6;}
</style>
<g id="A3">
	<path class="st0" d="M130.9,71.3c-13-13.8-31.1-21.7-50-21.7H7.5L97,244.9c3.7-4,10.3-9.9,20.8-14.9c14.9,0,45,0,45,0
		s-35,13.2-49.3,51l4.3,9.5l14.5,31.7c13.6-15.6,15.3-26.8,28.8-48.7c15.1-24.4,45.3-43.4,45.3-43.4l56.3-0.1
		c0,0-26.6,10.1-50.4,38.8c-22.5,27.1-21,36-35.3,53c-9.4,11.1-22.6,22.1-31,28.5h246.4L130.9,71.3z"/>
	<path class="st1" d="M58.2,86.2c0,0,59.9,22.6,81.7,63.3s32.6,63.6,66.7,80.5c33,0,56.2,0,56.2,0s-43-20.6-67.7-63
		S143.6,93.4,57.6,82.5C58,85.4,58.2,86.2,58.2,86.2z"/>
	<path class="st1" d="M57.3,130.2c0,0,36.2,15,49.6,39.9s25.1,47.1,55.9,60c-21.4,0-45,0-45,0s-23.1-8.4-37.6-39.1
		C64.2,157,57.3,130.2,57.3,130.2z"/>
	<path class="st2" d="M177.1,321.8c14.3-17,12.8-25.8,35.3-53c23.8-28.7,50.4-38.8,50.4-38.8h-56.3c0,0-30.2,19-45.4,43.5
		c-13.6,21.9-15.2,33.1-28.8,48.7l12.9,28.1h0.9C154.5,343.9,167.7,333,177.1,321.8z"/>
	<path class="st2" d="M162.8,230c0,0-30.1,0-45,0c-10.6,5-17.1,10.8-20.8,14.9l15.7,34.3l0.8,1.8C127.7,243.2,162.8,230,162.8,230z"
		/>
</g>
</svg>
