<?xml version="1.0" encoding="utf-8"?>
<!-- Generator: Adobe Illustrator 27.0.0, SVG Export Plug-In . SVG Version: 6.00 Build 0)  -->
<svg version="1.1" id="Layer_1" xmlns="http://www.w3.org/2000/svg" xmlns:xlink="http://www.w3.org/1999/xlink" x="0px" y="0px"
	 viewBox="0 0 400 400" style="enable-background:new 0 0 400 400;" xml:space="preserve">
<style type="text/css">
	.st0{fill:#FFFFFF;stroke:#D3D3D3;stroke-miterlimit:10;}
	.st1{fill:#DD1F26;stroke:#D3D3D3;stroke-miterlimit:10;}
	.st2{fill:#182853;stroke:#D3D3D3;stroke-miterlimit:10;}
</style>
<g id="AF">
	<path class="st0" d="M244.1,341.1L46.9,135.2l24.2,52.9l145.5,151.3c2,2.1,4.4,3.6,7,4.7l15.5,5.9h20.1l-10.7-5.5
		C247,343.7,245.4,342.5,244.1,341.1z"/>
	<path class="st1" d="M216.7,339.4L71.2,188.2l41.7,90.9l1.8,4l55.6,58.8c1.7,1.8,3.7,3.2,5.9,4.2l9,4h54.1l-15.5-5.9
		C221.1,343.1,218.7,341.5,216.7,339.4z"/>
	<path class="st0" d="M345.9,336.9l21.5,13.1h24.7L131,71.6C118.1,57.8,100,50,81.1,50h-7l261.7,278.8
		C338.8,331.9,342.2,334.7,345.9,336.9z"/>
	<path class="st0" d="M170.3,341.8l-55.6-58.8l3.3,7.3l27.4,59.7h39.9l-9-4C174,345,172,343.6,170.3,341.8z"/>
	<path class="st2" d="M244.6,334l-205-214.7l7.3,16l197.1,205.8c1.3,1.4,2.9,2.6,4.6,3.5l10.7,5.5h9.6l-16.6-9.9
		C249.5,338.5,246.9,336.4,244.6,334z"/>
	<path class="st2" d="M345.9,336.9c-3.7-2.3-7.1-5-10.1-8.2L74.1,50H32.9l269,286.6c4.1,4.3,8.9,7.9,14.3,10.4l6.5,3h44.7
		L345.9,336.9z"/>
	<path class="st0" d="M301.9,336.6L32.9,50H13l265.1,282.8c2.2,2.3,4.6,4.4,7.2,6.2l16.5,11.1h20.8l-6.5-3
		C310.8,344.5,306,340.9,301.9,336.6z"/>
	<path class="st2" d="M278.1,332.8L13,50H7.9L22,80.9l243.4,255.8c2.5,2.6,5.4,4.6,8.7,6l17.9,7.4h9.8l-16.5-11.1
		C282.7,337.2,280.3,335.1,278.1,332.8z"/>
	<path class="st0" d="M265.5,336.6L22,80.9l17.6,38.4l205,214.7c2.3,2.4,4.9,4.5,7.8,6.2L269,350h23.1l-17.9-7.4
		C270.9,341.3,267.9,339.2,265.5,336.6z"/>
</g>
</svg>
