<?xml version="1.0" encoding="utf-8"?>
<!-- Generator: Adobe Illustrator 26.0.1, SVG Export Plug-In . SVG Version: 6.00 Build 0)  -->
<svg version="1.1" id="Layer_1" xmlns="http://www.w3.org/2000/svg" xmlns:xlink="http://www.w3.org/1999/xlink" x="0px" y="0px"
	 viewBox="0 0 400 400" style="enable-background:new 0 0 400 400;" xml:space="preserve">
<style type="text/css">
	.st0{fill:#FA0000;}
	.st1{fill:url(#SVGID_1_);}
	.st2{fill:#FED9A0;}
	.st3{fill:none;stroke:#E0E0E0;stroke-miterlimit:10;}
	.st4{fill:none;stroke:#333333;stroke-width:3;stroke-miterlimit:10;}
</style>
<path class="st0" d="M400,348.1c-66.8-0.1-133.5,0-200.3,0H198h-28.7c-15.5,0-30.9,0-46.4,0H64.4c-4.1-20.5-8.2-41.1-12.3-61.7
	c-0.2-0.9-0.4-1.8-0.6-2.7c-3.1-15.5-6.2-31-9.3-46.5c-2.5-12.2-4.9-24.5-7.3-36.7c-0.8-4.2-1.7-8.3-2.5-12.5c0-0.1,0-0.2-0.1-0.3
	c-0.9-4.3-1.8-8.7-2.6-13.1c0-0.1,0-0.2-0.1-0.3c-1.2-6-2.4-12.1-3.6-18.1c0-0.1,0-0.1,0-0.2c-0.5-2.6-1-5.2-1.6-7.8
	c0-0.1,0-0.1,0-0.2C17,111.5,9.7,74.9,2.4,38.4c-0.1-0.3-0.9-2.4,0.2-4.6c1-2,3-2.6,3.3-2.8h78.6c3.7,0.2,10.6,1.1,18,5.2
	c8,4.4,12.6,10.5,14.1,12.6c3.4,4.5,12.5,16.6,26.2,34.6c3.8,5,8,10.5,12.5,16.5c4.9,6.5,10.2,13.5,15.9,21
	c21.2,28.1,47.5,62.9,77.2,102.3c21.5,28.1,54.5,62.2,102.3,87.6c10.1,5.4,20.1,9.9,29.7,13.8c2.6,0.9,10,3.7,15.2,11.4
	c1.6,2.4,2.7,4.8,3.4,6.8C399.5,344.9,399.8,346.7,400,348.1z"/>
<linearGradient id="SVGID_1_" gradientUnits="userSpaceOnUse" x1="227.6139" y1="-99.3447" x2="82.4078" y2="260.0531" gradientTransform="matrix(1 0 0 -1 0 401.2756)">
	<stop  offset="0.1805" style="stop-color:#FED9A0"/>
	<stop  offset="0.4409" style="stop-color:#ECC890"/>
	<stop  offset="0.5738" style="stop-color:#BF9A66"/>
	<stop  offset="0.7464" style="stop-color:#9E7947"/>
</linearGradient>
<path class="st1" d="M204.8,324.9c-1.1,7.9-3.4,15.7-6.8,23.2h-28.7c-0.6-13.2-3.6-29.4-10.5-49.5c-12.3-35.4-23-69.1-23-69.1
	S103,216,69,200.7c-13.9-6.2-26-10.3-36.6-12.7c0-0.1,0-0.2-0.1-0.3c-0.9-4.3-1.8-8.7-2.6-13.1c0-0.1,0-0.2-0.1-0.3
	c-1.2-6-2.4-12.1-3.6-18.1c8.9-2.7,17.9-3.8,27.2-3.5c16.2,0.5,29.7,5.8,38.6,9.6c7.5,3.3,13.6,6.1,19,8.5
	c24.6,11,28.9,12.9,53.8,21l8.1,2.6h0.1l2.1,8.3c6.2,25.2,7.9,29.8,16.9,55.1c2,5.5,4.2,11.8,7,19.5
	C202.6,288.5,207.4,305.4,204.8,324.9z"/>
<path class="st2" d="M172.8,194.2l-0.2,0.2L136,229.3c0,0-32.8-13.6-66.8-28.9c-14-6.3-26.2-10.3-36.8-12.8
	c-0.9-4.3-1.8-8.7-2.6-13.1c0-0.1,0-0.2-0.1-0.3c-1.2-6-2.4-12.1-3.6-18.1c0-0.1,0-0.1,0-0.2c8.9-2.7,18-3.9,27.3-3.5
	c16.2,0.5,29.7,5.8,38.6,9.6c7.5,3.3,13.6,6.1,19,8.5c24.6,11,28.9,12.9,53.8,21L172.8,194.2z"/>
<path class="st3" d="M400,348.1c-92.4-0.2-184.7,0.1-277.1,0l0,0c-19.5,0-39,0-58.5,0c-4.1-20.5-8.2-41.1-12.3-61.7l0,0
	c-0.2-0.9-0.4-1.8-0.6-2.7l0,0c-3.1-15.5-6.2-31-9.3-46.5c-2.5-12.2-4.9-24.5-7.3-36.7C24,146.5,13.2,92.4,2.4,38.4
	c-0.1-0.3-0.9-2.4,0.2-4.6c1-2,3-2.6,3.3-2.8h78.6c3.7,0.2,10.6,1.1,18,5.2c8,4.4,12.6,10.5,14.1,12.6c3.4,4.5,12.5,16.6,26.2,34.6
	c3.8,5,8,10.5,12.5,16.5c4.9,6.5,10.2,13.5,15.9,21c21.2,28.1,47.5,62.9,77.2,102.3c21.5,28.1,54.5,62.2,102.3,87.6
	c10.1,5.4,20.1,9.9,29.7,13.8c2.6,0.9,10,3.7,15.2,11.4c1.6,2.4,2.7,4.8,3.4,6.8C399.5,344.9,399.8,346.7,400,348.1z"/>
<path class="st4" d="M398.7,346.9c-92.1-0.2-184,0.1-276.1,0H64.3c-4.1-20.4-8.2-40.9-12.3-61.5l0,0l-0.6-2.7l0,0l-9.3-46.4
	c-2.5-12.2-4.9-24.4-7.3-36.6C24.1,146,13.3,92.2,2.5,38.4c-0.6-1.5-0.5-3.1,0.2-4.6C3.5,32.5,4.6,31.5,6,31h78.3
	c6.3,0.4,12.4,2.1,17.9,5.2c5.5,3.1,10.3,7.4,14,12.5c3.4,4.5,12.5,16.5,26.1,34.5c3.8,5,8,10.5,12.5,16.4
	c4.9,6.5,10.2,13.4,15.8,20.9c21.1,28,47.3,62.7,76.9,101.9c21.4,28,54.3,62,101.9,87.3c9.6,5.1,19.5,9.7,29.6,13.8
	c6.1,2,11.5,6,15.1,11.4c1.4,2.1,2.5,4.4,3.4,6.8C398.2,343.7,398.5,345.5,398.7,346.9z"/>
</svg>
