<?xml version="1.0" encoding="utf-8"?>
<!-- Generator: Adobe Illustrator 27.0.0, SVG Export Plug-In . SVG Version: 6.00 Build 0)  -->
<svg version="1.1" id="Layer_1" xmlns="http://www.w3.org/2000/svg" xmlns:xlink="http://www.w3.org/1999/xlink" x="0px" y="0px"
	 viewBox="0 0 400 400" style="enable-background:new 0 0 400 400;" xml:space="preserve">
<style type="text/css">
	.st0{fill:#FCC80E;}
	.st1{clip-path:url(#SVGID_00000039823662861464056320000015346927285571238552_);}
	.st2{fill:#FFFFFF;}
	.st3{fill:#C0E585;}
	.st4{fill:#00C7E6;}
	.st5{clip-path:url(#SVGID_00000039823662861464056320000015346927285571238552_);fill:#8BA6C1;}
	.st6{fill:#01426A;}
	.st7{clip-path:url(#SVGID_00000039823662861464056320000015346927285571238552_);fill:#FFFFFF;}
	.st8{clip-path:url(#SVGID_00000039823662861464056320000015346927285571238552_);fill:#01426A;}
</style>
<g>
	<defs>
		<path id="SVGID_1_" d="M386.2,379.7H119.9c-8.4,0-15.7-5.6-17.8-13.7L14.2,34c-1.6-5.9,2.8-11.7,8.8-11.9l54.8-1.8
			c12.8-0.4,25.1,5.2,33.1,15.3L386.2,379.7z"/>
	</defs>
	<clipPath id="SVGID_00000136391775921437874140000003280665594182082233_">
		<use xlink:href="#SVGID_1_"  style="overflow:visible;"/>
	</clipPath>
	<g style="clip-path:url(#SVGID_00000136391775921437874140000003280665594182082233_);">
		<path class="st2" d="M310.1,323.6c1-3.7,1-10.4,3-13.3c0,0,4-14,9-15.8s5.5,9,5.5,9L310.1,323.6z"/>
		<path class="st3" d="M144.4,75c0,0-9.7-0.9-19.1,3.8s-23.2,5.4-35.7,11.8c-12.5,6.5-50.8,36.2-50.8,36.2l-5.5-19.7
			c31.5-19.6,61.6-38.2,98-46.6L144.4,75z"/>
		<path class="st4" d="M138.3,80.6c0,0,0.5-1.8,1.9-1.8s7.6,1.6,7.6,1.6s-4.3-10.1-11.2-9.2c-6.9,0.9-31.7,8.4-41.6,13.2
			c-9.9,4.8-17.4,12-19.4,14.4c-2.1,2.4-9.6,6-15.3,9.3c-5.7,3.3-21.5,13.8-21.5,18.8l3.7,7.9c1.5-3.7,4.7-6.9,9.5-9.8
			c5.5-3.3,12.3-7.7,14.1-13.1c4.9-14.4,29.2-4.6,28.2-17.8c-0.1-1.3,21.6-7.1,32.2-7.1c7.2,0,16.3,6.2,12.7-4L138.3,80.6z"/>
		<path class="st3" d="M290.2,381.1l7.4-14.2l4.2-0.4l1.3-5.7l24.7-31.5l3.7-1.1l-0.4-7.7l3.1-8.3l-6.6-8.8l-17.5,20.1
			c0,0-8.1,25.6-17.1,32.2c-9,6.6-11.8,4.6-16,10.7c-4.2,6.1-11.2,10.3-11.2,10.3l1.8,8.8L290.2,381.1z"/>
	</g>
	<path style="clip-path:url(#SVGID_00000136391775921437874140000003280665594182082233_);fill:#8BA6C1;" d="M46.3,157.5
		c5.7-7.1,10.1-15,16.7-20.1c6.2-4.7,14.7-6.4,23.8-10.2c-12.2,14.7-22.7,26.7-32.4,39.3c-2.3,3-3.6,8.4-2.7,12L46.3,157.5z"/>
	<g style="clip-path:url(#SVGID_00000136391775921437874140000003280665594182082233_);">
		<path class="st6" d="M154.6,88.7C206.2,153,257,218.3,308.8,282.4c7.4,9.1,11.8,16.9,4.2,27.9c-2,2.9-1.8,7.3-2.7,10.9
			c-4.5,17-10.1,33.1-28.1,40.9c-2.6,1.1-4,4.7-6.3,6.5c-5.1,4-10.5,10.9-15.9,11c-46.6,0.9-93.2,0.6-139.8,0.4
			c-10.3,0-17.7-5-20.5-15.6c-16.1-61.9-32.2-123.8-48-185.9c-0.9-3.6,0.4-9,2.7-12c9.7-12.6,20.2-24.7,32.4-39.3
			c-9.2,3.7-17.6,5.4-23.8,10.2c-6.6,5.1-11,13-16.7,20.1c-1-3.3-1.4-6-2.6-8.5c-4.9-10.7-1.8-18,8.2-24c5.5-3.3,12.3-7.7,14.1-13.1
			c4.9-14.4,21.2-11,29.7-21.2c4.8-5.8,20.1-3.7,30.7-3.7c7.2,0,13.1,0.9,9.5-9.3C146.6,75.5,150.2,83.2,154.6,88.7z M100,241.1
			c-0.6-0.9-1.3-1.9-1.9-2.8c-4.6,2.3-10.4,3.7-13.4,7.4c-1.5,1.8,0.8,8.7,3.3,11.7c9.9,12,8.6,26.2,7.2,39.6
			c-1.6,14.6,7.9,21.1,16.5,28.7c1.6,1.5,5.2,1,7.9,1c5.5,0,10.6-0.6,9.2,8.1c-0.2,1.4,7.8,6.6,10.3,5.7c9.8-3.7,23.4-3.2,25.4-18.5
			c0.2-1.7,6-3.3,9.4-3.7c9.7-1.2,19.6-1.9,29.3-2.7c0.2-1.4,0.4-2.9,0.6-4.3c-4-1.1-8-3.2-12-3.3c-18.5-0.4-37-0.2-56.5-0.2
			c-0.3,0.7-1,2.9-1.8,5.2c-0.4-0.4-0.9-0.8-1-1.2c-0.1-5.2-0.3-10.4-0.3-15.5c0.1-7.3,2.2-12.3,10.1-15.9
			c5.8-2.6,9.4-10.1,14.1-15.5c-0.4,9.7,5.6,6.4,12,5.1c7.1-1.4,14.8-2.1,21.9-1c10.7,1.7,12.4,1.2,13.3-13.3
			c2.6,5.3,4.3,7.9,5.4,10.9c2.9,8,5.3,16.1,14.7,19.7c1.9,0.7,3.1,5.1,3.3,7.8c0.5,6.5,0.2,13.1,0.2,20.1c-3-0.9-5.4-1.6-10.5-3.2
			c1,6.3,0.8,11.4,2.7,15.7c3,7,0.7,11.1-5.8,12.4c-8.3,1.6-16.8,1.9-25.2,2.9c-2.5,0.3-4.9,1.2-7.3,1.9c0.8,2.1,1.5,4.3,2.4,6.3
			c0.4,0.9,1.5,1.4,2.1,2.2c3.2,3.8,7,11.3,9.3,10.9c5.6-1,10.5-5.8,15.5-9.1c1.7-1.1,3-2.9,4.8-4c17.2-11.1,23.5-26.7,20.8-47
			c-1.3-9.7-0.2-19.7-0.2-32.1c4.7,4,7.7,6.4,12.1,10.1c1.8-14,1-26.5-7.4-36.6c-2.3-2.8-9.6-1.5-14.8-1c-9.3-6.5-19.4-11.5-32-11
			c-2.6,0.1-6.3-2.7-7.9-5.2c-2.3-3.8-3.2-8.6-5.6-15.5c-4.2,5.5-6.5,9-9.3,12.1c-6.8,7.7-14.2,14.8-25.8,11
			c-12.2-3.9-21.7,0.3-31.5,7.6c-5.1,3.8-12.9,4.1-19.5,5.9c-0.6-0.9-1.2-1.8-1.8-2.8C94.6,244.1,97.3,242.6,100,241.1z
			 M132.1,162.1c-7.8,7.3-14.8,13.8-21.7,20.4c-0.7-0.5-1.4-0.9-2.1-1.4c0.9-4.1,1.8-8.2,3-13.2c-12.7,4.9-24.8,30.5-19.6,40.2
			c1.3,2.4,7.2,4.5,9.8,3.5c7.7-2.8,14.8-7.2,22.1-11.1c15.6-8.3,31.8-8.3,48-2.4c4.3,1.5,7.8,5.2,12.4,8.3
			c2.7-14.2,13-12.2,23.4-11c3.8,0.5,7.7-0.4,13.3-0.8c-7.8-15.5-20.1-23.2-32.4-30.5c-5.6-3.3-11.7-5.8-17.9-7.8
			c-15.7-5.1-21-3.2-30.8,9.8c-1.4,1.9-3.1,3.5-5.2,6C133.5,168.5,133,166.1,132.1,162.1z M150.6,283.2c-4.2,0.2-9.2,3-12.1,6.1
			c-4.5,4.8-4.5,10.6,3.2,12.5c5.9,1.5,12.2,2.1,18.2,1.9c9.5-0.3,19-1.6,31-2.7C178.7,287.8,165.7,282.5,150.6,283.2z M121.3,230
			c6.3-6.9,12.2-11.5,23-8.3c-8-9-14.8-8.7-22.5-1.4c-5.6,5.3-11.8,9.9-17.8,14.9c0,0.8,0,1.5,0,2.3
			C109.9,235.1,117.5,234.2,121.3,230z M218,226.1c2.1,0.4,4.5-1.3,6.8-2.1c-1.6-1.8-3.1-5-4.9-5.2c-7.6-0.9-15.2-0.9-22.8-1.3
			c0,1.3,0,2.5,0.1,3.8C204.1,223,211,225,218,226.1z M210.5,285.2c-4,8.7-1.8,12.2,10.8,16.4C223.8,291.2,216,289.2,210.5,285.2z"
			/>
		<path class="st6" d="M33.3,107.2c31.5-19.6,61.6-38.2,98-46.6c-9.1-11.3-17.2-22.4-26.7-32.3c-3.6-3.7-10.2-6.2-15.6-6.4
			c-21-0.7-42.1-0.4-63.1-0.2c-9,0.1-13.4,4.8-11.4,13C20.3,58.7,26.8,82.5,33.3,107.2z"/>
		<path class="st6" d="M289.8,379.7c32.7,0,63.6,0,96.4,0c-17.5-22-34-42.9-50.3-63.4C320.7,337.2,305.8,357.8,289.8,379.7z"/>
	</g>
	<path style="clip-path:url(#SVGID_00000136391775921437874140000003280665594182082233_);fill:#FFFFFF;" d="M93.7,248.3
		c6.6-1.9,14.4-2.1,19.5-5.9c9.8-7.3,19.3-11.5,31.5-7.6c11.6,3.7,19-3.3,25.8-11c2.8-3.1,5.1-6.7,9.3-12.1c2.4,7,3.3,11.7,5.6,15.5
		c1.5,2.5,5.2,5.3,7.9,5.2c12.6-0.5,22.7,4.5,32,11c5.2-0.5,12.5-1.8,14.8,1c8.4,10.1,9.2,22.6,7.4,36.6c-4.4-3.7-7.3-6.1-12.1-10.1
		c0,12.3-1.1,22.4,0.2,32.1c2.8,20.3-3.5,35.8-20.8,47c-1.7,1.1-3.1,2.8-4.8,4c-5.1,3.4-10,8.1-15.5,9.1c-2.3,0.4-6.1-7-9.3-10.9
		c-0.7-0.8-1.7-1.3-2.1-2.2c-1-2-1.6-4.2-2.4-6.3c2.4-0.6,4.8-1.6,7.3-1.9c8.4-1,16.9-1.3,25.2-2.9c6.5-1.3,8.8-5.4,5.8-12.4
		c-1.8-4.2-1.7-9.3-2.7-15.7c5.1,1.5,7.5,2.3,10.5,3.2c0-7,0.3-13.6-0.2-20.1c-0.2-2.8-1.4-7.1-3.3-7.8
		c-9.4-3.5-11.8-11.6-14.7-19.7c-1.1-2.9-2.7-5.6-5.4-10.9c-0.9,14.5-2.6,15-13.3,13.3c-7.1-1.2-14.8-0.4-21.9,1
		c-6.4,1.3-12.4,4.6-12-5.1c-4.6,5.4-8.3,12.8-14.1,15.5c-7.9,3.6-10.1,8.5-10.1,15.9c0,5.2,0.1,10.4,0.3,15.5c0,0.4,0.6,0.7,1,1.2
		c0.8-2.3,1.6-4.4,1.8-5.2c19.5,0,38-0.2,56.5,0.2c4,0.1,8,2.1,12,3.3c-0.2,1.4-0.4,2.9-0.6,4.3c-9.8,0.9-19.6,1.5-29.3,2.7
		c-3.4,0.4-9.2,2.1-9.4,3.7c-2,15.4-15.6,14.8-25.4,18.5c-2.5,1-10.5-4.2-10.3-5.7c1.4-8.7-3.7-8.1-9.2-8.1c-2.7,0-6.2,0.5-7.9-1
		c-8.6-7.6-18-14.1-16.5-28.7c1.4-13.4,2.8-27.6-7.2-39.6c-2.5-3-4.8-9.9-3.3-11.7c3-3.6,8.8-5,13.4-7.4c0.6,0.9,1.3,1.9,1.9,2.8
		c-2.7,1.5-5.3,3-8,4.5C92.5,246.5,93.1,247.4,93.7,248.3z M128.1,242.3c8.7,6,16.2,6.6,24,3.2c-0.1-1.1-0.1-2.1-0.2-3.2
		C144.5,242.3,137.1,242.3,128.1,242.3z M197.6,240.4c-0.3,1.5-0.5,3-0.8,4.5c7.6,1.5,15.3,2.9,22.9,4.4c0.2-1.1,0.4-2.2,0.6-3.3
		C212.7,244.1,205.2,242.3,197.6,240.4z M124.8,288.9c-0.8-0.1-1.6-0.1-2.4-0.2c-0.5,8.9-0.9,17.8-1.4,26.7c1.3,0.1,2.5,0.2,3.8,0.2
		C124.8,306.7,124.8,297.8,124.8,288.9z"/>
	<path style="clip-path:url(#SVGID_00000136391775921437874140000003280665594182082233_);fill:#FFFFFF;" d="M134.3,172.1
		c-0.8-3.5-1.3-6-2.3-10c-7.8,7.3-14.8,13.8-21.7,20.4c-0.7-0.5-1.4-0.9-2.1-1.4c0.9-4.1,1.8-8.2,3-13.2
		c-12.7,4.9-24.8,30.5-19.6,40.2c1.3,2.4,7.2,4.5,9.8,3.5c7.7-2.8,14.8-7.2,22.1-11.1c15.6-8.3,31.8-8.3,48-2.4
		c4.3,1.5,7.8,5.2,12.4,8.3c2.7-14.2,13-12.2,23.4-11c3.8,0.5,7.7-0.4,13.3-0.8c-7.8-15.5-20.1-23.2-32.4-30.5
		c-5.6-3.3-11.7-5.8-17.9-7.8c-15.7-5.1-21-3.2-30.8,9.8C138.1,167.9,136.5,169.6,134.3,172.1z"/>
	<path style="clip-path:url(#SVGID_00000136391775921437874140000003280665594182082233_);fill:#FFFFFF;" d="M190.9,301
		c-12.2-13.2-25.3-18.5-40.3-17.8c-4.2,0.2-9.2,3-12.1,6.1c-4.5,4.8-4.5,10.6,3.2,12.5c5.9,1.5,12.2,2.1,18.2,1.9
		C169.5,303.5,178.9,302.1,190.9,301z"/>
	<path style="clip-path:url(#SVGID_00000136391775921437874140000003280665594182082233_);fill:#FFFFFF;" d="M104.1,237.4
		c5.9-2.4,13.4-3.2,17.3-7.4c6.3-6.9,12.2-11.5,23-8.3c-8-9-14.8-8.7-22.5-1.4c-5.6,5.3-11.8,9.9-17.8,14.9
		C104.1,235.9,104.1,236.7,104.1,237.4z"/>
	<path style="clip-path:url(#SVGID_00000136391775921437874140000003280665594182082233_);fill:#FFFFFF;" d="M197.2,221.4
		c6.9,1.6,13.8,3.5,20.8,4.7c2.1,0.4,4.5-1.3,6.8-2.1c-1.6-1.8-3.1-5-4.9-5.2c-7.6-0.9-15.2-0.9-22.8-1.3
		C197.2,218.9,197.2,220.1,197.2,221.4z"/>
	<path style="clip-path:url(#SVGID_00000136391775921437874140000003280665594182082233_);fill:#FFFFFF;" d="M221.3,301.6
		c2.5-10.4-5.4-12.4-10.8-16.4C206.5,293.9,208.7,297.4,221.3,301.6z"/>
	<path style="clip-path:url(#SVGID_00000136391775921437874140000003280665594182082233_);fill:#01426A;" d="M151.9,242.3
		c-7.4,0-14.8,0-23.8,0c8.7,6,16.2,6.6,24,3.2C152,244.4,151.9,243.4,151.9,242.3z"/>
	<path style="clip-path:url(#SVGID_00000136391775921437874140000003280665594182082233_);fill:#01426A;" d="M220.3,246
		c-7.6-1.9-15.1-3.7-22.7-5.6c-0.3,1.5-0.5,3-0.8,4.5c7.6,1.5,15.3,2.9,22.9,4.4C219.9,248.2,220.1,247.1,220.3,246z"/>
	<path style="clip-path:url(#SVGID_00000136391775921437874140000003280665594182082233_);fill:#01426A;" d="M124.8,315.6
		c0-8.9,0-17.8,0-26.7c-0.8-0.1-1.6-0.1-2.4-0.2c-0.5,8.9-0.9,17.8-1.4,26.7C122.2,315.4,123.5,315.5,124.8,315.6z"/>
</g>
</svg>
