<?xml version="1.0" encoding="utf-8"?>
<!-- Generator: Adobe Illustrator 27.0.0, SVG Export Plug-In . SVG Version: 6.00 Build 0)  -->
<svg version="1.1" id="Layer_1" xmlns="http://www.w3.org/2000/svg" xmlns:xlink="http://www.w3.org/1999/xlink" x="0px" y="0px"
	 viewBox="0 0 400 400" style="enable-background:new 0 0 400 400;" xml:space="preserve">
<style type="text/css">
	.st0{fill:#FFFFFF;stroke:#000000;stroke-width:0.25;stroke-miterlimit:10;}
	.st1{fill:#BF2026;}
	.st2{fill:#215027;}
</style>
<g id="AT">
	<path class="st0" d="M131,71.6C118.1,57.8,100,50,81.1,50H7.9L106,264.2c19.5,27.4,63.4,69.7,153.5,85.9h132.7L131,71.6z"/>
	<g>
		<path class="st1" d="M171.2,307.7c-9.6-12.2-18.1-25.1-25.4-38.8c-11.8-22.4-21.1-45.6-24.8-70.9c-1.5-10-1.9-20,1.3-29.8
			c3.6-10.9,12-15.3,23-12.2c10.1,2.9,18.1,9.1,25.6,16c18.4,17.2,32.1,38,43.7,60.2c3.5,6.8,6.7,13.9,10.4,21.6
			c0.8-2.4,1.4-4.2,2-5.9c2.5-7.7,5-15.4,7.6-23.1c0.5-1.7,0.8-3.2,0-4.9c-11-26.4-26.3-49.8-48.5-68.2c-8.9-7.4-18.7-13.4-30-16.3
			c-21.7-5.5-38.6,4.6-44.7,26.2c-4.7,16.7-3.5,33.4,0.4,49.9c8.1,34.2,24.4,64,49.7,88.6c2.9,2.8,6.1,5.4,9.2,8.1
			C170.7,308.1,170.9,307.9,171.2,307.7z"/>
		<g>
			<g>
				<path class="st2" d="M192.4,259.1c5.4,4,10.9,7.9,16.3,11.9c6.2,4.6,12.5,9.2,18.7,13.7c1.5,1.1,6.6-0.8,6.8-2.6
					c0.2-1.2-1.1-1.5-1.8-2c-5.9-4.2-11.8-8.4-17.7-12.7c-1-0.7-2.1-1.2-2.8-2.8c2.3-0.7,4.5-0.3,6.7-0.4c2.7-0.1,4.7-2.4,4.4-4.9
					c-0.1-1.3-1-1.3-1.8-1.3c-9.5,0-19,0-28.6,0C192.6,258.5,192.5,258.8,192.4,259.1z"/>
				<path class="st2" d="M263.6,311c0.8-1.4,0.1-2.2-0.2-3.1c-4.2-13.1-8.6-26.1-12.3-39.3c-0.5-2-5.6-3.4-6.9-2c-1,1,0,2.1,0.3,3
					c2.2,6.9,4.5,13.7,6.7,20.6c0.4,1.2,1.2,2.4,0.7,4.1c-4-2.1-7.8-8.3-12.5-0.8C247.4,299.3,255.5,305.1,263.6,311z"/>
				<path class="st2" d="M221.6,294.5c0.1-2.9,1.2-4.9,1.7-6.9c0.3-1.2,0.7-2.2-0.5-3.3c-3.3-3.1-4-3-5.4,1.4
					c-2.3,7.2-4.7,14.5-7,21.7c-0.4,1.1-1.1,2.2-0.6,3.8c6-4.3,11.9-8.5,17.7-12.8c5.9-4.2,11.7-8.5,17.6-12.7
					c1.5-1.1,1.2-6.8-0.5-7.5c-1-0.4-1.7,0.7-2.4,1.2c-5.7,4.2-11.4,8.5-17.1,12.7C224.1,292.8,223,293.5,221.6,294.5z"/>
				<path class="st2" d="M281.1,259.1c-0.5-1.1-1-0.9-1.5-0.9c-13.9,0-27.8,0-41.7,0c-2.4,0-4.6,2.9-3.9,5.1c0.6,1.6,2.1,1.1,3.1,1
					c7.7-0.9,15.4,0.1,23.2,0.1c0.3,0,0.6,0.2,1.6,0.6c-2.1,1.6-3.8,2.9-5.6,4.3c-1.8,1.4-2,5.7-0.3,7.2c0.5,0.4,0.9,0.3,1.3,0
					C265.3,270.6,273.3,264.8,281.1,259.1z"/>
				<path class="st2" d="M236.3,226.4c-2.5,7.8-4.9,15.3-7.3,22.9c-2,6.1-3.8,12.2-5.9,18.3c-1.4,3.8,2,4.1,3.7,5
					c2.2,1.2,1.8-1.6,2.2-2.6c3.1-7.5,4.3-15.6,7.5-23.3c1.7,2,1.8,4.3,2.7,6.4c0.8,2,4.5,3.3,6.3,2.2c0.8-0.5,0.6-1.2,0.3-1.9
					c-2.8-8.7-5.7-17.5-8.5-26.2C237.3,226.9,236.9,226.8,236.3,226.4z"/>
			</g>
		</g>
	</g>
	<path class="st1" d="M106,264.2l6.8,14.9l5.2,11.3l27.4,59.7h114.1C169.4,333.9,125.6,291.5,106,264.2z"/>
</g>
</svg>
