<?xml version="1.0" encoding="utf-8"?>
<!-- Generator: Adobe Illustrator 27.0.0, SVG Export Plug-In . SVG Version: 6.00 Build 0)  -->
<svg version="1.1" id="Layer_1" xmlns="http://www.w3.org/2000/svg" xmlns:xlink="http://www.w3.org/1999/xlink" x="0px" y="0px"
	 viewBox="0 0 400 400" style="enable-background:new 0 0 400 400;" xml:space="preserve">
<style type="text/css">
	.st0{fill:#EB3A3A;}
	.st1{fill:#F3F3F3;}
	.st2{fill:#F47D41;}
	.st3{fill:#E8E7E7;}
	.st4{fill:#9A1B1F;}
</style>
<g id="AV">
	<path class="st0" d="M155.6,215c37,26.1,77.5,51.1,115.4,72.9c-4.5-27.7-0.7-52.4,2.3-65.8L129.6,69c-6-6.3-13-11.4-20.7-15.1
		c-6.4,15.4-23.9,60.6-27.5,101C102.9,174.4,128.1,195.7,155.6,215z"/>
	<path class="st1" d="M271,287.9c50.9,29.3,97,52.8,123.2,65.1h1.9L273.3,222.2C270.2,235.6,266.4,260.3,271,287.9z"/>
	<path class="st2" d="M300.4,353.1h93.8c-26.2-12.4-72.3-35.8-123.2-65.1C274.5,309.2,282.9,332.2,300.4,353.1z"/>
	<path class="st3" d="M81.5,154.8c3.6-40.4,21.1-85.6,27.5-101c-9.4-4.5-19.7-6.9-30.3-6.9H4L30,103.8
		C41.5,116.1,59.4,134.5,81.5,154.8z"/>
	<path class="st0" d="M81.5,154.8c-22.2-20.3-40-38.7-51.5-51.1l81.1,176.9l5.3,11.5l27.9,60.9H160C139.2,324.8,95.4,240,83.4,191.7
		C80.7,180.7,80.4,168,81.5,154.8z"/>
	<path class="st4" d="M271,287.9c-37.9-21.8-78.4-46.8-115.4-72.9c-27.4-19.3-52.7-40.6-74-60.2c-1.2,13.2-0.8,25.9,1.9,36.9
		c12,48.3,55.8,133.1,76.6,161.4h140.3C282.9,332.2,274.5,309.2,271,287.9z"/>
</g>
</svg>
