<?xml version="1.0" encoding="utf-8"?>
<!-- Generator: Adobe Illustrator 27.0.0, SVG Export Plug-In . SVG Version: 6.00 Build 0)  -->
<svg version="1.1" id="Layer_1" xmlns="http://www.w3.org/2000/svg" xmlns:xlink="http://www.w3.org/1999/xlink" x="0px" y="0px"
	 viewBox="0 0 400 400" style="enable-background:new 0 0 400 400;" xml:space="preserve">
<style type="text/css">
	.st0{fill:#FFFFFF;stroke:#D6D6D6;stroke-miterlimit:10;}
	.st1{fill:#0A145F;}
</style>
<path class="st0" d="M79,47.8c19.2,0,37.7,8,50.8,22l265.7,283.3H144.3l-27.8-60.7l-5.2-11.5L4.5,47.8H79z"/>
<path class="st1" d="M156,275.1c2.7-5,11.8-22.4,13.9-26c2.1-3.6,4.1-2.9,6.5-2.9s25.3,0,30.2-0.1c4.8-0.2,4.8-1.4,6.1-3.5
	c1.4-2.1,5.3-9.6,5.3-9.6l-39-0.1c0,0,5.7-10.3,8.3-14.2s8.5-4.3,11.6-4.3s21.1,0.4,26.1,0.3c5-0.1,7.9-1.6,9.2-3.6s5.3-9.9,5.3-9.9
	s-47.2-0.2-61.7,0.5s-19,6.5-23,12.1c-4,5.5-12.4,19-14.6,22.9c-2.2,3.9-11.3,19-16.4,22.6c-4.9,3.4-12.3,3.9-21.1,4.4l10.4,22.8
	c2.9,0,11.4,0.5,23.1,0.3C148.3,286.5,153.4,280.1,156,275.1L156,275.1z"/>
</svg>
