<?xml version="1.0" encoding="utf-8"?>
<!-- Generator: Adobe Illustrator 27.0.0, SVG Export Plug-In . SVG Version: 6.00 Build 0)  -->
<svg version="1.1" id="Layer_1" xmlns="http://www.w3.org/2000/svg" xmlns:xlink="http://www.w3.org/1999/xlink" x="0px" y="0px"
	 viewBox="0 0 400 400" style="enable-background:new 0 0 400 400;" xml:space="preserve">
<style type="text/css">
	.st0{fill:#FEE900;}
</style>
<g id="BI">
	<path class="st0" d="M4.7,47.5l106.7,232.8l5.2,11.5l27.8,60.7h250.8l-265.3-283c-13.2-14-31.5-22-50.7-22H4.7z"/>
	<g>
		<g>
			<path d="M178,191c-2.3,0.2-4.8,1.8-6.4-1.4c0.2-0.4,0.5-0.2,0.8-0.2c2.8,0.2,5.3-0.6,7.6-2.3c1.7-1.3,3.7-1.6,5.7-1.3
				c1.2,0.2,2.2,0.8,3,1.6c0.4,0.4,0.6,0.4,1,0c2.3-2.1,5.7-2.4,8.1-0.7c2.7,1.9,5.5,3.1,8.8,2.6c-0.2,1.3-1.2,2.2-2.5,2.2
				c-1.3,0-2.6-0.4-3.8-0.6c0.9,0.7,2.1,0.7,3.3,1c-0.5,0.7-0.1,1.1,0.3,1.7c4.5,5.4,5.9,11.5,3.4,18.2c-2.6,6.9-7.7,11-14.9,12.2
				c-10.1,1.8-19.7-4.1-22.3-13.6c-1.7-6.1-0.4-11.6,3.5-16.6c0.4-0.5,1.2-0.9,1-1.8c-0.1-0.3,0.4-0.2,0.6-0.2
				C176.4,191.7,177.2,191.5,178,191z M180.3,218.8c-0.3,0.1-0.6-0.2-0.9,0.1c-0.1,0.2-0.3,0.3-0.5,0c-0.2-0.2,0.1-0.4,0.2-0.5
				c0.5-0.5,1.2-0.7,1.6-1.5c-1,0.2-1.5,0.8-2.1,1.2c-0.3,0.2-0.8,0.4-0.5,0.8c0.3,0.4,0.8,0.5,1.3,0.3
				C179.9,219.3,180.1,219,180.3,218.8c-0.1,0.4-0.8,0.8-0.2,1.3c0.4,0.4,0.9,0.6,1.4,0.5c0.6-0.2,0.8-0.7,1.1-1.2
				c0.1-0.2,0.1-0.4,0-0.5c-0.2-0.1-0.4,0.1-0.5,0.3c-0.1,0.3,0,0.8-0.5,0.9c-0.4,0.1-0.7,0.1-1-0.2c-0.5-0.5,0.5-0.6,0.3-1.1
				C180.7,218.8,180.5,218.8,180.3,218.8z M190.4,197.7c-0.4-0.1-0.4-0.4-0.5-0.6c-0.5-0.8-0.9-0.8-1.3-0.1
				c-0.1,0.2-0.1,0.5-0.4,0.6c-0.6-0.4-1-1-0.9-1.8c0-0.2,0.1-0.5-0.2-0.5c-0.7-0.2-0.8-0.7-0.8-1.5c-0.4,0.4-0.8,0.7-1.1,1
				c-1,0.9-2.2,1.2-3.5,0.9c-0.4-0.1-0.9-0.2-1.1-0.6c-0.1-0.5,0.5-0.4,0.8-0.7c0.1-0.1,0.3-0.2,0.1-0.4c-0.4,0.2-0.8,0.4-1.2,0.6
				c-0.9,0.4-1.7,0.3-2.4-0.5c-0.3-0.4-0.4-0.5,0.1-0.7c0.7-0.2,1.4-0.6,2.2-0.9c-0.6-0.2-0.9,0.1-1.2,0.2c-1.2,0.4-2.3,1.2-3.6,0.4
				c-0.4-0.2-0.5,0.2-0.6,0.4c-0.8,1.3-1.5,2.6-1.9,4.1c-2,7.2,1.9,15.2,8.8,18.4c1.5,0.7,3,1.2,4.9,1.4c-1.5-1-2.6-2-2.6-3.9
				c0.6,0.5,1,1,1.7,1c0.8,0,1.4,0.3,2.1,0.8c0.4-0.7,0.8-1.3,1.1-2c0.3-0.5,0.5-0.3,0.8,0c0.5,0.6,0.6,1.3,1.1,2
				c1.1-1.1,2.9-0.4,3.9-2.1c-0.1,1.1-0.4,1.8-0.8,2.5c-0.4,0.6-1.1,1-1.8,1.7c4.1-0.8,7.3-2.6,9.9-5.6c4.4-5.1,5.1-12.3,1.7-17.9
				c-0.2-0.3-0.3-0.8-0.7-0.6c-1.4,0.5-2.5-0.2-3.6-0.7c-0.2-0.1-0.5-0.4-0.8-0.1c0.4,0.4,1,0.5,1.5,0.8c0.3,0.2,0.9,0.1,0.9,0.6
				c0,0.4-0.5,0.7-0.9,0.8c-0.7,0.3-1.3,0.2-1.9-0.1c-0.4-0.2-0.7-0.4-1.2-0.6c0.2,0.7,0.9,0.7,1.1,1.2c-2.3,1.5-4,0.5-5.8-1.4
				c0.1,0.8,0,1.3-0.5,1.5c-0.3,0.1-0.4,0.3-0.4,0.6C191.4,196.6,190.9,197.2,190.4,197.7L190.4,197.7z M179.3,220.6
				c0.1,0.4,0.2,0.5,0.4,0.6c1.3,0.7,2.5,0.8,3.7-0.1c0.4-0.3,1-0.6,1.2-0.2c0.2,0.6,0.6,0.5,1,0.6c0.8,0.1,1.6,0.3,2.4,0.3
				c1,0,2.1,0.7,3.2-0.1c0.1-0.1,0.3-0.1,0.4,0.1c0.2,0.7,1.2,0.3,1.5,1c0.1,0.2,0.7,0.2,1-0.2c0.1-0.2,0.2-0.4,0.5-0.4
				c0.9-0.1,1-0.8,0.8-1.5c-0.1-0.6-0.3-1.2-0.5-1.7c-0.1-0.2,0-0.6-0.4-0.4c-0.3,0.1-0.3,0.4-0.1,0.6c0.4,0.4,0.5,0.9,0.6,1.5
				c0.1,0.9-0.2,1.1-1.1,0.9c-0.4-0.1-0.7,0-1,0.1c-0.3,0.1-0.6,0.2-0.8-0.2c0.2-0.3,0.7-0.1,0.8-0.5c-2-0.7-2.1-0.7-2.7,0
				c0.4,0.2,0.9-0.3,1.1,0.4c-0.4,0.2-0.9,0.5-1.4,0.3c-1.5-0.6-3.4,0.1-4.8-1.1c-0.3-0.2-0.8-0.2-1.1-0.7c-0.2-0.4-0.6-0.2-0.9,0
				c-0.3,0.2-0.7,0.4-0.4,0.8c0.5,0.7-0.1,0.6-0.4,0.7C181.2,221.4,180.3,221,179.3,220.6z M202.6,215.6c0.3,1.1-0.2,1.4-1.1,1.3
				c-0.4,0-0.7,0.2-0.9,0.5c-0.3,0.5-0.6,0.6-1.1,0.3c-0.4-0.3-0.8-0.1-1,0.3c-0.2,0.4,0.1,0.6,0.3,0.8c0.3,0.2,0.8,0,0.7,0.6
				c-0.1,0.4-0.3,0.7-0.6,1c-0.3,0.3-0.9,0.3-1.1,0.8c1.3,0.1,1.8-0.3,2.1-1.6c0.1-0.5,0.2-1,1-0.9c0.5,0.1,2.1-1.5,2.2-2
				C203.2,216.2,203.2,215.9,202.6,215.6z M177.8,215.8c-0.7-0.2-1.1,0.1-1.4,0.5c-0.4,0.6-1,0.4-1.3,0c-0.3-0.4-0.5-0.5-0.8-0.1
				c-0.3,0.4,0.1,0.6,0.4,0.7c0.5,0.2,1.1,0.6,1,1c-0.2,0.9,0.1,0.8,0.6,0.4c0.3-0.2,0.5-0.2,0.8-0.1c1.4,0.4,1.9-0.8,3-1.5
				c-0.4,0-0.6-0.1-0.6-0.1c-0.6,0.3-1,1.4-1.8,0.3c-0.1-0.1-0.3,0-0.4,0c-0.4,0-0.7,0.4-1.1,0.1
				C176.7,216.8,177.2,216.3,177.8,215.8z M174.1,215c-0.7-0.2-1.1-0.6-1.1-1.2c-0.1-1.1,0.9-1,1.8-1.4c-1-0.3-1.7-0.2-2.2,0.5
				c-0.4,0.5-0.3,1.1,0.1,1.6c0.5,0.7,1,1.3,2,1.3c0.4,0,0.6-0.2,0.4-0.6c-0.1-0.2-0.2-0.5,0.1-0.5c0.3-0.1,0.6,0,0.8,0.2
				c0.2,0.2,0.3,0.3,0.1,0.5c-0.1,0.1-0.3,0.2-0.1,0.4c0.2,0.2,0.4,0.1,0.6,0c0.2-0.1,0.4-0.1,0.4-0.4c0.1-0.6-1.1-1.3-2.1-1.4
				C173.8,213.8,173.9,214.3,174.1,215z M203.7,216c0.9-0.1,1.6-0.7,1.9-1.3c0.3-0.7-0.4-1.3-1.1-1.8c-0.2-0.2-0.5-0.3-0.7-0.5
				c-0.2-0.1-0.4-0.3-0.5,0c-0.1,0.2,0,0.3,0.2,0.4c0.4,0.2,0.7,0.4,1.1,0.7c0.4,0.2,0.7,0.5,0.5,1.2c-0.4-0.4-0.7-0.6-1-0.9
				c-0.1-0.1-0.3-0.3-0.4-0.1c-0.1,0.1-0.1,0.4,0,0.5C204.5,214.8,204.3,215.4,203.7,216z M196.3,218.7c-0.3,0.5-0.2,1,0.1,1.4
				c0.3,0.4,0.8,0.4,1.3,0.3c0.8-0.2,1.1-0.9,0.8-1.8c-0.1-0.3-0.1-1-0.6-0.8c-0.5,0.2-0.1,0.6,0.1,0.9c0.2,0.3,0.1,0.6-0.2,0.8
				c-0.3,0.2-0.6,0.3-1-0.1C196.5,219.3,196.7,218.9,196.3,218.7z M205.8,213.6c-0.3-1.1-1-1.4-1.5-1.9c-0.1-0.1-0.3-0.3-0.4,0
				c-0.1,0.2,0,0.3,0.1,0.5C204.5,212.6,205,213,205.8,213.6z M201.6,215c0.4-0.4,0.2-0.5,0-0.5c-0.3,0-0.6,0.3-0.5,0.5
				c0.1,0.4,0.3,0.9,0.6,0.9c0.4,0.1,0.6-0.4,0.7-0.8C202.4,214.7,201.8,215.1,201.6,215z M196,221c0,0,0.1,0,0.1,0
				c-0.1-0.7-0.2-1.4-0.3-2.1c0-0.2,0-0.6-0.4-0.4c-0.3,0.1-0.2,0.4-0.1,0.6C195.6,219.7,195.8,220.4,196,221z M202,213.9
				c0.2,0.8,0.7,1,1.1,1.5c0.1,0.1,0.3,0.3,0.4,0.2c0.2-0.1,0.2-0.4,0-0.6C203.1,214.6,202.7,214.1,202,213.9z"/>
			<path d="M212.9,226.7c-2.6-1.1-5-0.9-7.2,0.7c-0.9,0.6-1.8,1.2-2.7,1.7c-1.3,0.7-1.9,0.4-2.6-0.8c-0.2-0.3-0.4-0.3-0.7-0.2
				c-3.3,1.7-6.9,2.1-10.5,2.1c-3.7,0-7.3-0.5-10.7-2.1c-0.3-0.2-0.5-0.3-0.7,0.2c-0.6,1.1-1.2,1.3-2.4,0.9
				c-0.9-0.3-1.8-0.9-2.6-1.5c-2.3-1.8-4.8-2.1-7.6-0.9c0.3-1,0.8-1.6,1.5-2.1c0.3-0.2,0.5-0.4,0.4-0.9c-0.3-1.8,0.7-2.7,2.5-2.3
				c0.4,0.1,0.7,0.2,1.1,0.3c0.2-0.4,0-0.6-0.1-0.9c-0.1-0.9-0.1-1.8,0.8-2.3c1-0.5,1.9-0.4,2.8,0.3c1.8,1.6,3.8,3,6,4
				c7.7,3.6,14.9,2.5,21.7-2.4c0.6-0.4,1.2-0.9,1.7-1.4c1-0.8,2.1-1,3-0.5c1,0.6,0.9,1.6,0.7,2.5c0,0.2,0,0.3-0.1,0.6
				c0.6-0.1,1.1-0.3,1.6-0.4c1.4-0.2,2.3,0.6,2.1,2c-0.1,0.7,0.1,1,0.6,1.4C212.3,225.2,212.7,225.8,212.9,226.7z M177.3,225.1
				c0.2-0.1,0.5-0.3,0.7-0.4c0.2-0.2,0.6-0.4,0.4-0.8c-0.2-0.3-0.5-0.4-0.8-0.3c-0.1,0-0.2,0.1-0.3,0.1c-0.8,0.4-1.5,0.4-2.2-0.4
				c-0.2-0.3-0.5-0.5-1.1-0.1c0.9,0.1,0.9,1.2,1.6,1.1C176.4,224.3,176.7,224.8,177.3,225.1c0,0.8,0.6,1,1.2,1.2
				c0.2,0.1,0.6,0,0.7,0.1c1.1,1.3,2.8,0.4,4,1.3c0.6,0.4,1.2,0.2,1.8,0.4c1.5,0.5,2.1,0.1,2-1.4c0-0.2,0.1-0.5-0.2-0.5
				c-0.3,0-0.4,0.2-0.4,0.5c0,0.3,0,0.6-0.1,1c0,0.2-0.3,0.4-0.3,0.3c-0.4-1-1.3-0.3-1.9-0.6c-0.7-0.3-1.5-0.8-2.4-0.6
				c-0.5,0.1-1.4,0.1-1.6-0.5c-0.2-0.5,0.4-1,0.7-1.5c0.1-0.1,0.1-0.2,0.3-0.4c-0.6,0-0.9,0-1.1,0.6c-0.3,1-0.6,1.1-1.6,0.5
				c0.9,0.2,1.1-0.7,1.5-1.2c0.1-0.2,0.2-0.4-0.1-0.5c-0.2,0-0.4,0-0.4,0.3c-0.1,0.6-0.5,1-0.9,1.4
				C178,225.3,177.7,225.1,177.3,225.1z M201.2,224.4c-0.3,1.1-1.2,1.4-1.8,2c0.9,0.5,1.4-0.6,2.2-0.6c0.6,0,1-0.4,1-1
				c0.1-0.7,0.2-1.4,1-1.7c0.2-0.1,0.2-0.2,0.1-0.7c-0.9,0.5-1.8,1.1-1.7,2.4c0,0.1-0.2,0.4-0.5,0.3c0-0.5,0.4-0.9,0.2-1.4
				c-0.2-0.4-0.3-0.9-0.8-0.8c-0.5,0.1-0.7,0.4-0.7,0.9C200.3,224.3,200.5,224.8,201.2,224.4z M198.2,226.4c-0.8,0.7-1.5,1-2.4,1
				c-0.7-0.1,0-0.7-0.4-0.9c-0.3,0.4-0.8,0.6-0.6,1.2c0.2,0.5,0.8,0.4,1.2,0.4c0.7-0.1,1.3-0.3,1.9-0.5c0.5-0.2,1-0.7,1-1.2
				c-0.1-0.5-0.5-1-0.9-1.5c-0.1-0.1-0.5,0-0.4,0.1c0.3,0.8-0.5,1.1-0.8,1.6C197.3,226.8,197.6,226.3,198.2,226.4z M191.3,228.8
				c0.5-0.2,1.2,0,1.4-0.8c0.2-0.6-0.1-1-0.6-1.4c-0.3-0.2-0.5-0.1-0.7,0.1c-0.1,0.1-0.2,0.3,0,0.4c1,0.6,1,0.9-0.2,1
				c-0.2,0-0.4,0.2-0.3,0.5C191,228.8,191.1,228.8,191.3,228.8z M186,228.6c1.2,0.9,3.2,0.5,3.6-0.6c0.1-0.3,0.3-0.6-0.1-0.7
				c-0.3-0.1-0.6,0.1-0.5,0.5c0.1,0.6-0.3,0.6-0.7,0.7C187.6,228.9,186.8,228.5,186,228.6z M189.8,228.9c0.9-0.8,0.7-1.6,0.8-2.3
				c0-0.2,0-0.6-0.3-0.5c-0.3,0-0.4,0.3-0.3,0.6C190.1,227.4,190.2,228,189.8,228.9z M187.9,228.4c0.7-0.5,0.6-1.2,0.7-1.8
				c0-0.2,0.1-0.5-0.3-0.5c-0.2,0-0.4,0.2-0.4,0.5C187.9,227.2,187.9,227.8,187.9,228.4z"/>
			<path d="M160.6,196.2c0-0.6-0.1-1.1-0.1-1.7c0-0.3-0.1-0.8,0.4-0.8c0.4,0.1,0.4,0.5,0.3,0.9c-0.1,0.3-0.2,0.6,0,1
				c0.1-0.1,0.2-0.2,0.3-0.3c0.2-0.3,0.2-1,0.7-0.8c0.5,0.2,0.3,0.8,0.2,1.2c-0.4,1.5,0,2.6,1.2,3.5c0.3,0.2,0.7,0.4,1,0.6
				c2,1.2,2.8,2.8,2.6,5.2c-0.2,3.2-0.3,6.5,0,9.7c0,0.6-0.2,0.7-0.6,0.7c-1.2,0.1-2.3,0.1-3.5-0.1c-0.7-0.1-0.9-0.4-0.8-1.1
				c0.2-1.8,0.3-3.6,0.6-5.4c0.4-2.5-0.6-4.4-2.3-6.1c-2.2-2.4-2.8-5.2-2.3-8.4c0-0.2,0.1-0.4,0.1-0.5c0.1-0.3,0.1-0.7,0.5-0.7
				c0.3,0,0.3,0.5,0.3,0.7c0,1.5,0.3,2.9,0.6,4.3c0.2,1.2,1,1.9,1.8,2.6c-2-2.1-1.7-4.8-2-7.6c0.8,0.6,0.8,1,0.8,1.6
				C160.4,195.2,160.1,195.7,160.6,196.2c0,1,0.1,2,0.8,2.9C161,198.2,161.2,197.1,160.6,196.2z"/>
			<path d="M215.6,194.4c0.6,0.2,0.6,0.8,0.9,1.1c0.3-0.2,0.1-0.5,0.1-0.7c0-0.5-0.4-1.3,0.8-0.9c0.4,0.1,0.3-0.5,0.9-0.5
				c-0.4,2.4,0,4.9-1.9,7.2c1.1-0.7,1.5-1.4,1.7-2.4c0.3-1.5,0.5-3.1,0.6-4.6c0-0.2,0-0.5,0.3-0.5c0.2,0,0.3,0.2,0.4,0.4
				c0.4,1.1,0.6,2.2,0.4,3.3c-0.4,2.2-0.8,4.4-2.6,6c-2.4,2-2.3,4.7-2,7.4c0.2,1.4,0.3,2.8,0.4,4.1c0.1,0.5,0,0.7-0.5,0.8
				c-1.3,0.3-2.5,0.2-3.8,0.1c-0.4,0-0.6-0.2-0.6-0.7c0.3-3.1,0.3-6.2,0-9.3c-0.3-2.8,0.8-4.6,3.1-5.8c0.8-0.4,1.5-1,1.8-2
				c0.2-0.6,0.3-1.1,0-1.7C215.4,195.3,215.4,194.9,215.6,194.4z M217.5,196.1c-0.5,0.5-0.5,1-0.5,1.4c0,0.3,0,0.7-0.5,0.6
				c-0.5-0.1-0.1-0.5-0.1-0.7c0-0.3,0.3-0.5,0.1-0.8c-0.4,0.9-1.3,1.9,0.4,2.5C217.3,198.2,217.2,197.2,217.5,196.1z"/>
			<path d="M194.1,175.6c-0.8,0.1-1.2,0.3-1.7,0.3c-0.8,0-0.9,0.3-0.5,0.9c0.4,0.6,0.8,1.2,1.3,2.1c-1.3-0.8-2.3-1.4-3.5-2.1
				c0,1.1,0,2.1,0,3c0,0.3,0.3,1-0.4,1c-0.6,0-0.3-0.6-0.3-0.9c0-1.9,0-3.9,0-5.8c0-0.6,0.1-1.1-0.1-1.7c-0.1-0.4,0-0.6,0.4-0.7
				c0.3,0,0.6,0.1,0.6,0.4c-0.1,0.5,0.3,0.7,0.6,0.9C191.6,173.8,192.8,174.7,194.1,175.6z"/>
			<path d="M193.5,181.8c0.8,0.7,0.6,1.8,1,2.9c-0.4-0.2-0.5-0.3-0.6-0.3c-0.8-0.8-1.4-0.7-1.9,0.3c-0.3,0.6-0.6,0.4-0.9,0
				c-0.5-0.7-1-1-1.6-0.1c-0.2,0.3-0.5,0.3-0.7,0c-0.6-0.8-1-0.5-1.4,0.1c-0.1,0.2-0.3,0.3-0.4,0.5c-0.5-0.3-0.5-1.2-1.1-1.2
				c-0.5,0-0.9,0.5-1.4,0.7c-0.1-0.8,0-1.6,0.3-2.7c2.5,1.2,5.1,1.1,7.7,0.5C193,182.3,193.4,182.2,193.5,181.8L193.5,181.8z"/>
			<path d="M193.5,181.8c-2.4,0.9-4.7,1-7.2,0.4c-0.2-0.1-0.4-0.1-0.6-0.2c-0.3-0.1-0.7-0.3-0.7-0.7c0-0.4,0.4-0.6,0.7-0.7
				c0.7-0.3,1.4-0.5,2.2-0.5c0.4,0,0.8,0,0.7,0.6c-0.1,0.5,0.3,0.5,0.6,0.5c0.3,0,0.9,0.2,0.9-0.4c0-0.7,0.3-0.7,0.8-0.6
				c0.8,0.1,1.6,0.2,2.3,0.6C193.6,180.9,193.9,181.2,193.5,181.8C193.5,181.8,193.5,181.8,193.5,181.8z"/>
			<path d="M216.1,217.8c0.4,0,0.8-0.1,0.9,0.4c0.1,0.5-0.1,0.8-0.6,1.1c-2.2,0.9-4.4,0.9-6.6,0.2c-0.5-0.2-1-0.4-0.8-1.1
				c0.2-0.7,0.7-0.5,1.2-0.4C212.2,218.6,214.2,218.8,216.1,217.8L216.1,217.8z"/>
			<path d="M165.2,220.1c-1.2-0.1-2.5-0.3-3.6-0.8c-0.5-0.2-0.8-0.5-0.6-1c0.2-0.7,0.7-0.4,1.1-0.3c1.9,0.7,3.9,0.7,5.8,0.1
				c0.5-0.2,0.9-0.2,1.1,0.4c0.1,0.5-0.2,0.9-0.7,1C167.3,219.8,166.2,219.9,165.2,220.1z"/>
			<path d="M165.2,218.1c-1.1,0-2.1-0.1-3.1-0.5c-0.3-0.1-0.8-0.2-0.6-0.7c0.1-0.5,0.6-0.4,0.9-0.3c1.8,0.5,3.6,0.6,5.4,0
				c0.3-0.1,0.7-0.2,0.8,0.3c0.1,0.4-0.2,0.6-0.5,0.7C167.1,218.1,166.2,218.2,165.2,218.1z"/>
			<path d="M216.1,217.8c-1.3,0.1-2.6,0.5-4,0.4c-0.8-0.1-1.6-0.1-2.4-0.5c-0.2-0.1-0.5-0.3-0.4-0.7c0.1-0.3,0.4-0.4,0.7-0.3
				c1.9,0.6,3.8,0.5,5.6,0c0.3-0.1,0.6-0.1,0.7,0.2C216.7,217.4,216.2,217.5,216.1,217.8C216.1,217.8,216.1,217.8,216.1,217.8z"/>
			<path d="M213,216.7c-1,0.1-1.8,0-2.7-0.3c-0.2-0.1-0.5-0.2-0.4-0.5c0.1-0.3,0.4-0.3,0.6-0.2c1.6,0.3,3.3,0.4,4.9-0.1
				c0.3-0.1,0.6,0,0.7,0.3c0.1,0.3-0.2,0.4-0.5,0.5C214.8,216.6,213.9,216.7,213,216.7z"/>
			<path d="M164.6,216.7c-0.6,0-1.4-0.1-2.2-0.3c-0.3-0.1-0.7-0.2-0.6-0.6c0.1-0.3,0.4-0.4,0.7-0.3c1.6,0.5,3.1,0.4,4.7,0.1
				c0.3-0.1,0.6-0.2,0.7,0.2c0.1,0.4-0.3,0.4-0.5,0.5C166.6,216.7,165.8,216.7,164.6,216.7z"/>
			<path d="M189.7,186c-0.1,0.6,0.2,1.4-0.5,1.4c-0.7,0-0.5-0.9-0.5-1.4c0-0.2-0.4-0.7,0.3-0.8C190.1,185,189.5,185.7,189.7,186z"/>
			<path d="M186.4,205.6c0.7-0.1,1.1,0.4,1.5,0.8c0.2,0.1,0.3,0.5,0.5,0.1c0.7-1.4,1.1-0.3,1.6,0.2c0.6-0.4,1-1.3,2.1-1.1
				c-1.6,1.8-1.3,3.7-0.2,5.5c0.6,1.1,0.3,2.6-0.4,3.2c-0.4,0.3-0.6,0.4-0.9-0.2c-0.3-0.8-0.6-1.9-1.5-1.8c-0.8,0-1.1,1.1-1.4,1.9
				c-0.2,0.5-0.4,0.5-0.8,0.2c-0.7-0.5-1.1-1.9-0.7-2.9c0-0.1,0.1-0.1,0.1-0.2C187.6,208.4,187.6,208.4,186.4,205.6z"/>
			<path d="M190.4,197.7c0.4-0.1,0.8-0.3,1.4-0.5c-0.7,0.9-1.2,1.7-1.2,2.6c0,0.9,0.3,1.7,0.6,2.6c0.5,1.2,0.2,2.4-0.6,3.4
				c-0.3,0.4-0.5,0.5-0.8,0c-0.4-0.6-0.8-0.7-1.2,0c-0.4,0.6-0.6,0.4-0.9,0c-0.8-1.1-1-2.3-0.4-3.6c0.8-1.6,0.8-3.2-0.6-4.6
				c0.8-0.2,1.1,0.5,1.7,0.7c0.1-0.1,0.2-0.3,0.3-0.4c0.3-0.7,0.7-0.9,1.1,0C189.9,198.1,190.1,198.3,190.4,197.7
				C190.4,197.7,190.4,197.7,190.4,197.7z"/>
		</g>
		<g>
			<path d="M142.4,283.2c0-10.1-0.1-23.2,0.3-36.4c0.1-2.2,0.6-2.9,2.8-2.8c8,0.3,16-0.9,23.9,1.1c9.5,2.3,15,8,15.8,16.5
				c1.1,12-2.8,19.5-12.4,23.4c-2.3,0.9-2.2,1.8-1.1,3.6c8.6,15.6,17.1,31.2,25.6,46.8c1.7,3.1,1.5,3.2-2,3.5
				c-3.7,0.4-5.5-1-7.3-4.3c-8-15-16.3-29.8-24.4-44.8c-1-1.9-2.1-2.5-4.2-2.2c-1.8,0.3-3.8,0.3-5.6,0.2c-2.2-0.1-3.1,0.5-3.1,3
				c0.1,8.5,0,17,0.1,25.5c0,2.4-0.7,3.3-3,3c-0.8-0.1-1.6-0.1-2.4,0c-2.4,0.3-3.1-0.8-3.1-3.1C142.4,306.3,142.4,296.3,142.4,283.2
				z M150.7,265.8c0,4.7,0.1,9.5,0,14.2c0,1.7,0.5,2.3,2.2,2.3c3.7,0,7.3-0.1,10.9-0.7c5.9-0.9,10.4-3.8,12-9.9c0.8-3,1-6.1,0.6-9.1
				c-0.8-7.5-4.4-11.3-11.8-12.8c-3.8-0.8-7.7-0.5-11.5-0.7c-2-0.1-2.5,0.8-2.5,2.6C150.8,256.5,150.7,261.2,150.7,265.8z"/>
			<path d="M228.3,279.5c0.6,0.4,0.8,0.7,1.1,0.7c11,3.9,14.4,13.9,11.9,24.3c-1.7,7-6.6,11-13.3,13c-3.3,1-6.8,1.5-10.2,1.5
				c-6.2,0.1-12.5,0-18.7,0c-1.6,0-2.6-0.2-2.6-2.2c0-23.4-0.1-46.9-0.2-70.3c0-1.5,0.3-2.5,2.1-2.5c8.7,0.2,17.4-0.7,26,1.1
				c14,2.8,17.4,13.4,13.5,25.1C236.4,274.7,232.8,277.3,228.3,279.5z M204.8,298.6c-0.1,0-0.1,0-0.2,0c0,4.3,0.1,8.7,0,13
				c0,1.8,0.4,2.7,2.4,2.6c3.4-0.2,6.9,0,10.4-0.2c5.1-0.4,10.2-1.3,13.4-5.9c3.8-5.5,3.7-11.6,1.2-17.5c-2.3-5.5-7.2-7.3-12.7-7.7
				c-4-0.3-8.1-0.1-12.1-0.2c-1.8-0.1-2.4,0.5-2.4,2.3C204.9,289.6,204.8,294.1,204.8,298.6z M204.8,263.3c0,4.1,0,8.1,0,12.2
				c0,1.5,0.5,2.2,2,2.2c4.3,0,8.7,0.1,13-0.8c7.9-1.7,11.3-6.1,11-14.4c-0.2-7.7-3.6-11.2-11.8-12.6c-3.9-0.7-7.9-0.2-11.8-0.4
				c-2-0.1-2.5,0.7-2.4,2.6C204.9,255.8,204.8,259.5,204.8,263.3z"/>
		</g>
	</g>
</g>
</svg>
