<?xml version="1.0" encoding="utf-8"?>
<!-- Generator: Adobe Illustrator 27.0.0, SVG Export Plug-In . SVG Version: 6.00 Build 0)  -->
<svg version="1.1" id="Layer_1" xmlns="http://www.w3.org/2000/svg" xmlns:xlink="http://www.w3.org/1999/xlink" x="0px" y="0px"
	 viewBox="0 0 400 400" style="enable-background:new 0 0 400 400;" xml:space="preserve">
<style type="text/css">
	.st0{fill:#059B49;}
	.st1{fill:#E65925;}
	.st2{fill:#FFFFFF;}
</style>
<g id="BR">
	<g>
		<path class="st0" d="M130.7,71c-13-13.8-31.1-21.7-50.1-21.7H14l139.2,301.4H393L130.7,71z"/>
		<polygon class="st1" points="7,49.3 112.5,279.4 117.7,290.7 145.1,350.7 153.2,350.7 14,49.3 		"/>
	</g>
	<path class="st1" d="M143.6,247.5H143v-2.1h0.6c0.2-14.4,4.1-27.9,10.8-39.6c-0.9-0.6-1.8-1.3-2.6-2c-7.3,12.6-11.5,27.2-11.5,42.7
		c0,15.5,4.1,29.9,11.3,42.5c0.9-0.7,1.7-1.3,2.6-2C147.6,275.3,143.8,261.8,143.6,247.5z"/>
	<path class="st1" d="M296.4,288.4c0.9,0.7,1.7,1.4,2.6,2.1c5.2-8.6,8.9-18.3,10.8-28.5l-2.8-3C305.3,269.5,301.6,279.5,296.4,288.4
		z"/>
	<path class="st1" d="M155.4,288.9c-0.9,0.7-1.8,1.3-2.6,2c7.1,11.6,16.9,21.4,28.4,28.5c0.5-1,1-2,1.5-2.9
		C171.6,309.6,162.2,300.2,155.4,288.9z"/>
	<path class="st1" d="M266.6,317.7c0.5,1,1,1.9,1.5,2.9c12-6.9,22.2-16.6,29.6-28.3c-0.8-0.7-1.7-1.4-2.5-2.1
		C288,301.6,278.2,311,266.6,317.7z"/>
	<path class="st1" d="M227.5,328.6c-0.9,0.2-1.8,0.3-2.6,0.3c-0.8,0-1.7-0.1-2.6-0.4c-13.7-0.6-26.5-4.5-37.6-10.9
		c-0.5,0.9-1,1.9-1.5,2.9c12.5,7.2,27.1,11.4,42.6,11.4c14.6,0,28.4-3.7,40.4-10.2c-0.4-1-0.9-2-1.4-2.9
		C253.6,324.8,240.9,328.3,227.5,328.6z"/>
	<path class="st1" d="M183.2,176.2c-0.6-0.9-1.1-1.9-1.6-2.8c-11.7,7.1-21.5,16.8-28.7,28.5c0.8,0.7,1.7,1.3,2.6,2
		C162.4,192.5,171.9,183.1,183.2,176.2z"/>
	<path class="st1" d="M185.1,175.1c10-5.7,21.3-9.4,33.4-10.4l-2.8-3c-11.6,1.4-22.5,5-32.2,10.5C184,173.2,184.6,174.2,185.1,175.1
		z"/>
	<path class="st1" d="M222.3,328.6c1,0.2,1.8,0.4,2.6,0.4c0.8,0,1.7-0.1,2.6-0.3c-0.6,0-1.2,0-1.8,0
		C224.5,328.6,223.4,328.6,222.3,328.6z"/>
	<path class="st2" d="M167.2,247.5h-23.6c0.2,14.4,4,27.8,10.6,39.5c5.7-4.1,12.1-7.8,19-10.8C169.6,267.2,167.3,257.6,167.2,247.5z
		"/>
	<path class="st2" d="M173,216.4c-6.8-3-13-6.5-18.6-10.6c-6.7,11.7-10.6,25.2-10.8,39.6h23.6C167.4,235.1,169.5,225.4,173,216.4z"
		/>
	<path class="st2" d="M294.2,245.3l-13.1-14c0.9,4.5,1.4,9.2,1.5,14H294.2z"/>
	<path class="st2" d="M282.5,247.5c-0.1,10.3-2.4,20.1-6.1,29.2c7.3,3.3,14,7.2,19.9,11.8c5.3-8.9,8.9-18.9,10.5-29.5l-10.7-11.4
		H282.5z"/>
	<path class="st2" d="M258,306.4c3.5,3.3,6.4,7.1,8.6,11.3c11.6-6.7,21.4-16.1,28.5-27.4c-5.7-4.5-12.3-8.4-19.5-11.7
		C271.2,289.2,264.8,298.6,258,306.4z"/>
	<path class="st2" d="M191.6,305.6c-6.7-7.7-13-17.1-17.5-27.5c-6.8,3-13.1,6.7-18.7,10.8c6.8,11.2,16.2,20.7,27.4,27.6
		C185.1,312.5,188.1,308.8,191.6,305.6z"/>
	<path class="st2" d="M193,307.3c-3.3,3-6.2,6.5-8.4,10.4c11.1,6.5,23.9,10.4,37.6,10.9C215.2,326.9,203.7,319.1,193,307.3z"/>
	<path class="st2" d="M227.5,328.6c13.4-0.3,26.1-3.8,37.2-9.8c-2.1-4-4.9-7.6-8.1-10.8C246.1,319.6,234.8,327.1,227.5,328.6z"/>
	<path class="st2" d="M191.3,186.1c-3.2-2.9-5.9-6.2-8.1-9.9c-11.3,6.8-20.8,16.3-27.7,27.6c5.5,4,11.6,7.6,18.2,10.6
		C178.2,203.6,184.5,193.9,191.3,186.1z"/>
	<path class="st2" d="M192.8,184.4c9-9.9,18.7-16.7,26.3-19.2l-0.5-0.5c-12.1,1-23.4,4.7-33.4,10.4
		C187.2,178.5,189.8,181.7,192.8,184.4z"/>
	<path class="st1" d="M280.6,245.3h1.9c-0.1-4.8-0.6-9.4-1.5-14l-2.6-2.7C279.8,234,280.5,239.6,280.6,245.3z"/>
	<path class="st1" d="M274.7,275.8c0.6,0.3,1.2,0.5,1.8,0.8c3.6-9.1,5.9-18.9,6.1-29.2h-1.9C280.5,257.5,278.2,267,274.7,275.8z"/>
	<path class="st1" d="M174.8,217.1c-0.6-0.3-1.2-0.5-1.8-0.8c-3.5,9-5.6,18.8-5.8,29h1.9C169.3,235.4,171.4,225.9,174.8,217.1z"/>
	<path class="st1" d="M169.1,247.5h-1.9c0.1,10.1,2.4,19.8,6,28.7c0.6-0.3,1.2-0.5,1.8-0.8C171.5,266.7,169.3,257.3,169.1,247.5z"/>
	<path class="st1" d="M256.4,305c0.5,0.5,1.1,1,1.6,1.4c6.8-7.8,13.2-17.2,17.7-27.8c-0.6-0.3-1.2-0.6-1.8-0.8
		C269.4,288.2,263.1,297.4,256.4,305z"/>
	<path class="st1" d="M175.9,277.3c-0.6,0.3-1.2,0.5-1.8,0.8c4.5,10.4,10.8,19.8,17.5,27.5c0.5-0.5,1.1-0.9,1.6-1.4
		C186.6,296.7,180.3,287.6,175.9,277.3z"/>
	<path class="st1" d="M256.5,308.1c-0.5-0.5-1.1-1-1.6-1.5c-10.5,11.4-21.8,18.6-28.7,19.5v2.5h-2.1v-2.5
		c-6.4-0.6-18.3-8.1-29.4-20.3c-0.6,0.5-1.1,0.9-1.6,1.4c10.7,11.8,22.2,19.6,29.2,21.3c1.1,0,2.3,0.1,3.4,0.1c0.6,0,1.2,0,1.8,0
		C234.8,327.1,246.1,319.6,256.5,308.1z"/>
	<path class="st1" d="M175.6,215.2c4.4-10.6,10.6-20,17.4-27.7c-0.6-0.5-1.1-0.9-1.6-1.4c-6.8,7.9-13.1,17.5-17.6,28.3
		C174.4,214.7,175,214.9,175.6,215.2z"/>
	<path class="st1" d="M221.1,167.4l-2-2.2c-7.6,2.5-17.3,9.3-26.3,19.2c0.5,0.5,1.1,1,1.6,1.4C203.7,175.8,213.7,169.2,221.1,167.4z
		"/>
	<path class="st2" d="M254.8,223.3c1.2,7,1.9,14.4,2,22h23.9c-0.1-5.7-0.8-11.3-2.1-16.7l-9.1-9.7
		C264.7,220.6,259.8,222.1,254.8,223.3z"/>
	<path class="st2" d="M254.7,269.3c7,1.6,13.7,3.8,20,6.5c3.6-8.8,5.8-18.4,5.9-28.4h-23.9C256.7,255,255.9,262.4,254.7,269.3z"/>
	<path class="st2" d="M195,223.5c-7.1-1.6-13.8-3.8-20.1-6.4c-3.4,8.8-5.5,18.3-5.7,28.2H193C193.1,237.8,193.8,230.5,195,223.5z"/>
	<path class="st2" d="M193,247.5h-23.9c0.1,9.9,2.4,19.3,5.9,28c6.3-2.6,13-4.8,20-6.4C193.9,262.2,193.1,255,193,247.5z"/>
	<path class="st2" d="M246,298.1c3.8,1.8,7.3,4.1,10.4,6.8c6.7-7.6,13-16.8,17.5-27.2c-6.1-2.7-12.7-4.8-19.6-6.5
		C252.3,281.3,249.4,290.3,246,298.1z"/>
	<path class="st2" d="M175.9,277.3c4.5,10.2,10.7,19.3,17.3,26.9c3.2-2.6,6.7-4.8,10.5-6.6c-3.3-7.7-6.3-16.7-8.2-26.6
		C188.6,272.6,182,274.7,175.9,277.3z"/>
	<path class="st2" d="M204.6,299.6c-3.6,1.7-6.9,3.8-9.9,6.3c11.1,12.1,23,19.7,29.4,20.3v0C219.7,324.9,211.5,314.9,204.6,299.6z"
		/>
	<path class="st2" d="M226.2,325.9v0.2c6.9-0.9,18.2-8.1,28.7-19.5c-2.9-2.5-6.2-4.7-9.7-6.5C238.7,314.7,230.9,324.2,226.2,325.9z"
		/>
	<path class="st2" d="M203.4,194.2c-3.8-1.8-7.3-4-10.5-6.7c-6.7,7.6-13,17.1-17.4,27.7c6.2,2.6,12.8,4.8,19.7,6.4
		C197.2,211.4,200.1,202.1,203.4,194.2z"/>
	<path class="st2" d="M267.9,217.3l-21.3-22.8c3.2,7.8,6,16.9,7.9,26.8C259.1,220.2,263.5,218.8,267.9,217.3z"/>
	<path class="st2" d="M194.4,185.9c3,2.5,6.3,4.6,9.9,6.3c5.6-12.6,12.1-21.4,17.1-24.4l-0.3-0.4
		C213.7,169.2,203.7,175.8,194.4,185.9z"/>
	<path class="st1" d="M253.6,269.1c0.4,0.1,0.7,0.2,1.1,0.3c1.2-6.9,2-14.3,2.1-21.9h-1.1C255.6,255,254.8,262.2,253.6,269.1z"/>
	<path class="st1" d="M194.1,247.5H193c0.1,7.5,0.8,14.7,2.1,21.6c0.4-0.1,0.7-0.1,1.1-0.2C194.9,262.1,194.2,254.9,194.1,247.5z"/>
	<path class="st1" d="M255.7,245.3h1.1c-0.1-7.7-0.8-15-2-22c-0.4,0.1-0.7,0.2-1.1,0.3C254.9,230.5,255.6,237.8,255.7,245.3z"/>
	<path class="st1" d="M194.1,245.3c0.1-7.5,0.8-14.7,2-21.6c-0.4-0.1-0.7-0.1-1.1-0.2c-1.2,6.9-1.9,14.2-1.9,21.8H194.1z"/>
	<path class="st1" d="M196.6,270.8c-0.4,0.1-0.7,0.1-1.1,0.2c2,9.8,4.9,18.8,8.2,26.6c0.4-0.2,0.8-0.4,1.2-0.5
		C201.6,289.5,198.6,280.6,196.6,270.8z"/>
	<path class="st1" d="M253.2,271c-2,9.9-5,18.9-8.3,26.5c0.4,0.2,0.8,0.4,1.2,0.6c3.3-7.8,6.3-16.9,8.2-26.9
		C253.9,271.2,253.6,271.1,253.2,271z"/>
	<path class="st1" d="M205.8,299c-0.4,0.2-0.8,0.4-1.2,0.5c6.9,15.3,15.2,25.3,19.5,26.5v-2.7C220,322.3,212.4,313.1,205.8,299z"/>
	<path class="st1" d="M226.2,323.2v2.7c4.7-1.7,12.4-11.2,19-25.8c-0.4-0.2-0.8-0.4-1.2-0.6C237.8,312.8,230.6,321.6,226.2,323.2z"
		/>
	<path class="st1" d="M204.7,194.7c-0.4-0.2-0.8-0.4-1.2-0.5c-3.3,7.9-6.2,17.2-8.1,27.4c0.4,0.1,0.7,0.2,1.1,0.2
		C198.4,211.7,201.3,202.5,204.7,194.7z"/>
	<path class="st1" d="M254.4,221.3c-1.9-10-4.7-19-7.9-26.8l-0.6-0.6c-0.3,0.2-0.6,0.3-0.9,0.4c3.4,7.8,6.4,17.1,8.3,27.3
		C253.7,221.5,254,221.4,254.4,221.3z"/>
	<path class="st1" d="M244.4,192.2l-0.7-0.7c0.1,0.3,0.3,0.5,0.4,0.8C244.2,192.3,244.3,192.2,244.4,192.2z"/>
	<path class="st1" d="M223.1,169.6l-1.7-1.8c-5,3-11.6,11.8-17.1,24.4c0.4,0.2,0.8,0.4,1.3,0.6C211.4,179.9,218.3,171.3,223.1,169.6
		z"/>
	<path class="st2" d="M194.1,247.5c0.1,7.4,0.8,14.6,2.1,21.4c8.9-1.9,18.2-2.9,27.9-3v-18.4H194.1z"/>
	<path class="st2" d="M224.1,226.8c-9.7,0-19.1-1.1-28-3c-1.2,6.8-1.9,14.1-2,21.6h30V226.8z"/>
	<path class="st2" d="M226.2,265.9c9.5,0.1,18.7,1.2,27.4,3.1c1.3-6.8,2-14.1,2.1-21.6h-29.4V265.9z"/>
	<path class="st2" d="M226.2,245.3h29.4c-0.1-7.6-0.8-14.9-2-21.8c-8.7,2-17.9,3-27.5,3.2V245.3z"/>
	<path class="st2" d="M226.2,293.2c6.7,0.2,13,1.8,18.6,4.4c3.4-7.6,6.4-16.6,8.3-26.5c-8.5-1.9-17.6-3-27-3.1V293.2z"/>
	<path class="st2" d="M224.1,267.8c-9.6,0-18.8,1.1-27.5,3c2,9.8,5,18.7,8.4,26.3c5.9-2.5,12.3-3.9,19.2-3.9V267.8z"/>
	<path class="st2" d="M205.8,299c6.5,14.1,14.2,23.3,18.3,24.3v-28.1C217.6,295.3,211.4,296.7,205.8,299z"/>
	<path class="st2" d="M226.2,323.2c4.4-1.6,11.6-10.4,17.7-23.7c-5.4-2.5-11.4-3.9-17.7-4.2V323.2z"/>
	<path class="st2" d="M224.1,224.8v-26c-6.9,0-13.5-1.5-19.4-4c-3.4,7.8-6.3,17-8.2,27.1C205.2,223.7,214.5,224.8,224.1,224.8z"/>
	<path class="st2" d="M226.2,224.8c9.4-0.1,18.5-1.2,27.1-3.2c-1.9-10.2-4.9-19.5-8.3-27.3c-5.7,2.6-12.1,4.2-18.8,4.4V224.8z"/>
	<path class="st2" d="M205.6,192.7c5.7,2.5,11.9,3.8,18.5,3.9v-26l-1-1C218.3,171.3,211.4,179.9,205.6,192.7z"/>
	<path class="st2" d="M226.2,196.6c6.4-0.2,12.4-1.7,17.9-4.3c-0.1-0.3-0.3-0.6-0.4-0.8l-17.5-18.6V196.6z"/>
	<path class="st2" d="M224.1,326.1L224.1,326.1c0.3,0.1,0.5,0.1,0.8,0.1C224.6,326.2,224.4,326.1,224.1,326.1z"/>
	<path class="st2" d="M224.9,326.2c0.4,0,0.9,0,1.3-0.1v-0.2C225.7,326.1,225.3,326.2,224.9,326.2z"/>
	<path class="st1" d="M295.2,290.3c0.9,0.7,1.7,1.4,2.5,2.1c0.4-0.7,0.8-1.3,1.2-2c-0.8-0.7-1.7-1.4-2.6-2.1
		C296,289,295.6,289.7,295.2,290.3z"/>
	<path class="st1" d="M154.2,287c-0.9,0.6-1.8,1.3-2.6,2c0.4,0.7,0.7,1.3,1.1,2c0.8-0.7,1.7-1.3,2.6-2
		C155,288.3,154.6,287.6,154.2,287z"/>
	<path class="st1" d="M173.3,276.2c-6.9,3-13.3,6.7-19,10.8c0.4,0.7,0.7,1.3,1.1,2c5.6-4.1,11.9-7.8,18.7-10.8
		C173.8,277.5,173.5,276.8,173.3,276.2z"/>
	<path class="st1" d="M275.7,278.6c7.2,3.3,13.7,7.2,19.5,11.7c0.4-0.6,0.8-1.3,1.2-1.9c-5.9-4.5-12.6-8.5-19.9-11.8
		C276.2,277.3,276,277.9,275.7,278.6z"/>
	<path class="st1" d="M175.1,275.4c-0.6,0.3-1.2,0.5-1.8,0.8c0.3,0.6,0.5,1.3,0.8,1.9c0.6-0.3,1.2-0.5,1.8-0.8
		C175.6,276.7,175.3,276.1,175.1,275.4z"/>
	<path class="st1" d="M273.9,277.8c0.6,0.3,1.2,0.5,1.8,0.8c0.3-0.6,0.5-1.3,0.8-2c-0.6-0.3-1.2-0.5-1.8-0.8
		C274.4,276.5,274.2,277.1,273.9,277.8z"/>
	<path class="st1" d="M254.3,271.3c6.9,1.6,13.5,3.8,19.6,6.5c0.3-0.6,0.5-1.3,0.8-1.9c-6.3-2.7-13-4.9-20-6.5
		C254.5,270,254.4,270.6,254.3,271.3z"/>
	<path class="st1" d="M195.1,269.1c-7.1,1.6-13.8,3.7-20,6.4c0.3,0.6,0.5,1.3,0.8,1.9c6.1-2.6,12.7-4.7,19.6-6.3
		C195.4,270.4,195.2,269.7,195.1,269.1z"/>
	<path class="st1" d="M253.2,271c0.4,0.1,0.7,0.2,1.1,0.3c0.1-0.7,0.3-1.3,0.4-2c-0.4-0.1-0.7-0.2-1.1-0.3
		C253.4,269.7,253.3,270.4,253.2,271z"/>
	<path class="st1" d="M195.1,269.1c0.1,0.7,0.2,1.3,0.4,2c0.4-0.1,0.7-0.2,1.1-0.2c-0.1-0.7-0.3-1.3-0.4-2
		C195.8,268.9,195.5,269,195.1,269.1z"/>
	<path class="st1" d="M226.2,265.9v2c9.4,0.1,18.4,1.2,27,3.1c0.1-0.7,0.3-1.3,0.4-2C244.9,267.1,235.7,266,226.2,265.9z"/>
	<path class="st1" d="M224.1,265.9c-9.7,0-19,1.1-27.9,3c0.1,0.7,0.3,1.3,0.4,2c8.7-1.9,17.9-2.9,27.5-3V265.9z"/>
	<path class="st1" d="M224.1,265.9v2c0.1,0,0.2,0,0.3,0c0.6,0,1.2,0,1.8,0v-2c-0.6,0-1.2,0-1.8,0
		C224.3,265.9,224.2,265.9,224.1,265.9z"/>
	<path class="st1" d="M264.7,318.8c0.5,1,1,1.9,1.4,2.9c0.7-0.4,1.3-0.7,2-1.1c-0.4-1-0.9-2-1.5-2.9
		C266,318.1,265.3,318.5,264.7,318.8z"/>
	<path class="st1" d="M182.7,316.5c-0.5,0.9-1.1,1.9-1.5,2.9c0.6,0.4,1.3,0.8,1.9,1.1c0.5-1,1-2,1.5-2.9
		C184,317.3,183.4,316.9,182.7,316.5z"/>
	<path class="st1" d="M193,307.3c-0.5-0.5-1-1.1-1.4-1.6c-3.5,3.2-6.5,6.8-8.9,10.9c0.6,0.4,1.3,0.8,1.9,1.1
		C186.9,313.8,189.7,310.3,193,307.3z"/>
	<path class="st1" d="M256.5,308.1c3.3,3.1,6,6.8,8.1,10.8c0.7-0.4,1.3-0.7,1.9-1.1c-2.3-4.2-5.2-8-8.6-11.3
		C257.5,307,257,307.5,256.5,308.1z"/>
	<path class="st1" d="M254.9,306.6c0.5,0.5,1.1,1,1.6,1.5c0.5-0.5,1-1.1,1.5-1.6c-0.5-0.5-1-1-1.6-1.4
		C255.9,305.5,255.4,306.1,254.9,306.6z"/>
	<path class="st1" d="M191.6,305.6c0.5,0.6,1,1.1,1.4,1.6c0.5-0.5,1.1-1,1.6-1.4c-0.5-0.5-1-1.1-1.5-1.6
		C192.6,304.7,192.1,305.1,191.6,305.6z"/>
	<path class="st1" d="M246,298.1c-0.3,0.7-0.6,1.3-0.9,2c3.5,1.8,6.8,3.9,9.7,6.5c0.5-0.5,1-1.1,1.5-1.6
		C253.3,302.3,249.8,300,246,298.1z"/>
	<path class="st1" d="M203.7,297.6c-3.8,1.8-7.4,4-10.5,6.6c0.5,0.5,1,1.1,1.5,1.6c3-2.5,6.3-4.6,9.9-6.3
		C204.3,298.9,204,298.3,203.7,297.6z"/>
	<path class="st1" d="M244,299.5c0.4,0.2,0.8,0.4,1.2,0.6c0.3-0.6,0.6-1.3,0.9-2c-0.4-0.2-0.8-0.4-1.2-0.6
		C244.5,298.2,244.3,298.9,244,299.5z"/>
	<path class="st1" d="M204.9,297.1c-0.4,0.2-0.8,0.3-1.2,0.5c0.3,0.7,0.6,1.3,0.9,2c0.4-0.2,0.8-0.4,1.2-0.5
		C205.5,298.4,205.2,297.7,204.9,297.1z"/>
	<path class="st1" d="M224.1,293.2c-6.8,0-13.3,1.4-19.2,3.9c0.3,0.7,0.6,1.3,0.9,2c5.6-2.4,11.8-3.7,18.3-3.7V293.2z"/>
	<path class="st1" d="M226.2,295.3c6.3,0.2,12.3,1.7,17.7,4.2c0.3-0.6,0.6-1.3,0.9-2c-5.7-2.6-12-4.1-18.6-4.4V295.3z"/>
	<path class="st1" d="M224.1,293.2v2.1c0.1,0,0.2,0,0.2,0c0.6,0,1.3,0,1.9,0v-2.1c-0.6,0-1.2,0-1.9,0
		C224.3,293.2,224.2,293.2,224.1,293.2z"/>
	<path class="st1" d="M155.5,203.8c-0.9-0.7-1.8-1.3-2.6-2c-0.4,0.6-0.8,1.3-1.2,2c0.9,0.7,1.7,1.3,2.6,2
		C154.8,205.1,155.1,204.5,155.5,203.8z"/>
	<path class="st1" d="M173.8,214.4c-6.7-3-12.8-6.5-18.2-10.6c-0.4,0.6-0.8,1.3-1.1,2c5.6,4,11.8,7.6,18.6,10.6
		C173.3,215.7,173.5,215,173.8,214.4z"/>
	<path class="st1" d="M175.6,215.2c-0.6-0.3-1.2-0.5-1.8-0.8c-0.3,0.6-0.5,1.3-0.8,2c0.6,0.3,1.2,0.5,1.8,0.8
		C175.1,216.5,175.3,215.8,175.6,215.2z"/>
	<path class="st1" d="M195,223.5c0.1-0.7,0.2-1.3,0.4-2c-7-1.6-13.6-3.8-19.7-6.4c-0.3,0.6-0.5,1.3-0.8,1.9
		C181.1,219.8,187.9,221.9,195,223.5z"/>
	<path class="st1" d="M254.8,223.3c5.1-1.2,10-2.7,14.6-4.4l-1.5-1.6c-4.3,1.6-8.8,3-13.5,4.1C254.5,222,254.6,222.6,254.8,223.3z"
		/>
	<path class="st1" d="M196.4,221.8c-0.4-0.1-0.7-0.2-1.1-0.2c-0.1,0.7-0.2,1.3-0.4,2c0.4,0.1,0.7,0.1,1.1,0.2
		C196.2,223.1,196.3,222.5,196.4,221.8z"/>
	<path class="st1" d="M253.3,221.6c0.1,0.7,0.3,1.3,0.4,2c0.4-0.1,0.7-0.2,1.1-0.3c-0.1-0.7-0.2-1.3-0.4-2
		C254,221.4,253.7,221.5,253.3,221.6z"/>
	<path class="st1" d="M253.7,223.6c-0.1-0.7-0.2-1.3-0.4-2c-8.6,2-17.7,3-27.1,3.2v2C235.8,226.6,245,225.5,253.7,223.6z"/>
	<path class="st1" d="M224.1,224.8c-9.6,0-18.9-1.1-27.7-3c-0.1,0.7-0.3,1.3-0.4,2c8.9,1.9,18.3,3,28,3V224.8z"/>
	<path class="st1" d="M224.4,226.8c0.6,0,1.2,0,1.8,0v-2c-0.6,0-1.2,0-1.8,0c-0.1,0-0.2,0-0.3,0v2
		C224.2,226.8,224.3,226.8,224.4,226.8z"/>
	<path class="st1" d="M185.1,175.1c-0.6-0.9-1.1-1.9-1.6-2.9c-0.6,0.4-1.3,0.7-1.9,1.1c0.5,1,1,1.9,1.6,2.8
		C183.9,175.8,184.5,175.5,185.1,175.1z"/>
	<path class="st1" d="M191.3,186.1c0.5-0.6,1-1.1,1.5-1.6c-3-2.8-5.5-5.9-7.6-9.3c-0.6,0.4-1.3,0.7-1.9,1.1
		C185.4,179.9,188.2,183.2,191.3,186.1z"/>
	<path class="st1" d="M194.4,185.9c-0.6-0.5-1.1-1-1.6-1.4c-0.5,0.5-1,1.1-1.5,1.6c0.5,0.5,1.1,1,1.6,1.4
		C193.4,187,193.9,186.4,194.4,185.9z"/>
	<path class="st1" d="M204.3,192.2c-3.6-1.7-6.9-3.8-9.9-6.3c-0.5,0.5-1,1.1-1.5,1.6c3.2,2.6,6.7,4.9,10.5,6.7
		C203.7,193.5,204,192.8,204.3,192.2z"/>
	<path class="st1" d="M204.7,194.7c0.3-0.7,0.6-1.3,0.9-2c-0.4-0.2-0.8-0.4-1.3-0.6c-0.3,0.7-0.6,1.3-0.9,2
		C203.9,194.4,204.3,194.5,204.7,194.7z"/>
	<path class="st1" d="M245,194.3c0.3-0.1,0.6-0.3,0.9-0.4l-1.5-1.6c-0.1,0-0.2,0.1-0.3,0.1C244.4,193,244.7,193.6,245,194.3z"/>
	<path class="st1" d="M245,194.3c-0.3-0.7-0.6-1.3-0.9-2c-5.4,2.5-11.5,4-17.9,4.3v2.1C232.9,198.5,239.3,196.9,245,194.3z"/>
	<path class="st1" d="M224.1,196.6c-6.6,0-12.9-1.4-18.5-3.9c-0.3,0.6-0.6,1.3-0.9,2c5.9,2.6,12.5,4,19.4,4V196.6z"/>
	<path class="st1" d="M224.3,198.8c0.6,0,1.3,0,1.9,0v-2.1c-0.6,0-1.2,0-1.9,0c-0.1,0-0.2,0-0.2,0v2.1
		C224.2,198.8,224.3,198.8,224.3,198.8z"/>
	<path class="st1" d="M224.1,326.1v2.5h2.1v-2.5c-0.5,0.1-0.9,0.1-1.3,0.1C224.6,326.2,224.4,326.1,224.1,326.1z"/>
	<path class="st1" d="M224.9,323.5c-0.2,0-0.5,0-0.8-0.1v2.7c0.3,0.1,0.5,0.1,0.8,0.1c0.4,0,0.9-0.1,1.3-0.3v-2.7
		C225.7,323.4,225.3,323.5,224.9,323.5z"/>
	<path class="st1" d="M226.2,226.7c-0.6,0-1.2,0-1.8,0c-0.1,0-0.2,0-0.3,0v18.6h2.1V226.7z"/>
	<path class="st1" d="M224.1,247.5v18.4c0.1,0,0.2,0,0.3,0c0.6,0,1.2,0,1.8,0v-18.4H224.1z"/>
	<path class="st1" d="M224.1,267.8v25.3c0.1,0,0.2,0,0.2,0c0.6,0,1.3,0,1.9,0v-25.3c-0.6,0-1.2,0-1.8,0
		C224.3,267.8,224.2,267.8,224.1,267.8z"/>
	<path class="st1" d="M224.3,295.3c-0.1,0-0.2,0-0.2,0v28.1c0.3,0.1,0.5,0.1,0.8,0.1c0.4,0,0.9-0.1,1.3-0.3v-27.9
		C225.6,295.3,225,295.3,224.3,295.3z"/>
	<path class="st1" d="M226.2,224.8v-26.1c-0.6,0-1.2,0-1.9,0c-0.1,0-0.2,0-0.2,0v26c0.1,0,0.2,0,0.3,0
		C225,224.8,225.6,224.8,226.2,224.8z"/>
	<path class="st1" d="M226.2,196.6v-23.7l-2.1-2.3v26c0.1,0,0.2,0,0.2,0C225,196.6,225.6,196.6,226.2,196.6z"/>
	<path class="st1" d="M282.6,246.5c0,0.3,0,0.6,0,0.9h13.6l-2-2.1h-11.6C282.5,245.7,282.6,246.1,282.6,246.5z"/>
	<path class="st1" d="M143.6,245.3H143v2.1h0.6c0-0.3,0-0.6,0-0.9C143.6,246.1,143.6,245.7,143.6,245.3z"/>
	<path class="st1" d="M167.2,246.5c0-0.4,0-0.8,0-1.2h-23.6c0,0.4,0,0.8,0,1.2c0,0.3,0,0.6,0,0.9h23.6
		C167.2,247.1,167.2,246.8,167.2,246.5z"/>
	<path class="st1" d="M169.1,246.5c0-0.4,0-0.8,0-1.2h-1.9c0,0.4,0,0.8,0,1.2c0,0.3,0,0.6,0,0.9h1.9
		C169.1,247.1,169.1,246.8,169.1,246.5z"/>
	<path class="st1" d="M282.5,245.3h-1.9c0,0.4,0,0.8,0,1.2c0,0.3,0,0.6,0,0.9h1.9c0-0.3,0-0.6,0-0.9
		C282.6,246.1,282.5,245.7,282.5,245.3z"/>
	<path class="st1" d="M256.7,246.4c0,0.4,0,0.7,0,1.1h23.9c0-0.3,0-0.6,0-0.9c0-0.4,0-0.8,0-1.2h-23.9
		C256.7,245.7,256.7,246,256.7,246.4z"/>
	<path class="st1" d="M193,246.4c0-0.3,0-0.7,0-1h-23.9c0,0.4,0,0.8,0,1.2c0,0.3,0,0.6,0,0.9H193C193,247.1,193,246.7,193,246.4z"/>
	<path class="st1" d="M255.7,246.4c0,0.4,0,0.7,0,1.1h1.1c0-0.4,0-0.7,0-1.1c0-0.3,0-0.7,0-1h-1.1
		C255.7,245.7,255.7,246,255.7,246.4z"/>
	<path class="st1" d="M194.1,246.4c0-0.3,0-0.7,0-1H193c0,0.3,0,0.7,0,1c0,0.4,0,0.7,0,1.1h1.1C194.1,247.1,194.1,246.7,194.1,246.4
		z"/>
	<path class="st1" d="M194.1,247.5h30v-2.1h-30c0,0.3,0,0.7,0,1C194.1,246.7,194.1,247.1,194.1,247.5z"/>
	<path class="st1" d="M226.2,247.5h29.4c0-0.4,0-0.7,0-1.1c0-0.3,0-0.7,0-1h-29.4V247.5z"/>
	<rect x="224.1" y="245.3" class="st1" width="2.1" height="2.1"/>
	<polygon class="st0" points="225.1,297.4 217.8,262.5 198.5,272.6 209.4,253.6 182.2,245.9 208.7,239 198.3,219.5 217.6,229.7 
		225.1,194.1 232.6,230.4 251.9,219.8 241.5,238.6 268.9,246.1 241.5,253.6 251.7,272.2 232.2,262.2 	"/>
</g>
</svg>
