<?xml version="1.0" encoding="utf-8"?>
<!-- Generator: Adobe Illustrator 26.0.1, SVG Export Plug-In . SVG Version: 6.00 Build 0)  -->
<svg version="1.1" id="Layer_1" xmlns="http://www.w3.org/2000/svg" xmlns:xlink="http://www.w3.org/1999/xlink" x="0px" y="0px"
	 viewBox="0 0 400 400" style="enable-background:new 0 0 400 400;" xml:space="preserve">
<style type="text/css">
	.st0{fill:#FFFFFF;stroke:#E0E0E0;stroke-width:0.9989;stroke-miterlimit:10;}
	.st1{fill:#EC2227;}
	.st2{fill:none;stroke:#333333;stroke-width:3;stroke-miterlimit:10;}
</style>
<path class="st0" d="M399.1,348.1c-92.2-0.2-184.3,0.1-276.5,0l0,0c-19.5,0-38.9,0-58.4,0c-4.1-20.5-8.2-41.1-12.3-61.7l0,0
	c-0.2-0.9-0.4-1.8-0.6-2.7l0,0c-3.1-15.5-6.2-31-9.3-46.5c-2.5-12.2-4.9-24.5-7.3-36.7C24,146.5,13.2,92.4,2.4,38.4
	c-0.1-0.3-0.9-2.4,0.2-4.6c1-2,3-2.6,3.3-2.8h78.4c3.7,0.2,10.6,1.1,18,5.2c8,4.4,12.6,10.5,14.1,12.6c3.4,4.5,12.5,16.6,26.1,34.6
	c3.8,5,8,10.5,12.5,16.5c4.9,6.5,10.2,13.5,15.9,21c21.2,28.1,47.4,62.9,77,102.3c21.5,28.1,54.4,62.2,102.1,87.6
	c10.1,5.4,20.1,9.9,29.6,13.8c2.6,0.9,10,3.7,15.2,11.4c1.6,2.4,2.7,4.8,3.4,6.8C398.6,344.9,398.9,346.7,399.1,348.1z"/>
<g id="CA">
	<g>
		<path class="st1" d="M213.6,210c-0.7-1.1-1.6-0.9-2.4-0.9c-4.8,0-9.5-0.1-14.3,0c-1.5,0-2.2-0.4-2.6-2c-1.2-5.3-5.2-8.6-10.5-7.9
			c-5.9,0.9-10.1-1.4-13.6-5.9c-1.1,3.2,0.6,7.3,3.7,9.4c3.3,2.2,6.8,2.9,10.7,2c1.8-0.4,3.6-0.6,5.3,0.4c1.1,0.7,2.1,1.7,2,3
			c0,1.3-1.5,1-2.2,1.3c-3.5,1.4-5.3,4-5.3,7.9c0,14,0,27.9,0,41.9c0,4.3-2.2,7.1-5.8,7.5c-4.3,0.5-7.5-2.5-7.5-7.2
			c0-9.3,0-18.6,0-27.9c0-6-0.5-11.9-1.6-17.7c-4.6-24.5-25.8-45.3-50.4-49c-6-0.9-12.2-1-18.3-1.5c-11.7-0.9-22.2-5-32.1-11.1
			c-0.7-0.4-1.3-1.1-2.5-1.1c2.4,6.9,6.2,12.7,11.4,17.7c8.4,8,18.6,11.9,30,12.9c18,1.5,31.1,10.7,40,26c4.3,7.3,5.1,15.6,5.2,23.9
			c0.1,10.3-0.1,20.6,0.1,31c0.1,9.8,4.7,17.2,13.6,21.2c9.2,4.1,18.2,3.2,26.1-3.5c5.3-4.5,7.6-10.6,7.7-17.5
			c0.2-14.8,0.4-29.7,0.6-44.5c0.1-6.3,2.2-8.4,8.5-8.4C210.9,210,212.3,210,213.6,210z"/>
		<path class="st1" d="M74.9,174.4c1.2,9.9,5.8,17.7,14.1,23.1c5.4,3.5,11.3,5.2,17.7,5.7c3.7,0.3,7.4,1.3,10.7,2.9
			c8.7,4.2,12.6,11.6,13.1,20.9c0.8,13,0.2,26,0.3,39c0,5.8,0.6,11.6,3.2,16.9c6.3,12.5,16.7,18.8,30.4,19.7
			c12.6,0.8,24.8-6.1,31.2-17.3c-0.9,0.5-1.4,0.8-2,1.2c-10,6.5-20.2,7.3-30.8,1.7c-10.7-5.7-15.6-15.1-15.9-26.8
			c-0.3-10.7-0.3-21.4,0-32.1c0.6-20.9-15.6-40.5-39.1-41.6c-8-0.4-15.5-2-22.6-5.9C81.5,179.8,78.1,177.3,74.9,174.4z"/>
		<path class="st1" d="M169.9,307.5c-5.4,0.4-10.6,0.1-15.7-1.3c-16.7-4.4-28.4-18.8-28.7-36c-0.2-10.3,0-20.6-0.1-30.9
			c-0.1-10.6-6.9-19.3-16.9-21.3c-8.5-1.7-16,0.7-21.4,7.7c-5.2,6.7-6.3,14.1-2.6,21.9c2.3,5,7.4,7.2,12.7,5.9
			c5.1-1.3,8.4-5.3,8.4-10.2c0-0.2-0.1-0.5-0.2-1c-1.4,1.5-2.8,2.7-4.7,1.5c-1.6-0.9-2.3-2.5-2.1-4.2c0.3-2.4,1.2-4.6,3.7-5.7
			c4.6-2.1,9.3,1.1,9.4,6.3c0.1,8.8,0.2,17.6,0,26.4c-0.4,20.3,13.5,36.2,31.6,41.6c8.2,2.4,16.6,2.1,25,0.4
			c0.5-0.1,0.9-0.3,1.4-0.4C169.6,308.1,169.6,307.9,169.9,307.5z"/>
	</g>
</g>
<path class="st2" d="M398.7,346.9c-92.1-0.2-184,0.1-276.1,0H64.3c-4.1-20.4-8.2-40.9-12.3-61.5l0,0l-0.6-2.7l0,0l-9.3-46.4
	c-2.5-12.2-4.9-24.4-7.3-36.6C24.1,146,13.3,92.2,2.5,38.4c-0.6-1.5-0.5-3.1,0.2-4.6C3.5,32.5,4.6,31.5,6,31h78.3
	c6.3,0.4,12.4,2.1,17.9,5.2c5.5,3.1,10.3,7.4,14,12.5c3.4,4.5,12.5,16.5,26.1,34.5c3.8,5,8,10.5,12.5,16.4
	c4.9,6.5,10.2,13.4,15.8,20.9c21.1,28,47.3,62.7,76.9,101.9c21.4,28,54.3,62,101.9,87.3c9.6,5.1,19.5,9.7,29.6,13.8
	c6.1,2,11.5,6,15.1,11.4c1.4,2.1,2.5,4.4,3.4,6.8C398.2,343.7,398.5,345.5,398.7,346.9z"/>
</svg>
