<?xml version="1.0" encoding="utf-8"?>
<!-- Generator: Adobe Illustrator 26.0.1, SVG Export Plug-In . SVG Version: 6.00 Build 0)  -->
<svg version="1.1" id="Layer_1" xmlns="http://www.w3.org/2000/svg" xmlns:xlink="http://www.w3.org/1999/xlink" x="0px" y="0px"
	 viewBox="0 0 400 400" style="enable-background:new 0 0 400 400;" xml:space="preserve">
<style type="text/css">
	.st0{fill:#006B6E;}
	.st1{fill:none;stroke:#E0E0E0;stroke-width:0.9963;stroke-miterlimit:10;}
	.st2{fill:#FFFFFF;}
	.st3{fill:none;stroke:#333333;stroke-width:3;stroke-miterlimit:10;}
</style>
<path class="st0" d="M399.3,347.5c-92.1-0.2-184,0.1-276.1,0l0,0c-19.4,0-38.9,0-58.3,0c-4.1-20.4-8.2-40.9-12.3-61.5l0,0
	c-0.2-0.9-0.4-1.8-0.6-2.7l0,0c-3.1-15.4-6.2-30.9-9.3-46.3c-2.5-12.2-4.9-24.4-7.3-36.6C24.6,146.7,13.9,92.8,3.1,39
	c-0.1-0.3-0.9-2.4,0.2-4.6c1-2,3-2.6,3.3-2.8h78.3c3.7,0.2,10.6,1.1,17.9,5.2c8,4.4,12.6,10.5,14,12.6c3.4,4.5,12.5,16.5,26.1,34.5
	c3.8,5,8,10.5,12.5,16.4c4.9,6.5,10.2,13.5,15.8,20.9c21.1,28,47.3,62.7,76.9,101.9c21.4,28,54.3,62,101.9,87.3
	c10.1,5.4,20,9.9,29.6,13.7c2.6,0.9,10,3.7,15.1,11.4c1.6,2.4,2.7,4.8,3.4,6.8C398.8,344.3,399.1,346.1,399.3,347.5z"/>
<path class="st1" d="M399.3,347.5c-92.1-0.2-184,0.1-276.1,0l0,0c-19.4,0-38.9,0-58.3,0c-4.1-20.4-8.2-40.9-12.3-61.5l0,0
	c-0.2-0.9-0.4-1.8-0.6-2.7l0,0c-3.1-15.4-6.2-30.9-9.3-46.3c-2.5-12.2-4.9-24.4-7.3-36.6C24.6,146.7,13.9,92.8,3.1,39
	c-0.1-0.3-0.9-2.4,0.2-4.6c1-2,3-2.6,3.3-2.8h78.3c3.7,0.2,10.6,1.1,17.9,5.2c8,4.4,12.6,10.5,14,12.6c3.4,4.5,12.5,16.5,26.1,34.5
	c3.8,5,8,10.5,12.5,16.4c4.9,6.5,10.2,13.5,15.8,20.9c21.1,28,47.3,62.7,76.9,101.9c21.4,28,54.3,62,101.9,87.3
	c10.1,5.4,20,9.9,29.6,13.7c2.6,0.9,10,3.7,15.1,11.4c1.6,2.4,2.7,4.8,3.4,6.8C398.8,344.3,399.1,346.1,399.3,347.5z"/>
<path class="st2" d="M126.7,206.8c-0.3-1.2-0.8-1.9-1.4-2.4c-0.2-0.2-1.2-0.5-1.4-0.4c-0.1,0.1,0.3,1.2,0.4,1.3
	c0.4,0.5,1.3,1.8,2.1,1.7C126.6,207,126.7,206.9,126.7,206.8z M106.5,194.1c-0.1-0.5-0.5-0.9-0.8-1.2c-0.5-0.6-1.1-1.3-1.5-1.9
	c-0.4-0.5-0.5-1.3-0.9-1.8c-0.2-0.4-0.5-0.8-0.9-1.2c-0.3-0.5-1.1-1.9-1.8-1.9c-0.1,0,0,0.4,0,0.6c0.1,1.6,0.9,2.4,1.6,3.3
	c0.8,1.1,1.4,2.3,2.1,3.4c0.3,0.6,1.7,2.3,2.3,2C106.8,195.2,106.6,194.4,106.5,194.1z M101.1,194.7c0-0.3-0.2-0.9-0.2-1.1
	c-0.3-0.6-1.2-1.9-1.9-1.9c-0.1,0-0.1,0-0.1,0.1c0,1.2,0.5,2,1.3,2.6c0.2,0.2,0.4,0.4,0.9,0.5C100.9,195,101,194.9,101.1,194.7z
	 M81.5,197.3c-0.2-0.8-0.8-1.3-1.1-2c-0.3-0.6-0.5-1.4-0.9-2c-0.3-0.4-0.8-0.9-1-1.3c-0.3-0.6-0.4-1.4-0.6-2
	c-0.3-0.6-0.9-1.3-1.3-1.9c-0.3-0.6-1-2.4-1.6-2.5c-0.1,0-0.1,0-0.1,0.1c-0.1,0.2,0,0.8,0.1,1c0.1,0.5,0.4,1.1,0.5,1.6
	c0.1,0.3,0.1,0.6,0.2,0.9c0.3,0.9,0.8,1.6,1.2,2.3c0.2,0.2,0.4,0.4,0.5,0.8c0.3,0.4,0.4,1.1,0.6,1.6c0.2,0.4,0.4,0.9,0.8,1.2
	c0.3,0.5,0.6,1.1,1,1.6c0.4,0.6,0.6,2,1.5,2c0.1,0,0.2-0.1,0.2-0.2C81.6,198.1,81.6,197.6,81.5,197.3z M80,173.8
	c0.1,0,0.1-0.2,0.1-0.5c0-0.2,0-0.5,0-0.9c-0.1-0.3-0.2-0.8-0.3-1.1c-0.3-0.6-0.8-1.2-1.1-1.8c-0.4-1-0.5-2-1-3
	c-0.2-0.4-0.5-0.9-0.8-1.3c-0.1-0.2-0.1-0.3-0.2-0.5s-0.3-0.3-0.4-0.4c-0.1-0.1-0.2-0.1-0.3-0.1c-0.2,0.6,0.1,1.5,0.3,2
	c0.5,1.2,1.1,2.6,1.6,3.8c0.1,0.3,0.1,0.8,0.3,1.1c0.1,0.3,0.3,0.8,0.4,1.1C78.9,172.8,79.1,173.8,80,173.8z M218.4,283.7
	c-30.8,13.6-81.1,32.2-150.4,54.6c-0.2,0.1-1.1,0.3-1.3-0.1c-0.2-0.5,0.4-1,0.6-1.2l86.9-52.5c0.5-0.3,1.2-1,0.2-1.4
	c0,0-4.1-1.5-11.6-6.4l0,0c-14.2-9.5-30.8-23.8-46.9-45.3l-0.3-0.4c-0.4-0.5-0.8-1.2-1.1-1.7c-0.5-0.6-1.1-1.4-1.5-2.1
	c-0.5-0.9-1.1-1.9-1.7-2.8c-0.8-1.1-2.6-4.3-3.8-6.1c-0.4-0.6-1-1.4-1.4-2c-0.6-1-1-2-1.6-3c-0.4-0.6-0.8-1.1-1.1-1.7
	c-0.3-0.5-0.6-1.2-1-1.8c-0.2-0.6-0.8-1.2-1-1.7c-0.3-0.6-0.8-1.5-1.1-2c-0.5-0.9-0.9-1.5-1.4-2.4c-0.3-0.5-0.5-1.2-0.8-1.8
	c-0.4-0.9-1-1.5-1.4-2.4c-0.1-0.5-0.3-1.1-0.5-1.5c-0.3-0.8-1-1.4-1.3-2.3c-0.2-0.4-0.2-0.8-0.4-1.2c-0.3-0.8-0.8-1.4-1.1-2
	c-0.2-0.5-0.4-1.2-0.5-1.7c-0.2-0.5-0.6-1.1-1-1.6c-0.2-0.5-0.3-1.1-0.5-1.6c-0.4-1-1-1.8-1.4-2.8c-0.5-1.3-0.8-2.7-1.3-4
	c-0.3-0.8-0.5-1.5-0.9-2.4c-0.2-0.5-0.6-1.2-0.9-1.7c-0.2-0.5-0.2-1.1-0.4-1.6c-0.3-0.6-0.8-1.3-1-2c-0.1-0.5-0.1-1-0.3-1.4
	c-0.1-0.4-0.4-0.9-0.5-1.3c-0.2-0.4-0.2-1-0.4-1.4c-0.2-0.4-0.4-0.9-0.5-1.3c-0.1-0.4-0.1-0.9-0.3-1.2c-0.2-0.4-0.4-0.8-0.6-1.2
	c-0.2-0.4-0.2-1-0.3-1.5c-0.2-0.4-0.4-1-0.5-1.4c-0.2-0.5-0.1-1.3-0.3-1.8c-0.1-0.3-0.3-0.8-0.5-1.1c-0.2-0.4-0.2-1-0.4-1.4
	c-0.1-0.3-0.3-0.8-0.5-1.1c-0.2-0.8-0.4-1.5-0.6-2.4c-0.1-0.5-0.1-1-0.2-1.4c-0.6-1.8-1.2-3.9-1.7-5.7c-0.3-1.1-0.3-2-0.6-3
	c-0.3-0.9-0.6-1.9-0.9-2.9c-0.1-0.5-0.1-1.2-0.2-1.7c-0.1-0.5-0.2-1.1-0.4-1.6c-0.1-0.3,0-0.8-0.1-1.1c-0.2-0.6-0.4-1.4-0.5-2
	c-0.1-0.4-0.1-0.6-0.2-1.1c-0.1-0.5-0.3-1.3-0.4-1.8c-0.2-0.6-0.2-1.5-0.4-2.3c-0.1-0.3-0.2-0.8-0.3-1.2c-0.2-0.8-0.2-1.4-0.4-2.1
	c-0.2-0.8-0.4-1.4-0.6-2.1c-0.1-0.4-0.1-0.9-0.1-1.3c0-0.3-0.2-1.1-0.2-1.7s0.5-0.9,0.8-0.2c0.2,0.5,0.2,1.1,0.3,1.6
	c0.3,1.1,0.8,2.4,1,3.4c0.1,0.4,0.1,1,0.2,1.4c0.4,1.4,0.9,3,1.3,4.4c0.3,1.2,0.2,2.4,0.5,3.4s0.5,2,0.9,3.1
	c0.1,0.4,0.1,0.9,0.2,1.4c0.5,1.9,1.3,3.9,1.9,5.8c0.3,0.9,0.3,1.8,0.5,2.7c0.2,0.6,0.4,1.3,0.6,1.9c0.2,0.5,0.2,1,0.4,1.5
	c0.4,1,0.9,2,1.2,3.1c0.1,0.4,0.1,0.8,0.2,1.2c0.1,0.4,0.3,1,0.5,1.5c0.4,1.2,0.5,2.3,1,3.3c0.4,1.2,1,2.5,1.5,3.7
	c0.2,0.6,0.3,1.4,0.6,1.9c0.1,0.3,0.4,0.8,0.5,1.1s0.1,0.8,0.3,1.1c0.3,1,0.8,2,1.2,2.9c0.3,0.6,0.4,1.3,0.8,1.9
	c0.2,0.4,0.4,1,0.6,1.4c0.3,0.8,0.4,1.5,0.8,2.3c0.6,1.4,1.4,2.8,2,4.2c0.4,1,0.5,1.6,1.2,2.3c0.1,0.1,0.4,0.5,0.6,0.4
	c0.1,0,0.2-0.1,0.2-0.2c0-1.3-0.2-1.7-0.6-2.7c-0.2-0.6-0.3-1.3-0.6-1.9c-0.3-0.6-0.8-1.2-1-1.9c-0.1-0.4-0.2-0.8-0.3-1.2
	c-0.4-1.1-1-2.1-1.3-3.2c-0.2-0.8-0.2-1.4-0.5-2.1c-0.2-0.5-0.6-1.1-0.8-1.5c-0.1-0.5-0.3-1-0.4-1.4c-0.2-0.5-0.5-1.1-0.8-1.7
	s-0.3-1.3-0.5-1.9c-0.3-1-0.8-1.9-1.1-2.9c-0.3-0.6-0.3-1.4-0.5-2.1c-0.3-0.9-0.8-1.6-1.1-2.5c-0.2-0.5-0.2-1.1-0.3-1.6
	c-0.3-1-0.6-2.1-0.9-3.1c-0.1-0.4-0.1-0.9-0.2-1.2c-0.3-1-0.5-2.1-0.9-3.2c-0.3-0.9-0.6-1.9-0.9-2.8c-0.1-0.5-0.1-1.2-0.3-1.7
	c-0.1-0.5-0.4-1.1-0.5-1.6c-0.3-0.9-0.3-1.8-0.6-2.8c-0.2-0.4-0.3-0.9-0.4-1.3c-0.1-0.4-0.1-0.8-0.2-1.1c-0.1-0.5-0.2-1-0.4-1.5
	c-0.1-0.3-0.1-0.8-0.2-1.1c-0.1-0.4-0.3-1-0.4-1.6c-0.1-0.3-0.1-0.5-0.1-0.9c-0.3-1.1-0.5-2.4-0.9-3.3c-0.1-0.3,0-0.5-0.1-0.8
	c-0.1-0.5-0.2-1.1-0.3-1.6c0-0.2,0-0.5,0-0.8c-0.1-0.8-0.5-1.6-0.6-2.4c-0.1-0.9-0.2-1.8-0.3-2.6c-0.1-0.8-0.3-1.5-0.5-2.1
	c-0.1-0.8-0.1-1.4-0.3-2c-0.1-0.5-0.3-1.1-0.4-1.6c-0.1-0.6,0-1.2-0.1-1.8c-0.1-0.5-0.2-1-0.3-1.5s0-1-0.1-1.4
	c-0.4-1.6-0.6-3.3-1-4.9c-0.3-1.1-0.2-2.3-0.4-3.3c-0.1-0.3,0-0.6-0.1-1.1c0-0.2-0.1-0.3-0.1-0.5l0,0c0,0,0,0,0-0.1c0,0,0,0,0-0.1
	v-0.1C53,99.2,53,98.7,53,98.3l0,0c-0.8-1.4-0.9-2.3-1-3.3c0-0.5-0.2-1.1-0.2-1.6c-0.1-1,0-1.9-0.1-2.9c-0.1-0.5-0.2-1.6-0.1-2.5
	c0-0.3,0-0.8,0.3-0.8c0.4,0,0.4,0.5,0.4,0.9c0.1,0.5,0,1,0.1,1.5c0.1,0.9,0.2,1.6,0.3,2.4c0,0.5,0.1,1.1,0.1,1.6
	c0.1,0.8,0.1,1.6,0.2,2.4c0.1,0.6,0.4,2.4,0.5,3.1v0.1c0.1,0.6,0.1,1.3,0.1,2c0.1,0.4,0.2,0.9,0.3,1.3s0.1,0.9,0.2,1.3
	c0,0.5,0,1.2,0.1,1.7c0.3,1.6,0.9,3.5,1.2,5.2c0.1,0.4,0.1,0.8,0.1,1.2c0,0.2,0,0.4,0,0.8c0.1,0.6,0.3,1.2,0.4,1.8
	c0.1,0.5,0.1,1,0.2,1.5c0.2,0.9,0.5,1.9,0.8,2.9c0.1,0.3,0.1,0.6,0.1,1c0.3,1.1,0.6,2.5,1,3.7c0.1,0.4,0.1,0.9,0.2,1.4
	c0.2,0.8,0.4,1.4,0.6,2.1c0.1,0.3,0.1,0.6,0.1,1.1c0.2,0.8,0.3,1.6,0.4,2.5c0.1,0.3,0.1,0.5,0.1,0.9c0.2,0.9,0.5,1.6,0.9,2.6
	c0.1,0.6,0.2,1.4,0.3,2.1c0.1,0.4,0.4,0.9,0.6,1.3c0.1,0.3,0.1,0.6,0.2,1.1c0.2,0.8,0.4,1.4,0.8,2.1c0.1,0.3,0.1,0.6,0.2,1.1
	c0.2,0.5,0.4,1.1,0.5,1.7s-0.1,1.2,0.1,1.7c0.2,0.5,0.5,0.9,0.8,1.4c0.2,0.5,0.2,1.3,0.4,1.9c0.3,0.9,0.8,1.7,1.1,2.6
	c0.1,0.3,0.2,0.8,0.2,1.2c0.1,0.4,0.3,0.9,0.4,1.3c0.2,0.9,0.2,1.5,0.5,2.3c0.2,0.5,0.5,1,0.8,1.4c0.2,0.4,0.2,1,0.3,1.4
	c0.2,0.8,0.6,1.4,1,2c0.2,0.5,0.2,1.1,0.4,1.5c0.3,0.6,0.6,1.2,0.9,1.8c0.4,1.2,0.4,2.4,0.9,3.4c1,2.4,2.1,4.5,3.1,6.9
	c0.2,0.5,0.2,1.2,0.5,1.8c0.3,0.9,0.9,1.5,1.2,2.3c0.1,0.2,0.1,0.5,0.2,0.8s0.3,0.8,0.5,1.1c0.6,1.2,0.8,2.9,1.6,3.9
	c0.3,0.3,0.8,0.8,1,0.6c0.1,0,0.1-0.1,0.1-0.1c0.1-0.3-0.1-1.2-0.2-1.4c-0.3-0.8-0.9-1.6-1.2-2.4c-0.2-0.4-0.2-0.9-0.3-1.2
	c-0.2-0.6-0.6-1.3-0.9-1.9c-0.3-0.9-0.5-1.6-0.9-2.5c-0.6-1.4-1.4-2.9-2-4.4c-0.1-0.3-0.1-0.6-0.2-1c-0.2-0.5-0.4-1.1-0.6-1.6
	s-0.2-1.1-0.4-1.6c-0.2-0.5-0.6-1.2-0.9-1.7c-0.3-0.6-0.5-1.3-0.8-1.9c-0.1-0.4-0.1-0.8-0.2-1.2c-0.3-1-0.9-1.7-1.1-2.7
	c0-0.3-0.1-0.6-0.2-1c-0.2-0.8-0.3-1.5-0.6-2.3c-0.2-0.6-0.6-1.2-0.9-1.8c-0.2-0.6-0.1-1.3-0.3-1.8c-0.2-0.6-0.5-1.3-0.8-1.9
	c-0.2-0.9-0.2-1.6-0.5-2.4c-0.2-0.8-0.6-1.4-1-2.1c-0.2-0.6-0.3-1.6-0.4-2.3c-0.1-0.4,0-0.9-0.1-1.2c-0.2-0.3-0.3-0.6-0.4-1.1
	c-0.2-0.6-0.1-1.2-0.3-1.7c-0.3-1.1-0.6-2.4-1-3.4c-0.1-0.5,0-1.1-0.2-1.5c-0.1-0.5-0.4-1.1-0.5-1.6s-0.1-1-0.2-1.4
	c-0.1-0.3-0.3-0.8-0.4-1.1s0-0.6-0.1-1s-0.2-0.9-0.3-1.3c-0.1-0.4,0-0.8-0.1-1.2c-0.1-0.4-0.3-0.9-0.5-1.3c-0.1-0.4-0.1-1-0.2-1.5
	c-0.1-0.5-0.4-1.1-0.5-1.6c-0.2-1-0.3-1.8-0.5-2.8c-0.1-0.4-0.1-0.9-0.1-1.3c-0.1-0.5-0.2-1.1-0.4-1.6c0-0.3,0-0.6-0.1-1.1
	c-0.1-0.6-0.3-1.2-0.4-1.8c-0.1-0.4,0-0.6-0.1-1.1c0-0.4-0.3-1.7-0.3-2c-0.1-0.3,0-0.5-0.1-0.8c0-0.3-0.3-1.5-0.4-1.7
	c0-0.2,0-0.4,0-0.8c0-0.3-0.1-1-0.2-1.5c-0.1-0.5,0-1.4-0.1-1.7c-0.1-0.3-0.5-1.3-0.6-1.9c-0.1-0.5,0-1-0.1-1.5
	c-0.1-0.6-0.3-1.3-0.4-1.9c-0.1-0.4,0-1,0-1.4c-0.2-0.8-0.4-1.5-0.2-2.3c0.1-0.8-0.2-1.5-0.3-2C55,93.3,55,93,55,92.8s0-0.4,0-0.8
	c0-0.3,0-0.3-0.1-0.8c-0.1-0.3-0.1-0.4-0.1-0.6c0-0.4,0-0.6,0-1c0-0.2-0.1-0.6-0.1-0.9c0-0.2-0.1-0.5-0.1-0.8c0-0.4-0.1-0.5-0.1-1
	c0-0.2,0-1.1-0.1-1.4c-0.1-0.6-0.2-1.1-0.3-1.7c-0.1-0.5,0-0.8,0.3-0.8c0.4,0,0.5,0.6,0.8,1.5c0,0.3,0,0.6,0.1,0.9
	c0.1,0.5,0.3,1.4,0.3,2.1c0,0.5,0.2,1.3,0.2,1.6s0,1.1,0,1.5c0,0.2,0.1,0.9,0.2,1.2c0.2,0.4,0.3,1,0.4,1.5c0.2,0.6,0,1.4,0.2,2.1
	c0.1,0.5,0.3,1.4,0.4,1.8c0.1,0.3,0,1.1,0.1,1.4c0,0.3,0.3,1.6,0.4,2.1c0.1,0.5,0.1,0.9,0.1,1.2c0,0.3,0.4,1.4,0.4,1.6
	c0,0.3,0,1.2,0.1,1.6s0.8,3,0.8,3.4c0.1,0.4,0,1.1,0.1,1.6s0.2,0.9,0.3,1.3c0.2,0.8,0.2,1.5,0.3,2.1c0.2,0.6,0.1,1.3,0.2,1.9
	c0.3,1.3,0.6,2.6,1,3.8c0.1,0.5,0.1,1,0.2,1.5c0.3,1,0.6,2,0.9,3c0.3,1.4,0.3,3,0.8,4.4c0.3,1.3,0.8,2.7,1.1,3.9
	c0.1,0.5,0.1,1.1,0.2,1.6c0.2,0.6,0.5,1.3,0.8,1.9c0.1,0.5,0.1,1,0.3,1.5c0.2,0.6,0.4,1.2,0.6,1.8c0.1,0.5,0.2,1.1,0.3,1.5
	c0.2,0.6,0.4,1.4,0.6,2c0.1,0.3,0.1,0.8,0.2,1.2s0.3,1,0.5,1.4c0.1,0.3,0.2,0.5,0.2,0.9c0.1,0.4,0.3,0.8,0.4,1.2
	c0.1,0.3,0.1,0.5,0.2,0.9c0.2,0.5,0.5,1.1,0.8,1.5c0.2,0.5,0.4,1.1,0.5,1.6c0.1,0.4,0.1,0.9,0.2,1.2c0.2,0.4,0.4,0.8,0.6,1.2
	c0.1,0.3,0.2,0.8,0.3,1.1c0.2,0.4,0.4,0.8,0.6,1.1c0.2,0.4,0.1,1.1,0.2,1.6c0.1,0.3,0.3,0.8,0.4,1.1c0.2,0.5,0.4,1.2,0.5,1.7
	c0.1,0.2,0.1,0.5,0.2,0.8c0.3,0.6,0.6,1.3,1,1.8c0.2,0.3,0.5,0.9,0.9,0.9c0.1-0.1,0.2-0.6,0.1-0.9c-0.2-0.9-0.2-1.7-0.4-2.5
	c-0.2-0.5-0.3-1.1-0.5-1.5c-0.1-0.2-0.3-0.5-0.4-0.9s-0.3-0.9-0.4-1.3c-0.1-0.3-0.4-0.8-0.5-1.2c-0.1-0.5-0.1-1.1-0.2-1.5
	c-0.2-0.5-0.4-1-0.6-1.4c-0.1-0.5,0-1.2-0.2-1.6c-0.2-0.4-0.5-1-0.6-1.3s-0.2-0.8-0.2-1.1c-0.1-0.4-0.3-1-0.5-1.4
	c-0.2-0.6-0.2-1.4-0.4-2c-0.3-0.9-0.6-1.7-0.9-2.5c-0.2-0.4-0.1-1-0.3-1.4c-0.2-0.5-0.5-1.1-0.6-1.6c-0.1-0.4-0.2-1-0.2-1.4
	c-0.1-0.2-0.2-0.5-0.3-0.8c-0.1-0.4-0.1-0.9-0.2-1.3c-0.1-0.3-0.2-0.6-0.3-1c-0.1-0.4-0.1-0.8-0.2-1.2c-0.2-0.8-0.5-1.6-0.8-2.4
	c-0.1-0.3-0.1-0.6-0.1-1.1c-0.1-0.8-0.3-1.6-0.5-2.4c-0.1-0.4-0.1-0.8-0.1-1.1c-0.6-2.1-1.1-4.5-1.6-6.8c-0.1-0.3-0.1-0.8-0.2-1.1
	c-0.8-2.6-0.9-5.6-1.4-8.3c-0.1-0.4,0-1.3-0.1-1.7c-0.1-0.5-0.3-1-0.4-1.4c-0.1-0.4,0-0.9-0.1-1.3c-0.1-0.5-0.3-1.1-0.4-1.6
	c-0.1-0.6,0-1.5-0.1-2c-0.1-0.4-0.4-1.1-0.4-1.5c-0.1-0.4,0-0.9,0-1.2c-0.1-0.9-0.2-2.1-0.4-3.1c-0.1-0.4,0-0.8-0.1-1.3
	s-0.2-1.1-0.2-1.7c0-0.4-0.1-0.8,0.2-0.8c0.3-0.1,0.4,0.3,0.6,0.9c0,0.3,0,0.5,0.1,0.9c0.2,0.6,0.3,1.2,0.5,1.8
	c0.1,0.6-0.1,1.3,0,1.8c0.8,2.9,1.1,6.2,1.8,9.2c0.1,0.4,0.1,0.9,0.2,1.4c0.4,1.6,0.4,3.3,1,4.9c0.1,0.4,0.1,1.2,0.2,1.6
	c0.3,1.3,0.5,2.6,0.9,3.9c0.2,0.4,0.4,0.9,0.4,1.3c0.1,0.4,0.1,0.9,0.2,1.3c0.2,0.6,0.4,1.3,0.5,1.8c0.1,0.4,0.1,0.9,0.2,1.3
	c0.2,1,0.3,1.9,0.6,2.9c0.6,2.1,1.2,4.4,1.9,6.4c0.1,0.3,0.1,1.5,0.2,1.9c0.2,0.6,0.4,1.3,0.6,2c0.1,0.6,0.2,1.4,0.4,1.8
	c0.1,0.4,0.3,0.9,0.5,1.2c0.2,0.5,0.2,1,0.4,1.5c0.2,0.6,0.5,1.3,0.8,1.9c0.3,0.8,0.4,1.6,0.8,2.5c0.2,0.5,0.4,1.2,0.6,1.7
	c0.1,0.4,0.2,1.5,0.4,2c0.2,0.8,0.5,1.5,0.9,2.1c0.1,0.4,0.2,0.9,0.4,1.3c0.3,0.6,0.6,1.3,1,1.9c0.3,0.8,0.4,1.5,0.8,2.3
	c0.5,1.3,1.2,2.7,1.8,3.9c0.3,0.5,0.4,1.3,0.8,1.8c0.2,0.3,0.4,0.6,0.6,1.1c0.3,0.8,0.5,1.5,0.9,2.3c0.2,0.3,0.4,0.6,0.5,1.1
	c0.3,0.6,0.3,1.5,0.5,2.1c0.2,0.5,0.6,1.1,0.9,1.6c0.2,0.5,0.4,1.2,0.8,1.7c0.2,0.3,0.4,0.6,0.6,0.9c0.3,0.5,0.6,1.7,1.1,2.5l0,0
	c0.1,0.2,0.4,0.6,0.5,1c0.1,0.2,0.1,0.2,0.2,0.5c0.1,0.2,0.2,0.4,0.3,0.8c0.1,0.3,0.2,0.5,0.3,0.8c0.3,0.8,0.9,1.3,1.2,2
	c0.4,1,0.4,2.8,1.7,2.8c0.3,0,0.2-1.3,0-1.8c-0.3-0.6-0.9-1.2-1.1-1.8c-0.3-0.6-0.3-1.5-0.6-2.1c-0.1-0.1-0.1-0.2-0.2-0.3
	c-0.1-0.2-0.3-0.4-0.4-0.5c-0.1-0.2-0.3-0.6-0.4-0.9c-0.1-0.2-0.1-0.4-0.1-0.5s0-0.2-0.1-0.2l0,0c-0.2-0.4-0.5-0.9-0.6-1.3
	c-0.2-0.3-0.2-0.8-0.3-1.1c-0.3-1-0.9-1.7-1.2-2.6c-0.2-0.5-0.2-1.2-0.5-1.7s-0.8-1-1.1-1.6c-0.2-0.5-0.3-1.3-0.5-1.8
	c-0.1-0.3-0.4-0.6-0.5-1c-0.2-0.4-0.3-1-0.5-1.4c-0.3-1-0.8-1.7-1.1-2.6c-0.3-0.8-0.3-1.6-0.6-2.4c-0.2-0.5-0.6-1.2-0.9-1.8
	c-0.1-0.6-0.3-1.3-0.4-1.9c-1-2.9-1.9-5.8-3-8.7c-0.2-0.8-0.3-1.4-0.5-2.1c-0.4-1.3-0.9-2.8-1.3-4.2c-0.2-0.6-0.2-1.4-0.4-2
	c-0.1-0.3,0-0.6-0.1-0.9c-0.2-0.6-0.5-1.3-0.8-2c-0.3-1-0.5-1.9-0.8-2.9c-0.1-0.3-0.1-0.6-0.2-1.1c-0.1-0.4-0.4-0.9-0.5-1.4
	s-0.1-1.2-0.2-1.8c-0.3-1.4-0.4-2.9-0.9-4.1c-0.5-1.4-0.8-3.2-1.2-4.7c-0.1-0.5,0-1.2-0.1-1.7c-0.2-1-0.5-2-0.9-3
	c-0.1-0.3-0.1-0.6-0.1-0.9s0-0.8,0-1c-0.1-0.6-0.3-1.3-0.4-1.9c0-0.2-0.1-0.6,0.2-0.6c0.3-0.1,0.4,0.2,0.5,0.5
	c0.6,1.5,0.9,3.4,1.3,5.2c0.1,0.4,0.1,0.9,0.2,1.3c0.3,1.2,0.6,2.5,1,3.7c0.1,0.3,0.1,0.6,0.2,1.1c0.1,0.2,0.2,0.5,0.3,0.9
	c0.1,0.4,0.1,1.2,0.2,1.5c0.4,1.6,0.9,3.1,1.4,4.7c0.1,0.5,0.2,1.2,0.3,1.6c0.2,0.5,0.3,1.1,0.5,1.6s0.2,1.1,0.4,1.6
	c0.6,1.8,1.1,3.8,1.7,5.6c0.4,1.2,0.5,2.5,1,3.7c0.2,0.8,0.6,1.4,1,2.1c0.5,1.4,0.8,3,1.3,4.3c0.2,0.5,0.5,1.1,0.8,1.6
	c0.2,0.6,0.3,1.2,0.5,1.8c0.6,1.6,1.3,3.1,1.9,4.7c0.3,0.6,0.4,1.4,0.6,2c0.2,0.4,0.5,0.9,0.8,1.4c0.3,0.8,0.5,1.5,0.9,2.4
	c0.2,0.5,0.8,1.1,1,1.6c0.4,1.1,0.8,2.1,1.2,3.2c0.4,1,1.1,1.9,1.6,2.9c0.2,0.5,0.3,1,0.5,1.5c0.2,0.4,0.4,0.9,0.6,1.2
	c0.4,0.8,0.5,1.6,1,2.5c0.3,0.8,1,1.3,1.3,1.9c0.2,0.5,0.3,1.1,0.5,1.6c0.3,0.6,0.8,1.1,1.1,1.7c0.3,0.5,0.9,1.8,1.2,2.5
	c0.5,1.2,1,1.7,1.6,2.7s1,2,1.6,3c0.2,0.3,1.1,1.2,1.4,1.1c0.1-0.1-0.2-1.5-0.4-1.9c-0.2-0.4-0.6-0.9-0.9-1.3
	c-0.2-0.4-0.4-1-0.6-1.4c-0.2-0.6-0.6-1.4-1-1.9c-0.4-0.6-0.6-1.1-1-1.7c-0.2-0.4-0.3-0.9-0.5-1.3c-0.2-0.6-0.5-1.2-0.9-1.8
	c-0.2-0.5-0.6-1-0.9-1.4c-0.2-0.5-0.5-1.2-0.8-1.7c-0.4-0.8-0.9-1.5-1.3-2.3s-0.5-1.7-0.9-2.7s-0.9-1.9-1.2-2.9
	c-0.3-0.6-0.3-1.3-0.6-1.9c-0.2-0.5-0.6-1.1-1-1.5c-0.4-0.6-0.5-1.5-0.9-2.3c-0.2-0.4-0.5-1-0.6-1.4s-0.2-0.8-0.3-1.2
	c-0.2-0.4-0.4-1-0.5-1.4s0-0.9-0.2-1.2c-0.2-0.5-0.8-1-1.1-1.5c-0.5-1.2-0.5-2.7-1-4s-1-2.6-1.4-3.9c-0.3-0.9-0.5-1.8-0.8-2.8
	c-0.1-0.4-0.1-0.8-0.2-1.2c-0.3-1.1-0.8-2-1.2-3.1c-0.2-0.6-0.2-1.4-0.4-2c-0.2-0.5-0.4-1.1-0.6-1.5s-0.2-1-0.4-1.4
	c-0.2-0.5-0.4-1.2-0.5-1.7c-0.2-0.5-0.2-1.2-0.3-1.7c-0.3-1.1-0.8-2.4-1-3.5c-0.1-0.4,0-1-0.1-1.4c-0.1-0.5-0.3-1.1-0.4-1.6
	c-0.1-0.3-0.1-0.8-0.1-1.1c-0.1-0.5-0.2-1.2-0.4-1.7c-0.2-0.5-0.4-1.2-0.4-1.8c0-0.2,0-0.5,0.2-0.6s0.4,0.2,0.4,0.4
	c0,0.1,0.1,0.3,0.1,0.4c0.3,0.9,0.4,1.8,0.8,2.7c0.1,0.5,0.3,1,0.5,1.5c0.2,0.6,0.2,1.4,0.4,2c0.2,0.6,0.4,1.3,0.6,1.9
	c0.2,0.5,0.2,1.1,0.4,1.6c0.3,1,0.6,1.9,1,2.9c0.2,0.6,0.1,1.5,0.3,2.1c0.1,0.3,0.3,0.8,0.5,1.1c0.3,0.6,0.4,1.4,0.8,2
	c0.1,0.2,0.1,0.4,0.2,0.8c0.2,0.6,0.5,1.4,0.8,2c0.1,0.4,0.2,0.9,0.3,1.3c0.3,1,0.8,1.9,1.1,2.9c0.1,0.4,0.1,0.9,0.3,1.3
	c0.8,2.4,1.8,4.6,2.8,6.9c0.3,0.9,0.3,1.8,0.8,2.7c0.2,0.5,0.6,1,0.9,1.5c0.5,1.1,0.8,2.3,1.3,3.4c0.2,0.5,0.6,1.1,0.9,1.6
	c0.2,0.4,0.3,0.9,0.5,1.2c0.1,0.2,0.3,0.4,0.4,0.6c0.3,0.8,0.4,1.5,0.8,2.1c0.4,1,1.1,2,1.6,3c0.2,0.4,0.3,0.9,0.6,1.3
	c0.2,0.4,0.5,0.9,0.8,1.3c0.4,1.1,1,2.1,1.5,3.2c0.3,0.5,0.4,1.2,0.8,1.7c0.5,1,1.3,1.8,1.7,2.8c0.2,0.4,0.5,1.1,0.8,1.5
	c0.3,0.9,0.9,1.3,1.2,1.7c0.2,0.3,1,0.8,1.1,0.6c0.1,0-0.3-1.5-0.3-1.7c-0.3-0.8-0.3-1-0.6-1.5c-0.5-0.8-0.8-1.4-1.1-2.1
	c-0.2-0.3-0.3-0.8-0.4-1.1c-0.4-0.6-0.8-1.2-1.1-1.9c-0.6-1.5-1-3.2-1.8-4.4c-1-1.4-1.5-2.9-2.3-4.5c-0.2-0.5-0.8-1.1-1-1.6
	c-0.1-0.2-0.2-0.5-0.2-0.8c-0.2-0.4-0.4-0.9-0.5-1.3c-0.2-0.5-0.2-1-0.4-1.5c-0.9-1.9-1.6-4.1-2.3-6.1c-0.1-0.3-0.1-0.6-0.2-1
	c-0.2-0.6-0.5-1.3-0.9-1.9c-0.3-0.8-0.5-1.6-0.9-2.4c-0.1-0.3-0.1-0.6-0.3-1c-0.1-0.3-0.4-0.8-0.5-1.2c-0.1-0.6-0.3-1.4-0.4-2
	c-0.4-1.2-0.9-2.4-1.3-3.7c-0.1-0.4-0.3-0.9-0.4-1.4s-0.2-1-0.2-1.5c-0.3-1-0.6-1.9-1-2.9c-0.2-0.6-0.2-1.4-0.4-2.1
	c-0.1-0.4-0.3-0.8-0.3-1.2c-0.1-0.3-0.1-0.6-0.2-1c-0.1-0.6-0.2-0.9-0.4-1.7c-0.1-0.6,0.4-0.9,0.6-0.2c0.4,1.2,0.8,2.4,1.2,3.5
	c0.1,0.4,0.2,1,0.2,1.4c0.8,2.4,1.5,4.8,2.4,7.1c0.2,0.6,0.4,1.4,0.6,2c0.2,0.5,0.5,1.2,0.9,1.8c0.1,0.2,0.1,0.4,0.1,0.5
	c0.2,0.6,0.4,1.4,0.6,2c0.5,1.3,1.2,2.6,1.7,3.9c0.2,0.5,0.3,1.1,0.5,1.6c0.3,1.1,0.8,2,1.2,3.1c0.6,1.4,1.5,2.7,2.1,4.2
	c0.2,0.5,0.2,1,0.4,1.5c0.2,0.4,0.4,0.9,0.6,1.2c0.3,0.8,0.5,1.5,0.9,2.3c0.3,0.6,0.8,1.3,1.1,1.9c0.4,0.8,0.6,1.6,1.1,2.4
	c0.4,0.6,0.9,1.3,1.3,1.9c0.6,1,1,2.3,1.6,3.2c0.5,0.9,1.2,1.6,1.7,2.5c0.3,0.5,0.4,1.1,0.8,1.6c0.6,1.2,1.4,2.4,2,3.5
	c0.2,0.3,0.3,0.8,0.5,1.2s0.5,0.9,0.8,1.3c0.1,0.2,0.2,0.4,0.3,0.6c0.3,0.5,0.8,1,1.1,1.4c0.6,1,1.2,2,1.8,3c0.6,0.9,1.4,1.6,2,2.6
	c0.4,0.5,0.6,1.2,1.1,1.7c0.2,0.3,0.5,0.5,0.8,0.9c0.5,0.8,0.8,1.6,1.3,2.4c0.1,0.2,0.3,0.4,0.5,0.8c0.1,0.2,1.8,1.9,2,2.1
	c0.6,0.9,1.3,1.9,2,2.7c0.3,0.3,2,2.4,2.5,2.1c0.1-0.2-0.5-1.2-0.8-1.6c-0.6-1.4-2-3-2.9-4c-0.5-0.6-2.4-3.2-2.8-3.9
	c-0.3-0.4-0.9-0.8-1.2-1.2c-0.4-0.6-0.8-1.4-1.2-2c-0.3-0.5-0.9-1-1.3-1.5c-0.3-0.4-0.5-1.1-0.8-1.6c-0.2-0.4-0.5-0.8-0.8-1.2
	c-0.2-0.3-0.2-0.6-0.3-0.9c-0.6-1-1.4-1.8-1.8-2.9c-0.3-0.8-0.4-1.6-0.9-2.3c-0.4-0.8-1.2-1.4-1.6-2.3c-0.4-0.8-0.8-1.7-1.2-2.5
	c-1.7-2.8-3.1-5.8-4.5-8.9c-0.3-0.6-0.8-1.1-1-1.7c-0.3-0.6-0.3-1.3-0.6-1.8c-0.1-0.3-0.3-0.5-0.4-0.9c-0.2-0.5-0.4-1-0.6-1.5
	c-0.4-0.9-0.8-1.8-1.2-2.8c-0.2-0.5-0.5-1.1-0.8-1.6c-0.4-1-0.6-1.9-1.1-2.9c-0.2-0.5-0.6-1.5-0.9-2.3c-0.1-0.4-0.1-0.6,0.1-0.9
	c0.2-0.1,0.4,0.1,0.6,0.4c0.2,0.4,0.3,1,0.5,1.6c0.3,0.9,0.9,1.5,1.3,2.4c0.1,0.5,0.3,1.1,0.5,1.5c0.3,0.8,0.6,1.5,1,2.4
	c0.3,0.8,0.8,1.4,1.1,2c0.5,1.3,1.2,2.6,1.9,3.9c0.2,0.3,0.2,0.6,0.4,0.9c0.2,0.5,0.5,1,0.8,1.5c0.2,0.4,0.2,0.8,0.4,1.1
	c0.3,0.4,0.8,0.8,1,1.3c0.2,0.3,0.3,0.8,0.5,1.2c0.6,1,1.2,2.1,1.8,3.1c0.2,0.3,0.2,0.6,0.4,1c0.8,1.3,1.6,2.5,2.4,3.8
	c0.3,0.5,0.4,1.2,0.6,1.6c0.3,0.6,0.9,1.1,1.3,1.7c0.2,0.3,0.3,0.6,0.5,1c0.3,0.4,0.6,0.9,1,1.3c0.2,0.3,0.3,0.6,0.5,1.1
	c0.3,0.4,0.6,0.8,1,1.2c0.6,1,1.3,2,2,3c0.2,0.2,0.4,0.4,0.5,0.6c0.4,0.4,0.9,1.1,1.3,1.6c0.2,0.3,0.5,0.5,0.8,0.8
	c0.5,0.8,1,1.7,1.6,2.6c0.4,0.5,1.1,1,1.6,1.6c0.8,0.8,2.5,2.9,3.4,2.8c0.3,0-1.3-2.3-1.9-3.1c-0.4-0.5-0.5-0.9-1.1-1.4
	c-0.4-0.5-0.8-1.2-1.2-1.8c-0.3-0.4-0.8-0.9-1.1-1.3c-0.5-0.9-1.1-1.6-1.6-2.5c-0.3-0.5-0.8-1-1.1-1.5c-0.4-0.6-0.6-1.3-1-1.9
	c-0.3-0.5-0.8-1-1.1-1.5c-0.3-0.6-0.6-1.3-1-1.9c-0.5-1-1.2-1.7-1.8-2.7c-0.3-0.5-0.5-1.1-0.9-1.7c-0.4-0.6-1-1.3-1.4-2.1
	c-0.2-0.4-0.5-1-0.8-1.3c-0.3-0.4-0.5-1.4-0.8-1.7c-0.2-0.3-0.4-0.9-0.8-1.3s-0.6-1.2-0.8-1.5c-0.4-0.6-0.5-1.1-1-1.8
	c-0.2-0.4-0.2-0.3-0.4-1c0-0.2-0.1-0.4,0.1-0.6c0.3-0.1,0.6,0.2,1,0.8c0.5,0.8,0.6,1.1,1.1,1.8c0.1,0.2,0.5,0.8,0.6,1.1
	c0.2,0.3,0.3,0.6,0.6,1.1c0.2,0.4,0.4,0.8,0.8,1.4s0.6,1.1,1,1.5c0.3,0.4,0.5,1,0.5,1.1c0.5,0.9,0.9,1.7,1.4,2.5
	c0.4,0.6,0.9,1.2,1.3,1.8c0.2,0.3,0.3,0.6,0.5,0.9c0.3,0.4,0.9,0.9,1.2,1.4c0.8,1.2,1.2,2.5,1.9,3.5c0.8,1.1,1.9,1.8,2.7,3
	c0.5,0.8,1.1,1.6,1.6,2.5c0.2,0.4,0.6,0.6,0.9,1.1c0.6,0.8,1.2,1.5,1.7,2.4c0.2,0.2,0.4,0.4,0.8,0.6c0.2,0.1,0.3,0.4,0.5,0.5
	c0.5,0.4,0.9,0.8,1.4,1.2c0.4,0.3,1,1.4,1.4,1.8c0.2,0.3,0.6,0.5,0.9,0.9c0.3,0.4,0.5,0.5,0.8,0.9c0.9,0.8,1.9,1.6,2.8,2.5
	c1.2,1.2,1.5,1.3,2.6,2.7c0.2,0.2,0.9,1.1,1.1,1.3c0.3,0.4,1.2,1.1,1.4,1.2c0.5,0.4,0.6,0.6,1.3,1.1c0.8,0.5,1.9,1.6,2.5,1.5
	c0.1,0-0.2-1-1-1.9c-0.3-0.4-1.1-1.2-1.3-1.5c-0.4-0.5-0.9-1-1.4-1.4c-0.9-0.8-1.4-1.2-2-2.1c-0.3-0.3-0.9-0.9-1.2-1.2
	c-0.3-0.4-0.6-1.1-1.1-1.4c-0.4-0.3-1.1-0.6-1.4-1.2c-0.6-0.9-1.4-1.7-2-2.6c-0.3-0.3-0.5-0.5-0.8-0.8s-0.8-0.6-1.1-1.1
	c-0.2-0.2-0.4-0.4-0.6-0.6c-0.1-0.1-0.2-0.3-0.3-0.4c-0.1-0.1-0.2-0.3-0.3-0.4c-0.2-0.3-0.4-0.6-0.6-0.9c-0.2-0.3-0.3-0.5-0.6-0.9
	c-0.1-0.1-0.2-0.2-0.3-0.4c-0.3-0.4-0.8-0.8-1.1-1.3c-0.1-0.2-0.3-0.4-0.4-0.6c-0.1-0.1-0.1-0.3-0.2-0.4c0,0-0.1-0.1-0.1-0.2
	c-0.2-0.3-0.5-0.9-0.8-1.3c-0.2-0.4-0.1-0.8,0.1-0.9c0,0,0.3-0.1,0.5,0.2c0.1,0.2,0.3,0.4,0.4,0.6c0.1,0.2,0.3,0.4,0.4,0.6
	c0.2,0.3,0.5,0.5,0.8,0.9c0.3,0.3,0.6,0.6,1.1,1.2c0.1,0.2,0.3,0.5,0.5,0.9s0.5,0.8,0.6,1c0.5,0.5,0.6,0.8,0.9,0.9
	c0.1,0.2,0.3,0.3,0.6,0.6c0.3,0.4,0.5,0.6,0.6,0.9c0.2,0.2,0.3,0.4,0.8,0.9c0.8,0.6,1.6,1.4,2.1,2.1c0.4,0.4,1.1,0.9,1.4,1.2
	c0.4,0.5,0.9,1,1.3,1.5c0.3,0.3,0.9,0.8,1.3,1.1c0.6,0.5,1.3,1.1,1.9,1.6c0.6,0.4,1.1,1.1,1.7,1.5c1,0.8,1.5,1.2,2.5,1.9
	c0.3,0.3,1,0.9,1.3,1.1c0.5,0.4,1.1,1,1.7,1.5c0.6,0.5,1.3,1.1,1.8,1.7c0.2,0.3,0.6,0.5,1,0.8c0.5,0.4,1.1,0.9,1.7,1.3
	c0.6,0.4,1,0.6,1.5,1c0.9,0.6,1.4,1.1,2.1,1.6c0.4,0.3,1.2,0.8,1.6,1c0.8,0.4,1.1,0.6,1.6,1.1c0.9,0.6,1.5,1.2,2.4,1.7
	c0.6,0.4,1.5,0.9,2.1,1.3c0.6,0.4,1.1,0.9,1.8,1.2c0.5,0.2,1.3,0.8,1.8,1.1c0.9,0.5,1.5,1,2.4,1.5c0.4,0.2,4.6,2.6,4.6,2.6
	c10.3,5.9,22.1,11.1,34.5,15.7c13.1,4.9,24.1,6.8,32.6,7.7c9.5,1.1,20.9-0.3,21.9,3.7C260.2,261.7,249.5,269.7,218.4,283.7z"/>
<path class="st3" d="M398.7,346.9c-92.1-0.2-184,0.1-276.1,0H64.3c-4.1-20.4-8.2-40.9-12.3-61.5l0,0l-0.6-2.7l0,0l-9.3-46.4
	c-2.5-12.2-4.9-24.4-7.3-36.6C24.1,146,13.3,92.2,2.5,38.4c-0.6-1.5-0.5-3.1,0.2-4.6C3.5,32.5,4.6,31.5,6,31h78.3
	c6.3,0.4,12.4,2.1,17.9,5.2c5.5,3.1,10.3,7.4,14,12.5c3.4,4.5,12.5,16.5,26.1,34.5c3.8,5,8,10.5,12.5,16.4
	c4.9,6.5,10.2,13.4,15.8,20.9c21.1,28,47.3,62.7,76.9,101.9c21.4,28,54.3,62,101.9,87.3c9.6,5.1,19.5,9.7,29.6,13.8
	c6.1,2,11.5,6,15.1,11.4c1.4,2.1,2.5,4.4,3.4,6.8C398.2,343.7,398.5,345.5,398.7,346.9z"/>
</svg>
