<?xml version="1.0" encoding="utf-8"?>
<!-- Generator: Adobe Illustrator 27.0.0, SVG Export Plug-In . SVG Version: 6.00 Build 0)  -->
<svg version="1.1" id="Layer_1" xmlns="http://www.w3.org/2000/svg" xmlns:xlink="http://www.w3.org/1999/xlink" x="0px" y="0px"
	 viewBox="0 0 400 400" style="enable-background:new 0 0 400 400;" xml:space="preserve">
<style type="text/css">
	.st0{fill:#8FC6C7;}
	.st1{fill:#FFFFFF;}
	.st2{fill:#6CA289;}
	.st3{fill:#2BA699;}
	.st4{fill:none;stroke:#001E65;stroke-width:0.6165;stroke-miterlimit:10;}
	.st5{fill:#3A766D;}
	.st6{fill:#404B49;}
	.st7{fill:none;stroke:#001E65;stroke-width:0.1658;stroke-miterlimit:10;}
</style>
<g id="CY">
	<path class="st0" d="M144.2,174.8c-7.3-8.6-44.9-25.3-80.7-44.4c-13.6-7.3-25.1-17.6-33.7-27.6l20.1,43.9
		c27.9,3.9,44.2,10.7,53.6,14C118.3,166,143.9,175.4,144.2,174.8z"/>
	<path class="st0" d="M201.6,219.1c0.3,0.1,0.6-0.4,0.3-0.6c-0.1-0.1-0.3-0.2-0.4-0.3c-41.6-30.5-58.9-35.7-81.3-41.3
		c-18-4.5-33.7-1.2-57.1-1.5l20.8,45.4c7.4-2.2,16.4-4.3,28-6.6C147.1,207.3,191,216.2,201.6,219.1z"/>
	<path class="st0" d="M223.9,219.9c7,10.2,32.2,27.6,39.1,32.2c0.3,0.2,0.5,0.4,0.8,0.5c-0.8-1-2.1-3.3-4.3-8.1
		c-3.7-7.8-9.1-26.1-11.9-46.7l-60.5-64.5c11.3,18.4,15.6,39.1,19.9,53.2C211.6,201.3,215.7,208.1,223.9,219.9z"/>
	<path class="st0" d="M286.5,280.8c-3.2-4.4-11.4-11.2-21.4-18.5c-20.6-15-49-31.9-58.7-34.1c-14.3-3.3-34-0.7-54.3,7.3
		c-20.3,8-38.1,10.6-55.4,12.6c-0.1,0-0.3,0-0.4,0l14.1,30.7c15-5.2,38.6-9.9,74.3-12.3C259.1,267,273.6,276.9,286.5,280.8z"/>
	<path class="st0" d="M108.4,127.1c4.4,5.5,18,21.7,38.4,39.9c19.4,17.4,38.8,30.6,61.9,45.3c0.5,0.3,0.9,0.6,1.4,0.9
		c0.3,0.2,0.7-0.2,0.4-0.5c-8.1-9.6-40.4-51.8-57.4-75.2c-18.5-25.6-22.6-47.4-23.3-63.8c0.8,0.3,1.7,0.7,2.5,1.2l-1.8-2
		C117.3,58.9,99.1,51,80,51H6l9.6,21C55.7,77.6,104,121.7,108.4,127.1z"/>
	<path class="st0" d="M313.3,334.4c-21.8-3.3-38,3.3-71,8.9c-33,5.6-55.5-5-71-12.6c14.9-11.6,54.5-15.5,82.6-15.2
		c28.1,0.3,52.2,6.3,77.3,16.2c-0.1-0.2-0.2-0.5-0.4-0.8c-2.3-4.7-12.5-21.1-27.4-32.9c-15.9-12.6-38.7-12.6-50.9-9.9
		c-12.2,2.6-26.8,3.3-74,9.9c-25.8,3.6-45.8,1.4-60.2-2.1l26.6,58.1h196.5C334.8,342.2,325.4,336.2,313.3,334.4z"/>
	<path class="st0" d="M281.5,264.7c6.5,8.2,25.1,21.7,51.9,53.3c5.5,6.5,10,13.7,13.6,20.8c2.6,5.1,4.7,10.2,6.5,15.2H394
		L268.6,220.3c-0.8,3.5-1.3,6.9-1.5,10.2C266.3,248,275,256.5,281.5,264.7z"/>
	<path class="st0" d="M264.8,253.3c0,0-0.4-0.2-1-0.7C264.7,254,264.8,253.3,264.8,253.3z"/>
	<g>
		<path class="st1" d="M120.1,176.9c22.4,5.7,39.7,10.8,81.3,41.3c2.7,1.1,5.2,2.1,5.9,2.5c1.3,0.7,3.9-3.8,1.3-8.4
			c-23-14.8-42.4-27.9-61.9-45.3c-20.4-18.3-33.9-34.5-38.4-39.9C104,121.7,55.7,77.6,15.6,72l14.1,30.9c8.6,10,20.1,20.3,33.7,27.6
			c35.8,19.1,73.4,35.8,80.7,44.4c-0.3,0.5-25.8-8.9-40.7-14.1c-9.4-3.3-25.6-10.1-53.6-14L63,175.4
			C86.5,175.7,102.2,172.4,120.1,176.9z"/>
		<path class="st1" d="M152.1,235.5c20.3-8,40-10.6,54.3-7.3c9.6,2.2,38.1,19.1,58.7,34.1c0-2.4-0.2-6.5-2-10.2
			c-6.9-4.7-32.1-22.1-39.1-32.2c-8.2-11.8-12.3-18.6-16.8-33.3c-4.3-14.1-8.6-34.8-19.9-53.2l-55-58.6c-0.8-0.4-1.7-0.8-2.5-1.2
			c0.7,16.5,4.8,38.3,23.3,63.8c17,23.4,49.2,65.6,57.4,75.2c0.2,0.3-0.1,0.7-0.4,0.5c-0.5-0.3-0.9-0.6-1.4-0.9
			c2.6,4.5,0,9.1-1.3,8.4c-0.7-0.3-3.3-1.4-5.9-2.5c0.1,0.1,0.3,0.2,0.4,0.3c0.3,0.2,0.1,0.7-0.3,0.6c-10.6-3-54.4-11.9-89.8-4.9
			c-11.6,2.3-20.6,4.4-28,6.6l12.5,27.3c0.1,0,0.3,0,0.4,0C114,246.1,131.8,243.5,152.1,235.5z"/>
		<path class="st1" d="M178.4,298c47.3-6.6,61.8-7.3,74-9.9c12.2-2.6,35-2.6,50.9,9.9c14.9,11.8,25.1,28.2,27.4,32.9
			c5.6,2.6,12.6,6.1,16.3,7.9c-3.6-7.2-8.1-14.3-13.6-20.8c-26.8-31.6-45.4-45.1-51.9-53.3c-6.5-8.2-15.3-16.7-14.4-34.2
			c0.2-3.3,0.7-6.7,1.5-10.2l-21-22.4c2.7,20.6,8.2,38.9,11.9,46.7c2.3,4.8,3.6,7,4.3,8.1c0.6,0.4,1,0.7,1,0.7s-0.1,0.6-1-0.7
			c-0.2-0.1-0.5-0.3-0.8-0.5c1.8,3.7,2.1,7.8,2,10.2c10,7.3,18.2,14.1,21.4,18.5c-12.9-4-27.4-13.9-101.8-14.2
			c-35.6,2.4-59.3,7.1-74.3,12.3l1.6,3.5l5.2,11.4l1,2.2C132.7,299.4,152.6,301.6,178.4,298z"/>
		<path class="st1" d="M347.1,338.8c-3.7-1.8-10.8-5.2-16.3-7.9c0.2,0.3,0.3,0.6,0.4,0.8c-25.1-9.9-49.2-15.9-77.3-16.2
			c-28.1-0.3-67.7,3.6-82.6,15.2c15.5,7.6,38,18.2,71,12.6c33-5.6,49.2-12.2,71-8.9c12.1,1.8,21.5,7.8,28,19.6h12.3
			C351.8,349,349.6,343.9,347.1,338.8z"/>
	</g>
	<g>
		<path class="st2" d="M210,236.5c-12.4-8-22.9-15.1-33.4-24.5c-11-9.9-18.3-18.6-20.7-21.6c-2.4-3-29.5-27.6-51.3-29.9
			c-3.5-0.3,7.8,21.4,27.1,31.7c19.3,10.3,39.6,19.3,43.6,24c-0.1,0.3-14-4.8-22-7.6c-8-2.8-25.4-10.4-62.5-8.9
			c-8.6,0.6-8,3.7-2.4,6.6s12.7,7.6,32,9.6c19.3,2,29.6-1.7,41.9,1.4c12.1,3.1,21.4,5.8,43.9,22.3c1.4,0.6,2.8,1.1,3.2,1.3
			C210,241.4,211.4,238.9,210,236.5z"/>
		<path class="st3" d="M239.4,258c-3.7-2.5-17.4-11.9-21.1-17.4c-4.4-6.4-6.6-10.1-9.1-18s-4.9-19.7-11.5-29.9
			c-6.6-10.2-19.1-26.4-30.3-31.1c0.4,8.9,2.6,20.7,12.6,34.5c9.2,12.6,26.6,35.5,31,40.6c0.1,0.2-0.1,0.4-0.2,0.3
			c-0.2-0.2-0.5-0.3-0.7-0.5c1.4,2.5,0,4.9-0.7,4.5c-0.4-0.2-1.8-0.8-3.2-1.3c0.1,0.1,0.2,0.1,0.2,0.2c0.2,0.1,0,0.4-0.1,0.3
			c-5.7-1.6-29.4-6.4-48.5-2.6c-20.7,4.1-26.4,6.9-34,15.4c2.4,1.3,16.5,4,25.8,2.9c9.3-1.1,19-2.5,29.9-6.8
			c11-4.3,21.6-5.7,29.3-3.9c5.2,1.2,20.6,10.3,31.7,18.4C240.5,262.2,240.3,260,239.4,258z"/>
		<path class="st4" d="M240.3,258.6c0,0-0.2-0.1-0.5-0.4C240.3,259,240.3,258.6,240.3,258.6z"/>
		<path class="st5" d="M277.4,293.6c-14.5-17.1-24.5-24.4-28-28.8c-3.5-4.4-8.2-9-7.8-18.5c0.5-9.5,7-19.9,4.6-35.1
			s-8.7-20.2-8.7-20.2s-7.3,8.9-7.3,24.6c0,15.7,4.6,32.5,7.3,38.3c1.2,2.6,1.9,3.8,2.3,4.4c0.3,0.2,0.5,0.4,0.5,0.4s0,0.3-0.5-0.4
			c-0.1-0.1-0.3-0.2-0.4-0.3c1,2,1.1,4.2,1.1,5.5c5.4,3.9,9.8,7.6,11.6,10c-7-2.1-14.8-7.5-55-7.7c-29.3,2-43.5,6.8-49.3,11.1
			c5.4,2.5,20.3,9.5,45.9,5.9c25.5-3.6,33.4-3.9,40-5.4c6.6-1.4,18.9-1.4,27.5,5.4c8,6.4,13.6,15.2,14.8,17.8c3,1.4,6.8,3.3,8.8,4.2
			C282.8,300.9,280.4,297.1,277.4,293.6z"/>
		<path class="st6" d="M284.7,304.8c-2-1-5.8-2.8-8.8-4.2c0.1,0.2,0.1,0.3,0.2,0.4c-13.6-5.4-26.6-8.6-41.8-8.7
			c-15.2-0.2-36.6,2-44.6,8.2c8.4,4.1,20.5,9.8,38.4,6.8c17.8-3,26.6-6.6,38.4-4.8c11.8,1.8,18.8,10.7,20.5,32.3l5.9,0.2
			C292.9,334.9,292.2,319.6,284.7,304.8z"/>
	</g>
	<path class="st7" d="M6.4,51.2l105.9,231.1l5.2,11.4l27.6,60.2H394L130.7,73c-13.1-13.9-31.3-21.8-50.3-21.8H6.4z"/>
</g>
</svg>
