<?xml version="1.0" encoding="utf-8"?>
<!-- Generator: Adobe Illustrator 26.0.1, SVG Export Plug-In . SVG Version: 6.00 Build 0)  -->
<svg version="1.1" id="Layer_1" xmlns="http://www.w3.org/2000/svg" xmlns:xlink="http://www.w3.org/1999/xlink" x="0px" y="0px"
	 viewBox="0 0 400 400" style="enable-background:new 0 0 400 400;" xml:space="preserve">
<style type="text/css">
	.st0{fill:#0093D0;}
	.st1{fill:#FFFFFF;}
	.st2{fill:#ED1B2F;}
	.st3{fill:none;stroke:#E0E0E0;stroke-miterlimit:10;}
	.st4{fill:none;stroke:#333333;stroke-width:3;stroke-miterlimit:10;}
</style>
<path class="st0" d="M400,348.1c-92.4-0.2-184.7,0.1-277.1,0l0,0c-19.5,0-39,0-58.5,0c-4.1-20.5-8.2-41.1-12.3-61.7l0,0
	c-0.2-0.9-0.4-1.8-0.6-2.7l0,0c-3.1-15.5-6.2-31-9.3-46.5c-2.5-12.2-4.9-24.5-7.3-36.7C24,146.5,13.2,92.4,2.4,38.4
	c-0.1-0.3-0.9-2.4,0.2-4.6c1-2,3-2.6,3.3-2.8h78.6c3.7,0.2,10.6,1.1,18,5.2c8,4.4,12.6,10.5,14.1,12.6c3.4,4.5,12.5,16.6,26.2,34.6
	c3.8,5,8,10.5,12.5,16.5c4.9,6.5,10.2,13.5,15.9,21c21.2,28.1,47.5,62.9,77.2,102.3c21.5,28.1,54.5,62.2,102.3,87.6
	c10.1,5.4,20.1,9.9,29.7,13.8c2.6,0.9,10,3.7,15.2,11.4c1.6,2.4,2.7,4.8,3.4,6.8C399.5,344.9,399.8,346.7,400,348.1z"/>
<g>
	<path class="st1" d="M154.3,184.5c-4.4-2.2-7.2-6.6-7.2-11.6c0-7,5.7-13,13-13c7,0,13,5.7,13,13c0,5-3.1,9.7-7.5,11.6v3.7
		c4,0.4,8.8,2,11.9,3.5c1.3-0.2,3.1-0.2,4.8-0.2c16.2,0,27.7,10.8,27.7,25.5c0,9.2-8.1,17.6-17.3,17.6s-17.6-9-15.8-18.2
		c0,0-0.9,3.1-0.9,7v46.5c-0.4,5.3-7.5,34.5-40.4,34.5s-40-29.2-40.4-34.5v-46.5c0-3.7-1.1-7-1.1-7c1.8,8.8-6.8,18.2-15.8,18.2
		c-9.2,0-17.3-8.3-17.3-17.6c0-14.7,11.4-25.5,27.7-25.5c1.8,0,3.5,0,4.8,0.2c2.9-1.5,7.9-3.3,11.9-3.5v-3.7
		c-4.4-2.2-7.2-6.6-7.2-11.6c0-7,5.7-13,13-13c7.2,0,13,5.7,13,13c0,5-3.1,9.7-7.5,11.6v4.8c1.1,0.4,2.2,0.7,3.3,1.3
		c2-4.4,5.9-7.7,10.5-9.2v-4c-4.4-2-7.5-6.6-7.5-11.6c0-7,5.7-13,13-13c7,0,13,5.7,13,13c0,5-3.1,9.7-7.2,11.6v4
		c4.6,1.5,8.6,4.8,10.5,9.2l3.3-1.3L154.3,184.5L154.3,184.5z"/>
	<path class="st2" d="M204.4,217.2c0-12.1-8.1-21.7-25-21.7c-11.2,0-24.4,9.4-24.4,33.4v35.6c4.8-3.3,11.6-6.1,15.1-6.1v-33.1
		c0-12.7,9.2-16.5,13.4-16.5c-2.4,2.2-4,4.8-4,8.6c0,6.8,5.5,12.3,12.3,12.3C198.9,229.5,204.2,224.4,204.4,217.2L204.4,217.2z"/>
	<path class="st2" d="M65.4,217.2c0-12.1,8.1-21.7,25-21.7c11.2,0,24.6,9.4,24.6,33.4v35.6c-4.8-3.3-11.6-6.1-15.1-6.1v-33.1
		c0-12.7-9.2-16.5-13.4-16.5c2.4,2.2,4,4.8,4,8.6c0,6.8-5.7,12.3-12.3,12.3C70.9,229.5,65.6,224.4,65.4,217.2L65.4,217.2z"/>
	<path class="st2" d="M135,299.3c28.1,0,34.5-23.5,35.3-29.6v-7.9c-8.8,2.2-16.5,6.8-21.7,13.8c-1.8-8.1-7-14.9-13.6-19.5
		c-6.6,4.4-11.6,11.4-13.6,19.5c-5.3-7-13-11.6-21.7-13.8v7.9C100.3,275.8,106.7,299.3,135,299.3L135,299.3z"/>
	<path class="st2" d="M137,174.8v9.9c4.8,0.7,9,4,10.5,7.9c-5.7,3.7-10.3,9.4-12.5,16.5c-2.2-7-6.8-12.7-12.5-16.5
		c1.8-4,5.7-7.2,10.5-7.9v-9.9c-4-0.9-7-4.6-7-8.8c0-5,4.2-9,9-9c5,0,9,4,9,9C144,170.2,140.9,173.9,137,174.8L137,174.8z"/>
	<path class="st2" d="M112.2,181.8v10.3c12.3,2.4,21.1,15.4,21.1,27.4v33.4c-5.7,3.3-11.4,10.1-13.2,15.6c-0.4-0.4-0.9-1.1-1.5-1.5
		v-43c0-13-7-26.1-19.3-30.3c0,0,4-1.8,9-1.8v-10.3c-4-0.9-7-4.4-7-8.8c0-5,4-9,9-9s9,4,9,9C119.2,177.2,116.1,180.8,112.2,181.8
		L112.2,181.8z"/>
	<path class="st2" d="M161.8,181.8v10.1c5,0,9,1.8,9,1.8c-12.5,4.4-19.3,17.6-19.3,30.3v43l-1.5,1.5c-1.8-5.7-7.5-12.5-13.2-15.6
		v-33.3c0-12.1,8.8-25,21.1-27.4v-10.6c-4-0.9-7-4.4-7-8.8c0-5,4-9,9-9s9,4,9,9C169,177.2,166,181,161.8,181.8L161.8,181.8z"/>
</g>
<path class="st3" d="M400,348.1c-92.4-0.2-184.7,0.1-277.1,0l0,0c-19.5,0-39,0-58.5,0c-4.1-20.5-8.2-41.1-12.3-61.7l0,0
	c-0.2-0.9-0.4-1.8-0.6-2.7l0,0c-3.1-15.5-6.2-31-9.3-46.5c-2.5-12.2-4.9-24.5-7.3-36.7C24,146.5,13.2,92.4,2.4,38.4
	c-0.1-0.3-0.9-2.4,0.2-4.6c1-2,3-2.6,3.3-2.8h78.6c3.7,0.2,10.6,1.1,18,5.2c8,4.4,12.6,10.5,14.1,12.6c3.4,4.5,12.5,16.6,26.2,34.6
	c3.8,5,8,10.5,12.5,16.5c4.9,6.5,10.2,13.5,15.9,21c21.2,28.1,47.5,62.9,77.2,102.3c21.5,28.1,54.5,62.2,102.3,87.6
	c10.1,5.4,20.1,9.9,29.7,13.8c2.6,0.9,10,3.7,15.2,11.4c1.6,2.4,2.7,4.8,3.4,6.8C399.5,344.9,399.8,346.7,400,348.1z"/>
<path class="st4" d="M398.7,346.9c-92.1-0.2-184,0.1-276.1,0H64.3c-4.1-20.4-8.2-40.9-12.3-61.5l0,0l-0.6-2.7l0,0l-9.3-46.4
	c-2.5-12.2-4.9-24.4-7.3-36.6C24.1,146,13.3,92.2,2.5,38.4c-0.6-1.5-0.5-3.1,0.2-4.6C3.5,32.5,4.6,31.5,6,31h78.3
	c6.3,0.4,12.4,2.1,17.9,5.2c5.5,3.1,10.3,7.4,14,12.5c3.4,4.5,12.5,16.5,26.1,34.5c3.8,5,8,10.5,12.5,16.4
	c4.9,6.5,10.2,13.4,15.8,20.9c21.1,28,47.3,62.7,76.9,101.9c21.4,28,54.3,62,101.9,87.3c9.6,5.1,19.5,9.7,29.6,13.8
	c6.1,2,11.5,6,15.1,11.4c1.4,2.1,2.5,4.4,3.4,6.8C398.2,343.7,398.5,345.5,398.7,346.9z"/>
</svg>
