<?xml version="1.0" encoding="utf-8"?>
<!-- Generator: Adobe Illustrator 27.0.0, SVG Export Plug-In . SVG Version: 6.00 Build 0)  -->
<svg version="1.1" id="Layer_1" xmlns="http://www.w3.org/2000/svg" xmlns:xlink="http://www.w3.org/1999/xlink" x="0px" y="0px"
	 viewBox="0 0 400 400" style="enable-background:new 0 0 400 400;" xml:space="preserve">
<style type="text/css">
	.st0{fill:none;stroke:#212A61;stroke-width:0.663;stroke-miterlimit:10;}
	.st1{fill:#EEA93B;}
	.st2{fill:#FFFFFF;}
</style>
<g id="DE">
	<path class="st0" d="M4,47L111,280.6l5.3,11.5l27.9,60.9h251.7L129.6,69C116.4,55,98,47,78.7,47H4z"/>
	<polygon class="st1" points="132.1,71.7 133,328.6 144.2,353 201.7,353 202.6,146.9 	"/>
	<path class="st2" d="M129.6,69C116.4,55,98,47,78.7,47h-9.1l0.8,145l40.6,88.6l5.3,11.5l16.7,36.4l-0.9-256.9L129.6,69z"/>
	<polygon class="st1" points="4,47 70.4,192 69.6,47 	"/>
	<polygon class="st1" points="267.6,216.3 269.3,353 334.1,353 335.5,288.6 	"/>
	<polygon class="st2" points="335.5,288.6 334.1,353 395.9,353 	"/>
	<polygon class="st2" points="202.6,146.9 201.7,353 269.3,353 267.6,216.3 	"/>
	<g>
		<path d="M74.7,118c0.5-14.4,13.1-26,27.7-25.5c14.7,0.5,26.3,12.9,26,27.3c-0.4,14.9-12.6,26.8-27.5,26.4
			C85.5,145.7,74.1,133.3,74.7,118z M101.5,143.7c13.6,0,24.3-10.9,24.3-24.6c0-13.2-11-24.1-24.4-24.1c-13.5,0-24.4,10.9-24.4,24.5
			C77.1,132.8,88.1,143.7,101.5,143.7z"/>
		<path d="M122.3,111.5c-4,0-7.8,0-11.7,0c-0.3,0-0.8-0.1-0.7,0.5c0.1,0.6-0.5,1.5,0.5,1.9c0.5,0.2,1.1,0.3,2,0.6
			c-2.6,1.7-4.9,3.2-7.3,4.7c0.4-0.9,1.1-1.6,1.6-2.5c0.3-0.7,0.7-1.3,0.7-2.1c0.1-1.6-0.7-2.8-2.3-3.1c-0.3-0.1-0.6-0.1-1-0.1
			c-7.6,0-15.3,0-22.9,0c-0.2,0-0.3,0-0.5,0c-0.1,0.3,0.1,0.4,0.3,0.5c4.2,3.3,8.4,6.6,12.7,9.9c0.7,0.5,2,0,2.2-0.8
			c0.1-0.4-0.2-0.5-0.4-0.7c-1.7-1.6-3.4-3.2-5.1-4.8c-0.3-0.3-0.7-0.5-1-0.8c0.3-0.5,0.6-0.3,0.9-0.3c3.9,0,7.7,0,11.6,0
			c1.4,0,1.8,0.5,1.2,1.8c-0.8,1.7-2,3.1-3.3,4.4c-3.8,4-8.2,7.4-13,10.4c-0.8,0.5-1.2,1.1-1.1,2.1c0.1,0.7-0.3,1.8,0.2,2.1
			c0.5,0.3,1.2-0.6,1.9-1c11.3-7.3,22.6-14.7,33.9-22C121.8,112,122.1,111.9,122.3,111.5z"/>
	</g>
</g>
</svg>
