<?xml version="1.0" encoding="utf-8"?>
<!-- Generator: Adobe Illustrator 27.0.0, SVG Export Plug-In . SVG Version: 6.00 Build 0)  -->
<svg version="1.1" id="Layer_1" xmlns="http://www.w3.org/2000/svg" xmlns:xlink="http://www.w3.org/1999/xlink" x="0px" y="0px"
	 viewBox="0 0 400 400" style="enable-background:new 0 0 400 400;" xml:space="preserve">
<style type="text/css">
	.st0{fill:#EA1F3D;}
	.st1{fill:#1D417A;}
	.st2{fill:#9B1B34;}
</style>
<g id="DL">
	<polyline class="st0" points="142.5,227.7 228,172 187.3,124.6 28.5,124.6 38.8,166.4 141.9,228 142.5,227.7 	"/>
	<path class="st1" d="M131.5,59.5c-14.4-15.4-23.3-24.1-44.4-24.1l-81-1l22.3,90.2h158.8L131.5,59.5z"/>
	<polyline class="st2" points="142.5,228.4 157,365.6 194,365.6 262.7,212.6 228,172 142.5,227.7 142.5,228.4 	"/>
	<polygon class="st0" points="49.8,210.5 66.3,277.3 109.7,249.1 	"/>
	<polygon class="st1" points="262.7,212.6 194,365.6 393.8,365.6 	"/>
	<polygon class="st2" points="109.7,249.1 66.3,277.3 88.1,365.6 128.2,365.6 110,249.3 	"/>
	<polygon class="st1" points="142.5,227.7 157,365.6 128.2,365.6 110,249.3 109.7,249.1 49.8,210.5 38.8,166.4 	"/>
</g>
</svg>
