<?xml version="1.0" encoding="utf-8"?>
<!-- Generator: Adobe Illustrator 27.0.0, SVG Export Plug-In . SVG Version: 6.00 Build 0)  -->
<svg version="1.1" id="Layer_1" xmlns="http://www.w3.org/2000/svg" xmlns:xlink="http://www.w3.org/1999/xlink" x="0px" y="0px"
	 viewBox="0 0 400 400" style="enable-background:new 0 0 400 400;" xml:space="preserve">
<style type="text/css">
	.st0{fill:#016674;}
	.st1{fill:#3BAF4D;}
	.st2{fill:#80C640;}
</style>
<g id="EI">
	<path class="st0" d="M9,50.8l104.4,227.8l5.1,11.2l27.2,59.3H391L131.4,72.3c-12.9-13.7-30.8-21.5-49.6-21.5H9z"/>
	<g>
		<g>
			<path class="st1" d="M140.4,180.7c1.5,8,7,18,18.1,28c12,10.8,24.2,16.3,30.9,18.8C157.4,204.4,145.1,188.8,140.4,180.7z"/>
			<path class="st2" d="M181.4,165.4c-7.9-0.4-9.7,5.2-10.2,7.9c-0.1,0.6-0.8,0.9-1.3,0.6c-4.8-3.2-22.6-14.5-28.1-5.1
				c-1.7,3-2.3,7.1-1.4,11.9c4.7,8.1,17,23.8,49,46.8c3.3,1.2,5.2,1.6,5.2,1.6s11-8.6,11.9-28.5S191.7,166,181.4,165.4z"/>
		</g>
		<path class="st1" d="M229.2,254.2c-11.2-7.5-18.2-12.5-22-15.3c6.9,8.8,24.1,28.3,46.9,23.4c0.6-0.1,1.2-0.4,1.7-0.6
			C250.5,262.2,240.6,261.7,229.2,254.2z"/>
		<path class="st2" d="M260,256.9c2-5.3,1.2-12.7-3.5-16.6c-3.5-2.9-5.5-3.9-6.6-4.6c-0.6-0.4-0.8-1.2-0.5-1.9
			c1.7-3.1,7.1-15.2-6.9-24.2c-16.1-10.4-35.3,4.9-38.2,25.6c0.5,0.6,1.5,1.9,2.9,3.6c3.8,2.8,10.8,7.8,22,15.3
			c11.3,7.6,21.3,8,26.6,7.5C257.7,260.7,259.2,258.9,260,256.9z"/>
		<g>
			<g>
				<path class="st1" d="M188.4,237.5c0,0-1.7,5.9,1.9,10.6c25.3,18.3,24.2,52,24.8,55.9c0.2,1.3,1.3,2,2.8,2.2
					c-2.5-27.9-7.6-44.3-11.4-53.2C197.6,242.3,188.4,237.5,188.4,237.5z"/>
				<path class="st2" d="M215.1,266.1c-2.6-5.1-5.6-9.5-8.7-13.1c3.8,9,9,25.3,11.4,53.2c2.8,0.2,6.9-1.6,8.8-5.1
					C229.5,295.8,225.2,286.1,215.1,266.1z"/>
			</g>
			<g>
				<path class="st1" d="M122.8,255c4.3,5.4,10.6,9.9,18.9,8.7c1.2-1.1,1.2-2.2,1.2-2.2S131.3,262.3,122.8,255z"/>
				<path class="st2" d="M191.9,242.6c-0.9-2.8-2.8-5.1-5.4-6.5c-8.1-4.6-27.5-14.5-45.4-13.9c-22.2,0.7-26.3,16-23.5,23.6
					c1,2.8,2.8,6.2,5.2,9.2c6.8,5.8,15.6,6.5,18.8,6.5c0.6,0,1.1,0.6,0.9,1.2c-0.1,0.5-8.6,11.5,1.4,23.7
					c10,12.3,33.1,10.5,42.2-3.9C194,270.1,195.3,253.1,191.9,242.6z"/>
			</g>
		</g>
	</g>
</g>
</svg>
