<?xml version="1.0" encoding="utf-8"?>
<!-- Generator: Adobe Illustrator 26.0.1, SVG Export Plug-In . SVG Version: 6.00 Build 0)  -->
<svg version="1.1" id="Layer_1" xmlns="http://www.w3.org/2000/svg" xmlns:xlink="http://www.w3.org/1999/xlink" x="0px" y="0px"
	 viewBox="0 0 400 400" style="enable-background:new 0 0 400 400;" xml:space="preserve">
<style type="text/css">
	.st0{fill:#FFFFFF;stroke:#E0E0E0;stroke-miterlimit:10;}
	.st1{fill:#007960;}
	.st2{fill:#FF0000;}
	.st3{fill:none;stroke:#E0E0E0;stroke-miterlimit:10;}
	.st4{fill:none;stroke:#333333;stroke-width:3;stroke-miterlimit:10;}
</style>
<path class="st0" d="M400,348.1c-92.4-0.2-184.7,0.1-277.1,0l0,0c-19.5,0-39,0-58.5,0c-4.1-20.5-8.2-41.1-12.3-61.7l0,0
	c-0.2-0.9-0.4-1.8-0.6-2.7l0,0c-3.1-15.5-6.2-31-9.3-46.5c-2.5-12.2-4.9-24.5-7.3-36.7C24,146.5,13.2,92.4,2.4,38.4
	c-0.1-0.3-0.9-2.4,0.2-4.6c1-2,3-2.6,3.3-2.8h78.6c3.7,0.2,10.6,1.1,18,5.2c8,4.4,12.6,10.5,14.1,12.6c3.4,4.5,12.5,16.6,26.2,34.6
	c3.8,5,8,10.5,12.5,16.5c4.9,6.5,10.2,13.5,15.9,21c21.2,28.1,47.5,62.9,77.2,102.3c21.5,28.1,54.5,62.2,102.3,87.6
	c10.1,5.4,20.1,9.9,29.7,13.8c2.6,0.9,10,3.7,15.2,11.4c1.6,2.4,2.7,4.8,3.4,6.8C399.5,344.9,399.8,346.7,400,348.1z"/>
<g>
	<path class="st1" d="M177.8,231.2c-0.5,0.6-3.3-0.7-13.2-8.6c-12.5-3.3-28.8-8.7-46.9-17.7c-21.2-10.6-35.6-21.6-44.7-28.5
		c-14.3-10.9-33.9-28-53.7-52.8C14,96.7,8.6,69.8,3.3,42.8c11.1,17.7,28.1,40.7,53.4,63c19.9,17.5,39.3,29.8,55.2,38.2
		c0.1,0.2,0.2,0.4,0.4,0.5c0,0,0.2,0.3,0.4,0.5C113.2,146,181.1,227.8,177.8,231.2z"/>
	<path d="M239,348.1c-13.5,0-26.9,0-40.3,0c-0.1,0-0.1-0.1-0.2-0.1c-48.4-25.7-107.2-28.3-147.9-68.8C44.7,250,38.9,220.8,33,191.5
		c17.7,21.5,35.1,34.2,47.4,41.6c27.5,16.8,61.7,27.2,69.5,29.6c5.2,1.6,19.3,5.7,37.6,13.7c6.6,2.9,11.9,5.5,15.4,7.2
		c21,34.4,29.5,49,30.5,51.7c0,0,0,0,0,0.1c1,2.5,2.2,5.1,3.3,7.7C237.5,344.9,238.2,346.5,239,348.1L239,348.1z"/>
	<path class="st2" d="M318.9,348.1c-9.5,0-37.6,0-47.1,0c-4.9,0-28,0-32.8,0c-42.4-68-84.7-136.1-127.1-204.1
		c39.8,21.7,66.9,45.1,84.5,62.8c26,26.2,36.5,45.2,78.4,93.2C292.9,320.7,308.4,337.2,318.9,348.1z"/>
</g>
<path class="st3" d="M400,348.1c-92.4-0.2-184.7,0.1-277.1,0l0,0c-19.5,0-39,0-58.5,0c-4.1-20.5-8.2-41.1-12.3-61.7l0,0
	c-0.2-0.9-0.4-1.8-0.6-2.7l0,0c-3.1-15.5-6.2-31-9.3-46.5c-2.5-12.2-4.9-24.5-7.3-36.7C24,146.5,13.2,92.4,2.4,38.4
	c-0.1-0.3-0.9-2.4,0.2-4.6c1-2,3-2.6,3.3-2.8h78.6c3.7,0.2,10.6,1.1,18,5.2c8,4.4,12.6,10.5,14.1,12.6c3.4,4.5,12.5,16.6,26.2,34.6
	c3.8,5,8,10.5,12.5,16.5c4.9,6.5,10.2,13.5,15.9,21c21.2,28.1,47.5,62.9,77.2,102.3c21.5,28.1,54.5,62.2,102.3,87.6
	c10.1,5.4,20.1,9.9,29.7,13.8c2.6,0.9,10,3.7,15.2,11.4c1.6,2.4,2.7,4.8,3.4,6.8C399.5,344.9,399.8,346.7,400,348.1z"/>
<path class="st4" d="M398.7,346.9c-92.1-0.2-184,0.1-276.1,0H64.3c-4.1-20.4-8.2-40.9-12.3-61.5l0,0l-0.6-2.7l0,0l-9.3-46.4
	c-2.5-12.2-4.9-24.4-7.3-36.6C24.1,146,13.3,92.2,2.5,38.4c-0.6-1.5-0.5-3.1,0.2-4.6C3.5,32.5,4.6,31.5,6,31h78.3
	c6.3,0.4,12.4,2.1,17.9,5.2c5.5,3.1,10.3,7.4,14,12.5c3.4,4.5,12.5,16.5,26.1,34.5c3.8,5,8,10.5,12.5,16.4
	c4.9,6.5,10.2,13.4,15.8,20.9c21.1,28,47.3,62.7,76.9,101.9c21.4,28,54.3,62,101.9,87.3c9.6,5.1,19.5,9.7,29.6,13.8
	c6.1,2,11.5,6,15.1,11.4c1.4,2.1,2.5,4.4,3.4,6.8C398.2,343.7,398.5,345.5,398.7,346.9z"/>
</svg>
