<?xml version="1.0" encoding="utf-8"?>
<!-- Generator: Adobe Illustrator 27.0.0, SVG Export Plug-In . SVG Version: 6.00 Build 0)  -->
<svg version="1.1" id="Layer_1" xmlns="http://www.w3.org/2000/svg" xmlns:xlink="http://www.w3.org/1999/xlink" x="0px" y="0px"
	 viewBox="0 0 400 400" style="enable-background:new 0 0 400 400;" xml:space="preserve">
<style type="text/css">
	.st0{fill:none;}
	.st1{fill:#FFCC00;}
	.st2{fill-rule:evenodd;clip-rule:evenodd;fill:#D40511;}
</style>
<rect x="2.5" y="45.4" class="st0" width="395" height="308.4"/>
<path class="st1" d="M2.5,45.4h75.3c19.4,0,38,8,51.3,22.2l268.4,286.2H143.9L2.5,45.4z"/>
<g>
	<path class="st2" d="M153.3,252.2l-6,8.4h33.3c0.4,0.1,1.1,0,1.1,0.6v0.3c-1.1,2-2.8,3.9-4,5.8v0.2l-0.1,0.1l0.1,0.1
		c0,0.6,1.4,0.6,1.8,0.6H193l4-5.6l0.2-0.3c1.1-1.7,0.9-4-0.1-5.7l-0.2-0.5l-0.3-0.4c-1.8-2.7-5.2-3.6-8.3-3.6L153.3,252.2"/>
	<path class="st2" d="M144.8,279.5l12.2-16.8h15.4c1.4,0.1,1.3,0.7,0.5,1.7l-3.1,4.3l-0.1,0.2l-0.2,0.3l-0.1,0.1v0.5l0.1,0.1
		l0.1,0.1l0.2,0.1l0.3,0.1l0.3,0.1h0.1l0.2,0.1h20.7l-0.3,0.5c-3.8,5.2-10.1,8.8-16.6,8.6L144.8,279.5 M214.5,270.4l-6.6,9.1h-17.4
		l6.5-9.1H214.5 M241.2,268.2h-42.6l11.7-16.1h17.3l-6.7,9.3h7.7l6.7-9.3h17.5L241.2,268.2z M239.7,270.4l-6.6,9.1h-17.4l6.6-9.1
		H239.7z M120,273.9h25.6l-1.4,2H120V273.9z M120,270.4h28.3l-1.4,1.9H120V270.4z M120,277.5h23.1l-1.4,1.9H120V277.5z M309.6,275.9
		h-25.5l1.4-2h24.1V275.9z M309.6,279.5h-28.1l1.5-1.9h26.6V279.5z M288.1,270.4h21.5v1.9h-22.9L288.1,270.4z M277,252.1l-11.7,16.1
		h-18.4l11.7-16.1H277z M245.4,270.4l-1.9,2.6c-3.3,4.7,3.2,6.8,6.9,6.5h27.9l6.6-9.1H245.4"/>
</g>
</svg>
