<?xml version="1.0" encoding="utf-8"?>
<!-- Generator: Adobe Illustrator 27.0.0, SVG Export Plug-In . SVG Version: 6.00 Build 0)  -->
<svg version="1.1" id="Layer_1" xmlns="http://www.w3.org/2000/svg" xmlns:xlink="http://www.w3.org/1999/xlink" x="0px" y="0px"
	 viewBox="0 0 400 400" style="enable-background:new 0 0 400 400;" xml:space="preserve">
<style type="text/css">
	.st0{fill:#FFFFFF;stroke:#E2E2E2;stroke-width:1.0463;stroke-miterlimit:10;}
	.st1{fill:#569044;}
	.st2{fill:#EFD11B;}
	.st3{fill:#C02536;}
</style>
<g id="ET">
	<path class="st0" d="M7.3,49.5l105.3,229.8l5.2,11.3l27.4,59.9h247.5L130.8,71.2c-13-13.8-31.1-21.7-50.1-21.7
		C80.7,49.5,7.3,49.5,7.3,49.5z"/>
	<g>
		<path class="st1" d="M368.5,332.9L368.5,332.9c-0.5,0.4-1.1,0.5-1.6,0.2c0,0-20.4-7.2-44.8-17.7C294.8,303.6,262,287.7,242,278
			c-41.4-20-133-74.5-133-74.5c-38.2-21.5-53-61.3-44.5-96.3l0,0C67,98,72.9,95,80.3,100.9c1.7,1.3,72.5,71.4,134.5,122.1
			c28.2,23,61.2,48.1,89.5,67.4c35.9,24.4,64.1,40.2,64.1,40.2C369.2,331.2,369.2,332.3,368.5,332.9z"/>
		<path class="st2" d="M369.1,339.3L369.1,339.3c-0.3,0.4-0.8,0.5-1.3,0.4c0,0-17.2-2.1-38.2-6.1c-23.5-4.5-51.8-11.1-69.2-15.2
			c-35.8-8.4-106.5-32.2-106.5-32.2c-21.4-5.3-59.1-42.1-57.9-69.8l0,0c0.6-7.3,7.2-3,13.9,0.3c1.5,0.7,64.7,35.8,121.6,63.8
			c25.9,12.8,56.2,25.5,81.6,35.4c32.2,12.5,55.6,21.6,55.6,21.6C369.4,337.8,369.6,338.7,369.1,339.3z"/>
		<path class="st3" d="M348.1,342.3L348.1,342.3c-0.1,0.3-0.4,0.5-0.8,0.5c0,0-12.3,1.4-27.5,2c-17,0.7-37.6,2.9-50.4,3
			c-30.7,0.2-57.2,2.5-75.6,0.2c-29.2-3.7-53-28-59.2-48.9l0,0c-1.1-5.5,1.9-6.7,7.3-5.4c1.2,0.3,55.6,16.5,100.6,26.7
			c18,4.1,37.2,7.9,62.1,13c24.5,5,43,7.8,43,7.8C348,341.2,348.3,341.8,348.1,342.3z"/>
	</g>
</g>
</svg>
