<?xml version="1.0" encoding="utf-8"?>
<!-- Generator: Adobe Illustrator 26.0.1, SVG Export Plug-In . SVG Version: 6.00 Build 0)  -->
<svg version="1.1" id="Layer_1" xmlns="http://www.w3.org/2000/svg" xmlns:xlink="http://www.w3.org/1999/xlink" x="0px" y="0px"
	 viewBox="0 0 400 400" style="enable-background:new 0 0 400 400;" xml:space="preserve">
<style type="text/css">
	.st0{fill:#FFFFFF;}
	.st1{fill:#D0871E;}
	.st2{fill:#D7D0C0;}
	.st3{fill:#B0AA9C;}
	.st4{fill:#E9E8E6;}
	.st5{fill:#B3B0A1;}
	.st6{fill:#321E29;}
	.st7{fill:#875A31;}
	.st8{fill:#100059;}
	.st9{fill:none;stroke:#E0E0E0;stroke-width:0.9987;stroke-miterlimit:10;}
	.st10{fill:none;stroke:#333333;stroke-width:3;stroke-miterlimit:10;}
</style>
<path class="st0" d="M189.4,326.6L189.4,326.6L189.4,326.6l7.2,1L338.3,348c-0.3,0-0.6,0-0.8,0l0,0c-68.5,0-136.9,0.1-205.4,0.1l0,0
	c-3.1,0-6.3,0-9.4,0H64.2c-2.2-11.1-4.4-22.2-6.6-33.3c0-0.1,0-0.1,0-0.2c-1.9-9.4-3.7-18.8-5.6-28.2c-0.2-0.9-0.4-1.8-0.6-2.7
	c0-0.1-0.1-0.3-0.1-0.4c-0.1-0.3-0.1-0.7-0.2-1c-1-4.8-1.9-9.7-2.9-14.5c-2-10.2-4.1-20.4-6.1-30.6c-0.1-0.3-0.1-0.6-0.2-1l0,0
	c-2.4-11.9-4.8-23.8-7.1-35.7c-0.7-3.4-1.4-6.8-2.1-10.3c-2.9-14.6-5.9-29.2-8.8-43.8c-7.2-36-14.4-72.1-21.6-108
	c-0.1-0.2-0.5-1.3-0.3-2.7l0,0v-0.1c0-0.6,0.2-1.2,0.5-1.8c0.8-1.7,2.3-2.4,3-2.7c0.2,0,0.3-0.1,0.4-0.1h78.4
	c3.7,0.2,10.6,1.1,18,5.2c8,4.4,12.6,10.5,14.1,12.6c3.4,4.5,12.5,16.6,26.1,34.6c0.6,0.8,1.3,1.7,1.9,2.5c3.3,4.3,6.8,9,10.5,14
	c4.9,6.5,10.2,13.5,15.9,21c4.9,6.5,10.1,13.4,15.5,20.6l0,0c1.3,1.8,2.7,3.5,4,5.3c0,0,0,0,0.1,0.1c4.8,6.4,9.9,13.1,15.1,20l0,0
	c11.2,14.8,23.2,30.8,35.8,47.6c1.2,1.6,2.4,3.2,3.7,4.9l0,0c0.9,1.2,1.9,2.5,2.8,3.7c10.2,13.4,23.1,28.2,38.9,42.7l0,0
	c17.3,15.9,38.2,31.6,63.1,44.8c10.1,5.4,20,9.9,29.6,13.8c2.6,0.9,10,3.7,15.2,11.4c1.6,2.4,2.7,4.8,3.4,6.8c0.5,2.1,0.8,3.9,1,5.3
	c-16.6,0-33.2,0-49.8-0.1c-20.5-27.1-41.1-54.2-61.6-81.3c0.2,0.5,0.5,0.9,0.7,1.4l-0.2,0.1l-6.8,4L189.4,326.6z"/>
<g>
	<path class="st1" d="M189.4,326.7l-0.6,0.2l-1.7,0.6l-55,20.5l0,0c-3.1,0-6.3,0-9.4,0H64.2c-2.2-11.1-4.4-22.2-6.6-33.3
		c0-0.1,0-0.1,0-0.2l129.1,11.9l1.4,0.1l0,0L189.4,326.7z"/>
	<path class="st2" d="M79.5,267.8L79.5,267.8l-0.9,0.5l0,0l-27.2,15c-0.1-0.3-0.1-0.7-0.2-1c-1-4.8-1.9-9.7-2.9-14.5h31.1H79.5z"/>
	<path class="st3" d="M188.4,326.7l-1.6-0.1L57.6,314.8c0-0.1,0-0.1,0-0.2c-1.9-9.4-3.7-18.8-5.6-28.2c-0.2-0.9-0.4-1.8-0.6-2.7
		c0-0.1-0.1-0.3-0.1-0.4c-0.1-0.3-0.1-0.7-0.2-1l27.4-14l0,0l0.8-0.4l107.2,57.9l1.7,0.9l0,0L188.4,326.7z"/>
	<path class="st4" d="M189.7,327.5c-6.8-22-13.6-44.1-20.3-66.1c-30.1,2.1-60.1,4.2-90.2,6.3L189.7,327.5z"/>
	<path class="st2" d="M288.1,267.8l-99.4,65c-6.5-23.8-12.9-47.7-19.4-71.5C208.9,263.5,248.5,265.6,288.1,267.8z"/>
	<path class="st5" d="M349.8,348c-2.2,0.2-4.6,0.3-7,0.3c-1.9,0-3.7,0-5.5,0l0,0L195.6,328l-7.2-1l0,0l0,0l92-54.4l6.8-4l0.2-0.1
		c0.2-0.3,0.6-0.5,0.9-0.4c0.4,0,0.6,0.3,0.6,0.4C309.2,294.9,329.5,321.5,349.8,348z"/>
	<path class="st6" d="M288.4,268.2h-0.3l0,0h-0.6l-7.1-0.4l-111-6.5h-0.7h-0.1h-0.1l0,0h0.1l74.1-40.5l0.1-0.1l2.1-1.1
		c0.9,1.2,1.9,2.5,2.8,3.7c10.2,13.4,23.1,28.2,38.9,42.7l0,0l1.3,1.8l0,0l0.2,0.3L288.4,268.2z"/>
	<path class="st5" d="M245,219.5l-2.1,1.2l-0.1,0.1l-73.4,40.6l-0.7,0.4l0,0l-0.1-0.5l0,0L158.2,199c-0.1-0.6-0.2-0.9-0.2-0.9
		l83.3,16.5C242.5,216.2,243.8,217.8,245,219.5z"/>
	<path class="st2" d="M79.5,267.8c0,0,88.4-6.5,89.2-6c0.7,0.5-10.6-63.6-10.6-63.6L79.5,267.8z"/>
	<path class="st7" d="M79.5,267.8l-10-56.3l88.4-13.4L79.5,267.8z"/>
	<path class="st1" d="M79.3,267.7L79.3,267.7H48.2c-2-10.2-4.1-20.4-6.1-30.6c-0.1-0.3-0.1-0.6-0.2-1l0,0l27.4-24.8v0.1l10,56.1
		V267.7z"/>
	<path class="st7" d="M69.5,211.4L69.5,211.4L42,236.2l0,0c-2.4-11.9-4.8-23.8-7.1-35.7c-0.7-3.4-1.4-6.8-2.1-10.3l8.1,3.8
		L69.5,211.4z"/>
	<path class="st6" d="M98.5,117.2L40.9,194l-8.1-3.8c-2.9-14.6-5.9-29.2-8.8-43.8L98.5,117.2L98.5,117.2z"/>
	<path class="st5" d="M40.9,194l28.5,17.4l67.4-41.8l-38.3-52.5L40.9,194z"/>
	<path class="st6" d="M136.8,169.7l21.1,28.4l-88.4,13.4L136.8,169.7z"/>
	<path class="st4" d="M241.3,214.6L158,198.1l22.6-14.8l24.9-16.3l0,0C216.7,181.8,228.7,197.8,241.3,214.6z"/>
	<path class="st5" d="M205.5,167l-24.9,16.2L157.9,198l-21.1-28.4l53.6-22.8C195.2,153.4,200.3,160,205.5,167L205.5,167z"/>
	<path class="st4" d="M190.3,146.9l-53.5,22.8v-0.1l-38.3-52.4h0.1l87.7,24.2l0,0C187.7,143.3,189,145.1,190.3,146.9z"/>
	<path class="st6" d="M186.3,141.5l-87.7-24.2h-0.1l0.1-0.1l45.8-31.3c3.3,4.3,6.8,9,10.5,14c4.9,6.5,10.2,13.5,15.9,21
		C175.7,127.4,180.9,134.3,186.3,141.5z"/>
	<path class="st1" d="M98.5,117.2L98.5,117.2L24,146.4c-7.2-36-14.4-72.1-21.6-108c-0.1-0.2-0.5-1.3-0.3-2.7L98.5,117.2L98.5,117.2z
		"/>
	<path class="st7" d="M144.4,85.9l-45.8,31.2L2.1,35.6c0-0.6,0.2-1.2,0.5-1.8c0.8-1.7,2.3-2.4,3-2.7c2.8,0,6.1-0.1,9.8-0.2h68.9
		c3.7,0.2,10.6,1.1,18,5.2c8,4.4,12.6,10.5,14.1,12.6c3.4,4.5,12.5,16.6,26.1,34.6C143.1,84.2,143.7,85.1,144.4,85.9z"/>
	<path class="st8" d="M337.4,348c-68.5,0-136.9,0.1-205.4,0.1l55-20.5l1.7-0.6l0.6-0.2h0.1l7,1l0,0L337.4,348z"/>
</g>
<path class="st9" d="M399,348.1c-16.6,0-33.2,0-49.8-0.1c-3.6,0-7.3,0-10.9,0l0,0c-0.3,0-0.6,0-0.8,0l0,0
	c-68.5,0-136.9,0.1-205.4,0.1l0,0c-3.1,0-6.3,0-9.4,0H64.2c-2.2-11.1-4.4-22.2-6.6-33.3c0-0.1,0-0.1,0-0.2
	c-1.9-9.4-3.7-18.8-5.6-28.2c-0.2-0.9-0.4-1.8-0.6-2.7c0-0.1-0.1-0.3-0.1-0.4c-0.1-0.3-0.1-0.7-0.2-1c-1-4.8-1.9-9.7-2.9-14.5
	c-2-10.2-4.1-20.4-6.1-30.6c-0.1-0.3-0.1-0.6-0.2-1l0,0c-2.4-11.9-4.8-23.8-7.1-35.7c-0.7-3.4-1.4-6.8-2.1-10.3
	c-2.9-14.6-5.9-29.2-8.8-43.8c-7.2-36-14.4-72.1-21.6-108c-0.1-0.2-0.5-1.3-0.3-2.7l0,0v-0.1c0-0.6,0.2-1.2,0.5-1.8
	c0.8-1.7,2.3-2.4,3-2.7c0.2,0,0.3-0.1,0.4-0.1h78.4c3.7,0.2,10.6,1.1,18,5.2c8,4.4,12.6,10.5,14.1,12.6c3.4,4.5,12.5,16.6,26.1,34.6
	c0.6,0.8,1.3,1.7,1.9,2.5c3.3,4.3,6.8,9,10.5,14c4.9,6.5,10.2,13.5,15.9,21c4.9,6.5,10.1,13.4,15.5,20.6l0,0c1.3,1.8,2.7,3.5,4,5.3
	c0,0,0,0,0.1,0.1c4.8,6.4,9.9,13.1,15.1,20l0,0c11.2,14.8,23.2,30.8,35.8,47.6c1.2,1.6,2.4,3.2,3.7,4.9l0,0c0.9,1.2,1.9,2.5,2.8,3.7
	c10.2,13.4,23.1,28.2,38.9,42.7l0,0c17.3,15.9,38.2,31.6,63.1,44.8c10.1,5.4,20,9.9,29.6,13.8c2.6,0.9,10,3.7,15.2,11.4
	c1.6,2.4,2.7,4.8,3.4,6.8C398.5,344.9,398.8,346.7,399,348.1z"/>
<path class="st9" d="M399,348.1c-16.6,0-33.2,0-49.8-0.1c-3.6,0-7.3,0-10.9,0l0,0c-0.3,0-0.6,0-0.8,0l0,0
	c-68.5,0-136.9,0.1-205.4,0.1l0,0c-3.1,0-6.3,0-9.4,0H64.2c-2.2-11.1-4.4-22.2-6.6-33.3c0-0.1,0-0.1,0-0.2
	c-1.9-9.4-3.7-18.8-5.6-28.2c-0.2-0.9-0.4-1.8-0.6-2.7c0-0.1-0.1-0.3-0.1-0.4c-0.1-0.3-0.1-0.7-0.2-1c-1-4.8-1.9-9.7-2.9-14.5
	c-2-10.2-4.1-20.4-6.1-30.6c-0.1-0.3-0.1-0.6-0.2-1l0,0c-2.4-11.9-4.8-23.8-7.1-35.7c-0.7-3.4-1.4-6.8-2.1-10.3
	c-2.9-14.6-5.9-29.2-8.8-43.8c-7.2-36-14.4-72.1-21.6-108c-0.1-0.2-0.5-1.3-0.3-2.7l0,0v-0.1c0-0.6,0.2-1.2,0.5-1.8
	c0.8-1.7,2.3-2.4,3-2.7c0.2,0,0.3-0.1,0.4-0.1h78.4c3.7,0.2,10.6,1.1,18,5.2c8,4.4,12.6,10.5,14.1,12.6c3.4,4.5,12.5,16.6,26.1,34.6
	c0.6,0.8,1.3,1.7,1.9,2.5c3.3,4.3,6.8,9,10.5,14c4.9,6.5,10.2,13.5,15.9,21c4.9,6.5,10.1,13.4,15.5,20.6l0,0c1.3,1.8,2.7,3.5,4,5.3
	c0,0,0,0,0.1,0.1c4.8,6.4,9.9,13.1,15.1,20l0,0c11.2,14.8,23.2,30.8,35.8,47.6c1.2,1.6,2.4,3.2,3.7,4.9l0,0c0.9,1.2,1.9,2.5,2.8,3.7
	c10.2,13.4,23.1,28.2,38.9,42.7l0,0c17.3,15.9,38.2,31.6,63.1,44.8c10.1,5.4,20,9.9,29.6,13.8c2.6,0.9,10,3.7,15.2,11.4
	c1.6,2.4,2.7,4.8,3.4,6.8C398.5,344.9,398.8,346.7,399,348.1z"/>
<path class="st10" d="M398.7,346.9c-92.1-0.2-184,0.1-276.1,0H64.3c-4.1-20.4-8.2-40.9-12.3-61.5l0,0l-0.6-2.7l0,0l-9.3-46.4
	c-2.5-12.2-4.9-24.4-7.3-36.6C24.1,146,13.3,92.2,2.5,38.4c-0.6-1.5-0.5-3.1,0.2-4.6C3.5,32.5,4.6,31.5,6,31h78.3
	c6.3,0.4,12.4,2.1,17.9,5.2c5.5,3.1,10.3,7.4,14,12.5c3.4,4.5,12.5,16.5,26.1,34.5c3.8,5,8,10.5,12.5,16.4
	c4.9,6.5,10.2,13.4,15.8,20.9c21.1,28,47.3,62.7,76.9,101.9c21.4,28,54.3,62,101.9,87.3c9.6,5.1,19.5,9.7,29.6,13.8
	c6.1,2,11.5,6,15.1,11.4c1.4,2.1,2.5,4.4,3.4,6.8C398.2,343.7,398.5,345.5,398.7,346.9z"/>
</svg>
