<?xml version="1.0" encoding="utf-8"?>
<!-- Generator: Adobe Illustrator 27.0.0, SVG Export Plug-In . SVG Version: 6.00 Build 0)  -->
<svg version="1.1" id="Layer_1" xmlns="http://www.w3.org/2000/svg" xmlns:xlink="http://www.w3.org/1999/xlink" x="0px" y="0px"
	 viewBox="0 0 400 400" style="enable-background:new 0 0 400 400;" xml:space="preserve">
<style type="text/css">
	.st0{fill:#252D6A;}
	.st1{fill:#FFFFFF;}
	.st2{fill:#4FC9F0;}
</style>
<g id="FI">
	<path class="st0" d="M116.3,292.2l27.9,60.9h216.2L115.9,92.2c-13.2-14-31.6-22-50.9-22H14.6l96.5,210.5L116.3,292.2z"/>
	<g>
		<path class="st1" d="M211,203.9c0,0-10.9,6.8-29.8,3.8s-39.4-6.3-45.5,7.8c-6.1,14.1-9.9,20.5-9.9,20.5s8.1-7.1,19.7-8.1
			s22,2,28.8,2.8s15.7,3,22.5-4C203.6,219.6,211,203.9,211,203.9z"/>
		<path class="st1" d="M195.8,234.7c0,0-8,4.9-28.4,0.9c-18.1-3.5-40.6-0.7-46.5,12.6c-5.8,13.3-7,16.7-7,16.7s7.1-5.2,18.3-6.2
			s20.7-0.4,27.3,0.3c6.6,0.7,17.5,0.8,24-5.9C190.1,246.6,195.8,234.7,195.8,234.7z"/>
		<path class="st1" d="M132.8,277.2l6.7-13.3c0,0-20.5,0.3-26.1,7.8C107.9,279.1,132.8,277.2,132.8,277.2z"/>
	</g>
	<path class="st2" d="M115.9,92.2L360.5,353H396L129.6,69C116.4,54.9,98,46.9,78.7,46.9H4l10.7,23.3H65
		C84.3,70.2,102.7,78.2,115.9,92.2z"/>
</g>
</svg>
