<?xml version="1.0" encoding="utf-8"?>
<!-- Generator: Adobe Illustrator 27.0.0, SVG Export Plug-In . SVG Version: 6.00 Build 0)  -->
<svg version="1.1" id="Layer_1" xmlns="http://www.w3.org/2000/svg" xmlns:xlink="http://www.w3.org/1999/xlink" x="0px" y="0px"
	 viewBox="0 0 400 400" style="enable-background:new 0 0 400 400;" xml:space="preserve">
<style type="text/css">
	.st0{fill:#DE0038;}
	.st1{fill:#FFFFFF;}
</style>
<g>
	<path class="st0" d="M79.7,47.4c19.2,0,37.5,7.8,50.6,21.8l265.9,284.2h-252l-27.9-61l-5.2-11.3L3.8,47.4H79.7z"/>
	<g>
		<path class="st1" d="M337.5,320.6H352c0,0-3.1-4.8-7.1-4.8C341,315.8,337.5,320.6,337.5,320.6z"/>
		<path class="st1" d="M352.9,325.6c-6.7-4.3-10.1-3.3-12.8-2c-2.6,1.3-5.3,3-13.4,3c-8.1,0-32.1-1.2-40.9-11l-61-85.8
			c-11.2-15.7-29.2-25-48.5-25h-54.1c0,0,34.9,0.9,50.8,21.7c16,20.8,64.4,89.4,64.4,89.4h-3.9c0,0-56.8-77.6-62.9-87.2
			c-6.1-9.6-24.3-18.9-38.8-19.5c8.2,7.2,14.8,14.7,26,30.4c11.1,15.8,56.1,79.4,56.1,79.4s-31.8,6.8-46.8,7.8
			c-15.1,1-22.7,0.3-26-4.5c-2.9,0.9-5.3,1.7-5.3,1.7s1.7,6.1,19.9,6.1c13.1,0,213.2,0,213.2,0S359.6,329.9,352.9,325.6z
			 M341.2,327.2c0,0,1.8-2.5,3.8-2.5s3.7,2.5,3.7,2.5H341.2z"/>
	</g>
</g>
</svg>
