<?xml version="1.0" encoding="utf-8"?>
<!-- Generator: Adobe Illustrator 26.0.1, SVG Export Plug-In . SVG Version: 6.00 Build 0)  -->
<svg version="1.1" id="Layer_1" xmlns="http://www.w3.org/2000/svg" xmlns:xlink="http://www.w3.org/1999/xlink" x="0px" y="0px"
	 viewBox="0 0 400 400" style="enable-background:new 0 0 400 400;" xml:space="preserve">
<style type="text/css">
	.st0{fill:#FEFFFF;}
	.st1{fill:#F69800;}
	.st2{fill:#1C67AA;}
	.st3{fill:#F16C00;}
	.st4{fill:#24C0F1;}
	.st5{fill:#009ADA;}
	.st6{fill:#24C1F3;}
	.st7{fill:#FFFFFF;}
	.st8{fill:#E0E0E0;}
	.st9{fill:none;stroke:#E0E0E0;stroke-miterlimit:10;}
	.st10{fill:none;stroke:#333333;stroke-width:3;stroke-miterlimit:10;}
</style>
<g>
	<path class="st0" d="M247.7,222C247.7,222.1,247.6,222.1,247.7,222c-0.2,0.2-0.3,0.3-0.5,0.4c-3.6,3.5-11.1,10.9-18.7,20.3
		c-0.5,0.6-1,1.3-1.5,1.9c-0.3,0.4-0.6,0.7-0.9,1.1c-0.5,0.7-1.1,1.4-1.6,2.2c-3.2,4.3-6.2,8.8-8.9,13.5c-0.4,0.7-0.7,1.3-1.1,2
		c-1.4,2.7-2.7,5.4-3.8,8.1c-5.6,14.6-8.2,29.9-4.3,45.7c0.7,2.8,1.6,5.6,2.7,8.4c0.2,0.5,0.4,1,0.6,1.5c1.3,3,2.8,6.1,4.7,9.2l0,0
		c2.2,3.7,4.8,7.4,7.8,11.1l0,0c0.1,0.2,0.3,0.3,0.4,0.5l0,0l0,0c-1.8,0-3.6,0-5.4,0c-0.1-0.2-0.3-0.3-0.4-0.5
		c-10-11.7-15-24.5-16.2-37.4c-0.1-1.3-0.2-2.7-0.3-4c-0.1-1.9-0.1-3.8,0-5.7c0.1-2.8,0.4-5.7,0.8-8.5c0.1-0.8,0.2-1.5,0.4-2.3
		c0.2-1.4,0.5-2.7,0.8-4.1l0,0c2.1-9.2,5.7-18.1,10.2-26.4c2.3-4.2,4.7-8,7.3-11.6c1.1-1.6,2.2-3.1,3.3-4.5s2.2-2.8,3.3-4.1l0,0
		c0.7-0.9,1.5-1.7,2.2-2.6l0,0c6.2-7.1,12.2-12.6,16.5-16.2c0.1-0.1,0.2-0.2,0.4-0.3l0,0c0,0,0,0,0.1-0.1L247.7,222z"/>
</g>
<g>
	<path class="st1" d="M245.8,219.8c-0.1,0.1-0.2,0.2-0.4,0.3c-4.4,3.5-10.4,9-16.6,16.1l0,0c-0.7,0.8-1.5,1.7-2.2,2.6l0,0
		c-1.1,1.3-2.2,2.7-3.3,4.1l0,0c-0.5,0.7-1.1,1.4-1.6,2.2c-0.6,0.8-1.1,1.5-1.7,2.3c-2.5,3.6-5,7.5-7.3,11.7
		c-4.5,8.3-8.1,17.2-10.2,26.3l0,0c-0.2,0.7-0.3,1.4-0.5,2.1c-0.2,0.8-0.3,1.6-0.4,2.3c-0.1,0.6-0.2,1.3-0.3,1.9
		c-0.4,2.8-0.7,5.7-0.8,8.5c-0.1,1.9-0.1,3.8,0,5.7c0,1.3,0.1,2.7,0.3,4c1.2,12.9,6.1,25.7,16.1,37.4c0.1,0.2,0.3,0.3,0.4,0.5h-2.9
		l0,0c-0.1-0.2-0.2-0.3-0.3-0.5l0,0c-0.1-0.1-0.1-0.2-0.2-0.2c-0.7-0.9-1.3-1.8-1.9-2.7c-0.4-0.6-0.8-1.2-1.2-1.7
		c-0.4-0.6-0.8-1.1-1.1-1.7c-0.4-0.7-0.8-1.3-1.2-2c-0.3-0.5-0.6-1-0.9-1.4c-0.3-0.6-0.7-1.1-1-1.7c-0.6-1.1-1.3-2.2-1.8-3.4
		c-0.6-1.1-1.1-2.2-1.7-3.3c-0.2-0.5-0.5-1.1-0.7-1.6c0,0,0,0,0-0.1c-0.2-0.5-0.5-1.1-0.7-1.6s-0.4-1-0.6-1.5
		c-0.2-0.6-0.5-1.2-0.7-1.8c-0.2-0.5-0.4-1.1-0.6-1.6c-0.8-2.1-1.4-4.2-2-6.3c-0.1-0.5-0.3-1-0.4-1.6V313c-0.1-0.5-0.2-1-0.3-1.5
		c0-0.1-0.1-0.3-0.1-0.4c-0.1-0.5-0.2-1.1-0.3-1.6c-3.6-19.2,1.1-36.6,9.2-52.3c1.6-3.1,3.4-6.1,5.2-9c1.1-1.8,2.3-3.5,3.5-5.2
		c1.3-1.9,2.7-3.7,4.1-5.5c0.5-0.6,0.9-1.2,1.4-1.7c0.4-0.5,0.9-1.1,1.3-1.6c1.4-1.7,2.8-3.4,4.2-5c2.4-2.7,4.7-5.1,7-7.4
		c3.2-3.3,6.2-6,8.5-8c0.1-0.1,0.2-0.2,0.4-0.3l0.1,0.1l4.4,5.8L245.8,219.8z"/>
</g>
<g>
	<path class="st2" d="M145,348.1c-7.4,0-14.7,0-22.1,0H64.4c-4.1-20.5-8.2-41.1-12.3-61.7c-0.1-0.3-0.1-0.7-0.2-1
		c0.2,0.2,0.4,0.4,0.6,0.6c1.4,1.3,2.8,2.6,4.2,3.8c1.2,1.1,2.4,2.2,3.6,3.2c0.6,0.5,1.2,1.1,1.8,1.6c1.8,1.6,3.6,3.1,5.4,4.6
		s3.6,2.9,5.4,4.3c26.8,21.3,53,35.7,71,44.1C144.2,347.8,144.6,347.9,145,348.1z"/>
</g>
<g>
	<path class="st3" d="M214.3,348.1L214.3,348.1L214.3,348.1L214.3,348.1z"/>
	<path class="st3" d="M241.5,213.8C241.4,213.8,241.4,213.9,241.5,213.8c-0.1,0.1-0.1,0.1-0.1,0.1c-2.6,2.2-5.6,5-8.9,8.2
		c-2.2,2.2-4.5,4.7-7,7.4c-0.4,0.5-0.8,0.9-1.2,1.4c-1,1.1-2,2.3-3.1,3.6c-0.4,0.5-0.9,1-1.3,1.6c-0.5,0.6-0.9,1.1-1.4,1.7
		c-4.1,5.2-8.7,11.7-12.8,19.5c-8.3,15.8-12.9,33.2-9.3,52.4c0.1,0.5,0.2,1.1,0.3,1.6c0,0.1,0.1,0.3,0.1,0.4c0.1,0.5,0.2,1,0.3,1.5
		v0.1c0.1,0.5,0.3,1.1,0.4,1.6c0.6,2.1,1.2,4.2,2,6.3c0.2,0.5,0.4,1.1,0.6,1.6c0.2,0.6,0.4,1.2,0.7,1.8c0.2,0.5,0.4,1,0.6,1.5
		c0.2,0.5,0.5,1.1,0.7,1.6c0,0,0,0,0,0.1c0.2,0.5,0.5,1.1,0.7,1.6c0.5,1.1,1.1,2.2,1.7,3.3c0.6,1.1,1.2,2.2,1.8,3.4
		c0.3,0.6,0.7,1.1,1,1.7c0.3,0.5,0.6,1,0.9,1.4c0.4,0.7,0.8,1.3,1.2,2c0.4,0.6,0.7,1.1,1.1,1.7c0.4,0.6,0.8,1.1,1.2,1.7
		c0.6,0.9,1.3,1.8,1.9,2.7c0.1,0.1,0.1,0.1,0.2,0.2l0,0c0.1,0.2,0.2,0.3,0.3,0.5c-0.2-0.2-0.4-0.3-0.6-0.5l0,0
		c-0.2-0.2-0.5-0.5-0.8-0.7c-10-9-22-20.5-29.6-29.9c-0.5-0.7-1-1.3-1.5-1.9c-0.2-0.2-0.3-0.4-0.5-0.6l0,0c-0.3-0.4-0.6-0.8-0.9-1.2
		c-0.1-0.2-0.3-0.4-0.4-0.6c-0.1-0.2-0.3-0.4-0.4-0.6c-1.1-1.7-2-3.2-2.7-4.7c-0.1-0.3-0.2-0.5-0.3-0.8c-0.3-0.7-0.6-1.4-0.9-2.1
		c-0.3-0.7-0.6-1.4-0.9-2.2l0,0c-4.7-11.7-10.4-28.3-8.9-51.2c0-0.4,0.1-0.8,0.1-1.3c0.1-0.9,0.1-1.7,0.2-2.6c0-0.4,0.1-0.9,0.1-1.3
		c0-0.4,0.1-0.9,0.2-1.3c0-0.4,0.1-0.9,0.2-1.3c0-0.4,0.1-0.9,0.2-1.3c0.2-1.4,0.4-2.8,0.7-4.2c0.2-0.9,0.3-1.8,0.5-2.8
		c0.3-1.4,0.6-2.9,0.9-4.4c0.1-0.4,0.2-0.8,0.3-1.3c0.3-1.2,0.6-2.3,0.9-3.5c0.2-0.9,0.5-1.8,0.8-2.7l0,0c0.2-0.7,0.4-1.4,0.6-2
		c0.3-0.9,0.5-1.8,0.8-2.6c0.2-0.8,0.5-1.6,0.8-2.4c0.3-0.8,0.5-1.6,0.8-2.4c1-3,2.1-5.8,3.2-8.5c0.2-0.4,0.4-0.9,0.5-1.3
		c0.2-0.4,0.4-0.9,0.5-1.3c0.2-0.4,0.4-0.8,0.5-1.3c1-2.3,2-4.4,3.1-6.5c0.2-0.3,0.4-0.7,0.5-1c2.3-4.5,4.7-8.3,7-11.5
		c0.3-0.5,0.7-1,1-1.4c0.2-0.2,0.4-0.5,0.5-0.7c1.4-1.8,2.7-3.4,4-4.9c0.2-0.2,0.4-0.5,0.6-0.7c0.2-0.2,0.4-0.4,0.5-0.6
		c0.2-0.3,0.5-0.5,0.8-0.8c1-0.9,1.9-1.8,2.8-2.5c0.2-0.2,0.5-0.4,0.7-0.6c0.6-0.5,1.2-0.9,1.7-1.3c0.1-0.1,0.3-0.2,0.4-0.3
		c0.6-0.4,1.1-0.8,1.7-1.1c0.2-0.1,0.4-0.2,0.6-0.4c0.1-0.1,0.3-0.2,0.4-0.2c0.1-0.1,0.3-0.2,0.4-0.2c0.1,0,0.2-0.1,0.2-0.1
		C217.8,182.3,229.6,198,241.5,213.8z"/>
</g>
<g>
	<path class="st2" d="M102.5,36.2c-0.1,0.1-0.2,0.2-0.3,0.2c-6.7,4.4-9.8,6.5-11,7.3l-0.1,0.1L91,43.9c-0.2,0.1-0.3,0.2-0.4,0.3l0,0
		l-0.1,0.1c-0.1,0.1-0.2,0.2-0.3,0.3c-0.1,0.1-0.2,0.1-0.2,0.2c-0.1,0.1-0.2,0.1-0.3,0.2c-0.1,0.1-0.3,0.2-0.4,0.3
		c-1,0.8-2.1,1.6-3.1,2.5c-1.2,1-2.4,2-3.7,3.1c-0.8,0.7-1.7,1.5-2.5,2.3c-0.4,0.4-0.9,0.8-1.3,1.2c-1.3,1.2-2.6,2.5-4,3.8
		c-1.8,1.8-3.6,3.6-5.4,5.5c-0.5,0.5-0.9,1-1.4,1.5C62.9,70.7,57.7,77,52.8,84c-0.5,0.6-0.9,1.3-1.3,1.9c-1,1.5-2,3-3.1,4.6
		c-0.4,0.6-0.8,1.2-1.1,1.8c-0.8,1.3-1.6,2.6-2.4,4c-0.4,0.7-0.9,1.5-1.3,2.2c-0.4,0.7-0.8,1.5-1.3,2.2s-0.8,1.5-1.2,2.3
		c-0.3,0.6-0.7,1.3-1,1.9c-0.1,0.2-0.2,0.4-0.3,0.6c-0.4,0.7-0.7,1.4-1.1,2.2c-0.3,0.6-0.7,1.3-1,1.9c-0.5,1-0.9,1.9-1.4,2.9
		c-0.4,0.8-0.8,1.6-1.1,2.5c-0.4,0.8-0.8,1.7-1.1,2.5s-0.7,1.6-1,2.4c-0.1,0.1-0.1,0.3-0.2,0.5c-0.3,0.8-0.6,1.6-1,2.4
		c-0.3,0.8-0.6,1.6-0.9,2.4c-0.1,0.2-0.2,0.4-0.2,0.6c-0.2,0.6-0.5,1.2-0.7,1.9c-0.3,0.8-0.6,1.6-0.9,2.5c-0.2,0.5-0.4,1-0.5,1.5
		c-0.2,0.6-0.4,1.3-0.7,1.9c0,0.1-0.1,0.2-0.1,0.2c-0.3,0.8-0.5,1.5-0.7,2.3c-0.1,0.3-0.2,0.6-0.3,0.9c-0.2,0.8-0.5,1.5-0.7,2.3v0.1
		c-0.3,0.9-0.5,1.8-0.8,2.7c0,0.2-0.1,0.4-0.2,0.5c-0.2,0.8-0.4,1.6-0.6,2.3c0,0.1,0,0.1-0.1,0.2c-0.1,0.4-0.2,0.7-0.3,1.1
		C17,110.2,9.8,74.3,2.6,38.4c-0.1-0.3-0.9-2.4,0.2-4.6c1-2,3-2.6,3.3-2.8h52.4l16,0.5h0.6c3.6-0.5,8.9-0.7,15,0.5
		C95.2,33,99.5,34.7,102.5,36.2z"/>
</g>
<g>
	<path class="st4" d="M170.8,348.1c0.4,0.2,0.7,0.3,1.1,0.5h-0.1L170.8,348.1h-0.1c-0.4-0.2-0.7-0.3-1.1-0.5l0,0
		c-19.7-9-49.1-22.3-68-32.3c-18.8-10-39.8-31.7-52.4-46l0,0c-0.2-0.2-0.4-0.5-0.7-0.7c-0.2-0.3-0.4-0.5-0.7-0.8l0,0l-0.1-0.3
		c0.2,0.2,0.4,0.5,0.7,0.7c-2.1-10.3-4.1-20.6-6.2-31c-2.5-12.2-4.9-24.5-7.3-36.7c-3-14.7-5.9-29.3-8.9-44l0,0
		c0.1-0.4,0.2-0.8,0.3-1.2l0,0c0-0.1,0.1-0.3,0.1-0.4c0.2-0.8,0.4-1.7,0.6-2.5c0-0.2,0.1-0.3,0.1-0.5c0.2-0.8,0.4-1.5,0.6-2.2
		c0.1-0.4,0.2-0.8,0.3-1.2c0.2-0.6,0.3-1.2,0.5-1.9c0.1-0.5,0.3-0.9,0.4-1.4c0.2-0.7,0.4-1.4,0.6-2.1c0.1-0.3,0.2-0.6,0.3-0.9
		c0.2-0.7,0.4-1.4,0.6-2c0.1-0.4,0.2-0.7,0.3-1.1c0.2-0.5,0.3-1.1,0.5-1.6c0.2-0.6,0.4-1.2,0.6-1.7s0.4-1.1,0.6-1.6
		c0.3-0.9,0.6-1.7,0.9-2.5c0.2-0.5,0.4-1.1,0.6-1.6c0.3-0.7,0.6-1.5,0.9-2.2c0.3-0.8,0.7-1.7,1-2.5c0.1-0.2,0.2-0.4,0.3-0.6
		c0.2-0.6,0.5-1.2,0.8-1.8c0.2-0.6,0.5-1.2,0.8-1.8c0.3-0.8,0.7-1.5,1-2.2c0.2-0.6,0.5-1.2,0.8-1.7c0.1-0.2,0.1-0.3,0.2-0.5
		c0.3-0.6,0.6-1.3,0.9-1.9c0.5-1,1-2,1.5-3c0.4-0.8,0.8-1.6,1.2-2.3c0.5-1,1-2,1.6-2.9c0.4-0.7,0.8-1.5,1.2-2.2
		c1.4-2.6,2.9-5.1,4.4-7.5c0.4-0.6,0.7-1.2,1.1-1.7C55,89.8,58.4,84.9,62,80.4c0.5-0.6,0.9-1.2,1.4-1.8c4.4-5.5,8.8-10.4,13.1-14.7
		c0.5-0.5,1-1,1.4-1.4c0.5-0.5,0.9-0.9,1.4-1.4s0.9-0.9,1.4-1.3c0.9-0.9,1.9-1.8,2.8-2.6c0.5-0.4,0.9-0.8,1.4-1.2
		c6.9-6.1,15.8-12.5,18.4-14.2c0.5-0.3,0.7-0.5,0.7-0.5c0.7-0.5,1.7-1.2,3.1-2.1l0,0l0,0c0.8,0.7,1.5,1.4,2.3,2.2
		c0.5,0.5,1,1,1.4,1.4c0.1,0.1,0.2,0.2,0.3,0.3c-11,13.5-23.2,31.2-33.4,53.1c-0.8,1.8-1.6,3.6-2.4,5.5c-2.9,6.7-5.6,13.9-8,21.4
		c-6.9,21.5-16,52-9.8,90.8c2.6,16,8.4,32.2,18.7,50.4c9.9,17.6,24,32.9,38.9,45.7c1,0.9,2,1.7,3,2.5c0.1,0.1,0.2,0.2,0.3,0.3
		c1.1,0.9,2.1,1.8,3.2,2.6c0.1,0,0.1,0.1,0.2,0.1c0.9,0.7,1.7,1.4,2.6,2.1s1.7,1.3,2.6,2s1.7,1.3,2.6,2s1.7,1.3,2.6,1.9
		c0.9,0.6,1.7,1.2,2.6,1.8c1.7,1.2,3.4,2.4,5.1,3.5l0,0c0.9,0.6,1.7,1.1,2.5,1.7c1.6,1,3.1,2,4.6,3c0.4,0.3,0.8,0.5,1.3,0.8
		c1.3,0.8,2.7,1.6,4,2.4h0.1c0.9,0.5,1.8,1.1,2.7,1.6c1.8,1,3.5,2,5.2,3c1.1,0.6,2.1,1.2,3.1,1.7c0.4,0.2,0.8,0.4,1.1,0.6
		c2.6,1.4,5.1,2.7,7.4,3.9c0.3,0.2,0.7,0.3,1,0.5h-2.1V348.1z"/>
</g>
<g>
	<path class="st0" d="M171.9,348.6L171.9,348.6l-1.2-0.5l0,0c-8.5,0-17.1,0-25.7,0c-0.4-0.2-0.7-0.3-1.1-0.5
		c-16.3-7.7-39.4-20.2-63.6-38.3c-0.6-0.5-1.2-0.9-1.9-1.4c-0.6-0.5-1.2-0.9-1.9-1.4c-1.2-1-2.5-1.9-3.8-2.9
		c-1.8-1.4-3.6-2.9-5.4-4.3c-1.8-1.5-3.6-3-5.4-4.6c-0.6-0.5-1.2-1-1.8-1.6c-1.2-1.1-2.4-2.1-3.6-3.2c-1.4-1.2-2.8-2.5-4.2-3.8
		c-0.2-0.2-0.4-0.4-0.6-0.6c-0.1-0.6-0.2-1.1-0.4-1.7c-1-5-2-10.1-3-15.1c-0.2-0.3-0.4-0.5-0.7-0.8l0,0l-0.1-0.3
		c0.2,0.2,0.4,0.5,0.7,0.7c0.2,0.2,0.4,0.4,0.6,0.7c12.9,13.3,35.4,31.6,55.7,44.9c17.9,11.8,45.6,24.9,65,33.9
		c0.4,0.2,0.7,0.3,1.1,0.5C171.2,348.3,171.5,348.5,171.9,348.6z"/>
</g>
<g>
	<path class="st5" d="M178.2,348.1c-1.7,0-3.4,0-5.1,0c-0.3-0.2-0.7-0.3-1-0.5c-2.7-1.3-5.5-2.8-8.6-4.5c-1-0.6-2.1-1.1-3.1-1.7
		c-1.7-1-3.4-2-5.2-3c-0.9-0.5-1.8-1.1-2.7-1.6h-0.1c-1.3-0.8-2.6-1.6-4-2.4c-0.4-0.3-0.8-0.5-1.3-0.8c-1.5-1-3.1-2-4.6-3
		c-0.8-0.6-1.7-1.1-2.5-1.7l0,0c-1.7-1.2-3.4-2.3-5.1-3.5c-0.9-0.6-1.7-1.2-2.6-1.8c-0.9-0.6-1.7-1.3-2.6-1.9
		c-0.9-0.6-1.7-1.3-2.6-2s-1.7-1.3-2.6-2s-1.7-1.4-2.6-2.1c-0.1,0-0.1-0.1-0.2-0.1c-1.1-0.9-2.2-1.7-3.2-2.6
		c-0.1-0.1-0.2-0.2-0.3-0.3c-16-13.3-31.3-29.5-41.8-48.2c-10.3-18.3-16.1-34.6-18.7-50.7c-6.2-38.5,2.7-68.5,9.8-90.5
		c2.4-7.5,5.1-14.6,7.9-21.4c0.8-1.8,1.6-3.7,2.4-5.5c10-21.8,21.9-39.6,33.1-53.4c0.8,0.6,1.5,1.2,2.2,1.7
		c3.2,4.1,6.4,8.3,9.7,12.4c0.2,0.2,0.4,0.5,0.6,0.8c0,0,0,0.1,0.1,0.1c0,0,0,0.1,0.1,0.1c5.8,7.5,11.6,15,17.4,22.5
		c1.5,1.9,3,3.8,4.5,5.6l16,21.4l0,0c-0.1,0.1-0.2,0.2-0.3,0.3c-0.1,0.1-0.2,0.2-0.4,0.4c-3.6,3.7-8.6,9.3-13.7,17
		c0,0.1-0.1,0.1-0.1,0.2c-0.4,0.7-0.9,1.3-1.3,2c-0.6,1-1.3,2-1.9,3c-0.3,0.6-0.7,1.2-1.1,1.8c-0.4,0.6-0.7,1.2-1.1,1.9l0,0
		c-0.4,0.8-0.9,1.5-1.3,2.3c-0.4,0.8-0.8,1.6-1.3,2.4c-0.4,0.7-0.7,1.5-1.1,2.2c-5.6,11.1-10.7,24.8-14.2,41.3
		c-12,57.9-4.2,78.7,6.4,106.2c6.7,17.5,24.9,38.6,41.1,53.4c0.5,0.5,1,1,1.6,1.4c1.1,1,2.2,2,3.3,2.9c0.5,0.5,1.1,1,1.7,1.4l0,0
		c0,0,0.1,0,0.1,0.1C177.9,347.8,178.1,348,178.2,348.1z"/>
</g>
<g>
	<path class="st0" d="M107.1,39.1c-1.4,0.9-2.4,1.6-3.1,2.1c0,0-0.3,0.2-0.7,0.5C100.7,43.6,91.8,50,84.9,56
		c-0.5,0.4-0.9,0.8-1.4,1.2c-0.9,0.8-1.8,1.7-2.8,2.6c-0.5,0.4-0.9,0.9-1.4,1.3c-0.5,0.5-0.9,0.9-1.4,1.4s-1,0.9-1.4,1.4
		c-4.3,4.3-8.7,9.2-13.1,14.7c-0.5,0.6-0.9,1.2-1.4,1.8c-3.5,4.5-7,9.3-10.3,14.6c-0.4,0.6-0.7,1.2-1.1,1.7c-1.5,2.4-3,4.9-4.4,7.5
		c-0.4,0.7-0.8,1.4-1.2,2.2c-0.5,1-1.1,1.9-1.6,2.9c-0.4,0.8-0.8,1.6-1.2,2.3c-0.5,1-1,2-1.5,3c-0.3,0.6-0.6,1.3-0.9,1.9
		c-0.1,0.2-0.2,0.4-0.2,0.5c-0.3,0.6-0.6,1.2-0.8,1.7c-0.3,0.7-0.7,1.5-1,2.2c-0.3,0.6-0.5,1.2-0.8,1.8c-0.3,0.6-0.5,1.2-0.8,1.8
		c-0.1,0.2-0.2,0.4-0.3,0.6c-0.3,0.8-0.7,1.7-1,2.5c-0.3,0.7-0.6,1.5-0.9,2.2c-0.2,0.5-0.4,1.1-0.6,1.6c-0.3,0.8-0.6,1.7-0.9,2.5
		c-0.2,0.5-0.4,1.1-0.6,1.6c-0.2,0.6-0.4,1.1-0.6,1.7c-0.2,0.5-0.4,1.1-0.5,1.6c-0.1,0.3-0.2,0.7-0.3,1.1c-0.2,0.7-0.4,1.3-0.6,2
		c-0.1,0.3-0.2,0.6-0.3,0.9c-0.2,0.7-0.4,1.4-0.6,2.1c-0.1,0.5-0.3,0.9-0.4,1.4c-0.2,0.6-0.3,1.2-0.5,1.9c-0.1,0.4-0.2,0.8-0.3,1.2
		c-0.2,0.7-0.4,1.5-0.6,2.2c-0.1,0.2-0.1,0.3-0.1,0.5c-0.2,0.8-0.4,1.7-0.6,2.5c0,0.1-0.1,0.2-0.1,0.4l0,0c-0.1,0.4-0.2,0.8-0.3,1.2
		c-0.7-3.4-1.4-6.8-2.1-10.2l0,0c0.1-0.4,0.2-0.7,0.3-1.1c0-0.1,0-0.1,0.1-0.2c0.2-0.8,0.4-1.6,0.6-2.3c0.1-0.2,0.1-0.4,0.2-0.5
		c0.3-0.9,0.5-1.8,0.8-2.7v-0.1c0.2-0.8,0.5-1.5,0.7-2.3c0.1-0.3,0.2-0.6,0.3-0.9c0.2-0.8,0.5-1.5,0.7-2.3c0-0.1,0-0.2,0.1-0.2
		c0.2-0.6,0.4-1.3,0.7-1.9c0.2-0.5,0.3-1,0.5-1.5c0.3-0.8,0.6-1.6,0.9-2.5c0.2-0.6,0.5-1.2,0.7-1.9c0.1-0.2,0.2-0.4,0.2-0.6
		c0.3-0.8,0.6-1.6,0.9-2.4s0.6-1.6,1-2.4c0.1-0.2,0.1-0.3,0.2-0.5c0.3-0.8,0.7-1.6,1-2.4c0.4-0.8,0.7-1.7,1.1-2.5
		c0.4-0.8,0.8-1.7,1.1-2.5c0.5-1,0.9-1.9,1.4-2.9c0.3-0.6,0.6-1.3,1-1.9c0.4-0.7,0.7-1.5,1.1-2.2c0.1-0.2,0.2-0.4,0.3-0.6
		c0.3-0.6,0.7-1.3,1-1.9c0.4-0.8,0.8-1.5,1.2-2.3s0.8-1.5,1.3-2.2c0.4-0.7,0.8-1.5,1.3-2.2c0.8-1.3,1.6-2.7,2.4-4
		c0.4-0.6,0.7-1.2,1.1-1.8c1-1.6,2-3.1,3.1-4.6c0.4-0.6,0.9-1.3,1.3-1.9c5-7.1,10.1-13.3,15.1-18.8c0.5-0.5,0.9-1,1.4-1.5
		c1.8-2,3.6-3.8,5.4-5.5c1.3-1.3,2.7-2.6,4-3.8c0.4-0.4,0.9-0.8,1.3-1.2c0.9-0.8,1.7-1.5,2.5-2.3c1.2-1.1,2.5-2.1,3.7-3.1
		c1.1-0.9,2.1-1.7,3.1-2.5c0.1-0.1,0.3-0.2,0.4-0.3s0.2-0.2,0.3-0.2c0.1-0.1,0.2-0.1,0.2-0.2c0.1-0.1,0.3-0.2,0.3-0.3
		c0.1,0,0.1-0.1,0.1-0.1l0,0c0.1,0,0.2-0.1,0.4-0.3c0,0,0.1,0,0.1-0.1l0.1-0.1c1.2-0.9,4.2-3,10.8-7.5c0.1,0,0.2,0.1,0.2,0.2
		c0.7,0.5,1.5,1,2.3,1.4C105.4,38.4,106.2,38.8,107.1,39.1C107,39.1,107.1,39.1,107.1,39.1L107.1,39.1z"/>
</g>
<g>
	<path class="st6" d="M208.1,348.1c0,0-0.1,0-0.2,0l0,0c-3.4,0-6.7,0-10.1,0c-0.2-0.2-0.4-0.3-0.5-0.5c-0.4-0.4-0.9-0.8-1.3-1.2
		c-0.5-0.5-1-1-1.5-1.4c-1-1-1.9-2-2.9-3c-0.7-0.7-1.4-1.5-2.1-2.2c-0.8-0.8-1.5-1.6-2.2-2.4c-2.4-2.6-4.7-5.4-7-8.1
		c-0.9-1.1-1.8-2.2-2.6-3.3c-3.1-4-6.1-8-8.7-12c-0.7-1-1.3-2-1.9-3c-0.3-0.5-0.6-1-0.9-1.4c-2.1-3.3-3.9-6.6-5.4-9.7
		c-0.4-0.8-0.8-1.6-1.2-2.5c-0.9-1.8-1.7-3.5-2.5-5.3s-1.5-3.6-2.2-5.5c-0.2-0.5-0.3-0.9-0.5-1.4s-0.3-0.9-0.5-1.4s-0.3-1-0.5-1.4
		c-0.6-1.8-1.1-3.6-1.5-5.4c-0.1-0.3-0.2-0.7-0.3-1.1s-0.2-0.8-0.3-1.2c-0.1-0.5-0.2-1-0.3-1.5c-0.6-3.1-1.1-6.3-1.5-9.9
		c-0.1-0.6-0.1-1.2-0.2-1.8c-0.1-1.5-0.2-3.1-0.3-4.7c-0.5-13.7,1.1-31.1,6.1-54.9c7.4-35.7,20.9-53.8,29.6-62.1
		c0.1-0.1,0.2-0.2,0.4-0.3c0.1-0.1,0.2-0.2,0.3-0.3l17.9,23.8c-0.1,0.1-0.2,0.1-0.3,0.2c-0.1,0.1-0.3,0.2-0.4,0.3
		c-0.5,0.3-0.9,0.6-1.4,0.9c-0.7,0.5-1.4,0.9-2.1,1.5c-0.7,0.5-1.4,1-2.1,1.6c-0.7,0.6-1.4,1.1-2,1.7c-1,0.9-2,1.9-3,2.9
		c-0.5,0.5-1,1-1.5,1.5c-1.1,1.2-2.2,2.5-3.3,3.8c-1.2,1.5-2.5,3.1-3.6,4.8l0,0c-0.6,0.9-1.2,1.7-1.8,2.6c-0.6,0.9-1.1,1.8-1.7,2.7
		c-2.3,3.9-4.5,8.1-6.5,12.6c-0.2,0.5-0.4,1-0.7,1.5c-2.8,6.7-5.2,13.9-7.1,21.7c-0.3,1.2-0.5,2.4-0.8,3.6c-0.5,2.2-0.9,4.4-1.2,6.6
		c-0.2,1.3-0.4,2.6-0.6,3.9c-0.7,4.7-1.1,9.5-1.4,14.4c-0.1,2-0.2,4-0.2,6c0,1.8,0,3.7,0,5.5c0.1,2.8,0.2,5.7,0.4,8.5
		c2.8,40.7,30.9,65.6,45.3,75.8l0,0C207.6,347.8,207.8,347.9,208.1,348.1z"/>
</g>
<g>
	<path class="st5" d="M197.8,348.1h-6c-0.2-0.2-0.5-0.3-0.7-0.5c-2.3-1.7-4.7-3.5-7.1-5.5c-0.7-0.5-1.3-1.1-2-1.6
		c-1.1-0.9-2.1-1.8-3.2-2.7c-1-0.9-2-1.8-3.1-2.7l0,0c-1.4-1.2-2.8-2.5-4.2-3.8c-0.7-0.6-1.4-1.3-2.1-2c-1.4-1.4-2.8-2.7-4.2-4.1
		c-0.7-0.7-1.4-1.4-2.1-2.1c-1.4-1.4-2.7-2.8-4-4.3c-1.7-1.8-3.3-3.7-4.9-5.5c-7.2-8.5-13.2-17.4-16.5-25.7
		C127.4,260,118,240.2,130,182.3c7.7-36.9,23.8-59.3,34-70.2c0.1-0.1,0.2-0.2,0.3-0.4c0.1-0.1,0.2-0.2,0.3-0.3l0,0l20.8,27.6
		c-0.1,0.1-0.1,0.1-0.2,0.2c-0.1,0.1-0.2,0.2-0.4,0.3c-8.7,8.4-22.3,26.3-29.7,62.1c-4.9,23.8-6.5,41.2-6,54.9
		c0.1,1.6,0.2,3.2,0.3,4.7c0,0.6,0.1,1.2,0.2,1.8c0.3,3.5,0.8,6.8,1.5,9.9c0.1,0.5,0.2,1,0.3,1.5c0.1,0.4,0.2,0.8,0.3,1.2
		c0.1,0.4,0.2,0.7,0.3,1.1c0.5,1.9,1,3.7,1.5,5.4c0.2,0.5,0.3,1,0.5,1.4c0.2,0.5,0.3,1,0.5,1.4c0.2,0.5,0.3,0.9,0.5,1.4
		c0.7,1.9,1.5,3.7,2.2,5.5c0.8,1.8,1.6,3.5,2.5,5.3c0.4,0.8,0.8,1.6,1.2,2.5c1.5,3.1,3.4,6.3,5.4,9.7c0.3,0.5,0.6,0.9,0.9,1.4
		c0.6,1,1.3,2,1.9,3c2.7,4,5.6,8,8.7,12c0.9,1.1,1.7,2.2,2.6,3.3c2.2,2.8,4.6,5.5,7,8.1c0.7,0.8,1.5,1.6,2.2,2.4s1.4,1.5,2.1,2.2
		c1,1,1.9,2,2.9,3c0.5,0.5,1,1,1.5,1.4c0.4,0.4,0.9,0.8,1.3,1.2C197.5,347.8,197.7,347.9,197.8,348.1z"/>
</g>
<g>
	<path class="st0" d="M191.9,348.1c-4.5,0-9.1,0-13.6,0l0,0c-0.2-0.2-0.3-0.3-0.5-0.4c0,0,0,0-0.1-0.1l0,0c-0.6-0.5-1.1-0.9-1.7-1.4
		c-1.1-0.9-2.2-1.9-3.3-2.9c-0.5-0.5-1-0.9-1.6-1.4c-16.1-14.9-34.3-36-41-53.7c-10.5-27.5-18.4-48.3-6.4-106.2
		c3.4-16.4,8.6-30,14.1-41c0.4-0.7,0.8-1.5,1.1-2.2c0.4-0.8,0.8-1.6,1.3-2.4c0.4-0.8,0.9-1.6,1.3-2.3l0,0c0.4-0.6,0.7-1.2,1.1-1.9
		c0.4-0.6,0.7-1.2,1.1-1.8c0.6-1,1.3-2,1.9-3c0.4-0.7,0.9-1.4,1.3-2c0-0.1,0.1-0.1,0.1-0.2c5.2-7.7,10.1-13.4,13.7-17.1
		c0.1-0.1,0.2-0.2,0.4-0.4l0.3-0.3l0.1-0.1c0,0,0,0,0.1-0.1l3.1,4.1l0,0c0,0,0,0-0.1,0.1s-0.2,0.2-0.3,0.3c-0.1,0.1-0.2,0.2-0.3,0.4
		c-10.2,11-26.2,33.2-33.9,70c-12,57.9-2.7,77.8,7.8,105.3c3.2,8.4,9.2,17.3,16.3,25.8c1.6,1.9,3.2,3.7,4.9,5.5
		c1.3,1.5,2.7,2.9,4,4.3c0.7,0.7,1.4,1.4,2.1,2.1c1.4,1.4,2.8,2.8,4.2,4.1c0.7,0.7,1.4,1.3,2.1,2c1.4,1.3,2.8,2.6,4.2,3.8l0,0
		c1,0.9,2,1.8,3.1,2.7c1.1,0.9,2.1,1.8,3.2,2.7c0.7,0.6,1.3,1.1,2,1.6c2.5,2,4.9,3.8,7.1,5.5C191.4,347.8,191.6,347.9,191.9,348.1z"
		/>
</g>
<g>
	<path class="st0" d="M263.8,348.6h-5.5c-0.2-0.2-0.3-0.3-0.5-0.5l0,0c-0.1-0.2-0.3-0.3-0.4-0.5c-3.4-3.7-7.6-9.1-11.5-15.7
		c0,0,0-0.1-0.1-0.1c-5-8.5-9.3-19-10.3-30.9c-1.6-18.6-1.1-34.6,0.5-47.1c1.6-12.9,4.4-22,7.2-26.4c0.1-0.2,0.2-0.3,0.3-0.4
		c-11.2,12.4-34.3,31.9-38,71.8c-0.6,6.8-0.2,13,1,18.6c0.5,2.6,1.2,5,2,7.3c-6.8-18.4-4.3-36,2.1-52.8c1.1-2.8,2.4-5.6,3.9-8.3
		c0.4-0.7,0.7-1.3,1.1-2c2.6-4.7,5.7-9.2,8.9-13.5c0.5-0.7,1.1-1.5,1.6-2.2c0.3-0.4,0.6-0.7,0.9-1.1c8.1-10.3,16.5-18.6,20.2-22.1
		c0.1-0.1,0.2-0.2,0.3-0.3l1.2,1.6c-0.1,0.2-0.1,0.3-0.2,0.5l0,0c-4,11-12.3,37.3-10.9,63.5c1.2,23.2,15.7,46.5,25.4,59.7
		c0.1,0.2,0.2,0.3,0.4,0.5C263.6,348.2,263.7,348.4,263.8,348.6z"/>
</g>
<g>
	<path class="st5" d="M400,348.1c-45.5-0.1-90.9-0.1-136.3,0c-0.1-0.2-0.2-0.3-0.4-0.5c-9.7-13.2-24.3-36.6-25.5-59.8
		c-1.4-26.1,6.8-52.2,10.9-63.4l0,0c0.1-0.2,0.1-0.4,0.2-0.6c21.5,28,54.4,61.8,101.8,87c10.1,5.4,20.1,9.9,29.7,13.8
		c2.6,0.9,10,3.7,15.2,11.4c1.6,2.4,2.7,4.8,3.4,6.8C399.5,344.9,399.8,346.7,400,348.1z"/>
</g>
<g>
	<path class="st7" d="M224.1,348.1h-1.3l0,0l0,0c-0.1-0.2-0.3-0.3-0.4-0.5l0,0c-3.4-4.1-6.3-8.3-8.6-12.4c0.2,0.4,0.5,0.8,0.8,1.2
		l0,0c0.3,0.4,0.5,0.8,0.8,1.2c0.3,0.5,0.7,1,1,1.4c0.5,0.8,1.1,1.5,1.7,2.2c1.9,2.4,3.8,4.5,5.6,6.3L224.1,348.1z"/>
</g>
<g>
	<path class="st6" d="M258.5,348.6h-0.2c-0.2-0.2-0.3-0.3-0.5-0.5l0,0c-11.3,0-22.5,0-33.8,0l0,0c-0.2-0.2-0.3-0.3-0.5-0.5
		c-2.4-2.4-4.9-5.2-7.2-8.5c-0.3-0.5-0.7-1-1-1.4c-0.2-0.4-0.5-0.8-0.8-1.2l0,0c-0.2-0.4-0.5-0.8-0.8-1.2c-1.5-2.6-2.8-5.3-3.9-8
		c-0.2-0.5-0.4-1-0.6-1.5c-0.2-0.4-0.3-0.8-0.5-1.2c-2.6-7.3-3.9-16-3-25.9c3.5-39.3,26.1-58.8,37.5-71.2c0.1-0.2,0.3-0.4,0.5-0.5
		c-2.3,6.1-5.2,14.8-7.4,25.6c-0.1,0.4-0.2,0.9-0.3,1.3c-2.5,12-5.5,27.8-2.5,45.5c2.1,12.8,6.9,23.7,12.3,32.5c0,0,0,0.1,0.1,0.1
		c4,6.6,8.4,12,12.1,16.2C258.2,348.2,258.4,348.4,258.5,348.6z"/>
</g>
<g>
	<path class="st0" d="M214.3,348.1h-6.2c0,0-0.1,0-0.2,0l0,0c-0.2-0.2-0.5-0.3-0.7-0.5c-14.5-10.2-42.5-35-45.2-75.7
		c-0.2-2.9-0.3-5.8-0.4-8.6c0-1.8,0-3.7,0-5.5c0-2,0.1-4,0.2-6c0.2-4.9,0.7-9.8,1.4-14.4c0.2-1.3,0.4-2.6,0.6-3.9
		c0.4-2.2,0.8-4.4,1.2-6.6c0.3-1.2,0.5-2.4,0.8-3.6c1.9-7.7,4.2-15,7.1-21.7c0.2-0.5,0.4-1,0.7-1.5c2-4.5,4.2-8.7,6.5-12.6
		c0.5-0.9,1.1-1.8,1.7-2.7c0.6-0.9,1.2-1.7,1.8-2.6l0,0c1.2-1.7,2.4-3.3,3.6-4.8c1.1-1.3,2.2-2.6,3.3-3.8c0.5-0.5,1-1,1.5-1.5
		c1-1,2-2,3-2.9c0.7-0.6,1.4-1.2,2-1.7c0.7-0.6,1.4-1.1,2.1-1.6c0.7-0.5,1.4-1,2.1-1.5c0.5-0.3,1-0.6,1.4-0.9
		c0.2-0.1,0.3-0.2,0.4-0.3c0.1-0.1,0.2-0.1,0.3-0.2l2.6,3.5c-0.1,0-0.2,0.1-0.2,0.1c-0.1,0.1-0.3,0.2-0.4,0.2
		c-0.3,0.2-0.7,0.4-1,0.6c-0.1,0.1-0.3,0.2-0.4,0.3c-0.4,0.3-0.8,0.6-1.3,0.9c-0.1,0.1-0.3,0.2-0.4,0.3c-0.5,0.4-1.1,0.8-1.6,1.2
		c-0.3,0.2-0.5,0.4-0.8,0.7s-0.6,0.5-0.9,0.8c-0.3,0.2-0.5,0.5-0.8,0.7c-0.2,0.2-0.5,0.4-0.7,0.7c-0.2,0.1-0.3,0.3-0.5,0.5
		c-1.2,1.2-2.5,2.6-3.8,4.1c-0.3,0.4-0.7,0.8-1,1.2c-0.2,0.2-0.3,0.4-0.5,0.7c-0.2,0.2-0.4,0.5-0.5,0.7c-0.2,0.2-0.4,0.5-0.5,0.7
		c-0.3,0.5-0.7,0.9-1,1.4s-0.7,1-1.1,1.5c-0.2,0.3-0.4,0.7-0.7,1c-0.2,0.3-0.4,0.6-0.5,0.8c0,0,0,0,0,0.1c-0.1,0.2-0.2,0.4-0.4,0.6
		c-0.6,1-1.2,2-1.9,3.1c-0.2,0.4-0.5,0.8-0.7,1.2c-0.3,0.5-0.6,1-0.8,1.5c0,0,0,0,0,0.1l0,0c-0.3,0.5-0.5,1-0.8,1.6
		c-0.4,0.8-0.8,1.5-1.2,2.3c-0.2,0.4-0.4,0.8-0.6,1.2c-0.2,0.4-0.4,0.8-0.6,1.2c-0.8,1.7-1.6,3.4-2.3,5.3c-0.1,0.2-0.2,0.4-0.3,0.7
		c-0.3,0.7-0.6,1.4-0.9,2.2c-0.2,0.4-0.3,0.7-0.4,1.1c-0.2,0.5-0.4,1-0.6,1.5c-0.2,0.6-0.5,1.3-0.7,2c-0.3,0.8-0.6,1.6-0.9,2.4
		c-0.3,0.8-0.6,1.6-0.8,2.4c-0.3,0.8-0.5,1.6-0.8,2.4c-0.2,0.8-0.5,1.6-0.7,2.4c-0.2,0.8-0.5,1.5-0.7,2.3l0,0
		c-0.3,0.9-0.5,1.8-0.8,2.7c-0.3,1.2-0.6,2.3-0.9,3.5c-0.1,0.4-0.2,0.8-0.3,1.3c-0.1,0.3-0.1,0.6-0.2,0.9c-0.3,1.2-0.5,2.3-0.7,3.5
		c-0.2,0.9-0.4,1.9-0.5,2.8c-0.3,1.4-0.5,2.8-0.7,4.2c-0.1,0.4-0.1,0.9-0.2,1.3c-0.1,0.4-0.1,0.9-0.2,1.3c-0.1,0.4-0.1,0.9-0.2,1.3
		c-0.1,0.4-0.1,0.9-0.1,1.3c-0.1,0.9-0.2,1.7-0.2,2.6c0,0.4-0.1,0.8-0.1,1.3c0,0.8-0.1,1.5-0.1,2.3c0,1-0.1,1.9-0.1,2.9
		c0,0.2,0,0.5,0,0.7c-0.3,16.9,3.4,30.1,7.2,40.2l0,0c0.4,1.1,0.8,2.1,1.2,3.2l0,0c0.3,0.7,0.5,1.3,0.8,2l0,0
		c0.3,0.7,0.6,1.5,0.9,2.2c0.3,0.7,0.6,1.4,0.9,2.1c0.2,0.5,0.4,1,0.7,1.5c0.1,0.1,0.1,0.3,0.2,0.4c0.2,0.4,0.5,0.9,0.8,1.4
		c0.1,0.2,0.3,0.5,0.4,0.7c0.2,0.2,0.3,0.5,0.5,0.7s0.3,0.5,0.5,0.7c0.1,0.2,0.2,0.4,0.4,0.6c0.1,0.2,0.3,0.4,0.4,0.6
		c0.3,0.4,0.6,0.8,0.9,1.2l0,0c0.1,0.2,0.3,0.4,0.5,0.6c0.2,0.3,0.5,0.6,0.7,0.9s0.5,0.6,0.8,1c7.6,9.5,19.6,21,29.6,29.9
		c0.2,0.2,0.5,0.5,0.8,0.7l0,0C213.9,347.8,214.1,347.9,214.3,348.1z"/>
</g>
<g>
	<path class="st8" d="M214,347.6h-0.2c0.2,0.2,0.4,0.3,0.6,0.5C214.2,347.9,214.1,347.8,214,347.6z M214.3,348.1L214.3,348.1
		L214.3,348.1L214.3,348.1z M214,347.6h-0.2c0.2,0.2,0.4,0.3,0.6,0.5C214.2,347.9,214.1,347.8,214,347.6z M214.3,348.1L214.3,348.1
		L214.3,348.1L214.3,348.1z M214,347.6h-0.2c0.2,0.2,0.4,0.3,0.6,0.5C214.2,347.9,214.1,347.8,214,347.6z M214.3,348.1L214.3,348.1
		L214.3,348.1L214.3,348.1z M214,347.6h-0.2c0.2,0.2,0.4,0.3,0.6,0.5C214.2,347.9,214.1,347.8,214,347.6z M214.3,348.1L214.3,348.1
		L214.3,348.1L214.3,348.1z M214,347.6h-0.2c0.2,0.2,0.4,0.3,0.6,0.5C214.2,347.9,214.1,347.8,214,347.6z M214.3,348.1L214.3,348.1
		L214.3,348.1L214.3,348.1z"/>
</g>
<path class="st9" d="M400,348.1c-45.5-0.1-90.9-0.1-136.3,0h-5.6c-0.1,0-0.1,0-0.2,0l0,0c-11.3,0-22.5,0-33.8,0h-1.3l0,0l0,0
	c-1.8,0-3.6,0-5.4,0h-3l0,0h-6.2c0,0-0.1,0-0.2,0l0,0c-3.4,0-6.7,0-10.1,0h-6c-4.5,0-9.1,0-13.6,0l0,0c-1.7,0-3.4,0-5.1,0h-2.4
	c-8.5,0-17.1,0-25.7,0H145c-7.4,0-14.7,0-22.1,0H64.4c-4.1-20.5-8.2-41.1-12.3-61.7c-0.1-0.3-0.1-0.7-0.2-1
	c-0.1-0.6-0.2-1.1-0.4-1.7c-1-5-2-10.1-3-15.1c0-0.1-0.1-0.3-0.1-0.4c-2.1-10.3-4.1-20.6-6.2-31c-2.5-12.2-4.9-24.5-7.3-36.7
	c-3-14.7-5.9-29.3-8.9-44l0,0c-0.7-3.4-1.4-6.8-2.1-10.2l0,0c-7.2-36-14.4-71.9-21.6-107.8c-0.1-0.3-0.9-2.4,0.2-4.6
	c1-2,3-2.6,3.3-2.8h78.6c3.7,0.2,10.6,1.1,18,5.2c1.7,0.9,3.2,1.9,4.5,2.9l0,0l0,0l0,0l0,0c2.5,1.8,4.5,3.7,6,5.4
	c1.7,1.8,2.8,3.4,3.5,4.2c1.3,1.7,3.4,4.5,6.2,8.2c0.2,0.2,0.4,0.5,0.6,0.8c0,0,0,0.1,0.1,0.1c0,0,0,0.1,0.1,0.1
	c4.7,6.2,11.2,14.8,19.3,25.5c3.8,5,8,10.5,12.5,16.5c1.9,2.5,3.9,5.1,5.9,7.8l0,0c1,1.3,2,2.7,3.1,4.1l0,0c2.2,2.9,4.5,6,6.9,9.1
	c4.4,5.9,9.1,12,13.9,18.5l0,0c5.7,7.5,11.7,15.5,17.9,23.7c0.9,1.2,1.7,2.3,2.6,3.5c11.1,14.8,23.1,30.6,35.7,47.3
	c1.5,1.9,2.9,3.8,4.4,5.8c0.6,0.8,1.2,1.6,1.9,2.5c0.3,0.4,0.5,0.7,0.8,1.1c0.1,0.2,0.3,0.4,0.5,0.6c21.5,28,54.4,61.8,101.8,87
	c10.1,5.4,20.1,9.9,29.7,13.8c2.6,0.9,10,3.7,15.2,11.4c1.6,2.4,2.7,4.8,3.4,6.8C399.5,344.9,399.8,346.7,400,348.1z"/>
<path class="st3" d="M292,226.7L292,226.7z"/>
<path class="st10" d="M398.7,346.9c-92.1-0.2-184,0.1-276.1,0H64.3c-4.1-20.4-8.2-40.9-12.3-61.5l0,0l-0.6-2.7l0,0l-9.3-46.4
	c-2.5-12.2-4.9-24.4-7.3-36.6C24.1,146,13.3,92.2,2.5,38.4c-0.6-1.5-0.5-3.1,0.2-4.6C3.5,32.5,4.6,31.5,6,31h78.3
	c6.3,0.4,12.4,2.1,17.9,5.2c5.5,3.1,10.3,7.4,14,12.5c3.4,4.5,12.5,16.5,26.1,34.5c3.8,5,8,10.5,12.5,16.4
	c4.9,6.5,10.2,13.4,15.8,20.9c21.1,28,47.3,62.7,76.9,101.9c21.4,28,54.3,62,101.9,87.3c9.6,5.1,19.5,9.7,29.6,13.8
	c6.1,2,11.5,6,15.1,11.4c1.4,2.1,2.5,4.4,3.4,6.8C398.2,343.7,398.5,345.5,398.7,346.9z"/>
</svg>
