<?xml version="1.0" encoding="utf-8"?>
<!-- Generator: Adobe Illustrator 27.0.0, SVG Export Plug-In . SVG Version: 6.00 Build 0)  -->
<svg version="1.1" id="Layer_1" xmlns="http://www.w3.org/2000/svg" xmlns:xlink="http://www.w3.org/1999/xlink" x="0px" y="0px"
	 viewBox="0 0 400 400" style="enable-background:new 0 0 400 400;" xml:space="preserve">
<style type="text/css">
	.st0{fill:#171D4D;}
	.st1{fill-rule:evenodd;clip-rule:evenodd;fill:#56A9B2;}
	.st2{fill-rule:evenodd;clip-rule:evenodd;fill:#5AC098;}
	.st3{fill-rule:evenodd;clip-rule:evenodd;fill:#80B5AF;}
	.st4{fill-rule:evenodd;clip-rule:evenodd;fill:#78B1E0;}
	.st5{fill-rule:evenodd;clip-rule:evenodd;fill:#5EB2E3;}
	.st6{fill-rule:evenodd;clip-rule:evenodd;fill:#4CB0BF;}
</style>
<g id="GA">
	<path class="st0" d="M4,46.9l107.1,233.8l5.3,11.5l27.9,60.9H396L129.6,69C116.4,54.9,98,46.9,78.7,46.9H4z"/>
	<g>
		<path class="st1" d="M109.9,255.7l1.4,2.3c28.2,0,41-0.5,57.4,4.1c17.8,4.6,24.6,11.9,65.6,41.6c9.1,6.4,15,0.5,17.3-2.3
			c-14.6-9.6-27.3-19.6-41-29.7C185.4,255.3,155.4,256.6,109.9,255.7z"/>
		<path class="st2" d="M119.4,272.6l0.9,1.8c23.2,0,32.3,0.5,42.8,3.2c9.6,2.7,20.5,6.9,37.3,20.1c5.5,4.6,12.7,8.7,20.9,14.6
			c8.6,6.9,14.1,1.8,17.8-1.4l-33.7-23.8C177.7,270.3,149.9,273.1,119.4,272.6z"/>
		<path class="st3" d="M129,289.1l0.9,1.8c8.2,0,14.6,0.5,20.5,0.5c5.9,0.5,15.5,1.8,25,7.3c8.2,4.6,18.7,12.3,34.1,23.8
			c5.5,5.5,12.3,2.3,16.8-2.3L196.8,300C184.5,293.6,166.8,288.2,129,289.1z"/>
		<path class="st4" d="M249.6,254.8c4.1,5,5,5,37.8,4.6c1.4-0.5,4.1,1.8,4.1,5c0,0.5-9.1-0.9-12.7-0.5l5,3.2l7.7-1.8
			c4.6-0.5,9.1,0.9,11.8,1.4c5.9,1.8,5.9,5.9,5.9,10.5c-2.7-4.1-12.7-5-26.4,1.4c-0.9,0.5-2.7,1.4-5.5-0.5
			C266.5,270.8,249.2,260.3,249.6,254.8z"/>
		<path class="st5" d="M90.7,222.8l1.4,1.8c20.9,0,36.4-0.5,49.6,0c18.7,0.9,39.2,3.7,60.1,18.3c13.2,9.1,29.1,21,54.2,39.3
			c10.9,7.8,15.9,5.5,20.5,0.5l-55.1-39.8c-18.2-14.6-44.6-20.6-79.7-20.1H90.7z"/>
		<path class="st6" d="M99.8,239.7l1.4,1.8h41.4c12.3,0.5,21.9,2.3,31.9,5.5c16.4,5,30.5,16,69.7,44.8c9.6,8.7,15.5,5.5,20.5,0
			l-51.4-36.6c-22.3-14.2-51.9-16-71-16L99.8,239.7z"/>
	</g>
</g>
</svg>
