<?xml version="1.0" encoding="utf-8"?>
<!-- Generator: Adobe Illustrator 26.0.1, SVG Export Plug-In . SVG Version: 6.00 Build 0)  -->
<svg version="1.1" id="Layer_1" xmlns="http://www.w3.org/2000/svg" xmlns:xlink="http://www.w3.org/1999/xlink" x="0px" y="0px"
	 viewBox="0 0 400 400" style="enable-background:new 0 0 400 400;" xml:space="preserve">
<style type="text/css">
	.st0{fill:#FFFFFF;stroke:#E0E0E0;stroke-width:0.9963;stroke-miterlimit:10;}
	.st1{fill:#87764E;}
	.st2{fill:#86754E;}
	.st3{fill:#887851;}
	.st4{fill:#8B7B55;}
	.st5{fill:#978765;}
	.st6{fill:#BDB39D;}
	.st7{fill:none;stroke:#333333;stroke-width:3;stroke-miterlimit:10;}
</style>
<path class="st0" d="M399.3,347.5c-92.1-0.2-184,0.1-276.1,0l0,0c-19.4,0-38.9,0-58.3,0c-4.1-20.4-8.2-40.9-12.3-61.5l0,0
	c-0.2-0.9-0.4-1.8-0.6-2.7l0,0c-3.1-15.4-6.2-30.9-9.3-46.3c-2.5-12.2-4.9-24.4-7.3-36.6C24.6,146.7,13.9,92.8,3.1,39
	c-0.1-0.3-0.9-2.4,0.2-4.6c1-2,3-2.6,3.3-2.8h78.3c3.7,0.2,10.6,1.1,17.9,5.2c8,4.4,12.6,10.5,14,12.6c3.4,4.5,12.5,16.5,26.1,34.5
	c3.8,5,8,10.5,12.5,16.4c4.9,6.5,10.2,13.5,15.8,20.9c21.1,28,47.3,62.7,76.9,101.9c21.4,28,54.3,62,101.9,87.3
	c10.1,5.4,20,9.9,29.6,13.7c2.6,0.9,10,3.7,15.1,11.4c1.6,2.4,2.7,4.8,3.4,6.8C398.8,344.3,399.1,346.1,399.3,347.5z"/>
<path class="st1" d="M245.5,315.6c0.2,0.1,0.4,0.2,0.6,0.4c3.2,3,6.2,6.3,9.8,9c4.8,3.5,10.4,4.3,16.1,3.5c0.5-0.1,1-0.4,1.8-0.7
	c-1.7-1.1-3.3-2-4.6-3.1c-5.1-4.2-8.8-9.5-12.6-14.6c-4.8-6.6-9.4-13.4-14.4-19.7c-2.8-3.4-6.4-6.1-9.7-9c-4.9-4.3-10-8.5-14.9-12.8
	c-0.6-0.5-0.9-1.2-1.4-1.8c4.2-2.2,8.3-4.3,12.5-6.3c0.4-0.2,1.2,0.2,1.7,0.5c2.1,1.2,4.1,2.4,6.9,0.9c-1.2-0.4-2.1-0.8-3.1-1.2
	c-2.6-1.1-5.1-2.2-7.7-3.2c-0.5-0.2-1.3-0.1-1.8,0.2c-4.6,2.7-9.6,3.7-14.6,4.3c-7,0.8-13.9,1.5-20.9,2.4c-3.3,0.4-6.5,1.3-9.8,1.9
	c-1.3,0.2-1.8,1-2,2c-1.3,4.8-0.9,9.5,0.9,14.3c2.1-1.6,4-3,5.7-4.6c2.8-2.6,6.1-3.7,9.9-3.6c4.1,0.1,8.2,0,12.3,0.1
	c2.2,0.1,3.4,1.5,3.4,3.9c-1.7-1.1-3.2-0.4-4.9,0c-2,0.5-4.3-0.2-6.4-0.4c-0.5,0-1.1-0.3-1.6-0.1c-1,0.4-2.4,0.7-2.7,1.4
	c-0.5,1.2-0.2,2.7,1.1,3.7c1.2,0.9,2.2,2.1,3.3,3c0.4,0.3,1.2,0.3,1.7,0.2c0.7-0.1,1.4-0.5,2.3-0.8c-1.2,2-3.9,3.4-5.7,2.8
	c-4.3-1.4-6.2-4.7-6.6-9.4c-0.6,0.4-1.1,0.5-1.4,0.8c-5.5,5.5-10.9,11.1-16.3,16.5c-0.3,0.3-0.7,0.8-0.7,1.2c-0.1,2.5-1.5,1.9-3,1.5
	c-3.4-1-5.4-3.5-6.6-6.7c-0.2-0.5-0.4-1-0.8-2c-0.7,1.5-1.3,2.5-1.9,3.8c-3.7-4.3-4.3-9.4-4.3-14.5s1.3-10.3,4.1-14.8
	c-0.1-0.1-0.2-0.2-0.4-0.4c-7.6,2.4-15.1,4.7-22.7,7.3c-3.2,1.1-6.3,2.5-9.1,4.3c-3.2,2-4.6,5.4-4.4,9.3c5.5-2.2,10.7-0.2,15.9,0.3
	v0.8c-1,0.1-2.1,0.1-3.1,0.2c-5.2,0.4-10.2,2-14.5,4.9c-5.2,3.5-7.4,8.5-5.8,14.9c4.6-4.8,10.8-5.5,16.6-7.2c2.5-0.7,5-1.3,7.5-2
	c0.1,0.2,0.2,0.4,0.3,0.6c-1.8,1.2-3.6,2.5-5.5,3.7c-4.6,3.1-9.3,5.9-13.7,9.2c-4.6,3.3-7.7,11.1-4.5,17.4c4.2-2.7,8.5-5.4,12.7-8.1
	s8.4-5.3,12.6-8c0.1,0.2,0.3,0.4,0.5,0.6c-7,7-13.9,13.9-20.8,21c2.3,1.6,6,1.9,9.5,0.9c6.7-1.8,12-5.8,17-10.2
	c0.4-0.3,0.8-0.5,1.5-1c-1.4,3.9-6,10-8.4,11c1.8,1.4,3.8,1.3,5.7,1c2.9-0.5,5.3-2,7.1-4.1c3.2-3.8,6.1-7.7,9.2-11.6
	c0.4-0.5,0.9-0.9,1.8-1.1c-0.7,2.9-1.3,5.7-2,8.8c1.8,0.6,3.7,0.3,5.6-0.9c3.3-2,5-5.3,6.5-8.6c2.7-6.3,4-12.8,3.2-19.6
	c0-0.5,0-1.2,0.3-1.5c3.1-3.2,6.3-6.3,9.6-9.4c0.4-0.3,0.9-0.5,1.3-0.7c1.1-0.5,1.6-0.4,1.9,1.1c0.6,3,1.2,6.1,3.9,8.4
	c3.4-2.9,6.7-5.9,10.3-8.5c1.7-1.3,3.9-2.1,5.9-2.9c2.1-0.8,4.3-1.4,6.5-2.2c2.4-0.8,3.5-0.4,4.5,1.5c-1.3,0.7-2.7,1.4-4.1,2
	c-0.6,0.3-1.4,0.4-2.1,0.5c-1.7,0.3-3.4,0.4-5.1,0.7c-2.2,0.5-3,2.3-2.2,4.4c0.8,2.2,2.4,3.7,4.7,4.5c1.2,0.4,2.4,1.1,3.5,1.7
	c-1.4,2.1-4.8,2.5-6.9,0.2c-1.7-1.9-2.8-4.3-4.3-6.7c-3.2,3.4-6.5,6.8-9.8,10.3c-1.2,1.3-3.1,2.2-2.3,4.5c-0.7,0.2-1.5,0.6-2.2,0.5
	c-3.1-0.6-5.3-2.8-7.4-4.9c-0.1-0.1-0.2-0.1-0.3-0.2c-0.7,3.1,5.3,12.2,11.1,15.2c6.2,3.4,12.4,3.1,18.9,1.1
	c-1.8,1.3-3.6,2.5-5.5,3.9c2.5,2.6,5.4,3.2,8.3,3.3c6.1,0.3,11.9-1.3,17.3-3.6c0.4-0.2,1-0.2,1.6,0c-1.4,0.8-2.7,1.6-4.1,2.5
	c6.8,5.6,18.1,7.1,24.1,3.8c-4.1-2.9-6.6-7-8.7-11.4c-0.1-0.2-0.1-0.5-0.2-0.7v0.1L245.5,315.6L245.5,315.6z M191.4,273.3
	c0.2-0.1,0.4-0.3,0.6-0.5c3.4-1.5,6.8-3,10.2-4.5c3.1-1.3,5-0.3,5.7,2.7c-1.2,0.2-2.5,0.3-3.7,0.6c-0.9,0.2-1.7,1-2.6,1.1
	c-3.2,0.3-6.5,0.4-9.7,0.6C191.8,273.3,191.6,273.4,191.4,273.3L191.4,273.3z M141.4,326.2c0.2-0.1,0.5-0.3,0.8-0.4
	c0,0.1,0.1,0.2,0.1,0.3C142,326.2,141.7,326.2,141.4,326.2c-0.2,0.3-0.3,0.7-0.6,0.9c-3.8,3-8,5-12.6,6.1c-1.7,0.4-3.7,0.1-5.7,0.1
	c1.9-3.2,4.3-4,7.6-4.3C134,328.8,137.7,327.3,141.4,326.2z M268.7,326.4c-0.1-0.1-0.3-0.2-0.4-0.3c-1.5-0.6-3-1.1-4.4-1.9
	c-6.2-3.4-10.4-8.8-14.2-14.3c-4.5-6.3-8.6-12.9-12.8-19.3c-1.6-2.4-2.9-4.9-4.4-7.4c0.9,0.1,1.4,0.5,1.9,1c7.3,6,12.2,14,17.7,21.5
	c4,5.3,8,10.5,12,15.7c1.3,1.6,2.8,3.1,4.2,4.7c0.2,0,0.4,0.1,0.5,0.1C268.8,326.2,268.7,326.4,268.7,326.4L268.7,326.4z M131.3,304
	c0.1,0.2,0.2,0.4,0.4,0.6c-1.9,1.7-3.9,3.3-5.8,5.1c-3.4,3.1-5.9,6.8-6.2,11.4c-0.1,2.7-1.6,3.7-4.2,4.7c-0.1-1.8-0.4-3.4-0.2-4.9
	c0.5-4.8,3.1-8.4,6.9-11C125.3,307.8,128.4,306,131.3,304z M115.6,303.2c-0.3-3.7,1-6.8,3.4-9.1c4.4-4.3,10.2-5.6,15.9-6.5
	c-0.7,0.5-1.4,0.8-2.1,1.2c-5.2,2.6-10.2,5.5-12.5,11.4c-0.2,0.5-0.7,0.9-1.2,1.2C118.1,302,116.9,302.6,115.6,303.2z M123.8,283
	c1-2.1,1.3-4,2.5-5.2c3.4-3.3,7.8-4.8,12.3-6c-3.5,2.9-6.9,5.8-9,10c-0.2,0.4-0.9,0.8-1.4,0.9C127,282.9,125.8,282.8,123.8,283z
	 M216,290.7c-2.5,0-5-1.5-7.4,0.4c-0.6-1.7,0.3-2.7,1.6-2.9c3.4-0.4,6.8-0.6,10.2-0.5c1.1,0,2.1,1.4,1.9,2.7
	c-1.2-0.1-2.3-0.1-3.3-0.1C218,290.4,217,290.7,216,290.7L216,290.7z M174,311.7c-0.4,6.8-5.7,13.8-10.5,14.2c0.3-1.7,0.4-3,2.3-4.1
	C169.7,319.6,172.2,316,174,311.7z M155.5,325.2c-2.3,5-9.5,10-12.6,8.2c1.4-1.3,2.6-2.7,4.1-3.6c2.2-1.4,4.5-2.4,6.8-3.5
	C154.2,326,154.6,325.7,155.5,325.2z M132.4,303.3L132.4,303.3h0.2H132.4C132.5,303.5,132.4,303.4,132.4,303.3L132.4,303.3z
	 M155.8,325L155.8,325c-0.1-0.1-0.1-0.2,0-0.2h0.1C155.8,324.8,155.8,325,155.8,325L155.8,325z"/>
<path class="st1" d="M167.3,219.4c-0.2,0.2-0.4,0.4-0.6,0.6c-4.9,2.4-10.2,3.3-15.5,3.6c-10.1,0.7-20,0.1-29.7-2.8
	c-4.1-1.3-8.1-3-12.4-4.6c0.8,2.3,1.4,4.6,2.4,6.7c2.5,5.5,5.7,10.4,10.6,14c4.3,3.4,9.2,5.2,14.4,5.8c2.8,0.3,5.7,0.4,8.5,0.3
	c5.8-0.2,11.4-1.8,16.8-3.7c0.6-0.2,1.2-0.4,1.8-0.3c-11,9.3-23.5,10.3-37.1,6.9c1.5,4.6,4.6,7.5,8.1,10c5.4,3.7,11.6,5.4,18.1,5.9
	c9.7,0.8,18.6-1.6,27.4-5.4c4.8-2,9.4-4.5,14-6.7c2.8-1.3,4.2-0.8,6.4,1.5c1.9,1.9,4,3.7,6.3,5c1.6,0.9,3.7,1.1,5.5,1
	c2.7-0.1,5.3-0.7,8-1.1c0.6-0.1,1.2-0.7,1.8-1c-1.8-2.3-1.8-2.2,0.7-3.7c1.1-0.6,2-1.4,3.3-2.3c-3.8-1.5-6.9-3.3-8.7-7.1
	c1.3-0.7,2.5-1.3,3.7-1.8c0.4,1.7,0.4,3.2,1,4.4c0.6,1,1.9,1.7,3,2.3c1.9,1,3.4,0,4.6-1.4c0.4-0.5,1-0.8,1.5-1.2
	c-0.1,0.7-0.2,1.4-0.3,2.1c0,0.2-0.1,0.4-0.1,0.5c1.9,1.3,3.8,1.2,6-0.4c-2.8-2.6-5-6-8.8-7.2c-2.7-0.8-5.5-1.3-8.3-1.5
	c-3.7-0.2-7.4-0.1-11.1,0.2c-3.3,0.3-6.5,1-9.7,1.6c-2.2,0.4-3.9-0.7-5.6-1.9c-3.3-2.3-4.6-6-6.4-9.3c-2-3.7-3.6-7.8-6-11.1
	c-1.7-2.3-4.5-4-7.2-5.3c-10.2-4.7-20.2-9.4-30.6-13.5c-8.1-3.2-16.5-5.4-24.8-8.1c-6.4-2-12.8-4.1-19-6.2
	c-4.7-1.5-9.4-3.1-14.5-4.8c1.1,3,1.9,5.6,3,8c3.4,6.8,8.2,12.4,14.3,16.9c9.7,7.2,20.7,10.7,32.3,13.1c7.2,1.5,14.3,2.5,21.7,2.2
	c0.4,0.1,0.8,0.1,1.2,0.1c3.1-0.2,6.2-0.3,9.3-0.5C166.9,219.4,167.1,219.4,167.3,219.4L167.3,219.4z M101.2,193.9
	c-4.6-3.4-8.7-7.5-13-11.3c0.1-0.2,0.3-0.4,0.4-0.7c2.1,0.7,4.2,1.6,6.3,2.2c17.8,6,35.8,11.5,53.4,17.9c9.4,3.4,18.1,8.2,27.2,12.5
	c1.7,0.8,3.1,2.2,4.6,3.2c-0.1,0.2-0.2,0.4-0.4,0.6c-1-0.1-1.9-0.3-2.9-0.4c-6.5-1.1-13.1-2-19.4-3.5c-8.5-2-16.9-4.2-25.3-6.7
	C121.3,204.6,110.4,201,101.2,193.9L101.2,193.9z M185.5,228.4c2.5,4.8,4.3,10.2,10.5,12.3c-4.4,1.9-8.5,1.1-10.6-2.2
	c-3.1-5.2-5.2-10.9-5.5-16.9c0-0.7,0.4-1.3,0.5-2c0.2,0,0.5-0.1,0.7-0.1C182.7,222.3,184,225.4,185.5,228.4L185.5,228.4z"/>
<path class="st1" d="M46.4,110.5c-0.2,0-0.4,0-0.5,0c-0.4,2-1.1,4-1.3,6c-0.2,3.6-0.4,7.2-0.2,10.8c0.6,9.9,4.4,18.3,11,25.6
	c7,7.7,15.5,13.2,24.9,17.4c6.5,3,13.1,5.7,19.7,8.2s13.2,4.5,19.7,6.9c5.8,2.1,11.6,4.2,17.2,6.5c7.1,2.8,14.1,5.5,21.1,8.7
	c7.2,3.3,14.1,7.2,21.2,10.8c0.9,0.4,1.6,1.1,2.7,1.9c0.1-0.6,0.3-1.1,0.1-1.6c-2.5-7.6-6.3-14.3-11.6-20.3
	c-7.9-8.9-17.7-14.9-28.2-20.2c-10.2-5.1-20.4-10-30.6-15.1C98,149,84.4,142,71,134.4c-6-3.4-11.5-7.8-16.8-12.2
	C50.7,119.1,47.7,115.3,46.4,110.5L46.4,110.5z M179.4,209.4c0-0.3-0.1-0.6-0.1-0.9c-1.4-1.2-2.8-2.4-4.3-3.4
	c-6.3-4.7-12.6-9.5-19-13.8c-9.5-6.4-19.8-11.3-30.4-15.4c-12.7-5-25.4-9.7-37.6-15.9c-10.4-5.4-20.3-11.4-28.9-19.4
	c-5.5-5.2-10-11-12.1-18.3c-0.7-2.4-0.9-5-1.3-7.4c3.1,3.2,5.9,6.4,8.9,9.3c5.2,4.9,11.3,8.9,17.4,12.3
	c11.9,6.5,23.6,13.1,35.7,19.2c12.6,6.5,25.4,12.5,38,18.9c11.1,5.7,21,13.1,28,23.6c2.2,3.3,3.6,7,5.4,10.6
	C179.2,208.8,179.4,209.1,179.4,209.4C179.6,209.3,179.4,209.4,179.4,209.4L179.4,209.4z"/>
<path class="st2" d="M164.2,180.3c0.1-0.1,0.3-0.2,0.4-0.3c-0.2-0.6-0.4-1.2-0.7-1.8c-5-9-10.8-17.3-17.2-25.2
	c-3-3.7-6.2-7.2-9.8-10.3c-6-5.4-12.2-10.5-18.4-15.4c-6.6-5.2-13.5-9.9-20.2-14.8c-6-4.4-12-8.9-17.9-13.4
	C73.6,94,66.7,89,60.1,83.5c-4.7-4-8.9-8.5-13.2-12.9c-0.6-0.6-0.6-1.8-1-2.7c-0.1-0.4-0.4-0.9-1-1.4c-0.7,1.8-1.7,3.6-2.2,5.4
	c-2.8,9.8-1.6,19,3,28c3.2,6.2,7.4,11.6,12.3,16.5c9.3,9.4,20.1,16.2,31.8,22.1c6.9,3.4,13.6,7.1,20.5,10.7
	c7.6,3.9,15.3,7.6,22.8,11.8c9.2,5.2,18.1,10.8,27.2,16.1C161.6,178.1,162.8,179.2,164.2,180.3L164.2,180.3z M160,175
	c-0.1-0.2-0.1-0.3-0.2-0.5c-0.4-0.2-1-0.4-1.3-0.7c-3-2.7-5.8-5.7-9-8.1c-9.3-7.3-18.4-14.7-28.2-21.5
	c-11.1-7.7-22.7-14.4-34.1-21.7C75.7,115,64.5,107.1,55,97c-4.2-4.5-7.8-9.4-9.7-15.2c-1.1-3.3-1.4-8.7-0.6-11.4
	c1.3,1.4,2.5,3,3.9,4.3C55,80.4,61.4,86.3,68,91.6c5.4,4.4,11.1,8.4,16.6,12.5c5.1,3.8,10.2,7.6,15.2,11.3c4.4,3.3,8.8,6.5,13.2,9.8
	c4.9,3.7,10,7.2,14.6,11.1c8.9,7.3,16.5,15.7,23.3,25c3.1,4.3,5.8,8.8,8.7,13.3C159.8,174.6,159.9,174.8,160,175
	C160.1,175,160,175,160,175L160,175z"/>
<path class="st3" d="M296.5,317.5c0.1-0.3-0.1-0.7-0.1-1.3c-3.2,1.2-6-0.3-8.6-1.3c-12-4.6-23-11.1-33.8-18
	c-0.7-0.4-1.5-0.9-2.1-1.5s-0.9-1.3-1.3-2c-0.3,0.3-0.5,0.5-0.8,0.8c0.1,0.4,0.2,0.8,0.5,1.1c5.5,7.5,10.9,14.9,16.4,22.3
	c3.6,4.7,8.4,8,14.2,8.8C287.5,327.3,293.9,324.6,296.5,317.5L296.5,317.5z M263.5,304.6c10.2,5.6,19.7,10.9,30.5,13.6
	c-0.1,0.1-0.2,0.3-0.3,0.4c-0.4,0.2-0.8,0.4-1.3,0.5c-4.6,1.1-9.3,0.8-13.2-1.8c-5.3-3.5-10.1-7.7-15.1-11.6
	C263.9,305.7,263.9,305.4,263.5,304.6L263.5,304.6z M262.6,304.3L262.6,304.3L262.6,304.3C262.7,304.3,262.7,304.4,262.6,304.3
	C262.7,304.4,262.7,304.3,262.6,304.3z"/>
<path class="st4" d="M242.1,258.6c-0.3,0-0.6,0-1,0c0.2-3.4-2.1-3.4-4.2-3.9c-2.3-0.5-4-0.1-5.1,2.2c-0.1,0.3-0.8,0.6-1.1,0.5
	c-2.4-0.4-4.7-1.1-6.6-3.8c2.6-0.1,4.8-0.4,6.9-0.4c3.1,0.1,6.1-0.1,8.2-3c0.3-0.4,1.3-0.4,1.8-0.2c2.2,0.7,2.9,2.8,3.1,4.5
	C244.3,256,242.8,257.4,242.1,258.6L242.1,258.6z"/>
<path class="st5" d="M268.2,326.1c-1.5-0.6-3-1.1-4.4-1.9c-6.2-3.4-10.4-8.8-14.2-14.3c-4.5-6.3-8.6-12.9-12.8-19.3
	c-1.6-2.4-2.9-4.9-4.4-7.4c0.9,0.1,1.4,0.5,1.9,1c7.3,6,12.2,14,17.7,21.5c4,5.3,8,10.5,12,15.7C265.4,323,266.9,324.5,268.2,326.1
	L268.2,326.1z"/>
<path class="st5" d="M131.7,304.6c-1.9,1.7-3.9,3.3-5.8,5.1c-3.4,3.1-5.9,6.8-6.2,11.4c-0.1,2.7-1.6,3.7-4.2,4.7
	c-0.1-1.8-0.4-3.4-0.2-4.9c0.5-4.8,3.1-8.4,6.9-11c2.9-2.1,6-3.9,9.1-5.9C131.5,304.2,131.6,304.4,131.7,304.6z"/>
<path class="st5" d="M119,294.1c4.4-4.3,10.2-5.6,15.9-6.5c-0.7,0.5-1.4,0.8-2.1,1.2c-5.2,2.6-10.2,5.5-12.5,11.4
	c-0.2,0.5-0.7,0.9-1.2,1.2c-1.1,0.7-2.3,1.2-3.6,1.9C115.3,299.5,116.6,296.5,119,294.1z"/>
<path class="st5" d="M126.2,277.8c3.4-3.3,7.8-4.8,12.3-6c-3.5,2.9-6.9,5.8-9,10c-0.2,0.4-0.9,0.8-1.4,0.9c-1.2,0.2-2.4,0.1-4.4,0.3
	C124.7,280.9,125.1,278.9,126.2,277.8z"/>
<path class="st5" d="M140.8,327.2c-3.8,3-8,5-12.6,6.1c-1.7,0.4-3.7,0.1-5.7,0.1c1.9-3.2,4.3-4,7.6-4.3c3.8-0.3,7.5-1.8,11.3-2.8
	C141.2,326.5,141.1,327,140.8,327.2z"/>
<path class="st5" d="M163.5,325.9c0.3-1.7,0.4-3,2.3-4.1c3.9-2.2,6.3-5.7,8.2-10.2C173.6,318.4,168.3,325.5,163.5,325.9z"/>
<path class="st5" d="M142.8,333.4c1.4-1.3,2.6-2.7,4.1-3.6c2.2-1.4,4.5-2.4,6.8-3.5c0.4-0.2,0.9-0.5,1.7-1.1
	C153.1,330.2,145.9,335.2,142.8,333.4z"/>
<path class="st6" d="M191.4,273.4c0.2-0.1,0.4-0.3,0.6-0.5c0,0.1,0,0.4,0,0.4C191.8,273.3,191.6,273.4,191.4,273.4z"/>
<path class="st5" d="M142.2,325.9c0,0.1,0.1,0.2,0.1,0.3c-0.3,0-0.6,0.1-0.9,0.1C141.6,326.1,141.9,326,142.2,325.9z"/>
<path class="st5" d="M132.5,303.3L132.5,303.3v0.2c-0.1,0-0.1-0.1-0.2-0.1C132.5,303.4,132.5,303.3,132.5,303.3L132.5,303.3z"/>
<path class="st5" d="M155.6,324.9C155.6,324.9,155.6,324.8,155.6,324.9l0.2-0.1C155.8,324.9,155.7,324.9,155.6,324.9L155.6,324.9
	L155.6,324.9z"/>
<path class="st5" d="M268.8,326.2L268.8,326.2c-0.2,0-0.5-0.2-0.5-0.2C268.4,326.1,268.6,326.2,268.8,326.2z"/>
<path class="st5" d="M88.3,182.7c0.1-0.2,0.3-0.4,0.4-0.7c2.1,0.7,4.2,1.6,6.3,2.2c17.8,6,35.8,11.5,53.4,17.9
	c9.4,3.4,18.1,8.2,27.2,12.5c1.7,0.8,3.1,2.2,4.6,3.2c-0.1,0.2-0.2,0.4-0.4,0.6c-1-0.1-1.9-0.3-2.9-0.4c-6.5-1.1-13.1-2-19.4-3.5
	c-8.5-2-16.9-4.2-25.3-6.7c-11-3.3-21.8-6.9-31.1-13.9C96.6,190.6,92.5,186.5,88.3,182.7L88.3,182.7z"/>
<path class="st5" d="M196,240.6c-4.4,1.9-8.5,1.1-10.6-2.2c-3.1-5.2-5.2-10.9-5.5-16.9c0-0.7,0.4-1.3,0.5-2c0.2,0,0.5-0.1,0.7-0.1
	c1.4,3,2.8,6.1,4.3,9.1C188,233.1,189.8,238.5,196,240.6L196,240.6z"/>
<path class="st5" d="M179.3,208.5c-1.4-1.2-2.8-2.4-4.3-3.4c-6.3-4.7-12.6-9.5-19-13.8c-9.5-6.4-19.8-11.3-30.4-15.4
	c-12.7-5-25.4-9.7-37.6-15.9c-10.4-5.4-20.3-11.4-28.9-19.4c-5.5-5.2-10-11-12.1-18.3c-0.7-2.4-0.9-5-1.3-7.4
	c3.1,3.2,5.9,6.4,8.9,9.3c5.2,4.9,11.3,8.9,17.4,12.3c11.9,6.5,23.6,13.1,35.7,19.2c12.6,6.5,25.4,12.5,38.1,18.9
	c11.1,5.7,21,13.1,28,23.6C176.1,201.3,177.5,205,179.3,208.5L179.3,208.5z"/>
<path class="st5" d="M179.7,209.3c-0.1,0-0.2,0.1-0.3,0.1c0-0.3-0.1-0.6-0.1-0.9C179.4,208.7,179.6,209,179.7,209.3z"/>
<path class="st5" d="M159.8,174.5c-0.4-0.2-1-0.4-1.3-0.7c-3-2.7-5.8-5.7-9-8.1c-9.3-7.3-18.4-14.7-28.2-21.5
	c-11.1-7.7-22.7-14.4-34.1-21.7C75.7,115,64.5,107.1,55,97c-4.2-4.5-7.8-9.4-9.7-15.2c-1.1-3.3-1.4-8.7-0.6-11.4
	c1.3,1.4,2.5,3,3.9,4.3C55,80.4,61.4,86.3,68,91.6c5.4,4.4,11.1,8.4,16.6,12.5c5.1,3.8,10.2,7.6,15.2,11.3c4.4,3.3,8.8,6.5,13.2,9.8
	c4.9,3.7,10,7.2,14.6,11.1c8.9,7.3,16.5,15.7,23.3,25C154.3,165.5,156.9,170.1,159.8,174.5L159.8,174.5z"/>
<path class="st5" d="M159.8,174.5c0.1,0.1,0.2,0.3,0.3,0.4C160,175,160,175,160,175C159.9,174.8,159.9,174.7,159.8,174.5
	L159.8,174.5z"/>
<path class="st5" d="M293.9,318.2c-0.1,0.1-0.2,0.3-0.3,0.4c-0.4,0.2-0.8,0.4-1.3,0.5c-4.6,1.1-9.3,0.8-13.2-1.8
	c-5.3-3.5-10.1-7.7-15.1-11.6c-0.2-0.1-0.3-0.5-0.7-1.3C273.5,310.2,283.2,315.4,293.9,318.2L293.9,318.2z"/>
<path class="st5" d="M262.6,304.2L262.6,304.2c0.1,0.1,0.1,0.1,0.1,0.2C262.6,304.4,262.6,304.3,262.6,304.2L262.6,304.2z"/>
<path class="st7" d="M398.7,346.9c-92.1-0.2-184,0.1-276.1,0H64.3c-4.1-20.4-8.2-40.9-12.3-61.5l0,0l-0.6-2.7l0,0l-9.3-46.4
	c-2.5-12.2-4.9-24.4-7.3-36.6C24.1,146,13.3,92.2,2.5,38.4c-0.6-1.5-0.5-3.1,0.2-4.6C3.5,32.5,4.6,31.5,6,31h78.3
	c6.3,0.4,12.4,2.1,17.9,5.2c5.5,3.1,10.3,7.4,14,12.5c3.4,4.5,12.5,16.5,26.1,34.5c3.8,5,8,10.5,12.5,16.4
	c4.9,6.5,10.2,13.4,15.8,20.9c21.1,28,47.3,62.7,76.9,101.9c21.4,28,54.3,62,101.9,87.3c9.6,5.1,19.5,9.7,29.6,13.8
	c6.1,2,11.5,6,15.1,11.4c1.4,2.1,2.5,4.4,3.4,6.8C398.2,343.7,398.5,345.5,398.7,346.9z"/>
</svg>
