<?xml version="1.0" encoding="utf-8"?>
<!-- Generator: Adobe Illustrator 26.0.1, SVG Export Plug-In . SVG Version: 6.00 Build 0)  -->
<svg version="1.1" id="Layer_1" xmlns="http://www.w3.org/2000/svg" xmlns:xlink="http://www.w3.org/1999/xlink" x="0px" y="0px"
	 viewBox="0 0 400 400" style="enable-background:new 0 0 400 400;" xml:space="preserve">
<style type="text/css">
	.st0{fill:#FFFFFF;stroke:#E0E0E0;stroke-width:0.9987;stroke-miterlimit:10;}
	.st1{fill:#054BA3;}
	.st2{fill:#F06533;}
	.st3{fill:#FEFEFE;}
	.st4{fill:#064BA4;}
	.st5{fill:#F8B7A0;}
	.st6{fill:#DAD4DB;}
	.st7{fill:#FDFDFD;}
	.st8{fill:#E2D4D6;}
	.st9{fill:none;stroke:#333333;stroke-width:3;stroke-miterlimit:10;}
</style>
<path class="st0" d="M399,348.1c-92.2-0.2-184.2,0.1-276.4,0l0,0c-19.5,0-38.9,0-58.4,0c-4.1-20.5-8.2-41.1-12.3-61.7l0,0
	c-0.2-0.9-0.4-1.8-0.6-2.7l0,0c-3.1-15.5-6.2-31-9.3-46.5c-2.5-12.2-4.9-24.5-7.3-36.7C23.9,146.5,13.2,92.4,2.4,38.4
	c-0.1-0.3-0.9-2.4,0.2-4.6c1-2,3-2.6,3.3-2.8h78.4c3.7,0.2,10.6,1.1,18,5.2c8,4.4,12.6,10.5,14.1,12.6c3.4,4.5,12.5,16.6,26.1,34.6
	c3.8,5,8,10.5,12.5,16.5c4.9,6.5,10.2,13.5,15.9,21c21.1,28.1,47.4,62.9,77,102.3c21.4,28.1,54.4,62.2,102,87.6
	c10.1,5.4,20.1,9.9,29.6,13.8c2.6,0.9,10,3.7,15.2,11.4c1.6,2.4,2.7,4.8,3.4,6.8C398.5,344.9,398.8,346.7,399,348.1z"/>
<g>
	<path class="st1" d="M127.6,254.7c1.3-3.4,3.9-6,5.7-9.1c0.4-0.6,0.9-1.1,1.3-1.7c3.2-4.3,3.3-4.4,0.2-8.7
		c-4.1-5.7-8.1-11.5-12.2-17.2c-5.2-7.3-10.3-14.7-15.5-21.9c-2.2-2.9-4.1-3.4-6.2-1.4c-0.9,0.8-1.5,1.9-2.1,2.9
		c-6.7,10.3-13.2,20.7-19.6,31.3c-3.6,6-8.4,10.6-14.4,14.1c-1.1,0.6-2.2,1.6-3.6,0.4c0.1-1.4,1-2.4,1.7-3.5
		c11-17.2,21.9-34.4,32.9-51.5c4.7-7.3,10.4-7.4,15.6-0.4c2.4,3.3,4.7,6.6,7,9.9c0.9,1.3,1.7,2,2.8,0.2c2.6-4.2,5.3-8.2,7.8-12.4
		c1.6-2.7,0.8-4.2-2.3-4.9c-1.7-0.4-3.5-0.4-5.7-0.7c3.9-7.2,9.3-11.8,16.8-14.1h5.7c5.1,1.3,8.4,4.6,11,8.9
		c4,6.6,8.2,13.1,12.4,19.7c2.2,3.4,2.2,3.3,4.6,0c2.2-3,4.2-6.1,6.6-8.9c2.4-2.8,6.4-3.4,9.4-1.7c2,1.2,3.3,3.1,4.5,5
		c11.1,17.4,22.2,34.7,33.2,52.1c0.5,0.9,2,1.6,0.9,3c-2-0.1-3.6-1-5.2-2.1c-4.9-3.3-9-7.3-12.1-12.4c-6.2-10.3-12.8-20.4-19.2-30.6
		c-4.6-7.2-6.1-7.2-11-0.2c-17.2,24.4-34.6,48.6-51.6,73c-4.8,6.9-10.3,13.1-17.8,17.2c-1.1,0.4-2.3,0.9-3.2,1.7
		c-0.4,0.3-0.8,0.5-1.3,0.4c-0.8,0.3-1.9,0.4-2.3-0.2c-0.7-1,0.5-1.7,1-2.4C111.5,277.2,119.6,265.9,127.6,254.7L127.6,254.7z"/>
	<path class="st2" d="M105.4,290.5c1.3-0.6,2.5-1.2,3.8-1.7c3.5-1.6,7.2-2.5,10.7-4c5.1-2.2,9.4-5.3,12.7-10
		c14.6-20.9,29.3-41.8,43.9-62.7c1.4-2,2.7-3.9,4.2-5.8c2.9-3.8,4.7-3.7,7.4,0c1.1,1.4,2,3,2.9,4.5c3.9,6.3,8,12.4,11.8,18.8
		c3.8,6.3,8.4,11.3,16.1,12.5c0.9,0.1,2.6,0.3,1.8,2.1c-3,0.2-6.1,0.4-9.1-0.1c-9.4-0.8-16.8-4.8-21.5-13.3
		c-1.5-2.7-3.2-5.3-4.8-7.9c-0.8-1.4-1.6-2-2.8-0.3c-7.4,10.9-15.7,21.3-22.7,32.6c-0.5,3-3.1,4.7-4.4,7.2c-1.1,1.4-2.2,2.8-3.2,4.3
		c-1,1.4-1,2.7-0.1,4.3c3.9,6.9,9.4,11.8,16.9,14.5c3,1.1,6,2.3,9.1,3.2c1.8,0.7,3.6,1.1,5.5,1.2c0.5,0.1,1,0.4,1.3,0.9
		c-5.7,1.6-11.4,0.7-17-0.4c-8.8-1.6-17.9-3-23.2-11.6c-1.1-1.7-1.8-0.3-2.3,0.5c-1.7,2.7-3.8,4.9-6.7,6.3c-9.8,4.8-20.2,5.9-31,5.4
		C105,290.9,105.2,290.7,105.4,290.5L105.4,290.5z"/>
	<path class="st3" d="M109.3,289.3c-0.7,0.2-0.9-0.1-0.7-0.7c8.9-5.2,14.8-13.2,20.6-21.5c16.6-23.8,33.5-47.4,50.3-71
		c3.6-5.1,6.3-5,9.7,0.3c6.4,10.1,13,20,19,30.3c4.4,7.6,10.5,13.2,18.1,17.3c-0.5,0.2-1.1,0.5-1.6,0.7c-1-1-2.6-0.3-3.6-1.3
		c-8-1-13.9-4.8-18-11.9c-4.7-8.2-10-16-15-23.9c-3-4.7-3.7-4.7-6.9-0.3c-15.6,22.2-31.3,44.2-46.6,66.6
		C128.2,283.1,119.2,286.7,109.3,289.3L109.3,289.3z"/>
	<path class="st2" d="M127.6,254.7c-8.1-11.5-16.2-22.9-24.6-34.8c-2.5,4.1-4.9,7.6-6.8,11.4c-4.1,8.2-11.2,11.6-19.7,12.9
		c-1.3,0.2-2.6,0.4-3.9,0.7c-3.4,0.7-6.7,0.3-10.7,0.3c2-2.6,4.1-2.8,6.2-3.1c6.3-1,11-4.3,14.4-9.7c5.4-8.5,10.9-16.9,16.4-25.3
		c3.3-5,5-5,8.4-0.2c8.5,12,16.8,24.1,25.2,36.1c0.7,1,1.5,1.9,1.2,3.2C131.9,249.2,130.1,252.2,127.6,254.7L127.6,254.7z"/>
	<path class="st3" d="M72.7,244.8c-3.6,1.4-7.4,0.7-11.1,0.4c-0.7,0-3.2-0.6-0.4-1.9c0.9,0.2,1.6-0.2,2.3-0.6
		c6-3.5,11-7.9,14.7-13.9c6.4-10.5,13-20.9,19.6-31.3c4.3-6.9,6.5-6.9,11.1-0.4c8.6,12.2,17.3,24.4,25.9,36.5
		c3,4.3,2.8,8.4-0.7,12.4c-0.1,0.1-0.2,0.1-0.3,0.2c-9.2-13.2-18.4-26.4-27.7-39.6c-2.6-3.7-3.4-3.7-5.8,0
		c-5.5,8.5-11.2,16.9-16.5,25.5c-3.7,6-8.8,9.5-15.6,10.8c-1.6,0.3-3.5,0.1-5.3,1.8L72.7,244.8L72.7,244.8z"/>
	<path class="st4" d="M184.1,290.7c-1.6-0.6-3.3-0.7-4.9-1.6c-0.9-0.5-1.9-0.9-2.9-1.5c-9.4-5.9-15.1-15-21.1-23.8
		c-0.3-0.5-0.4-1.1-0.2-1.7c1.2-2.6,2.9-4.9,4.9-6.9c8.4,11.4,16.8,22.9,25.1,34.3c0.3,0.4,0.2,0.9-0.1,1.3
		C184.7,290.8,184.4,290.7,184.1,290.7L184.1,290.7z"/>
	<path class="st5" d="M211.8,244.1c3.1-0.7,6.3,1,9.3-0.7c1.4-0.1,2.9-0.3,3.6,1.3C220.3,244.6,216,245.4,211.8,244.1z"/>
	<path class="st3" d="M160,210.1c-2.3-0.6-3-2.6-4-4.3c-2.4-3.9-4.6-7.8-7-11.6c-2.8-4.6-4.7-4.6-7.8-0.1c-0.3,0.4-0.5,0.8-0.8,1.2
		c-2.6,4.5-5.7,8.7-8.4,13.2c-0.7,1.2-1.3,2.9-3.1,3.1c-3-3.2-3.4-6.7-1.1-10.5c2.6-4.4,5.4-8.7,7.9-13.2c3.3-6,2.8-8-2.7-11.7
		c5.3-4.3,11.4-3.4,15.6,2.7c4.4,6.4,8.4,13,12.6,19.5C163.7,202.5,163.3,206.4,160,210.1L160,210.1z"/>
	<path class="st2" d="M154,218.4c-1.9-0.4-2.4-2.2-3.3-3.5c-1.9-3-3.9-6.1-6.1-9.2c-2.8,3.6-4.7,7.3-7,10.8c-0.8,1.3-1.4,2.8-3.3,3
		c-2.3-2.2-4.1-4.8-5.6-7.7c1.2-1.8,2.4-3.5,3.5-5.3c3-4.7,5.9-9.5,9-14.1c2.6-3.8,4.7-3.7,7.4,0.1c0.7,1,1.3,2,1.9,3
		c3.2,4.9,5.6,10.2,9.3,14.7C158.4,213.1,156.4,215.9,154,218.4z"/>
	<path class="st3" d="M154,218.4c-3,4.2-6.1,8.4-9,12.7c-1.1,1.6-1.8,1.1-2.6-0.1c-2.7-3.9-5.4-7.8-8.1-11.6
		c3.4-5.1,6.8-10.1,10.4-15.5C148,209,151,213.7,154,218.4L154,218.4z"/>
	<path class="st6" d="M109.3,289.3c-1.1,0.9-2.3,1.7-3.9,1.2c0.8-1.1,1.7-1.9,3.2-2C108.8,288.8,109,289.1,109.3,289.3L109.3,289.3z
		"/>
	<path class="st7" d="M179.5,288.6c0,1.3-0.9,0.8-1.6,0.7c-9.1-3.1-18.5-5.6-24.2-14.6c-4.2-6.8-4.5-6.6,1.3-12.6
		C162.1,272,168.3,282.6,179.5,288.6L179.5,288.6z"/>
	<path class="st8" d="M179.5,288.6c1.5,0.7,3.1,1.4,4.6,2.1c-2.2,0.2-4.3-0.3-6.2-1.4C178.4,289.1,179,288.9,179.5,288.6
		L179.5,288.6z"/>
</g>
<path class="st9" d="M398.7,346.9c-92.1-0.2-184,0.1-276.1,0H64.3c-4.1-20.4-8.2-40.9-12.3-61.5l0,0l-0.6-2.7l0,0l-9.3-46.4
	c-2.5-12.2-4.9-24.4-7.3-36.6C24.1,146,13.3,92.2,2.5,38.4c-0.6-1.5-0.5-3.1,0.2-4.6C3.5,32.5,4.6,31.5,6,31h78.3
	c6.3,0.4,12.4,2.1,17.9,5.2c5.5,3.1,10.3,7.4,14,12.5c3.4,4.5,12.5,16.5,26.1,34.5c3.8,5,8,10.5,12.5,16.4
	c4.9,6.5,10.2,13.4,15.8,20.9c21.1,28,47.3,62.7,76.9,101.9c21.4,28,54.3,62,101.9,87.3c9.6,5.1,19.5,9.7,29.6,13.8
	c6.1,2,11.5,6,15.1,11.4c1.4,2.1,2.5,4.4,3.4,6.8C398.2,343.7,398.5,345.5,398.7,346.9z"/>
</svg>
