<?xml version="1.0" encoding="utf-8"?>
<!-- Generator: Adobe Illustrator 27.3.1, SVG Export Plug-In . SVG Version: 6.00 Build 0)  -->
<svg version="1.1" id="Layer_1" xmlns="http://www.w3.org/2000/svg" xmlns:xlink="http://www.w3.org/1999/xlink" x="0px" y="0px"
	 viewBox="0 0 400 400" style="enable-background:new 0 0 400 400;" xml:space="preserve">
<style type="text/css">
	.st0{fill:#FFE105;}
	.st1{fill:#E60011;}
</style>
<g>
	<path class="st0" d="M120.8,163.1c0.6-13.5,8.2-16.1,21.1-23c-22,7.8-28.2,15.5-28.8,23.7c-0.6,8.2,3.5,25.5,56.9,43.7
		c44,15.1,93.2,18.9,108.9,19.8l-13.6-14.5c-27-0.4-41.8-3.8-72.8-9C158.6,198,120.2,176.6,120.8,163.1z"/>
	<path class="st0" d="M100.2,168.5c-1.8-21.2,30.2-30,48.8-35.9c-49.6,5.5-81.4,28.6-65.5,60.8c15.9,32.2,62.5,45.5,102.9,51.6
		c40.4,6.1,84.7,21.8,116.7,34.5c21.1,8.4,42,22.5,53.8,31l-62.5-66.7c-29.4-11.5-90.3-17.5-123.2-25.1
		C135.6,210.5,101.9,189.7,100.2,168.5z"/>
	<path class="st1" d="M356.9,310.5c-11.8-8.6-32.7-22.6-53.8-31c-32-12.7-76.3-28.4-116.7-34.5c-40.4-6.1-87-19.4-102.9-51.6
		c-15.9-32.2,15.9-55.3,65.5-60.8c-18.6,5.9-50.6,14.7-48.8,35.9c1.8,21.2,35.5,42,71,50.2c33,7.7,93.9,13.6,123.2,25.1l-15.5-16.5
		c-15.8-0.9-64.9-4.7-108.9-19.8c-53.3-18.2-57.4-35.5-56.9-43.7c0.6-8.2,6.9-15.9,28.8-23.7c-12.9,6.9-20.4,9.5-21.1,23
		c-0.6,13.5,37.8,35,71.7,40.7c31,5.2,45.8,8.6,72.8,9l-9.1-9.7c-12,0-48.1-0.8-74.2-9.7c-26.2-8.9-49.2-19.6-50.4-35.8
		c-0.6-7.6,9.1-13.6,15.5-15.5c-8.3,8.5-11.5,14.5-3.6,22.3c7.9,7.8,20.6,19.5,67,28.3c10.5,2,26.6,1.3,36.6,0.5l-17-18.2
		c-9.1,1.5-23.9,1-32.8-1.5c-10.5-2.9-28.7-13.1-27-22.4c1.4-7.6,20.3-10.1,27.3-10.8L133,71.6c-13.2-14.1-31.7-22.1-51-22.1H5.7
		l137.9,301h250.7L356.9,310.5z"/>
	<path class="st0" d="M210.4,192.7c-46.4-8.8-59.1-20.5-67-28.3c-7.9-7.8-4.7-13.8,3.6-22.3c-6.4,1.9-16.1,7.9-15.5,15.5
		c1.3,16.2,24.2,26.8,50.4,35.8c26.1,8.9,62.2,9.7,74.2,9.7l-9.2-9.8C237,194,220.8,194.7,210.4,192.7z"/>
	<path class="st0" d="M170.1,151.1c-1.8,9.3,16.5,19.4,27,22.4c8.9,2.5,23.7,3,32.8,1.5l-32.5-34.7
		C190.4,141,171.6,143.6,170.1,151.1z"/>
	<path class="st0" d="M347.4,308.7c0,0-65.3-41-118.4-46.5c-27.1-2.8-64.5,2.4-63.9,23.2s46.7,37,75.3,33.6
		c28.6-3.3,31.7-22.6,15.9-30c-6.7-3.1-16.1-3.1-16.1-3.1s10.4,5.5,7.6,11.6c-2.7,6.1-25.3,6.7-33.9-1.6s-3.9-17.5,9.8-18.2
		C278.2,274.8,347.4,308.7,347.4,308.7z"/>
</g>
</svg>
