<?xml version="1.0" encoding="utf-8"?>
<!-- Generator: Adobe Illustrator 27.0.0, SVG Export Plug-In . SVG Version: 6.00 Build 0)  -->
<svg version="1.1" id="Layer_1" xmlns="http://www.w3.org/2000/svg" xmlns:xlink="http://www.w3.org/1999/xlink" x="0px" y="0px"
	 viewBox="0 0 400 400" style="enable-background:new 0 0 400 400;" xml:space="preserve">
<style type="text/css">
	.st0{fill:#253472;}
	.st1{fill:#22A6DF;}
	.st2{fill:#79CBE7;}
	.st3{fill:#BCE1E9;}
</style>
<g id="J2">
	<path class="st0" d="M300.6,279.1c0,0-118.8-78.3-166.3-117.1c-26-21.2-95.3-77.3-120.4-97.6L7,49.4h27.6
		c15.7,15.8,50.3,49.8,94,88.9c69.4,62.1,159.1,121.2,159.1,121.2s-108.5-92-151.1-136.2c-23.3-24.2-56.4-61.1-67.9-73.9h12.1
		c19,0,37.2,7.9,50.3,21.8l261.4,278.8c-60.5-2-230.2-33-265.9-39.6l-4.6-10.1c121.4,32.7,211.5,36.5,252.2,36.9
		c-148.5-23.2-235.3-49.8-262.2-58.8l-5.6-12.2c126.6,44.5,209.9,55.6,253.8,59.9c-61.7-8.3-230.9-71.1-264.7-83.8l-6.8-14.9
		c107.6,53,210.3,77.4,252,85c-69.6-19.1-226.8-93.9-264.3-112l-9.9-21.6C202,257.5,263.3,278.4,318,296.2
		c-57.9-20.3-238.2-134-268-152.8L35.7,112c23.2,17,58.9,43.4,88.1,65.4C189,226.5,300.6,279.1,300.6,279.1z"/>
	<path class="st1" d="M287.7,259.5c0,0-89.7-59-159.1-121.2c-43.7-39.1-78.4-73.1-94-88.9h34.1c11.5,12.8,44.6,49.7,67.9,73.9
		C179.1,167.5,287.7,259.5,287.7,259.5z"/>
	<path class="st1" d="M122,300.3l-4-8.8l-5.2-11.3l-0.8-1.8c27,9,113.8,35.7,262.2,58.8C333.5,336.8,243.4,332.9,122,300.3z"/>
	<path class="st1" d="M392.5,350c-52.8-0.1-158.6-2.1-256.1-18.3l-9.8-21.4C162.3,317,331.9,347.9,392.5,350L392.5,350z"/>
	<path class="st0" d="M394,351.6H145.5l-9.1-19.8c97.6,16.2,203.3,18.2,256.1,18.3L394,351.6z"/>
	<path class="st1" d="M134.2,162c47.5,38.7,166.3,117.1,166.3,117.1S189,226.5,123.8,177.3c-29.2-22-64.9-48.4-88.1-65.4L13.9,64.4
		C38.9,84.7,108.2,140.8,134.2,162z"/>
	<path class="st2" d="M106.3,266.2l-10.9-23.9c33.8,12.7,203,75.5,264.7,83.8C316.2,321.8,232.9,310.6,106.3,266.2z"/>
	<path class="st2" d="M66.3,178.9l-16.3-35.5c29.7,18.8,210.1,132.5,268,152.8C263.3,278.4,202,257.5,66.3,178.9z"/>
	<path class="st3" d="M88.6,227.4l-12.4-27c37.5,18.1,194.7,92.9,264.3,112C298.8,304.8,196.2,280.4,88.6,227.4z"/>
</g>
</svg>
