<?xml version="1.0" encoding="utf-8"?>
<!-- Generator: Adobe Illustrator 26.0.1, SVG Export Plug-In . SVG Version: 6.00 Build 0)  -->
<svg version="1.1" id="Layer_1" xmlns="http://www.w3.org/2000/svg" xmlns:xlink="http://www.w3.org/1999/xlink" x="0px" y="0px"
	 viewBox="0 0 400 400" style="enable-background:new 0 0 400 400;" xml:space="preserve">
<style type="text/css">
	.st0{fill:#FFFFFF;}
	.st1{fill:none;stroke:#E0E0E0;stroke-width:0.9963;stroke-miterlimit:10;}
	.st2{fill:#014A97;}
	.st3{fill:#0181CB;}
	.st4{fill:#019BDB;}
	.st5{fill:#011688;}
	.st6{fill:none;}
	.st7{fill:none;stroke:#E0E0E0;stroke-miterlimit:10;}
	.st8{fill:#FEFEFE;}
	.st9{fill:none;stroke:#333333;stroke-width:3;stroke-miterlimit:10;}
</style>
<path class="st0" d="M152.7,210c19.5,20.3,38.7,40.4,58,60.5c-20.5,21.1-42,41.6-62.7,62.7c4.6,4.8,9.3,9.6,14,14.4
	c-24.8,0-71.8,0-97.1,0c-19.4-97-38.8-193.9-58.2-290.9c-1.2-6-2.4-11.9-3.6-17.7c-1.3-2.3,0.7-6.8,3.5-7.4h78.3
	c0.9,0.1,1.9,0.1,2.8,0.3c8.1,0.9,17,5,22.8,10.4c26.3,31.2,63.4,83.5,91.4,119.5C185.8,177.6,169.6,193.5,152.7,210z"/>
<path class="st0" d="M383,325.4c0.2,0.1,0.4,0.2,0.5,0.3c-0.1,0-0.3,0.1-0.4,0.1c-0.2-0.3-0.4-0.5-0.6-0.6
	C382.7,325.3,382.8,325.3,383,325.4z"/>
<path class="st1" d="M204.7,165.3c2.7,3.6,5.4,7.2,8.2,10.9C210.1,172.5,207.3,168.9,204.7,165.3z"/>
<path class="st1" d="M152.7,210c19.5,20.3,38.7,40.4,58,60.5c-20.5,21.1-42,41.6-62.7,62.7c4.6,4.8,9.3,9.6,14,14.4
	c-24.8,0-71.8,0-97.1,0c-19.4-97-38.8-193.9-58.2-290.9c-1.2-6-2.4-11.9-3.6-17.7c-1.3-2.3,0.7-6.8,3.5-7.4h78.3
	c0.9,0.1,1.9,0.1,2.8,0.3c8.1,0.9,17,5,22.8,10.4c26.3,31.2,63.4,83.5,91.4,119.5C185.8,177.6,169.6,193.5,152.7,210z"/>
<path class="st1" d="M291.7,269.8c0.8,0.7,1.6,1.4,2.5,2.2C293.3,271.3,292.5,270.5,291.7,269.8L291.7,269.8z"/>
<path class="st1" d="M383.6,325.7c-0.1,0-0.3,0.1-0.4,0.1c-0.2-0.3-0.4-0.5-0.6-0.6C382.8,325.4,383.2,325.5,383.6,325.7z"/>
<g>
	<path class="st2" d="M210.8,270.5c-20.9,20.9-41.8,41.8-62.7,62.7c-19.7-20.4-39.5-40.7-59.2-61.1c-11.2,10.8-21.7,21.1-32.7,31.7
		c-6.6-33.1-13.4-66.2-19.9-99.4c18.9-18.4,37.8-37.7,57.5-54.9c-19.8-20.6-39-40.6-58.7-61.2C29,94.2,22.5,100,16.6,106.2
		c-3.3-16.5-6.6-33-9.9-49.6c10,10.1,19.1,20.7,29.7,30.4C56,69.5,73.9,50.1,93.7,33.2c2.2-0.4,4.5,1.2,6.3,2.2
		c3.5,2.3,7.1,4.6,10.6,7c32.3,41.9,48.8,63.2,54.3,70.4c12.3,16.2,24.7,32.7,37.1,49.1c-16.2,15.8-32.4,31.7-49.3,48.2
		C172.2,230.3,191.4,250.4,210.8,270.5z"/>
	<path class="st2" d="M210.8,270.5c-6.6,7.6-14.8,14.5-21.8,21.8C196.2,285.1,203.5,277.8,210.8,270.5z"/>
	<path class="st3" d="M149,334.1L149,334.1L149,334.1L149,334.1z"/>
	<path class="st4" d="M162,347.5c-9.4,0-18.9,0-28.3,0c3.5-3.5,10.8-10.8,14.4-14.4c0.3,0.3,0.6,0.6,0.9,1c0,0,0,0,0,0.1h0.1
		C153.4,338.6,157.7,343.1,162,347.5z"/>
	<path class="st5" d="M93.8,149.5c-19.7,17.2-38.6,36.5-57.5,54.9c-6.5-32.7-13.2-65.4-19.7-98.2c5.9-6.2,12.5-12,18.5-17.9
		C54.8,108.9,74,128.9,93.8,149.5z"/>
	<path class="st5" d="M94,33.1c-0.1,0-0.2,0-0.3,0.1l0,0l0,0c0,0-21.4,20.1-58.2,54.9c-9.6-10.5-19.2-21-28.8-31.5l0,0
		C5.5,50.7,4.3,44.8,3.1,39c-1.3-2.3,0.7-6.8,3.5-7.4C10.6,31.9,93.9,30.4,94,33.1z"/>
	<path class="st3" d="M399.3,347.5c-78.9-0.2-158.3,0-237.2,0c-4.6-4.8-9.3-9.6-14-14.4c20.7-21,42.2-41.6,62.7-62.7
		c-19.3-20.1-38.5-40.2-58-60.5c16.9-16.5,33.1-32.4,49.3-48.2c28.8,36.8,54,77.1,89.7,108l0,0c26.5,23.9,59,42.5,91.4,56
		c0.2,0,0.3-0.1,0.4-0.1C391.8,329.4,398.7,338.7,399.3,347.5z"/>
	<path class="st3" d="M148.1,333.2c-3.6,3.6-10.8,10.8-14.4,14.4c-6.1,0-61.4,0-68.8,0c-2.9-14.5-5.8-29.1-8.7-43.7
		c11-10.6,21.5-20.9,32.7-31.7C108.6,292.5,128.4,312.8,148.1,333.2z"/>
	<path class="st6" d="M133.7,347.5c-0.6,0.6-1.2,1.2-1.7,1.7"/>
	<path class="st6" d="M166.6,352.2c-1.5-1.6-3-3.1-4.6-4.7"/>
	<path class="st4" d="M302,347.5c-9.4,0-18.9,0-28.3,0c3.5-3.5,10.8-10.8,14.4-14.4c0.3,0.3,0.6,0.6,0.9,1c0,0,0,0,0,0.1h0.1
		C293.3,338.6,297.7,343.1,302,347.5z"/>
</g>
<path class="st7" d="M400,348.1c-92.4-0.2-184.7,0.1-277.1,0l0,0c-19.5,0-39,0-58.5,0c-4.1-20.5-8.2-41.1-12.3-61.7l0,0
	c-0.2-0.9-0.4-1.8-0.6-2.7l0,0c-3.1-15.5-6.2-31-9.3-46.5c-2.5-12.2-4.9-24.5-7.3-36.7C24,146.5,13.2,92.4,2.4,38.4
	c-0.1-0.3-0.9-2.4,0.2-4.6c1-2,3-2.6,3.3-2.8h78.6c3.7,0.2,10.6,1.1,18,5.2c8,4.4,12.6,10.5,14.1,12.6c3.4,4.5,12.5,16.6,26.2,34.6
	c3.8,5,8,10.5,12.5,16.5c4.9,6.5,10.2,13.5,15.9,21c21.2,28.1,47.5,62.9,77.2,102.3c21.5,28.1,54.5,62.2,102.3,87.6
	c10.1,5.4,20.1,9.9,29.7,13.8c2.6,0.9,10,3.7,15.2,11.4c1.6,2.4,2.7,4.8,3.4,6.8C399.5,344.9,399.8,346.7,400,348.1z"/>
<g>
	<path class="st8" d="M132,302.6c-0.7,6.1,0,12.2-0.4,18.6c-6.1,2.2-12.4,2-18.6,1.3c-4.9-0.5-7.8-4.3-8-9.3
		c-0.3-4.7,2.7-8.1,7.6-9.6c3.5-1.1,7.2-0.3,11.3-1.1c-3.9-6.6-9.7-3.9-14.9-3.8c-0.8-2.3-0.4-4.6-0.2-6.8c3.5-2.1,7.3-0.7,10.8-1.6
		c0.8,0.1,1.6,0.3,2.4,0.4c6.2,0.8,8.9,3.6,9.6,9.7C131.7,301,131.9,301.8,132,302.6z M123.4,309.8c-3.1-0.5-5.7-0.6-8.4,0.1
		c-0.4,1.1-1.4,1.8-1.2,3.2c0.5,1.1,1.1,2,2.6,2.6c2.1,0.1,4.5,0.6,7-0.4c0-1,0-1.8,0-2.6C123.4,311.8,123.4,311,123.4,309.8z"/>
	<path class="st8" d="M133.8,322.2c-0.1-1.8-0.2-3.6-0.3-5.2c1.9-2.8,3.6-5.5,5.3-8.1c2.6-3.2,5.2-6.3,8.5-10.2c-4.7,0-8.6,0-12.6,0
		c0-2.8,0-5,0-7.5c8,0,15.9,0,24,0c1.2,1.7,0.3,3.7,0.6,5.6c-5,5.7-10.2,11.2-14.7,17.9c5.1,0,9.7,0,14.5,0c0.7,2.5,0.3,4.7,0.3,7.1
		c-2.3,1.1-4.7,0.2-6.9,0.7C146.3,322.3,140,322.2,133.8,322.2z"/>
	<path class="st8" d="M219.4,309.5c-6.6,0-12.8,0-19.2,0c1.4,4.4,4.7,6.4,9.6,5.8c3.2-0.4,6.4-1.2,9.7-2.5c0,2.7,0,4.9,0,7.6
		c-6.3,2.9-12.7,3.3-19.3,1.3c-7.7-2.3-10.4-10.2-9.4-17.8c1.4-10,9.1-15.3,19-13.3c4.8,0.9,9,5.6,9.6,10.8
		C219.8,303.9,220,306.4,219.4,309.5z M211.3,303.3c-1.5-4.7-2.8-5.9-5.9-5.7c-3.1,0.2-4.3,1.6-4.8,5.7
		C204,303.3,207.5,303.3,211.3,303.3z"/>
	<path class="st8" d="M163.6,294.7c0.5-0.1,0.9-0.5,1-1c0.5-0.1,0.9-0.4,1.1-0.9c3.1-1.6,6.4-2.6,10-2.4c7.4,0.4,12.4,5,12.9,12.4
		c0.1,2.1,0,4.2,0,6.7c-6.6,0-12.9,0-19.3,0c1.7,6.6,6,7.3,18.9,3.6c0.1,0.5,0.3,1,0.3,1.4c0,1.8,0,3.6,0,6
		c-7.4,2.9-14.7,3.7-22,0.1c-6.2-3-7.8-11.6-6.7-17.4c0.5-2.6,1.8-5,2.8-7.4C163.3,295.6,163.5,295.2,163.6,294.7z M180.2,303.3
		c0-2.9-1.5-4.5-3.7-5.6c-5.7-0.1-6.8,0.8-6.7,5.6C173.3,303.3,176.7,303.3,180.2,303.3z"/>
	<path class="st8" d="M267.6,318.6c-0.1,0.8-0.2,1.6-0.4,2.5c-4.7,2-9.7,1.4-14.5,2c-1.4-0.7-2.9-0.3-4.4-0.6
		c-4.4-0.9-7.5-4.2-7.8-8.4c-0.4-5.2,1.9-8.8,6.6-10.3c2.4-0.7,4.8-1.3,7.3-1.1c1.3,0.1,2.6,0.6,4-0.5c-0.3-3.9-3.6-3.5-6.1-4.3
		c-2.8-0.9-5.5,1.2-8.4,0.3c0-2.2,0-4.3,0-6.8c5.5-1.4,11.1-1.9,16.6-0.3c5.2,1.6,6.7,6,6.9,10.9
		C267.6,307.7,267.5,313.1,267.6,318.6z M258.5,309.6c-3.2-0.1-6-0.9-8.5,0.8c-0.8,1.7-1,3.3,0.7,4.8c2.5,0.7,5.1,1,7.8,0
		C258.5,313.4,258.5,311.8,258.5,309.6z"/>
	<path class="st8" d="M230.7,322.1c-3.3,0-5.9,0-9.1,0c0-4.9,0-9.7,0-14.5s0-9.6,0-14.7c6.7-2.8,13.4-3,20.3-1.4
		c0.5,2.5,0.3,4.6,0.2,7c-3.8,0.5-7.5-1.2-11.3,0.5C230.7,306.4,230.7,314,230.7,322.1z"/>
	<path class="st8" d="M255.6,261.7c1.6-0.1,2.6-0.3,3.5,0.2c0.2,0.3,0.5,0.6,0.5,0.8c0,3.5,0.1,7,0.1,10.5c-0.1,5-1.6,6.4-6.7,6.4
		c-4.5,0.1-9,0-13.6,0c-1.4,3.3-3,6.2-7,5.8c-1.1-0.8-0.8-1.8-0.7-2.7c0.4-1.4,2.5-1.1,2.9-3.8c0-2.7,0-6.5,0-10.1
		c1.1-1.3,2.2-0.9,3.6-0.7c1.2,2.4,0,5.2,0.8,8c3.1,1,6.3,0.2,9.4,0.4c0.7-1.7,0.7-3,0.1-4.3c-2-1.5-4.5-0.1-6.5-0.9
		c-0.4-1-0.4-1.8,0.2-2.7c3.3-1.5,6.5-1.2,9.4,0.7c1.8,2.2,1.1,4.7,2,6.9c2.1-1.6,2.1-1.6,2.1-6.6
		C255.6,266.9,255.6,264.3,255.6,261.7z"/>
	<path class="st8" d="M215.6,268.6c1.6-0.9,2.7-0.8,4-0.2c1.4,2.3,0,5.1,0.9,7.7c1.3,0.9,2.8,0.6,4.2,0.2c2.6-2.2,1.4-5.3,2-7.8
		c1.3-0.8,2.4-0.8,3.5-0.1c1.2,9.6,0.3,10.6-9.5,11.6c-1.3,0.8-0.7,2.6-1.9,3.4c-1.5,1.4-3.1,2.4-5.3,2c-1.2-0.7-0.6-1.8-0.8-2.4
		c0.4-1.7,2.2-1.3,2.7-2.8c0.5-1.7,0.2-3.7,0.2-5.6C215.7,272.7,215.6,270.7,215.6,268.6z"/>
	<path class="st8" d="M212.2,268.9c0,3.3,0,6.2,0,9.2c-4,1.2-7.8,2-11.7-0.3c-1.3-1.1-1.7-2.7-2-4.1
		C200.8,268.1,201.7,267.8,212.2,268.9z M207.4,271.8c-1.9-0.2-4-0.8-4.4,2.1c1.3,1.9,2.9,1.9,4.5,1.3
		C208.3,274,208.3,273.1,207.4,271.8z"/>
	<path class="st8" d="M263,262.1c1.4-0.9,2.7-0.4,4.2-0.3c0,5.8,0,11.4,0,17.2c-1.1,1.3-2.6,0.6-4.2,0.5
		C263,273.6,263,268,263,262.1z"/>
	<path class="st8" d="M275.9,310.5c1.7,1.8,3.5,3.7,5.2,5.6c-1.6,1.6-3.5,3.5-5.6,5.6c-2.1-1.2-3.7-3.6-5.9-5.5
		C271.6,314.3,273.5,312.5,275.9,310.5z"/>
	<path class="st8" d="M204.9,266.7c-1.5-1.4-1.5-2.5-1-3.8c2.2-0.6,4.5,0.6,6.4-0.3c1.8,1.6,1.3,2.7-0.5,3.9
		C208.2,265.6,206.3,265.4,204.9,266.7z"/>
	<path class="st8" d="M191.2,276.9c0.6-1.3,1.3-2,2.4-2.5c1.4,0.1,2.1,1.2,2.8,2.4c-0.6,1.2-1.5,2.1-2.7,2.7
		C192.4,279,191.8,278.1,191.2,276.9z"/>
	<path class="st8" d="M84.5,322.2c1.1-2.6,2-4.9,3-7.2c1.6-0.3,3.1-0.5,4.3-0.7c2.4-1.8,2.8-4.2,2.8-6.8c0-6.3,0-12.6,0-18.9
		c0-1.6,0-3.3,0-5.1c3.2,0,5.9,0,9.1,0c0,4,0,7.7,0,11.5c0,5.3,0,10.6-0.1,15.9c-0.1,6.5-4.8,11.2-11.2,11.6
		C89.9,322.8,87.4,323,84.5,322.2z"/>
</g>
<path class="st9" d="M398.7,346.9c-92.1-0.2-184,0.1-276.1,0H64.3c-4.1-20.4-8.2-40.9-12.3-61.5l0,0l-0.6-2.7l0,0l-9.3-46.4
	c-2.5-12.2-4.9-24.4-7.3-36.6C24.1,146,13.3,92.2,2.5,38.4c-0.6-1.5-0.5-3.1,0.2-4.6C3.5,32.5,4.6,31.5,6,31h78.3
	c6.3,0.4,12.4,2.1,17.9,5.2c5.5,3.1,10.3,7.4,14,12.5c3.4,4.5,12.5,16.5,26.1,34.5c3.8,5,8,10.5,12.5,16.4
	c4.9,6.5,10.2,13.4,15.8,20.9c21.1,28,47.3,62.7,76.9,101.9c21.4,28,54.3,62,101.9,87.3c9.6,5.1,19.5,9.7,29.6,13.8
	c6.1,2,11.5,6,15.1,11.4c1.4,2.1,2.5,4.4,3.4,6.8C398.2,343.7,398.5,345.5,398.7,346.9z"/>
</svg>
