<?xml version="1.0" encoding="utf-8"?>
<!-- Generator: Adobe Illustrator 27.0.0, SVG Export Plug-In . SVG Version: 6.00 Build 0)  -->
<svg version="1.1" id="Layer_1" xmlns="http://www.w3.org/2000/svg" xmlns:xlink="http://www.w3.org/1999/xlink" x="0px" y="0px"
	 viewBox="0 0 400 400" style="enable-background:new 0 0 400 400;" xml:space="preserve">
<style type="text/css">
	.st0{fill:#FFFFFF;stroke:#939393;stroke-width:0.8166;stroke-miterlimit:10;}
	.st1{fill:#E41E26;}
</style>
<g id="JL">
	<path class="st0" d="M5.9,48.5l106,231.4l5.2,11.4l27.6,60.3h249.2L130.3,70.3C117.3,56.4,99,48.5,79.9,48.5H5.9z"/>
	<g>
		<path class="st1" d="M163.6,159.7c2.9,0,5.9,0,8.8,0c0.7,0.2,1.4,0.4,2.1,0.5c16.9,2,30.7,9.6,41.4,22.8c0.9,1.1,1.5,2.3,1.8,3.7
			c2.6,11.9,0.9,23.2-4.9,33.9c-0.4,0.7-1.1,1.4-1,2.6c3.8-4.5,6.3-9.4,8-14.8c1.6-5.3,2-10.7,1.9-16.3c2.4,4,4,8.1,5.3,12.5
			c0.3,1.1,0.3,2.2,0.2,3.4c-1.1,8.6-4.5,16.2-10,22.8c-0.4,0.5-1.1,0.9-1.1,2c6.2-5.2,10.3-11.4,12.5-18.9
			c2.9,11.5-1.6,20.4-9.7,28c3.4-1.8,6.1-4.3,8.7-7.4c-4.1,22.7-27.1,49.1-62.6,47.9c-26.2-0.8-54.8-24.6-56.6-47.9
			c2.5,3,5.2,5.6,8.5,7.4c-4.6-4.4-7.9-9.6-10.4-15.5c0-3.6,0-7.2,0-10.8c0.2-0.5,0.5-0.9,0.8-1.5c2.2,7.6,6.4,13.8,12.5,18.6
			c-0.3-0.7-0.7-1.2-1.2-1.8c-4.2-5.1-7-11-9-17.3c-2.6-8.1,0.9-14.7,4.5-21.4c-0.2,5.7,0.3,11.3,2,16.7c2,6.1,5.6,12.5,8.6,14.7
			c-0.6-0.9-1-1.6-1.4-2.3c-4.7-8.2-7-17.1-6.4-26.6c0.3-4.1,0.2-8.4,3.1-11.9c8.7-10.7,19.7-17.9,33.1-21.2
			C156.7,160.8,160.2,160.3,163.6,159.7z M138,185.6c0-0.1,0-0.2,0-0.3c8.7-0.8,17.4-1.7,26.1-2.4c1.7-0.1,3-0.6,4.3-1.9
			c4.7-4.5,11.5-4.8,16.2-0.6c2.8,2.6,5.3,5.5,7.9,8.4c-3.4,2.1-6.5,4.2-9.5,6.5c-3,2.3-5.8,4.8-8.4,7.6c-3.5,3.8-6.5,7.8-7.9,12.8
			c-2.5,8.7,2.2,16.7,11,18.7c7.1,1.6,13.1-0.8,18.1-5.7c12.1-11.7,15.1-30.7,7.3-46c-7.7-15.3-24.9-23.9-41.6-21
			c-16.1,2.8-28.6,14.7-32.2,30.6c-3.5,15.4,2.6,31.4,15.7,40.8c1.1,0.8,1.8,1.8,2.2,3.1c0.7,2.4,1.5,4.7,3.3,6.9c0-0.5,0.1-0.8,0-1
			c-2.9-9.9-0.9-19.1,4.5-27.7c3.9-6.4,9.2-11.5,15-16.1c1.4-1.1,2.9-2.2,3.7-3.8c1.2-2.3,0.7-4.6-1.4-6c-1.1-0.8-2.4-1-3.7-1
			C158.6,186.9,148.3,186.2,138,185.6z M156.4,266c3.7-0.1,7.1,1.2,9.2-2.5c0.5-1,6.9-1.4,7.7-0.7c0.3,0.3,0.4,0.7,0.4,1.1
			c-0.2,2,0.9,2.3,2.5,2.2c1.4-0.1,2.8-0.1,4.2,0c1.5,0.1,2.1-0.4,1.9-2c-0.5-4.7-1-9.4-1.4-14.2c-0.1-1.3-0.8-1.5-1.9-1.6
			c-4.9-0.6-9.1,0.3-11.7,5c-0.6,1-1.6,1.9-2.4,2.8C162.2,259.3,159.5,262.5,156.4,266z M194.6,262.3c0.1-0.6,0.2-1,0.3-1.4
			c1.4-3.6,2.7-7.2,4.1-10.7c0.5-1.2,0.4-1.8-1.1-1.8c-1.8,0.1-3.6,0-5.4,0c-0.9,0-1.5,0.3-1.9,1.2c-1.9,5-3.9,10.1-5.8,15.1
			c-0.3,0.7-0.4,1.4,0.6,1.4c5.7,0,11.4,0.1,17.2,0c1.7,0,1.8-1.9,1.9-3c0.1-1.3-1.3-0.7-2.1-0.7C200,262.2,197.4,262.3,194.6,262.3
			z M144.9,266.7c5-0.1,9.5-0.7,11.8-5.5c1.7-3.7,3-7.6,4.5-11.4c0.4-1,0.2-1.5-1-1.5c-1.9,0-3.8,0-5.6,0c-1.1,0-1.6,0.5-1.9,1.5
			c-0.9,2.5-1.9,4.9-2.8,7.3c-1.7,4.4-2.7,5.3-7.4,5.1c-2.4-0.1-2.5,1.7-2.7,3c-0.3,1.7,1.5,1,2.3,1.2
			C143.1,266.6,144.1,266.6,144.9,266.7z"/>
		<path class="st1" d="M169.3,258.8c1.4-1.7,2.5-3.1,3.7-4.7C174,259.2,173.9,259.2,169.3,258.8z"/>
	</g>
</g>
</svg>
