<?xml version="1.0" encoding="utf-8"?>
<!-- Generator: Adobe Illustrator 27.0.0, SVG Export Plug-In . SVG Version: 6.00 Build 0)  -->
<svg version="1.1" id="Layer_1" xmlns="http://www.w3.org/2000/svg" xmlns:xlink="http://www.w3.org/1999/xlink" x="0px" y="0px"
	 viewBox="0 0 400 400" style="enable-background:new 0 0 400 400;" xml:space="preserve">
<style type="text/css">
	.st0{fill:#41C6EA;}
	.st1{fill:#FFFFFF;}
	.st2{fill:#ED3238;}
	.st3{fill:#352E8B;}
</style>
<g id="_KE">
	<path class="st0" d="M5.1,47.8l106.5,232.4l5.2,11.4l27.7,60.5h250.3L130.1,69.8c-13.1-14-31.5-21.9-50.6-21.9H5.1z"/>
	<g>
		<path class="st1" d="M234.4,220.1c-0.9-5-2.9-9.7-5.4-14.1c-1.4-2.6-3-5.2-4.9-7.5c-4-4.8-8.6-8.9-13.9-12.2
			c-6-3.7-12.4-6-19.5-6.1c-3.4-0.1-6.8,0.3-10,1.4c-3.7,1.2-6.1,3.9-7.8,7.2c-1.9,3.6-2.7,7.5-3.1,11.4c-0.3,3.1-0.3,6.2-0.2,9.3
			c0.1,4.8-1.1,9.4-3.4,13.7c-3.9,7.4-9.9,12.5-17.9,14.9c-10.2,3.1-19.8,1.4-28.2-5.2c-6.5-5.1-10.3-11.9-11.3-20.1
			c-0.6-4.9-0.4-9.9,0.2-14.9c0.7-6.4,3.5-12.1,6.7-17.5c1.5-2.6,3.3-5,5.1-7.2c-5.5,5.5-10,11.8-13.4,18.8c0,0,0.1,0,0.2-0.1
			c-0.3,1.4-0.6,2.7-0.8,4c-1.5,7.6-2.2,15.3-1.8,23c0.4,7.9,3.1,15.1,7,21.8c5.6,9.6,13.6,16.5,23.7,21c7.1,3.2,14.5,4,22.1,2.2
			c4.3-1,7.2-3.6,9.3-7.4c1.9-3.5,2.7-7.3,3.2-11.2c0.4-3.5,0.3-7,0.3-10.5c0-4.6,1.3-8.9,3.5-12.9c5-9.1,12.6-14.5,22.9-16
			c14-2,27.5,6,32.6,19.1c1.4,3.5,2.1,7.2,2.1,11c0,4.6,0.1,9.3-0.8,13.8c-0.4,2.1-1.2,4.1-2,6.1c-2.2,5.6-5.1,10.7-8.8,15.3
			c5.1-5.2,9.3-11.2,12.6-17.8c0.9-4.2,1.6-8.3,2.1-12.5C235.4,233.9,235.6,227,234.4,220.1z"/>
		<path class="st2" d="M220.7,174.7c-1.2-1.3-2.5-2.6-3.8-3.7c0,0,0,0-0.1-0.1c-3.6-3.2-7.5-6-11.7-8.5c-1.9-1.2-3.9-2.2-5.9-3.1
			c-8.9-4.1-18.8-6.4-29.3-6.4c-19.3,0-36.7,7.8-49.3,20.4c-1.8,2.2-3.6,4.6-5.1,7.2c-3.2,5.4-6,11.1-6.7,17.5
			c-0.6,4.9-0.8,9.9-0.2,14.9c1,8.2,4.8,15,11.3,20.1c8.5,6.6,18,8.3,28.2,5.2c8-2.4,14-7.6,17.9-14.9c2.3-4.2,3.5-8.8,3.4-13.7
			c-0.1-3.1-0.1-6.2,0.2-9.3c0.4-4,1.3-7.9,3.1-11.4c1.7-3.3,4.2-6,7.8-7.2c3.2-1.1,6.6-1.5,10-1.4c7.1,0.1,13.5,2.4,19.5,6.1
			c5.3,3.3,10,7.3,13.9,12.2c1.9,2.3,3.4,4.9,4.9,7.5c2.5,4.4,4.5,9.1,5.4,14.1c1.3,6.9,1.1,13.9,0.3,20.8
			c-0.5,4.2-1.2,8.4-2.1,12.5c4.6-9.3,7.2-19.8,7.2-30.8C239.7,204,232.5,187.2,220.7,174.7z"/>
		<path class="st3" d="M230.7,249.9c0.8-4.6,0.8-9.2,0.8-13.8c0-3.8-0.7-7.5-2.1-11c-5.2-13.1-18.7-21.1-32.6-19.1
			c-10.3,1.5-17.9,6.9-22.9,16c-2.2,4-3.5,8.4-3.5,12.9c0,3.5,0.2,7-0.3,10.5c-0.5,3.9-1.3,7.7-3.2,11.2c-2,3.8-5,6.4-9.3,7.4
			c-7.6,1.8-15,1-22.1-2.2c-10-4.5-18-11.5-23.7-21c-4-6.8-6.6-13.9-7-21.8c-0.4-7.8,0.3-15.4,1.8-23c0.3-1.3,0.6-2.6,0.8-4
			c-0.1,0.1-0.2,0.1-0.2,0.1c-4.5,9.2-7,19.6-7,30.5c0,19.2,7.8,36.7,20.4,49.3c0.1,0.1,0.3,0.3,0.4,0.4c0.8,0.8,1.6,1.6,2.4,2.3
			c0.9,0.8,1.8,1.6,2.7,2.3c0.2,0.2,0.5,0.4,0.7,0.6c1,0.8,2,1.6,3.1,2.3c0.1,0.1,0.2,0.2,0.3,0.2c2.4,1.7,4.9,3.2,7.5,4.5
			c0.3,0.2,0.6,0.3,0.9,0.5c0.9,0.5,1.8,0.9,2.7,1.3c8.7,3.9,18.4,6.1,28.5,6.1c19.6,0,37.4-8.1,50-21.2c3.7-4.5,6.6-9.7,8.8-15.3
			C229.5,253.9,230.4,252,230.7,249.9z"/>
	</g>
</g>
</svg>
