<?xml version="1.0" encoding="utf-8"?>
<!-- Generator: Adobe Illustrator 27.0.0, SVG Export Plug-In . SVG Version: 6.00 Build 0)  -->
<svg version="1.1" id="Layer_1" xmlns="http://www.w3.org/2000/svg" xmlns:xlink="http://www.w3.org/1999/xlink" x="0px" y="0px"
	 viewBox="0 0 400 400" style="enable-background:new 0 0 400 400;" xml:space="preserve">
<style type="text/css">
	.st0{fill:#302F3F;}
	.st1{fill:#FFFFFF;}
	.st2{fill:#066D3C;}
	.st3{fill:#EC2226;}
</style>
<g id="KQ">
	<path class="st0" d="M225.8,171.6L129.6,69C116.4,54.9,98,46.9,78.7,46.9H4l0.8,1.7c14,10.9,61.2,46.7,107,72
		C143.5,138.1,200.8,161.6,225.8,171.6z"/>
	<path class="st1" d="M230.4,176.4l-4.6-4.9c-25-10-82.4-33.4-114.1-51c-45.8-25.3-93-61.1-107-72l4.1,9
		C27,71.1,69.9,102.2,110.9,126C151.7,149.6,207.5,169,230.4,176.4z"/>
	<path class="st2" d="M259,316.3c-25.5,6.6-29.8,16.6-70.6,22.7c-23.8,3.6-40.4,2.3-50.3,0.7l6.1,13.4h222.3
		C318.3,307.3,274.7,312.2,259,316.3z"/>
	<path class="st3" d="M188.6,333.7c40.8-6.1,45.2-16.1,70.6-22.7c16.3-4.3,64-10.1,114.7,42.1H396L230.4,176.4
		c-22.9-7.4-78.7-26.8-119.5-50.5C69.9,102.2,27,71.1,8.8,57.5l102.3,223.2l5.3,11.5l19.1,41.7C144.8,335.8,162.3,337.7,188.6,333.7
		z"/>
	<path class="st1" d="M259.3,311c-25.5,6.6-29.8,16.6-70.6,22.7c-26.3,3.9-43.9,2-53.2,0.1l2.7,5.8c9.9,1.7,26.5,2.9,50.3-0.7
		c40.8-6.1,45.2-16.1,70.6-22.7c15.7-4.1,59.3-9,107.5,36.8h7.4C323.3,301,275.6,306.8,259.3,311z"/>
	<g>
		<path class="st1" d="M256.9,275.9c-0.4,25.1-23.4,28.8-38.9,21.8c-4.7-2.1-8-1.7-12.6,0.5c-20.1,9.3-40.6,9.5-59.8-2.1
			c-17.1-10.4-24.8-27.2-23.4-46.6c2-28.9,18.1-48.7,44.5-60.3c13.7-6,27.7-7.7,42.3-3.2c32.7,10,47.3,46.1,31.5,78.3
			c-2.8,5.7-6.8,10.6-10.8,16.5C239.8,282.9,248.4,281.1,256.9,275.9z M186.5,248.4c11.1,9,21.8,17.7,32.6,26.3
			c2.2,1.8,3.6,0.1,5-1.3c8.2-7.9,14-17.2,16.6-28.4c7.2-30.5-11.5-53-42.8-51.8c-30.2,1.2-60.5,27-66.6,56.7
			c-4.8,23.8,7.6,43.8,30.7,48.3c13.5,2.7,26.4-0.6,38.7-6.5c3.5-1.7,2.1-2.8,0.2-4.5c-10-8.9-17.3-19.6-21.9-32.1
			c-0.5-1.2-0.6-3.1-2.2-3.1c-1.6,0-2.1,1.7-2.6,2.9c-3.5,8.5-5.8,17.1-1.8,26.6c-6.2-0.3-11.5-0.8-16.9-0.7c-3.4,0-4.4-1.5-4.6-4.6
			c-0.7-9.9,1.1-19.4,4.7-28.5c3-7.6,6.2-15,9.2-22.6c0.6-1.4,2.1-3.6,0.9-4.4c-5.3-3.3-0.2-4.5,1.2-5.6c4.9-4,10.8-5.8,17-6.7
			c5.6-0.9,7.2,1.3,5.3,6.6c-1.8,5.3-4.6,10.3-5.8,17.3c12.8-8.8,25.5-15.4,35.8-25.6c1.2-1.2,2.5-3.4,4.2-2.8
			c2,0.6,2.3,3.2,2.6,5.1c1.4,10-0.4,19-8.9,25.7c-6,4.8-12.5,8.3-19.9,10.2C194,245.7,190.3,245.7,186.5,248.4z"/>
	</g>
</g>
</svg>
