<?xml version="1.0" encoding="utf-8"?>
<!-- Generator: Adobe Illustrator 26.0.1, SVG Export Plug-In . SVG Version: 6.00 Build 0)  -->
<svg version="1.1" id="Layer_1" xmlns="http://www.w3.org/2000/svg" xmlns:xlink="http://www.w3.org/1999/xlink" x="0px" y="0px"
	 viewBox="0 0 400 400" style="enable-background:new 0 0 400 400;" xml:space="preserve">
<style type="text/css">
	.st0{fill:#FFFFFF;stroke:#E0E0E0;stroke-miterlimit:10;}
	.st1{fill:#31AAE3;}
	.st2{fill:url(#SVGID_1_);}
	.st3{fill:#0C67BB;}
	.st4{fill:url(#SVGID_00000165935956448633154520000005895995830153177490_);}
	.st5{fill:#FEFEFE;stroke:#E2E2E2;stroke-width:1.0597;stroke-miterlimit:10;}
	.st6{fill:none;stroke:#E0E0E0;stroke-miterlimit:10;}
	.st7{fill:none;stroke:#333333;stroke-width:3;stroke-miterlimit:10;}
</style>
<path class="st0" d="M400,348.1c-31-0.1-62-0.1-92.9-0.1h-11.8c-5.1,0-10.2,0-15.3,0l0,0c-52.3,0-104.7,0.1-157,0H64.4
	c-4.1-20.5-8.2-41.1-12.3-61.7c-0.2-0.9-0.4-1.8-0.6-2.7c-3.1-15.5-6.2-31-9.3-46.5c-2.5-12.2-4.9-24.5-7.3-36.7
	C24,146.5,13.2,92.4,2.4,38.4c-0.1-0.3-0.9-2.4,0.2-4.6c1-2,3-2.6,3.3-2.8h78.6c3.4,0.2,9.5,1,16.1,4.2c0.6,0.3,1.2,0.6,1.9,1
	c8,4.4,12.6,10.5,14.1,12.6c3.4,4.5,12.5,16.6,26.2,34.6c3.8,5,8,10.5,12.5,16.5c4.9,6.5,10.2,13.5,15.9,21
	c21.2,28.1,47.5,62.9,77.2,102.3c21.5,28.1,54.5,62.2,102.3,87.6c10.1,5.4,20.1,9.9,29.7,13.8c2.6,0.9,10,3.7,15.2,11.4
	c1.6,2.4,2.7,4.8,3.4,6.8C399.5,344.9,399.8,346.7,400,348.1z"/>
<g>
	<path class="st1" d="M295.3,348c0.3,0.3,0.6,0.6,0.8,0.8L295.3,348c-0.6-0.6-1.2-1.2-1.8-1.8c-0.9-0.9-1.8-1.9-2.8-2.9
		c-0.8-0.8-1.5-1.6-2.3-2.4c-23.9-24.8-70-75.6-114.7-140c-2.3-3.3-4.5-6.6-6.8-9.9l0,0c-4.8-7.1-9.6-14.4-14.3-21.8l0,0
		c-1.9-3-3.8-6-5.7-9c-4.7-7.5-9.3-15.2-13.8-23c-1.3-2.2-2.5-4.4-3.8-6.6c-1.9-3.3-3.7-6.6-5.6-10C108,91.9,93.9,61.8,82.8,31h1.7
		c3.4,0.2,9.5,1,16.1,4.2C166.5,207.6,274.9,317.9,307.1,348H295.3z"/>
	
		<linearGradient id="SVGID_1_" gradientUnits="userSpaceOnUse" x1="67.5" y1="211.7756" x2="295.2" y2="211.7756" gradientTransform="matrix(1 0 0 -1 0 401.2756)">
		<stop  offset="0" style="stop-color:#016CB1"/>
		<stop  offset="1" style="stop-color:#0195DB"/>
	</linearGradient>
	<path class="st2" d="M295.2,348c-5.1,0-10.2,0-15.3,0l0,0c-0.7-0.7-1.4-1.5-2.1-2.2l0,0c-1.7-1.7-3.4-3.5-5.3-5.5
		c-34-35.4-96.6-105.8-147.5-190l0,0c-3.7-6.1-7.3-12.3-10.9-18.6c-1.8-3.1-3.5-6.3-5.3-9.5c-0.6-1.1-1.2-2.1-1.8-3.2
		c-1.7-3.2-3.5-6.4-5.2-9.7l0,0c-1.7-3.2-3.4-6.5-5-9.8C85.6,77.2,75.6,54.3,67.5,31h15.3c11,30.8,25.2,60.9,40.9,89.7
		c1.8,3.3,3.7,6.7,5.6,10c1.2,2.2,2.5,4.4,3.8,6.6c4.5,7.8,9.1,15.4,13.8,23c1.9,3,3.8,6,5.7,9l0,0c4.7,7.4,9.5,14.7,14.3,21.8l0,0
		c48.3,71.3,99.6,127.2,123.8,152.3c1,1,1.9,2,2.8,2.9C294.1,346.8,294.7,347.4,295.2,348z"/>
	<path class="st3" d="M296.1,348.9l-0.8-0.8l0,0C295.5,348.3,295.8,348.6,296.1,348.9z"/>
	
		<linearGradient id="SVGID_00000057149691900867316250000004674430065657155744_" gradientUnits="userSpaceOnUse" x1="195.5695" y1="17.2991" x2="7.914" y2="306.1872" gradientTransform="matrix(1 0 0 -1 0 401.2756)">
		<stop  offset="0" style="stop-color:#001A5D"/>
		<stop  offset="1" style="stop-color:#0195DB"/>
	</linearGradient>
	<path style="fill:url(#SVGID_00000057149691900867316250000004674430065657155744_);" d="M277.8,345.8c0.8,0.8,1.5,1.5,2.2,2.2l0,0
		c-52.3,0-104.7,0.1-157,0H64.4c-4.1-20.5-8.2-41.1-12.3-61.7c-0.2-0.9-0.4-1.8-0.6-2.7c-3.1-15.5-6.2-31-9.3-46.5
		c-2.5-12.2-4.9-24.5-7.3-36.7C24,146.5,13.2,92.4,2.4,38.4c-0.1-0.3-0.9-2.4,0.2-4.6c1-2,3-2.6,3.3-2.8h61.6
		c8.1,23.3,18.1,46.2,29.3,68.6c1.7,3.3,3.3,6.5,5,9.8l0,0c1.7,3.2,3.4,6.5,5.2,9.7c0.6,1.1,1.2,2.1,1.8,3.2
		C164.5,223.6,242.1,309.1,277.8,345.8L277.8,345.8z"/>
</g>
<path class="st5" d="M154.8,218.9c-2.1,0.9-6.5,3.7-12.2,6.1c-3.6-0.4-5.8,0-9,1.4c-7.3,3.1-12.9,0.3-17.2-1.2
	c-4.6-1.6-10.1-3.2-17.4-2.4c0,0-1.7,0.1-4.4,0.6c-2.3,0.4-4.6,1-6.9,1.6c-4.3,1.3-9.4,3.2-14.3,6.2c0,0,9.6-4.3,23.9-4.5
	c11.4-0.1,17.3,5.6,17.2,5.6c-0.1,0.1-0.2,0.3-0.3,0.4c-1.6,2.2-13,12.4-48.8,18.4c7.1,0.6,17.5,0.5,29.5-2.4
	c1.2-0.3,2.3-0.6,3.5-0.9c24.6-6.9,47.6-24,56.5-28.7L154.8,218.9z"/>
<path class="st6" d="M400,348.1c-31-0.1-62-0.1-92.9-0.1h-11.8c-5.1,0-10.2,0-15.3,0l0,0c-52.3,0-104.7,0.1-157,0H64.4
	c-4.1-20.5-8.2-41.1-12.3-61.7c-0.2-0.9-0.4-1.8-0.6-2.7c-3.1-15.5-6.2-31-9.3-46.5c-2.5-12.2-4.9-24.5-7.3-36.7
	C24,146.5,13.2,92.4,2.4,38.4c-0.1-0.3-0.9-2.4,0.2-4.6c1-2,3-2.6,3.3-2.8h78.6c3.4,0.2,9.5,1,16.1,4.2c0.6,0.3,1.2,0.6,1.9,1
	c8,4.4,12.6,10.5,14.1,12.6c3.4,4.5,12.5,16.6,26.2,34.6c3.8,5,8,10.5,12.5,16.5c4.9,6.5,10.2,13.5,15.9,21
	c21.2,28.1,47.5,62.9,77.2,102.3c21.5,28.1,54.5,62.2,102.3,87.6c10.1,5.4,20.1,9.9,29.7,13.8c2.6,0.9,10,3.7,15.2,11.4
	c1.6,2.4,2.7,4.8,3.4,6.8C399.5,344.9,399.8,346.7,400,348.1z"/>
<path class="st7" d="M398.7,346.9c-92.1-0.2-184,0.1-276.1,0H64.3c-4.1-20.4-8.2-40.9-12.3-61.5l0,0l-0.6-2.7l0,0l-9.3-46.4
	c-2.5-12.2-4.9-24.4-7.3-36.6C24.1,146,13.3,92.2,2.5,38.4c-0.6-1.5-0.5-3.1,0.2-4.6C3.5,32.5,4.6,31.5,6,31h78.3
	c6.3,0.4,12.4,2.1,17.9,5.2c5.5,3.1,10.3,7.4,14,12.5c3.4,4.5,12.5,16.5,26.1,34.5c3.8,5,8,10.5,12.5,16.4
	c4.9,6.5,10.2,13.4,15.8,20.9c21.1,28,47.3,62.7,76.9,101.9c21.4,28,54.3,62,101.9,87.3c9.6,5.1,19.5,9.7,29.6,13.8
	c6.1,2,11.5,6,15.1,11.4c1.4,2.1,2.5,4.4,3.4,6.8C398.2,343.7,398.5,345.5,398.7,346.9z"/>
</svg>
