<?xml version="1.0" encoding="utf-8"?>
<!-- Generator: Adobe Illustrator 27.0.0, SVG Export Plug-In . SVG Version: 6.00 Build 0)  -->
<svg version="1.1" id="Layer_1" xmlns="http://www.w3.org/2000/svg" xmlns:xlink="http://www.w3.org/1999/xlink" x="0px" y="0px"
	 viewBox="0 0 400 400" style="enable-background:new 0 0 400 400;" xml:space="preserve">
<style type="text/css">
	.st0{fill:#1D2A5B;}
	.st1{fill:#FFFFFF;stroke:#939393;stroke-width:0.196;stroke-miterlimit:10;}
</style>
<g id="LH">
	<path class="st0" d="M7.9,50l105,229.1l5.2,11.3l27.4,59.7h246.8L131,71.6C118.1,57.8,100,50,81.1,50H7.9z"/>
	<g>
		<path class="st1" d="M125.1,216l-0.5,1.8c-0.1,0.3,0,0.6,0.2,0.7c0.6,0.6,2.5,2,8.1,3.7c1.3,0.4,13.9,6.6,19.8,10.3
			c1.3,0.8,13.3,7.8,16.3,9.2c3.1,1.4,17,7.9,31.9,11.5c2.7,0.6,7,0.9,8.8-4c-1.4,0-5.1,0.2-10.2-0.7c-4.9-1-16.2-5-20.7-10.7
			c-0.2-0.2-0.1-0.5,0.2-0.6c2-0.8,7.4-2.9,10.4-3.7c3.3-0.9,5.8-1.6,11.1-1.7c3.6-0.1,7.6,0.1,9.7,0.3c1,0.1,2-0.4,2.5-1.2l1-1.5
			c0,0-8.3-0.1-14.2,0.1c-4.6,0.1-7.8,0.1-9,0.1c-0.3,0-0.4-0.3-0.3-0.5c0.4-0.5,1.3-1.3,3.3-1.6c2.8-0.5,16.8-0.1,20.4,0
			c0.5,0,1.1-0.2,1.5-0.6l1.9-2c0,0-5.6-0.7-13.7-0.4c-8.1,0.3-10.3,0-11.1-0.6c0.4-0.2,0.8-1.3,0.8-1.3s14.3-0.1,17.3,0
			c2.7,0.1,6.4,0.2,7.4,0.3c0.1,0,0.3,0,0.4-0.1l1.9-1.5c0.1,0,0.1-0.1,0-0.2l-0.3-0.4c-0.3-0.3-0.7-0.5-1.1-0.6
			c-0.7-0.1-1.8-0.2-3-0.3c-2-0.1-14.7,0.1-16.6,0.1c-1.5,0-3.3-0.6-4-0.9c-0.1-0.1-0.2-0.2-0.1-0.3c0.5-0.4,1.7-1.4,4.3-1.5
			c3.4-0.2,12.4,0.7,15.2,0.8c2.9,0.2,7.5,0.2,9.6-1c-0.6-0.7-1.5-1.5-4.6-1.7c-3.2-0.2-14.2-0.8-18.9-0.7
			c-4.7,0.1-15.1,1.1-18.5,1.4c-1.2,2.3-3.5,8.3-10.2,12.2c-3.1,1.7-10.2,2.9-17.5,0.1c-5.1-1.9-8-4.6-8-4.6s0.7-0.7,2.4-0.4
			c1.6,0.4,6.3,3.1,8.3,3.6c1.9,0.5,3.4,0.2,3.4,0.2s-1.1-1.7-4.7-3.2c-3.5-1.5-19.8-8.2-20.5-8.6c-0.7-0.3-2.2,1.1-2.4,2.1
			c0,0.2-0.2,0.4-0.5,0.4C130.7,217.6,125.1,216,125.1,216z"/>
		<path class="st1" d="M174.6,168.5c-33.2,0-60.1,26.9-60.1,60.1c0,33.2,26.9,60.1,60.1,60.1s60.1-26.9,60.1-60.1
			C234.7,195.4,207.8,168.5,174.6,168.5z M174.6,283c-30.1,0-54.4-24.4-54.4-54.4s24.4-54.4,54.4-54.4c30.1,0,54.4,24.4,54.4,54.4
			S204.7,283,174.6,283z"/>
	</g>
</g>
</svg>
