<?xml version="1.0" encoding="utf-8"?>
<!-- Generator: Adobe Illustrator 27.3.1, SVG Export Plug-In . SVG Version: 6.00 Build 0)  -->
<svg version="1.1" id="Layer_1" xmlns="http://www.w3.org/2000/svg" xmlns:xlink="http://www.w3.org/1999/xlink" x="0px" y="0px"
	 viewBox="0 0 400 400" style="enable-background:new 0 0 400 400;" xml:space="preserve">
<style type="text/css">
	.st0{fill:#BAD331;}
	.st1{fill:#0A9AD7;}
	.st2{fill:#661E43;}
</style>
<g>
	<path class="st0" d="M143.5,350.9h251.3L132.9,71.3c-13.2-14.1-31.8-22.2-51.1-22.2H5.2L143.5,350.9z"/>
	<path class="st1" d="M159.8,208.3l-48.1-21.6c-7.3-3.3-15.8,1.2-17.1,9.1c-1,6-1.3,13.2-1.3,17.2c0,9.4,5,26.8,16.2,34.4
		c11.2,7.6,16,3.8,23.7-2c7.6-5.8,23.9-15.5,23.9-15.5S156.5,217.2,159.8,208.3z"/>
	<path class="st2" d="M166.7,208.3l48.1-21.6c7.3-3.3,15.8,1.2,17.1,9.1c1,6,1.3,13.2,1.3,17.2c0,9.4-5,26.8-16.2,34.4
		c-11.2,7.6-16,3.8-23.7-2c-7.6-5.8-23.9-15.5-23.9-15.5S170,217.2,166.7,208.3z"/>
	<path class="st1" d="M157.5,243.7l2.4,21.3c0,0-7.7,3.7-8,6.6c-0.2,2.9,4,3.2,4,3.2s-8.6,14.1-24.4,14.2c-11,0-14-18.9-11.6-24.2
		c2.4-5.2,8.4-7.7,13.7-9.8C138.8,253,153,248.3,157.5,243.7z"/>
	<path class="st2" d="M169.1,243.7l-2.4,21.3c0,0,7.7,3.7,8,6.6c0.2,2.9-4,3.2-4,3.2s8.6,14.1,24.4,14.2c11,0,14-18.9,11.6-24.2
		c-2.4-5.2-8.4-7.7-13.7-9.8C187.7,253,173.6,248.3,169.1,243.7z"/>
</g>
</svg>
