<?xml version="1.0" encoding="utf-8"?>
<!-- Generator: Adobe Illustrator 27.0.0, SVG Export Plug-In . SVG Version: 6.00 Build 0)  -->
<svg version="1.1" id="Layer_1" xmlns="http://www.w3.org/2000/svg" xmlns:xlink="http://www.w3.org/1999/xlink" x="0px" y="0px"
	 viewBox="0 0 400 400" style="enable-background:new 0 0 400 400;" xml:space="preserve">
<style type="text/css">
	.st0{fill:#E11D2C;}
	.st1{fill:#222222;}
	.st2{fill:#FFFFFF;}
	.st3{fill:none;stroke:#FFFFFF;stroke-width:1.7672;stroke-miterlimit:10;}
	.st4{fill:#212121;}
	.st5{clip-path:url(#SVGID_00000058570676441837942410000003283183738673727113_);}
</style>
<g>
	<g>
		<path class="st0" d="M100.7,52.9c-5.9-1.4-12-2.1-18.2-2L7.9,51.2L23,91.8l83.5-31.5L100.7,52.9z"/>
		<polygon class="st0" points="203.8,166.2 219.1,160.5 193.6,132.9 180.8,138.4 		"/>
		<path class="st1" d="M159.6,112.6l11.4-4.2l-25.5-27.6c-3.3,1.4-8.4,3.8-8.4,3.8L159.6,112.6z"/>
		<polygon class="st1" points="174.7,130.8 188.2,127 176.8,114.7 166.8,120.9 		"/>
		<polygon class="st1" points="350.7,348 392.1,347.8 369.7,323.5 341.3,335.8 		"/>
		<polygon class="st0" points="306.7,348.2 336.9,348.1 329.1,339 		"/>
		<polygon class="st0" points="128.4,87.6 35,124.1 46.5,155.2 150.6,115.5 		"/>
		<polygon class="st0" points="171.6,142.1 57.4,184.4 69.8,217.9 194.1,170.6 		"/>
		<polygon class="st0" points="156.9,122.1 49.7,163.7 54.8,177.6 166.3,134.6 		"/>
		<polygon class="st0" points="241,184.2 224.7,193.2 272.8,251.7 294.4,242 		"/>
		<path class="st2" d="M200.5,201.8l14.1-5.3l106.3,132.3l-51.6,19.6l37.3-0.2l22.5-9.2l7.7,9.1l13.8-0.1l-9.4-12.2l28.4-12.3
			l-9.3-10.1l-26.7,12.3l-109-132.6l16.3-8.9l-21.9-23.7l-15.3,5.7l-23-27.8l12.8-5.6l-5.4-5.9l-13.4,3.8l-7.9-9.8l10-6.3l-5.8-6.3
			l-11.4,4.2l-22.5-28c0,0,5.1-2.4,8.4-3.8l-3.9-4.2c-11-11.9-25.3-20.1-40.9-23.7l5.8,7.4L23,91.8l12,32.4l93.4-36.5l22.2,27.9
			L46.5,155.2l3.2,8.5l107.2-41.6l9.4,12.5l-111.4,43l2.6,6.9l114.2-42.3l22.6,28.4L69.8,217.9l10.8,29l47.4-17.8"/>
		<line class="st3" x1="128" y1="229.2" x2="200.5" y2="201.8"/>
		<polygon class="st1" points="105.8,314.7 118.6,349.2 178.1,348.9 141.9,301.5 		"/>
		<polygon class="st1" points="231.9,240.9 200.5,201.8 128,229.2 157.3,268.5 		"/>
		<polygon class="st1" points="248.4,260.3 174.7,288.7 220.4,348.7 234.5,348.6 298,326.3 		"/>
		<polygon class="st1" points="96.6,241 80.6,247 98.2,294.4 125.7,283.4 		"/>
		<polygon class="st0" points="214.6,196.5 200.5,201.8 231.9,240.9 157.3,268.5 128,229.2 96.6,241 125.7,283.4 98.2,294.4 
			105.8,314.7 141.9,301.5 178.1,348.9 220.4,348.7 174.7,288.7 248.4,260.3 298,326.3 234.5,348.6 269.3,348.4 320.9,328.8 		"/>
		<polygon class="st0" points="360.4,313.4 351.3,303.7 324.9,315 333.7,325.8 		"/>
		<polygon class="st4" points="294.4,242 272.8,251.7 324.9,315 351.3,303.7 		"/>
	</g>
	<g>
		<defs>
			<path id="SVGID_1_" d="M7.9,51.2l109.4,295.6l274.1,0.6L144.1,79c-16.3-17.7-39.3-27.8-63.4-27.8L7.9,51.2z"/>
		</defs>
		<clipPath id="SVGID_00000012446379517691535140000001642183795322909598_">
			<use xlink:href="#SVGID_1_"  style="overflow:visible;"/>
		</clipPath>
		<g style="clip-path:url(#SVGID_00000012446379517691535140000001642183795322909598_);">
			<g>
				<rect x="105.7" y="-28.9" transform="matrix(0.3811 -0.9246 0.9246 0.3811 9.4525 136.8456)" width="2.4" height="180.6"/>
			</g>
			<g>
				<rect x="98.3" y="-21.5" transform="matrix(0.3811 -0.9246 0.9246 0.3811 -1.9694 134.5841)" width="2.4" height="180.6"/>
			</g>
			<g>
				<rect x="92.3" y="-15.8" transform="matrix(0.3693 -0.9293 0.9293 0.3693 -11.1733 134.4954)" width="2.4" height="182.6"/>
			</g>
			<g>
				<rect x="104.4" y="-23.4" transform="matrix(0.3487 -0.9372 0.9372 0.3487 -13.6596 156.3376)" width="2.4" height="222.8"/>
			</g>
			<g>
				<rect x="105.6" y="-22.3" transform="matrix(0.3605 -0.9327 0.9327 0.3605 -22.9715 162.222)" width="2.4" height="240.3"/>
			</g>
			<g>
				<rect x="108.2" y="-21.6" transform="matrix(0.3598 -0.933 0.933 0.3598 -31.3796 171.6296)" width="2.4" height="260.6"/>
			</g>
			<g>
				<rect x="115.5" y="-9.6" transform="matrix(0.3598 -0.933 0.933 0.3598 -37.9072 186.1402)" width="2.4" height="260.6"/>
			</g>
			<g>
				<rect x="120.2" y="1.4" transform="matrix(0.3598 -0.933 0.933 0.3598 -45.1308 197.5473)" width="2.4" height="260.6"/>
			</g>
			<g>
				<rect x="132.4" y="15.5" transform="matrix(0.3598 -0.933 0.933 0.3598 -50.4295 218.0261)" width="2.4" height="260.6"/>
			</g>
			<g>
				<rect x="141.1" y="27.2" transform="matrix(0.3598 -0.933 0.933 0.3598 -55.876 233.5901)" width="2.4" height="260.6"/>
			</g>
			<g>
				<rect x="159.3" y="16.4" transform="matrix(0.3594 -0.9332 0.9332 0.3594 -59.6068 261.3582)" width="2.4" height="315.4"/>
			</g>
			<g>
				<rect x="159.9" y="26.6" transform="matrix(0.3594 -0.9332 0.9332 0.3594 -68.7759 268.369)" width="2.4" height="315.4"/>
			</g>
			<g>
				<rect x="162.7" y="36" transform="matrix(0.3594 -0.9332 0.9332 0.3594 -75.7077 277.0721)" width="2.4" height="315.4"/>
			</g>
			<g>
				<rect x="173.7" y="50.1" transform="matrix(0.3594 -0.9332 0.9332 0.3594 -81.841 296.3404)" width="2.4" height="315.4"/>
			</g>
			<g>
				<rect x="185.7" y="64.6" transform="matrix(0.3594 -0.9332 0.9332 0.3594 -87.6924 316.899)" width="2.4" height="315.4"/>
			</g>
			<g>
				<rect x="193.4" y="47.9" transform="matrix(0.3624 -0.932 0.932 0.3624 -93.2696 330.1055)" width="2.4" height="370.6"/>
			</g>
			<g>
				<rect x="196" y="59.2" transform="matrix(0.3624 -0.932 0.932 0.3624 -102.0694 339.7084)" width="2.4" height="370.6"/>
			</g>
			<g>
				<rect x="220" y="77.5" transform="matrix(0.3624 -0.932 0.932 0.3624 -103.8897 373.7433)" width="2.4" height="370.6"/>
			</g>
			<g>
				<rect x="220.8" y="86.1" transform="matrix(0.3624 -0.932 0.932 0.3624 -111.4395 379.9309)" width="2.4" height="370.6"/>
			</g>
			<g>
				<rect x="221.5" y="94.7" transform="matrix(0.3624 -0.932 0.932 0.3624 -118.988 386.1194)" width="2.4" height="370.6"/>
			</g>
			<g>
				<rect x="222.3" y="103.4" transform="matrix(0.3624 -0.932 0.932 0.3624 -126.5376 392.3085)" width="2.4" height="370.6"/>
			</g>
			<g>
				<rect x="223" y="112" transform="matrix(0.3624 -0.932 0.932 0.3624 -134.0874 398.4959)" width="2.4" height="370.6"/>
			</g>
			<g>
				<rect x="223.8" y="120.6" transform="matrix(0.3624 -0.932 0.932 0.3624 -141.6359 404.6844)" width="2.4" height="370.6"/>
			</g>
			<g>
				<rect x="224.5" y="129.2" transform="matrix(0.3624 -0.932 0.932 0.3624 -149.1848 410.875)" width="2.4" height="370.6"/>
			</g>
			<g>
				<rect x="225.3" y="137.8" transform="matrix(0.3624 -0.932 0.932 0.3624 -156.7345 417.0623)" width="2.4" height="370.6"/>
			</g>
			<g>
				<rect x="226" y="146.4" transform="matrix(0.3624 -0.932 0.932 0.3624 -164.2834 423.2531)" width="2.4" height="370.6"/>
			</g>
			<g>
				<rect x="226.8" y="155" transform="matrix(0.3624 -0.932 0.932 0.3624 -171.8319 429.4415)" width="2.4" height="370.6"/>
			</g>
			<g>
				<rect x="227.5" y="163.6" transform="matrix(0.3624 -0.932 0.932 0.3624 -179.382 435.6287)" width="2.4" height="370.6"/>
			</g>
			<g>
				<rect x="228.2" y="172.3" transform="matrix(0.3624 -0.932 0.932 0.3624 -186.931 441.8195)" width="2.4" height="370.6"/>
			</g>
			<g>
				<rect x="229" y="180.9" transform="matrix(0.3624 -0.932 0.932 0.3624 -194.4795 448.0079)" width="2.4" height="370.6"/>
			</g>
			<g>
				<rect x="229.7" y="189.5" transform="matrix(0.3624 -0.932 0.932 0.3624 -202.0292 454.1951)" width="2.4" height="370.6"/>
			</g>
			<g>
				<rect x="230.5" y="198.1" transform="matrix(0.3624 -0.932 0.932 0.3624 -209.5782 460.386)" width="2.4" height="370.6"/>
			</g>
		</g>
	</g>
</g>
</svg>
