<?xml version="1.0" encoding="utf-8"?>
<!-- Generator: Adobe Illustrator 27.0.0, SVG Export Plug-In . SVG Version: 6.00 Build 0)  -->
<svg version="1.1" id="Layer_1" xmlns="http://www.w3.org/2000/svg" xmlns:xlink="http://www.w3.org/1999/xlink" x="0px" y="0px"
	 viewBox="0 0 400 400" style="enable-background:new 0 0 400 400;" xml:space="preserve">
<style type="text/css">
	.st0{fill:#FFFFFF;stroke:#000000;stroke-width:0.3722;stroke-miterlimit:10;}
	.st1{fill:#15265A;}
	.st2{fill:#949DA6;}
</style>
<g>
	<path class="st0" d="M227.2,172.9c-69.4-6.1-154.5-34.7-186.8-46.3l61.8,134.8c35.4,11.3,151.8,46.3,261.8,57.4L227.2,172.9z"/>
	<path class="st0" d="M129.6,68.9c-13.2-14.1-31.7-22.1-51-22.1H3.8l3.5,7.7c7.3,4.2,19.9,11.2,36,19.6
		c38.9,20.3,97.8,48.4,148.9,61.6L129.6,68.9z"/>
	<path class="st0" d="M396.2,353.2l-11.9-12.7c-101.6,4-222.4-10.3-252.4-14.1l12.3,26.9H396.2z"/>
	<path class="st1" d="M199.7,229.1l11-20.8l-24.3-4.4l-15.4-28l-12.1,22.6l-25.2-6.3l14.2,27.1L135.7,241l27.1,4.9l14,25.4
		l11.4-20.5l27.3,6.3L199.7,229.1z M200.2,213.4l-3.7,7.5l-6.1-8.9L200.2,213.4z M171.2,190.3l5.6,11l-10.5-1.6L171.2,190.3z
		 M147.4,203.1l7.2,1.2l-3.5,6.3L147.4,203.1z M147.2,235.8l4.2-9.8l7.2,12.1L147.2,235.8z M177.5,256.6l-5.6-8.4l8.6,1.4
		L177.5,256.6z M183.8,242.8l-16.1-3l-11.9-21.9l6.3-12.6l19.8,4.2l9.8,19.4L183.8,242.8z M195.7,236.5l5.6,10l-9.3-1.6L195.7,236.5
		z"/>
	<path class="st2" d="M192.2,135.7C120,117,32.3,68.7,7.3,54.5l7.8,17c23.2,11.8,98.4,48,181.8,69.2L192.2,135.7z"/>
	<path class="st1" d="M196.9,140.7C113.5,119.5,38.4,83.2,15.1,71.5l25.3,55.1c32.3,11.6,117.4,40.2,186.8,46.3L196.9,140.7z"/>
	<path class="st1" d="M380.9,336.9l-17-18.2c-110-11.1-226.4-46.2-261.8-57.4l8.9,19.4l5.3,11.5l7.8,16.9
		C160.9,315.6,298.5,338.5,380.9,336.9z"/>
	<path class="st2" d="M384.2,340.5l-3.3-3.5c-82.4,1.6-220-21.3-256.9-27.8l7.9,17.1C161.8,330.1,282.6,344.4,384.2,340.5z"/>
</g>
</svg>
