<?xml version="1.0" encoding="utf-8"?>
<!-- Generator: Adobe Illustrator 27.0.0, SVG Export Plug-In . SVG Version: 6.00 Build 0)  -->
<svg version="1.1" id="Layer_1" xmlns="http://www.w3.org/2000/svg" xmlns:xlink="http://www.w3.org/1999/xlink" x="0px" y="0px"
	 viewBox="0 0 400 400" style="enable-background:new 0 0 400 400;" xml:space="preserve">
<style type="text/css">
	.st0{fill:#CF0F3D;}
	.st1{fill:#FFFFFF;stroke:#777777;stroke-width:0.25;stroke-miterlimit:10;}
	.st2{fill:#007A5D;}
</style>
<g id="ME">
	<path class="st0" d="M7.5,49.7h73.4c18.9,0,37,7.8,50,21.7l16.2,17.3L23.4,84.3L7.5,49.7z"/>
	<path class="st0" d="M145.3,350.3l-27.4-59.8l-5.2-11.3l-3.1-6.8c36.5,2.4,162.9,15,250.9,77.9H145.3z"/>
	<path class="st1" d="M147.1,88.6l245.4,261.7h-32c-88-62.8-214.5-75.5-250.9-77.9L23.4,84.3L147.1,88.6z"/>
	<path class="st2" d="M141.7,260c-12.7,0-31.9,0.1-31.9,0.1v1.8c0,0,129.6,0.2,131.5,0.2l0.2-2.2c0,0-32.4,1.8-42.9-0.3
		c-2.4-0.5-4.6-1.5-6.7-2.8c-3.1-1.9-5-4.8-6.3-8.1c-0.4-1-0.7-2-1-3c-0.2-0.2-0.4-0.1-0.6-0.2c-1.1-0.1-2.2-1.2-2.3-2.3
		c0-0.1,0-0.2,0-0.3c0-0.1,0-0.4,0.2-0.4c0.2,0,0.2,0.2,0.2,0.4c0,0.1,0,0.3,0,0.4c0.1,0.9,0.9,1.8,1.8,1.8c0.2,0,0.4,0,0.6-0.2
		c0,0,0-0.1,0-0.1c0-0.5-0.4-1.1,0-1.3c0.3-0.2,0.9,0.1,1.4,0.1c0.2,0,0.3,0,0.5,0c0.6-0.5,0.7-1.2,0.2-2c0,0-0.1,0-0.1,0
		c-0.6-0.2-1.2-0.2-1.8-0.2c-0.9-0.1-0.9,0-0.8-1c0.1,0,0.1,0,0.2-0.1c0.1-0.2,0.3-0.3,0.5-0.3c0.6-0.1,1.1,0.1,1.5,0.5
		c0.1,0.1,0.3,0.1,0.4,0.2c0.2,0.1,0.4,0.1,0.7,0.1c0.2,0.3,0.1,0.6,0.1,0.9c0.1,0.5,0,0.9,0,1.4c0,0.3-0.1,0.5,0,0.8
		c1.4,0.2,2.8,0.4,4.3,0.6c0.4,0.1,0.7,0.2,1,0.4c0.8,0.6,1.6,1,2.6,1.4c-0.4,0.4-1.2,0.4-1.2,1.1c1.8,0,3.7,0,5.5,0
		c3.5,0,6.9,0.7,10.1,2c0.5,0.2,0.9,0.4,1.3,0.7c0.6,0.5,1.1,0.3,1.8,0c-0.3,0-0.4,0-0.6-0.1c0,0,0-0.1,0-0.1c0.6-0.3,1.2-0.4,1.8,0
		c0.2,0.2,0.5,0.3,0.8,0.4c0.5,0.3,1,0.5,1.6,0.4c0.8-0.2,1.5,0.3,2.2,0.8c0.1-0.7-0.1-1.3-0.3-1.9c-0.1-0.4,0-0.5,0.4-0.5
		c0.5,0.1,1.1,0.2,1.6,0.5c0.6,0.3,1.2,0.4,1.9,0.5c-0.4-0.6-0.9-1-1.5-1.3c-1.1-0.6-2.4-1-3.7-1.3c-2.3-0.6-4.5-1.2-6.6-2.5
		c-0.7-0.4-1.4-0.5-2.2-0.5c-2.4,0.2-4.8,0-7.1-1c-0.6-0.3-1.2-0.3-2-0.5c0.8-0.6,1.6-0.4,2.4-0.5c-0.2-0.5-0.3-1-0.9-1.1
		c-0.1,0-0.2,0-0.1-0.1c0-0.1,0.1-0.2,0.3-0.2c0.4,0.1,0.9,0.1,1.3,0.2c1.1,0.2,2.2,0.7,3.4,0.7c0.2,0,0.4-0.1,0.5,0
		c0.1,0.1-0.1,0.2-0.3,0.2c-0.6,0.2-1.2,0.5-1.9,0.8c1.4,0.2,2.7,0.3,3.9,0.4c0.9,0.1,1.9,0.2,2.8,0.4c0.9,0.2,1.8,0.6,2.4,1.4
		c0.2,0.3,0.4,0.3,0.7,0.1c0.2-0.2,0.5-0.3,0.8-0.4c0.9-0.4,1.7-0.4,2.5,0.3c0.5,0.4,1.1,0.7,1.7,0.8c0-1.3-0.3-2.4-1.7-3
		c0.7-0.4,1.2-0.5,1.8-0.2c0.6,0.2,1.2,0.3,1.9,0.2c-0.8-1.1-2-1.4-3.3-1.5c-1.6-0.2-3.3-0.2-4.7-1c-1.7-1-3.6-1.2-5.5-1.5
		c-1.2-0.2-2.4-0.4-3.5-1c-0.1-0.1-0.3-0.1-0.4-0.4c1.1,0,2.2,0.2,3.2,0.5c3.8,0.8,7.6,1.8,11.5,2.8c0.1,0,0.2,0,0.3,0.1
		c0.7,0.1,1.4-0.1,2.1-0.3c0.3-0.1,0.4-0.3,0.3-0.6c-0.1-0.2-0.1-0.5-0.1-0.8c0.1-0.9,1-1.6,1.8-1.3c1,0.4,1.8,1.3,2.5,2.1
		c0.2,0.2,0,0.4-0.2,0.6c-0.5,0.5-0.9,1.1-1.4,1.5c-0.2,0.2-0.4,0.3-0.2,0.6c0.4,0.2,0.8,0.6,1.3,0.7c0.5-0.1,0.5-0.6,0.8-0.9l0,0
		c0.4-0.2,0.7-0.6,1-0.9c0.1-0.1,0.2-0.3,0.4-0.1c0.1,0.1,0.1,0.3,0,0.4c0,0-0.1,0.1-0.1,0.1c-0.1,0.1-0.3,0.3-0.2,0.5
		c0.1,0.2,0.3,0.1,0.5,0.1c0.1,0,0.2,0,0.3,0c0.7,0.1,1.3,0.3,1.9,0.7c0.7,0.4,1.4,0.6,2.3,0.6c-0.3-0.6-0.8-0.9-1.3-1.2
		c-0.5-0.2-0.9-0.6-1.1-1.3c2.3,0.7,4.6,1.3,7,2c-0.2-0.7-0.7-1.2-1.3-1.4c-2.7-1.1-5.1-2.6-7.6-3.9c-0.4-0.2-0.8-0.3-1.2-0.4l0,0
		c-0.2,0-0.4-0.1-0.6-0.1c0.4-0.1,0.8-0.2,1.1,0c2.4,0.1,4.9,0.2,7.3,0.3c0,0,0,0,0,0l0,0c0.3-0.1,0.6,0.1,0.8-0.1
		c-1.3-0.6-2.5-1.5-4-1.7c-0.5-0.1-0.7-0.6-1.1-1c1.5,0,2.9,0,4.3,0c-0.9-0.9-1.9-1.4-3.1-1.1c-1.6,0.4-3.2,1-4.9,1.4
		c-0.7,0.2-1.4,0.3-2.1,0.3c-0.4,0-0.7,0-1-0.2c-0.8-0.5-1.8-0.6-2.7-0.4c-0.9,0.2-1.8,0.4-2.6,0.6c0.2,0.8,0.8,1.2,1.5,1.5
		c0.2,0.1,0.4-0.1,0.6-0.2c0.3-0.3,0.6-0.6,0.9-0.9c0.1-0.1,0.3-0.3,0.4-0.1c0.1,0.1,0,0.3-0.1,0.4c-0.6,0.7-1.3,1.4-1.9,2.1
		c-0.3,0.4-0.8,0.8-1.1,1.2c-0.1,0.2-0.3,0.4-0.5,0.2c-0.3-0.2,0-0.4,0.1-0.5c0.4-0.3,0.6-0.8,1-1.1c0.3-0.3,0.2-0.5,0-0.8
		c-0.5-0.6-1.1-1.1-1.7-1.6c-0.3-0.2-0.5-0.1-0.7,0.1c-0.4,0.3-0.7,0.7-1,1.1c-0.1,0.2-0.3,0.4-0.5,0.2c-0.2-0.2,0-0.4,0.2-0.5
		c0.4-0.5,1-0.8,1.1-1.5c-0.9,0-0.5-0.8-0.6-1.2c-0.3-0.1-0.5,0.2-0.6,0.4c-0.3,0.4-0.7,0.8-1.1,1.2c-0.2,0.3-0.4,0.3-0.7,0
		c-0.8-0.7-1.6-1.5-2.5-2.2c-0.2-0.2-0.2-0.5-0.4-0.7c0,0-0.1,0-0.1,0c-1.3-0.2-2.5-0.5-3.6-1.3c0.9-0.2,1.6-0.3,2.4-0.3
		c0.5-0.1,0.2-0.6,0.4-0.8c-1.7-0.8-3.6-1-5.5-0.9c-1.3,0-2.6,0.2-3.8-0.1c-0.4-0.1-1-0.1-1-0.4c0-0.3,0.4-0.7,0.8-0.9
		c0.3-0.2,0.6-0.2,0.8,0.1c0.4,0.4,0.7,0,1-0.3c0.3-0.4-0.2-0.4-0.3-0.5c-0.4-0.4-0.7-0.7-0.8-1.3c0.7,0.1,1.4,0,1.8,0.5
		c0.7,0.8,1.6,1.1,2.5,1.4c0.2-0.2,0.3-0.5,0.6-0.3c0.3,0.2,0.4,0.4,0.2,0.7c0.6,0.2,1.2,0.6,1.8,0.7c0,0,0.1,0.1,0.1,0.1
		c0.3-0.1,0.7,0,1-0.4c0-0.2-0.2-0.2-0.3-0.1c-0.4-0.4-0.5-0.9-0.3-1.3c0.2-0.5,0-0.5-0.3-0.6c-0.2-0.1-0.5-0.1-0.5-0.5
		c0-0.5,0-0.8,0.6-0.7c0.4,0,0.9,0,1.2-0.4c-0.8-0.1-1.7,0.1-2.3-0.6c-0.2-0.2-0.4,0-0.5,0.1c-0.2,0.3-0.6,0.5-0.7,1c0,0,0,0,0,0
		c0,0,0,0,0,0c0.3,0.2,0.6,0.4,0.9,0.7c0.1,0,0.2,0.2,0.1,0.2c-0.2,0.1-0.4,0-0.5-0.1c-0.5-0.1-1-0.2-1.5-0.3c-0.2,0-0.4,0-0.5,0
		c-0.7,0-1.3-0.2-1.9-0.6c-0.1-0.1-0.2-0.1-0.4-0.2c-1.4-0.3-2.8-0.1-4.2,0c-0.8,0.1-1.7,0.1-2.4,0.5c-1.3,0.7-2.6,0.5-4.1,0.6
		c0.7-0.8,1.4-1.1,2.2-1.3c2.5-0.8,5.1-0.8,7.6-0.6c0.1,0,0.1,0,0.2,0c0.1-0.1,0.1-0.3,0-0.5c0-0.3-0.1-0.7,0.1-1.1
		c0.3,0.5,0.1,1.1,0.4,1.6c0.1,0,0.2,0.1,0.2,0.1c0.9,0.2,1.8,0.4,2.7,0.6c0,0,0.1,0,0.1,0c0.9-0.4,1.6-1.6,1.5-2.6
		c-0.2-1-1.2-1.7-2.3-1.8c-0.2,0-0.4,0.1-0.4-0.2c0-0.2,0.2-0.1,0.4-0.2c1.4-0.1,2.9,1.3,2.8,2.8c0,0.2-0.1,0.5,0.1,0.7
		c2.2,0.1,4.3,0.3,6.3,1c0.7,0.3,1.4,0.6,1.7,1.4c0.3,0.6,1,0.7,1.7,0.9c0.9,0.3,0.9,0.3,0.8,1.2c0,0.3-0.1,0.5,0.3,0.5
		c0.9,0,1.6,0.4,2.4,0.7c0.6,0.2,1.2,0.3,1.8,0.2c0-0.5-0.2-0.9-0.3-1.4c0.4,0.1,0.7-0.1,1.1,0.1c0.7,0.3,0.9,0.8,0.8,1.5
		c-0.1,0.8,0,0.8,0.8,0.9c1.7,0.2,3.5,0.5,5.2,0.8c0.4,0.1,0.9,0.1,1.3,0.1c0-0.3-0.3-0.4-0.5-0.5c-0.8-0.4-1.8-0.6-2.7-0.9
		c-0.3-0.1-0.6-0.2-0.7-0.5c-0.1-0.2-0.5-0.4-0.4-0.6c0.1-0.2,0.5-0.3,0.8-0.3c0.5-0.1,1,0.2,1.4,0.4c1.2,0.5,2.4,1,3.6,1.3
		c0.2,0,0.5,0.2,0.5,0c0.1-0.2,0.1-0.5,0-0.8c-0.1-0.3-0.3-0.1-0.5-0.1c-0.4-0.1-0.8-0.1-1.2-0.1c-0.9-0.1-1.3-0.6-1.6-1.4
		c-0.1-0.4,0-0.5,0.3-0.4c1.7,0.1,3.5,0.1,5.2,0.2c2.1,0.1,4.1,0.2,6.3,0.3c-0.5-0.8-1.2-1.2-2-1.5c-1.5-0.5-3-0.9-4.4-1.3
		c-0.8-0.2-1.7-0.5-2.5-0.7c0.5-1,0.6-1,1.5-0.8c0.7,0.2,1.4,0.1,2.1-0.1c0.9-0.2,1.9-0.4,2.8-0.2c0.2,0.1,0.5,0,0.9,0
		c-0.6-0.5-1.1-0.9-1.5-1.3c-0.2-0.2-0.5-0.4-0.5-0.7c-0.1-0.1-0.3-0.3-0.4-0.4c0,0,0,0,0,0c-2.7-0.4-5.4-0.1-8.1-0.1
		c-0.3,0-0.5,0-0.9,0c0.4-0.3,0.5-0.7,1-0.9c0.3-0.1,0.1-0.2,0-0.3c-0.3-0.4-0.6-0.8-1-1.3c1.6,0,3-0.2,4.4,0.4
		c-0.4-1.1-0.8-1.3-2-1.4c-0.7,0-1.4,0-2.1,0c0.3-0.2,0.6-0.3,0.9-0.2c1.1-0.1,2.2-0.3,3.4-0.4c0.2-0.1,0.6-0.2,0.4-0.6
		c-0.2-0.1-0.5-0.1-0.8-0.2c0.5-0.4,1.2-0.4,1.7-0.6c0.1,0,0.2-0.1,0.3-0.2c0.2-0.2,0.4-0.4,0.4-0.6c-0.1-0.3-0.4-0.1-0.6-0.2
		c-0.1,0-0.1,0-0.2,0c-0.3,0-0.6,0-0.9,0c-0.5,0.2-0.7,0.6-1,1c-0.2,0.3-0.5,0.5-0.8,0.2c-0.8-0.8-1.8-1.5-2.6-2.4
		c-0.1-0.1-0.1-0.2,0-0.3c0.3,0.1,0.5,0.4,0.7,0.6c0.3,0.2,0.5,0.5,0.9,0.5c0.4-0.3,0.9-0.5,1.5-0.8c-0.8-0.5-1.6-0.6-2.4-0.7
		c-2.1-0.2-4.2,0-6.3,0c-0.4,0-0.6,0-0.5-0.5c0-0.4,0.2-0.5,0.5-0.4c1.1,0.3,2.1-0.1,3.2-0.1c0.1,0,0.3,0,0.2-0.2
		c-0.1-0.2-0.1-0.7-0.3-0.6c-0.7,0.1-1-0.4-1.4-0.7c-0.1-0.3-0.2-0.7-0.6-0.8c0.3,0,0.6-0.1,0.9-0.3c0.5-0.5,0.9-1,1.7-0.9
		c0.4,0,0.2-0.2,0.1-0.4c-0.3-0.4-0.7-0.8-0.9-1.2c0.5-0.1,1.2,0.1,1.8,0.2c0.3-0.3,0.2-0.6-0.1-0.9c-1.2-0.6-2.6-0.9-3.9-0.8
		c-0.2,0.1-0.4,0.2-0.5,0.3c-1.6,1.1-3.5,0.5-4.2-1.3c-0.1-0.2-0.1-0.4-0.2-0.6c0,0,0,0,0,0c-0.1,0-0.2,0-0.3,0
		c-2.2,0-4.4-0.4-6.6-0.5c-0.2,0-0.4,0.1-0.4-0.3c0-0.4,0.3-0.2,0.5-0.3c0.1,0,0.2,0,0.3,0c1.7,0,3.3,0.3,5,0.4
		c0.4,0.2,0.8,0.1,1.3,0.1c0.3,0,0.7-0.1,1-0.2c0.1,0,0.1-0.1,0.1-0.2c-0.4-0.2-0.8-0.5-1.2-0.7c-0.2-0.2-0.5-0.1-0.7-0.1
		c-1.6,0.3-2.9-1-3.2-2.2c-0.3-1,0.4-2.3,1.5-3c1.3-0.8,2.4-0.6,3.6,0.7c0.6,0.4,1.3,0.4,1.9,0.8c-0.2,0.1-0.5,0-0.7,0
		c-0.7,0.2-0.8,0.5-0.5,1.2c1.5-0.1,2.9,0.3,4.2,1c-0.5-0.9-1.3-1.4-2.1-1.9c0.4,0,0.7,0,1.2,0c-0.1-0.5-0.4-0.7-0.7-0.9
		c-0.6-0.4-1.1-0.8-1.3-1.6c0-0.2-0.2-0.4-0.4-0.5c-0.4-0.3-0.9-0.5-1.4-0.8c-0.2-0.1-0.7-0.1-0.5-0.5c0.2-0.4,0.2-0.8,0.9-0.8
		c1.1,0,2.1,0.4,3.2,0.5c0.2,0,0.5,0,0.8,0.1c-0.2-0.5-0.6-0.8-0.9-1.1c-0.7-0.5-1.5-0.7-2.3-0.9c-0.1,0-0.3-0.1-0.3,0
		c0,0.6-0.5,0.3-0.8,0.4c-0.6,0.1-0.6-0.2-0.4-0.6c-2.2-0.3-4.3-0.5-6.5-0.8c-0.5,1.4-1.1,2.8-1.6,4.1c-0.1,0.2-0.3,0.5-0.1,0.7
		c0.2,0.2,0.5,0,0.7-0.2c1-0.6,2.2-1,3.2-1.6c0.3-0.2,0.6-0.2,0.8,0.1c0.2,0.3-0.1,0.5-0.2,0.6c-0.9,1.1-1.9,2.1-2.9,3.2
		c-0.1,0.1-0.2,0.4-0.4,0.2c-0.2-0.2,0.1-0.3,0.2-0.5c0.4-0.5,0.9-1,1.3-1.6c0.1-0.3,0.4-0.5,0.5-0.7c0.2-0.2,0.3-0.4-0.2-0.5
		c-0.8,0.2-1.5,0.7-2.3,1.1c-0.2,0.1-0.5,0.2-0.7,0.3c-0.2,0.1-0.5,0.4-0.7,0.1c-0.2-0.2,0-0.5,0.1-0.7c0.3-0.8,0.6-1.6,1-2.4
		c0.1-0.2,0.2-0.4,0.2-0.7c0-0.1,0-0.1,0-0.1c0,0-0.1,0.1-0.1,0.1c0-0.2-0.1-0.2-0.3-0.1c0,0,0-0.1,0.1-0.1c0,0,0,0,0,0
		c-0.8,0.6-1.3,1.4-2,2c-0.1,0.1-0.1,0.1-0.2,0.2c-0.1,0.1-0.2,0.4-0.5,0.2c-0.2-0.1,0-0.3,0.1-0.4c0.2-0.2,0.3-0.4,0.5-0.6
		c0.9-0.9,1.7-1.8,2.5-2.7c0.3-0.4,0.7,0,1-0.3c0.3-0.2,0.7-0.4,1.1-0.4c0.3,0,0.4-0.2,0.4-0.4c0-0.2-0.2-0.2-0.4-0.2
		c-1.1-0.2-2.1-0.7-3.2,0.1c0-0.8,0.8-0.8,0.9-1.4c-0.5-0.1-1,0-1.5,0c-0.8,0-1.5-0.1-2.2-0.4c-0.3-0.1-0.3-0.2-0.1-0.5
		c0.2-0.3,0.5-0.5,0.9-0.7c0.4-0.2,0.8-0.4,0.9-1c-1.7,0.1-3.2,0.7-4.8,0.9c-0.3,0.2-0.6,0.1-0.9,0c0.2,0,0.4-0.1,0.5-0.1
		c2.5-0.7,5.1-1.5,7.8-2.3c-1.2-0.5-2.3-0.6-3.4-0.5c-1.6,0-3.2,0.2-4.8-0.1c-1-0.2-1.8-0.7-2.6-1.4c1,0.1,2,0.1,3,0.3
		c1.9,0.3,3.9,0.1,5.7-0.4c1.2-0.3,2.4-0.4,3.5,0c0.4,0.1,0.8,0.2,1.3,0.1c-3-2-6.4-1.5-9.8-1.4c0.4-0.4,0.8-0.5,1.2-0.5
		c2.7-0.3,5.3-0.6,8-0.9c0.2,0,0.4-0.1,0.8-0.1c-1.6-1.1-3.2-1.1-4.8-1c0.3-0.9,0.9-1.3,1.8-1.4c0.6-0.1,1.2-0.3,1.8-0.5
		c-0.1-0.2-0.3-0.2-0.4-0.2c-0.7-0.2-1.4-0.3-2-0.6c-1.7-0.8-3.5-1-5.3-0.8c-0.3,0-0.7,0-1,0c-0.4,0-0.7,0-0.4,0.5
		c0.2,0.4-0.1,0.6-0.4,0.7c-0.8,0.4-1.6,0.4-2.5,0.6c-0.2,0.1-0.4,0.1-0.6,0.2c0.9,0.3,1.8,0.1,2.8,0.4c-1.9,0.5-3.7,0.9-5.6,1
		c-0.2,0.1-0.4,0.1-0.6,0c-0.4-0.1-0.3-0.3-0.1-0.4c0.5-0.4,0.6-1.1,1.2-1.4c0.9-0.6,1.9-1.1,3.1-1.3c-0.9-0.3-1.9-0.6-3-0.9
		c0.7-0.3,1.3-0.6,1.9-0.9c0.2-0.1,0.4-0.2,0.1-0.4c-0.1,0-0.2,0.1-0.4,0.1c0,0-0.1-0.1,0-0.1c0.1-0.2,0.3,0,0.4-0.1
		c0.9-0.4,1.9-0.4,2.9-0.5c1.6-0.1,3.2,0.2,4.8,0.3c0.7,0,1.4,0.1,2.2,0.1c-0.8-0.6-1.6-1-2.4-1c-1.8,0-3.5-0.6-5.2-1
		c-0.4-0.1-0.4-0.3-0.2-0.6c0.2-0.3,0.6-0.7,0.4-0.8c-0.2-0.2-0.7,0-1,0.1c-1.6,0.6-3.2,0.9-4.9,0.4c-1.6-0.4-3.2-0.2-4.8-0.3
		c-0.6,0-1.1,0-1.6-0.3c-0.9-0.4-1.8-0.6-2.8-0.7c-0.3-0.1-0.5-0.2-0.7-0.4c-0.7,0.3-1.1,1-1.6,1.5c-0.2,0.2,0,0.4,0.2,0.6
		c0.6,0.5,1.1,1,1.7,1.5c0.3,0.3,0.6,0.2,0.8-0.1c0.3-0.3,0.6-0.6,0.9-0.9c0.1-0.1,0.3-0.4,0.5-0.2c0.2,0.2,0,0.3-0.1,0.5
		c-0.5,0.7-1.3,1.3-1.8,2c-0.1,0.2-0.4,0.3-0.2,0.5c0.7,0,1.4,0,2.1,0l0,0v0c0,0,0,0,0,0c0,0,0,0,0,0c0,0,0,0,0,0c0,0,0,0,0,0
		c0.9-1.5,1.8-1.6,3.2-0.3c0.4,0.4,0.9,0.7,1.3,1.1c0.2,0.2,0.3,0.4,0,0.7c-1,1.1-2,2.1-3,3.2c-0.1,0.1-0.2,0.2-0.2,0.2
		c-0.1,0.1-0.2,0.1-0.3,0c-0.1-0.1-0.1-0.2,0-0.3c0.2-0.4,0.5-0.6,0.8-0.9c0.6-0.6,0.5-0.7,0-1.3c-0.5-0.6-1.1-0.8-1.9-0.5
		c-0.4,0.1-0.7,0.2-1.1,0.3c-0.3,0.1-0.6,0.2-0.8-0.2c0.4-0.2,0.7-0.3,1.1-0.3c0.2-0.1,0.5-0.1,0.7-0.2c0.2-0.1,0.6-0.1,0.6-0.4
		c0-0.3-0.1-0.4-0.3-0.5c-0.1,0-0.1,0.1-0.2,0.1c-0.7,0-1.5,0.4-1.8-0.6l0,0c0,0,0,0,0,0c-0.3-0.1-0.5,0.1-0.7,0.3
		c-0.1,0.1-0.2,0.3-0.3,0.4c-0.1,0.1-0.3,0.2-0.4,0.1c-0.1-0.1-0.1-0.3,0.1-0.4c0.4-0.4,0.7-0.8,1-1.2c0.3-0.3,0.3-0.6,0-1
		c-0.5-0.5-1.1-1-1.6-1.5c-0.3-0.3-0.5-0.1-0.7,0.1c-0.4,0.4-0.7,0.8-1.1,1.2c-0.1,0.2-0.3,0.4-0.5,0.2c-0.3-0.2,0-0.4,0.2-0.5
		c0.8-0.9,1.7-1.8,2.5-2.7c0.3-0.4,0.7-0.8,1.2-0.9c3.4-0.1,6.8,0.3,10.2,0.7c1.2,0.1,2.4,0.3,3.7,0.2c-0.4-0.7-0.6-1.3,0.1-2
		c-3.5,0-6.8-0.5-10.1-0.5c0.2-0.5,0.3-1,0.6-1.4c0.1-0.1,0.2-0.2,0.1-0.3c-0.1-0.1-0.2-0.1-0.4-0.1c-0.6,0.1-1.1,0.3-1.1,1.1
		c-0.2-0.4-0.8-0.3-0.7-0.8c0.2-0.8,0.5-1.1,1.2-1.1c0.7,0,1.4,0.1,2.1,0.1c0,0.3-0.1,0.5-0.2,0.7c-0.2,0.6-0.1,0.9,0.6,1.1
		c0.9,0.2,1.8,0.2,2.6,0.2c0-0.8-0.8-1.1-0.8-1.9c2.6,0.9,5.1,1.7,7.8,2.4c-0.8-1.2-1-1.3-3.8-2.5c0.5-0.3,1.1-0.5,1.5-0.9
		c0.1-0.1,0.3-0.2,0.2-0.4c-0.1-0.2-0.3-0.2-0.4-0.2c-0.5,0-0.9-0.1-1.4,0c-4.1,0.3-8.2-0.1-12.3-0.9c-0.3,0-0.5-0.1-0.8-0.1
		c0.4-0.7,1.1-0.9,1.7-0.9c1.1,0,2.2,0.3,3.2,0.5c1,0.2,2,0.1,3,0.2c0.4,0,0.4-0.4,0.5-0.6c0.1-0.3-0.2-0.3-0.3-0.4
		c-2.3-0.6-4.6-1.2-7-1.3c-0.5,0-0.7-0.2-0.6-0.7c0-0.3,0.1-0.4,0.4-0.3c2,0.4,4.1,0.5,6.2,0.7c0.9,0.1,1.8,0.3,2.6,0.5
		c0.3,0.1,0.6,0.1,0.8-0.1c0.2-0.2,0.5-0.4,0.5-0.6c0-0.3-0.4-0.2-0.6-0.3c-2.9-0.8-5.7-1.8-8.6-2.4c-0.8-0.2-1.7-0.4-2.6-0.5
		c0.5-0.3,1.1-0.6,1.6-0.9c-0.3-0.2-0.6-0.2-0.9-0.2c-1.3-0.2-2.6-0.7-3.9-0.8c-0.3,0-0.6-0.1-0.9-0.1c-2.7,0-5.4,0-8.2,0
		c-0.2,0-0.6-0.2-0.6,0.3c0,0.4,0.4,0.2,0.6,0.2c0.7,0,1.3-0.1,2-0.1c0.8,0,1.4,0.4,1.8,1.1c-1.2,0.3-2.3,0.4-3.4,0.6
		c-0.1,0.3,0.2,0.4,0.4,0.6c1.2,1.1,1.3,2.6,0.2,3.8c-0.2,0.2-0.5,0.4-0.5,0.7c0,0.4-0.3,0.9,0,1.3c0,0,0,0,0,0c0,0,0.1,0,0.1,0.1
		c0.3,0.2,0.7,0.2,1.1,0.3c0.1,0-0.1,0.1,0,0.1c-0.3-0.2-0.5-0.1-0.8,0c-0.2,0.2,0,0.3,0,0.5c0,0.1,0,0.2-0.2,0.3
		c-0.1,0-0.2,0-0.2,0c-0.1-0.1-0.1-0.2,0-0.3c0.1-0.2,0.2-0.3,0.3-0.5c0-0.1,0-0.2-0.1-0.3c0,0-0.1,0-0.1-0.1c0,0,0,0,0,0
		c-1.8,0.1-3.6,0-5.5,0c-3.2,0-6.5,0.4-9.7,0.8c-0.8,0.1-1.4,0.5-1.9,1.3c1.1,0,2.2,0,3.4,0c-0.8,0.8-1.8,1.1-2.4,1.9
		c0.4,0.2,0.9,0,1.3,0.1c-0.2,0.4-0.4,0.6-0.7,0.9c-0.4,0.3-0.7,0.4-1-0.1c-0.2-0.3-0.5-0.3-0.7,0c-0.3,0.4-0.6,0.8-0.8,1.3
		c-0.2,0.3-0.4,0.4-0.7,0.4c-1.1,0-2.1,0-3.3,0c0.5,0.5,1.1,0.6,1.8,1c-1,0-1.9,0.2-2.7,0.4c-0.8,0.2-0.8,0.1-0.6,0.9
		c0,0.1,0,0.1,0,0.2c1,0.4,1.6,1.2,2.2,1.9c0.7,0,1.3-0.1,1.9-0.3c0.7-0.3,1.5-0.5,2.3-0.6c0.9-0.1,1.3,0.1,1.5,1
		c0.3,1.1,0.3,1.1-0.9,1.2c-1.6,0.1-3.2,0.2-4.8,0.3c-0.3,0.5-0.5,1-0.9,1.4c-0.7,0.6-1.5,0.8-2.4,0.9c-1.3,0.2-2.6,0.4-3.6,1.3
		c-0.3,0.2-0.5,0.5-0.5,0.9c2-0.8,4.1-1.3,6.2-1.6c0.9-0.1,1.9-0.2,2.8,0.1c0.7,0.2,1.4,0.3,2.2,0.3c0.3-0.1,0.2-0.4,0.2-0.6
		c-0.2-0.9-1.1-1.6-2-1.7c-0.2,0-0.3,0-0.5,0c-0.1,0-0.2-0.1-0.2-0.2c0-0.1,0.1-0.2,0.2-0.2c0.4,0,0.7-0.1,1.1,0.1
		c0.9,0.5,1.6,1.1,1.8,2.1c0,0.2,0,0.3,0.2,0.4c1.7-0.1,3.5-0.2,5.2-0.2c0.7,0,1.5,0,2.2-0.1c0.3-0.1,0.8-0.1,0.8-0.6
		c0-0.2,0.2-0.2,0.3-0.1c0.3,0.1,0.6,0.2,1,0.2c0.5,0,0.6,0.3,0.6,0.7c0,0.5-0.3,0.4-0.6,0.5c-3.1,0.4-6.1,1.1-9.2,1.6
		c-0.5,0.1-1,0.1-1.5,0.3c-1,1-2.1,1.1-3.3,0.4c-3.8,0.4-7.6,0-11.4-0.2c-1.8-0.1-3.5,0.1-5.1,0.8c-0.2,0.1-0.5,0.1-0.5,0.6
		c1.4,0,2.8,0,4.4,0c-0.4,0.5-0.7,1-1.1,1.5c0.9,0,1.6,0,2.4,0c0.5,0,0.8,0.1,1,0.6c0.3,0.6,0.6,1.1,1,1.6c0.1,0.2,0.1,0.4,0.4,0.3
		c1.6-0.5,3.2-0.1,4.9,0c0.7,0,1.4,0.1,2.1,0.1c0.2,0,0.4,0,0.4,0.3c0,0.3-0.2,0.2-0.3,0.3c-2.7,0.3-5.4,0.7-8.2,0.5
		c-0.4,0-0.6,0-0.7-0.5c-0.1-0.5-0.5-0.7-0.9-0.8c-0.6-0.2-1.2-0.2-1.8-0.2c-3.5-0.1-6.9,0.3-10.3,1.4c-0.9,0.3-1.8,0.6-2.5,1.3l0,0
		l0,0c0.1,0.2-0.3,0.4,0,0.5c0.8-0.7,1.7-0.7,2.7-0.6c3.3,0.3,6.6,0.6,10,0.9c0.4,0,0.5,0.1,0.3,0.5c-0.4,0.9-1.1,1.4-2,1.6
		c-0.9,0.2-1.7,0.3-2.7,0.5c0.7,0.7,1.7,1.1,2.3,2c-0.8,0.1-1.6,0-2.3,0.2c0.1,0.3-0.2,0.7,0.1,0.9c0.5,0.1,0.3,0.7,0.6,0.9
		c0,0,0,0,0,0c0,0,0,0,0,0c0.8-0.4,1.5-0.3,2.2,0.2c0.3,0.2,0.6,0.5,0.9,0.7l0,0c0,0.1,0.4-0.1,0.2,0.3c-0.1,0.2,0.1,0.5,0.1,0.7
		c0.3,1.3-0.7,2.9-2.1,3.3c-1.3,0.4-2.7-0.2-3.2-1.5c-0.2-0.5-0.3-0.9-0.1-1.4c0.3,0.1,0.2,0.3,0.2,0.5c0,0.9,0.5,1.6,1.3,2
		c0.8,0.4,1.5,0.2,2.2-0.3c0.8-0.6,1.4-1.3,1.3-2.4c0-0.4-0.1-0.8-0.6-1c-1.7,0-3.3,0-5,0c-0.9,0.6-1.9,0.6-2.7,0
		c-3.1-0.2-6.2,0.1-9.2,1.2c-1,0.4-2,0.6-2.9,1.1c-0.5,0.2-0.7,0.5-0.5,1.2c1.3-0.7,2.5-1.2,3.7,0.2c-0.4,0.6-1.3,0.9-1.3,1.9
		c1.7-0.7,3.5-1.4,5.3-1.5c-0.9,1.4-1.9,2.5-3.5,2.9c-1.2,0.4-2.4,0.7-3.8,1.1c1.3,0.3,2.4,0.6,3.7,0.6c0.8,0,1.7,0.1,2.4,0.3
		c0.6,0.2,1.2,0.5,1.3,1.3c0,0.3,0.2,0.3,0.5,0.2c0.5-0.1,0.9-0.3,1.4-0.4c-0.4,1.2-0.7,1.5-1.9,1.5c-1.2,0-2.4,0.1-3.5,0.7
		c-0.3,0.1-0.6,0.2-0.9,0.2c-0.2,0.1-0.6-0.1-0.5,0.4c0.1,0.4,0.1,0.7,0.7,0.5c0.7-0.2,1.4-0.3,2.2-0.3c-0.5,0.7-1,1.2-1.8,1.4
		c-0.7,0.1-1.4,0.1-2.1,0.1c-0.4,0-0.6,0.1-0.6,0.5c0,0.5,0.2,0.5,0.6,0.5c1.3,0,2.5-0.5,3.8-0.7c1.1-0.2,2.3-0.3,3.4,0.1
		c0.7,0.2,1.4,0,2.1-0.3c0.3-0.2,0.6-0.4,1-0.4c-0.3,0.9-1.6,2.1-2.8,2.6c-0.7,0.3-1.5,0.4-2.2,0.6c-0.6,0.2-1.2,0.4-1.7,1
		c0.9,0,1.7-0.2,2.4-0.3c2.4-0.3,4.8-0.7,7.2-1.1c0.1,0,0.3,0,0.4,0c1.5,0.7,3.2,0.5,4.8,0.5c0.2,0,0.3,0,0.6,0
		c-0.8,0.7-1.6,1.1-2.6,0.9c-1-0.2-1.7,0.1-2.3,1c0.3,0,0.6,0,0.9,0c2.9,0,5.8,0,8.8,0c0.2,0,0.4,0,0.6,0c0,0,0,0,0,0
		c-0.3-0.4-0.8-0.5-1.1-1c0.9,0.2,1.8,0.5,2.7,0.7c0.3,0.1,0.2,0.2,0.2,0.4c0.7,0.3,1.4,0.5,2.1,0.8c-1.3,0.2-2.8-0.3-3.7,1.2
		c0.2-0.1,0.4-0.1,0.6-0.1c0.2,0,0.4,0,0.4,0.2c0,0.3-0.2,0.3-0.4,0.3c-1.2-0.1-2.3-0.1-3.5-0.2c-3-0.3-5.9-0.1-8.9,0.1
		c-3.5,0.3-7,0.3-10.4-0.3c-0.3-0.1-0.7,0-1,0c-0.2,0.2-0.5,0.4-0.3,0.8c0.5,0.1,0.9,0.1,1.5,0.2c-0.7,0.3-1.5,0.2-2.1,0.5
		c-0.1,0.1-0.3,0.2-0.4,0.3c-0.8,0.7-1.7,0.8-2.7,0.4c-0.2-0.1-0.3-0.1-0.5-0.2c-2.1,0.3-4.2,0.6-6.4,1c0.4,0.4,0.8,0.6,1.2,0.6
		c0.4,0.1,0.6,0.4,0.6,0.7c0,0.4-0.4,0.3-0.6,0.3c-1,0.2-1.7,0.8-2.1,1.8c2.5-1.1,4.9-1.9,7.5-0.8c-1.2,1-3.3,0.4-4.6,1.9
		c1.3,0.1,2.6,0,3.8,0.2c0.1,0,0.2,0,0.3,0c1,0.1,1.9,0.3,2.8-0.2c0.7-0.4,1.5-0.2,2.3,0c0.7,0.1,1.2,0.1,1.7-0.4
		c0.2-0.2,0.5-0.3,0.8-0.4c0.1-0.1,0.1-0.2,0.2-0.3c0.2-0.9,0-1.1-0.9-0.9c-0.5,0.1-1,0.3-1.5,0.3c-0.2,0-0.5,0.1-0.7,0
		c0-0.2,0.2-0.2,0.4-0.2c0.6-0.1,1.3-0.3,1.9-0.4c0.6-0.1,0.9-0.4,1-1c0.1-0.8,0.2-1.5,0.3-2.4c0.2,0.2,0.4,0.5,0.6,0.6
		c0.1,0,0.1-0.1,0.2-0.1c0.9-0.2,1.9-0.4,3-0.2c-1.1,0.6-2.2,1.1-3.4,0.9c0,0,0,0-0.1,0c-0.4,0.5-0.3,1.1-0.3,1.6
		c0,0.3,0.3,0.3,0.6,0.3c0.5-0.1,1-0.2,1.5-0.3c0.2,0,0.5-0.2,0.8,0.1c-0.8,0.3-1.6,0.3-2.3,0.5c-0.8,0.2-1,0.7-0.7,1.4
		c0.4,0,0.6,0,0.4,0.5c-0.2,0.5-0.2,1.1,0.3,1.5c0.2,0.2,0.2,0.5,0.2,0.7c0.2,0.4,0.4,0.8,0.9,0.8c0.7-0.2,1.4-0.5,2.1-0.7
		c-0.1-0.5-0.7-0.7-0.9-1.1c-0.1-0.2-0.4-0.3-0.4-0.7c0.8,0.5,1.2,1.3,2,1.6c0.5-0.1,1-0.3,1.4-0.5c0.4-0.4,0.5-0.5,0-0.9
		c-0.6-0.5-1.2-1.1-1.8-1.6c-0.1-0.1-0.3-0.2-0.2-0.4c0.1-0.1,0.3,0,0.4,0.1c0.6,0.7,1.4,1.3,2.1,1.9c0.2,0.2,0.4,0.4,0.7,0.5
		c0.5-0.1,1.1-0.1,1.6-0.2c0,0,0,0.1,0.1,0.1c-1,0.6-2,1.2-3.2,1.8c0.8,0.1,1.4,0,2-0.1c0.1-0.1,0.2-0.3,0.3-0.4
		c0.1-0.1,0.2-0.3,0.4-0.2c0.2,0.1,0.5,0.2,0.3,0.6c0.6,0.3,0.9,0.9,1.2,1.4c0.1,0.2,0,0.3-0.2,0.4c-0.6,0.3-1.2,0.3-1.9,0.4
		c0.2,0.6,0.7,0.8,1.2,1c0.3,0,0.5,0,0.8,0c0.4,0.2,0.6-0.3,0.8-0.4c0.2-0.1,0.4-0.6,0.7-0.4c0.2,0.2-0.2,0.5-0.4,0.7
		c-0.9,1.1-1.9,2.1-2.8,3.1c-0.1,0.1-0.3,0.2-0.4,0.1c-0.1-0.2,0-0.3,0.1-0.4c0.3-0.4,0.9-0.6,0.9-1.2c0-0.1-0.1-0.2-0.2-0.2
		c-1.3,1.4-3,1.9-5,2.1c1.5,1.3,3.1,1.1,4.8,1.2c-1.1,0.5-2.1,1.1-3.2,1.6c-0.6,0.3-0.5,0.5-0.1,0.8c0.2,0.2,0.4,0.4,0.5,0.6
		c0.3,0.4,0.4,0.8-0.1,1.1c-0.1,0-0.1,0.2-0.1,0.3c0.7,0,1.5-0.1,2.1-0.3c1.3-0.5,2.7-0.7,4.1-0.6c0.5,0,1,0,1.6-0.1
		c0.7-0.1,1.3-0.3,1.7-0.8c0.8-0.6,1.4-1.4,2.1-2.1c0.1-0.1,0.2-0.2,0.3-0.3c0.1-0.1,0.3-0.1,0.4,0c0.1,0.1,0,0.2-0.1,0.3
		c-0.1,0.2-0.3,0.3-0.4,0.5c-0.2,0.2-0.4,0.4-0.3,0.7c1.9-0.6,3.9-0.9,5.9-0.8c0.4,0,0.5,0.1,0.5,0.5c0,0.4-0.1,0.6-0.5,0.6
		c-0.8,0-1.5,0.2-2.2,0.4c0.3,1.3-0.5,2.3-0.8,3.4c-0.1,0.2-0.2,0.5,0,0.7c1,0.2,1.9,0.4,3,0.4c-0.3,0.7-0.8,1-1.5,1.1
		c-0.5,0.1-0.8,0.4-0.9,0.9c1.8,0.1,3.6-0.4,5.3-0.5c-0.3,1-1,1.5-1.9,1.5c-0.5,0-0.8,0.2-1.4,1c0.3,0.1,0.5,0,0.8,0
		c1.9-0.2,3.7-0.1,5.5,0.1c1.2,0.1,2.4,0,3.6-0.2c0.2,0,0.5-0.1,0.5-0.3c0-0.2-0.3-0.2-0.4-0.5c2-0.2,3.9,0.4,5.8,0.9
		c-0.1-1-0.1-1.1-1-1c-1.4,0.1-1.4,0-1-1.2c0.3-0.9,0.5-1.8-0.1-2.6c-0.1-0.1-0.1-0.3-0.2-0.5c0.4,0,0.8,0.1,1,0.3
		c0.7,0.7,1.7,0.9,2.5,1.3c4,1.8,4.6,6.8,2.1,10.5c-1,1.4-1.7,2.7-2.7,3.3C160.9,257,154.4,260,141.7,260z M129.6,205.1
		c-0.2,0-0.4,0.1-0.5,0.1c-0.7,0.2-1.4,0.5-2.3,0.6c0.6-0.5,1.2-0.6,1.8-0.7C128.9,204.9,129.2,205,129.6,205.1z M132.8,202
		c-1.1,0-2.2,0-3.3,0c0.7-0.8,1.4-1.1,2.3-0.8C132.2,201.2,132.8,201.2,132.8,202z M137.1,202.2c0,0.3-0.3,0.5-0.6,0.5
		c-0.2,0-0.5-0.2-0.4-0.4c0-0.3,0.2-0.5,0.6-0.6C136.8,201.9,137.1,202,137.1,202.2z M224,214.6c1,0,2.1-0.2,3,0.3
		c0.1,0.1,0.3,0.1,0.3,0.3c0,0.4-0.6,0.9-1,0.8c-0.3-0.1-0.7-0.2-1-0.2C224.6,215.7,224.2,215.3,224,214.6z M217,222.6
		c0.5-1.1,0.7-1.2,2.3-0.9C218.7,222.8,218.7,222.8,217,222.6z M215.2,216.6c-0.1,0-0.3,0-0.2-0.2c0.3-0.5,0.2-0.9,0-1.4
		c1.4,0.2,2.7,0.4,3.9,0.6c0,0,0,0,0,0c0,0,0,0,0,0c0,0,0,0,0,0c0,0,0,0,0,0c0.4-0.7,1.1-0.3,1.6-0.4c0.4-0.1,0.7,0.1,0.9,0.4
		c0,0,0,0,0,0c0,0,0,0,0,0c0,0,0,0,0,0c0,0,0,0,0,0c0.4,0,0.7,0,1.1,0c0.5,0,0.3,0.3,0.3,0.5c-0.2,0.4-0.8,0.4-1.1,0
		c-0.1-0.2-0.2-0.3-0.2-0.5c0,0,0,0,0,0v0c0,0,0,0,0,0c-0.8,0-1.7,0-2.5,0c0,0,0,0,0,0c0,0,0,0,0,0c0,0,0,0,0,0c0,0.2,0,0.4,0,0.6
		c0,0.3-0.1,0.4-0.4,0.4C217.4,216.6,216.3,216.6,215.2,216.6z M214.6,221c0.7-0.7,1.1-0.7,1.5,0.1C215.6,221,215.2,220.8,214.6,221
		z M208.7,235c0.5-0.5,0.9-0.6,1.2-0.3c0.1,0.1,0.2,0.2,0.1,0.3c-0.1,0.1-0.2,0-0.3,0C209.4,234.9,209,235.1,208.7,235z
		 M198.9,232.7c0.7-0.1,1.5,0,2.2,0.1c2.4,0.3,4.6,1.3,7,1.4c0.4,0,0.2,0.4,0.2,0.6c0,0.2,0,0.4-0.3,0.4c-0.5,0-1.1,0-1.6-0.1
		c-1.7-0.5-3.5-0.9-5.2-1.3C200.4,233.5,199.6,233.2,198.9,232.7z M197.2,242.1c0.6-0.7,1-0.6,1.3,0.1
		C198,242.1,197.6,241.9,197.2,242.1z M192.2,184.3c-2,0.1-3.9,0.1-5.8-0.5C188.3,183.3,190.2,184.1,192.2,184.3z M186.2,223.6
		c0,0.6-0.4,0.5-0.7,0.5c-0.4,0-0.8,0-1.2,0c0.2-0.7,0.5-1.1,1.3-1C185.9,223.2,186.2,223.1,186.2,223.6z M185.9,221.9
		c-0.6-0.1-0.6-0.4-0.6-0.9c0.1-0.6,0.5-0.2,0.7-0.3c0.1,0,0.1,0,0.2,0c0.1,0,0.3,0,0.4,0c0.5-0.1,0.7,0.2,0.6,0.7
		C187.1,221.6,186.3,222,185.9,221.9z M183.8,203.9c0.5-0.5,1-0.9,1.7-0.9c0.5,0,1,0,1.4,0c0.7-0.1,1.1,0.2,1.2,0.9
		C186.6,203.9,185.2,203.9,183.8,203.9z M187.8,195.3c0-0.9,0.1-1,1.3-1.3C189.2,195,188.4,195.1,187.8,195.3z M188.8,191.4
		c0-0.1,0-0.1,0-0.2c0.4-0.6,1.2-0.9,1.3-1.8c0-0.2,0.2-0.1,0.3-0.1c1.5,0.2,2.9,0.4,4.4,0.5c-1.1,0.2-2.1,0.3-3.2,0.5
		c-0.2,0-0.3,0-0.5,0.2C190.6,191.4,189.8,191.5,188.8,191.4z M190,207.3c0.1,0,0.1,0.2,0.1,0.3c-0.1,0.5-0.5,0.3-0.8,0.3
		C189.6,207.7,189.6,207.3,190,207.3z M191.6,198.5c0.1,1.2,0.2,1-1.4,1C190.5,198.6,191,198.5,191.6,198.5z M194.9,198.6
		c-0.8,0.4-1,0.3-1.4-0.5c-0.1-0.2-0.2-0.4-0.3-0.7c0.5,0,1,0,1.4,0c0.2,0,0.5-0.1,0.5,0.2C195,198,195.4,198.4,194.9,198.6z
		 M194.6,204.4c-0.8,0.1-1.6,0.2-1.7-0.9C193.5,203.6,194.1,203.8,194.6,204.4z M195.5,179.9c-0.5,0.2-1.1,0-1.6,0.2
		c-0.9,0.2-1.9,0.2-2.8,0.3c-0.8,0-1.5-0.3-1.9-1.1c1-0.1,1.9-0.3,2.9-0.4c0.3-0.2,0.6-0.2,1-0.2c0,0,0.1,0,0.1,0
		c0-0.1,0.1-0.2,0.2-0.2c0,0.3,0.3,0.2,0.4,0.3c0,0,0,0,0,0c0,0,0,0,0,0c0.4,0,0.8,0,1.2,0c0.4-0.1,0.7,0.1,0.8,0.5
		C196,179.7,195.8,179.8,195.5,179.9z M195.9,185.4c-1.3,0.5-2.6,0.4-4,0.5c1-1.1,2.1-1.8,3.6-1.2c0.1,0,0.3,0,0.4,0
		c0.1,0.1,0.3,0.1,0.4,0.1C196.2,185.1,196.1,185.3,195.9,185.4z M197.2,202c-0.7,0.4-1.2,0.6-1.9,0.5
		C195.9,202,196.4,202,197.2,202z M199.1,208.5c-0.3,0.7-0.3,0.8-0.5,0.9c-0.9,0.4-2.6,0-3.2-0.9
		C196.6,208.5,197.9,208.5,199.1,208.5z M203.8,192.1c0,0.2-0.1,0.3-0.3,0.3c-0.3,0-0.6,0-0.9,0c-0.3,0-0.7,0-1,0
		c-0.2,0-0.3,0-0.3-0.2c0-0.3,0.1-0.3,0.3-0.3c0.6,0,1.3,0,1.9,0C203.6,191.9,203.8,191.9,203.8,192.1z M204.8,199
		c0,0.2,0.1,0.5-0.3,0.5c-1.3,0-2.6,0.5-3.9,0.5c-1.2,0-1.7-0.3-2.3-1.5c0.8,0.2,1.7,0.3,2.5,0.5c0.1,0,0.4,0.1,0.4-0.1
		c-0.1-0.4,0.2-0.4,0.5-0.4c1-0.2,1.9,0,2.9,0C204.9,198.5,204.7,198.8,204.8,199z M207.7,200.5c-1,1.9-3.6,1.9-4.9-0.1
		c1.6,0,3.1,0,4.6,0C207.5,200.5,207.6,200.5,207.7,200.5z M209.3,208c-0.4,0-0.7,0-1,0c-0.2,0-0.4,0.1-0.5-0.2c0-0.2-0.1-0.5,0-0.7
		c0.1-0.2,0.3,0,0.5,0C208.9,207.2,209,207.5,209.3,208z M203.1,214.7c2.9-1,5.8-0.4,8.7-0.1c-0.4,0.6-0.9,0.9-1.6,0.7
		c-0.9-0.2-1.8-0.4-2.8-0.3c0.4,0.6,0.6,1.4,1.2,1.6c0.5,0.2,0.5,0.4,0.7,0.8C206.9,217.1,205,215.7,203.1,214.7z M197.5,214
		c-0.7-0.1-1.4,0.2-2.1,0c-0.9-0.2-1.8-0.3-2.5-1c-0.2-0.3-0.2-0.4,0.1-0.5c0-0.1,0.1-0.3,0.2-0.4c-0.3,0-0.6,0-0.9,0
		c-0.1,0-0.1,0-0.2,0c-0.6,0.1-1.1-0.2-1.7-0.1c-0.6,0-1.1,0-1.7,0c0.3-1.4,0.4-1.5,1.8-1.5c1.3,0.1,2.7,0.1,4,0.2
		c1.9,0.1,3.8,0.2,5.7,0.3c0.2,0,0.4,0,0.4,0.3c0,0.3-0.2,0.2-0.4,0.3c-0.2,0-0.4,0-0.6,0c-0.6,0-1.3,0-1.9,0.5
		c3.9,0.4,7.6,0.9,11.4,1.3c0.4-0.1,0.8,0.2,1.2,0.2c-0.4,0-0.8,0-1.2,0v0c-0.6,0-1.2,0.1-1.8,0.1
		C204.1,213.9,200.8,214.1,197.5,214z M197.1,215.6c1.1,0,2.2,0,3.3,0.2c0.8,0.1,1.6,0.3,2.2,0.9c-0.9-0.1-1.7-0.2-2.6-0.3
		c-1-0.2-2.1-0.2-3.1-0.3C196.6,215.8,196.7,215.6,197.1,215.6z M195.2,217.1c0.2,0,0.4,0,0.6,0c0.2,0.1,0.4,0.2,0.3,0.5
		c-0.4,0-0.8,0-1.2-0.1C194.8,217.3,194.8,217.1,195.2,217.1z M193.2,219.9c0.2-0.3,0.5-0.5,0.9-0.4c0.2,0.1,0.4,0.2,0.4,0.5
		C194,220,193.6,219.8,193.2,219.9z M193.3,217c-1-0.1-2-0.4-3.1-0.4c-0.6,0-0.5-0.4-0.5-0.7c0-0.5,0.3-0.3,0.6-0.3
		c0.3,0,0.5,0,0.8,0.1c0.5,0.1,1,0.3,1.5,0.4c0.5,0,0.9,0.2,1.2,0.5c0.1,0.2,0.6,0.1,0.5,0.5c0,0-0.1,0-0.1,0
		c-0.3,0.3-0.6,0.6-0.9,1c-0.2,0.2-0.3,0.2-0.5,0c-0.2-0.2-0.2-0.3,0-0.5C193,217.5,193.1,217.2,193.3,217z M189.7,221.6
		c0-0.2-0.1-0.4,0.3-0.4c1.1-0.1,1.1-0.1,1.6,1c-0.6,0-1.1,0-1.6,0C189.5,222.1,189.7,221.8,189.7,221.6z M189.7,226.9
		c0,0.2-0.1,0.2-0.3,0.2c-0.4,0-0.8,0-1.2,0c-0.4,0-0.8,0-1.2,0c-0.2,0-0.3,0-0.3-0.2c0-0.2,0.1-0.2,0.3-0.2c0.8,0,1.6,0,2.4,0
		C189.5,226.7,189.7,226.7,189.7,226.9z M191.8,241.7c1.4-0.4,2.8-0.6,4.3-0.5C194.9,242.2,192.9,242.4,191.8,241.7z M190.2,233.9
		c0-0.2,0.1-0.2,0.3-0.2c1.3,0,2.7,0,4.2,0c-0.5,0.6-0.8,1.1-1.5,0.9c-0.9-0.2-1.8-0.4-2.7-0.5C190.3,234.2,190.2,234.1,190.2,233.9
		z M189.3,228.6c-0.2,0-0.3,0-0.5,0c-1.2,0-2.4,0-3.6,0.2c-0.8,0.2-0.8,0.2-0.9-0.8c0.7,0,1.4,0,2.1,0c1,0,2,0,2.9,0
		c0.2,0,0.4,0,0.4,0.3C189.7,228.7,189.5,228.6,189.3,228.6z M185.5,230.6c-0.5-0.1-0.9-0.2-1.4-0.1
		C184.6,229.9,185,229.9,185.5,230.6z M183.7,232.7c1.6,0,3.2,0,4.8,0c0.7,0,1,0.3,1.2,1c-0.2,0-0.4,0-0.7,0c-1.3,0-2.5,0-3.8,0
		c-0.4,0-0.7,0-0.8,0.5c0.1,0.1,0.2,0.3,0,0.5c-0.1-0.2-0.1-0.3-0.2-0.5C184.1,233.7,183.9,233.2,183.7,232.7z M183.4,195.4
		c0.4-0.1,0.9-0.2,1.3-0.3c0.3,0,0.7,0,0.8,0.5c0.1,0.5,0,0.8-0.6,0.7c-0.2,0-0.4,0-0.6,0c-0.2,0-0.5,0-0.7,0c-0.3,0-0.4,0-0.4-0.3
		C183.2,195.9,183,195.5,183.4,195.4z M182.6,184.7c0-0.5,0.3-0.4,0.6-0.4c2.1,0.1,4.2,0.5,6.3,0.6c-0.6,0.5-1.3,0.7-2,0.8
		c-1.5,0.4-3-0.1-4.4-0.3C182.6,185.4,182.7,185.1,182.6,184.7z M181.7,217.5c0-0.1,0-0.3,0-0.4c-0.1-0.7,0.5-0.8,0.8-0.8
		c0.3-0.1,0.1,0.5,0.2,0.7c0,0,0,0.1,0,0.1c0,0.1,0,0.3,0,0.4c0,0.4,0,0.6-0.5,0.6C181.6,218.1,181.6,217.8,181.7,217.5z
		 M165.1,236.7c0.3-0.5,0.5-1.1,1-1c0.5,0,0.6,0.6,0.9,1C166.4,236.7,165.8,236.7,165.1,236.7z M167.3,207c-0.5-0.3-1.1-0.1-1.6-0.3
		C166.8,206.3,167.1,206.3,167.3,207z M165.6,196.6c0.6-0.1,1.2-0.6,1.7,0.3C166.8,196.6,166.1,196.8,165.6,196.6z M166.9,230.7
		c-1-1.1-1.9-2-2.9-3.1C166.5,227.8,166.9,228.2,166.9,230.7z M167,224.2c-0.1-0.3-0.2-0.5-0.3-0.7c-0.1-0.2,0-0.4,0.2-0.4
		c0.3-0.1,0.2,0.2,0.3,0.3C167.1,223.6,167.1,223.9,167,224.2z M163.7,231.8c1.2,0,1.5,0.2,1.7,1.9
		C164.8,233.1,164.3,232.5,163.7,231.8z M162,219.1c-0.2,0-0.3,0-0.4-0.2c0,0,0-0.1,0-0.1c0-0.4,0.4-0.3,0.6-0.3c0.1,0,0.3,0,0.4,0
		c0.2,0,0.4,0,0.4,0.3c0,0.4-0.2,0.2-0.4,0.2C162.4,219.1,162.2,219.1,162,219.1z M158.6,228.7c0.3-0.1,0.5-0.1,0.8,0.1
		C159.1,229,158.9,228.7,158.6,228.7z M153.8,222.8c-0.5-0.2-0.6-0.7-0.4-1c0.1-0.3,0.4,0.1,0.6,0.2c0.5,0.3,0.6-0.1,0.8-0.4
		c-0.9-0.1-1.7-0.2-2.6-0.4c0.5-0.2,0.9-0.2,1.4-0.3c1-0.1,1.9-0.3,2.9-0.4c0.3,0.1,0.2,0.4,0.2,0.6c0,0.2-0.1,0.5,0.1,0.7
		c0.9,0.2,1.7-0.1,2.6-0.2c0.7-0.1,1.3-0.2,1.9,0.3c0.2,0.1,0.5,0.1,0.7,0.2c-0.4,0.9-1.9,1-1.6,2.5c-0.9-0.8-1.7-1.1-2.7-1.1
		c-0.3,0-0.7,0-1-0.1C155.6,223.4,154.7,223.1,153.8,222.8z M161.2,218.3c0.2,0.3,0.1,0.3-0.2,0.4c-0.7,0.2-1.3,0.2-2,0.4
		c-0.4,0.1-0.5-0.1-0.5-0.5c0-0.4,0.2-0.5,0.5-0.5c0.6,0,1.1,0.1,1.7,0.1c0.3,0,0.5-0.1,0.8-0.1
		C161.4,218.2,161.3,218.2,161.2,218.3z M151.6,236.7c0.2-0.7,0.6-1,1.2-1.1c0.8-0.1,1.5-0.3,2.3-0.3c0.2-0.1,0.5-0.1,0.7-0.1
		c0.1,0,0.1,0.1,0,0.1h0C154.6,236.4,153,236.3,151.6,236.7z M151.1,240.8c1.2,0,2.3,0,3.3,0c-0.3,0.3-0.1,1-0.8,0.9
		C152.8,241.6,152,241.3,151.1,240.8z M150.6,234.7c0-0.4,0.5-0.3,0.8-0.4c0.4-0.1,0.9,0.1,0.9,0.4c0,0.3-0.5,0.3-0.8,0.3
		C151.2,235.1,150.6,235,150.6,234.7z M148.5,200.5c0.9-0.2,1.9-0.4,2.8-0.6C150.5,201.6,149.4,201.8,148.5,200.5z M151.3,207
		c-0.5-0.1-0.9-0.2-1.4-0.1C150.5,206.2,150.8,206.2,151.3,207z M148.8,241.1c0.8-0.7,1.1-0.7,1.5,0.1
		C149.8,241.1,149.4,241,148.8,241.1z M139,229.7c0.5-1.2,0.9-1.3,3.3-1C141.6,230.3,140.2,229.5,139,229.7z M140.6,226.2
		c-1.3,0-2.6,0-3.8-0.3c-1.1-0.3-2.2-0.4-3.4-0.3c-0.3,0-0.6,0.1-1,0.1C134,224.2,139.2,224.5,140.6,226.2z M140.7,223.1
		c0.8,0,1.6,0,2.4,0c0.2,0,0.3,0,0.3,0.2c0,0.2-0.1,0.3-0.3,0.3c-0.4,0-0.8,0-1.2,0c-0.4,0-0.8,0-1.2,0c-0.2,0-0.3-0.1-0.3-0.3
		C140.4,223.2,140.6,223.1,140.7,223.1z M143.6,220c-0.5,0-1-0.1-1.5-0.1c0,0,0-0.1,0-0.1c0.7-0.2,1.5-0.4,2.3-0.7
		C144.5,220.1,144.5,220.1,143.6,220z M144.8,231.1c1.1,0,2.2,0,3.3,0c0.2,0,0.3,0,0.3,0.3c0,0.3-0.2,0.2-0.4,0.2
		c-0.5,0-1.1,0-1.6,0c-0.6,0-1.1,0-1.7,0c-0.2,0-0.4,0-0.3-0.3C144.4,231.2,144.6,231.1,144.8,231.1z M148.9,217.1
		c0.8-0.1,1.1,0.1,1.4,1c-1.4,0-2.8,0-4.3,0C147.1,217.5,148,217.2,148.9,217.1z M146.5,213.6c0-0.3,0-0.6,0.4-0.6
		c0.8,0,1.5-0.2,2.2-0.6c0.4-0.2,0.7-0.1,1,0.1c0,0.2,0.1,0.5,0.3,0.7c0.1,0.5-0.3,0.4-0.5,0.6c-0.3,0.2-0.4,1-0.9,0.3
		c-0.7,0-1.3-0.1-2-0.1C146.6,214.1,146.4,214,146.5,213.6z M146.8,195.6c0.3-0.1,0.5-0.1,0.8,0.2
		C147.2,195.7,147,195.7,146.8,195.6z M142,212.1c1.3-0.2,2.6-0.6,3.9-0.5c0,0,0,0,0,0c0,0,0,0,0,0c0,0,0,0,0,0c0,0.1,0,0.2,0,0.3
		c0.1,0.5-0.1,0.8-0.7,0.8c-0.5,0-1,0.2-1.5,0.4C142.8,213.3,142.4,213,142,212.1z M141.4,194c-0.5,0-0.9-0.1-1.5-0.1
		c0.3-0.4,0.5-0.8,0.8-1.1c0.3-0.3,1.5-0.2,1.7,0.1C142.4,193.1,141.7,194,141.4,194z M144.1,209.8c0.3,0.2,0.7,0.1,1,0.4
		c0.1,0.2,0.2,0.3-0.1,0.3c-1.8,0-3.6,0-5.5,0c0.2-0.4,0.2-1,0.8-1C141.6,209.6,142.9,209.4,144.1,209.8z M143.7,194.4c1,0,2,0,3,0
		c0.2,0,0.3,0.1,0.3,0.3c0,0.2-0.1,0.2-0.3,0.2c-0.5,0-1,0-1.4,0c-0.5,0-1,0-1.5,0c-0.2,0-0.3,0-0.3-0.2
		C143.4,194.5,143.5,194.4,143.7,194.4z M149.3,192.4c-1.2,0-2.2-0.1-3.3-0.5C146.7,191,148.2,191.5,149.3,192.4z M151.5,191.9
		c-0.4,0-0.9,0-1.5,0c0.4-0.6,1-0.3,1.4-0.5c0.2-0.1,0.3,0,0.3,0.2C151.8,192.1,151.6,191.9,151.5,191.9z M151.9,194.4
		c-1.9,0.1-3.6-0.3-5.4-0.5c0.4-0.6,0.7-1.2,1.5-1C149.3,193.2,150.5,193.8,151.9,194.4z M155.2,182.5c-0.1,0.2-0.2,0.6-0.5,0.5
		c-0.2,0-0.4-0.2-0.5-0.5c0.2-0.2,0.3-0.5,0.6-0.5C154.9,182,155.2,182.3,155.2,182.5z M155.6,188.5c-0.8,0.2-1.6,0.4-2.6,0.4
		c0.3-0.3,0.3-0.8,0.8-0.9c0.6-0.1,1.2-0.1,1.7-0.1c0.1,0,0.4-0.1,0.4,0.2C155.9,188.3,155.9,188.4,155.6,188.5z M154.8,204.5
		c-0.7-0.3-1.3-0.2-2-0.2C153.9,203.6,154.3,203.7,154.8,204.5z M156.5,214.1c0.3,0,0.6,0,0.9,0c0.8,0,1.6-0.1,2.3-0.1
		c0.3,0,0.4-0.1,0.4-0.4c0-0.2,0-0.4,0-0.7c0-0.4-0.1-0.5-0.5-0.5c-0.6,0-1.3,0-2,0c0.2-0.5,0.3-0.9,0.9-1c2.4-0.4,4.2,1.2,4.1,3.6
		c0,0.4-0.1,0.4-0.4,0.4c-0.9-0.1-1.9-0.1-2.8-0.1c0,0,0,0,0,0c0,0,0,0,0,0c-0.1,0.1-0.2,0.1-0.3,0.2c0,0,0,0,0,0c0,0,0,0,0,0
		c0.2,0.2,0.3,0.3,0,0.6c-0.5,0.6-1,1.2-1.6,1.7c0-0.5,0.5-0.6,0.7-0.9c-0.3,0.1-0.6,0.3-1,0.2c-0.7,0.1-1.4,0.2-2.1,0.3
		c-0.4,0.1-0.8,0.4-1.3,0.1c-0.5,0-0.9-0.1-1.4-0.1c-0.3,0-0.7,0-0.8-0.2c-0.1-0.2,0.3-0.5,0.4-0.8c0.1-0.2,0.3-0.2,0.5-0.2
		c0.5,0,0.9,0,1.4,0c0.2-0.7,0.1-0.9-0.6-1c-0.3-0.1-0.5-0.2-0.5-0.5c-0.1-0.1-0.1-0.3-0.2-0.4c0.3-0.3,0.6-0.1,0.9-0.2
		C154.5,214,155.5,214.1,156.5,214.1z M159.3,200c-1.1,0.3-2.1,0-2.8-1c1,0,1.8,0,2.7,0c0.3,0,0.4,0.1,0.3,0.4
		C159.5,199.5,159.7,199.9,159.3,200z M161.5,182.1c-0.7,0.3-1.3,0.1-1.8,0.2c-0.2,0-0.4-0.1-0.7-0.1c-0.9-0.2-1.8-0.2-2.8-0.3
		c0.9-0.6,1.8-0.4,2.6-0.2c0.4,0,0.8,0,1.2,0.2C160.5,181.9,160.9,182,161.5,182.1z M162.8,190.3c-0.3,0-0.6,0-0.9,0
		c-0.9,0-0.9,0-0.8-0.9c0.1,0,0.2,0,0.3,0c-0.3-0.6-1-1-1.4-1.5c-0.2-0.2-0.3-0.3-0.1-0.6c0.2-0.2,0.4,0,0.5,0.1
		c0.7,0.7,1.4,1.3,2.1,2l0,0c0.1,0.1,0.1,0.2,0.2,0.2C162.6,189.9,162.9,190.1,162.8,190.3z M163.6,203.5c0,0.7-0.5,0.4-0.8,0.5
		c-0.4,0-0.8,0.2-0.8-0.5c0-0.7,0.5-0.5,0.8-0.5C163.1,203,163.6,202.8,163.6,203.5z M164.5,219.1c0.1,0.6-0.3,0.5-0.7,0.5
		c-0.2-0.1-0.8,0.2-0.6-0.4c0.1-0.6,0.7-0.5,1.1-0.6C164.7,218.6,164.5,219,164.5,219.1z M166.3,188.9c0.4,0.2,0.2,0.5,0.2,0.8
		c0,0.3-0.3,0.1-0.5,0.1c-0.3,0-0.6,0-1,0c-0.1-0.3-0.3-0.5-0.4-0.8c0,0,0-0.1,0-0.1C165.2,188.9,165.8,188.9,166.3,188.9z
		 M164.9,172.7c0.6-0.7,0.9-0.7,1.4,0.1C165.8,172.7,165.4,172.5,164.9,172.7z M164.1,174.3c0.8-0.5,1.2-0.6,1.8-0.3
		C165.4,174.3,164.8,174.4,164.1,174.3z M162.1,172.6c0.7-0.7,1.3-0.7,1.7,0.1C163.2,172.6,162.6,172.5,162.1,172.6z M171.9,166.9
		c-0.8,1.1-1.8,1.3-3,1c-1.9-0.4-3.8-0.7-5.6-1.1c-1.7-0.3-3.4-0.7-5.1-1c0.1-0.1,0.1-0.2,0.1-0.2c1.2-1.4,1.2-1.4,2.9-0.8
		c0,0,0,0,0,0c0,0,0,0,0,0c0.3-0.8,0.4-0.9,1.2-0.9c-0.1,0.7-0.7,0.8-1.2,0.9c0,0,0,0,0,0l0,0c0,0,0,0,0,0v0l0,0c0,0,0,0,0,0
		c0.2,0.4,0.3,1,0.9,1c0.4,0,0.9,0,1.3,0.2c2.2,0.8,4.5,1.1,6.8,0.9c0.5,0,0.9,0,1.4,0C171.6,166.8,171.8,166.7,171.9,166.9z
		 M181.2,173.3c-2.4-0.1-4.9-0.2-7.3-0.3c-0.2,0-0.4,0.1-0.6-0.2c1.1-0.2,2.2-0.6,3.3-0.5c1.5,0.1,3.1,0.3,4.6,0.5
		c0.2,0,0.5,0,0.4,0.4C181.6,173.4,181.3,173.3,181.2,173.3z M180.8,222.1c0.1,0,0.1,0,0.2,0c0.3,0.5,0.2,1.1-0.1,1.6
		C180.8,223.2,180.8,222.6,180.8,222.1z M178.8,193.2c0.3-1,1.3-0.9,2.2-1.3C180.6,192.9,179.5,193.5,178.8,193.2z M177.7,190.4
		c0.2-0.2,0.5-0.3,0.8-0.5c0.2-0.1,1.1,0.4,1,0.5c-0.2,0.4-0.4,0.8-0.9,1C178.5,191.6,177.7,190.7,177.7,190.4z M177.3,234.3
		c0.1-0.1,0.2-0.3,0.4-0.1c0.1,0.1-0.1,0.2-0.2,0.3C177.4,234.3,177.4,234.3,177.3,234.3z M177.3,176.4c0.5-0.1,1.1-0.1,1.6,0
		c0.4,0.1,0.4,0.6,0.7,1c-0.7,0-1.3,0-1.9,0c-0.1,0-0.2,0-0.3,0c-0.2,0-0.3-0.1-0.3-0.3C177.1,176.8,176.9,176.4,177.3,176.4z
		 M175.7,205.5c-0.8,0-1.6,0-2.6,0c0.8-0.5,1.5-0.8,2.1-1.2c0.2-0.1,0.3,0,0.4,0.1c0.1,0.2,0.2,0.5,0.3,0.8
		C176.1,205.4,176,205.5,175.7,205.5z M173,200c-0.2,0-0.3,0.2-0.5,0c-0.1-0.1,0-0.3,0.1-0.4c0.1-0.2,0.3-0.3,0.6-0.3l0,0
		c0.3,0,0.4-0.3,0.7-0.4c0.1-0.3,0.3-0.4,0.5-0.5c0.4-0.2,0.6-0.1,0.8,0.3c0.2,0.6-0.3,0.2-0.4,0.3c-0.3,0.3-0.6,0.7-0.9,1
		C173.7,200.3,173.4,200.4,173,200z M173.2,202.1c0.3,0.4,0.5,0.8,0.8,1.2C173,203.4,173,203.4,173.2,202.1z M173.9,193.8
		c-0.1,0.1-0.2,0.2-0.3,0.1c-0.1-0.1-0.1-0.2,0-0.3c0.3-0.2,0.6-0.3,0.9-0.3c0.2,0.1,0.3,0.2,0.4,0.4c0.2,0.4,0.9,0.5,0.8,0.9
		c-0.1,0.4-0.6,0.7-0.9,1c-0.1,0.1-0.2,0.2-0.3,0.3c0-0.2,0.2-0.3,0.3-0.5c0,0,0,0,0,0c-0.2,0-0.4-0.1-0.6-0.1c0,0-0.1,0.1-0.1,0.1
		c-0.1-0.2-0.5-0.2-0.7-0.3c0.3-0.1,0.6,0.1,0.8,0.1c0,0,0.1,0,0.1,0c0,0,0,0,0,0c0.2-0.4,0.3-0.8-0.1-1.1
		C173.9,194,173.9,193.9,173.9,193.8z M175.9,203.4c-0.4,0.1-0.9-0.3-1.3,0C175.1,202.7,175.4,202.7,175.9,203.4z M171.6,184.9
		c0.5-0.1,0.9-0.3,1.4-0.4c1.1-0.2,1.3,0,1.1,1.1c0,0.1-0.1,0.2-0.2,0.3C172.9,186.1,172.2,185.9,171.6,184.9z M173.2,177.8
		c0.5-1.1,1.7-1.1,2.2,0C174.7,177.8,174,177.8,173.2,177.8z M175.9,190.9c-0.5-0.1-0.9-0.2-1.4-0.1c0.3-0.4,0.5-0.5,0.9-0.5
		C175.6,190.3,175.8,190.5,175.9,190.9z M174.8,222.8c-0.4-1.3-0.2-2.6-0.2-3.9c0-0.4,0.3-0.3,0.6-0.3c0.2,0,0.5-0.1,0.5,0.3
		c0,0.7,0,1.4,0,2.1c0,0.7,0,1.4,0,2.1c0,0.1,0.1,0.4-0.2,0.4c-0.2,0-0.3-0.1-0.4-0.2C174.9,223.2,174.9,223,174.8,222.8z
		 M174,231.9c0.1-0.3,0.3-0.5,0.6-0.8c0,0.3-0.1,0.5-0.3,0.6C174.3,231.8,174.2,231.9,174,231.9z M173.2,208.1
		c0-0.1,0.1-0.1,0.2-0.1c0.2,0.1,0.2,0.2,0.2,0.4c0,0.2,0.1,0.4-0.1,0.7c-0.1-0.2-0.2-0.4-0.3-0.5
		C173.1,208.4,173.1,208.2,173.2,208.1z M172.6,230.2c0.2,0.6,0.3,1.2,0.4,1.7c-0.1,0.3,0.1,0.6,0.1,0.9c0,0.3,0,0.6,0,1
		c0,0.1,0.1,0.3-0.1,0.3c-0.2,0.1-0.3,0-0.4-0.1c-0.1-0.1-0.2-0.2-0.3-0.3c-0.3-0.2-0.3-0.5-0.2-0.8
		C172.2,232.1,171.7,231.1,172.6,230.2z M171.6,225.3c0-0.4,0-0.8,0-1.2c0-0.4,0-0.7,0-1.1c0-0.2,0-0.3,0.2-0.4
		c0.3,0,0.3,0.2,0.3,0.4c0,0.8,0,1.5,0,2.3c0,0.2,0.1,0.4-0.2,0.4C171.6,225.6,171.6,225.5,171.6,225.3z M171.1,220.2
		c0-0.2,0-0.5,0.3-0.5c0.3,0,0.3,0.3,0.4,0.5c0,0.3-0.2,0.4-0.4,0.4C171,220.6,171.1,220.4,171.1,220.2z M170.6,176.1
		c0-0.3,0.3-0.2,0.4-0.2c0.8,0,1.7,0,2.5,0c0.9,0,1.8,0,2.7,0c0.2,0,0.4-0.1,0.4,0.3c0,0.3-0.2,0.3-0.4,0.3c-1.7,0-3.5,0-5.2,0
		C170.8,176.3,170.5,176.4,170.6,176.1z M170,171.1c0.6-0.6,0.9-0.6,1.3,0.1C170.9,171.2,170.5,171,170,171.1z M168.6,171.6
		c0.1-0.4,0.5-0.1,0.8,0c0.1,0,0.2,0.1,0.3,0.1c0.2,0.1,0.5,0.1,0.4,0.5c-0.1,0.2-0.4,0.1-0.6,0.2c-0.1,0-0.2,0-0.3,0
		C168.9,172.2,168.5,172,168.6,171.6z M167.1,237.8c0.2,0.5,0.3,0.9,0.5,1.3c0.2,0.7,0.4,1.4,0.4,2.1c0.1,0.6-0.3,0.8-0.8,0.9
		c-0.4,0.1-0.3-0.3-0.4-0.6C166.4,240.3,166.6,239.1,167.1,237.8z"/>
</g>
</svg>
