<?xml version="1.0" encoding="utf-8"?>
<!-- Generator: Adobe Illustrator 26.0.1, SVG Export Plug-In . SVG Version: 6.00 Build 0)  -->
<svg version="1.1" id="Layer_1" xmlns="http://www.w3.org/2000/svg" xmlns:xlink="http://www.w3.org/1999/xlink" x="0px" y="0px"
	 viewBox="0 0 400 400" style="enable-background:new 0 0 400 400;" xml:space="preserve">
<style type="text/css">
	.st0{fill:#FFFFFF;stroke:#E0E0E0;stroke-width:0.9989;stroke-miterlimit:10;}
	.st1{fill:#EC1B24;}
	.st2{fill:#034EA2;}
	.st3{fill:none;stroke:#333333;stroke-width:3;stroke-miterlimit:10;}
</style>
<path class="st0" d="M399.1,348.1c-92.2-0.2-184.3,0.1-276.5,0l0,0c-19.5,0-38.9,0-58.4,0c-4.1-20.5-8.2-41.1-12.3-61.7l0,0
	c-0.2-0.9-0.4-1.8-0.6-2.7l0,0c-3.1-15.5-6.2-31-9.3-46.5c-2.5-12.2-4.9-24.5-7.3-36.7C24,146.5,13.2,92.4,2.4,38.4
	c-0.1-0.3-0.9-2.4,0.2-4.6c1-2,3-2.6,3.3-2.8h78.4c3.7,0.2,10.6,1.1,18,5.2c8,4.4,12.6,10.5,14.1,12.6c3.4,4.5,12.5,16.6,26.1,34.6
	c3.8,5,8,10.5,12.5,16.5c4.9,6.5,10.2,13.5,15.9,21c21.2,28.1,47.4,62.9,77,102.3c21.5,28.1,54.4,62.2,102.1,87.6
	c10.1,5.4,20.1,9.9,29.6,13.8c2.6,0.9,10,3.7,15.2,11.4c1.6,2.4,2.7,4.8,3.4,6.8C398.6,344.9,398.9,346.7,399.1,348.1z"/>
<g id="MH">
	<g>
		<path class="st1" d="M64,224c-0.2,1-0.2,1.8,0,2.6h163v-0.3c-1.5-2.8-3.7-4.2-7-4c-3.7,0.2-6.6-1.6-9.2-4.1
			c-4.9-4.9-8.8-10.6-13.2-15.9c-12-15-25.7-27.7-43.5-35.6c-10.1-4.5-20.7-6.9-31.7-7c-17.2-0.1-34.6,0-51.8,0
			c-3.2,0-5.5,1-6.4,4.2c-1,3.4,1.8,6.2,5.9,6.2c12.1,0.1,24.3,0.3,36.4-0.1c7-0.2,11.4,3.4,13.7,9.1c3.9,9.4,7.1,19.2,10.4,28.9
			c1.2,3.6,0.3,4.4-3.4,3.7c-2.7-0.4-4.4-2.1-5.4-4.5c-1.2-3.1-2.3-6.3-3.4-9.4c-3.6-9.9-8.8-13.6-19.3-13.6c-11.8,0-23.7,0-35.5,0
			c-1,0-2.1,0-3,0.1c-2.9,0.3-4.9,2.4-4.9,5c0,2.7,2.2,5,5.2,5c5.9,0,11.8,0,17.7,0c5.3,0,7.2,1.2,9.1,6.2
			c2.3,5.6,4.3,11.4,6.7,17.1c0.9,2.2,0.6,2.9-1.9,2.9c-7.8,0-15.6,0-23.4,0c-2.7,0-4.6,1.1-5.3,3.7L64,224z"/>
		<path class="st2" d="M226.8,226.5H63.6c0.3,1.2,1.2,2.3,2.5,3.1s2.8,0.6,4.2,0.6c8.6,0,17.2,0.1,25.7,0c2.5-0.1,3.8,0.7,4.7,3.1
			c2.3,6.4,4.9,12.7,6.6,19.2c1,3.9,0.8,4.2-3.2,4.2c-6.2,0-12.5,0-18.7,0.2c-2.9,0.1-4.9,2.3-4.9,4.9c0,2.7,2.2,5,5.1,5
			c14,0.1,27.8,0.2,41.8-0.1c9.6-0.2,13.3-5.7,10.4-14.9c-1.1-3.6-2.4-6.9-3.4-10.5c-0.8-2.9,0.2-3.7,3-3.2c4,0.8,6.8,3.2,8.1,6.8
			c3.4,9.4,6.5,18.7,9.7,28.1c0.3,1,0.5,2,0.5,2.9c0.2,4.2-0.7,5.1-4.9,5.1c-12.6-0.1-25.2-0.3-37.8-0.3c-4.7,0-7.2,4-5,7.5
			c1,1.6,2.6,2.4,4.5,2.4c18.1-0.1,36.3,1.5,54.4,0c15-1.2,28.3-5.6,37.7-18.5c5.2-7.1,7.9-14.9,7.9-23.7c0.1-2.9-0.1-5.8,0.1-8.7
			c0.3-4.9,2.9-7.5,7.6-7.5c3.1,0.1,4.9-1.6,6.6-3.7V226.5L226.8,226.5z"/>
	</g>
</g>
<path class="st3" d="M398.7,346.9c-92.1-0.2-184,0.1-276.1,0H64.3c-4.1-20.4-8.2-40.9-12.3-61.5l0,0l-0.6-2.7l0,0l-9.3-46.4
	c-2.5-12.2-4.9-24.4-7.3-36.6C24.1,146,13.3,92.2,2.5,38.4c-0.6-1.5-0.5-3.1,0.2-4.6C3.5,32.5,4.6,31.5,6,31h78.3
	c6.3,0.4,12.4,2.1,17.9,5.2c5.5,3.1,10.3,7.4,14,12.5c3.4,4.5,12.5,16.5,26.1,34.5c3.8,5,8,10.5,12.5,16.4
	c4.9,6.5,10.2,13.4,15.8,20.9c21.1,28,47.3,62.7,76.9,101.9c21.4,28,54.3,62,101.9,87.3c9.6,5.1,19.5,9.7,29.6,13.8
	c6.1,2,11.5,6,15.1,11.4c1.4,2.1,2.5,4.4,3.4,6.8C398.2,343.7,398.5,345.5,398.7,346.9z"/>
</svg>
