<?xml version="1.0" encoding="utf-8"?>
<!-- Generator: Adobe Illustrator 27.0.0, SVG Export Plug-In . SVG Version: 6.00 Build 0)  -->
<svg version="1.1" id="Layer_1" xmlns="http://www.w3.org/2000/svg" xmlns:xlink="http://www.w3.org/1999/xlink" x="0px" y="0px"
	 viewBox="0 0 400 400" style="enable-background:new 0 0 400 400;" xml:space="preserve">
<style type="text/css">
	.st0{fill:none;}
	.st1{fill:#1E1C34;}
	.st2{fill:#1F2954;}
	.st3{fill:#263885;}
	.st4{fill:#2B45B4;}
	.st5{fill:#1979DC;}
	.st6{fill:#FFFFFF;}
</style>
<g id="MS_00000111193812711950891570000003347804284115813769_">
	<path class="st0" d="M222.2,167c2.3-1.9,3.8-3,3.8-3s-1.6,1-4.1,2.7L222.2,167z"/>
	<path class="st0" d="M223.8,168.7c1.3-2.9,2.3-4.6,2.3-4.6s-1.2,1.4-3,3.9L223.8,168.7z"/>
	<path class="st0" d="M226,164.1c0,0-1.6,0.9-4.4,2.4l0.3,0.3C224.5,165,226,164.1,226,164.1z"/>
	<path class="st0" d="M223,167.9c1.8-2.4,3-3.9,3-3.9s-1.5,1.1-3.8,3L223,167.9z"/>
	<path class="st0" d="M210.6,153.2c-3-2.9-6.2-5.8-9.5-8.6l1.1,1.2C205.1,148.1,207.9,150.6,210.6,153.2z"/>
	<path class="st0" d="M207,150.8c2.6,2,5.2,4.2,7.9,6.4c-1.4-1.4-2.8-2.7-4.2-4.1c-2.7-2.6-5.5-5-8.4-7.4L207,150.8z"/>
	<path class="st0" d="M221.1,164.5c-0.7-0.4-1.5-0.7-2.3-1l1.6,1.7C220.8,164.8,221,164.6,221.1,164.5z"/>
	<path class="st0" d="M210.6,153.2c1.4,1.4,2.9,2.7,4.2,4.1C213.5,155.9,212.1,154.5,210.6,153.2z"/>
	<path class="st1" d="M214.6,209.2c2.3,24.2,18.4,65.2,85.2,140.7h93.9L223.8,168.7C220.1,176.9,213.2,194.3,214.6,209.2z"/>
	<path class="st2" d="M201.2,144.6l-27.3-29.2c-18.4-13.7-35.1-22.9-56.2-35.4c-31.5-18.5-72.8-26.8-93.7-30H6.3l8.2,22.4
		c14.7,0.3,64.5,2.4,96.5,16.1C137.6,100,173.1,120.5,201.2,144.6z"/>
	<path class="st1" d="M173.8,115.4l-41-43.7c-12.9-13.8-31-21.6-49.9-21.6h-59c20.9,3.2,62.2,11.5,93.7,30
		C138.7,92.5,155.4,101.7,173.8,115.4z"/>
	<path class="st3" d="M94.1,94.9c30.1,7.4,73.7,22.4,108.1,50.9l-1.1-1.2c-28.1-24.1-63.5-44.6-90.2-56
		C78.9,74.9,29.2,72.8,14.5,72.4l7,19.1C32.9,90.6,68,88.5,94.1,94.9z"/>
	<path class="st4" d="M193.3,199.9c6.6-13.7,21.8-27.1,28.9-32.9l-0.3-0.3c-7.2,4.9-22.4,15.6-32.7,26.5
		c-16.6,17.5-50.5,68.8-30.5,156.7h40.1C179.7,282.1,180.7,226.2,193.3,199.9z"/>
	<path class="st5" d="M189.3,193.2c10.3-10.9,25.5-21.6,32.7-26.5l-0.3-0.3c-7.9,4.3-24.8,13.8-37.6,21.6
		c-29.5,18-71.6,70.6-68.2,161.9h42.9C138.8,262,172.6,210.7,189.3,193.2z"/>
	<path class="st6" d="M184.1,188c12.8-7.8,29.7-17.3,37.6-21.6l-1.3-1.4c-4.5,2.9-28.8,11.3-44,22.5c-16.5,12.2-28.3,22-38.9,37.3
		c-4-5-8.8-12.7-9-16.1c-0.3-3.3-2.7,0.3-3.5,1.7c-0.7,1.3-23,33.6-31.3,78.9l22.1,60.5h0C112.5,258.6,154.6,206,184.1,188z"/>
	<path class="st1" d="M128.5,208.9c0.3,3.3,5,11.1,9,16.1c10.6-15.3,22.4-25.1,38.9-37.3c15.2-11.3,39.5-19.6,44-22.5l-1.6-1.7
		c-22.3-10.1-54-16.4-98.2-12.4c-31.8,2.9-57,15-69.4,22.1l2.9,8.1c12.4-9.3,43-18.7,59.6-22.9c18.5-4.7,46.2-0.8,48-0.8
		c1.8,0,1.6,2.7-1.5,2.7c-3.1,0-20.3,3-44,10.5c-19.8,6.3-46.8,23.8-55.2,29.5l3,8.2c4.6-4.2,16.9-13.6,28-20.7
		c13.4-8.6,44.1-17.6,46.1-17.6c2,0,0.5,2.2-1.7,2.7c-22.8,7-57.3,44.6-65.7,54l4,11c27.7-39.4,52-53.1,54-54.6
		c2-1.5,3.3-1.5,2.7-0.7c-2.1,1.6-4.2,8.8-5,19.2c-17.8,14.3-35.6,49.9-41.8,63l9,24.7c8.4-45.2,30.6-77.6,31.3-78.9
		C125.8,209.1,128.3,205.5,128.5,208.9z"/>
	<path class="st2" d="M214.6,209.2c-1.4-14.9,5.5-32.3,9.2-40.5l-0.7-0.8c-5.1,6.9-15.4,22.1-18.2,36.8
		c-4.4,22.7,0.1,63.9,34.2,145.2h60.7C233,274.4,216.8,233.4,214.6,209.2z"/>
	<path class="st3" d="M204.8,204.7c2.8-14.7,13.1-29.9,18.2-36.8l-0.8-0.9c-7.1,5.8-22.3,19.1-28.9,32.9
		c-12.6,26.3-13.6,82.2,5.5,150h40.2C204.9,268.6,200.4,227.4,204.8,204.7z"/>
	<path class="st6" d="M160.3,160.2c3.1,0,3.3-2.7,1.5-2.7c-1.8,0-29.6-3.8-48,0.8c-16.6,4.2-47.2,13.5-59.6,22.9l6.9,18.9
		c8.4-5.7,35.4-23.2,55.2-29.5C140.1,163.2,157.2,160.2,160.3,160.2z"/>
	<path class="st6" d="M218.8,163.4l-4.7-5c-11.6-7.5-39.1-22.9-70.9-25.8c-30.5-2.8-76.7,2.6-100.8,16.6l8.8,24
		c12.4-7.1,37.6-19.2,69.4-22.1C164.9,147,196.5,153.3,218.8,163.4z"/>
	<path class="st6" d="M136.6,172.7c2.2-0.4,3.7-2.7,1.7-2.7c-2,0-32.8,9-46.1,17.6c-11.1,7.2-23.4,16.5-28,20.7l6.7,18.4
		C79.3,217.3,113.8,179.7,136.6,172.7z"/>
	<path class="st5" d="M143.2,132.6c31.7,2.9,59.2,18.3,70.9,25.8l-7.1-7.5c-36.8-28.5-75.6-35.4-108-39.2
		c-24.6-2.9-55.1,2.5-68.3,5.3l11.8,32.2C66.5,135.1,112.7,129.8,143.2,132.6z"/>
	<path class="st4" d="M99,111.7c32.4,3.8,71.2,10.7,108,39.2l-4.7-5.1c-34.4-28.5-78-43.5-108.1-50.9c-26.1-6.4-61.2-4.3-72.7-3.3
		l9.3,25.5C43.9,114.2,74.4,108.8,99,111.7z"/>
	<path class="st6" d="M126.5,201.7c0.8-10.4,2.9-17.6,5-19.2c0.6-0.8-0.7-0.8-2.7,0.7c-2,1.4-26.3,15.2-54,54.6l9.8,27
		C90.9,251.6,108.7,216,126.5,201.7z"/>
	<path class="st6" d="M188.4,168c-0.7-3-4.4-3.6-9.5-3.4c-2.8,0.1-15.5-1.4-35.5,16.5c-3.6,3.2-6.8,8.9-4.2,7
		c2.5-1.8,8.8-7.4,10.2-8.2c1.5-0.8,1.9-0.7,2.9,0.8c1,1.6,8.9,6.8,14.8,5c5.9-1.8,8.1-6,8.1-9.4s-0.9-6.2,1-5.6
		c2,0.5,4.9,0.6,6.4,2.4C184.1,174.7,189.6,173.2,188.4,168z M166.7,181.4c-6.8,1.9-10.3-1.4-12.4-2.9c-2.1-1.6-0.1-1.9,4.6-4.5
		c4.7-2.6,10.6-3.9,11.5-3C171.8,176.3,170.2,180.4,166.7,181.4z"/>
</g>
</svg>
