<?xml version="1.0" encoding="utf-8"?>
<!-- Generator: Adobe Illustrator 26.0.1, SVG Export Plug-In . SVG Version: 6.00 Build 0)  -->
<svg version="1.1" id="Layer_1" xmlns="http://www.w3.org/2000/svg" xmlns:xlink="http://www.w3.org/1999/xlink" x="0px" y="0px"
	 viewBox="0 0 400 400" style="enable-background:new 0 0 400 400;" xml:space="preserve">
<style type="text/css">
	.st0{fill:#FFFFFF;stroke:#E0E0E0;stroke-width:0.9987;stroke-miterlimit:10;}
	.st1{fill-rule:evenodd;clip-rule:evenodd;fill:#1B1D80;}
	.st2{fill-rule:evenodd;clip-rule:evenodd;fill:#DF0011;}
	.st3{fill:none;stroke:#333333;stroke-width:3;stroke-miterlimit:10;}
</style>
<path class="st0" d="M399,348.1c-92.2-0.2-184.2,0.1-276.4,0l0,0c-19.5,0-38.9,0-58.4,0c-4.1-20.5-8.2-41.1-12.3-61.7l0,0
	c-0.2-0.9-0.4-1.8-0.6-2.7l0,0c-3.1-15.5-6.2-31-9.3-46.5c-2.5-12.2-4.9-24.5-7.3-36.7C23.9,146.5,13.2,92.4,2.4,38.4
	c-0.1-0.3-0.9-2.4,0.2-4.6c1-2,3-2.6,3.3-2.8h78.4c3.7,0.2,10.6,1.1,18,5.2c8,4.4,12.6,10.5,14.1,12.6c3.4,4.5,12.5,16.6,26.1,34.6
	c3.8,5,8,10.5,12.5,16.5c4.9,6.5,10.2,13.5,15.9,21c21.1,28.1,47.4,62.9,77,102.3c21.4,28.1,54.4,62.2,102,87.6
	c10.1,5.4,20.1,9.9,29.6,13.8c2.6,0.9,10,3.7,15.2,11.4c1.6,2.4,2.7,4.8,3.4,6.8C398.5,344.9,398.8,346.7,399,348.1z"/>
<path class="st1" d="M44,188.7c-1.2,0-2.4-0.1-3.6-0.1c-0.3,0-0.5,0.2,0.2,0.8c1.1,0.9,3.8,3.1,5.1,4.1c1,0.8,1.7,1.1,3.1,1.3
	c44.3,6.8,83.2,21.7,83.2,36.7c0,7.9-23.2,16.4-46.1,22.3c-0.6,0.2-0.8,0.4-0.9,0.7c-0.4,0.8-1.1,1.9-1.2,2.2
	c-0.2,0.4-0.3,1,0.5,0.9c41.8-5.2,80.4-11.5,80.4-30c0-1.7-0.1-3.4-0.6-5.1C158.9,203.6,102.4,190.3,44,188.7L44,188.7z"/>
<path class="st2" d="M108.2,280.2h38.3c24.2,0,48.4-15,71-78.7l0,0h-19c-4.3,0-6.2-1.9-7.6-3.6c-10.6-14.7-34.2-47.2-37-51
	c-5.3-7.1-8.2-8.9-21.9-8.9H53.2c-1.7,0-1.2,0.9,0.1,1.2c57.7,15.7,104,49,110.9,83.4c4.7,23.6-25.3,49-55.6,56.6
	C107.2,279.6,107.7,280.2,108.2,280.2z"/>
<path class="st3" d="M398.7,346.9c-92.1-0.2-184,0.1-276.1,0H64.3c-4.1-20.4-8.2-40.9-12.3-61.5l0,0l-0.6-2.7l0,0l-9.3-46.4
	c-2.5-12.2-4.9-24.4-7.3-36.6C24.1,146,13.3,92.2,2.5,38.4c-0.6-1.5-0.5-3.1,0.2-4.6C3.5,32.5,4.6,31.5,6,31h78.3
	c6.3,0.4,12.4,2.1,17.9,5.2c5.5,3.1,10.3,7.4,14,12.5c3.4,4.5,12.5,16.5,26.1,34.5c3.8,5,8,10.5,12.5,16.4
	c4.9,6.5,10.2,13.4,15.8,20.9c21.1,28,47.3,62.7,76.9,101.9c21.4,28,54.3,62,101.9,87.3c9.6,5.1,19.5,9.7,29.6,13.8
	c6.1,2,11.5,6,15.1,11.4c1.4,2.1,2.5,4.4,3.4,6.8C398.2,343.7,398.5,345.5,398.7,346.9z"/>
</svg>
