<?xml version="1.0" encoding="utf-8"?>
<!-- Generator: Adobe Illustrator 27.0.0, SVG Export Plug-In . SVG Version: 6.00 Build 0)  -->
<svg version="1.1" id="Layer_1" xmlns="http://www.w3.org/2000/svg" xmlns:xlink="http://www.w3.org/1999/xlink" x="0px" y="0px"
	 viewBox="0 0 400 400" style="enable-background:new 0 0 400 400;" xml:space="preserve">
<style type="text/css">
	.st0{fill:#23A7E0;}
	.st1{fill:#273B87;}
	.st2{fill:#FEFEF7;}
</style>
<g id="_NH">
	<path class="st0" d="M148.4,313.8c-7.1-14.6-108.6-223.9-128.9-266H5.1l106.5,232.4l5.2,11.4l27.7,60.5h66.5
		C165,342.1,154.9,327.2,148.4,313.8z"/>
	<path class="st1" d="M130.1,69.8c-13.1-14-31.5-21.9-50.6-21.9H19.5c20.4,42,121.8,251.4,128.9,266c6.5,13.4,16.5,28.4,62.6,38.4
		h183.8L130.1,69.8z"/>
	<g>
		<path class="st2" d="M83,151.3l-7.8-9.3l85.1-25.4l18.3,20.7l-49.2,64.6l-13.9-15.6l5.4-7.4c0.9-1.2,0.8-2.9-0.2-4l-21.4-23.5
			l12.6-3.8l16.4,16.9c1.2,1.2,3.2,1.1,4.3-0.2l22.9-29.1c0.9-1.2-0.2-2.8-1.6-2.4l-67.8,19.4C85,152.6,83.8,152.2,83,151.3z"/>
		<path class="st2" d="M191.1,270.1l-7.4-9.3l78.7-30.1l18.3,20.6l-46.3,66.3l-13.2-15.6l5.9-7.5c0.8-1.2,0.8-2.9-0.2-4l-20-22.2
			l11.9-3.8l14.9,15.5c1.1,1.2,3.1,1.1,4.1-0.2l19.8-29.5c0.9-1.2-0.2-2.8-1.5-2.4L194,271C192.9,271.3,191.8,271,191.1,270.1z"/>
		<path class="st2" d="M130.9,204.2c0,0,25.1-18.9,33.2-25.3c7.5-6,29.2-24.7,29.2-24.7l19.3,21.1l-26.8,60.5
			c-0.5,1.2,0.9,2.2,1.9,1.4l45.7-37.9l8.5,9.6l-60.9,50l-19.1-21.4l28.7-61.1c0.5-1.1-0.8-2.2-1.8-1.5l-48.8,38.4L130.9,204.2z"/>
	</g>
</g>
</svg>
