<?xml version="1.0" encoding="utf-8"?>
<!-- Generator: Adobe Illustrator 26.0.1, SVG Export Plug-In . SVG Version: 6.00 Build 0)  -->
<svg version="1.1" id="Layer_1" xmlns="http://www.w3.org/2000/svg" xmlns:xlink="http://www.w3.org/1999/xlink" x="0px" y="0px"
	 viewBox="0 0 400 400" style="enable-background:new 0 0 400 400;" xml:space="preserve">
<style type="text/css">
	.st0{fill:#FDFFFF;stroke:#E0E0E0;stroke-width:0.9963;stroke-miterlimit:10;}
	.st1{fill:#EC1C24;}
	.st2{fill-rule:evenodd;clip-rule:evenodd;fill:#EC1C24;}
	.st3{fill:none;stroke:#E0E0E0;stroke-width:0.9963;stroke-miterlimit:10;}
	.st4{fill:none;stroke:#333333;stroke-width:3;stroke-miterlimit:10;}
</style>
<path class="st0" d="M399.3,347.5c-92.1-0.2-184,0.1-276.1,0H64.9c-4.1-20.4-8.2-41-12.3-61.5c-0.2-0.9-0.4-1.8-0.6-2.7
	c-3.1-15.4-6.2-30.9-9.3-46.3c-2.5-12.2-4.9-24.4-7.3-36.6C24.7,146.7,13.9,92.8,3.1,39c-0.1-0.2-0.4-1.1-0.4-2.4l0,0
	c0-0.7,0.2-1.4,0.6-2.2c1-2,3-2.6,3.3-2.8h78.3c3.7,0.2,10.6,1.1,17.9,5.2c8,4.4,12.5,10.5,14,12.5c3.4,4.5,12.5,16.5,26.1,34.5
	c3.8,5,8,10.5,12.5,16.4c4.9,6.5,10.2,13.5,15.8,20.9c21.1,28,47.3,62.7,76.9,101.9c21.4,28,54.3,62,101.9,87.3
	c10.1,5.4,20,9.9,29.6,13.8c2.6,0.9,10,3.7,15.2,11.4c1.6,2.4,2.7,4.8,3.4,6.8C398.8,344.3,399.1,346.1,399.3,347.5z"/>
<path class="st1" d="M74.8,347.5h-9.4L2.8,36.6l0,0c0-0.7,0.2-1.4,0.6-2.2c1-2,3-2.6,3.3-2.8h5.2L74.8,347.5z"/>
<path class="st2" d="M93.4,150.7c1.2-1.2,3.2-2.4,4.8-3.2c2.8-1.2,6.4-0.8,9.1-0.4c1.2,0,0.8,0.4,2,0.4l-1.6,8.3
	c-0.4,1.2-0.8,7.5-0.8,9.1c0,1.2-0.4,1.2-0.4,2.8c0,4.8,0,10.3,0.8,14.7v2.8l1.2,7.5c1.2,6.4,3.6,14.3,6.4,20.3l2.8,6
	c2,3.6,4,7.5,6.8,10.7c0.4,0.4,0.8,0.8,1.2,1.6c1.6,2.4,5.2,6.4,7.1,7.5c1.2-0.4,4-3.2,6-4.8s4.4-2.8,6.8-3.6c4-1.6,9.5-2,13.5-0.8
	C167,232,173,236,177,243.1c0.4,1.2,1.2,2.4,1.6,3.6c4.4,12.7-1.6,27.4-13.5,33c-0.4,0-0.8,0.4-1.2,0.4s-0.4,0-1.2,0.4
	c-3.2,0.8-5.2,0.8-7.9,1.6c0,1.6-0.4,2.8,0.8,2.8c0.4,0,3.2-0.4,3.6-0.4c3.2-0.8,6-1.6,8.7-3.2l8.3-5.6c9.5-7.9,12.7-23,7.5-34.5
	c-0.8-1.6-2-3.2-2.8-4.8c-3.6-5.6-8.7-8.7-14.7-11.1c-0.8-0.4-1.6-0.4-2.8-0.8c-4-1.2-6.8-1.2-11.1-0.4c-2.8,0.4-5.2,1.2-7.9,2.4
	c-0.4,0-0.8,0-1.2,0.4l-1.2,0.8c-7.5,4.4-4.4,7.5-11.9-2.8c-1.6-2.4-3.2-5.2-4.8-7.9c-3.6-5.6-5.6-11.9-7.1-18.7
	c0-0.4-0.4-1.2-0.4-1.6l-1.2-5.6c-0.4-1.6-0.8-2,1.2-2.4c1.6,0,2.4-0.4,3.6-0.8c-0.4-0.8-0.8-1.2-1.2-2c-2-3.2-4-7.1-2-10.3
	c5.2,0,8.3-1.2,13.5-1.2c-0.4-2.8-0.8-3.6-0.4-6.4c0-0.8,0.4-1.6,1.2-1.6h1.2c3.2,0.4,5.2-0.4,6.8-0.4h2.4c8.7-1.2,4.8,0,8.7,0
	c0-1.6,0-2.8,0.8-4c2.4-3.6,3.6-0.8,9.1,0.8l3.6,1.2c4.4,1.6,4.4,2.4,6.8,4c0.4-0.4,0.4-1.2,0.8-1.6l1.2-1.2c0.4-0.4,2-1.2,2.8-1.2
	c3.2,0,0.8,3.6,10.3,9.1l6.4,3.6c0.8,0.8,2,1.2,2.4,2.4c0,1.2-0.4,2.8-0.8,4c0.8,0,4,1.6,5.2,2c4.4,1.6,7.1,0,8.7,1.2
	c2.4,2,0.4,3.6,0.4,4.4c0,2,0.8,0.4,0,3.6c-0.4,0.8-0.4,0.8-0.4,1.6c-0.8,2-2.8,6.8-5.2,6.8c-0.4-0.8-0.8-2.8-1.2-3.2
	c-1.2-1.6-3.2-1.6-5.2-1.6c-3.2,0-6.4,4.4-6.8,7.1c-0.4,2.4-0.4,4.8,0.4,6c1.6,2.4,5.6,2.8,7.9,1.6c0.8-0.4,0.8-0.8,2-0.8
	c0,2.8-0.4,7.1-2.8,8.7c-3.6,2.4-6,0.4-8.7,0.4c-0.8,1.6-0.8,4-0.4,6c0.8,3.6,2.4,6,5.6,7.9c2.8,2,5.2,3.6,1.2,6.4
	c-1.2,0.8-2,0.4-2,2.8c0,2,0.8,3.2,1.6,4.4c0.4,0.8,0.4,0.4,1.2,1.2c0.8,0.4,0.4,0.4,0.8,1.6c0.4,1.6,0.4,3.2-1.2,3.6
	c-2.4,0.8-1.6-0.4-2.8,2.4c-2,6.4-2.8,9.1-6.8,14.7c-1.6,2-3.6,4.4-5.6,5.6c-4,2.8-7.9,4.8-12.7,6.4l-6.8,1.6
	c-1.2,0.4-1.2,0.4-2.4,0.4c-3.2,0.4-1.2,1.6-1.2,4.4s0.4,6-0.8,8.7c-0.8,1.6-2.4,2.8-4,3.6c-0.8,0.4-0.8,0-1.6,0.4
	c-2,0.4-4.4,0.4-6-0.4c1.2-2.4,2.8-4,4-6.4c0.4,0,0.4-0.4,0.4-0.4v-0.4c0.4-0.8,0.8-2,0.8-2.4c0.8-4.4,0.8-8.7,0.8-13.1
	c-1.2,0-1.6-0.4-2.8-0.4c0,1.6,0,2.8-0.4,4.4c-0.4,2.4-1.6,7.5-2.8,9.9c-0.4,0.4-0.4,1.2-0.8,1.6c-0.8,2-2,4-3.6,5.6l-0.8,0.8
	c-6,5.6-13.1,3.2-13.9,0.4c0.4-0.8,5.6-2.4,9.1-6.8c4-4.8,6.8-10.3,8.7-16.3c0.4-0.8,0,0.4,0.4-0.8l-2.8-1.2c-0.8,0.8-1.2,2.8-2,4
	l-3.6,6c-0.4,0.4-0.8,1.2-1.2,1.6c-3.6,4.8-10.7,12.7-17.5,12.7c-5.6,0-7.5-0.8-10.7-5.6c1.6-0.8,1.2-0.4,2.8-0.8l6.8-2
	c3.6-1.6,7.5-4,10.7-6.8l6.4-6.4c0.8-0.4,1.2-0.8,1.6-1.6c0.8-0.8,2.4-2.4,2.8-3.6l-2-2c-1.6,0.4-2.8,2.4-3.6,3.2
	c-3.2,3.2-6.8,6-10.3,8.7c-2.4,1.6-5.6,3.2-8.3,4.4l-3.6,1.2c-5.6,1.6-12.7,2-17.9-1.6c-1.2-0.8-2-2-2.8-3.6
	c-0.4-1.2-1.2-3.2-1.2-4.8c1.2-0.4,1.6,0,2.8,0.4c1.6,0.4,4.8,0.8,6.8,0.8c1.6,0,2-0.4,3.2-0.4c6-0.4,10.7-1.6,16.3-3.6l1.2-0.4
	c1.2-0.4,2-0.8,2.8-1.2l4.8-2.4c0.8-0.4,1.2-0.8,2-1.2c0.8-0.8,1.6-1.2,2.4-1.6c0.4-0.4,0.8-0.4,1.2-0.8l0.8-0.8
	c-0.8-0.8-1.2-2.4-2-3.2c-2,0.4-4.8,2-6.8,2.8h-0.4c-6,2.4-8.7,3.2-14.3,4.8c-0.4,0-1.6,0.4-2,0.4c-2,0.4-2.8,0.4-4.8,0.8
	c-1.2,0-2.4,0.4-4.4,0.4c-7.5,0-15.5-0.8-21-6c-0.4-0.8-0.8-0.8-1.2-1.2c-3.6-2.8-4.8-7.9-3.6-12.3c0-0.4,0.4-1.2,0.4-1.6
	c1.2,0,2.4,1.2,3.6,2c2,1.2,4,2,6,2.8c6.8,2.8,16.7,4.8,25,4.8c4,0,12.3-0.4,16.3-1.2c1.2-0.4,1.6-0.4,2.8-0.4c0.8,0,0.4-0.4,2-0.4
	c0-0.8,0-0.4-0.4-1.2c-0.8-3.2,0-2.4-4.4-2c-4,0-9.9,0-13.9-0.4l-4.4-0.4c-3.2-0.4-7.1-1.2-10.3-2c-4.4-1.2-8.3-2.4-12.3-4.4
	c-2.4-1.2-4-2.4-6-3.6c-0.8,0-1.2-0.4-1.6-0.8l-1.2-1.2c-2.8-2.4-5.2-5.2-6.4-8.3c-1.2-2.4-1.6-6.4-0.8-9.1c0-0.4,0.4-0.8,0.4-1.2
	c0-1.2,0.4-1.6,0.8-2.4c0.8-0.8,1.6-2.8,3.2-2.8c0.4,2,4,5.6,5.2,6.8c3.6,3.6,7.1,6.8,11.1,9.1c0.4,0.4,0.8,0.8,1.6,1.2
	c4.8,3.2,9.9,5.6,15.1,7.9l8.3,3.2c4.4,1.6,9.1,2.8,13.5,4c3.2,0.8,1.2-0.8,2-2.8c-0.8,0-2-0.4-2.8-0.8c-0.4,0-0.8,0-1.2-0.4
	c-4.8-2.4-10.3-4.4-15.1-7.1c-8.3-4.8-11.5-6.4-19.1-12.7l-0.4-0.4l-0.4-0.4c-5.6-4.8-11.1-10.7-14.7-17.1
	c-4.4-7.9-6.8-18.3-0.8-25.8c0.8-0.8,1.2-1.6,2.4-2.4c1.6-0.8,3.6-1.6,5.6-1.6c0,5.2,4,15.9,6.8,21l1.2,2.4l3.6,6.8l9.1,11.9
	l0.4,0.4l15.9,14.7c3.2,2.4,6.8,4.8,10.3,6.8l1.2-2.8c-1.2-2-5.6-4.4-7.5-6.4c-1.2-1.2-2.4-2-3.6-3.2l-1.6-1.6l-0.8-0.8l-0.8-0.8
	c-1.2-1.2-2.8-2.4-3.6-3.6l-4.8-5.6c-0.8-0.8-0.8-1.2-1.6-2l-2.4-3.6l-0.4-0.4l-4-6.4c-0.4-1.2-0.8-1.6-1.2-2.4l-2.4-4.8
	c-3.2-7.1-3.2-7.9-5.6-15.1c-1.2-2.8-1.6-5.6-2-8.3c-0.8-4-0.4-8.3-0.4-12.3C87,161,89.4,154.6,93.4,150.7z M158.5,183.6
	c0.8,1.2,1.2,1.2,2,1.2c0-1.6-0.4-0.8-0.4-3.2c0-1.2,1.2-2.8,2-2.8c2.4,0,3.2,0.4,4.4,0.8c0-3.2-6-5.2-8.3-1.2
	c0,0.4-0.4,0.8-0.4,1.6C157.7,181.6,157.3,182,158.5,183.6z"/>
<path class="st3" d="M399.3,347.5c-92.1-0.2-184,0.1-276.1,0H64.9c-4.1-20.4-8.2-41-12.3-61.5c-0.2-0.9-0.4-1.8-0.6-2.7
	c-3.1-15.4-6.2-30.9-9.3-46.3c-2.5-12.2-4.9-24.4-7.3-36.6C24.7,146.7,13.9,92.8,3.1,39c-0.1-0.2-0.4-1.1-0.4-2.4l0,0
	c0-0.7,0.2-1.4,0.6-2.2c1-2,3-2.6,3.3-2.8h78.3c3.7,0.2,10.6,1.1,17.9,5.2c8,4.4,12.5,10.5,14,12.5c3.4,4.5,12.5,16.5,26.1,34.5
	c3.8,5,8,10.5,12.5,16.4c4.9,6.5,10.2,13.5,15.8,20.9c21.1,28,47.3,62.7,76.9,101.9c21.4,28,54.3,62,101.9,87.3
	c10.1,5.4,20,9.9,29.6,13.8c2.6,0.9,10,3.7,15.2,11.4c1.6,2.4,2.7,4.8,3.4,6.8C398.8,344.3,399.1,346.1,399.3,347.5z"/>
<path class="st4" d="M398.7,346.9c-92.1-0.2-184,0.1-276.1,0H64.3c-4.1-20.4-8.2-40.9-12.3-61.5l0,0l-0.6-2.7l0,0l-9.3-46.4
	c-2.5-12.2-4.9-24.4-7.3-36.6C24.1,146,13.3,92.2,2.5,38.4c-0.6-1.5-0.5-3.1,0.2-4.6C3.5,32.5,4.6,31.5,6,31h78.3
	c6.3,0.4,12.4,2.1,17.9,5.2c5.5,3.1,10.3,7.4,14,12.5c3.4,4.5,12.5,16.5,26.1,34.5c3.8,5,8,10.5,12.5,16.4
	c4.9,6.5,10.2,13.4,15.8,20.9c21.1,28,47.3,62.7,76.9,101.9c21.4,28,54.3,62,101.9,87.3c9.6,5.1,19.5,9.7,29.6,13.8
	c6.1,2,11.5,6,15.1,11.4c1.4,2.1,2.5,4.4,3.4,6.8C398.2,343.7,398.5,345.5,398.7,346.9z"/>
</svg>
