<?xml version="1.0" encoding="utf-8"?>
<!-- Generator: Adobe Illustrator 27.0.0, SVG Export Plug-In . SVG Version: 6.00 Build 0)  -->
<svg version="1.1" id="Layer_1" xmlns="http://www.w3.org/2000/svg" xmlns:xlink="http://www.w3.org/1999/xlink" x="0px" y="0px"
	 viewBox="0 0 400 400" style="enable-background:new 0 0 400 400;" xml:space="preserve">
<style type="text/css">
	.st0{fill:#FF0000;}
	.st1{fill:#FFFFFF;stroke:#AAAAAA;stroke-width:0.2159;stroke-miterlimit:10;}
</style>
<g id="OS">
	<path class="st0" d="M130.6,70.7c-13-13.9-31.2-21.8-50.3-21.8H6.5l55.6,121.3c21.7-8.9,63.9-20.9,138.7-24.6L130.6,70.7z"/>
	<path class="st0" d="M393.5,351.1L322,274.9c-90.9,11.4-155.7,31.2-191.6,44.4l14.6,31.8H393.5z"/>
	<path class="st1" d="M200.8,145.6c-74.8,3.8-117,15.7-138.7,24.6l50.1,109.4l5.2,11.3l13,28.3c35.9-13.2,100.7-33,191.6-44.4
		L200.8,145.6z"/>
	<path class="st0" d="M141.2,219.5l-23.7-4.5c0,0,78.8-20.6,123.1-18.8c0,0,0.1,0.1,0,0.1c-4.1,1.3-63.4,20.9-109.5,62.2
		c-10.8,2.4-21,4.1-21,4.1s30.3-23.6,48-43.2c1.3-1.4,1.2-3.6-0.2-4.9h0c-1.1-1.1-5.7-0.5-7.1,0.2L141.2,219.5z"/>
</g>
</svg>
