<?xml version="1.0" encoding="utf-8"?>
<!-- Generator: Adobe Illustrator 26.0.1, SVG Export Plug-In . SVG Version: 6.00 Build 0)  -->
<svg version="1.1" id="Layer_1" xmlns="http://www.w3.org/2000/svg" xmlns:xlink="http://www.w3.org/1999/xlink" x="0px" y="0px"
	 viewBox="0 0 400 400" style="enable-background:new 0 0 400 400;" xml:space="preserve">
<style type="text/css">
	.st0{fill:#FFFFFF;}
	.st1{fill:none;stroke:#E0E0E0;stroke-width:0.9963;stroke-miterlimit:10;}
	.st2{fill:url(#path57_00000008106983220172648660000000706742405788863154_);}
	.st3{fill:url(#path74_00000005960937309692909230000008286194014653957781_);}
	.st4{fill:url(#path87_00000052782766942192393400000013568494768632422570_);}
	.st5{fill:url(#path104_00000057139044995174749870000000444232767757698464_);}
	.st6{fill:#B5CA30;}
	.st7{fill:none;stroke:#333333;stroke-width:3;stroke-miterlimit:10;}
</style>
<path class="st0" d="M399.3,347.5c-92.1-0.2-184,0.1-276.1,0l0,0c-19.4,0-38.9,0-58.3,0c-4.1-20.4-8.2-40.9-12.3-61.5l0,0
	c-0.2-0.9-0.4-1.8-0.6-2.7l0,0c-3.1-15.4-6.2-30.9-9.3-46.3c-2.5-12.2-4.9-24.4-7.3-36.6C24.6,146.7,13.9,92.8,3.1,39
	c-0.1-0.3-0.9-2.4,0.2-4.6c1-2,3-2.6,3.3-2.8h78.3c3.7,0.2,10.6,1.1,17.9,5.2c8,4.4,12.6,10.5,14,12.6c3.4,4.5,12.5,16.5,26.1,34.5
	c3.8,5,8,10.5,12.5,16.4c4.9,6.5,10.2,13.5,15.8,20.9c21.1,28,47.3,62.7,76.9,101.9c21.4,28,54.3,62,101.9,87.3
	c10.1,5.4,20,9.9,29.6,13.7c2.6,0.9,10,3.7,15.1,11.4c1.6,2.4,2.7,4.8,3.4,6.8C398.8,344.3,399.1,346.1,399.3,347.5z"/>
<path class="st1" d="M399.3,347.5c-92.1-0.2-184,0.1-276.1,0l0,0c-19.4,0-38.9,0-58.3,0c-4.1-20.4-8.2-40.9-12.3-61.5l0,0
	c-0.2-0.9-0.4-1.8-0.6-2.7l0,0c-3.1-15.4-6.2-30.9-9.3-46.3c-2.5-12.2-4.9-24.4-7.3-36.6C24.6,146.7,13.9,92.8,3.1,39
	c-0.1-0.3-0.9-2.4,0.2-4.6c1-2,3-2.6,3.3-2.8h78.3c3.7,0.2,10.6,1.1,17.9,5.2c8,4.4,12.6,10.5,14,12.6c3.4,4.5,12.5,16.5,26.1,34.5
	c3.8,5,8,10.5,12.5,16.4c4.9,6.5,10.2,13.5,15.8,20.9c21.1,28,47.3,62.7,76.9,101.9c21.4,28,54.3,62,101.9,87.3
	c10.1,5.4,20,9.9,29.6,13.7c2.6,0.9,10,3.7,15.1,11.4c1.6,2.4,2.7,4.8,3.4,6.8C398.8,344.3,399.1,346.1,399.3,347.5z"/>
<g id="g108">
	
		<linearGradient id="path57_00000082369743354963162350000008395475346448990374_" gradientUnits="userSpaceOnUse" x1="-361.8835" y1="702.6066" x2="-202.2332" y2="702.6066" gradientTransform="matrix(-0.6623 0 0 0.6623 -28.5768 -196.4324)">
		<stop  offset="0" style="stop-color:#00AACB"/>
		<stop  offset="0.2524" style="stop-color:#00A7C8"/>
		<stop  offset="0.4552" style="stop-color:#009EBE"/>
		<stop  offset="0.6406" style="stop-color:#008EAD"/>
		<stop  offset="0.8158" style="stop-color:#017895"/>
		<stop  offset="0.9823" style="stop-color:#015C77"/>
		<stop  offset="1" style="stop-color:#015973"/>
	</linearGradient>
	<path id="path57" style="fill:url(#path57_00000082369743354963162350000008395475346448990374_);" d="M171.3,216.3
		c2.5-0.5,5.5-0.5,8.4-0.5c7.9-0.5,16.4-0.5,24.3,0.5c2,0,4.5,0.5,6,1c1,1-0.5,1.5-1,2c-11.4,11.4-22.4,22.4-33.8,33.8
		c-7.9,7.5-15.4,15.4-22.9,22.9c-10.4,10.4-20.9,20.9-31.3,31.3c-4.5,4.5-9.4,9.4-13.9,13.9c-0.5,0.5-1,1.5-2,1
		c-0.5-0.5-0.5-1.5-0.5-2v-0.5c0-3,0-5.5,0-8.4c0-3.5,0.5-7,1-10.4c0.5-2.5,0.5-5.5,1.5-7.9c0.5-2,0.5-4,1-5.5
		c1.5-6,4-11.9,6.5-17.4c3.5-7.5,7.5-14.4,13.4-20.4c9.9-9.9,20.4-20.4,30.3-30.3c1-0.5,1.5-1,1.5-2
		C163.9,216.7,167.4,216.3,171.3,216.3z"/>
	
		<linearGradient id="path74_00000072264224647895017820000009651255938516577434_" gradientUnits="userSpaceOnUse" x1="-361.7357" y1="546.7747" x2="-202.7289" y2="546.7747" gradientTransform="matrix(-0.6623 0 0 0.6623 -28.5768 -196.4324)">
		<stop  offset="0" style="stop-color:#D5DD26"/>
		<stop  offset="0.2404" style="stop-color:#D2DB27"/>
		<stop  offset="0.4335" style="stop-color:#C8D429"/>
		<stop  offset="0.6101" style="stop-color:#B7C82E"/>
		<stop  offset="0.7769" style="stop-color:#9FB834"/>
		<stop  offset="0.9355" style="stop-color:#81A33B"/>
		<stop  offset="1" style="stop-color:#72993F"/>
	</linearGradient>
	<path id="path74" style="fill:url(#path74_00000072264224647895017820000009651255938516577434_);" d="M158.9,216.7
		c-8.4-8.4-16.9-16.9-25.3-25.3c-7.9-7.5-14.4-15.4-18.9-25.3c-2.5-5.5-4.5-10.9-6-16.9c-1-4.5-2-8.9-2.5-13.9s-0.5-9.9-0.5-14.9
		c0-1.5,0-3.5,0-5c0-0.5,0.5-1.5,1-1.5c0.5-0.5,1,0,1.5,0.5l0.5,0.5c6,6,11.9,11.9,17.9,17.9c9.4,9.4,18.9,18.9,28.3,28.3
		c6,6,11.4,11.4,16.9,16.9c3.5,4,7.5,7.9,11.4,11.9c1.5,1.5,3,3,4.5,4.5c3,2.5,5.5,5.5,7.9,7.9c2.5,2,5,4.5,7.5,7s5.5,5.5,7.9,7.9
		c0,0,0.5,0,0,0.5c-2.5-1-4.5-1-7-1.5c-8.4-1.5-16.4-1-24.8-1c-2.5,0-5.5,0-8.4,0.5c-3.5,0.5-7.5,1-10.9,1.5
		C159.9,216.7,159.4,216.7,158.9,216.7z"/>
	
		<linearGradient id="path87_00000030481979115802508070000015192289061238643634_" gradientUnits="userSpaceOnUse" x1="-205.568" y1="652.7913" x2="-180.5266" y2="609.4182" gradientTransform="matrix(-0.6623 0 0 0.6623 -28.5768 -196.4324)">
		<stop  offset="0" style="stop-color:#00AACB"/>
		<stop  offset="0.1857" style="stop-color:#00A2C2"/>
		<stop  offset="0.4884" style="stop-color:#008BAA"/>
		<stop  offset="0.8684" style="stop-color:#016782"/>
		<stop  offset="1" style="stop-color:#015973"/>
	</linearGradient>
	<path id="path87" style="fill:url(#path87_00000030481979115802508070000015192289061238643634_);" d="M75.5,215.8L75.5,215.8
		c1.5-0.5,2.5-1.5,4-2c6.5-3,13.4-3,20.4-1.5c3.5,1,7,2,10.4,3c3.5,1,7,2.5,10.4,2c1.5,0.5,0.5,1.5,0,2c-7,7.5-14.4,14.4-21.4,21.4
		c-1.5,1.5-2.5,1.5-4,0c-3-3-5.5-5.5-7.9-7.9c-3-3-6-6-8.9-8.9c-1.5-2-3.5-3.5-5-5c-0.5-0.5-0.5-1,0-1.5c0.5,0,0.5-0.5,1-0.5
		C75,216.7,75,216.7,75.5,215.8z"/>
	
		<linearGradient id="path104_00000023996787909325511830000010974386420926043291_" gradientUnits="userSpaceOnUse" x1="-224.9915" y1="607.6852" x2="-156.4991" y2="607.6852" gradientTransform="matrix(-0.6623 0 0 0.6623 -28.5768 -196.4324)">
		<stop  offset="0" style="stop-color:#72993F"/>
		<stop  offset="6.451863e-02" style="stop-color:#81A33B"/>
		<stop  offset="0.2231" style="stop-color:#9FB834"/>
		<stop  offset="0.3899" style="stop-color:#B7C82E"/>
		<stop  offset="0.5665" style="stop-color:#C8D429"/>
		<stop  offset="0.7596" style="stop-color:#D2DB27"/>
		<stop  offset="1" style="stop-color:#D5DD26"/>
	</linearGradient>
	<path id="path104" style="fill:url(#path104_00000023996787909325511830000010974386420926043291_);" d="M75.5,215.3
		c7-6.5,13.4-12.9,19.9-19.9c1-1.5,1-1.5,2.5,0c6,6,11.9,11.4,17.4,17.4c2,1.5,3.5,3,5,5c-3.5,0-7-1-10.4-2c-3.5-1-7-2-10.4-3
		c-7-1.5-13.9-1.5-20.4,1.5c-1.5,0.5-2.5,1.5-4,2C75,215.8,75.5,215.8,75.5,215.3z"/>
	<path id="path106" class="st6" d="M75,216.3c0,0.5-0.5,0.5-0.5,0.5C75,216.7,75,216.3,75,216.3z"/>
</g>
<path class="st7" d="M398.7,346.9c-92.1-0.2-184,0.1-276.1,0H64.3c-4.1-20.4-8.2-40.9-12.3-61.5l0,0l-0.6-2.7l0,0l-9.3-46.4
	c-2.5-12.2-4.9-24.4-7.3-36.6C24.1,146,13.3,92.2,2.5,38.4c-0.6-1.5-0.5-3.1,0.2-4.6C3.5,32.5,4.6,31.5,6,31h78.3
	c6.3,0.4,12.4,2.1,17.9,5.2c5.5,3.1,10.3,7.4,14,12.5c3.4,4.5,12.5,16.5,26.1,34.5c3.8,5,8,10.5,12.5,16.4
	c4.9,6.5,10.2,13.4,15.8,20.9c21.1,28,47.3,62.7,76.9,101.9c21.4,28,54.3,62,101.9,87.3c9.6,5.1,19.5,9.7,29.6,13.8
	c6.1,2,11.5,6,15.1,11.4c1.4,2.1,2.5,4.4,3.4,6.8C398.2,343.7,398.5,345.5,398.7,346.9z"/>
</svg>
