<?xml version="1.0" encoding="utf-8"?>
<!-- Generator: Adobe Illustrator 27.0.0, SVG Export Plug-In . SVG Version: 6.00 Build 0)  -->
<svg version="1.1" id="Layer_1" xmlns="http://www.w3.org/2000/svg" xmlns:xlink="http://www.w3.org/1999/xlink" x="0px" y="0px"
	 viewBox="0 0 400 400" style="enable-background:new 0 0 400 400;" xml:space="preserve">
<style type="text/css">
	.st0{fill:#2C2F7C;}
	.st1{fill:#B4B4AB;}
	.st2{fill:#F6D953;}
	.st3{opacity:0.9;fill:#E3283F;}
</style>
<g id="OZ">
	<path class="st0" d="M109.3,276.7l1.8,4l5.3,11.5l27.9,60.9h89.6C184.9,296,133.5,280.7,109.3,276.7z"/>
	<path class="st1" d="M301.7,353.1H396L129.6,69C116.4,54.9,98,46.9,78.7,46.9H4l22.2,48.5c18.6,6.6,57,22.9,101.7,56.6
		C200.5,206.7,273.9,311.3,301.7,353.1z"/>
	<path class="st2" d="M127.9,152C83.2,118.3,44.8,102,26.2,95.4l83.1,181.3c24.3,4,75.6,19.2,124.6,76.4h67.9
		C273.9,311.3,200.5,206.7,127.9,152z"/>
	<path class="st3" d="M221.3,166.8c-9.4,23-29.5,89.9,4.3,186.3H396L221.3,166.8z"/>
</g>
</svg>
