<?xml version="1.0" encoding="utf-8"?>
<!-- Generator: Adobe Illustrator 27.0.0, SVG Export Plug-In . SVG Version: 6.00 Build 0)  -->
<svg version="1.1" id="Layer_1" xmlns="http://www.w3.org/2000/svg" xmlns:xlink="http://www.w3.org/1999/xlink" x="0px" y="0px"
	 viewBox="0 0 400 400" style="enable-background:new 0 0 400 400;" xml:space="preserve">
<style type="text/css">
	.st0{fill:#FFFFFF;stroke:#E2E2E2;stroke-width:1.1797;stroke-miterlimit:10;}
	.st1{fill:#2C328E;}
	.st2{fill:#BA9753;}
	.st3{fill:#EC2027;}
</style>
<g id="PG">
	<path class="st0" d="M5.5,48.2L111.7,280l5.2,11.4l27.7,60.4h249.6L130.1,70.1C117,56.1,98.8,48.2,79.6,48.2H5.5z"/>
	<g>
		<path class="st1" d="M175,344.4c0,0,44.2-2.4,54.2-46s-25-75-42.4-87.1c-17.4-12.1-54.5-52.1-62.6-78.9s-8.3-40.4-6.1-53.4
			c0.8-4.5,1.6-8.4-0.9-9s-2.8,4.3-2.7,8.4c0.1,4.1-0.7,69.2-0.3,83c0.4,13.8,0.8,23.2,10,39.2s18.1,22.3,27.1,29.7
			c9,7.4,26.8,20,37.8,32.8c11,12.8,18.9,21.2,16.5,41.6C203.2,325.1,191.6,338,175,344.4z"/>
		<path class="st2" d="M168.1,345c0,0,18.3-7.4,25.7-27.1c7.4-19.7,2.2-37.3-12.3-49c-14.5-11.7-35.7-24.3-40.3-28.2
			s-29.3-22.6-25.4-55c3.2,11.4,4,21.7,23.3,40.2c10.7,10.3,29.2,19.5,54.3,45.5c4.2,4.3,16.9,22.6,7,45.8S168.1,345,168.1,345z"/>
		<path class="st3" d="M159.9,344.4c0,0,20.1-11.6,23.2-26.2s-4-29.9-16.5-36.8c-6.3-3.5-17.6-4.7-22.6-1.4c-5,3.3-6.1,5.4-13.3-0.1
			s-14.2-14.1-14.8-28.7c-0.6-14.7-1.1-40.2-1.1-40.2s5.3,14.1,15.5,25.7s17.9,12.7,23.7,17.6c5.9,4.9,24.3,14.8,31.5,24.3
			c7.3,9.5,11.3,21.2,6.8,38.5C187.9,334.2,165.7,344.8,159.9,344.4z"/>
	</g>
</g>
</svg>
