<?xml version="1.0" encoding="utf-8"?>
<!-- Generator: Adobe Illustrator 27.0.0, SVG Export Plug-In . SVG Version: 6.00 Build 0)  -->
<svg version="1.1" id="Layer_1" xmlns="http://www.w3.org/2000/svg" xmlns:xlink="http://www.w3.org/1999/xlink" x="0px" y="0px"
	 viewBox="0 0 400 400" style="enable-background:new 0 0 400 400;" xml:space="preserve">
<style type="text/css">
	.st0{fill:#213548;}
	.st1{fill:#FFFFFF;stroke:#CFCFCE;stroke-miterlimit:10;}
	.st2{fill:#ED2224;}
	.st3{clip-path:url(#SVGID_00000015312614713985029030000017129957167596787844_);fill:#213548;}
	.st4{clip-path:url(#SVGID_00000015312614713985029030000017129957167596787844_);fill:#FFCB07;}
</style>
<g id="PR">
	<path class="st0" d="M130.2,70c-4.1-4.4-8.7-8.2-13.7-11.3l52.1,176.1l103.1,117.1h122.8L130.2,70z"/>
	<path class="st1" d="M116.5,58.7c-10.9-6.8-23.7-10.6-36.8-10.6H5.5l1.6,3.4l161.4,183.3L116.5,58.7z"/>
	<polyline class="st2" points="168.5,234.8 7.1,51.5 111.8,280 117,291.4 144.7,351.9 271.7,351.9 168.5,234.8 	"/>
	<g>
		<defs>
			<polygon id="SVGID_1_" points="171.9,239.4 176.1,191.4 168.5,103.8 173.5,113 179.5,192.2 193.4,239.2 208.3,203 216.1,155.8 
				218.1,160.3 211.5,199.2 214.9,243 237.8,217.5 252.4,192.6 253.4,196.8 241.4,219.9 234.4,259.5 266.1,236.4 279.2,223.5 
				280.8,225.7 268.1,238 252.4,277.2 287.8,260.7 303.3,248 305.1,251.7 290.4,263.5 265.5,297.3 305.9,284.8 328.2,274.8 
				328.8,277.8 306.5,287.8 279.4,314.9 323.2,313.1 358.3,305.9 359.1,309.7 325.4,315.9 284.4,337.4 330.4,342.9 389,338.2 
				390,341 332,345.5 317.1,351.3 271.7,351.3 			"/>
		</defs>
		<clipPath id="SVGID_00000180329788930620157820000002559654001575709084_">
			<use xlink:href="#SVGID_1_"  style="overflow:visible;"/>
		</clipPath>
		<path style="clip-path:url(#SVGID_00000180329788930620157820000002559654001575709084_);fill:#213548;" d="M130.2,70
			c-4.1-4.4-8.7-8.2-13.7-11.3l52.1,176.1l103.1,117.1h122.8L130.2,70z"/>
		<path style="clip-path:url(#SVGID_00000180329788930620157820000002559654001575709084_);fill:#FFCB07;" d="M130.2,70
			c-4.1-4.4-8.7-8.2-13.7-11.3l52.1,176.1l103.1,117.1h122.8L130.2,70z"/>
	</g>
</g>
</svg>
