<?xml version="1.0" encoding="utf-8"?>
<!-- Generator: Adobe Illustrator 26.0.1, SVG Export Plug-In . SVG Version: 6.00 Build 0)  -->
<svg version="1.1" id="Layer_1" xmlns="http://www.w3.org/2000/svg" xmlns:xlink="http://www.w3.org/1999/xlink" x="0px" y="0px"
	 viewBox="0 0 400 400" style="enable-background:new 0 0 400 400;" xml:space="preserve">
<style type="text/css">
	.st0{fill:#FFFFFF;stroke:#E0E0E0;stroke-miterlimit:10;}
	.st1{fill:#747F8A;}
	.st2{fill:#5C0632;}
	.st3{fill:none;stroke:#E0E0E0;stroke-miterlimit:10;}
	.st4{fill:none;stroke:#333333;stroke-width:3;stroke-miterlimit:10;}
</style>
<path class="st0" d="M400,348.1c-92.4-0.2-184.7,0.1-277.1,0l0,0c-19.5,0-39,0-58.5,0c-4.1-20.5-8.2-41.1-12.3-61.7l0,0
	c-0.2-0.9-0.4-1.8-0.6-2.7l0,0c-3.1-15.5-6.2-31-9.3-46.5c-2.5-12.2-4.9-24.5-7.3-36.7C24,146.5,13.2,92.4,2.4,38.4
	c-0.1-0.3-0.9-2.4,0.2-4.6c1-2,3-2.6,3.3-2.8h78.6c3.7,0.2,10.6,1.1,18,5.2c8,4.4,12.6,10.5,14.1,12.6c3.4,4.5,12.5,16.6,26.2,34.6
	c3.8,5,8,10.5,12.5,16.5c4.9,6.5,10.2,13.5,15.9,21c21.2,28.1,47.5,62.9,77.2,102.3c21.5,28.1,54.5,62.2,102.3,87.6
	c10.1,5.4,20.1,9.9,29.7,13.8c2.6,0.9,10,3.7,15.2,11.4c1.6,2.4,2.7,4.8,3.4,6.8C399.5,344.9,399.8,346.7,400,348.1z"/>
<g>
	<path class="st1" d="M163.5,110.8c-26.7,0.5-64.7,1.8-64.7,3.3c0,1.6,43.1,3,69.7,3.4C166.8,115.2,165.2,113,163.5,110.8z
		 M248.4,223.2c-0.6-0.8-1.3-1.7-1.9-2.5c-13.7,0-33.2,0.2-55.1,0.5h-0.2c4,4.6,7.7,9.3,11.5,14.2h0.2c18.5,0.2,34.6,0.4,46,0.5
		c3.2,0,6.3-0.3,9-0.8C254.5,231,251.3,227,248.4,223.2z M176.9,128.5c-30.5,0.5-68.9,1.4-92.1,2.5h-0.1c2.1,1.4,4.4,2.9,6.5,4.4
		c0.1,0,0.1,0,0.2,0c25.4,1.1,63.7,1.9,92.5,2.3C181.5,134.5,179.2,131.5,176.9,128.5z M193.9,151c-23.6,0.3-52.2,0.9-78.1,1.6
		c-0.1,0-0.2,0-0.3,0c2.1,1.5,4.2,3,6.4,4.6c2,1.4,3.9,2.9,5.7,4.2h0.2c26,0.7,53.4,1.2,75.1,1.5C199.9,158.9,196.9,154.9,193.9,151
		z M211.1,173.7c-19.4,0.2-43,0.6-66.6,1.2h-0.1c4.5,3.7,8.8,7.6,13.2,11.6h0.1c23.4,0.4,45.9,0.8,63.6,0.9
		C217.9,182.8,214.5,178.2,211.1,173.7z M56.1,180.6L56.1,180.6c-0.1-0.1-0.2-0.2-0.3-0.3c-0.2-0.3-0.4-0.5-0.5-0.8
		c-0.6-0.8-0.8-1.4-0.8-1.6l0,0c-12.1,0.6-20.6,1.3-23.7,2.1c0.1,0.4,0.2,0.8,0.3,1.3c3.7,0.8,13.9,1.5,28.1,2.2h0.1
		C57.8,182.5,56.8,181.5,56.1,180.6z M228.7,197c-16.4,0.1-37.1,0.4-59,0.8h-0.1c4.4,4.4,8.7,8.8,12.8,13.3h0.1
		c22.2,0.3,42.5,0.5,57.3,0.7C236.1,206.8,232.3,201.9,228.7,197z M182.6,338.7c-20.7,0-83.8,1.6-83.8,3.5c0,2,63.1,3.5,83.8,3.5
		c4.1,0,7.4-1.6,7.4-3.5C190,340.3,186.7,338.7,182.6,338.7z M211.5,318.3c-23.8,0-79.8,1-115.3,2.4c-0.2,0-0.4,0-0.6,0
		c-1.5,1.7-3.1,3.4-4.6,4.9c0.2,0,0.4,0,0.5,0c35.2,1.6,95.2,2.6,120,2.5c7.1,0,12.8-2.2,12.8-4.9
		C224.4,320.5,218.6,318.3,211.5,318.3z M230.1,293.3c-23.9,0-72.5,0.6-114.3,1.9c-0.1,0-0.2,0-0.2,0c-2,2.9-4.1,5.7-6,8.4
		c0.1,0,0.2,0,0.3,0c42.9,1.2,95.2,2.1,120.1,2.1c9,0,16.2-2.8,16.5-6.1C246.4,296.1,239.1,293.3,230.1,293.3z M240.9,268.8
		c-7.4,0-16.8,0-27.7,0.1H213c0,0.1,0,0.1,0,0.2c-3.6,4.4-7.1,8-11.8,11.8c0,0-1.8,2.5-7.1,0.4c-2.7-1.1-5.2-2.4-7.6-4.3
		c-0.2-0.1-0.3-0.2-0.5-0.4c-2.3-1.8-4.6-4.2-7-7.4c-14.9,0.2-30.7,0.6-46.2,1c-0.2,0-0.4,0-0.5,0c-1.2,1.9-3.9,5.7-7.1,10.6
		c0.1,0,0.3,0,0.4,0c24.2,0.7,49.6,1.2,71.5,1.5l0,0c0.7,0,1.5,0,2.2,0c16.7,0.2,31.3,0.3,41.7,0.3c10.1,0,18.3-3.1,18.3-7
		C259.3,271.9,251,268.8,240.9,268.8z M246.9,244.5c-9.6,0-22.5,0-37.2,0.2h-0.2c5.7,8.4,8.5,13.2,8.7,13.6c0.2,0.2,0.4,0.5,0.6,1
		h0.2c10.9,0.1,20.4,0.1,27.8,0.1c10.8,0,19.6-3.4,19.6-7.5C266.5,247.8,257.8,244.5,246.9,244.5z M72.3,154.1c-0.1,0-0.1,0-0.2,0
		c-17.7,0.8-29.5,1.7-29.3,2.7c0,1.2,16.4,2.2,40,3.2c0.1,0,0.1,0,0.2,0C79.4,158.1,75.9,156.1,72.3,154.1z M35.2,202.3
		c0.3,1.4,0.5,2.7,0.8,4.1c8.4,0.6,20.3,1.2,34.3,1.8c0.2-0.1,0.3-0.2,0.5-0.3c0.4-0.2,0.7-0.4,1.1-0.6c0.7-0.4,1.4-0.8,2-1.2l0,0
		c0.3-0.2,0.6-0.4,1-0.6c2.6-1.7,4.7-3.3,6.5-4.9c0.2-0.2,0.4-0.3,0.5-0.5C62.5,200.7,45.9,201.5,35.2,202.3z"/>
	<path class="st2" d="M219.2,262.7c-1.6,1.8-4,3.9-8.8,0.8c-5-3.1-6-4.9-6.5-4.7c-0.6,0.1-0.8,1.8,0.5,3.9c1,1.9,5.6,6.2,8.2,6.2
		c0.3,0,0.5,0,0.6,0.1c0.2,0.2,0,0.4,0,0.4c-3.6,4.4-7.1,8-11.7,12c0,0-0.6,0.9-2.3,1.2c-0.6,0.1-1.3,0.1-2.2,0l0,0
		c-0.8-0.1-1.6-0.4-2.6-0.8c-2.8-1.1-5.4-2.5-8-4.6c-0.2-0.1-0.3-0.2-0.5-0.4c-3-2.5-6-5.9-9.2-10.9c-6.2-9.7-14.8-27.9-21-50.4
		c0,0,4.7,3.9,8.6,2.4c0,0-1.4-6.1-6.4-10.2c-5-4.1-7-4.1-7-4.1l-3.2-14.7c-5.7,7.3-8.1,17.9-6,29.7c0,0-6.5-4.7-9.4-17.2
		c0,0-7.5,23.4,1,40.5c7.6,15.1,23.1,22.4,27.1,23.9s2.6,2.5,0.2,2.5c-2.4,0-10-1.1-16.5-3.5c-4.8-1.7-7.5-0.1-11.6,5.6
		c-0.1,0.1-0.2,0.3-0.3,0.4c-1.2,1.8-3.8,5.6-6.9,10.2c-2.9,4.3-6.3,9.3-9.8,14.3c-2,2.9-4,5.7-5.9,8.4c-2.9,4.1-5.6,7.7-7.7,10.2
		c-1.9,2.4-4,4.7-6,6.8c-1.6,1.7-3.2,3.4-4.7,4.9c-5.6,5.7-10.1,9.5-10.1,9.5c-8.8-5.1-16.4-10.9-23-17.1c-0.1-0.6-0.2-1.2-0.4-1.9
		c11.9-1.1,19.5-2.3,19.5-3.6c0-1.3-8.2-2.5-21-3.7c-1.1-5.3-2.1-10.7-3.2-16c19.6-1.4,33.5-2.9,33.5-4.4c0-1.7-14.8-3.2-35.3-4.4
		c0-0.1,0-0.2-0.1-0.3c-1-4.8-1.9-9.6-2.9-14.5c25-1.4,44.4-3.1,44.4-4.8c0-1.9-20.3-3.6-46.3-5c-1-4.8-1.9-9.6-2.9-14.4
		c26.8-1.4,48.1-3.1,48.1-5.1s-22.3-3.8-50.1-5.2c-1-5-2-10-3-15c13.9-3,24.2-7.3,31.7-11.6c0.2-0.1,0.3-0.2,0.5-0.3
		c0.4-0.2,0.7-0.4,1.1-0.6c0.7-0.4,1.4-0.8,2-1.2l0,0c0.3-0.2,0.6-0.4,1-0.6c2.6-1.7,4.7-3.4,6.5-4.9c0.2-0.2,0.4-0.3,0.5-0.5
		c4.4-3.9,6.3-6.8,6.5-7.1c1.2-1.6-0.1-3.1-1.6-3.1c-6.8,0-13.7,0.5-21.2-2.7c-2.8-1.2-4.9-2.4-6.4-3.6c-1.4-1-2.3-2-3-2.9l0,0
		c-0.1-0.1-0.2-0.2-0.2-0.3c-0.2-0.3-0.4-0.5-0.5-0.8c-0.6-0.9-0.8-1.5-0.8-1.6l0,0c10.1-0.6,31.3-1.5,47.2-1.7c0,0,1.8-0.1,1.8-1
		c0-2.2-3.4-4.2-3.4-4.2c-5.3-3.6-11.1-7.2-17.4-10.8c-3.4-2-6.9-4-10.6-6c-14.8-8.1-32-16.4-51.5-25c-0.8-4-1.6-8-2.4-11.9
		c37.5,13.9,72.1,30.3,103.2,51c1.4,0.9,3-1.1,0.8-2.5c-1-0.5-28.2-20.3-56.6-34.2c-12.9-8.3-31.1-19.9-50.8-31.1
		c-0.8-3.9-1.5-7.7-2.3-11.6c18.8,9.3,43.2,22.9,72.4,42.2c2.1,1.4,4.3,2.9,6.5,4.4c7.8,5.3,16,11,24.5,17.2c2.1,1.5,4.2,3,6.3,4.6
		c1.9,1.4,3.8,2.8,5.6,4.2c5.9,4.5,11.5,9,16.8,13.5c4.7,3.9,9.1,7.8,13.2,11.6c4.2,3.9,8.2,7.6,11.9,11.3c4.7,4.6,9,9.1,12.9,13.3
		c3.2,3.5,6.1,6.8,8.8,10c4.4,5.2,8.2,9.9,11.5,14.2c2.6,3.5,4.9,6.6,6.8,9.3c5.8,8.4,8.6,13.4,8.8,13.7s0.4,0.6,0.6,0.9
		C219.7,260.3,220.3,261.5,219.2,262.7z"/>
</g>
<path class="st3" d="M400,348.1c-92.4-0.2-184.7,0.1-277.1,0H64.4c-2-10.1-4-20.2-6-30.2c-0.1-0.6-0.2-1.2-0.4-1.9
	c-0.5-2.4-1-4.8-1.5-7.3c-1.1-5.3-2.1-10.7-3.2-16c-0.4-2.1-0.8-4.2-1.3-6.3c-0.2-0.8-0.4-1.6-0.5-2.4c0-0.1,0-0.2-0.1-0.3
	c-1-4.8-1.9-9.6-2.9-14.5c-0.7-3.3-1.3-6.5-2-9.8c-1-4.8-1.9-9.6-2.9-14.4c-0.5-2.6-1.1-5.2-1.6-7.9c-0.2-0.8-0.3-1.6-0.5-2.4
	c-1-5-2-10-3-15c-0.9-4.4-1.8-8.9-2.6-13.3c-0.3-1.4-0.5-2.7-0.8-4.1c-0.1-0.6-0.2-1.2-0.3-1.8c-1.3-6.4-2.6-12.8-3.9-19.2
	c-0.1-0.4-0.2-0.8-0.3-1.3c-3.4-17-6.8-33.9-10.2-50.9c-0.8-4-1.6-8-2.4-11.9c-1.1-5.6-2.2-11.2-3.4-16.8c-0.8-3.9-1.5-7.7-2.3-11.6
	C9.1,72,5.8,55.2,2.4,38.4c-0.1-0.3-0.9-2.4,0.2-4.6c1-2,3-2.6,3.3-2.8h78.6c3.7,0.2,10.6,1.1,18,5.2c8,4.4,12.6,10.5,14.1,12.6
	c3.4,4.5,12.5,16.6,26.2,34.6c3.8,5,8,10.5,12.5,16.5c2.6,3.5,5.4,7.1,8.2,10.9c1.6,2.2,3.3,4.4,5,6.6c0.9,1.1,1.8,2.3,2.6,3.5
	c1.9,2.5,3.8,5,5.7,7.6c2.2,3,4.5,6,6.9,9.2c3.3,4.3,6.6,8.8,10.1,13.4c2.9,3.9,5.9,7.8,9,11.9c2.7,3.5,5.4,7.2,8.2,10.8
	c3.4,4.5,6.8,9,10.3,13.7c2.4,3.2,4.8,6.4,7.3,9.6c3.7,4.8,7.4,9.8,11.2,14.8c2.2,2.9,4.4,5.8,6.6,8.8c0.6,0.8,1.3,1.7,1.9,2.5
	c2.9,3.9,6.1,7.8,9.5,11.9c21.3,25.4,51.5,53.8,92.8,75.8c10.1,5.4,20.1,9.9,29.7,13.8c2.6,0.9,10,3.7,15.2,11.4
	c1.6,2.4,2.7,4.8,3.4,6.8C399.5,344.9,399.8,346.7,400,348.1z"/>
<path class="st4" d="M398.7,346.9c-92.1-0.2-184,0.1-276.1,0H64.3c-4.1-20.4-8.2-40.9-12.3-61.5l0,0l-0.6-2.7l0,0l-9.3-46.4
	c-2.5-12.2-4.9-24.4-7.3-36.6C24.1,146,13.3,92.2,2.5,38.4c-0.6-1.5-0.5-3.1,0.2-4.6C3.5,32.5,4.6,31.5,6,31h78.3
	c6.3,0.4,12.4,2.1,17.9,5.2c5.5,3.1,10.3,7.4,14,12.5c3.4,4.5,12.5,16.5,26.1,34.5c3.8,5,8,10.5,12.5,16.4
	c4.9,6.5,10.2,13.4,15.8,20.9c21.1,28,47.3,62.7,76.9,101.9c21.4,28,54.3,62,101.9,87.3c9.6,5.1,19.5,9.7,29.6,13.8
	c6.1,2,11.5,6,15.1,11.4c1.4,2.1,2.5,4.4,3.4,6.8C398.2,343.7,398.5,345.5,398.7,346.9z"/>
</svg>
