<?xml version="1.0" encoding="utf-8"?>
<!-- Generator: Adobe Illustrator 27.0.0, SVG Export Plug-In . SVG Version: 6.00 Build 0)  -->
<svg version="1.1" id="Layer_1" xmlns="http://www.w3.org/2000/svg" xmlns:xlink="http://www.w3.org/1999/xlink" x="0px" y="0px"
	 viewBox="0 0 400 400" style="enable-background:new 0 0 400 400;" xml:space="preserve">
<style type="text/css">
	.st0{fill:#C42127;}
	.st1{fill:#273640;}
	.st2{fill:#1D242A;}
	.st3{fill-rule:evenodd;clip-rule:evenodd;fill:#A7854D;}
</style>
<g id="RJ">
	<g>
		<path class="st0" d="M136.5,68.2c5.8,6.8,24.2,24.8,38.2,38.2c-26.2-33.7-48.8-62.6-62-79.6C104.9,16.7,93,10.7,80.2,10.2L4.1,7.5
			l0.5,2.1c8.8,1.1,32.7,4.5,53.6,11.8C84.4,30.6,126.8,56.8,136.5,68.2z"/>
		<path class="st1" d="M395.9,392.5c0,0-158.9-206-221.2-286.1c-14-13.4-32.4-31.4-38.2-38.2c-9.7-11.5-52.1-37.7-78.3-46.9
			C37.3,14,13.5,10.6,4.6,9.5l9.3,35l98.6,25.1l-92.8-3.4l2,7.6l113.6,22.6l-109-5.2l1.8,6.7c30.1,3.8,107.6,14.2,125.3,23.3
			c-52.6-2.4-92.7-5.9-120.8-6.4l1.3,4.9c34.6,4.6,120.5,16.7,137.6,26.3c-56.7-3-103.2-5.9-132.4-6.7l1.3,5
			c26.1,3.4,112.9,15.2,155.8,26.5c-41.6-3.1-117.5-5.8-150.6-6.9l1.6,6c23.7,1.9,108.8,9.4,163.1,24.3
			c-42.7-1.6-122.1-4.9-158.3-6.2l1.6,6.1c28.3,3.1,158.3,17.7,172,24.9c-21.6-0.6-130.3-6.1-167.6-8.1l1.4,5.2l180.3,22.3
			c-56.8,0-135.8-1.4-174.9-2.2l1.8,6.8c21.8,0.3,86.8,3.2,199.9,26.2c-86.7-5.9-161.8-8.6-195.5-9.6l1.7,6.4
			c29.9,1,139.4,6.1,214.5,27.9c-68.3-2.5-165.5-8-209.9-10.6l1.8,7c30.3,1.5,145.6,8.2,231.5,27.8c-52.3-4.9-180.7-8.9-226.9-10.2
			l1.6,6.1c36.4,1.8,154.4,9,237.3,30.3c-93-7.8-190.6-9.6-232-10.3l0.9,3.4c40,1.9,182.5,9.8,247.2,31
			c-58.2-4.9-193.1-9.3-241.8-10.8l1.5,5.6c29.8-0.9,115.2-0.5,263.1,22.7c-59.1-0.5-205.1-4.2-258.6-5.5l3.3,12.3H395.9z"/>
		<g>
			<path class="st2" d="M47.2,169.9l4.8,18.1c36.2,1.3,115.5,4.6,158.3,6.2C156,179.4,71,171.8,47.2,169.9z"/>
			<path class="st2" d="M40.4,144.3l5.2,19.6c33.1,1.1,109,3.8,150.6,6.9C153.3,159.5,66.5,147.7,40.4,144.3z"/>
			<path class="st2" d="M53.7,194.1l4.5,16.8c37.3,1.9,146,7.5,167.6,8.1C212,211.8,82,197.2,53.7,194.1z"/>
			<path class="st2" d="M28.1,97.9l4.5,17c28.1,0.5,68.2,3.9,120.8,6.4C135.7,112.1,58.2,101.7,28.1,97.9z"/>
			<polygon class="st2" points="13.9,44.5 19.7,66.2 112.5,69.7 			"/>
			<polygon class="st2" points="21.7,73.9 26.3,91.3 135.3,96.4 			"/>
			<path class="st2" d="M59.5,216.1l5.3,20.1c39.1,0.8,118.1,2.2,174.9,2.2L59.5,216.1z"/>
			<path class="st2" d="M33.9,119.7l5.2,19.5c29.2,0.8,75.7,3.8,132.4,6.7C154.4,136.4,68.5,124.3,33.9,119.7z"/>
			<path class="st2" d="M98.5,363.1l4.6,17.2c53.4,1.4,199.5,5,258.6,5.5C213.8,362.6,128.4,362.2,98.5,363.1z"/>
			<path class="st2" d="M91.7,337.3l5.4,20.2c48.8,1.5,183.7,6,241.8,10.8C274.2,347.1,131.7,339.2,91.7,337.3z"/>
			<path class="st2" d="M85.5,313.9l5.3,20c41.4,0.8,139,2.5,232,10.3C239.9,322.9,121.9,315.7,85.5,313.9z"/>
			<path class="st2" d="M72.8,266.1l4.6,17.3c44.4,2.6,141.7,8.1,209.9,10.6C212.2,272.2,102.7,267.1,72.8,266.1z"/>
			<path class="st2" d="M79.2,290.3l4.7,17.5c46.2,1.3,174.6,5.3,226.9,10.2C224.8,298.5,109.5,291.8,79.2,290.3z"/>
			<path class="st2" d="M66.7,243.1l4.4,16.6c33.6,1,108.8,3.6,195.5,9.6C153.5,246.3,88.5,243.3,66.7,243.1z"/>
		</g>
	</g>
	<path class="st3" d="M167.8,219.6c2-2.2,3.9-4.4,5.9-6.7c-1.9-0.4-2.7-1.6-2.3-2.7c0.4-1.6,0.4-3.5-0.8-6.3
		c-0.8-2.2-1.6-4.4-2.3-6.7c-0.1-0.2-0.2-0.5-0.4-0.5c-0.2,0-0.4,0.3-0.4,0.5c-0.8,2.2-1.6,4.4-2.4,6.7c-1.2,2.7-1.2,4.7-0.8,6.3
		c0.4,1.2-0.4,2.4-2.4,2.7C163.9,215.1,165.8,217.3,167.8,219.6L167.8,219.6z M181.8,275.9c1.5-0.2,2.1,1.3,2,2.6
		c-0.1,1.2-0.8,2.4-1.9,2.4c-1.9,0-2.5-1.5-2.2-2.9C179.9,277,180.7,276,181.8,275.9L181.8,275.9z M194.5,276c2.7,0,5.3,1.2,6.5,3.1
		c-0.4,1.6-2.6,2.7-5.3,3.1c-5.2-1.5-5.9-2.5-5.9-3.1C189.7,278.7,191,277,194.5,276L194.5,276z M167.8,280.7
		c1.8,0.2,5.4-1.4,4.3-3.1c-1-1.8-3.3-2.3-4.3-2.3c-1.1,0-3.3,0.6-4.3,2.3C162.5,279.4,166,280.9,167.8,280.7L167.8,280.7z
		 M190.2,225.8c2.7,3.5,3.1,8.2,2,14.9c-0.4,2.7-2.7,6.7-6.7,11.8c0.8,1.3,1.6,2.6,2.3,3.9c0.5,1.5,1.7,4.7-1.2,4.7
		c-0.5,0.5-1,1-1.6,1.6c0.7,0.8,1.3,1.6,2,2.4c0.4,1.2,0.4,2.4,0,2.7c-1.6,2-3.5,2.4-5.9,0.8c-0.8-2-3.1-2.8-6.7-1.6
		c-2.7,1.2-4.3-0.4-4.7-3.9c0.7-0.4,1.3-0.8,2-1.2c0.8-0.8,1.2-1.6,0.8-2c-0.8-0.8-1.6-1.6-2.4-2.4c-2.2-3.3,1.3-3.3,2.7-5.5
		c2-1.2,2.3-2,2-3.1c-3.5-9-2.8-17.6,2-25.1c2.3-2.1,4.5-3.5,6.6-3.6C185.9,220.1,188.1,221.7,190.2,225.8L190.2,225.8z
		 M204.3,283.9c0.5-0.4,1-0.8,1.6-1.2c2-8.6,5.5-13.7,10.2-14.9c0.8-3.1,2.7-4.3,5.9-3.5c1.2-0.4,2-2,2.4-3.9c2-0.4,2.7-1.6,2.7-3.9
		c-0.4-2.7,0.4-4.3,1.6-5.1c0.8-1.2,0.4-2.7-0.8-4.7c1.2-2,1.6-3.5,0.4-5.1c-0.7-1.6-1.3-3.1-2-4.7c0-1.6-0.8-2.7-2.7-3.9
		c-1.6-0.8-2.4-2-2.4-3.5c-1.2,0.4-2.7-0.4-4.3-2c-2-1.6-3.5-2-5.1-1.6c-0.4-0.4-2-1.2-4.7-1.6c-2-0.4-3.5-1.2-4.3-3.1
		c-0.8,0-2.4-1.6-4.3-4.7c-0.8,0-1.6,0-2.4,0c-1.2-0.4-2-1.2-2.4-1.6c-9.6-5.3-16.7-1.9-19.2,2c-1.4,1.5-4.9,6.7-6.7,7
		c-1.8-0.4-5.3-5.5-6.7-7c-2.5-3.9-9.6-7.2-19.2-2c-0.4,0.4-1.2,1.2-2.4,1.6c-0.8,0-1.6,0-2.4,0c-2,3.1-3.5,4.7-4.3,4.7
		c-0.8,2-2.4,2.7-4.3,3.1c-2.7,0.4-4.3,1.2-4.7,1.6c-1.6-0.4-3.1,0-5.1,1.6c-1.6,1.6-3.1,2.4-4.3,2c0,1.6-0.8,2.7-2.3,3.5
		c-2,1.2-2.7,2.4-2.7,3.9c-0.7,1.6-1.3,3.1-2,4.7c-1.2,1.6-0.8,3.1,0.4,5.1c-1.2,2-1.6,3.5-0.8,4.7c1.2,0.8,2,2.4,1.6,5.1
		c0,2.4,0.8,3.5,2.7,3.9c0.4,2,1.2,3.5,2.4,3.9c3.1-0.8,5.1,0.4,5.9,3.5c4.7,1.2,8.2,6.3,10.2,14.9c0.5,0.4,1,0.8,1.6,1.2
		C155.7,283.9,180,283.9,204.3,283.9L204.3,283.9z M213.7,237.2c2.7,5.1,3.1,9.4,2,12.9c-1.2,3.5-2.7,6.3-5.5,8.2
		c1.6,2.7,2,4.7,0.8,5.9c-1.2,0.3-2.4,0.5-3.5,0.8c-1.2,0-1.2,0.8-0.8,2c0.4,2.4,0.8,3.9,0.4,4.3c-1.2,0.4-3.1-0.4-5.5-2.7
		c-5.5,0.8-8.6,0.8-9.4,0.4c-0.4-1.2-0.8-2-0.4-2.4c1.6-0.4,3.1-0.8,4.3-1.6c-1.6-3.9-1.6-6.3,0-6.7c1.2-0.4,2-0.8,2.4-1.6
		c1.2-0.4,2-0.8,2-1.6c-0.4-3.5,0.4-7.1,2-11.4c1-3.5,1.4-13.1,7.2-10.4C210.8,234.1,212.2,235.3,213.7,237.2L213.7,237.2z
		 M204.3,293.3c2.6-0.1,2.2-4.9,0.4-5.1h-73.8c-1.8,0.2-2.2,5,0.4,5.1H204.3L204.3,293.3z M153.8,275.9c-1.5-0.2-2.1,1.3-2,2.6
		c0.1,1.2,0.8,2.4,1.9,2.4c1.9,0,2.5-1.5,2.2-2.9C155.7,277,154.9,276,153.8,275.9L153.8,275.9z M141.1,276c-2.7,0-5.3,1.2-6.5,3.1
		c0.4,1.6,2.6,2.7,5.3,3.1c5.2-1.5,5.9-2.5,5.9-3.1C145.9,278.7,144.6,277,141.1,276L141.1,276z M145.4,225.8
		c-2.8,3.5-3.1,8.2-2,14.9c0.4,2.7,2.7,6.7,6.7,11.8c-0.8,1.3-1.6,2.6-2.4,3.9c-0.5,1.5-1.7,4.7,1.2,4.7c0.5,0.5,1,1,1.6,1.6
		c-0.7,0.8-1.3,1.6-2,2.4c-0.4,1.2-0.4,2.4,0,2.7c1.6,2,3.5,2.4,5.9,0.8c0.8-2,3.1-2.8,6.7-1.6c2.7,1.2,4.3-0.4,4.7-3.9
		c-0.7-0.4-1.3-0.8-2-1.2c-0.8-0.8-1.2-1.6-0.8-2c0.8-0.8,1.6-1.6,2.4-2.4c2.2-3.3-1.3-3.3-2.7-5.5c-2-1.2-2.4-2-2-3.1
		c3.5-9,2.7-17.6-2-25.1c-2.3-2.1-4.5-3.5-6.6-3.6C149.8,220.1,147.5,221.7,145.4,225.8L145.4,225.8z M121.9,237.2
		c-2.7,5.1-3.1,9.4-2,12.9c1.2,3.5,2.7,6.3,5.5,8.2c-1.6,2.7-2,4.7-0.8,5.9c1.2,0.3,2.4,0.5,3.5,0.8c1.2,0,1.2,0.8,0.8,2
		c-0.4,2.4-0.8,3.9-0.4,4.3c1.2,0.4,3.1-0.4,5.5-2.7c5.5,0.8,8.6,0.8,9.4,0.4c0.4-1.2,0.8-2,0.4-2.4c-1.6-0.4-3.1-0.8-4.3-1.6
		c1.6-3.9,1.6-6.3,0-6.7c-1.2-0.4-2-0.8-2.4-1.6c-1.2-0.4-2-0.8-2-1.6c0.4-3.5-0.4-7.1-2-11.4c-1-3.5-1.5-13.1-7.2-10.4
		C124.8,234.1,123.5,235.3,121.9,237.2L121.9,237.2z"/>
</g>
</svg>
