<?xml version="1.0" encoding="utf-8"?>
<!-- Generator: Adobe Illustrator 27.0.0, SVG Export Plug-In . SVG Version: 6.00 Build 0)  -->
<svg version="1.1" id="Layer_1" xmlns="http://www.w3.org/2000/svg" xmlns:xlink="http://www.w3.org/1999/xlink" x="0px" y="0px"
	 viewBox="0 0 400 400" style="enable-background:new 0 0 400 400;" xml:space="preserve">
<style type="text/css">
	.st0{fill:#001E65;}
	.st1{fill:#FFFFFF;}
	.st2{fill:#011959;}
	.st3{fill:#00185C;}
</style>
<g id="RO">
	<path class="st0" d="M116.6,291.9l0.6,1.3c17.9,13.8,40.4,22,64.8,22c49.9,0,91.7-34.4,102.9-80.6L164,105.8
		c-48,8.2-85,48.5-87.8,98l35.1,76.7L116.6,291.9z"/>
	<path class="st1" d="M129.4,122.3c29.6,36.4,65.4,85,95,121.4c0.9,1.1,1.9,1.4,3.3,1.4c4.9-0.1,9.9-0.5,14.8,0.1
		c6,0.7,11,3.3,15.6,6.9c3.7,2.9,7.1,6.1,10,9.9l0,0c-13.7-4.2-30.3-2.3-44.6-0.5c-1.2,0.1-2.2,0.5-3.3,0.9
		c-26.8,9.8-53.5,19.5-80.3,29.3c-0.7,0.3-1.5,0.5-2.2,0.7c-0.1-0.1,0.1,0.1,0,0c15.2-9.9,30.3-20.2,45.5-30.2
		c-0.1-0.2-0.1-0.3-0.2-0.5c-2.1-0.1-4.3-0.3-6.4-0.4c-15.9-0.8-31.7-1.6-47.6-2.4c-8.5-0.4-27-4.6-27.8-4.9l0,0
		c28.5-2.1,57.1-4.2,85.6-6.2c0.2,0,0.4-0.1,0.6-0.1c1.8,0.1,2.2-0.5,1.2-2.2c-7.4-13.8-14.6-27.7-22-41.6
		C155,181.7,141.1,144.6,129.4,122.3L129.4,122.3z"/>
	<path class="st0" d="M149.8,90.7l-20-21.3c-13.2-14-31.6-22-50.8-22H4.5l58.6,127.8C75,134,108.1,101.7,149.8,90.7z"/>
	<path class="st0" d="M395.5,352.7L298.3,249c-16.6,48.3-62.6,83.1-116.7,83.1c-18.5,0-36-4.1-51.8-11.3l14.6,31.9H395.5z"/>
	<path class="st1" d="M298.3,249l-6.3-6.7c-14.2,47.3-58.3,81.8-110.4,81.8c-20.8,0-40.3-5.5-57.2-15.1l5.4,11.8
		c15.8,7.3,33.3,11.3,51.8,11.3C235.8,332.1,281.7,297.4,298.3,249z"/>
	<path class="st1" d="M156.2,97.4l-6.3-6.7c-41.8,11-74.8,43.3-86.8,84.5l5.4,11.8C77.3,142.5,111.9,107.3,156.2,97.4z"/>
	<path class="st2" d="M157.9,99.2l-1.7-1.8c-44.2,9.9-78.9,45.1-87.7,89.6l1.6,3.5C77.6,144.9,112.7,108.6,157.9,99.2z"/>
	<path class="st3" d="M180.9,320.2c-21.6,0-41.9-6.1-59-16.7l2.5,5.4c16.9,9.6,36.4,15.1,57.2,15.1c52.2,0,96.2-34.5,110.4-81.8
		l-3.1-3.3C275.6,285.9,232.3,320.2,180.9,320.2z"/>
	<path class="st1" d="M181.9,315.3c-24.4,0-46.8-8.2-64.8-22l4.7,10.3c17.1,10.6,37.4,16.7,59,16.7c51.4,0,94.7-34.3,108-81.2
		l-4.1-4.3C273.6,280.9,231.8,315.3,181.9,315.3z"/>
	<path class="st1" d="M70.1,190.5l6.1,13.3c2.8-49.5,39.8-89.8,87.8-98l-6.1-6.5C112.7,108.6,77.6,144.9,70.1,190.5z"/>
</g>
</svg>
