<?xml version="1.0" encoding="utf-8"?>
<!-- Generator: Adobe Illustrator 27.0.0, SVG Export Plug-In . SVG Version: 6.00 Build 0)  -->
<svg version="1.1" id="Layer_1" xmlns="http://www.w3.org/2000/svg" xmlns:xlink="http://www.w3.org/1999/xlink" x="0px" y="0px"
	 viewBox="0 0 400 400" style="enable-background:new 0 0 400 400;" xml:space="preserve">
<style type="text/css">
	.st0{fill:#FFBB05;}
	.st1{fill:#FFFFFF;stroke:#777777;stroke-width:0.25;stroke-miterlimit:10;}
	.st2{fill:#FEFEFE;}
	.st3{fill:#C40332;}
	.st4{fill:#FFFFFF;}
</style>
<g id="RQ">
	<g>
		<polygon class="st0" points="112.1,279.7 117.3,291.1 137.6,335.3 163.9,351.3 226,351.3 106.7,267.9 		"/>
		<polygon class="st1" points="144.9,351.3 163.9,351.3 137.6,335.3 		"/>
		<polygon class="st1" points="33.7,48.7 6.3,48.7 22,83 306.8,351.3 330.1,351.3 		"/>
		<polygon class="st1" points="106.7,267.9 226,351.3 263.7,351.3 76.2,201.2 		"/>
		<path class="st0" d="M365.1,351.3L204.7,149.7l-74.2-79.1c-13-13.9-31.3-21.8-50.3-21.8H33.7l296.4,302.5H365.1z"/>
		<polygon class="st2" points="393.7,351.3 204.7,149.7 365.1,351.3 		"/>
		<polygon class="st0" points="76.2,201.2 263.7,351.3 306.8,351.3 22,83 		"/>
	</g>
	<g>
		<rect x="85.7" y="101.8" class="st3" width="39.3" height="26"/>
		<g>
			<path class="st4" d="M106.9,105.9v7.2h6.9v3.1h-6.9v7.3h-3.3v-7.3h-6.9v-3.1h6.9v-7.2H106.9z"/>
		</g>
	</g>
</g>
</svg>
