<?xml version="1.0" encoding="utf-8"?>
<!-- Generator: Adobe Illustrator 27.0.0, SVG Export Plug-In . SVG Version: 6.00 Build 0)  -->
<svg version="1.1" id="Layer_1" xmlns="http://www.w3.org/2000/svg" xmlns:xlink="http://www.w3.org/1999/xlink" x="0px" y="0px"
	 viewBox="0 0 400 400" style="enable-background:new 0 0 400 400;" xml:space="preserve">
<style type="text/css">
	.st0{fill:none;}
	.st1{fill:#DA2531;}
	.st2{fill:#FFFFFF;stroke:#000000;stroke-width:0.2227;stroke-miterlimit:10;}
	.st3{fill:#221D1F;}
	.st4{fill:#153583;}
	.st5{fill:#008A44;}
	.st6{fill:#FEAF15;}
</style>
<g id="SA">
	<polygon class="st0" points="54.4,153.5 55.6,154 55.4,153.6 	"/>
	<path class="st1" d="M131.1,71.7c-12.9-13.8-31-21.6-49.9-21.6H8l44.1,96.2l149.3,0.4L131.1,71.7z"/>
	<polygon class="st2" points="201.4,146.7 52.1,146.3 55.4,153.6 221.2,167.8 	"/>
	<polygon class="st3" points="60.2,163.9 112.9,279 118.1,290.3 141.1,340.6 185.4,256.9 	"/>
	<polygon class="st4" points="392,349.9 315.6,268.4 144.7,348.4 145.4,349.9 	"/>
	<polygon class="st2" points="304.5,256.6 142.7,344.1 144.7,348.4 315.6,268.4 	"/>
	<polygon class="st5" points="221.2,167.8 55.4,153.6 55.6,154 254.7,235.9 142.2,342.9 142.7,344.1 304.5,256.6 	"/>
	<polygon class="st6" points="55.6,154 60.2,163.9 185.4,256.9 141.1,340.6 142.2,342.9 254.7,235.9 	"/>
	<circle class="st6" cx="84.2" cy="102.8" r="21.9"/>
</g>
</svg>
