<?xml version="1.0" encoding="utf-8"?>
<!-- Generator: Adobe Illustrator 27.0.0, SVG Export Plug-In . SVG Version: 6.00 Build 0)  -->
<svg version="1.1" id="Layer_1" xmlns="http://www.w3.org/2000/svg" xmlns:xlink="http://www.w3.org/1999/xlink" x="0px" y="0px"
	 viewBox="0 0 400 400" style="enable-background:new 0 0 400 400;" xml:space="preserve">
<style type="text/css">
	.st0{fill:#243F8C;}
	.st1{fill:#FFFFFF;}
</style>
<g id="SK">
	<path class="st0" d="M4.7,47.5l106.7,232.8l5.2,11.5l27.8,60.7h250.8l-265.3-283c-13.2-14-31.5-22-50.7-22H4.7z"/>
	<g>
		<g>
			<path class="st1" d="M185.9,326.2c5.9-7.4,11.4-14.2,16.9-21c9-11.2,18-22.3,27-33.5c1.2-1.5,2.4-2.2,4.3-2.2
				c4.1,0.1,8.3,0.1,12.4,0c1.7,0,2.6,0.2,2.1,2.4c-3.5,17.3-6.8,34.7-10.2,52.1c-0.3,1.6-0.9,2.3-2.6,2.2c-5.3-0.1-10.6-0.1-15.9,0
				c-1.7,0-2.2-0.4-1.7-2.2c0.7-2.8,1.1-5.6,1.7-8.5c0.3-1.6,0-2.3-1.8-2.3c-4.3,0.1-8.7,0.1-13,0c-1.3,0-2.1,0.6-2.9,1.6
				c-2,2.7-4.3,5.2-6.1,8c-1.7,2.6-3.8,3.8-6.9,3.3C188.3,326.1,187.5,326.2,185.9,326.2z M225.5,286.2c-0.2-0.1-0.4-0.1-0.7-0.2
				c-5.2,6.7-10.5,13.4-15.7,20.1c-0.8,1-1,1.7,0.7,1.7c3.4,0,6.7,0,10.1,0c0.9,0,1.5-0.3,1.7-1.2
				C222.9,299.9,224.2,293,225.5,286.2z"/>
			<path class="st1" d="M266.2,327.2c-7-0.1-12.9-1.2-18.2-4.5c-2.7-1.7-3.6-6-1.8-8.5c1-1.4,1.6,0.1,2.2,0.6
				c3.7,3.3,7.8,5.6,12.8,6c7.4,0.7,11-3.2,9.7-10.6c-1.1-6.3-2.9-12.5-4.4-18.7c-2.7-11,2.7-19.8,13.7-22.3
				c7.4-1.7,14.7-1.3,21.7,1.8c2,0.9,2.8,4.9,1.2,6.5c-0.8,0.8-1.4-0.1-2-0.4c-2.7-1.6-5.5-2.6-8.7-2.7c-6-0.2-9.4,3.8-8.1,9.6
				c1.3,6,2.5,12.1,4.4,17.9c3.7,11.6-2.8,22.9-17.7,25C269.1,327.1,267.2,327.1,266.2,327.2z"/>
			<path class="st1" d="M144.7,313.4c2.2,1.6,4.1,3.3,6.2,4.6c3.9,2.4,8.1,3.6,12.7,2.7c3.5-0.6,5.5-3.1,5.8-6.6
				c0.3-4.2-1.1-8.1-2-12.2c-0.7-3.3-1.7-6.5-2.5-9.8c-3-11.8,2.4-20.6,14.4-23.1c7.2-1.5,14.3-1,21.2,2.1c1.8,0.8,2.4,5.2,1,6.5
				c-0.7,0.6-1.3-0.1-1.8-0.4c-2.3-1.3-4.6-2.3-7.2-2.7c-7.2-1.1-11.3,3.3-9.6,10.5c1.3,5.5,2.5,11,4.1,16.5
				c4.4,14.9-5.4,23.3-15.6,25.1c-7.7,1.4-15.1,0.9-22.3-2.4C142.3,321.2,141.9,320.2,144.7,313.4z"/>
		</g>
	</g>
</g>
</svg>
