<svg width="401" height="401" viewBox="0 0 401 401" fill="none" xmlns="http://www.w3.org/2000/svg">
<g clip-path="url(#clip0_19946_103895)">
<path d="M400.014 348.211C307.84 348.011 215.766 348.311 123.592 348.211H65.2354C61.1454 327.761 57.0555 307.211 52.9655 286.662C52.766 285.764 52.5665 284.866 52.367 283.969C49.2746 268.506 46.1822 253.044 43.0898 237.582C40.5959 225.412 38.2017 213.142 35.8076 200.972C24.9343 147.104 14.1608 93.1364 3.38717 39.2686C3.28741 38.9693 2.48937 36.8745 3.58668 34.6799C4.58423 32.6848 6.57933 32.0862 6.8786 31.8867H85.2862C88.9771 32.0862 95.8602 32.984 103.242 37.074C111.223 41.4632 115.811 47.5483 117.308 49.6431C120.699 54.1321 129.777 66.2025 143.444 84.1584C147.234 89.1462 151.424 94.6327 155.913 100.619C160.801 107.103 166.088 114.085 171.774 121.567C192.922 149.598 219.158 184.313 248.785 223.617C270.232 251.648 303.152 285.663 350.835 311.001C360.91 316.388 370.885 320.878 380.462 324.768C383.055 325.666 390.437 328.458 395.625 336.139C397.221 338.534 398.318 340.928 399.016 342.923C399.515 345.018 399.814 346.814 400.014 348.211Z" fill="url(#paint0_linear_19946_103895)"/>
<path d="M400.014 348.211C307.84 348.011 215.766 348.311 123.592 348.211H65.2354C61.1454 327.761 57.0555 307.211 52.9655 286.662C52.766 285.764 52.5665 284.866 52.367 283.969C49.2746 268.506 46.1822 253.044 43.0898 237.582C40.5959 225.412 38.2017 213.142 35.8076 200.972C24.9343 147.104 14.1608 93.1364 3.38717 39.2686C3.28741 38.9693 2.48937 36.8745 3.58668 34.6799C4.58423 32.6848 6.57933 32.0862 6.8786 31.8867H85.2862C88.9771 32.0862 95.8602 32.984 103.242 37.074C111.223 41.4632 115.811 47.5483 117.308 49.6431C120.699 54.1321 129.777 66.2025 143.444 84.1584C147.234 89.1462 151.424 94.6327 155.913 100.619C160.801 107.103 166.088 114.085 171.774 121.567C192.922 149.598 219.158 184.313 248.785 223.617C270.232 251.648 303.152 285.663 350.835 311.001C360.91 316.388 370.885 320.878 380.462 324.768C383.055 325.666 390.437 328.458 395.625 336.139C397.221 338.534 398.318 340.928 399.016 342.923C399.515 345.018 399.814 346.814 400.014 348.211Z" fill="white"/>
<mask id="mask0_19946_103895" style="mask-type:alpha" maskUnits="userSpaceOnUse" x="2" y="31" width="399" height="318">
<path d="M400.501 348.596C308.101 348.396 215.801 348.696 123.401 348.596H64.9008C60.8008 328.096 56.7008 307.496 52.6008 286.896C52.4008 285.996 52.2008 285.096 52.0008 284.196C48.9008 268.696 45.8008 253.196 42.7008 237.696C40.2008 225.496 37.8008 213.196 35.4008 200.996C24.5008 146.996 13.7008 92.8961 2.90078 38.8961C2.80078 38.5961 2.00078 36.4961 3.10078 34.2961C4.10078 32.2961 6.10078 31.6961 6.40078 31.4961H85.0008C88.7008 31.6961 95.6008 32.5961 103.001 36.6961C111.001 41.0961 115.601 47.1961 117.101 49.2961C120.501 53.7961 129.601 65.8961 143.301 83.8961C147.101 88.8961 151.301 94.3961 155.801 100.396C160.701 106.896 166.001 113.896 171.701 121.396C192.901 149.496 219.201 184.296 248.901 223.696C270.401 251.796 303.401 285.896 351.201 311.296C361.301 316.696 371.301 321.196 380.901 325.096C383.501 325.996 390.901 328.796 396.101 336.496C397.701 338.896 398.801 341.296 399.501 343.296C400.001 345.396 400.301 347.196 400.501 348.596Z" fill="url(#paint1_linear_19946_103895)"/>
<path d="M400.501 348.596C308.101 348.396 215.801 348.696 123.401 348.596H64.9008C60.8008 328.096 56.7008 307.496 52.6008 286.896C52.4008 285.996 52.2008 285.096 52.0008 284.196C48.9008 268.696 45.8008 253.196 42.7008 237.696C40.2008 225.496 37.8008 213.196 35.4008 200.996C24.5008 146.996 13.7008 92.8961 2.90078 38.8961C2.80078 38.5961 2.00078 36.4961 3.10078 34.2961C4.10078 32.2961 6.10078 31.6961 6.40078 31.4961H85.0008C88.7008 31.6961 95.6008 32.5961 103.001 36.6961C111.001 41.0961 115.601 47.1961 117.101 49.2961C120.501 53.7961 129.601 65.8961 143.301 83.8961C147.101 88.8961 151.301 94.3961 155.801 100.396C160.701 106.896 166.001 113.896 171.701 121.396C192.901 149.496 219.201 184.296 248.901 223.696C270.401 251.796 303.401 285.896 351.201 311.296C361.301 316.696 371.301 321.196 380.901 325.096C383.501 325.996 390.901 328.796 396.101 336.496C397.701 338.896 398.801 341.296 399.501 343.296C400.001 345.396 400.301 347.196 400.501 348.596Z" fill="white" fill-opacity="0.2"/>
</mask>
<g mask="url(#mask0_19946_103895)">
<path d="M13.4941 26.2556L-12.8057 31.4805L55.2002 373.791L81.4999 368.566L13.4941 26.2556Z" fill="#EC2127"/>
</g>
<path d="M212.125 202.642L205.468 202.031L204.075 201.42H201.443L198.812 199.435C198.812 199.435 201.289 196.381 198.812 194.854C198.812 194.854 181.938 186.913 181.319 180.957C181.319 180.957 175.126 178.666 175.281 184.317C175.281 184.317 174.352 184.775 173.888 183.706C173.888 183.706 174.662 183.095 165.219 179.125C165.219 179.125 159.336 178.208 157.788 176.528C157.788 176.528 153.144 176.07 153.144 182.484C153.144 182.484 137.508 182.026 134.412 182.484C134.412 182.484 130.852 183.553 132.4 189.814C132.4 189.814 121.408 194.243 118.312 191.8C118.312 191.8 115.681 199.893 121.718 203.711L117.074 205.696C117.074 205.696 119.086 234.712 137.199 249.219C137.199 249.219 150.667 235.628 169.398 242.653C169.398 242.653 193.084 250.746 189.523 276.249C189.523 276.249 185.344 299.614 161.194 301.294C160.884 299.308 160.729 298.087 160.729 298.087C189.059 295.491 186.892 269.682 186.892 269.682C184.105 242.958 159.336 243.874 159.336 243.874C143.391 243.569 137.818 253.8 137.818 253.8C99.7354 216.386 113.049 160.799 113.049 160.799C92.7691 151.942 90.2922 178.666 90.2922 178.666C89.5181 231.199 134.567 259.145 134.567 259.145L133.174 261.741C85.3384 231.352 84.0999 196.381 84.0999 196.381C71.8702 194.396 71.4058 209.514 71.4058 209.514C71.7154 245.859 131.78 266.323 131.78 266.323V269.682C89.0537 262.047 72.6442 237.308 72.6442 237.308C68.774 237.766 68 246.47 68 246.47C69.8577 279.303 131.78 274.111 131.78 274.111V278.082C99.5806 286.328 74.6567 270.141 74.6567 270.141C67.0711 287.397 91.3758 291.978 91.3758 291.978C109.953 295.033 134.412 282.816 134.412 282.816L136.425 286.175C113.823 304.195 90.7566 296.712 90.7566 296.712C90.447 306.791 102.212 309.235 102.212 309.235C119.086 312.9 139.211 290.146 139.211 290.146L141.843 292.131C128.22 312.442 108.869 313.969 108.869 313.969C112.739 321.452 118.931 320.535 118.931 320.535C135.496 320.077 145.094 294.727 145.094 294.727L147.725 296.102C143.236 315.801 128.22 320.535 128.22 320.535C130.078 324.048 136.27 323.895 136.27 323.895C150.048 323.131 151.75 297.476 151.75 297.476C152.989 297.781 155.156 298.087 155.156 298.087C156.549 314.58 149.119 320.535 149.119 320.535C156.24 322.826 159.181 319.161 159.181 319.161C161.968 316.87 161.968 309.846 161.348 304.653C166.302 304.195 189.833 301.141 196.644 278.998C196.644 278.998 198.347 273.653 199.276 273.042C199.276 273.042 202.372 272.889 202.682 269.682C202.682 269.682 202.063 267.239 200.669 267.086C200.669 267.086 197.109 263.116 198.038 261.131C198.038 261.131 198.502 259.603 200.669 258.535C200.669 258.535 203.146 257.313 202.063 255.175C202.063 255.175 202.527 254.259 197.418 251.815C197.418 251.815 193.084 248.456 192.774 239.293C192.774 239.293 193.084 237.308 196.18 238.682C196.18 238.682 203.301 240.667 204.849 235.322L205.468 229.367V227.992C205.468 227.992 202.527 231.505 199.431 230.588C199.431 230.588 193.858 230.436 194.787 222.647C194.787 222.647 196.954 213.332 204.849 215.317C204.849 215.317 208.1 215.775 208.255 219.898C208.255 219.898 214.757 216.081 214.292 209.361L213.673 208.751V207.223H214.292C214.138 207.223 214.757 203.253 212.125 202.642ZM166.457 201.42C164.135 200.199 163.051 198.824 163.051 198.824C160.729 194.701 164.445 192.869 164.445 192.869C170.172 191.036 172.495 195.465 172.495 195.465C161.658 193.174 166.457 201.42 166.457 201.42ZM194.632 206.613L191.226 203.253V201.879H195.87L197.264 201.268L194.632 206.613Z" fill="#EC2127"/>
<path d="M85.0012 31.4961C88.7012 31.6961 95.6013 32.5964 103.001 36.6963C111.001 41.0961 115.601 47.1957 117.101 49.2959C120.501 53.7959 129.601 65.8965 143.301 83.8965C147.101 88.8964 151.301 94.3966 155.801 100.396C160.701 106.896 166.001 113.896 171.701 121.396C192.901 149.496 219.201 184.296 248.901 223.696C270.401 251.796 303.401 285.896 351.201 311.296C361.301 316.696 371.301 321.196 380.901 325.096C383.501 325.996 390.901 328.796 396.101 336.496C397.701 338.896 398.801 341.296 399.501 343.296C400.001 345.396 400.301 347.196 400.501 348.596C308.101 348.396 215.801 348.696 123.401 348.596H64.9006C60.8007 328.096 56.7008 307.496 52.6008 286.896L52.0012 284.196C48.9012 268.696 45.8015 253.196 42.7015 237.696C40.2015 225.496 37.8007 213.196 35.4007 200.996C24.5007 146.996 13.7006 92.8964 2.90066 38.8965C2.80066 38.5965 2.00085 36.4959 3.10085 34.2959C4.10057 32.2966 6.09973 31.6963 6.40066 31.4961H85.0012ZM7.08718 34.4961C6.93618 34.5699 6.78367 34.6495 6.63308 34.7461C6.26835 34.9801 5.97133 35.264 5.78445 35.6377C5.41305 36.3805 5.51603 37.1243 5.63699 37.5879L5.74734 37.9473L5.80593 38.125L5.84304 38.3076C15.2933 85.559 24.7426 132.883 34.259 180.149L38.342 200.402L38.343 200.41L38.3449 200.417C40.7463 212.624 43.1429 224.908 45.6399 237.094L45.6418 237.1L45.6428 237.107C47.1928 244.857 48.7432 252.607 50.2932 260.357C51.839 268.086 53.3842 275.816 54.93 283.545L55.2297 284.895C55.3297 285.345 55.4295 285.795 55.5295 286.245L55.5364 286.277L55.5432 286.31C59.4825 306.103 63.4226 325.894 67.3616 345.596H123.405C214.584 345.694 305.739 345.404 396.936 345.589C396.841 345.128 396.735 344.648 396.618 344.149C395.991 342.389 395.017 340.281 393.614 338.175C388.968 331.295 382.334 328.766 379.92 327.931L379.845 327.905L379.772 327.876C370.102 323.948 360.005 319.404 349.793 313.944C301.514 288.289 268.202 253.859 246.519 225.519L246.505 225.502C216.805 186.102 190.508 151.306 169.306 123.203C163.607 115.704 158.306 108.703 153.405 102.202L153.401 102.196C148.908 96.2066 144.718 90.7183 140.913 85.7119C127.209 67.7065 118.104 55.6002 114.707 51.1045L114.683 51.0723L114.659 51.04C113.263 49.0847 108.977 43.4075 101.555 39.3252L101.547 39.3203C94.716 35.5355 88.3404 34.688 84.9016 34.4961H7.08718Z" fill="#444444"/>
</g>
<defs>
<linearGradient id="paint0_linear_19946_103895" x1="-20.9481" y1="77.9128" x2="280.712" y2="394.694" gradientUnits="userSpaceOnUse">
<stop stop-color="#232F67"/>
<stop offset="0.5" stop-color="#232F67"/>
<stop offset="1" stop-color="#021F5E"/>
</linearGradient>
<linearGradient id="paint1_linear_19946_103895" x1="-21.4942" y1="77.6351" x2="280.906" y2="395.193" gradientUnits="userSpaceOnUse">
<stop stop-color="#232F67"/>
<stop offset="0.5" stop-color="#232F67"/>
<stop offset="1" stop-color="#021F5E"/>
</linearGradient>
<clipPath id="clip0_19946_103895">
<rect width="400" height="400" fill="white" transform="translate(0.5 0.5)"/>
</clipPath>
</defs>
</svg>
