<?xml version="1.0" encoding="utf-8"?>
<!-- Generator: Adobe Illustrator 27.0.0, SVG Export Plug-In . SVG Version: 6.00 Build 0)  -->
<svg version="1.1" id="Layer_1" xmlns="http://www.w3.org/2000/svg" xmlns:xlink="http://www.w3.org/1999/xlink" x="0px" y="0px"
	 viewBox="0 0 400 400" style="enable-background:new 0 0 400 400;" xml:space="preserve">
<style type="text/css">
	.st0{fill:#212A61;}
	.st1{fill:#ED4828;}
</style>
<g id="SN">
	<path class="st0" d="M5.5,48.1L111.8,280l5.2,11.4l27.7,60.4h249.8L130.2,70c-13.1-14-31.4-21.9-50.5-21.9H5.5z"/>
	<g>
		<ellipse transform="matrix(0.5 -0.866 0.866 0.5 -132.1044 244.9099)" class="st1" cx="146" cy="236.9" rx="10.9" ry="6.9"/>
		<ellipse transform="matrix(0.5 -0.866 0.866 0.5 -161.5974 254.0822)" class="st1" cx="139.2" cy="267" rx="12.7" ry="8.5"/>
		<ellipse transform="matrix(0.5 -0.866 0.866 0.5 -189.3232 275.6557)" class="st1" cx="144.1" cy="301.8" rx="14" ry="9.7"/>
		<ellipse transform="matrix(0.5 -0.866 0.866 0.5 -197.5759 307.7499)" class="st1" cx="167.7" cy="325" rx="17.6" ry="13.2"/>
		<ellipse transform="matrix(0.5 -0.866 0.866 0.5 -89.6692 301.2737)" class="st1" cx="216.1" cy="228.3" rx="19.1" ry="13.4"/>
		<ellipse transform="matrix(0.5 -0.866 0.866 0.5 -74.0896 268.3679)" class="st1" cx="195.4" cy="198.3" rx="15.9" ry="11.1"/>
		<ellipse transform="matrix(0.5 -0.866 0.866 0.5 -58.3715 239.6895)" class="st1" cx="178.4" cy="170.4" rx="13.6" ry="9.5"/>
		<ellipse transform="matrix(0.5 -0.866 0.866 0.5 -45.4158 215.2831)" class="st1" cx="163.7" cy="147" rx="12.1" ry="7.5"/>
		<ellipse transform="matrix(0.5 -0.866 0.866 0.5 -35.5481 195.4293)" class="st1" cx="151.5" cy="128.5" rx="10.4" ry="5.9"/>
		<ellipse transform="matrix(0.5 -0.866 0.866 0.5 -26.558 178.351)" class="st1" cx="141.2" cy="112.2" rx="8.3" ry="4.7"/>
		<ellipse transform="matrix(0.5 -0.866 0.866 0.5 -18.8652 165.2311)" class="st1" cx="133.7" cy="99" rx="7.1" ry="4"/>
		<ellipse transform="matrix(0.5 -0.866 0.866 0.5 -13.0612 153.1646)" class="st1" cx="126.1" cy="87.9" rx="5.8" ry="3.3"/>
		<ellipse transform="matrix(0.5 -0.866 0.866 0.5 -164.8693 336.2025)" class="st1" cx="208.7" cy="310.9" rx="19.6" ry="14.7"/>
		<ellipse transform="matrix(0.5 -0.866 0.866 0.5 -109.7275 340.3183)" class="st1" cx="239.9" cy="265.2" rx="21.7" ry="15.8"/>
	</g>
</g>
</svg>
