<?xml version="1.0" encoding="utf-8"?>
<!-- Generator: Adobe Illustrator 26.0.1, SVG Export Plug-In . SVG Version: 6.00 Build 0)  -->
<svg version="1.1" id="Layer_1" xmlns="http://www.w3.org/2000/svg" xmlns:xlink="http://www.w3.org/1999/xlink" x="0px" y="0px"
	 viewBox="0 0 400 400" style="enable-background:new 0 0 400 400;" xml:space="preserve">
<style type="text/css">
	.st0{fill:#00266B;}
	.st1{fill:#F79110;}
	.st2{fill-rule:evenodd;clip-rule:evenodd;fill:#F79110;}
	.st3{fill:none;stroke:#E0E0E0;stroke-miterlimit:10;}
	.st4{fill:none;stroke:#333333;stroke-width:3;stroke-miterlimit:10;}
</style>
<path class="st0" d="M400,348.1c-92.4-0.2-184.7,0.1-277.1,0l0,0c-19.5,0-39,0-58.5,0c-4.1-20.5-8.2-41.1-12.3-61.7l0,0
	c-0.2-0.9-0.4-1.8-0.6-2.7l0,0c-3.1-15.5-6.2-31-9.3-46.5c-2.5-12.2-4.9-24.5-7.3-36.7C24,146.5,13.2,92.4,2.4,38.4
	c-0.1-0.3-0.9-2.4,0.2-4.6c1-2,3-2.6,3.3-2.8h78.6c3.7,0.2,10.6,1.1,18,5.2c8,4.4,12.6,10.5,14.1,12.6c3.4,4.5,12.5,16.6,26.2,34.6
	c3.8,5,8,10.5,12.5,16.5c4.9,6.5,10.2,13.5,15.9,21c21.2,28.1,47.5,62.9,77.2,102.3c21.5,28.1,54.5,62.2,102.3,87.6
	c10.1,5.4,20.1,9.9,29.7,13.8c2.6,0.9,10,3.7,15.2,11.4c1.6,2.4,2.7,4.8,3.4,6.8C399.5,344.9,399.8,346.7,400,348.1z"/>
<path class="st1" d="M2.1,35.6c21,104.2,42,208.3,63,312.5h8.3L10.3,31c-0.3-0.1-3-1-5.5,0.5C2.6,32.9,2.1,35.2,2.1,35.6z"/>
<path class="st2" d="M140.5,299.6c0,0,30.6-44.5,34.3-51s5.6-14.8,0-23.2c-1.8-3.7-49.1-77.9-49.1-77.9s-6.5,10.2-10.2,15.8
	c-1.8,3.7-2.8,8.3,0,14.8c0,0,38.9,61.2,40.8,63.1c1.8,3.7,1.8,11.1-0.9,16.7c-1.9,3.8-27.9,41.7-27.9,41.7L140.5,299.6L140.5,299.6
	z"/>
<path class="st2" d="M184.1,304.2c6.5,0,9.3-3.7,12.1-6.5c1.9-2.8,17.6-26,19.5-29.7c2.8-2.8,5.6-4.6,9.3-5.6h-15.8
	c-4.6,0-8.3,5.6-10.1,7.4c-0.9,1.8-13.9,21.3-16.7,24.1c-1.8,2.7-4.6,5.5-13,5.5h-24.1c0,0,30.6-44.5,34.3-51s4.6-17.6,0-25.1
	c-2.8-3.7-45.5-72.3-45.5-72.3c-3.7-6.5-2.8-11.1-0.9-14.8c2.8-3.7,10.2-13.9,10.2-13.9s51,81.6,53.8,86.2c7.4,12,5.6,25,0,35.2
	c-4.7,7.4-29.7,43.6-30.6,45.4c1.9,0,4.6,0.9,6.5-1.9c2.7-3.7,17.6-25.9,19.4-28.8c2.8-4.6,8.3-8.3,12.1-8.3h21.3l13.9,21.3h-6.5
	c-2.8,0-6.5,1.9-9.3,5.5c-1.9,2.8-16.7,24.1-20.4,29.7c-4.6,6.5-9.3,9.3-18.6,9.3H96c0,0,31.5-44.5,33.4-48.2
	c2.7-4.6,2.7-11.1,0-14.8c-1-2.8-30.6-49.2-30.6-49.2c-3.8-7.4-2.8-11.1-1-14.8c2.8-3.7,10.2-14.8,10.2-14.8s41.7,65.8,42.7,67.7
	c2.8,3.7,2.8,10.2,0,14.8c-1.9,3.7-31.5,47.3-31.5,47.3h64.9V304.2L184.1,304.2z"/>
<path class="st3" d="M400,348.1c-92.4-0.2-184.7,0.1-277.1,0l0,0c-19.5,0-39,0-58.5,0c-4.1-20.5-8.2-41.1-12.3-61.7l0,0
	c-0.2-0.9-0.4-1.8-0.6-2.7l0,0c-3.1-15.5-6.2-31-9.3-46.5c-2.5-12.2-4.9-24.5-7.3-36.7C24,146.5,13.2,92.4,2.4,38.4
	c-0.1-0.3-0.9-2.4,0.2-4.6c1-2,3-2.6,3.3-2.8h78.6c3.7,0.2,10.6,1.1,18,5.2c8,4.4,12.6,10.5,14.1,12.6c3.4,4.5,12.5,16.6,26.2,34.6
	c3.8,5,8,10.5,12.5,16.5c4.9,6.5,10.2,13.5,15.9,21c21.2,28.1,47.5,62.9,77.2,102.3c21.5,28.1,54.5,62.2,102.3,87.6
	c10.1,5.4,20.1,9.9,29.7,13.8c2.6,0.9,10,3.7,15.2,11.4c1.6,2.4,2.7,4.8,3.4,6.8C399.5,344.9,399.8,346.7,400,348.1z"/>
<path class="st4" d="M398.7,346.9c-92.1-0.2-184,0.1-276.1,0H64.3c-4.1-20.4-8.2-40.9-12.3-61.5l0,0l-0.6-2.7l0,0l-9.3-46.4
	c-2.5-12.2-4.9-24.4-7.3-36.6C24.1,146,13.3,92.2,2.5,38.4c-0.6-1.5-0.5-3.1,0.2-4.6C3.5,32.5,4.6,31.5,6,31h78.3
	c6.3,0.4,12.4,2.1,17.9,5.2c5.5,3.1,10.3,7.4,14,12.5c3.4,4.5,12.5,16.5,26.1,34.5c3.8,5,8,10.5,12.5,16.4
	c4.9,6.5,10.2,13.4,15.8,20.9c21.1,28,47.3,62.7,76.9,101.9c21.4,28,54.3,62,101.9,87.3c9.6,5.1,19.5,9.7,29.6,13.8
	c6.1,2,11.5,6,15.1,11.4c1.4,2.1,2.5,4.4,3.4,6.8C398.2,343.7,398.5,345.5,398.7,346.9z"/>
</svg>
