<?xml version="1.0" encoding="utf-8"?>
<!-- Generator: Adobe Illustrator 26.0.1, SVG Export Plug-In . SVG Version: 6.00 Build 0)  -->
<svg version="1.1" id="Layer_1" xmlns="http://www.w3.org/2000/svg" xmlns:xlink="http://www.w3.org/1999/xlink" x="0px" y="0px"
	 viewBox="0 0 400 400" style="enable-background:new 0 0 400 400;" xml:space="preserve">
<style type="text/css">
	.st0{fill:#050969;}
	.st1{fill:none;stroke:#E0E0E0;stroke-width:0.9963;stroke-miterlimit:10;}
	.st2{fill:#B09255;}
	.st3{fill:none;stroke:#333333;stroke-width:3;stroke-miterlimit:10;}
</style>
<path class="st0" d="M399.3,347.5c-92.1-0.2-184,0.1-276.1,0l0,0c-19.4,0-38.9,0-58.3,0c-4.1-20.4-8.2-40.9-12.3-61.5l0,0
	c-0.2-0.9-0.4-1.8-0.6-2.7l0,0c-3.1-15.4-6.2-30.9-9.3-46.3c-2.5-12.2-4.9-24.4-7.3-36.6C24.6,146.7,13.9,92.8,3.1,39
	c-0.1-0.3-0.9-2.4,0.2-4.6c1-2,3-2.6,3.3-2.8h78.3c3.7,0.2,10.6,1.1,17.9,5.2c8,4.4,12.6,10.5,14,12.6c3.4,4.5,12.5,16.5,26.1,34.5
	c3.8,5,8,10.5,12.5,16.4c4.9,6.5,10.2,13.5,15.8,20.9c21.1,28,47.3,62.7,76.9,101.9c21.4,28,54.3,62,101.9,87.3
	c10.1,5.4,20,9.9,29.6,13.7c2.6,0.9,10,3.7,15.1,11.4c1.6,2.4,2.7,4.8,3.4,6.8C398.8,344.3,399.1,346.1,399.3,347.5z"/>
<path class="st1" d="M399.3,347.5c-92.1-0.2-184,0.1-276.1,0l0,0c-19.4,0-38.9,0-58.3,0c-4.1-20.4-8.2-40.9-12.3-61.5l0,0
	c-0.2-0.9-0.4-1.8-0.6-2.7l0,0c-3.1-15.4-6.2-30.9-9.3-46.3c-2.5-12.2-4.9-24.4-7.3-36.6C24.6,146.7,13.9,92.8,3.1,39
	c-0.1-0.3-0.9-2.4,0.2-4.6c1-2,3-2.6,3.3-2.8h78.3c3.7,0.2,10.6,1.1,17.9,5.2c8,4.4,12.6,10.5,14,12.6c3.4,4.5,12.5,16.5,26.1,34.5
	c3.8,5,8,10.5,12.5,16.4c4.9,6.5,10.2,13.5,15.8,20.9c21.1,28,47.3,62.7,76.9,101.9c21.4,28,54.3,62,101.9,87.3
	c10.1,5.4,20,9.9,29.6,13.7c2.6,0.9,10,3.7,15.1,11.4c1.6,2.4,2.7,4.8,3.4,6.8C398.8,344.3,399.1,346.1,399.3,347.5z"/>
<path class="st2" d="M72.8,262.8l-0.1,0.3l0.2,0.3c0.8,1.6,1.5,3.3,2.5,4.8c19,32.6,61.3,43.9,94.7,25s45-60.8,26-93.4
	c-1-1.6-1.8-3.2-2.9-4.6l-0.2-0.3l-0.3-0.1l-0.1,0.3l0.2,0.3c5.8,10,9.1,21.5,9.1,33.9c0,37.7-30.9,68.2-69,68.2
	c-25.7,0-47.9-13.8-59.9-34.3L72.8,262.8L72.8,262.8z"/>
<path class="st2" d="M180.7,183.6c-10.3-11.8-25.9-16.2-36.3-15c1.8-1.8,3.5-2.8,6.1-3.5c-4.3-2-11.2-1-13.8,2c0,0-0.5-5.6-3.7-7.7
	c-3.2,2.2-3.7,7.7-3.7,7.7c-2.6-3-9.4-4.1-13.8-2c2.7,0.7,4.3,1.7,6.1,3.5c-10.3-1.2-25.9,3.2-36.3,15c9.5-4.5,20.1-8,30.9-7
	c-9.9,2.1-26.2,12.1-29.7,28.7c10.6-12.4,21.6-18.8,30-20.3c-8.6,6.3-16.7,21.2-14.2,31.7c4.6-11,12.7-21.9,19.9-25.9
	c-4.2,6.8-5.5,23.1-1.5,30.4c1-9.4,3.9-21.5,8.7-27.6l1.4,11.8H129l1.7,11.9h-1.4l1.4,11.9h-1.2l1.7,11.9l1.7,1.4l-1.7-1.4l-5.7,2.9
	v0.4h14.8V244l-5.7-2.9l1.7-11.9h-1.2l1.4-11.9h-1.4l1.6-11.9h-1.6l1.4-11.8c4.8,6.1,7.7,18.3,8.7,27.6c4-7.2,2.6-23.6-1.5-30.4
	c7.4,4,15.4,14.8,19.9,25.9c2.5-10.5-5.5-25.4-14.2-31.7c8.4,1.4,19.4,8,30,20.3c-3.5-16.6-20-26.5-29.8-28.7
	C160.5,175.6,171.1,179,180.7,183.6z"/>
<path class="st2" d="M72.4,242.7c14.7-5.8,36.6,5.2,54.7,15.9c-4.4,3.1-9.6,6.6-14,9.5c-6.9-6.6-9.5-5.6-10.1-5.2
	c-0.7,0.3-1.2,0.9-1.2,1.6c0,1,0.8,1.8,1.7,1.8c1,0,1.8-0.9,1.8-1.8v-0.4c1.8,1.3,3.7,2.8,8.1,7.4c4.5,4.7,6.3,6,7.7,6.7
	c0.9,0.5,1.8,0.5,2.4,0.5c1,0,1.9-0.6,1.9-1.7c0.1-1.1-0.7-1.9-1.7-1.9s-1.8,0.7-1.8,1.8v0.2c-1.3-0.9-2.6-2.5-5.2-5.2
	c4.3-2.5,9.9-6,16-9.8c6.1,3.9,11.7,7.3,16,9.8c-2.7,2.8-4,4.4-5.2,5.2V277c0-1.1-0.9-1.8-1.8-1.8c-1.1,0-1.8,0.9-1.7,1.9
	c0.1,1.1,1,1.7,1.9,1.7c0.5,0.1,1.4,0,2.4-0.5c1.4-0.8,3.1-2,7.7-6.7c4.4-4.6,6.2-6.2,8.1-7.4v0.4c0,1.1,0.9,1.8,1.8,1.8
	c0.9,0,1.7-0.9,1.7-1.8c0-0.7-0.5-1.4-1.2-1.6c-0.5-0.3-3.2-1.4-10.1,5.2c-4.3-3-9.4-6.4-14-9.5c18-10.8,40-21.7,54.7-15.9
	c-16-17.4-53.2,7.2-57.5,10.1c-0.8,0.5-1.7,1.2-2.9,1.9c-1.1-0.6-2.2-1.4-2.9-1.9C125.5,250,88.5,225.5,72.4,242.7z"/>
<path class="st2" d="M155.9,270.3c-0.7,0.6-1.4,1.4-2.4,2.3c-0.5,0.5-0.9,0.9-1.3,1.3c12.8,7.1,17.7,5.2,20.1,3.2
	c0.5-0.5,0.8-0.9,0.9-1.1c0.2-0.2,0.1-0.5,0-0.6c-0.1-0.2-0.3-0.2-0.5-0.2c-0.3,0-0.9,0.3-1.4,0.5
	C168,277.1,162.6,274.6,155.9,270.3z"/>
<path class="st2" d="M92.9,275c-0.2,0-0.4,0.1-0.5,0.2s-0.1,0.4,0,0.6s0.3,0.5,0.9,1.1c2.4,2.1,7.3,4,20.1-3.2
	c-0.4-0.4-0.8-0.9-1.2-1.3c-0.9-0.9-1.6-1.6-2.4-2.3c-6.7,4.3-12.1,6.8-15.5,5.5C93.9,275.5,93.3,275.1,92.9,275z"/>
<path class="st3" d="M398.7,346.9c-92.1-0.2-184,0.1-276.1,0H64.3c-4.1-20.4-8.2-40.9-12.3-61.5l0,0l-0.6-2.7l0,0l-9.3-46.4
	c-2.5-12.2-4.9-24.4-7.3-36.6C24.1,146,13.3,92.2,2.5,38.4c-0.6-1.5-0.5-3.1,0.2-4.6C3.5,32.5,4.6,31.5,6,31h78.3
	c6.3,0.4,12.4,2.1,17.9,5.2c5.5,3.1,10.3,7.4,14,12.5c3.4,4.5,12.5,16.5,26.1,34.5c3.8,5,8,10.5,12.5,16.4
	c4.9,6.5,10.2,13.4,15.8,20.9c21.1,28,47.3,62.7,76.9,101.9c21.4,28,54.3,62,101.9,87.3c9.6,5.1,19.5,9.7,29.6,13.8
	c6.1,2,11.5,6,15.1,11.4c1.4,2.1,2.5,4.4,3.4,6.8C398.2,343.7,398.5,345.5,398.7,346.9z"/>
</svg>
