<?xml version="1.0" encoding="utf-8"?>
<!-- Generator: Adobe Illustrator 26.0.1, SVG Export Plug-In . SVG Version: 6.00 Build 0)  -->
<svg version="1.1" id="Layer_1" xmlns="http://www.w3.org/2000/svg" xmlns:xlink="http://www.w3.org/1999/xlink" x="0px" y="0px"
	 viewBox="0 0 400 400" style="enable-background:new 0 0 400 400;" xml:space="preserve">
<style type="text/css">
	.st0{fill:#361D66;}
	.st1{fill:none;stroke:#E0E0E0;stroke-miterlimit:10;}
	.st2{fill-rule:evenodd;clip-rule:evenodd;fill:#FBC707;}
	.st3{fill-rule:evenodd;clip-rule:evenodd;fill:#361D66;}
	.st4{fill-rule:evenodd;clip-rule:evenodd;fill:#C60A8D;}
	.st5{fill:none;stroke:#333333;stroke-width:3;stroke-miterlimit:10;}
</style>
<path class="st0" d="M400,348.1c-92.4-0.2-184.7,0.1-277.1,0l0,0c-19.5,0-39,0-58.5,0c-4.1-20.5-8.2-41.1-12.3-61.7l0,0
	c-0.2-0.9-0.4-1.8-0.6-2.7l0,0c-3.1-15.5-6.2-31-9.3-46.5c-2.5-12.2-4.9-24.5-7.3-36.7C24,146.5,13.2,92.4,2.4,38.4
	c-0.1-0.3-0.9-2.4,0.2-4.6c1-2,3-2.6,3.3-2.8h78.6c3.7,0.2,10.6,1.1,18,5.2c8,4.4,12.6,10.5,14.1,12.6c3.4,4.5,12.5,16.6,26.2,34.6
	c3.8,5,8,10.5,12.5,16.5c4.9,6.5,10.2,13.5,15.9,21c21.2,28.1,47.5,62.9,77.2,102.3c21.5,28.1,54.5,62.2,102.3,87.6
	c10.1,5.4,20.1,9.9,29.7,13.8c2.6,0.9,10,3.7,15.2,11.4c1.6,2.4,2.7,4.8,3.4,6.8C399.5,344.9,399.8,346.7,400,348.1z"/>
<path class="st1" d="M400,348.1c-92.4-0.2-184.7,0.1-277.1,0l0,0c-19.5,0-39,0-58.5,0c-4.1-20.5-8.2-41.1-12.3-61.7l0,0
	c-0.2-0.9-0.4-1.8-0.6-2.7l0,0c-3.1-15.5-6.2-31-9.3-46.5c-2.5-12.2-4.9-24.5-7.3-36.7C24,146.5,13.2,92.4,2.4,38.4
	c-0.1-0.3-0.9-2.4,0.2-4.6c1-2,3-2.6,3.3-2.8h78.6c3.7,0.2,10.6,1.1,18,5.2c8,4.4,12.6,10.5,14.1,12.6c3.4,4.5,12.5,16.6,26.2,34.6
	c3.8,5,8,10.5,12.5,16.5c4.9,6.5,10.2,13.5,15.9,21c21.2,28.1,47.5,62.9,77.2,102.3c21.5,28.1,54.5,62.2,102.3,87.6
	c10.1,5.4,20.1,9.9,29.7,13.8c2.6,0.9,10,3.7,15.2,11.4c1.6,2.4,2.7,4.8,3.4,6.8C399.5,344.9,399.8,346.7,400,348.1z"/>
<path class="st2" d="M83.6,257.3c-1.5,3.2-2.6,6.6-3.2,10.2c-0.2,2.6-0.5,5.1-0.5,7.5v3.2c0.2,3.2,0.9,6.2,1.9,9.2
	c1,2.7,2.4,5.8,4.1,8.3c1.7,2.7,3.6,5.1,6,7.5c2.4,2.2,4.9,4.3,7.7,6c3,1.7,6,3,9.5,3.9c3.4,1,6.8,1.7,10.7,1.7
	c3.6,0.2,7.1-0.2,10.5-0.9c3.2-0.9,6.2-2.1,9.2-3.6s5.6-3.4,7.9-5.8c2.2-2.2,4.1-4.7,5.6-7.5c1.5-2.7,2.6-5.8,3-9
	c0.5-1.7,0.5-3.2,0.5-4.9c0-1.5,0-2.7-0.2-4.1c3,1.7,6,3.2,9,4.1c3.6,1.3,7.9,1.9,12.2,2.2c4.1,0,7.9-0.2,11.5-1.3
	c3.4-0.7,6.8-1.9,10-3.6c2.7-1.5,5.8-3.4,8.6-5.8c1.7-1.5,3.4-3,5.1-4.9c0,0,2.6-2.4,3.9-4.1c1.5-1.5,3-3.4,4.5-5.3l3.4-4.3
	c0.9-1.3,1.7-2.4,2.7-3.4c1.3-1.7,2.7-3.2,4.3-4.7c2.6-2.6,5.4-4.9,8.3-6.8l1.9-1.3c0.5-0.2,0.9-0.5,1.3-0.7c0.5-0.2,0.9-0.5,0.9-1
	s-0.5-0.7-0.9-0.9c-0.5-0.2-0.9-0.5-1.3-0.7l-1.9-1.3c-3-1.9-5.8-4.3-8.3-6.8c-1.5-1.5-3-3-4.3-4.7c-1-1-1.9-2.2-2.7-3.4l-3.4-4.3
	c-1.5-1.9-3-3.9-4.5-5.3c-1.3-1.7-3.9-4.3-3.9-4.3c-1.7-1.7-3.4-3.2-5.1-4.7c-2.7-2.4-5.8-4.3-8.6-5.8c-3.2-1.7-6.6-3-10-3.6
	c-3.6-0.9-7.5-1.3-11.5-1.3c-4.3,0.2-8.6,0.9-12.2,2.2c-3,0.9-6,2.4-9,4.1c0.2-1.3,0.2-2.6,0.2-4.1c0-1.7,0-3.2-0.5-4.9
	c-0.5-3.2-1.5-6.2-3-9c-1.5-2.7-3.4-5.3-5.6-7.5c-2.4-2.4-4.9-4.3-7.9-5.8c-2.9-1.5-6.1-2.7-9.2-3.6c-3.4-0.7-6.8-1-10.5-0.9
	c-3.9,0-7.3,0.7-10.7,1.7c-3.4,0.9-6.4,2.2-9.5,3.9c-2.7,1.7-5.4,3.9-7.7,6c-2.4,2.4-4.3,4.7-6,7.5c-1.7,2.6-3,5.6-4.1,8.3
	c-1,3-1.7,6-1.9,9v3.4c0,2.4,0.2,4.9,0.5,7.5c0.7,3.6,1.7,7.1,3.2,10.2c1.5,3.2,3.2,6.2,5.4,8.8c2.2,2.6,4.5,4.7,7.1,6.6
	c1.3,1,2.7,1.9,4.3,2.6c0.7,0.5,1.5,0.9,2.2,1c-0.7,0.5-1.5,0.9-2.2,1.3c-1.5,0.7-3,1.5-4.3,2.6c-2.6,1.9-4.9,4.1-7.1,6.6
	C86.8,251.1,85.1,254.1,83.6,257.3"/>
<path class="st3" d="M92.5,260.7c-1.3,3-2.2,6-2.6,9.2c-0.5,3.4-0.5,6.8,0.2,10.2c0.7,3.2,1.7,6.4,3.2,9.2c1.5,2.7,3.4,5.1,5.6,7.3
	c2.4,2.2,4.7,4.1,7.5,5.6c2.7,1.3,5.8,2.4,8.8,3s6.4,0.9,9.6,0.5c3-0.5,6.2-1.3,9-2.7c2.6-1.3,5.1-3.2,7.1-5.3
	c2.2-2.2,3.6-4.7,4.9-7.5c1-2.7,1.9-5.8,2.2-8.8c0-3-0.2-6.2-1.3-9.2c0-0.5-0.2-0.9-0.5-1.3c0-0.2,0-0.5-0.2-0.7
	c0-0.2,0-0.5-0.2-0.7c0,0-0.2-0.2-0.5-0.2c0,0-0.2,0.2-0.2,0.5v1.3c-0.2,1.6-0.7,3.2-1.3,4.7c-1.3,2.7-3.2,5.1-5.6,6.8
	c-2.6,1.5-5.6,2.6-8.6,2.6c-3.2,0.2-6.4-0.2-9.2-1.7c-2.6-1.3-4.7-3.4-6.2-6s-2.2-5.6-2.2-8.8c0-3,0.9-6.2,2.6-8.8
	c1.5-2.6,3.9-4.9,6.6-6.2s6-1.9,9-1.5c2.2,0.2,4.3,0.9,6.2,1.7c1.9,0.9,3.9,2.2,5.6,3.4c1.9,1.5,3.9,3,5.6,4.7
	c1.9,1.5,3.9,3.2,5.8,4.7c2.2,1.7,4.3,3.2,6.6,4.4c2.6,1.3,5.1,2.4,7.9,3.2c3,0.9,6.2,1.3,9.5,1.3c3.2,0,6.4-0.2,9.6-1
	c2.7-0.7,5.4-1.5,7.9-2.7c2.2-1.3,4.3-2.7,6.4-4.4c1.9-1.5,3.6-3.4,5.4-5.3c1.7-1.9,3.2-3.9,4.7-5.8c1.7-1.9,3.2-4.1,4.7-6
	c1.7-1.9,3.2-3.9,5.1-5.6c1.7-1.7,3.4-3.2,5.6-4.4c0.5-0.5,0.9-0.7,1.3-0.9c0.2-0.2,0.7-0.5,0.9-0.5c0.2-0.2,0.7-0.5,0.7-0.9
	c0-0.2-0.5-0.4-0.7-0.4c-0.2-0.2-0.7-0.5-0.9-0.7c-0.5-0.2-0.9-0.5-1.3-0.7c-2.2-1.5-3.9-3-5.6-4.7c-1.9-1.9-3.4-3.6-5.1-5.6
	c-1.5-1.9-3-4.1-4.7-6c-1.5-1.9-3-3.9-4.7-5.8s-3.4-3.9-5.4-5.3c-2.2-1.7-4.3-3.2-6.4-4.4c-2.6-1.3-5.1-2.2-7.9-2.7
	c-3.2-0.9-6.4-1-9.6-1c-3.2,0-6.4,0.5-9.5,1.3c-2.7,0.9-5.4,1.9-7.9,3.4c-2.4,1-4.5,2.6-6.6,4.3c-1.9,1.5-3.9,3.2-5.8,4.9
	c-1.7,1.5-3.6,3-5.6,4.4c-1.7,1.3-3.6,2.6-5.6,3.4c-1.9,0.9-4.1,1.5-6.2,1.7c-3,0.5-6.2-0.2-9-1.5c-2.7-1.5-5.1-3.6-6.6-6.2
	c-1.7-2.6-2.6-5.8-2.6-8.8s0.7-6.2,2.2-8.8s3.6-4.7,6.2-6c2.7-1.5,6-1.9,9.2-1.7c3,0.2,6,1,8.6,2.6c2.4,1.7,4.3,4.1,5.6,6.8
	c0.7,1.5,1,3.1,1.3,4.7v1.3c0,0.2,0.2,0.5,0.2,0.5c0.2,0,0.5-0.2,0.5-0.2c0.2-0.2,0.2-0.5,0.2-0.7c0.2-0.2,0.2-0.5,0.2-0.7
	c0.2-0.5,0.5-0.9,0.5-1.3c1-3,1.3-6.2,1.3-9.2c-0.2-3-1-6-2.2-8.8c-1.3-2.7-2.7-5.3-4.9-7.5c-1.9-2.2-4.5-4.1-7.1-5.3
	c-2.7-1.5-6-2.4-9-2.7c-3.2-0.5-6.6-0.2-9.6,0.5s-6,1.7-8.8,3c-2.7,1.5-5.1,3.2-7.5,5.6c-2.2,2.2-4.1,4.4-5.6,7.3
	c-1.5,2.7-2.6,6-3.2,9.2c-0.7,3.4-0.7,6.8-0.2,10.2c0.5,3.2,1.3,6.2,2.6,9.2c1.3,2.7,2.7,5.3,4.9,7.7c1.9,2.4,4.3,4.3,6.8,5.8
	c2.7,1.7,5.6,3,8.6,3.9s6.2,1.3,9.5,1.3c3.4,0,6.6-0.5,10-1.3c2.7-0.7,5.4-1.5,7.9-2.7c2.4-1,4.5-2.6,6.4-3.9c1.9-1.5,3.9-3,5.6-4.3
	c1.9-1.5,3.6-2.7,5.6-4.1c1.7-1,3.6-2.2,5.8-3c2.4-0.7,4.7-1,7.1-1c3.2,0,6.4,0.7,9.5,1.9c3,1.3,5.6,3,7.7,5.3
	c2.4,2.4,4.1,4.9,5.1,7.9c1.3,2.7,1.7,6,1.7,9c0,3.2-0.5,6.4-1.7,9.2c-1,3-2.7,5.8-5.1,7.9c-2.2,2.4-4.7,4.1-7.7,5.3
	c-3,1.3-6.2,1.9-9.5,1.9c-2.4,0-4.7-0.5-7.1-1c-2.2-0.9-4.1-1.9-5.8-3c-1.9-1.3-3.6-2.6-5.6-3.9c-1.8-1.5-3.6-2.9-5.6-4.3
	c-1.9-1.5-4.1-3-6.4-4.1c-2.6-1.3-5.1-2.2-7.9-2.7c-3.4-0.9-6.6-1.3-10-1.3c-3.2,0-6.4,0.5-9.5,1.5c-3,0.7-5.8,1.9-8.6,3.6
	c-2.6,1.5-4.9,3.4-6.8,5.8C95.4,255.3,93.9,257.9,92.5,260.7"/>
<path class="st4" d="M138.1,238c0,0.2,0.2,0.5,0.2,0.5c3.9,0.9,7.3,3,10.3,5.1c3.4,2.6,6.6,5.1,9.8,7.5c3.4,2.4,7.3,4.3,11.3,4.4
	c3.2,0.2,6.6-0.7,9.5-2.2c2.6-1.5,4.7-3.6,6.2-6.2c1.7-2.7,2.4-6,2.4-9v-0.2c0-3-0.7-6.2-2.4-9c-1.5-2.6-3.6-4.7-6.2-6.2
	c-2.7-1.7-6.2-2.4-9.5-2.2c-4.1,0.2-7.9,2.2-11.3,4.4c-3.2,2.4-6.4,4.9-9.8,7.5c-3,2.2-6.4,4.3-10.3,5.1L138.1,238"/>
<path class="st5" d="M398.7,346.9c-92.1-0.2-184,0.1-276.1,0H64.3c-4.1-20.4-8.2-40.9-12.3-61.5l0,0l-0.6-2.7l0,0l-9.3-46.4
	c-2.5-12.2-4.9-24.4-7.3-36.6C24.1,146,13.3,92.2,2.5,38.4c-0.6-1.5-0.5-3.1,0.2-4.6C3.5,32.5,4.6,31.5,6,31h78.3
	c6.3,0.4,12.4,2.1,17.9,5.2c5.5,3.1,10.3,7.4,14,12.5c3.4,4.5,12.5,16.5,26.1,34.5c3.8,5,8,10.5,12.5,16.4
	c4.9,6.5,10.2,13.4,15.8,20.9c21.1,28,47.3,62.7,76.9,101.9c21.4,28,54.3,62,101.9,87.3c9.6,5.1,19.5,9.7,29.6,13.8
	c6.1,2,11.5,6,15.1,11.4c1.4,2.1,2.5,4.4,3.4,6.8C398.2,343.7,398.5,345.5,398.7,346.9z"/>
</svg>
