<?xml version="1.0" encoding="utf-8"?>
<!-- Generator: Adobe Illustrator 26.0.1, SVG Export Plug-In . SVG Version: 6.00 Build 0)  -->
<svg version="1.1" id="Layer_1" xmlns="http://www.w3.org/2000/svg" xmlns:xlink="http://www.w3.org/1999/xlink" x="0px" y="0px"
	 viewBox="0 0 400 400" style="enable-background:new 0 0 400 400;" xml:space="preserve">
<style type="text/css">
	.st0{fill:#EE3124;}
	.st1{fill:#FEFEFE;}
	.st2{fill:none;stroke:#E0E0E0;stroke-miterlimit:10;}
	.st3{fill:none;stroke:#333333;stroke-width:3;stroke-miterlimit:10;}
</style>
<path class="st0" d="M400,348.1c-92.4-0.2-184.7,0.1-277.1,0l0,0c-19.5,0-39,0-58.5,0c-4.1-20.5-8.2-41.1-12.3-61.7l0,0
	c-0.2-0.9-0.4-1.8-0.6-2.7l0,0c-3.1-15.5-6.2-31-9.3-46.5c-2.5-12.2-4.9-24.5-7.3-36.7C24,146.5,13.2,92.4,2.4,38.4
	c-0.1-0.3-0.9-2.4,0.2-4.6c1-2,3-2.6,3.3-2.8h78.6c3.7,0.2,10.6,1.1,18,5.2c8,4.4,12.6,10.5,14.1,12.6c3.4,4.5,12.5,16.6,26.2,34.6
	c3.8,5,8,10.5,12.5,16.5c4.9,6.5,10.2,13.5,15.9,21c21.2,28.1,47.5,62.9,77.2,102.3c21.5,28.1,54.5,62.2,102.3,87.6
	c10.1,5.4,20.1,9.9,29.7,13.8c2.6,0.9,10,3.7,15.2,11.4c1.6,2.4,2.7,4.8,3.4,6.8C399.5,344.9,399.8,346.7,400,348.1z"/>
<g>
	<path class="st1" d="M273.9,254l-11.5-13.4c-5.8,51.8-49,92.1-101.7,92.1c-38.1,0-70.9-20.4-88.4-50.9
		c-4.5-7.9-13.8-26.7-13.3-50.8c0.9-44.7,35.1-84.1,74.6-97.7c17.5-6,33.2-6,43.1-5.3c-3.2-4.6-6.4-9.2-9.6-13.8
		c-1.9,0.1-3.8,0.3-5.7,0.4c-4.2-0.1-9.7,0.1-16,1.2C101.9,123,44.5,165.7,44.5,231c0,64.3,51.8,116.1,116.1,116.1
		C216.3,347.1,263.3,306.8,273.9,254z"/>
	<path class="st1" d="M119.4,136.9c37.4,17.3,66.2,35.5,73.9,62.4c6.8,24-13.4,44.2-18.2,49c-1,0-1,1,0,1h71.1c1,0,1,1,0,1
		L73.5,288.7c0,0,0-1-2.9-6.8c51.8-9.5,68.2-43.2,67.2-85.4s-25.9-56.6-25.9-56.6S114.5,137.8,119.4,136.9z"/>
</g>
<path class="st2" d="M400,348.1c-92.4-0.2-184.7,0.1-277.1,0l0,0c-19.5,0-39,0-58.5,0c-4.1-20.5-8.2-41.1-12.3-61.7l0,0
	c-0.2-0.9-0.4-1.8-0.6-2.7l0,0c-3.1-15.5-6.2-31-9.3-46.5c-2.5-12.2-4.9-24.5-7.3-36.7C24,146.5,13.2,92.4,2.4,38.4
	c-0.1-0.3-0.9-2.4,0.2-4.6c1-2,3-2.6,3.3-2.8h78.6c3.7,0.2,10.6,1.1,18,5.2c8,4.4,12.6,10.5,14.1,12.6c3.4,4.5,12.5,16.6,26.2,34.6
	c3.8,5,8,10.5,12.5,16.5c4.9,6.5,10.2,13.5,15.9,21c21.2,28.1,47.5,62.9,77.2,102.3c21.5,28.1,54.5,62.2,102.3,87.6
	c10.1,5.4,20.1,9.9,29.7,13.8c2.6,0.9,10,3.7,15.2,11.4c1.6,2.4,2.7,4.8,3.4,6.8C399.5,344.9,399.8,346.7,400,348.1z"/>
<path class="st3" d="M398.7,346.9c-92.1-0.2-184,0.1-276.1,0H64.3c-4.1-20.4-8.2-40.9-12.3-61.5l0,0l-0.6-2.7l0,0l-9.3-46.4
	c-2.5-12.2-4.9-24.4-7.3-36.6C24.1,146,13.3,92.2,2.5,38.4c-0.6-1.5-0.5-3.1,0.2-4.6C3.5,32.5,4.6,31.5,6,31h78.3
	c6.3,0.4,12.4,2.1,17.9,5.2c5.5,3.1,10.3,7.4,14,12.5c3.4,4.5,12.5,16.5,26.1,34.5c3.8,5,8,10.5,12.5,16.4
	c4.9,6.5,10.2,13.4,15.8,20.9c21.1,28,47.3,62.7,76.9,101.9c21.4,28,54.3,62,101.9,87.3c9.6,5.1,19.5,9.7,29.6,13.8
	c6.1,2,11.5,6,15.1,11.4c1.4,2.1,2.5,4.4,3.4,6.8C398.2,343.7,398.5,345.5,398.7,346.9z"/>
</svg>
