<?xml version="1.0" encoding="utf-8"?>
<!-- Generator: Adobe Illustrator 27.0.0, SVG Export Plug-In . SVG Version: 6.00 Build 0)  -->
<svg version="1.1" id="Layer_1" xmlns="http://www.w3.org/2000/svg" xmlns:xlink="http://www.w3.org/1999/xlink" x="0px" y="0px"
	 viewBox="0 0 400 400" style="enable-background:new 0 0 400 400;" xml:space="preserve">
<style type="text/css">
	.st0{fill:none;stroke:#010101;stroke-width:0.2242;stroke-miterlimit:10;}
	.st1{fill:#72BD49;}
	.st2{fill:#EA2F30;}
	.st3{fill:#FFFFFF;}
	.st4{fill:#BDD239;}
	.st5{fill:#C92D32;}
</style>
<g id="TP">
	<path class="st0" d="M2.4,45.7l108,235.6l5.3,11.6l28.1,61.4h253.8L129.1,67.9c-13.3-14.2-31.9-22.2-51.3-22.2H2.4z"/>
	<polygon class="st1" points="337.6,354.3 397.6,354.3 336.8,289.5 336.8,352.1 	"/>
	<path class="st2" d="M129.1,67.9c-13.3-14.2-31.9-22.2-51.3-22.2H39.2C20.8,49.4,11.4,52.6,6.6,55l37,80.8
		c2.7-1.8,7.2-2.8,11.4-2.8c6.4,0,61.6,0,61.6,0v45.5H63.2l47.2,102.9l5.3,11.6l10.6,23.2l55.9-191.5L129.1,67.9z"/>
	<path class="st3" d="M116.6,133c0,0-55.2,0-61.6,0c-4.1,0-8.7,1-11.4,2.8l19.5,42.6h53.4V133z"/>
	<path class="st3" d="M2.4,45.7L6.6,55c4.8-2.4,14.2-5.6,32.6-9.3H2.4z"/>
	<polygon class="st4" points="221.2,299.1 317.5,299.1 336.8,352.1 336.8,289.5 204.9,148.8 204,347.9 	"/>
	<polygon class="st1" points="336.8,352.1 336.8,354.3 337.6,354.3 	"/>
	<polygon class="st5" points="204.9,148.8 182.2,124.6 126.3,316.1 143.8,354.3 201.7,354.3 204,347.9 	"/>
	<polygon class="st3" points="317.5,299.1 221.2,299.1 204,347.9 203.9,354.3 336.8,354.3 336.8,352.1 	"/>
	<polygon class="st5" points="201.7,354.3 203.9,354.3 204,347.9 	"/>
</g>
</svg>
