<?xml version="1.0" encoding="utf-8"?>
<!-- Generator: Adobe Illustrator 27.0.0, SVG Export Plug-In . SVG Version: 6.00 Build 0)  -->
<svg version="1.1" id="Layer_1" xmlns="http://www.w3.org/2000/svg" xmlns:xlink="http://www.w3.org/1999/xlink" x="0px" y="0px"
	 viewBox="0 0 400 400" style="enable-background:new 0 0 400 400;" xml:space="preserve">
<style type="text/css">
	.st0{fill:#FCC80E;}
	.st1{clip-path:url(#SVGID_00000167384867172931641960000000156281437139493288_);}
</style>
<path class="st0" d="M79.7,47.4c19.2,0,37.5,7.8,50.6,21.8l265.9,284.2h-252l-27.9-61l-5.2-11.3L3.8,47.4H79.7z"/>
<g>
	<defs>
		<path id="SVGID_1_" d="M79.7,47.4c19.2,0,37.5,7.8,50.6,21.8l265.9,284.2h-252l-27.9-61l-5.2-11.3L3.8,47.4H79.7z"/>
	</defs>
	<clipPath id="SVGID_00000030463675825761198210000005481784092455889837_">
		<use xlink:href="#SVGID_1_"  style="overflow:visible;"/>
	</clipPath>
	<g style="clip-path:url(#SVGID_00000030463675825761198210000005481784092455889837_);">
		<path d="M308.9,356.4c3.2-23.9,2.9-47-0.2-70.3c-2.4-17.9-8.1-34.2-20.1-47.9c-2-2.3-4.3-4.4-6.8-5.9c-1.5-0.9-4.1-1.4-5.7-0.8
			c-1.1,0.5-1.9,3.3-1.6,4.9c1.1,8.2,3,16.4,4,24.6c1.6,12.7,2.7,25.5,4,38.2c-0.6,0.3-1.1,0.6-1.7,0.9c-2.2-1.2-4.5-2.2-6.6-3.6
			c-29.9-19.9-53.9-45.1-70.7-77.1c-19.4-37-33-76.3-45.8-116c-3.1-9.7-7.4-19-11.8-28.1c-1.5-3.2-4.9-5.8-7.9-7.8
			c-1.4-0.9-4.5-0.2-6.2,0.8c-1,0.6-1.6,3.4-1.2,4.8c10.4,37.9,20.3,75.9,31.5,113.6c9.2,31.1,20.4,61.6,39.3,88.3
			c21,29.7,44.9,56.7,75.7,76.9c5.9,3.9,11.8,4.4,18.3,4.3C299.7,356.3,304.2,356.4,308.9,356.4z"/>
		<path d="M223.9,356.4c-7-7.4-13.2-13.6-19.1-20.2c-33.7-38-53.9-82.5-61.7-132.4c-7.2-45.8-13.9-91.6-28.5-135.8
			c-2.2-6.6-4.2-13.4-6.8-19.9c-0.6-1.6-3-3.3-4.7-3.5c-5.1-0.5-10.2-0.2-15.6-0.2c0.2,1.3,0.1,2.3,0.4,3.1
			c12.5,30.1,18.1,62,23.9,93.8c6.5,35.7,11.3,71.8,23.4,106.2c13.1,37.1,31.1,71.9,53.1,104.5c2.1,3.1,4.4,4.7,8.3,4.5
			C205.4,356.2,214,356.4,223.9,356.4z"/>
		<path d="M17,44.4c16.7,16.9,28.4,35.1,33.7,56.4c3.8,15.1,6.2,30.8,7.3,46.4c1.7,24.6,9.9,46.3,26.2,64.5
			c13.3,14.8,22.8,31.4,28.5,50.4c1,3.3,3.9,6,6,8.9c0.9-3.4,2.5-6.8,2.7-10.2c1.7-21-5.5-39.6-16.9-56.6
			c-11.5-17.2-15.1-36.4-17.2-56.3c-1.5-13.7-1.9-27.7-5.1-41.1c-3-12.4-8.6-24.1-13.8-35.9c-3.5-7.9-8.2-15.4-12.6-22.9
			c-0.9-1.6-2.9-3.5-4.5-3.5C40.5,44.3,29.6,44.4,17,44.4z"/>
		<path d="M56,204.4c3.3,13.4,7.3,26.6,9.8,40.1c3.9,20.9,13.4,39.5,21.8,58.7c6.7,15.3,11,31.7,16,47.7c1.2,3.8,2.3,5.7,6.7,5.5
			c9.2-0.4,18.5-0.1,29.2-0.1c-20.3-55.5-51.3-103.9-81.8-152.6C57.1,204,56.6,204.2,56,204.4z"/>
		<path d="M394.2,355.9c-12.4-14.1-24.9-28.2-37.4-42.3c-4.6-5.2-10.2-6.5-17.6-4.8c1.6,2.5,2.7,4.6,4.1,6.4
			c7.3,9.5,15,18.6,21.8,28.4C372.5,354.3,382.4,357.7,394.2,355.9z"/>
		<path d="M348.7,356.3c-3.6-12-6.6-22.6-10-33.2c-0.5-1.5-2.4-3.5-3.8-3.5c-1.2-0.1-3.1,2-3.7,3.5c-4.1,9.5-4.7,19.4-2.7,29.4
			c0.3,1.5,2.5,3.5,3.9,3.7C337.2,356.6,342.1,356.3,348.7,356.3z"/>
	</g>
</g>
</svg>
