<?xml version="1.0" encoding="utf-8"?>
<!-- Generator: Adobe Illustrator 27.0.0, SVG Export Plug-In . SVG Version: 6.00 Build 0)  -->
<svg version="1.1" id="Layer_1" xmlns="http://www.w3.org/2000/svg" xmlns:xlink="http://www.w3.org/1999/xlink" x="0px" y="0px"
	 viewBox="0 0 400 400" style="enable-background:new 0 0 400 400;" xml:space="preserve">
<style type="text/css">
	.st0{fill:url(#SVGID_1_);}
	.st1{fill:#2C61AE;}
	.st2{fill:#5ACBF3;}
	.st3{fill:none;}
</style>
<g id="UA">
	<linearGradient id="SVGID_1_" gradientUnits="userSpaceOnUse" x1="199.9964" y1="374.491" x2="199.9964" y2="43.9231">
		<stop  offset="0" style="stop-color:#254CA1"/>
		<stop  offset="1" style="stop-color:#3070B8"/>
	</linearGradient>
	<path class="st0" d="M10.9,50.7l103.3,225.5l5.1,11.1l26.9,58.8h242.9L132.1,72C119.4,58.4,101.6,50.7,83,50.7H10.9z"/>
	<g>
		<path class="st1" d="M190.2,273.1c-1.2-1.5-2.3-3.1-3.3-4.7c-0.9,1.1-1.9,2.2-2.8,3.3c-4.5,5.3-8.3,10.6-11.7,15.9
			c1.7,2.6,3.6,5.2,5.8,7.8c3.5-6.7,7.3-13.7,11.5-21.3C189.8,273.8,190,273.5,190.2,273.1z"/>
		<path class="st2" d="M190.2,273.1c-0.2,0.3-0.4,0.7-0.6,1c-4.2,7.5-8,14.6-11.5,21.3c3.3,3.9,7.2,7.6,11.5,11.1
			c3.1-7.1,6.7-14.7,11.2-22.5C196.8,280.6,193.2,277,190.2,273.1z"/>
		<path class="st2" d="M208.6,251.5c-6.2,5.7-11.7,11.7-15.8,17.7c3,3.7,6.6,7.3,10.7,10.6c4.1-6.7,8.7-13.5,14.1-20.2
			C214.1,257,211.1,254.3,208.6,251.5z"/>
		<path class="st1" d="M220.3,256.1c2.2,1.6,4.6,3.1,7.1,4.6c5.3-7.9,11-15.2,16.5-21.6c-1.7-1-3.2-2.1-4.7-3.2
			C233.1,241.7,226.6,248.5,220.3,256.1z"/>
		<path class="st1" d="M246.8,235.8c8.4-9.5,15.9-16.7,19.9-20.3l-1.4-1.5c-5,3.6-13.4,10.1-23,18.9
			C243.7,234,245.2,234.9,246.8,235.8z"/>
		<path class="st2" d="M283.1,305.6l-0.5-28.2c-2.8,0-5.6,0-8.3-0.2l-2.4,28C275.6,305.5,279.4,305.6,283.1,305.6z"/>
		<path class="st1" d="M271.8,306.4l-0.2,2.7c3.8,0.2,7.6,0.3,11.6,0.3l0-2.7C279.3,306.8,275.5,306.7,271.8,306.4z"/>
		<path class="st2" d="M309.9,332.8c3.9-0.7,7.7-1.5,11.5-2.5c-1.5-8.5-3.2-16.6-4.9-24.3c-3.3,0.7-6.6,1.3-10.1,1.7
			C307.7,315.7,308.9,324.1,309.9,332.8z"/>
		<path class="st2" d="M271.6,309.2l-2.3,26.6c4.7,0.3,9.5,0.3,14.3,0.2l-0.4-26.4C279.2,309.5,275.4,309.4,271.6,309.2z"/>
		<path class="st1" d="M250.8,306.5c-1.3,8.3-2.8,18-4.1,26.2c7.3,1.6,14.9,2.6,22.6,3.1l2.3-26.6
			C264.4,308.7,257.4,307.8,250.8,306.5z"/>
		<path class="st1" d="M222.7,297.5c-3,8.1-5.7,16.6-8.1,24.4c5.4,2.5,11.1,4.8,17,6.7c1.8-7.7,3.9-16.7,6.1-25.4
			C232.5,301.6,227.4,299.7,222.7,297.5z"/>
		<path class="st1" d="M283.2,309.5l0.4,26.4c3.4-0.1,6.9-0.4,10.3-0.8c5.5-0.6,10.8-1.4,15.9-2.4c-1-8.6-2.2-17-3.5-25
			c-7,1-14.2,1.6-21.6,1.7C284.2,309.5,283.7,309.5,283.2,309.5z"/>
		<path class="st2" d="M237.8,303.2c-2.2,8.7-4.4,17.7-6.1,25.4c4.9,1.6,9.9,2.9,15.1,4c1.2-8.1,2.8-17.9,4.1-26.2
			C246.3,305.5,242,304.5,237.8,303.2z"/>
		<path class="st1" d="M351.5,320.2c-2.7-9.4-5.7-17.3-8-22.5c-8.2,3.5-17.3,6.3-27.1,8.3c1.7,7.7,3.4,15.8,4.9,24.3
			C332,327.7,342,324.3,351.5,320.2z"/>
		<path class="st1" d="M160.9,262.8c0-2.9,0.3-5.7,0.7-8.6c-0.4,0.4-0.8,0.8-1.2,1.2c-4.1,8.7-6.2,17.8-6.2,26.9c0,0.1,0,0.2,0,0.2
			c2.3-3.4,4.8-6.9,7.5-10.5C161.1,268.9,160.9,265.9,160.9,262.8z"/>
		<path class="st2" d="M161.7,272c0.4,2.4,1,4.7,1.8,7c0.6-0.8,1.2-1.6,1.7-2.4c-0.7-2.3-1.2-4.7-1.6-7.1
			C162.9,270.3,162.3,271.1,161.7,272z"/>
		<path class="st2" d="M165.2,276.6c-0.6,0.8-1.2,1.6-1.7,2.4c1.5,4.6,3.5,9,6.2,13.3c0.5-0.9,1-1.7,1.5-2.6
			C168.6,285.5,166.6,281.1,165.2,276.6z"/>
		<path class="st2" d="M163.1,264.7c-0.2-4.3,0.2-8.7,1.3-13c-0.9,0.9-1.9,1.7-2.8,2.6c-0.5,2.8-0.7,5.7-0.7,8.6
			c0,3.1,0.3,6.1,0.8,9.1c0.6-0.8,1.3-1.7,1.9-2.5C163.3,267.9,163.2,266.3,163.1,264.7z"/>
		<path class="st1" d="M171.1,289.7c1.7,2.8,3.6,5.5,5.8,8.1c0.4-0.8,0.8-1.6,1.2-2.4c-2.2-2.5-4.1-5.1-5.8-7.8
			C172,288.3,171.6,289,171.1,289.7z"/>
		<path class="st1" d="M178.2,295.4c-0.4,0.8-0.8,1.6-1.2,2.4c3.4,4,7.3,7.8,11.7,11.4c0.4-0.9,0.7-1.7,1.1-2.6
			C185.4,303,181.5,299.3,178.2,295.4z"/>
		<path class="st1" d="M189.7,306.5c-0.4,0.9-0.7,1.7-1.1,2.6c3.6,2.9,7.5,5.6,11.7,8.1c0.3-0.8,0.6-1.7,0.9-2.6
			C197.1,312.1,193.2,309.4,189.7,306.5z"/>
		<path class="st1" d="M201.2,314.7c-0.3,0.9-0.6,1.7-0.9,2.6c4.3,2.6,8.8,4.9,13.6,7c0.2-0.8,0.5-1.6,0.7-2.3
			C209.9,319.7,205.4,317.3,201.2,314.7z"/>
		<path class="st1" d="M214.6,321.9c-0.2,0.8-0.5,1.6-0.7,2.3c5.4,2.4,11.2,4.5,17.3,6.3c0.1-0.7,0.3-1.3,0.5-2
			C225.7,326.7,220,324.4,214.6,321.9z"/>
		<path class="st1" d="M231.6,328.6c-0.2,0.7-0.3,1.3-0.5,2c4.9,1.5,10,2.7,15.3,3.7c0.1-0.5,0.2-1.1,0.3-1.7
			C241.6,331.5,236.5,330.2,231.6,328.6z"/>
		<path class="st1" d="M309.9,332.8c0.1,0.6,0.1,1.2,0.2,1.8c3.9-0.7,7.8-1.6,11.6-2.5c-0.1-0.6-0.2-1.2-0.3-1.7
			C317.6,331.2,313.8,332,309.9,332.8z"/>
		<path class="st1" d="M293.9,335.1c-3.4,0.4-6.9,0.6-10.3,0.8l0,1.5c8.9-0.2,17.7-1.2,26.4-2.8c-0.1-0.6-0.1-1.2-0.2-1.8
			C304.7,333.7,299.4,334.5,293.9,335.1z"/>
		<path class="st1" d="M321.6,332c10.6-2.7,20.8-6.2,30.2-10.4c-0.1-0.5-0.3-0.9-0.4-1.4c-9.5,4.1-19.5,7.5-30.1,10.1
			C321.4,330.9,321.5,331.5,321.6,332z"/>
		<path class="st1" d="M246.7,332.6c-0.1,0.6-0.2,1.1-0.3,1.7c7.3,1.4,14.9,2.4,22.7,2.8l0.1-1.4C261.6,335.2,254,334.2,246.7,332.6
			z"/>
		<path class="st1" d="M269.3,335.7l-0.1,1.4c4.2,0.2,8.6,0.3,12.9,0.3c0.5,0,1,0,1.5,0l0-1.5C278.8,336.1,274,336,269.3,335.7z"/>
		<path class="st2" d="M199.2,320.4c-2.7,8-4.6,14.8-5.9,19.8c3.5,2.1,7.2,4.1,11.1,5.9h3.3c1.3-4.7,3-11.2,5.2-18.6
			C208.1,325.3,203.5,323,199.2,320.4z"/>
		<path class="st1" d="M212.9,327.5c-2.2,7.3-3.9,13.8-5.2,18.6h20c0.6-2.8,1.5-7.1,2.7-12.2C224.3,332.1,218.4,329.9,212.9,327.5z"
			/>
		<path class="st2" d="M230.4,333.9c-1.2,5.1-2.1,9.4-2.7,12.2h16.9c0.3-2.1,0.8-5,1.3-8.5C240.6,336.6,235.4,335.3,230.4,333.9z"/>
		<path class="st1" d="M245.9,337.6c-0.5,3.5-1,6.4-1.3,8.5h23.8l0.5-5.8C261,339.9,253.3,338.9,245.9,337.6z"/>
		<path class="st1" d="M283.7,340.4l0.1,5.6h27.4c-0.2-2.7-0.5-5.5-0.7-8.2C301.8,339.3,292.9,340.2,283.7,340.4z"/>
		<path class="st1" d="M322.2,335.5c0.6,3.5,1.1,7,1.6,10.5h32.7c-0.7-7.3-2.1-14.4-3.8-21C343.5,329.4,333.3,332.9,322.2,335.5z"/>
		<path class="st2" d="M351.5,320.2c2-0.9,4-1.8,6-2.7c-1.3-3.2-2.5-6.3-3.7-9.1l-10.1-10.8c-0.1,0-0.1,0-0.2,0.1
			C345.7,302.9,348.8,310.9,351.5,320.2z"/>
		<path class="st2" d="M281.9,340.5c-4.4,0.1-8.7,0-12.9-0.2l-0.5,5.8h15.3l-0.1-5.6C283.1,340.4,282.5,340.5,281.9,340.5z"/>
		<path class="st3" d="M191.5,346.1c0.1,0.1,0.3,0.2,0.4,0.2c0-0.1,0-0.2,0.1-0.2H191.5z"/>
		<path class="st3" d="M343.3,297.2c-0.3-0.7-0.5-1.3-0.8-1.8c-0.2,0.1-0.4,0.2-0.7,0.3L343.3,297.2z"/>
		<path class="st2" d="M239.4,186.1c-0.1,0-0.2,0-0.3,0.1l0.1,0.1C239.3,186.2,239.4,186.1,239.4,186.1z"/>
		<path class="st3" d="M342.5,295.4c-0.1-0.1-0.1-0.3-0.2-0.4c-0.3,0.1-0.6,0.2-0.9,0.3l0.4,0.4
			C342.1,295.6,342.3,295.5,342.5,295.4z"/>
		<path class="st2" d="M210.6,205.3c5.6-2.3,11.4-4.2,17.5-5.8c0.3-0.6,0.6-1.2,0.9-1.8c-4.8,0-9.2,0.2-12.2,0.6
			C214.5,200.6,212.4,202.9,210.6,205.3z"/>
		<path class="st2" d="M209.3,207.1c3-0.9,5.9-1.7,8.8-2.4c3-1.2,6.1-2.3,9.2-3.3c0.3-0.6,0.5-1.3,0.8-1.9c-6.1,1.6-12,3.5-17.5,5.8
			C210.1,205.9,209.7,206.5,209.3,207.1z"/>
		<path class="st2" d="M207.8,206.5c0.9-0.4,1.9-0.8,2.8-1.2c1.8-2.4,3.9-4.7,6.3-7c-0.1,0-0.2,0-0.3,0c-0.4,0.1-0.8,0.1-1.3,0.2
			c-0.4,0.2-0.8,0.4-1.2,0.6C211.7,201.5,209.6,204,207.8,206.5z"/>
		<path class="st2" d="M216.8,198.3c0.3-0.3,0.6-0.6,0.9-0.9c-0.8,0.4-1.7,0.8-2.5,1.1c0.4-0.1,0.9-0.2,1.3-0.2
			C216.6,198.4,216.7,198.4,216.8,198.3z"/>
		<path class="st2" d="M202.5,227.6c0,1.9,0.2,3.7,0.6,5.5c8.6-5.4,16.6-9.8,23.9-13.3c-0.7-1.8-1.1-3.7-1.3-5.7
			c-7.6,2.5-15.6,5.6-22.9,9.2C202.6,224.8,202.5,226.2,202.5,227.6z"/>
		<path class="st1" d="M203.6,219.5c-0.3,1.3-0.6,2.6-0.8,3.8c7.2-3.6,15.2-6.6,22.9-9.2c-0.1-1-0.2-2-0.2-3
			c-4.2,1.3-8.7,2.7-13.4,4.5C209.3,216.7,206.5,218,203.6,219.5z"/>
		<path class="st1" d="M208,209.2c-0.1,0.2-0.2,0.4-0.3,0.6c2.9-1.1,5.7-1.9,8.2-2.5c1.2-0.3,2.4-0.5,3.7-0.8
			c2.2-0.8,4.5-1.5,6.9-2.2c0.1-0.4,0.2-0.9,0.4-1.3c-2.8,0.5-5.7,1-8.7,1.7C214.6,206.1,211.2,207.6,208,209.2z"/>
		<path class="st2" d="M206.5,211.8c-1.3,2.5-2.3,5.1-3,7.7c2.9-1.5,5.8-2.8,8.5-3.8c4.7-1.8,9.2-3.2,13.4-4.5c0-0.1,0-0.1,0-0.2
			c0-1.9,0.2-3.7,0.6-5.5c-2.3,0.3-4.5,0.6-6.6,1C214.9,208.1,210.6,209.8,206.5,211.8z"/>
		<path class="st1" d="M226.7,203.1c0.2-0.5,0.4-1.1,0.6-1.6c-3.1,1-6.2,2.1-9.2,3.3C221,204.1,223.9,203.5,226.7,203.1z"/>
		<path class="st1" d="M226,205.5c0.1-0.4,0.2-0.8,0.3-1.1c-2.3,0.7-4.6,1.4-6.9,2.2C221.5,206.1,223.8,205.8,226,205.5z"/>
		<path class="st2" d="M197.5,208.9c3.7-2.7,7.8-5.2,12.1-7.5c0.6-0.7,1.3-1.5,2-2.2c-0.1,0-0.3,0.1-0.4,0.1
			c-3.8,2.1-7.5,4.3-10.9,6.7C199.3,207,198.4,208,197.5,208.9z"/>
		<path class="st2" d="M197.5,208.9c0.9-1,1.8-1.9,2.8-2.9c-1.1,0.7-2.1,1.5-3.2,2.2c-0.9,1-1.8,1.9-2.6,2.9
			C195.5,210.4,196.5,209.7,197.5,208.9z"/>
		<path class="st2" d="M215.3,198.6c-0.2,0-0.5,0.1-0.7,0.1c-0.1,0.1-0.3,0.3-0.4,0.4C214.5,199,214.9,198.8,215.3,198.6z"/>
		<path class="st2" d="M211.3,199.4c-1.4,0.3-2.8,0.6-4.3,0.8c-2.4,1.9-4.6,3.8-6.6,5.8C203.8,203.7,207.4,201.5,211.3,199.4z"/>
		<path class="st1" d="M194.5,211.2c0.8-1,1.7-1.9,2.6-2.9c-3.1,2.3-6.1,4.6-8.8,7.1c0.7-0.3,1.5-0.7,2.3-1.1
			C191.9,213.2,193.2,212.2,194.5,211.2z"/>
		<path class="st1" d="M188.3,215.4C188.3,215.4,188.2,215.4,188.3,215.4c-0.6,0.9-1.1,1.7-1.6,2.5c1.3-1.2,2.6-2.4,4-3.6
			C189.8,214.7,189,215,188.3,215.4z"/>
		<path class="st2" d="M207,200.2c-0.4,0.1-0.9,0.2-1.3,0.3c-3.1,2.5-5.9,5.1-8.5,7.8c1-0.8,2.1-1.5,3.2-2.2
			C202.4,204,204.6,202.1,207,200.2z"/>
		<path class="st2" d="M214.6,198.7c0.9-0.9,1.8-1.7,2.8-2.5c-1.9,0.9-3.7,1.8-5.4,2.8c-0.1,0.1-0.2,0.2-0.3,0.3
			C212.7,199.1,213.6,198.9,214.6,198.7z"/>
		<path class="st2" d="M209.6,201.5c1.5-0.8,3-1.6,4.5-2.3c0.1-0.1,0.3-0.3,0.4-0.4c-0.9,0.2-1.9,0.4-2.9,0.5
			C210.9,200,210.3,200.7,209.6,201.5z"/>
		<path class="st2" d="M211.9,199c-0.2,0.1-0.5,0.2-0.7,0.4c0.1,0,0.3-0.1,0.4-0.1C211.7,199.2,211.8,199.1,211.9,199z"/>
		<path class="st2" d="M208.8,245c7.6-7.2,14.7-12.8,22.2-17.6c-1.3-1.8-2.4-3.7-3.3-5.7c-7.6,3.8-15.8,8.5-23.8,14.2
			C205,239.1,206.6,242.1,208.8,245z"/>
		<path class="st1" d="M248.3,269.2c3.1-7.8,6.9-16.1,10.6-23.8c-2.6-0.8-5.2-1.7-7.6-2.7c-4.7,7.1-9.7,14.9-14.1,22.6
			C240.8,266.9,244.5,268.1,248.3,269.2z"/>
		<path class="st1" d="M191.6,271c-0.5,0.7-0.9,1.5-1.3,2.2c3,3.9,6.6,7.5,10.7,10.9c0.4-0.8,0.9-1.5,1.3-2.3
			C198.2,278.4,194.6,274.8,191.6,271z"/>
		<path class="st1" d="M211.8,248.6c7.1-6.3,14.9-12.3,22.3-17.5c-1.1-1.2-2.1-2.4-3-3.7c-7.5,4.8-14.6,10.4-22.2,17.6
			C209.7,246.3,210.7,247.4,211.8,248.6z"/>
		<path class="st1" d="M202.2,281.7c-0.5,0.8-0.9,1.5-1.3,2.3c3,2.5,6.3,4.9,9.9,7.1c0.4-0.8,0.8-1.7,1.2-2.5
			C208.5,286.5,205.2,284.2,202.2,281.7z"/>
		<path class="st1" d="M211.9,288.6c-0.4,0.8-0.8,1.7-1.2,2.5c3.7,2.3,7.7,4.5,12,6.4c0.3-0.9,0.7-1.8,1-2.7
			C219.5,292.9,215.6,290.8,211.9,288.6z"/>
		<path class="st1" d="M238.5,300.4c-0.2,0.9-0.5,1.9-0.7,2.8c4.2,1.3,8.5,2.4,13,3.3c0.2-1,0.3-1.9,0.4-2.8
			C246.8,302.7,242.6,301.6,238.5,300.4z"/>
		<path class="st1" d="M251.2,303.6c-0.1,0.9-0.3,1.9-0.4,2.8c6.6,1.3,13.6,2.3,20.9,2.7l0.2-2.7C264.7,306,257.8,305,251.2,303.6z"
			/>
		<path class="st1" d="M165.2,276.6c1.4,4.5,3.4,8.9,5.9,13.1c0.4-0.7,0.8-1.4,1.3-2.1c-2.6-4.2-4.6-8.4-5.9-12.8
			C166,275.4,165.6,276,165.2,276.6z"/>
		<path class="st1" d="M188.5,266.6c-0.5,0.6-1,1.2-1.6,1.8c1,1.6,2.1,3.2,3.3,4.7c0.4-0.7,0.9-1.4,1.3-2.2
			C190.4,269.5,189.4,268.1,188.5,266.6z"/>
		<path class="st1" d="M165,267.6c-0.5,0.6-1,1.2-1.5,1.9c0.4,2.4,0.9,4.8,1.6,7.1c0.4-0.6,0.9-1.2,1.3-1.8
			C165.8,272.4,165.3,270,165,267.6z"/>
		<path class="st2" d="M179.6,258.3c-4.9,5.9-9.3,11.4-13.1,16.5c1.3,4.4,3.3,8.7,5.9,12.8c3.3-5.3,7.2-10.6,11.7-15.9
			c1-1.1,1.9-2.2,2.8-3.3c-2.5-3.9-4.4-7.9-5.7-12C180.7,257,180.1,257.6,179.6,258.3z"/>
		<path class="st1" d="M182.8,254.5c-0.5,0.6-1.1,1.2-1.6,1.8c1.3,4.1,3.2,8.2,5.7,12c0.5-0.6,1-1.2,1.6-1.8
			C186,262.7,184.1,258.7,182.8,254.5z"/>
		<path class="st1" d="M223.7,294.8c-0.3,0.9-0.7,1.8-1,2.7c4.7,2.2,9.8,4.1,15.1,5.7c0.2-0.9,0.5-1.9,0.7-2.8
			C233.3,298.8,228.4,296.9,223.7,294.8z"/>
		<path class="st2" d="M258.1,271.5c2.3-8.3,4.8-16.8,7.2-24.6c-2.2-0.4-4.3-0.9-6.4-1.5c-3.7,7.6-7.5,16-10.6,23.8
			C251.5,270.1,254.8,270.9,258.1,271.5z"/>
		<path class="st2" d="M271.9,305.3l-0.1,1.2c3.7,0.3,7.5,0.4,11.3,0.4l0-1.2C279.4,305.6,275.6,305.5,271.9,305.3z"/>
		<path class="st1" d="M191.3,215.1c0.4-0.6,0.8-1.1,1.3-1.7c-0.7,0.3-1.4,0.6-2,0.9c-1.4,1.2-2.7,2.4-4,3.6
			c-0.1,0.2-0.2,0.3-0.3,0.5C188,217.3,189.6,216.2,191.3,215.1z"/>
		<path class="st2" d="M220.3,256.1c6.3-7.6,12.8-14.4,19-20.3c-1.9-1.5-3.6-3-5.2-4.7c-7.4,5.2-15.2,11.2-22.3,17.5
			C214.2,251.3,217,253.8,220.3,256.1z"/>
		<path class="st2" d="M237.3,265.4c4.4-7.7,9.3-15.6,14.1-22.6c-2.6-1.1-5.1-2.4-7.4-3.8c-5.5,6.4-11.3,13.8-16.5,21.6
			C230.5,262.4,233.8,264,237.3,265.4z"/>
		<path class="st1" d="M252.4,296.3c-0.3,1.7-0.6,3.7-0.9,5.8c6.6,1.5,13.5,2.6,20.5,3.1l2.4-28c-6-0.3-11.8-1-17.2-1.9
			C255,283.1,253.3,290.5,252.4,296.3z"/>
		<path class="st1" d="M274.7,273.5l2.2-25.2c-4-0.1-7.8-0.6-11.5-1.3c-2.4,7.7-5,16.3-7.2,24.6C263.5,272.6,269,273.2,274.7,273.5z
			"/>
		<path class="st1" d="M257.1,275.3c5.5,1,11.2,1.6,17.2,1.9l0.2-2.5c-5.8-0.4-11.4-1.1-16.8-2.1
			C257.6,273.5,257.4,274.4,257.1,275.3z"/>
		<path class="st2" d="M257.8,272.6c5.3,1,10.9,1.7,16.8,2.1l0.1-1.3c-5.7-0.3-11.2-0.9-16.6-1.9C258,271.9,257.9,272.3,257.8,272.6
			z"/>
		<path class="st1" d="M203.9,236c8-5.7,16.2-10.4,23.8-14.2c-0.3-0.6-0.5-1.3-0.7-1.9c-7.3,3.5-15.3,7.9-23.9,13.3
			C203.3,234.1,203.6,235,203.9,236z"/>
		<path class="st1" d="M259,245.4c0.5-1,0.9-1.9,1.4-2.9c-2.5-0.7-5-1.5-7.3-2.4c-0.6,0.8-1.1,1.7-1.7,2.6
			C253.8,243.8,256.3,244.7,259,245.4z"/>
		<path class="st2" d="M265.4,247c0.3-1,0.6-2,0.9-3c-2-0.4-4-0.8-6-1.4c-0.5,0.9-0.9,1.9-1.4,2.9C261,246,263.2,246.5,265.4,247z"
			/>
		<path class="st1" d="M276.9,248.2l0.3-3c-3.7-0.2-7.3-0.7-10.8-1.3c-0.3,1-0.6,2-0.9,3C269.1,247.7,272.9,248.1,276.9,248.2z"/>
		<path class="st2" d="M251.4,242.8c0.6-0.9,1.1-1.7,1.7-2.6c-2.6-1-5-2.1-7.2-3.4c-0.6,0.7-1.3,1.4-1.9,2.2
			C246.3,240.4,248.7,241.7,251.4,242.8z"/>
		<path class="st1" d="M244,239c0.6-0.7,1.3-1.5,1.9-2.2c-1.6-0.9-3.2-1.9-4.6-2.9c-0.7,0.6-1.3,1.2-2,1.9
			C240.7,237,242.3,238,244,239z"/>
		<path class="st2" d="M279.9,248.3c0.8,0,1.5,0,2.3,0l0-2.8c-1.7,0-3.4-0.1-5-0.2l-0.3,3C277.9,248.3,278.9,248.3,279.9,248.3z"/>
		<path class="st1" d="M274.4,277.2c2.7,0.1,5.5,0.2,8.3,0.2l0-2.3c-2.7,0-5.4-0.1-8-0.3L274.4,277.2z"/>
		<path class="st2" d="M231.6,197.7c0.4-0.7,0.9-1.4,1.3-2.2c-0.8,0-1.7-0.1-2.5-0.1c-0.5,0.7-1,1.5-1.4,2.3
			C229.9,197.7,230.8,197.7,231.6,197.7z"/>
		<path class="st1" d="M284.5,277.4c5.4-0.1,10.7-0.5,15.8-1.1c-0.2-0.8-0.3-1.6-0.5-2.3c-4.8,0.7-9.7,1.1-14.8,1.1
			c-0.8,0-1.6,0-2.4,0l0,2.3C283.3,277.4,283.9,277.4,284.5,277.4z"/>
		<path class="st2" d="M239.2,235.8c0.7-0.6,1.3-1.3,2-1.9c-1.9-1.3-3.6-2.8-5.1-4.3c-0.7,0.5-1.4,1-2.1,1.4
			C235.6,232.8,237.3,234.4,239.2,235.8z"/>
		<path class="st2" d="M276.9,248.2l-2.2,25.2c2.6,0.1,5.3,0.1,7.9,0.1l-0.4-25.3c-0.8,0-1.5,0-2.3,0
			C278.9,248.3,277.9,248.3,276.9,248.2z"/>
		<path class="st2" d="M274.7,273.5l-0.1,1.3c2.6,0.2,5.3,0.3,8,0.3l0-1.5C279.9,273.6,277.3,273.6,274.7,273.5z"/>
		<path class="st2" d="M226.7,203.1c0.9-0.1,1.8-0.3,2.7-0.4c0.3-0.7,0.5-1.4,0.9-2.1c-1,0.3-2,0.6-3,0.9
			C227.1,202,226.9,202.5,226.7,203.1z"/>
		<path class="st2" d="M283.1,305.6l0,1.2c0.6,0,1.2,0,1.9,0c7-0.1,14-0.7,21-1.7c-0.1-0.5-0.2-1.1-0.3-1.6c-3.4,0.5-6.9,1-10.4,1.4
			C291.2,305.3,287.2,305.5,283.1,305.6z"/>
		<path class="st1" d="M226.3,204.3c0.9-0.3,1.8-0.5,2.7-0.8c0.1-0.3,0.2-0.6,0.3-0.9c-0.9,0.1-1.8,0.3-2.7,0.4
			C226.6,203.5,226.4,203.9,226.3,204.3z"/>
		<path class="st2" d="M227.3,201.4c1-0.3,2-0.6,3-0.9c0.3-0.6,0.5-1.2,0.8-1.7c-1,0.2-2,0.5-3,0.7
			C227.8,200.1,227.5,200.8,227.3,201.4z"/>
		<path class="st2" d="M229,197.7c-0.3,0.6-0.6,1.2-0.9,1.8c1-0.3,2-0.5,3-0.7c0.2-0.4,0.4-0.7,0.6-1.1
			C230.8,197.7,229.9,197.7,229,197.7z"/>
		<path class="st1" d="M226,205.5c0.9-0.1,1.7-0.2,2.6-0.3c0.1-0.5,0.3-1.1,0.4-1.6c-0.9,0.2-1.8,0.5-2.7,0.8
			C226.2,204.7,226.1,205.1,226,205.5z"/>
		<path class="st1" d="M227.7,221.7c0.7-0.4,1.4-0.7,2.1-1c-0.3-0.6-0.5-1.2-0.7-1.9c-0.7,0.3-1.4,0.7-2.1,1
			C227.2,220.5,227.5,221.1,227.7,221.7z"/>
		<path class="st2" d="M225.4,211c0,0.1,0,0.1,0,0.2c0.8-0.2,1.6-0.5,2.4-0.7c0.1-1.8,0.3-3.6,0.7-5.3c-0.9,0.1-1.7,0.2-2.6,0.3
			C225.7,207.3,225.4,209.1,225.4,211z"/>
		<path class="st2" d="M231,227.5c0.7-0.4,1.4-0.9,2-1.3c-1.3-1.7-2.4-3.6-3.2-5.5c-0.7,0.3-1.4,0.7-2.1,1
			C228.6,223.7,229.7,225.6,231,227.5z"/>
		<path class="st1" d="M234,231.1c0.7-0.5,1.4-1,2.1-1.4c-1.1-1.1-2.1-2.3-3.1-3.5c-0.7,0.4-1.4,0.8-2,1.3
			C231.9,228.7,232.9,229.9,234,231.1z"/>
		<path class="st1" d="M225.7,214.2c0.8-0.3,1.5-0.5,2.3-0.8c-0.1-0.7-0.1-1.4-0.1-2.1c0-0.3,0-0.5,0-0.8c-0.8,0.2-1.6,0.5-2.4,0.7
			C225.5,212.2,225.5,213.2,225.7,214.2z"/>
		<path class="st2" d="M227,219.9c0.7-0.3,1.4-0.7,2.1-1c-0.6-1.7-1-3.5-1.2-5.4c-0.8,0.2-1.5,0.5-2.3,0.8
			C225.9,216.1,226.3,218,227,219.9z"/>
		<path class="st2" d="M166.8,244.2c-1.2,1-2.4,1.9-3.5,2.8c-0.5,1.7-1,3.5-1.3,5.2c1.4-2.6,3-5.2,4.7-7.7
			C166.7,244.4,166.7,244.3,166.8,244.2z"/>
		<path class="st1" d="M162,252.2c-0.6,1-1.1,2.1-1.6,3.2c0.4-0.4,0.8-0.8,1.2-1.2C161.7,253.6,161.8,252.9,162,252.2z"/>
		<path class="st2" d="M164.4,251.7c0.6-2.4,1.3-4.8,2.3-7.1c-1.7,2.5-3.3,5.1-4.7,7.7c-0.1,0.7-0.3,1.3-0.4,2
			C162.5,253.4,163.4,252.5,164.4,251.7z"/>
		<path class="st1" d="M161.7,272c-2.7,3.6-5.2,7.1-7.5,10.5c0,3,0.3,6,0.9,9c2.4-3.9,5.2-8.1,8.4-12.5
			C162.7,276.7,162.1,274.3,161.7,272z"/>
		<path class="st2" d="M155,291.5c1.1,6,3.3,11.8,6.4,17.4c2.2-5.3,4.9-10.9,8.2-16.7c-2.6-4.3-4.7-8.7-6.2-13.3
			C160.3,283.4,157.5,287.6,155,291.5z"/>
		<path class="st2" d="M183,225c0.8-1.9,1.7-3.7,2.7-5.6c-0.5,0.2-0.9,0.5-1.4,0.7c-3.9,4-7.2,8.2-10,12.6
			C177,230.1,179.9,227.5,183,225z"/>
		<path class="st1" d="M167,244c-0.1,0.1-0.2,0.1-0.2,0.2c0,0.1-0.1,0.2-0.1,0.3C166.8,244.4,166.9,244.2,167,244z"/>
		<path class="st1" d="M186.3,218.4c-0.3,0.2-0.5,0.4-0.8,0.5c-0.4,0.4-0.8,0.8-1.2,1.2c0.5-0.2,0.9-0.5,1.4-0.7
			C185.9,219.1,186.1,218.8,186.3,218.4z"/>
		<path class="st1" d="M182,227.6c0.3-0.9,0.7-1.7,1-2.6c-3.1,2.5-6,5.1-8.6,7.7c-1.3,2.1-2.5,4.2-3.6,6.3
			C174,235.1,177.8,231.2,182,227.6z"/>
		<path class="st1" d="M170.8,239.1c1.1-2.1,2.3-4.3,3.6-6.3c-1.4,1.4-2.7,2.7-4,4.1c-1.4,2.4-2.6,4.9-3.6,7.3
			c0.1-0.1,0.2-0.1,0.2-0.2C168.2,242.3,169.4,240.7,170.8,239.1z"/>
		<path class="st2" d="M169.6,292.2c1.7,2.8,3.7,5.6,5.9,8.2c0.5-0.9,0.9-1.8,1.4-2.7c-2.2-2.6-4.1-5.3-5.8-8.1
			C170.6,290.5,170.1,291.4,169.6,292.2z"/>
		<path class="st1" d="M283.1,306.8l0,2.7c0.5,0,1.1,0,1.6,0c7.4-0.1,14.6-0.7,21.6-1.7c-0.1-0.9-0.3-1.8-0.4-2.6
			c-6.9,1-14,1.6-21,1.7C284.4,306.8,283.8,306.8,283.1,306.8z"/>
		<path class="st1" d="M186.7,217.9c-0.4,0.4-0.7,0.7-1.1,1.1c0.3-0.2,0.5-0.4,0.8-0.5C186.4,218.2,186.5,218.1,186.7,217.9z"/>
		<path class="st2" d="M210.8,291.1c-3.8,8.3-7,16.3-9.6,23.5c4.2,2.6,8.7,5,13.4,7.2c2.4-7.8,5.1-16.3,8.1-24.4
			C218.5,295.6,214.5,293.4,210.8,291.1z"/>
		<path class="st1" d="M200.9,284c-4.5,7.8-8.2,15.4-11.2,22.5c3.5,2.9,7.4,5.6,11.5,8.1c2.6-7.2,5.7-15.2,9.6-23.5
			C207.2,288.9,203.9,286.5,200.9,284z"/>
		<path class="st1" d="M282.7,277.4l0.5,28.2c4.1,0,8.1-0.3,12.2-0.7c3.5-0.4,7-0.8,10.4-1.4c-1.7-9.9-3.6-19-5.4-27.2
			c-5.1,0.6-10.4,1-15.8,1.1C283.9,277.4,283.3,277.4,282.7,277.4z"/>
		<path class="st1" d="M225.1,264.3c-2.7-1.5-5.2-3.1-7.5-4.8c-5.3,6.7-10,13.5-14.1,20.2c2.9,2.4,6.1,4.6,9.5,6.8
			c2.4-5,5-10.1,7.9-15.2C222.2,268.9,223.6,266.6,225.1,264.3z"/>
		<path class="st1" d="M232.8,273.8c-2.9,5.6-5.7,12.1-8.3,19.1c4.6,2.2,9.5,4.1,14.5,5.8c1.9-7.2,3.9-14,5.7-19.7
			c0.6-1.9,1.4-3.9,2.1-6c-4.1-1.1-8-2.4-11.6-3.9C234.4,270.7,233.6,272.2,232.8,273.8z"/>
		<path class="st2" d="M235.2,269.1c-3.6-1.4-7-3.1-10.2-4.8c-1.5,2.3-2.9,4.7-4.2,7c-2.9,5.1-5.5,10.2-7.9,15.2
			c3.6,2.3,7.5,4.4,11.5,6.3c2.7-6.9,5.5-13.5,8.3-19.1C233.6,272.2,234.4,270.7,235.2,269.1z"/>
		<path class="st1" d="M246.8,273c0.3-0.9,0.7-1.7,1-2.6c-3.9-1.1-7.7-2.4-11.2-3.8c-0.5,0.9-1,1.7-1.4,2.6
			C238.9,270.6,242.8,271.9,246.8,273z"/>
		<path class="st1" d="M225.1,264.3c0.5-0.8,1.1-1.7,1.6-2.5c-2.6-1.4-5-3-7.3-4.6c-0.6,0.8-1.3,1.6-1.9,2.3
			C219.8,261.2,222.4,262.8,225.1,264.3z"/>
		<path class="st1" d="M235.2,269.1c0.5-0.9,0.9-1.7,1.4-2.6c-3.6-1.4-6.9-3-10-4.7c-0.5,0.8-1.1,1.7-1.6,2.5
			C228.2,266,231.6,267.7,235.2,269.1z"/>
		<path class="st1" d="M200.6,238.4c-0.4-1-0.7-2-1-3.1c-1.2,0.8-2.4,1.6-3.6,2.4c-4.5,3-8.9,6.6-13.1,10.4c0.2,1.7,0.6,3.4,1.1,5.1
			C189.2,247.7,194.8,242.8,200.6,238.4z"/>
		<path class="st1" d="M217.5,259.5c0.6-0.8,1.2-1.6,1.9-2.3c-3.3-2.4-6.1-5-8.6-7.7c-0.7,0.7-1.5,1.3-2.2,2
			C211.1,254.3,214.1,257,217.5,259.5z"/>
		<path class="st2" d="M199.6,235.4c-0.7-2.6-1-5.2-1-7.9c0-0.7,0-1.3,0.1-2c-3.5,1.9-6.7,3.9-9.6,6.1c-2,1.5-3.9,3-5.8,4.4
			c-0.5,2.5-0.7,5.1-0.7,7.6c0,1.5,0.1,3,0.3,4.5c4.2-3.8,8.5-7.4,13.1-10.4C197.2,236.9,198.4,236.1,199.6,235.4z"/>
		<path class="st2" d="M205.7,248c-2.2-3-4-6.2-5.2-9.5c-5.8,4.4-11.4,9.3-16.6,14.8c1.2,4,3.2,8,5.7,11.8
			C195.5,258.5,200.8,252.9,205.7,248z"/>
		<path class="st1" d="M208.6,251.5c-1-1.1-2-2.3-2.8-3.5c-5,4.9-10.2,10.5-16,17.1c0.9,1.4,1.9,2.7,3,4.1
			C196.9,263.2,202.4,257.2,208.6,251.5z"/>
		<path class="st1" d="M204.7,210.9c0.1-0.1,0.3-0.1,0.4-0.2c0.5-0.9,1.1-1.8,1.6-2.7c-0.9,0.3-1.7,0.6-2.6,0.9
			c-0.6,0.9-1.1,1.9-1.6,2.8C203.3,211.4,204,211.1,204.7,210.9z"/>
		<path class="st1" d="M205.1,210.7C205.1,210.7,205.1,210.7,205.1,210.7c-0.1,0-0.2,0.1-0.3,0.1C204.9,210.8,205,210.8,205.1,210.7
			z"/>
		<path class="st2" d="M183.3,236c-0.6,0.5-1.2,1-1.9,1.4c-0.4,2.4-0.5,4.8-0.4,7.3c0.1,1.6,0.3,3.1,0.5,4.6
			c0.4-0.4,0.9-0.8,1.3-1.2c-0.2-1.5-0.3-3-0.3-4.5C182.6,241.1,182.8,238.5,183.3,236z"/>
		<path class="st1" d="M202.4,212.1c0.1-0.1,0.1-0.3,0.2-0.4c-3.7,1.5-7.4,3.1-11.1,4.9c-0.8,1.2-1.6,2.5-2.3,3.8
			C193.3,217.5,197.7,214.7,202.4,212.1z"/>
		<path class="st1" d="M202.4,212.1c-0.4,0.8-0.7,1.5-1,2.3c0.8-0.5,1.7-0.9,2.5-1.3c0.4-0.8,0.8-1.6,1.2-2.4
			c-0.1,0-0.2,0.1-0.3,0.1C203.9,211.3,203.2,211.7,202.4,212.1z"/>
		<path class="st2" d="M204.2,208.9c0.2-0.3,0.4-0.7,0.6-1c-2.2,1-4.3,2.1-6.4,3.2c1.5-0.6,3-1.2,4.7-1.8
			C203.4,209.1,203.8,209,204.2,208.9z"/>
		<path class="st1" d="M205.7,248c0.7-0.7,1.4-1.4,2.1-2.1c-2.1-2.9-3.8-6-5-9.2c-0.8,0.6-1.5,1.1-2.3,1.7
			C201.8,241.7,203.5,244.9,205.7,248z"/>
		<path class="st1" d="M200.6,238.4c0.8-0.6,1.5-1.2,2.3-1.7c-0.3-0.9-0.6-1.9-0.9-2.9c-0.8,0.5-1.6,1-2.4,1.5
			C199.9,236.4,200.2,237.4,200.6,238.4z"/>
		<path class="st1" d="M208.6,251.5c0.7-0.7,1.5-1.3,2.2-2c-1-1.2-2-2.4-2.9-3.6c-0.7,0.7-1.4,1.4-2.1,2.1
			C206.6,249.2,207.6,250.3,208.6,251.5z"/>
		<path class="st1" d="M198.6,227.5c0,2.7,0.4,5.3,1,7.9c0.8-0.5,1.6-1,2.4-1.5c-0.6-2.1-1-4.3-1.1-6.5c-0.1-1-0.1-2,0-3
			c-0.8,0.4-1.5,0.8-2.2,1.2C198.6,226.2,198.6,226.8,198.6,227.5z"/>
		<path class="st1" d="M199.1,221.9c0.8-0.4,1.5-0.8,2.3-1.2c0.5-2.5,1.3-5.1,2.5-7.6c-0.9,0.4-1.7,0.9-2.5,1.3
			C200.3,216.9,199.6,219.4,199.1,221.9z"/>
		<path class="st1" d="M198.7,225.5c0.7-0.4,1.5-0.8,2.2-1.2c0.1-1.2,0.2-2.4,0.5-3.7c-0.8,0.4-1.5,0.8-2.3,1.2
			C198.9,223.1,198.7,224.3,198.7,225.5z"/>
		<path class="st1" d="M204.2,208.9c-0.4,0.1-0.7,0.3-1.1,0.4c-1.7,0.6-3.2,1.2-4.7,1.8c-1.7,0.9-3.3,1.8-4.9,2.8
			c-0.7,0.9-1.4,1.9-2,2.8c3.7-1.8,7.5-3.4,11.1-4.9C203.1,210.8,203.6,209.8,204.2,208.9z"/>
		<path class="st1" d="M149,269.9c-0.6,1.7-1.2,3.4-1.7,5.1c-0.7,7-0.9,13.5-0.7,19.4c0.4-0.6,0.8-1.3,1.2-1.9
			C147.5,285.7,147.9,278.2,149,269.9z"/>
		<path class="st2" d="M212.5,195.4c-1,0.7-1.9,1.3-2.9,2c1.4-0.7,2.8-1.4,4.2-2.1C213.4,195.3,212.9,195.3,212.5,195.4z"/>
		<path class="st2" d="M232.6,198.4c0.1-0.2,0.2-0.5,0.4-0.7c-0.4,0-0.9,0-1.3,0c-0.2,0.4-0.4,0.7-0.6,1.1
			C231.6,198.7,232.1,198.5,232.6,198.4z"/>
		<path class="st2" d="M235.6,197.8c-0.9,0-1.8,0-2.6,0c-0.1,0.2-0.3,0.5-0.4,0.7C233.6,198.2,234.6,198,235.6,197.8z"/>
		<path class="st2" d="M233.3,191.7c-3.5,1.1-6.8,2.2-10.1,3.5c2.5,0,4.9,0.1,7.2,0.2C231.3,194.1,232.3,192.9,233.3,191.7z"/>
		<path class="st1" d="M358,318.7c-0.2-0.4-0.3-0.8-0.5-1.3c-2,0.9-4,1.9-6,2.7c0.1,0.5,0.3,0.9,0.4,1.4
			C353.9,320.7,356,319.7,358,318.7z"/>
		<path class="st1" d="M367.1,346.1h22l-25.2-26.9c-1.5,0.9-3.1,1.8-4.7,2.7C362.2,329.9,365.2,338.5,367.1,346.1z"/>
		<path class="st1" d="M191.9,346.1h7.8c-2.4-1.2-4.7-2.4-7-3.7C192.5,343.8,192.2,345,191.9,346.1z"/>
		<path class="st1" d="M236.6,201.8c-1.8,0.2-3.8,0.4-5.8,0.6c-0.1,0.2-0.2,0.5-0.2,0.7C232.6,202.7,234.6,202.2,236.6,201.8z"/>
		<path class="st2" d="M199.8,346.1h4.7c-3.9-1.8-7.6-3.8-11.1-5.9c-0.2,0.8-0.4,1.5-0.5,2.2C195.1,343.6,197.4,344.9,199.8,346.1z"
			/>
		<path class="st2" d="M233.1,184.1c-1.8,0.8-3.5,1.6-5.2,2.4c1-0.4,1.9-0.8,2.8-1.1C231.5,184.9,232.3,184.5,233.1,184.1z"/>
		<path class="st1" d="M219.5,206.5c-1.3,0.2-2.5,0.5-3.7,0.8c-2.5,0.6-5.2,1.5-8.2,2.5c-0.4,0.7-0.8,1.3-1.1,2
			C210.6,209.8,214.9,208.1,219.5,206.5z"/>
		<path class="st1" d="M202.4,212.1c-4.7,2.6-9.1,5.3-13.3,8.3c-0.5,0.9-1,1.8-1.4,2.7c4.2-3.1,8.8-6,13.7-8.6
			C201.6,213.6,202,212.9,202.4,212.1z"/>
		<path class="st1" d="M202.6,211.7c-0.1,0.1-0.1,0.3-0.2,0.4c0.8-0.4,1.6-0.9,2.4-1.3C204,211.1,203.3,211.4,202.6,211.7z"/>
		<path class="st1" d="M198.7,225.5c0.1-1.2,0.2-2.4,0.4-3.6c-4.9,2.7-9.9,5.9-14.6,9.2c-0.5,1.6-0.9,3.3-1.2,5
			c1.9-1.5,3.9-3,5.8-4.4C191.9,229.4,195.2,227.4,198.7,225.5z"/>
		<path class="st1" d="M194.3,212.7c-0.3,0.4-0.6,0.7-0.8,1.1c1.6-1,3.2-1.9,4.9-2.8C196.9,211.6,195.6,212.2,194.3,212.7z"/>
		<path class="st2" d="M201.3,214.4c-4.9,2.6-9.5,5.5-13.7,8.6c-1.3,2.6-2.4,5.3-3.2,8c4.8-3.3,9.7-6.4,14.6-9.2
			C199.6,219.4,200.3,216.9,201.3,214.4z"/>
		<path class="st1" d="M218,204.8c-2.8,0.7-5.8,1.5-8.8,2.4c-0.5,0.7-0.9,1.4-1.3,2.1C211.2,207.6,214.6,206.1,218,204.8z"/>
		<path class="st2" d="M271.8,306.4l0.1-1.2c-7-0.5-13.9-1.6-20.5-3.1c-0.1,0.5-0.2,1-0.2,1.5C257.8,305,264.7,306,271.8,306.4z"/>
		<path class="st1" d="M182.7,221c0.5-0.3,1.1-0.6,1.6-0.9c0.4-0.4,0.8-0.8,1.2-1.2C184.6,219.6,183.6,220.3,182.7,221z"/>
		<path class="st1" d="M190.6,214.3c0.6-0.3,1.3-0.6,2-0.9c0.6-0.8,1.2-1.5,1.9-2.3C193.2,212.2,191.9,213.2,190.6,214.3z"/>
		<path class="st1" d="M181.4,237.5c-0.7,0.5-1.4,1.1-2.1,1.6c-0.1,1.3-0.2,2.7-0.2,4c0,2.7,0.3,5.3,0.7,7.9
			c0.6-0.6,1.1-1.1,1.7-1.7c-0.3-1.5-0.4-3.1-0.5-4.6C180.9,242.3,181.1,239.9,181.4,237.5z"/>
		<path class="st2" d="M151.2,287c0.3,2.8,0.8,5.6,1.6,8.3c0.7-1.2,1.5-2.5,2.3-3.8c-0.6-3-0.9-6-0.9-9
			C153.1,284,152.1,285.5,151.2,287z"/>
		<path class="st2" d="M183.3,236c0.3-1.7,0.7-3.3,1.2-5c-0.7,0.5-1.3,0.9-2,1.4c-0.5,1.7-0.8,3.4-1.1,5
			C182,237,182.7,236.5,183.3,236z"/>
		<path class="st1" d="M203.9,213.1c0.9-0.4,1.8-0.9,2.7-1.3c0.3-0.7,0.7-1.3,1.1-2c-0.8,0.3-1.7,0.6-2.5,0.9
			C204.7,211.5,204.2,212.3,203.9,213.1z"/>
		<path class="st1" d="M205.1,210.7c0.9-0.5,1.9-1,2.8-1.4c0.4-0.7,0.9-1.4,1.3-2.1c-0.8,0.3-1.7,0.5-2.5,0.8
			C206.2,208.8,205.6,209.7,205.1,210.7z"/>
		<path class="st2" d="M198.4,211.1c2.1-1.1,4.2-2.2,6.4-3.2c1.4-2.2,3-4.3,4.8-6.4c-4.3,2.3-8.3,4.8-12.1,7.5
			c-1.1,1.2-2.2,2.5-3.2,3.8C195.6,212.2,196.9,211.6,198.4,211.1z"/>
		<path class="st2" d="M209.3,207.1c0.4-0.6,0.8-1.2,1.3-1.8c-1,0.4-1.9,0.8-2.8,1.2c-0.3,0.5-0.7,0.9-1,1.4
			C207.6,207.7,208.5,207.4,209.3,207.1z"/>
		<path class="st2" d="M204.2,208.9c0.9-0.3,1.8-0.6,2.6-0.9c0.3-0.5,0.6-1,1-1.4c-1,0.4-2,0.9-3,1.3
			C204.6,208.2,204.4,208.5,204.2,208.9z"/>
		<path class="st2" d="M207.8,206.5c1.8-2.5,3.9-5,6.4-7.4c-1.5,0.7-3,1.5-4.5,2.3c-1.8,2.1-3.4,4.2-4.8,6.4
			C205.8,207.4,206.8,207,207.8,206.5z"/>
		<path class="st1" d="M205.1,210.7c0.9-0.3,1.7-0.6,2.5-0.9c0.1-0.2,0.2-0.4,0.3-0.6C207,209.7,206.1,210.2,205.1,210.7
			C205.1,210.7,205.1,210.7,205.1,210.7z"/>
		<path class="st2" d="M207.9,245.9c0.3-0.3,0.6-0.6,0.9-0.9c-2.2-2.9-3.8-5.9-4.9-9.1c-0.3,0.2-0.7,0.5-1,0.7
			C204.1,239.9,205.7,243,207.9,245.9z"/>
		<path class="st1" d="M202.9,236.7c0.3-0.2,0.7-0.5,1-0.7c-0.3-0.9-0.6-1.9-0.8-2.8c-0.4,0.2-0.8,0.5-1.1,0.7
			C202.3,234.8,202.5,235.8,202.9,236.7z"/>
		<path class="st1" d="M200.9,224.3c0.6-0.3,1.3-0.6,1.9-1c0.2-1.3,0.4-2.6,0.8-3.8c-0.7,0.4-1.5,0.7-2.2,1.1
			C201.1,221.9,201,223.1,200.9,224.3z"/>
		<path class="st2" d="M200.9,227.3c0.1,2.2,0.5,4.4,1.1,6.5c0.4-0.2,0.8-0.5,1.1-0.7c-0.4-1.8-0.6-3.7-0.6-5.5
			c0-1.4,0.1-2.8,0.3-4.3c-0.6,0.3-1.3,0.6-1.9,1C200.9,225.3,200.8,226.3,200.9,227.3z"/>
		<path class="st2" d="M201.4,220.6c0.7-0.4,1.5-0.8,2.2-1.1c0.7-2.6,1.7-5.2,3-7.7c-0.9,0.4-1.8,0.9-2.7,1.3
			C202.7,215.6,201.9,218.1,201.4,220.6z"/>
		<path class="st2" d="M180.1,234.1c0.5-2.2,1.1-4.3,1.9-6.5c-4.2,3.6-7.9,7.4-11.2,11.5c-0.5,1-1,2.1-1.4,3.1
			C172.6,239.6,176.3,236.9,180.1,234.1z"/>
		<path class="st1" d="M182.5,232.4c0.7-2.6,1.7-5.1,2.9-7.6c-1.2,0.9-2.3,1.9-3.5,2.9c-0.8,2.1-1.4,4.3-1.9,6.5
			C180.9,233.5,181.7,233,182.5,232.4z"/>
		<path class="st1" d="M210.8,249.5c0.3-0.3,0.6-0.6,1-0.9c-1.1-1.2-2.1-2.4-3-3.6c-0.3,0.3-0.6,0.6-0.9,0.9
			C208.8,247.1,209.7,248.3,210.8,249.5z"/>
		<path class="st1" d="M170.8,239.1c-1.3,1.6-2.6,3.3-3.7,4.9c0.7-0.6,1.5-1.2,2.3-1.8C169.8,241.2,170.2,240.1,170.8,239.1z"/>
		<path class="st2" d="M197.5,208.9c-1,0.7-2,1.5-3,2.2c-0.6,0.8-1.3,1.5-1.9,2.3c0.5-0.2,1.1-0.5,1.7-0.7
			C195.3,211.4,196.4,210.2,197.5,208.9z"/>
		<path class="st1" d="M169.3,242.2c-0.8,0.6-1.6,1.2-2.3,1.8c-0.1,0.2-0.2,0.3-0.4,0.5c-0.9,2.4-1.7,4.7-2.3,7.1
			c0.8-0.7,1.6-1.4,2.4-2.1C167.4,247.1,168.3,244.6,169.3,242.2z"/>
		<path class="st1" d="M163.1,264.7c0.1,1.6,0.3,3.2,0.5,4.8c0.5-0.6,1-1.2,1.5-1.9c-0.2-1.4-0.2-2.8-0.2-4.2c0-4.6,0.7-9.3,2-13.9
			c-0.8,0.7-1.6,1.4-2.4,2.1C163.3,256,162.8,260.4,163.1,264.7z"/>
		<path class="st2" d="M194.3,212.7c-0.6,0.2-1.1,0.5-1.7,0.7c-0.4,0.6-0.9,1.1-1.3,1.7c0.7-0.4,1.4-0.9,2.1-1.3
			C193.7,213.5,194,213.1,194.3,212.7z"/>
		<path class="st2" d="M191.4,216.6c0.6-0.9,1.3-1.9,2-2.8c-0.7,0.4-1.4,0.8-2.1,1.3c-0.6,0.8-1.2,1.6-1.7,2.4
			C190.2,217.2,190.8,216.9,191.4,216.6z"/>
		<path class="st2" d="M191.4,216.6c-0.6,0.3-1.2,0.6-1.8,0.9c-1,1.5-2,3-2.8,4.6c0.7-0.6,1.5-1.1,2.3-1.6
			C189.8,219.1,190.6,217.9,191.4,216.6z"/>
		<path class="st1" d="M189.6,217.5c-1.3,0.6-2.6,1.3-3.9,2c-1,1.8-1.9,3.7-2.7,5.6c1.3-1,2.5-2,3.8-3
			C187.7,220.5,188.6,219,189.6,217.5z"/>
		<path class="st1" d="M191.3,215.1c-1.7,1.1-3.4,2.2-5,3.3c-0.2,0.4-0.4,0.7-0.6,1.1c1.3-0.7,2.6-1.3,3.9-2
			C190.2,216.7,190.8,215.9,191.3,215.1z"/>
		<path class="st1" d="M186.8,222.1c-1.3,1-2.6,2-3.8,3c-0.4,0.9-0.7,1.7-1,2.6c1.1-1,2.3-1.9,3.5-2.9
			C185.9,223.9,186.3,223,186.8,222.1z"/>
		<path class="st1" d="M165,267.6c0.3,2.4,0.8,4.8,1.5,7.2c3.8-5.1,8.2-10.6,13.1-16.5c0.5-0.6,1.1-1.3,1.6-1.9
			c-0.6-1.8-1-3.5-1.3-5.4C174.5,256.2,169.5,261.9,165,267.6z"/>
		<path class="st1" d="M179.9,251c0.3,1.8,0.8,3.6,1.3,5.4c0.5-0.6,1.1-1.2,1.6-1.8c-0.5-1.7-0.9-3.4-1.2-5.2
			C181,249.9,180.5,250.4,179.9,251z"/>
		<path class="st2" d="M179.9,251c-0.5-2.6-0.7-5.2-0.7-7.9c0-1.3,0.1-2.7,0.2-4c-4.4,3.5-8.6,6.9-12.6,10.4c-1.3,4.6-2,9.2-2,13.9
			c0,1.4,0.1,2.8,0.2,4.2C169.5,261.9,174.5,256.2,179.9,251z"/>
		<path class="st2" d="M182.9,248.1c-0.4,0.4-0.9,0.8-1.3,1.2c0.3,1.8,0.7,3.5,1.2,5.2c0.4-0.4,0.8-0.9,1.2-1.3
			C183.5,251.6,183.2,249.9,182.9,248.1z"/>
		<path class="st2" d="M184,253.3c-0.4,0.4-0.8,0.9-1.2,1.3c1.3,4.2,3.2,8.2,5.6,12c0.4-0.5,0.9-1,1.3-1.5
			C187.2,261.3,185.2,257.3,184,253.3z"/>
		<path class="st2" d="M189.8,265.1c-0.4,0.5-0.9,1-1.3,1.5c1,1.5,2,2.9,3.1,4.4c0.4-0.6,0.8-1.2,1.2-1.8
			C191.7,267.8,190.7,266.5,189.8,265.1z"/>
		<path class="st2" d="M187.7,223.1c-0.8,0.6-1.5,1.1-2.2,1.7c-1.2,2.5-2.2,5.1-2.9,7.6c0.7-0.5,1.3-0.9,2-1.4
			C185.3,228.4,186.4,225.7,187.7,223.1z"/>
		<path class="st2" d="M189.1,220.4c-0.8,0.5-1.5,1.1-2.3,1.6c-0.5,0.9-1,1.8-1.4,2.7c0.7-0.6,1.5-1.2,2.2-1.7
			C188.1,222.2,188.6,221.3,189.1,220.4z"/>
		<path class="st1" d="M180.1,234.1c-3.8,2.8-7.5,5.5-10.8,8.1c-1,2.4-1.9,4.9-2.6,7.3c4-3.5,8.2-7,12.6-10.4
			C179.5,237.4,179.8,235.8,180.1,234.1z"/>
		<path class="st1" d="M181.4,237.5c0.2-1.7,0.6-3.4,1.1-5c-0.8,0.6-1.6,1.1-2.4,1.7c-0.3,1.6-0.6,3.3-0.8,5
			C180,238.5,180.7,238,181.4,237.5z"/>
		<path class="st2" d="M238.5,300.4c4.1,1.3,8.3,2.3,12.7,3.2c0.1-0.5,0.2-1,0.2-1.5c-4.3-1-8.4-2.2-12.4-3.5
			C238.8,299.2,238.7,299.8,238.5,300.4z"/>
		<path class="st2" d="M247.9,270.3c0.1-0.4,0.3-0.7,0.4-1.1c-3.8-1.1-7.5-2.4-11-3.8c-0.2,0.4-0.4,0.7-0.6,1.1
			C240.2,268,243.9,269.2,247.9,270.3z"/>
		<path class="st2" d="M257.8,272.6c0.1-0.4,0.2-0.7,0.3-1.1c-3.4-0.6-6.6-1.4-9.8-2.3c-0.1,0.4-0.3,0.7-0.4,1.1
			C251.1,271.2,254.4,272,257.8,272.6z"/>
		<path class="st1" d="M246.8,273c3.3,0.9,6.7,1.7,10.3,2.3c0.2-0.9,0.5-1.7,0.7-2.6c-3.4-0.7-6.8-1.4-10-2.3
			C247.5,271.2,247.2,272.1,246.8,273z"/>
		<path class="st2" d="M219.4,257.2c2.2,1.6,4.7,3.2,7.3,4.6c0.3-0.4,0.5-0.8,0.8-1.1c-2.5-1.4-4.9-3-7.1-4.6
			c-0.2,0.2-0.4,0.4-0.6,0.7C219.6,256.9,219.5,257,219.4,257.2z"/>
		<path class="st2" d="M236.7,266.5c0.2-0.4,0.4-0.7,0.6-1.1c-3.5-1.4-6.8-3-9.9-4.8c-0.3,0.4-0.5,0.8-0.8,1.1
			C229.8,263.5,233.1,265.1,236.7,266.5z"/>
		<path class="st2" d="M212.9,286.5c-0.3,0.7-0.7,1.4-1,2.1c3.7,2.3,7.6,4.3,11.8,6.2c0.2-0.7,0.5-1.3,0.8-2
			C220.4,290.9,216.5,288.8,212.9,286.5z"/>
		<path class="st2" d="M203.4,279.7c-0.4,0.7-0.8,1.3-1.2,2c3,2.4,6.2,4.7,9.7,6.9c0.3-0.7,0.7-1.4,1-2.1
			C209.5,284.4,206.4,282.1,203.4,279.7z"/>
		<path class="st2" d="M244.7,279c-1.9,5.6-3.8,12.5-5.7,19.7c4,1.3,8.2,2.5,12.4,3.5c0.3-2.1,0.6-4.1,0.9-5.8
			c0.9-5.8,2.7-13.2,4.8-21.1c-3.5-0.6-7-1.4-10.3-2.3C246.1,275,245.3,277,244.7,279z"/>
		<path class="st2" d="M192.8,269.2c-0.4,0.6-0.8,1.2-1.2,1.8c3,3.8,6.6,7.4,10.7,10.8c0.4-0.7,0.8-1.3,1.2-2
			C199.4,276.4,195.8,272.9,192.8,269.2z"/>
		<path class="st2" d="M219.4,257.2c0.1-0.1,0.2-0.3,0.3-0.4c0.2-0.2,0.4-0.5,0.6-0.7c-3.2-2.3-6.1-4.8-8.5-7.5
			c-0.3,0.3-0.6,0.6-1,0.9C213.3,252.2,216.1,254.8,219.4,257.2z"/>
		<path class="st2" d="M224.5,292.8c-0.3,0.7-0.5,1.3-0.8,2c4.7,2.1,9.6,4,14.8,5.6c0.2-0.6,0.3-1.2,0.5-1.7
			C233.9,297,229.1,295,224.5,292.8z"/>
		<path class="st2" d="M147.9,269.6c-0.6,0.8-1.1,1.7-1.7,2.5c-0.4,3.5-0.7,7-0.9,10.2c0.6-2.4,1.2-4.9,2-7.4
			C147.5,273.2,147.7,271.4,147.9,269.6z"/>
		<path class="st1" d="M360.8,315.9l-7-7.5c1.2,2.8,2.4,5.9,3.7,9.1C358.6,316.9,359.7,316.4,360.8,315.9z"/>
		<path class="st2" d="M359.2,321.8c1.6-0.9,3.2-1.8,4.7-2.7l-2.2-2.3c-1.2,0.6-2.5,1.3-3.7,1.9
			C358.4,319.8,358.8,320.8,359.2,321.8z"/>
		<path class="st1" d="M358,318.7c1.3-0.6,2.5-1.3,3.7-1.9l-0.9-1c-1.1,0.6-2.2,1.1-3.3,1.6C357.6,317.9,357.8,318.3,358,318.7z"/>
		<path class="st1" d="M315.9,303.4c0.2,0.9,0.4,1.8,0.6,2.6c9.7-2,18.8-4.8,27.1-8.3c-0.1-0.2-0.1-0.3-0.2-0.5l-1.5-1.6
			C333.6,298.9,324.9,301.5,315.9,303.4z"/>
		<path class="st2" d="M315.9,303.4c9-1.9,17.8-4.5,26-7.7l-0.4-0.4c-8.1,2.6-16.8,4.9-26,6.6C315.6,302.4,315.7,302.9,315.9,303.4z
			"/>
		<path class="st2" d="M343.7,297.6l-0.4-0.4c0.1,0.1,0.1,0.3,0.2,0.5C343.6,297.7,343.6,297.6,343.7,297.6z"/>
		<path class="st2" d="M283.6,337.3l0,3.1c9.2-0.2,18.1-1.1,26.7-2.5c-0.1-1.1-0.2-2.2-0.3-3.3C301.3,336.2,292.5,337.1,283.6,337.3
			z"/>
		<path class="st2" d="M282.1,337.4c-4.4,0.1-8.7,0-12.9-0.3l-0.3,3.2c4.2,0.2,8.6,0.3,12.9,0.2c0.6,0,1.2,0,1.8-0.1l0-3.1
			C283.1,337.3,282.6,337.4,282.1,337.4z"/>
		<path class="st2" d="M321.6,332c0.2,1.2,0.4,2.3,0.6,3.5c11-2.6,21.3-6.1,30.6-10.5c-0.3-1.2-0.6-2.3-0.9-3.5
			C342.4,325.8,332.2,329.4,321.6,332z"/>
		<path class="st2" d="M351.9,321.6c0.3,1.1,0.6,2.3,0.9,3.5c2.2-1,4.3-2.1,6.4-3.2c-0.4-1-0.8-2.1-1.2-3.1
			C356,319.7,353.9,320.7,351.9,321.6z"/>
		<path class="st2" d="M310.1,334.6c0.1,1.1,0.2,2.2,0.3,3.3c4-0.7,8-1.5,11.8-2.4c-0.2-1.2-0.4-2.3-0.6-3.5
			C317.8,333,314,333.9,310.1,334.6z"/>
		<path class="st1" d="M315.5,301.9c9.2-1.7,17.9-4,26-6.6l-21.3-22.7c-3.7,1-7.6,1.9-11.6,2.6C310.8,282.9,313.2,291.9,315.5,301.9
			z"/>
		<path class="st2" d="M266.7,242.6c2.9-9.1,5.4-16.5,6.5-20l-1.7-1.8c-2.2,4-6.2,11.6-10.6,20.5
			C262.9,241.8,264.8,242.2,266.7,242.6z"/>
		<path class="st1" d="M293,243.6l-1.5-1.6c0.2,0.5,0.3,1.1,0.5,1.8C292.3,243.6,292.7,243.6,293,243.6z"/>
		<path class="st2" d="M282.1,244.1l-0.2-12.3l-3.3-3.5l-1.4,15.7C278.9,244,280.5,244,282.1,244.1z"/>
		<path class="st2" d="M246.4,334.3c-0.2,1.1-0.3,2.2-0.5,3.3c7.3,1.4,15,2.3,23,2.7l0.3-3.2C261.4,336.6,253.8,335.7,246.4,334.3z"
			/>
		<path class="st1" d="M292.3,244.9c0.6-0.1,1.2-0.1,1.7-0.2l-1.1-1.1c-0.3,0-0.7,0.1-1,0.1C292.1,244.1,292.2,244.5,292.3,244.9z"
			/>
		<path class="st1" d="M277.3,243.9l1.4-15.7l-5.3-5.7c-1.2,3.5-3.7,10.9-6.5,20C270.1,243.2,273.6,243.6,277.3,243.9z"/>
		<path class="st2" d="M307.9,272.6c3.5-0.7,6.9-1.5,10.2-2.3l-1.2-1.2c-3.1,0.7-6.3,1.3-9.5,1.8C307.6,271.4,307.7,272,307.9,272.6
			z"/>
		<path class="st2" d="M293,247.2c1-0.2,2-0.4,2.9-0.6l-1.8-2c-0.6,0.1-1.1,0.2-1.7,0.2C292.5,245.6,292.8,246.4,293,247.2z"/>
		<path class="st1" d="M308.6,275.1c4-0.7,7.8-1.6,11.6-2.6l-2.1-2.2c-3.3,0.8-6.7,1.6-10.2,2.3
			C308.1,273.4,308.4,274.3,308.6,275.1z"/>
		<path class="st1" d="M316.9,269.1l-15-16c1.4,4.2,3.3,10.3,5.5,17.8C310.6,270.3,313.8,269.7,316.9,269.1z"/>
		<path class="st2" d="M299.3,272.1c2.7-0.4,5.4-0.8,8.1-1.2c-2.2-7.5-4.1-13.6-5.5-17.8l-6-6.4c-1,0.2-1.9,0.4-2.9,0.6
			C294.6,253,296.9,261.5,299.3,272.1z"/>
		<path class="st1" d="M283.8,244.1c2.8,0,5.5-0.1,8.2-0.4c-0.2-0.7-0.4-1.2-0.5-1.8l-9.5-10.2l0.2,12.3
			C282.7,244.1,283.2,244.1,283.8,244.1z"/>
		<path class="st1" d="M147.4,305.1c-0.4,0.8-0.8,1.7-1.2,2.5c1.6,11,4.6,19.6,7.7,25.9c0.2-0.8,0.4-1.7,0.6-2.6
			C151.5,324.4,148.8,315.9,147.4,305.1z"/>
		<path class="st2" d="M145.3,282.3c-1.6,6.7-2.5,13.1-2.9,19.3c0.8-1.4,1.8-3.1,2.8-4.9C145,292.2,145,287.4,145.3,282.3z"/>
		<path class="st2" d="M142.4,301.6c-0.4,5.6-0.4,10.9-0.1,15.9c1-3,2.3-6.3,4-9.9c-0.5-3.4-0.8-7-1-10.9
			C144.1,298.5,143.2,300.2,142.4,301.6z"/>
		<path class="st2" d="M149,269.9c0.1-0.7,0.2-1.4,0.3-2.1c-0.4,0.6-0.9,1.2-1.3,1.8c-0.2,1.8-0.5,3.6-0.6,5.4
			C147.8,273.3,148.4,271.6,149,269.9z"/>
		<path class="st1" d="M146.6,294.4c-0.5,0.8-0.9,1.6-1.4,2.3c0.2,3.9,0.5,7.5,1,10.9c0.4-0.8,0.8-1.6,1.2-2.5
			C147,301.8,146.7,298.2,146.6,294.4z"/>
		<path class="st1" d="M145.2,296.7c0.4-0.7,0.9-1.5,1.4-2.3c-0.2-5.9,0-12.4,0.7-19.4c-0.8,2.5-1.4,4.9-2,7.4
			C145,287.4,145,292.2,145.2,296.7z"/>
		<path class="st1" d="M150.1,266.6c-0.3,0.4-0.6,0.8-0.9,1.2c-0.1,0.7-0.2,1.4-0.3,2.1C149.3,268.8,149.7,267.7,150.1,266.6z"/>
		<path class="st2" d="M231.2,330.6c-0.3,1.1-0.5,2.2-0.7,3.3c5,1.5,10.1,2.7,15.5,3.7c0.2-1.1,0.3-2.2,0.5-3.3
			C241.2,333.3,236.1,332,231.2,330.6z"/>
		<path class="st2" d="M154.9,261c1.7-4.2,3.8-8.4,6.4-12.4c-1.9,1.6-3.5,2.9-4.8,4.1c-1.3,2.4-2.4,4.7-3.5,7.1
			c-0.6,1.7-1.1,3.5-1.6,5.2C152.6,263.7,153.7,262.3,154.9,261z"/>
		<path class="st1" d="M153,259.8c-1,2.3-2,4.6-2.9,6.9c0.4-0.5,0.9-1.1,1.3-1.6C151.9,263.2,152.4,261.5,153,259.8z"/>
		<path class="st2" d="M147.8,292.5c0.8-1.3,1.6-2.7,2.5-4.1c-0.3-2.6-0.6-5.2-0.6-7.9c-0.1-5.2,0.5-10.4,1.8-15.5
			c-0.4,0.5-0.9,1.1-1.3,1.6c-0.4,1.1-0.8,2.2-1.2,3.2C147.9,278.2,147.5,285.7,147.8,292.5z"/>
		<path class="st1" d="M155.6,253.5c-1,2.1-1.8,4.1-2.5,6.2c1.1-2.3,2.2-4.7,3.5-7.1C156.2,253,155.9,253.3,155.6,253.5z"/>
		<path class="st1" d="M180.7,331.4c3.9,3.2,8.1,6.1,12.6,8.8c1.3-5.1,3.2-11.9,5.9-19.8c-4.2-2.6-8.2-5.3-11.8-8.3
			C184.6,319.2,182.4,325.7,180.7,331.4z"/>
		<path class="st2" d="M188.6,309.1c-0.4,1-0.8,2-1.2,3c3.6,2.9,7.6,5.7,11.8,8.3c0.3-1,0.7-2.1,1.1-3.1
			C196.1,314.7,192.2,312,188.6,309.1z"/>
		<path class="st2" d="M213.9,324.3c-0.3,1.1-0.7,2.2-1,3.2c5.5,2.4,11.3,4.6,17.5,6.4c0.2-1.1,0.5-2.2,0.7-3.3
			C225.1,328.8,219.4,326.7,213.9,324.3z"/>
		<path class="st2" d="M180,333.8c3.9,3.1,8.2,5.9,12.8,8.6c0.2-0.7,0.3-1.4,0.5-2.2c-4.5-2.7-8.8-5.7-12.6-8.8
			C180.5,332.2,180.2,333,180,333.8z"/>
		<path class="st2" d="M200.3,317.2c-0.4,1.1-0.7,2.1-1.1,3.1c4.3,2.6,8.9,5,13.7,7.1c0.3-1.1,0.6-2.1,1-3.2
			C209.1,322.1,204.6,319.8,200.3,317.2z"/>
		<path class="st1" d="M155.1,328.1c1.8,4.2,3.8,7.7,5.6,10.4c1.1-4.8,2.6-9.8,4.5-14.8c-2.2-2.9-4.3-5.9-6.1-9
			C157.5,319.4,156.2,324,155.1,328.1z"/>
		<path class="st1" d="M153.9,333.5c2.1,4.2,4.1,7.5,5.9,9.8c0.1-0.7,0.3-1.4,0.4-2.1c-1.8-2.5-3.8-5.9-5.7-10.2
			C154.3,331.8,154.1,332.6,153.9,333.5z"/>
		<path class="st1" d="M154.5,330.9c1.9,4.3,4,7.7,5.7,10.2c0.2-0.9,0.4-1.8,0.6-2.7c-1.8-2.7-3.8-6.1-5.6-10.4
			C154.9,329,154.7,330,154.5,330.9z"/>
		<path class="st1" d="M166.4,320.7c-0.4,1-0.7,1.9-1.1,2.9c3.9,5,8.5,9.6,13.7,13.8c0.3-1.2,0.7-2.4,1-3.7
			C174.9,329.8,170.3,325.4,166.4,320.7z"/>
		<path class="st2" d="M167.5,318c-0.4,0.9-0.7,1.8-1.1,2.7c3.9,4.7,8.5,9,13.6,13.1c0.2-0.8,0.5-1.6,0.7-2.4
			C175.6,327.2,171.2,322.7,167.5,318z"/>
		<path class="st1" d="M160.2,312.1c-0.3,0.8-0.6,1.7-0.9,2.5c1.8,3.1,3.8,6.1,6.1,9c0.4-1,0.7-1.9,1.1-2.9
			C164.1,318,162,315.1,160.2,312.1z"/>
		<path class="st1" d="M160.7,338.4c-0.2,0.9-0.4,1.8-0.6,2.7c1.6,2.3,3,3.9,3.9,4.9h3C166.2,345.3,163.7,342.8,160.7,338.4z"/>
		<path class="st2" d="M153.9,333.5c-1.1,5.4-1.6,9.7-1.9,12.6h7.3c0.1-0.9,0.3-1.9,0.4-2.8C158,340.9,156,337.7,153.9,333.5z"/>
		<path class="st2" d="M159.3,346.1h2.7c-0.6-0.7-1.4-1.7-2.3-2.8C159.6,344.2,159.5,345.1,159.3,346.1z"/>
		<path class="st2" d="M146.2,307.6c-1.7,3.6-3,6.9-4,9.9c0.7,12.1,2.9,22,4.8,28.6h5c0.3-2.9,0.8-7.2,1.9-12.6
			C150.8,327.2,147.8,318.6,146.2,307.6z"/>
		<path class="st1" d="M159.8,343.2c0.9,1.2,1.6,2.1,2.3,2.8h2c-0.9-1-2.3-2.6-3.9-4.9C160,341.8,159.9,342.5,159.8,343.2z"/>
		<path class="st1" d="M160.1,246.4c2.4-4,4.9-7.7,7.4-11.2c-4.9,5.7-8.9,11.9-11.9,18.2c0.3-0.3,0.6-0.5,1-0.8
			C157.6,250.6,158.8,248.5,160.1,246.4z"/>
		<path class="st2" d="M200.5,201.5c2.3-2,4.7-4,7.3-5.9"/>
		<path class="st1" d="M179.3,220.2c4.3-4.7,9.3-9.2,14.9-13.3c1.2-0.9,2.3-1.9,3.5-2.7c0.9-0.9,1.9-1.8,2.8-2.6"/>
		<path class="st1" d="M174.6,225.8c1.5-1.9,3-3.8,4.7-5.6"/>
		<path class="st1" d="M155.6,253.5c3-6.4,7-12.5,11.9-18.2c1.5-2,2.9-3.9,4.4-5.8c0.8-1.3,1.7-2.5,2.7-3.7"/>
		<path class="st1" d="M149.2,267.8c0.3-0.4,0.6-0.8,0.9-1.2c0.9-2.3,1.8-4.6,2.9-6.9c0.7-2.1,1.6-4.2,2.5-6.2"/>
		<path class="st1" d="M147.9,269.6c0.4-0.6,0.9-1.2,1.3-1.8"/>
		<path class="st1" d="M146.3,272.1c0.5-0.8,1.1-1.7,1.7-2.5"/>
		<path class="st2" d="M142.4,301.6c0.4-6.1,1.4-12.6,2.9-19.3c0.2-3.3,0.5-6.7,0.9-10.2"/>
		<path class="st2" d="M222.3,190.4c3.7-1.9,7.6-3.7,11.8-5.2c0.9-0.5,1.9-0.9,2.8-1.4l-0.5-0.5c-1.7,0.6-3.6,1.3-5.8,2.1
			C227.7,186.9,224.9,188.6,222.3,190.4z"/>
		<path class="st1" d="M261,241.3c4.4-9,8.5-16.5,10.6-20.5l-2.7-2.9c-2.5,3.4-8.4,11.3-15,21.1C256.1,239.9,258.5,240.6,261,241.3z
			"/>
		<path class="st1" d="M236.1,182.9l-0.1-0.1c-1,0.4-1.9,0.9-2.9,1.4C234.1,183.7,235.1,183.3,236.1,182.9z"/>
		<path class="st2" d="M165.3,323.6c-1.9,5.1-3.4,10-4.5,14.8c2.9,4.4,5.4,6.8,6.3,7.6h9.8c0.5-2.3,1.3-5.2,2.2-8.6
			C173.8,333.2,169.2,328.6,165.3,323.6z"/>
		<path class="st2" d="M210.4,195.5c6.4-3.9,12.4-6.8,17.5-9c1.7-0.8,3.5-1.6,5.2-2.4c0.9-0.5,1.9-0.9,2.9-1.4l-1.2-1.2
			c-10.1,3.7-19.3,8.5-27,14.1C208.7,195.6,209.5,195.5,210.4,195.5z"/>
		<path class="st2" d="M310.4,337.9c0.3,2.7,0.5,5.4,0.7,8.2h12.7c-0.5-3.5-1-7.1-1.6-10.5C318.4,336.4,314.4,337.2,310.4,337.9z"/>
		<path class="st2" d="M176.8,346.1h14.7c-4.5-2.6-8.6-5.5-12.5-8.6C178.1,340.8,177.4,343.8,176.8,346.1z"/>
		<path class="st2" d="M237.2,184l-0.3-0.3c-1,0.5-1.9,0.9-2.8,1.4C235.1,184.8,236.2,184.4,237.2,184z"/>
		<path class="st2" d="M359.2,321.8c-2.1,1.1-4.2,2.2-6.4,3.2c1.7,6.6,3.1,13.7,3.8,21h10.5C365.2,338.5,362.2,329.9,359.2,321.8z"
			/>
		<path class="st1" d="M192.8,342.3c-4.6-2.6-8.8-5.5-12.8-8.6c-0.4,1.3-0.7,2.5-1,3.7c3.8,3.1,8,6,12.5,8.6h0.5
			C192.2,345,192.5,343.8,192.8,342.3z"/>
		<path class="st2" d="M216.8,198.3c3-0.5,7.4-0.6,12.2-0.6c0.4-0.8,0.9-1.5,1.4-2.3c-2.3-0.1-4.7-0.2-7.2-0.2
			c-1.9,0.7-3.7,1.5-5.5,2.3C217.5,197.8,217.2,198.1,216.8,198.3z"/>
		<path class="st2" d="M230.7,185.4c2.1-0.8,4.1-1.5,5.8-2.1l-0.3-0.4c-1,0.4-2,0.8-3,1.2C232.3,184.5,231.5,184.9,230.7,185.4z"/>
		<path class="st2" d="M230.6,218.1c12-5.5,21.7-8.8,28.6-10.6l-1.8-2c-4.8,1-15.6,3.5-27.9,7.3
			C229.7,214.7,230.1,216.5,230.6,218.1z"/>
		<path class="st1" d="M229.4,210.9c0,0.7,0,1.4,0.1,2.1c12.2-3.8,23.1-6.3,27.9-7.3l-0.8-0.9c-4.7,0.5-14.4,1.8-27.1,5.3
			C229.5,210.3,229.4,210.6,229.4,210.9z"/>
		<path class="st1" d="M231.3,220c13.3-6.3,24.4-9.7,29.2-11.1l-1.3-1.4c-6.9,1.8-16.7,5-28.6,10.6C230.8,218.8,231,219.4,231.3,220
			z"/>
		<path class="st2" d="M229.5,210.1c12.7-3.5,22.5-4.8,27.1-5.3l-1.2-1.3c-4.8,0.1-15.2,0.5-25.3,1.5
			C229.8,206.7,229.5,208.4,229.5,210.1z"/>
		<path class="st1" d="M236.6,201.8c-2,0.4-4,0.9-6,1.4c-0.2,0.6-0.3,1.2-0.5,1.8c10-1.1,20.5-1.4,25.3-1.5l-1.9-2.1
			C250.5,201.3,244.5,201.1,236.6,201.8z"/>
		<path class="st2" d="M253.5,201.4l-1.8-1.9c-5.2,0.5-10.2,1.3-15.1,2.3C244.5,201.1,250.5,201.3,253.5,201.4z"/>
		<path class="st2" d="M234.4,225.4c8.4-5.1,17.4-9.4,28.3-14.1l-2.2-2.3c-4.9,1.4-16,4.8-29.2,11.1
			C232.1,221.9,233.1,223.7,234.4,225.4z"/>
		<path class="st2" d="M246.8,235.8c2.2,1.2,4.6,2.3,7.1,3.2c6.7-9.8,12.5-17.7,15-21.1l-2.3-2.4
			C262.7,219.1,255.2,226.3,246.8,235.8z"/>
		<path class="st1" d="M237.3,228.8c11.6-8,21.8-14.1,26.3-16.6l-0.9-0.9c-10.9,4.7-19.9,9-28.3,14.1
			C235.3,226.6,236.2,227.7,237.3,228.8z"/>
		<path class="st2" d="M242.3,233c9.6-8.9,18-15.3,23-18.9l-1.7-1.8c-4.4,2.6-14.6,8.6-26.3,16.6C238.8,230.3,240.5,231.7,242.3,233
			z"/>
		<path class="st2" d="M236.8,190.7c0.5-0.1,1-0.3,1.6-0.4c0.8-0.8,1.6-1.6,2.4-2.4l-0.5-0.5c0,0,0,0,0,0
			C239,188.4,237.9,189.5,236.8,190.7z"/>
		<polygon class="st2" points="240.3,187.3 240.3,187.3 240.3,187.3 		"/>
		<path class="st2" d="M224.5,190.8c1.6-0.6,3.2-1.2,4.8-1.7c2.7-1.6,5.5-3,8.5-4.4l-0.6-0.7c-1,0.4-2.1,0.7-3.1,1.1
			C230.7,186.9,227.5,188.8,224.5,190.8z"/>
		<path class="st2" d="M240.3,187.3C240.3,187.3,240.3,187.3,240.3,187.3l-1-1.1c-0.9,0.7-1.9,1.5-2.7,2.3
			C237.8,188.1,239,187.7,240.3,187.3z"/>
		<path class="st2" d="M239.2,186.2l-1.4-1.4c-3,1.3-5.9,2.8-8.5,4.4C232.5,188,235.8,187,239.2,186.2z"/>
		<path class="st2" d="M221.8,194.1c4.7-2.1,9.7-4,14.7-5.6c0.9-0.8,1.8-1.5,2.7-2.3l-0.1-0.1c-3.4,0.9-6.7,1.8-9.9,2.9
			C226.6,190.7,224.1,192.4,221.8,194.1z"/>
		<path class="st2" d="M249.3,197l-0.7-0.7c-0.8,0.1-1.5,0.3-2.3,0.4C247.6,196.8,248.6,196.9,249.3,197z"/>
		<path class="st2" d="M240.3,197.9c4.3,0.1,8,0.3,10.2,0.3l-1.1-1.2c-0.8-0.1-1.8-0.2-3-0.3C244.3,197,242.3,197.4,240.3,197.9z"/>
		<path class="st2" d="M231.8,200c-0.4,0.8-0.7,1.6-0.9,2.4c2-0.3,3.9-0.5,5.8-0.6c4.8-1,9.9-1.8,15.1-2.3l-1.3-1.3
			c-2.2,0-5.9-0.2-10.2-0.3C237.4,198.5,234.6,199.2,231.8,200z"/>
		<path class="st2" d="M234.2,195.6c3.5,0.2,6.7,0.5,9.3,0.7c1.5-0.2,3.1-0.4,4.7-0.6l-6-6.4c-1.3,0.3-2.5,0.6-3.8,0.9
			C236.8,192,235.4,193.8,234.2,195.6z"/>
		<path class="st2" d="M246.3,196.7c0.8-0.1,1.5-0.3,2.3-0.4l-0.5-0.5c-1.6,0.2-3.1,0.4-4.7,0.6
			C244.5,196.5,245.5,196.6,246.3,196.7z"/>
		<path class="st2" d="M238.4,190.3c1.3-0.3,2.5-0.6,3.8-0.9l-1.4-1.5C239.9,188.6,239.1,189.5,238.4,190.3z"/>
		<path class="st1" d="M169.6,292.2c-3.3,5.7-6,11.3-8.2,16.7c1.7,3.1,3.8,6.1,6,9.1c2.3-5.6,5-11.4,8.1-17.5
			C173.4,297.8,171.4,295.1,169.6,292.2z"/>
		<path class="st2" d="M175.6,300.5c-3.1,6.1-5.8,11.9-8.1,17.5c3.7,4.8,8.2,9.2,13.2,13.4c1.7-5.6,3.9-12.2,6.7-19.3
			C182.9,308.5,179,304.6,175.6,300.5z"/>
		<path class="st2" d="M177,297.7c-0.5,0.9-0.9,1.8-1.4,2.7c3.4,4.1,7.4,8,11.8,11.6c0.4-1,0.8-2,1.2-3
			C184.2,305.6,180.3,301.8,177,297.7z"/>
		<path class="st1" d="M147.8,292.5c-0.4,0.7-0.8,1.3-1.2,1.9c0.1,3.8,0.4,7.4,0.9,10.7c0.3-0.7,0.7-1.4,1.1-2.2
			C148.1,299.7,147.9,296.2,147.8,292.5z"/>
		<path class="st2" d="M148.5,302.9c1.3,10.4,3.8,18.7,6.6,25.1c1-4.1,2.4-8.6,4.1-13.4c-3.2-5.6-5.7-11.6-7.3-17.9
			C150.7,298.9,149.5,301,148.5,302.9z"/>
		<path class="st1" d="M147.4,305.1c1.4,10.8,4.1,19.3,7,25.8c0.2-0.9,0.4-1.9,0.7-2.9c-2.8-6.4-5.3-14.7-6.6-25.1
			C148.2,303.7,147.8,304.4,147.4,305.1z"/>
		<path class="st1" d="M151.9,296.8c1.6,6.3,4.1,12.3,7.3,17.9c0.3-0.8,0.6-1.6,0.9-2.5c-3.3-5.3-5.8-11-7.4-16.9
			C152.5,295.8,152.2,296.3,151.9,296.8z"/>
		<path class="st2" d="M155,291.5c-0.8,1.3-1.6,2.5-2.3,3.8c1.6,5.9,4.1,11.5,7.4,16.9c0.4-1.1,0.8-2.1,1.3-3.2
			C158.3,303.3,156.2,297.5,155,291.5z"/>
		<path class="st1" d="M160.2,312.1c1.8,3,3.9,5.8,6.2,8.6c0.4-0.9,0.7-1.8,1.1-2.7c-2.3-2.9-4.3-6-6-9.1
			C161,310,160.6,311.1,160.2,312.1z"/>
		<path class="st1" d="M306.4,307.7c3.4-0.5,6.8-1.1,10.1-1.7c-0.2-0.9-0.4-1.8-0.6-2.6c-3.3,0.7-6.6,1.3-9.9,1.8
			C306.1,306,306.2,306.9,306.4,307.7z"/>
		<path class="st2" d="M305.9,305.1c3.3-0.5,6.6-1.1,9.9-1.8c-0.1-0.5-0.2-1-0.3-1.5c-3.2,0.6-6.5,1.2-9.8,1.7
			C305.8,304,305.9,304.6,305.9,305.1z"/>
		<path class="st2" d="M305.7,303.5c3.3-0.5,6.6-1,9.8-1.7c-2.3-9.9-4.7-19-6.9-26.7c-2.7,0.5-5.5,0.9-8.3,1.2
			C302.1,284.5,304,293.6,305.7,303.5z"/>
		<path class="st1" d="M300.3,276.3c2.8-0.3,5.6-0.7,8.3-1.2c-0.2-0.8-0.5-1.7-0.7-2.5c-2.7,0.5-5.4,1-8.1,1.4
			C300,274.8,300.1,275.5,300.3,276.3z"/>
		<path class="st2" d="M156.5,252.7c1.3-1.1,2.9-2.5,4.8-4.1c0.9-1.4,1.8-2.7,2.8-4.1c1.5-4.1,3.4-8.1,5.8-12
			c-0.8,0.9-1.6,1.8-2.4,2.7c-2.5,3.5-5,7.2-7.4,11.2C158.8,248.5,157.6,250.6,156.5,252.7z"/>
		<path class="st2" d="M207,200.2c2.2-1.7,4.5-3.4,6.9-4.9c0,0,0,0,0,0c-1.4,0.7-2.8,1.4-4.2,2.1c-1.4,1-2.7,2-4,3.1
			C206.1,200.4,206.5,200.3,207,200.2z"/>
		<path class="st2" d="M216,195.2c0.8-0.7,1.6-1.4,2.5-2c-1.6,0.7-3.1,1.4-4.6,2.1c0,0,0,0,0,0C214.6,195.3,215.3,195.2,216,195.2z"
			/>
		<path class="st2" d="M213.9,195.3C213.9,195.3,213.8,195.3,213.9,195.3C213.8,195.3,213.8,195.3,213.9,195.3
			C213.9,195.3,213.9,195.3,213.9,195.3z"/>
		<path class="st2" d="M197.1,208.3c2.6-2.7,5.4-5.3,8.5-7.8c-0.8,0.2-1.6,0.3-2.4,0.5c-2.2,1.3-4.4,2.7-6.5,4.1
			c-3.2,3.3-6.1,6.7-8.5,10.3c0,0,0,0,0.1,0C191.1,212.9,194,210.5,197.1,208.3z"/>
		<path class="st2" d="M209.6,197.4c-2.2,1.1-4.4,2.3-6.4,3.6c0.8-0.2,1.6-0.3,2.4-0.5C206.9,199.4,208.2,198.4,209.6,197.4z"/>
		<path class="st2" d="M223.3,195.2c-0.9,0-1.8,0-2.8,0c-0.9,0.8-1.8,1.5-2.7,2.3C219.6,196.7,221.4,195.9,223.3,195.2z"/>
		<path class="st1" d="M188.3,215.4C188.3,215.4,188.3,215.4,188.3,215.4C188.2,215.4,188.2,215.4,188.3,215.4
			C188.2,215.4,188.3,215.4,188.3,215.4z"/>
		<path class="st2" d="M214.6,198.7c0.2,0,0.5-0.1,0.7-0.1c0.8-0.4,1.7-0.8,2.5-1.1c0.9-0.8,1.8-1.6,2.7-2.3c-0.3,0-0.6,0-0.9,0
			c-0.7,0.3-1.5,0.7-2.2,1C216.4,197,215.5,197.9,214.6,198.7z"/>
		<path class="st2" d="M151.9,296.8c-0.7-2.7-1.2-5.5-1.6-8.3c-0.9,1.4-1.7,2.8-2.5,4.1c0.1,3.7,0.4,7.2,0.8,10.5
			C149.5,301,150.7,298.9,151.9,296.8z"/>
		<path class="st2" d="M207,200.2c1.5-0.3,2.9-0.6,4.3-0.8c0.2-0.1,0.5-0.2,0.7-0.4c1.3-1.3,2.6-2.6,4.1-3.8c-0.7,0-1.4,0-2.2,0.1
			C211.4,196.9,209.1,198.5,207,200.2z"/>
		<path class="st2" d="M219.6,195.2c-0.3,0-0.6,0-1,0c-0.4,0.3-0.8,0.7-1.2,1C218.1,195.8,218.8,195.5,219.6,195.2z"/>
		<path class="st2" d="M211.9,199c1.8-1,3.6-1.9,5.4-2.8c0.4-0.3,0.8-0.7,1.2-1c-0.9,0-1.7,0-2.6,0
			C214.6,196.4,213.2,197.7,211.9,199z"/>
		<path class="st2" d="M160.4,255.4c0.5-1.1,1-2.1,1.6-3.2c0.4-1.7,0.8-3.5,1.3-5.2c-0.7,0.6-1.3,1.1-2,1.6
			c-2.6,4.1-4.8,8.2-6.4,12.4C156.6,259.1,158.5,257.3,160.4,255.4z"/>
		<path class="st2" d="M150.9,283.6c0.1,1.2,0.2,2.3,0.3,3.4c0.9-1.5,1.9-3,3-4.5c0-0.1,0-0.2,0-0.2c0-9.1,2.1-18.2,6.2-26.9
			c-1.9,1.9-3.8,3.8-5.5,5.7C151.9,268.5,150.5,276.1,150.9,283.6z"/>
		<path class="st1" d="M150.9,283.6c-0.4-7.5,1-15.1,4-22.5c-1.2,1.3-2.3,2.6-3.4,4c-1.3,5.1-1.9,10.3-1.8,15.5
			c0.1,2.7,0.3,5.3,0.6,7.9c0.3-0.5,0.6-0.9,0.9-1.4C151.1,285.9,151,284.7,150.9,283.6z"/>
		<path class="st1" d="M164.1,244.6c-1,1.3-1.9,2.7-2.8,4.1c0.6-0.5,1.3-1.1,2-1.6C163.5,246.2,163.8,245.4,164.1,244.6z"/>
		<path class="st1" d="M152.8,295.3c-0.7-2.7-1.3-5.5-1.6-8.3c-0.3,0.5-0.6,0.9-0.9,1.4c0.4,2.8,0.9,5.6,1.6,8.3
			C152.2,296.3,152.5,295.8,152.8,295.3z"/>
		<path class="st1" d="M182,221.4c-0.2,0.2-0.3,0.4-0.5,0.5c0.4-0.3,0.8-0.6,1.2-0.9C182.5,221.2,182.2,221.3,182,221.4z"/>
		<path class="st2" d="M188.2,215.5C188.2,215.4,188.2,215.4,188.2,215.5c-3,1.4-5.4,2.6-7.3,3.8c-1.8,1.9-3.7,3.9-5.5,6
			c2-1.2,4.2-2.5,6.6-3.8C183.9,219.4,186,217.4,188.2,215.5z"/>
		<path class="st1" d="M185.6,219c0.4-0.4,0.7-0.7,1.1-1.1c0.5-0.8,1-1.6,1.6-2.4c-2.2,1.9-4.3,3.9-6.2,6c0.2-0.1,0.5-0.3,0.7-0.4
			C183.6,220.3,184.6,219.6,185.6,219z"/>
		<path class="st2" d="M166.8,244.2c1-2.5,2.2-4.9,3.6-7.3c-2.3,2.5-4.4,5.1-6.3,7.7c-0.3,0.8-0.6,1.6-0.8,2.4
			C164.4,246.1,165.6,245.2,166.8,244.2z"/>
		<path class="st2" d="M181.5,222c-4.3,3.3-8.2,6.9-11.6,10.6c-2.4,3.9-4.3,7.9-5.8,12c1.9-2.6,4-5.2,6.3-7.7
			C173.3,231.7,177.1,226.7,181.5,222z"/>
		<path class="st1" d="M174.3,232.7c2.8-4.4,6.1-8.6,10-12.6c-0.6,0.3-1.1,0.6-1.6,0.9c-0.4,0.3-0.8,0.6-1.2,0.9
			c-4.5,4.8-8.2,9.8-11.1,14.9C171.7,235.5,173,234.1,174.3,232.7z"/>
		<path class="st2" d="M220.5,195.2c0.4-0.3,0.9-0.7,1.3-1c-0.7,0.3-1.5,0.7-2.2,1C219.9,195.2,220.2,195.2,220.5,195.2z"/>
		<path class="st2" d="M224.5,190.8c3-2,6.2-3.9,9.6-5.6c-4.1,1.6-8.1,3.3-11.8,5.2c-1.3,0.9-2.6,1.9-3.9,2.8
			C220.5,192.4,222.5,191.5,224.5,190.8z"/>
		<path class="st2" d="M219.6,195.2c0.7-0.3,1.5-0.7,2.2-1c2.3-1.8,4.8-3.5,7.5-5.1c-1.6,0.5-3.2,1.1-4.8,1.7
			c-2.1,1.4-4.1,2.9-6,4.4C218.9,195.2,219.2,195.2,219.6,195.2z"/>
		<path class="st2" d="M216,195.2c0.9,0,1.7,0,2.6,0c1.9-1.5,3.9-3,6-4.4c-2.1,0.8-4.1,1.6-6.1,2.4
			C217.6,193.9,216.8,194.5,216,195.2z"/>
		<path class="st2" d="M213.8,195.3C213.8,195.3,213.9,195.3,213.8,195.3c2.7-1.7,5.5-3.4,8.5-4.9c2.6-1.8,5.4-3.5,8.3-5
			c-0.9,0.4-1.8,0.7-2.8,1.1c-5.5,2.6-10.7,5.6-15.4,8.8C212.9,195.3,213.4,195.3,213.8,195.3z"/>
		<path class="st2" d="M218.5,193.2c1.2-1,2.5-1.9,3.9-2.8c-3,1.5-5.8,3.2-8.5,4.9C215.4,194.6,216.9,193.9,218.5,193.2z"/>
		<path class="st2" d="M230.4,195.4c0.9,0,1.7,0.1,2.5,0.1c1.1-1.7,2.4-3.3,3.8-4.8c-1.2,0.3-2.3,0.7-3.4,1
			C232.3,192.9,231.3,194.1,230.4,195.4z"/>
		<path class="st2" d="M234.2,195.6c1.2-1.9,2.6-3.6,4.2-5.3c-0.5,0.1-1,0.3-1.6,0.4c-1.4,1.5-2.7,3.2-3.8,4.8
			C233.4,195.6,233.8,195.6,234.2,195.6z"/>
		<path class="st2" d="M231.6,197.7c0.4,0,0.9,0,1.3,0c0.4-0.7,0.8-1.4,1.2-2.1c-0.4,0-0.8-0.1-1.2-0.1
			C232.5,196.3,232.1,197,231.6,197.7z"/>
		<path class="st2" d="M227.9,186.5c-5.1,2.1-11,5.1-17.5,9c0.7,0,1.4-0.1,2.1-0.1C217.2,192.1,222.4,189.2,227.9,186.5z"/>
		<path class="st2" d="M233.3,191.7c1.1-0.3,2.3-0.7,3.4-1c1.1-1.2,2.2-2.3,3.5-3.4c-1.3,0.4-2.5,0.8-3.7,1.2
			C235.4,189.5,234.3,190.6,233.3,191.7z"/>
		<path class="st2" d="M307.9,272.6c-0.2-0.6-0.3-1.2-0.5-1.8c-2.6,0.4-5.3,0.8-8.1,1.2c0.1,0.6,0.3,1.3,0.4,1.9
			C302.5,273.6,305.2,273.1,307.9,272.6z"/>
		<path class="st2" d="M235.6,197.8c2.6-0.5,5.2-1,7.9-1.4c-2.6-0.3-5.8-0.5-9.3-0.7c-0.4,0.7-0.9,1.4-1.2,2.1
			C233.9,197.7,234.7,197.7,235.6,197.8z"/>
		<path class="st1" d="M180.9,219.2c-0.6,0.3-1.1,0.6-1.6,1c-1.7,1.8-3.2,3.7-4.7,5.6c0.3-0.2,0.5-0.3,0.8-0.5
			C177.2,223.1,179,221.1,180.9,219.2z"/>
		<path class="st1" d="M174.6,225.8c-0.9,1.2-1.8,2.5-2.7,3.7c1.2-1.4,2.3-2.8,3.5-4.2C175.1,225.4,174.8,225.6,174.6,225.8z"/>
		<path class="st1" d="M171.9,229.5c-1.5,1.9-3,3.8-4.4,5.8c0.8-0.9,1.6-1.8,2.4-2.7C170.5,231.5,171.2,230.5,171.9,229.5z"/>
		<path class="st1" d="M194.2,206.9c-5.6,4.1-10.6,8.5-14.9,13.3c0.5-0.3,1-0.6,1.6-1C185.3,214.6,189.8,210.5,194.2,206.9z"/>
		<path class="st2" d="M203.2,201c2.1-1.2,4.2-2.4,6.4-3.6c0.9-0.7,1.9-1.4,2.9-2c-0.7,0-1.4,0.1-2.1,0.1c-2.9,1.7-5.9,3.7-8.9,5.9
			C202.1,201.2,202.6,201.1,203.2,201z"/>
		<path class="st2" d="M181.5,222c0.2-0.2,0.3-0.4,0.5-0.5c-2.4,1.3-4.6,2.6-6.6,3.8c-1.2,1.4-2.3,2.8-3.5,4.2c-0.7,1-1.4,2.1-2,3.1
			C173.4,228.8,177.3,225.3,181.5,222z"/>
		<path class="st2" d="M210.4,195.5c-0.9,0.1-1.7,0.1-2.6,0.2c-2.6,1.9-5,3.8-7.3,5.9c0.3-0.1,0.7-0.1,1-0.2
			C204.6,199.2,207.5,197.2,210.4,195.5z"/>
		<path class="st2" d="M180.9,219.2c1.9-1.1,4.4-2.4,7.4-3.8c2.4-3.6,5.2-7,8.5-10.3c-0.9,0.6-1.7,1.2-2.5,1.8
			C189.8,210.5,185.3,214.6,180.9,219.2z"/>
		<path class="st1" d="M200.5,201.5c-1,0.9-1.9,1.7-2.8,2.6c1.3-1,2.6-1.9,3.9-2.9C201.2,201.4,200.8,201.5,200.5,201.5z"/>
		<path class="st1" d="M197.7,204.2c-1.1,0.9-2.3,1.8-3.5,2.7c0.8-0.6,1.7-1.2,2.5-1.8C197,204.8,197.3,204.5,197.7,204.2z"/>
		<path class="st2" d="M196.7,205.1c2.1-1.4,4.2-2.8,6.5-4.1c-0.6,0.1-1.1,0.2-1.6,0.3c-1.3,0.9-2.6,1.9-3.9,2.9
			C197.3,204.5,197,204.8,196.7,205.1z"/>
		<path class="st2" d="M223.3,195.2c3.2-1.3,6.6-2.4,10.1-3.5c1-1.1,2-2.2,3.2-3.2c-5.1,1.7-10,3.5-14.7,5.6c-0.4,0.3-0.9,0.7-1.3,1
			C221.4,195.2,222.3,195.2,223.3,195.2z"/>
		<path class="st1" d="M266.3,244c0.1-0.5,0.3-0.9,0.4-1.4c-2-0.4-3.9-0.8-5.7-1.3c-0.2,0.4-0.4,0.9-0.6,1.3
			C262.3,243.1,264.3,243.6,266.3,244z"/>
		<path class="st1" d="M260.4,242.6c0.2-0.4,0.4-0.9,0.6-1.3c-2.5-0.7-4.9-1.4-7.1-2.3c-0.3,0.4-0.5,0.8-0.8,1.2
			C255.4,241.1,257.8,241.9,260.4,242.6z"/>
		<path class="st2" d="M240.3,197.9c2-0.4,4-0.9,6-1.2c-0.9-0.1-1.8-0.2-2.8-0.3c-2.7,0.4-5.3,0.9-7.9,1.4
			C237.2,197.8,238.8,197.8,240.3,197.9z"/>
		<path class="st1" d="M277.1,245.3l0.1-1.4c-3.6-0.2-7.1-0.7-10.5-1.3c-0.1,0.5-0.3,0.9-0.4,1.4
			C269.8,244.6,273.4,245.1,277.1,245.3z"/>
		<path class="st1" d="M253.1,240.2c0.3-0.4,0.5-0.8,0.8-1.2c-2.5-1-4.9-2-7.1-3.2c-0.3,0.4-0.6,0.7-1,1.1
			C248.1,238.1,250.5,239.2,253.1,240.2z"/>
		<path class="st1" d="M282.9,245.5c3.2,0,6.4-0.2,9.5-0.5c-0.1-0.4-0.2-0.9-0.4-1.2c-2.7,0.3-5.4,0.4-8.2,0.4c-0.5,0-1.1,0-1.6,0
			l0,1.4C282.4,245.5,282.6,245.5,282.9,245.5z"/>
		<path class="st1" d="M282.6,273.5c3-0.1,6.1-0.3,9.1-0.6c2.6-0.3,5.1-0.6,7.6-0.9c-2.4-10.5-4.7-19.1-6.3-24.9
			c-3.5,0.6-7.1,1-10.8,1.1L282.6,273.5z"/>
		<path class="st2" d="M282.6,273.5l0,1.5c0.8,0,1.6,0,2.4,0c5,0,9.9-0.4,14.8-1.1c-0.1-0.7-0.3-1.3-0.4-1.9
			c-2.5,0.3-5.1,0.6-7.6,0.9C288.7,273.3,285.6,273.5,282.6,273.5z"/>
		<path class="st1" d="M241.2,234c0.4-0.3,0.7-0.7,1.1-1c-1.8-1.3-3.5-2.7-5-4.1c-0.4,0.3-0.8,0.6-1.2,0.9
			C237.6,231.2,239.3,232.6,241.2,234z"/>
		<path class="st1" d="M282.1,245.5l0-1.4c-1.6,0-3.3-0.1-4.9-0.2l-0.1,1.4C278.8,245.4,280.5,245.4,282.1,245.5z"/>
		<path class="st1" d="M282.1,245.5l0,2.8c3.7-0.1,7.3-0.5,10.8-1.1c-0.2-0.8-0.5-1.6-0.7-2.3c-3.1,0.4-6.2,0.5-9.5,0.5
			C282.6,245.5,282.4,245.5,282.1,245.5z"/>
		<path class="st1" d="M245.8,236.9c0.3-0.4,0.6-0.7,1-1.1c-1.6-0.9-3.1-1.8-4.5-2.8c-0.4,0.3-0.7,0.7-1.1,1
			C242.7,235,244.2,235.9,245.8,236.9z"/>
		<path class="st1" d="M228.6,205.2c0.5-0.1,1-0.1,1.5-0.2c0.1-0.6,0.3-1.2,0.5-1.8c-0.5,0.1-1,0.3-1.6,0.4
			C228.9,204.1,228.8,204.6,228.6,205.2z"/>
		<path class="st1" d="M229.1,203.6c0.5-0.1,1-0.3,1.6-0.4c0.1-0.2,0.2-0.5,0.2-0.7c-0.5,0.1-1,0.1-1.5,0.2
			C229.3,203,229.2,203.3,229.1,203.6z"/>
		<path class="st2" d="M229.4,202.7c0.5-0.1,1-0.1,1.5-0.2c0.3-0.8,0.6-1.6,0.9-2.4c-0.5,0.2-1.1,0.3-1.6,0.5
			C229.9,201.2,229.6,201.9,229.4,202.7z"/>
		<path class="st2" d="M232.6,198.4c-0.3,0.5-0.5,1.1-0.8,1.6c2.8-0.8,5.6-1.5,8.5-2.2c-1.5,0-3.1-0.1-4.7-0.1
			C234.6,198,233.6,198.2,232.6,198.4z"/>
		<path class="st2" d="M231.1,198.8c-0.3,0.6-0.6,1.2-0.8,1.7c0.5-0.2,1.1-0.3,1.6-0.5c0.2-0.5,0.5-1.1,0.8-1.6
			C232.1,198.5,231.6,198.7,231.1,198.8z"/>
		<path class="st1" d="M229.8,220.7c0.5-0.2,1-0.5,1.5-0.7c-0.3-0.6-0.5-1.2-0.7-1.9c-0.5,0.2-1,0.5-1.5,0.7
			C229.3,219.5,229.6,220.1,229.8,220.7z"/>
		<path class="st1" d="M236.1,229.7c0.4-0.3,0.8-0.6,1.2-0.9c-1.1-1.1-2.1-2.3-3-3.5c-0.4,0.3-0.9,0.5-1.3,0.8
			C234,227.4,235,228.6,236.1,229.7z"/>
		<path class="st1" d="M227.9,210.5c0.5-0.2,1.1-0.3,1.6-0.4c0.1-1.7,0.3-3.4,0.7-5.1c-0.5,0.1-1,0.1-1.5,0.2
			C228.2,206.9,227.9,208.7,227.9,210.5z"/>
		<path class="st1" d="M233.1,226.2c0.4-0.3,0.9-0.5,1.3-0.8c-1.2-1.7-2.3-3.5-3.1-5.3c-0.5,0.2-1,0.5-1.5,0.7
			C230.7,222.6,231.7,224.4,233.1,226.2z"/>
		<path class="st1" d="M227.9,211.3c0,0.7,0,1.4,0.1,2.1c0.5-0.2,1.1-0.3,1.6-0.5c-0.1-0.7-0.1-1.4-0.1-2.1c0-0.3,0-0.5,0-0.8
			c-0.5,0.1-1.1,0.3-1.6,0.4C227.9,210.8,227.9,211,227.9,211.3z"/>
		<path class="st1" d="M229.1,218.8c0.5-0.2,1-0.5,1.5-0.7c-0.5-1.7-0.9-3.4-1.1-5.2c-0.5,0.2-1,0.3-1.6,0.5
			C228.1,215.3,228.5,217.1,229.1,218.8z"/>
	</g>
</g>
</svg>
