<?xml version="1.0" encoding="utf-8"?>
<!-- Generator: Adobe Illustrator 27.0.0, SVG Export Plug-In . SVG Version: 6.00 Build 0)  -->
<svg version="1.1" id="Layer_1" xmlns="http://www.w3.org/2000/svg" xmlns:xlink="http://www.w3.org/1999/xlink" x="0px" y="0px"
	 viewBox="0 0 400 400" style="enable-background:new 0 0 400 400;" xml:space="preserve">
<style type="text/css">
	.st0{clip-path:url(#SVGID_00000133526007032721598660000017443951963582660246_);}
	.st1{fill:#FFFFFF;stroke:#DBDBDB;stroke-miterlimit:10;}
	.st2{fill:#872175;}
	.st3{fill:#B296C7;}
</style>
<g>
	<g>
		<defs>
			<rect id="SVGID_1_" x="7.1" y="49.5" width="385.9" height="301.4"/>
		</defs>
		<clipPath id="SVGID_00000011012378770772960030000007973761390690961805_">
			<use xlink:href="#SVGID_1_"  style="overflow:visible;"/>
		</clipPath>
		<g style="clip-path:url(#SVGID_00000011012378770772960030000007973761390690961805_);">
			<path class="st1" d="M35.7,111.9l76.9,167.7l5.2,11.3l27.5,60H393l-227.8-243C142.2,101.4,88.1,90.4,35.7,111.9z"/>
			<path class="st2" d="M7.1,49.5l28.6,62.4c52.4-21.5,106.6-10.5,129.5-4l-34.4-36.7c-13-13.8-31.1-21.7-50.1-21.7
				C80.7,49.5,7.1,49.5,7.1,49.5z"/>
			<path class="st2" d="M175,198.5c8.2-6.7,39.9,1.8,51.9,3.8c12,2.1,18.2,1.5,13.5-1.2c-4.7-2.6-61.6-20.2-75.7-17.3
				c-14.1,2.9-7.1,23.8-4.7,37.6c2.4,13.8,13.5,93.6,13.5,93.6s-3.8-88.6-4.1-96.6C169.1,210.6,166.6,205.4,175,198.5L175,198.5z"/>
			<path class="st2" d="M150,232.7l0.4,9.1c17.3,13.1,42.2,29.1,74.4,43c12.5,5.4,15.7,5.2,13,3.4
				C237.9,288.1,187.5,262.8,150,232.7L150,232.7z"/>
			<path class="st3" d="M151.5,240.8c3-4.9-2.9-9.6-2.9-9.6c-13.5-11.4-24.8-24.2-32.9-36.5c-7.3-11-4.2-17.5,3.6-18.5
				c8.5-1.1,30.9,14.8,30.9,14.8s-20.8-27-42.9-23.1c-20.5,3.6,9.2,43.1,14.6,48.9c1.9,2.1,6.5,6.7,13.7,12.9c2.3,2,3.8,4.8,4,7.8
				c0.9,13.8-15.4,26.5-18.2,29.3c-3.3,3.3-3.8,5.6-2.3,5.3c7.3-3.9,21.9-16.8,30.5-29C150.1,242.4,151,241.7,151.5,240.8
				L151.5,240.8z"/>
		</g>
	</g>
</g>
</svg>
