<?xml version="1.0" encoding="utf-8"?>
<!-- Generator: Adobe Illustrator 27.0.0, SVG Export Plug-In . SVG Version: 6.00 Build 0)  -->
<svg version="1.1" id="Layer_1" xmlns="http://www.w3.org/2000/svg" xmlns:xlink="http://www.w3.org/1999/xlink" x="0px" y="0px"
	 viewBox="0 0 400 400" style="enable-background:new 0 0 400 400;" xml:space="preserve">
<style type="text/css">
	.st0{clip-path:url(#SVGID_00000056411715198930778450000006120230532039561376_);}
	.st1{fill:#004683;}
	.st2{fill:#FCB627;}
	.st3{fill:#FFFFFF;}
	.st4{fill-rule:evenodd;clip-rule:evenodd;fill:#004683;}
	.st5{fill-rule:evenodd;clip-rule:evenodd;fill:#0077BF;}
</style>
<g>
	<g>
		<defs>
			<rect id="SVGID_1_" x="5.3" y="48.4" width="388.7" height="303.6"/>
		</defs>
		<clipPath id="SVGID_00000174584477363749486140000011119338744101642669_">
			<use xlink:href="#SVGID_1_"  style="overflow:visible;"/>
		</clipPath>
		<g style="clip-path:url(#SVGID_00000174584477363749486140000011119338744101642669_);">
			<path class="st1" d="M5.3,48.4h74.1c19.1,0,37.4,7.9,50.5,21.9L394,352H144.4l-27.7-60.4l-5.2-11.4L5.3,48.4L5.3,48.4z"/>
			<path class="st2" d="M206.7,200.3c0-25.1-20.3-45.4-45.4-45.4s-45.4,20.3-45.4,45.4s20.3,45.4,45.4,45.4
				C186.3,245.7,206.7,225.4,206.7,200.3z"/>
			<path class="st3" d="M115.5,200.3c0-25.2,20.5-45.7,45.7-45.7s45.7,20.5,45.7,45.7S186.4,246,161.2,246
				C136.1,246.1,115.5,225.5,115.5,200.3z M116.3,200.3c0,24.8,20.2,45,45,45s45-20.2,45-45s-20.2-45-45-45S116.3,175.5,116.3,200.3
				z"/>
			<path class="st4" d="M241.3,207.5c1.6,0.4,2.1-0.9,1-4.1c-1.1-3.2-1.9-3.3-3.1-3.7c0,0-36.7-14.2-68.4-11.1
				c-8.6,1.5-9.8,4.9-8.4,10.1c0.8,2.9,1.7,5.7,2.4,7.6c0.5,1.3-0.5,2.7-1.9,2.7c-3.5,0-10.8-0.7-23.9-4
				c-20.3-5.1-43.2-11.8-59.8-8.8c-0.2,0-0.2,0.3,0,0.4c7.5,1.9,53.7,13.2,70.1,17.2c11.5,2.8,17.8,2.6,20.6-2.4
				c2.7-5.1-0.6-10.1-2.7-13.2c-2.1-3-2.1-4.8,3.7-5.1C176.7,192.7,208.3,193.8,241.3,207.5L241.3,207.5z"/>
			<path class="st5" d="M243.1,205.4c1.6,0.4,2.1-0.9,1-4.1c-1.1-3.2-1.9-3.3-3.1-3.7c0,0-36.7-14.2-68.4-11.1
				c-8.6,1.5-9.8,4.9-8.4,10.1c0.8,2.9,1.7,5.7,2.4,7.6c0.5,1.3-0.5,2.7-1.9,2.7c-3.5,0-10.8-0.7-23.9-4
				C120.6,197.7,97.7,191,81,194c-0.2,0-0.2,0.3,0,0.4c7.5,1.9,53.7,13.2,70.1,17.2c11.5,2.8,17.8,2.6,20.6-2.4
				c2.7-5.1-0.6-10.1-2.7-13.2c-2.1-3-2.1-4.8,3.7-5.1C178.6,190.6,210.1,191.7,243.1,205.4L243.1,205.4z"/>
			<path class="st3" d="M161.3,245.8c-22.8,0-42.3-17.1-45.3-39.7c0-0.2-0.2-0.4-0.4-0.5c-3.6-0.9-34.8-8.5-35.8-8.7
				c-0.7-0.2-1.2-0.4-1.2-0.7c0-0.1,0-0.4,0.5-0.5c0.9-0.3,2.4-0.4,3.6-0.5h-0.1c-1.8-0.3-2.1-0.7-2.1-1c0-0.2,0.1-0.4,0.4-0.5
				c10.8-2.6,30.5,1.6,34.4,2.4c0.1,0,0.2,0,0.3-0.1c0.1-0.1,0.2-0.2,0.2-0.3c2.2-23.6,21.8-41.4,45.5-41.4
				c19.7,0,37.6,13.5,43.7,32.7c0,0.1,0.2,0.2,0.3,0.3c3,0.5,18.8,3.3,37.1,10.1h0.1l0.1,0.1c0.1,0.1,2.4,2.9,2.5,6.6
				c0,0.9-0.2,1.5-0.6,1.7c-0.3,0.2-0.7,0.2-1.2,0c0.1,0.7-0.1,1.4-0.5,1.7c-0.5,0.5-1.4,0.4-2.3,0c-1.5-0.8-22-8.4-33.6-10.2l0,0
				c0.1,1.8,0.2,4.8,0,6.5C205,227.4,184.9,245.8,161.3,245.8L161.3,245.8z M206.2,197c0-0.1,0-0.3,0.1-0.4l0.2-0.1h0.2
				c11.1,1.7,32.2,9.3,34.1,10.4c0.6,0.3,1.2,0.4,1.5,0.1c0.3-0.3,0.4-1,0.1-1.7l0.5-0.4c0.5,0.3,1,0.5,1.2,0.3
				c0.2-0.1,0.3-0.5,0.3-1.1c-0.1-3.1-1.9-5.6-2.3-6.1c-18.2-6.7-33.9-9.6-36.9-10c-0.4-0.1-0.8-0.4-0.9-0.8
				c-6-19-23.7-32.2-43-32.2c-23.4,0-42.6,17.5-44.8,40.7c0,0.3-0.2,0.6-0.4,0.8c-0.2,0.2-0.6,0.2-0.9,0.2
				c-3.8-0.8-22.8-4.8-33.5-2.5c0.2,0.1,0.6,0.2,1.1,0.2c1.8,0.3,2.5,0.6,2.5,0.6l-0.2,0.7c0,0-3.1,0.1-5.1,0.5l0,0
				c1,0.2,32.2,7.9,35.8,8.7c0.5,0.1,0.9,0.5,1,1.1c3,22.3,21.4,39,44.6,39s42.9-18.1,44.9-41.3c0.1-1.7,0.1-4.6,0-6.4L206.2,197z"
				/>
		</g>
	</g>
</g>
</svg>
