<?xml version="1.0" encoding="utf-8"?>
<!-- Generator: Adobe Illustrator 26.0.1, SVG Export Plug-In . SVG Version: 6.00 Build 0)  -->
<svg version="1.1" id="Layer_1" xmlns="http://www.w3.org/2000/svg" xmlns:xlink="http://www.w3.org/1999/xlink" x="0px" y="0px"
	 viewBox="0 0 400 400" style="enable-background:new 0 0 400 400;" xml:space="preserve">
<style type="text/css">
	.st0{fill:#FFFFFF;stroke:#E0E0E0;stroke-width:0.9963;stroke-miterlimit:10;}
	.st1{fill:#DC001C;}
	.st2{fill:#01742F;}
	.st3{fill:#FF3C00;}
	.st4{fill:none;stroke:#333333;stroke-width:3;stroke-miterlimit:10;}
</style>
<path class="st0" d="M399.3,347.5c-92.1-0.2-184,0.1-276.1,0l0,0c-19.4,0-38.9,0-58.3,0c-4.1-20.4-8.2-40.9-12.3-61.5l0,0
	c-0.2-0.9-0.4-1.8-0.6-2.7l0,0c-3.1-15.4-6.2-30.9-9.3-46.3c-2.5-12.2-4.9-24.4-7.3-36.6C24.6,146.7,13.9,92.8,3.1,39
	c-0.1-0.3-0.9-2.4,0.2-4.6c1-2,3-2.6,3.3-2.8h78.3c3.7,0.2,10.6,1.1,17.9,5.2c8,4.4,12.6,10.5,14,12.6c3.4,4.5,12.5,16.5,26.1,34.5
	c3.8,5,8,10.5,12.5,16.4c4.9,6.5,10.2,13.5,15.8,20.9c21.1,28,47.3,62.7,76.9,101.9c21.4,28,54.3,62,101.9,87.3
	c10.1,5.4,20,9.9,29.6,13.7c2.6,0.9,10,3.7,15.1,11.4c1.6,2.4,2.7,4.8,3.4,6.8C398.8,344.3,399.1,346.1,399.3,347.5z"/>
<path class="st1" d="M26,83.2c4.8,2.6,8.5,6.7,11.1,11.5c5.4,0.3,10,4.7,11.6,9.7c0.6,2.3,2.2,4,3.8,5.6c-3.8-0.6-7.7-2.9-8.9-6.7
	c-0.9-3-3-5.6-5.8-6.9c2.6,6.5,4,13.6,7.1,19.9c4.4,9.4,12.2,16.9,20.8,22.3c4.6,2.9,9.5,5.1,14.6,7.2c7.6,3.1,15.2,5.9,22.9,8.6
	c13.1,4.7,26.4,9.6,37.9,17.7c9.5,6.6,17.6,15.3,23.5,25.4c3.9,6.6,7,13.6,10.3,20.5c6.4,13.3,13.1,26.8,22.6,38.3
	c4.1,5,8.6,9.6,13.2,14.1c21.1,20.4,46.3,36,73.2,47.3c29.4,12.4,60.5,19.9,92.1,24.1c-1.2,0.1-2.4,0.2-3.6,0.2
	c-35.6,0.1-71.3-3.8-106-11.8c-31-7.3-61.6-18.1-89.3-34c-12.6-7.3-24.9-15.5-35.2-26c-8-8-14.6-17.2-19.6-27.3
	c-7-14-11.3-29.1-16.3-43.9c-2.6-8-7.3-15.2-13.2-21.1c-8.3-8.3-18.4-14.3-27.9-20.8c-7.9-5.3-15.4-11.3-21.5-18.7
	c-4.8-5.9-8.3-12.7-10.5-20c-1.7-5.2-2.1-10.6-3.2-15.8C28.6,97,27,91.5,23.9,86.7c-1.1-2-2.9-3.4-4-5.4
	C22.1,81.3,24.1,82.2,26,83.2 M33,92c-1.4-1-3.6,0.4-3.4,2.1c0,1.8,2.4,2.7,3.6,1.6C34.4,94.8,34.3,92.7,33,92L33,92z"/>
<path class="st2" d="M191.1,190.7c5.8,5.3,11.4,11,16.1,17.3c4.1,5.4,7.6,11.3,11.2,17c6.7,10.9,14.8,20.9,23.4,30.3
	c15.3,16.5,34.6,29,55.3,37.5c7.7,3.2,15.5,5.7,23.5,8.3c-6.1-0.2-12.2-0.9-18.2-1.8c-28-4.3-55.5-14.7-78.1-32.1
	c-16.2-12.3-29.7-28.6-38.1-47.3c-6-12.5-13.5-24.4-22.8-34.8c-8.3-9.1-18.2-17-29.5-21.9c-1.8-0.8-3.7-1.4-5.5-2.4
	c9.9,2.5,19.9,5.4,29.4,9.2C170.1,174.9,181.5,181.9,191.1,190.7z"/>
<path class="st3" d="M91.7,185.2c6.1,11,8.9,23.4,11.7,35.6c2.8,11.9,5.6,24.1,11.6,34.9c6.1,11,13.8,21.1,23,29.6
	c9.1,8.5,19.7,15.2,30.4,21.4c3.6,2.2,7.3,3.9,10.9,6.2c-6.7,0.4-13.5-0.1-20.1-1c-16.3-2.5-32.5-8.8-45-19.9
	c-9.1-8.2-16-18.6-20.8-29.9c-4.8-11.4-5.6-24-4.9-36.2c0.4-10.2,1-20.6,0-30.9c-0.5-6.5-2.1-12.9-3.5-19.3
	C87.7,178.3,89.7,181.7,91.7,185.2L91.7,185.2z"/>
<path class="st4" d="M398.7,346.9c-92.1-0.2-184,0.1-276.1,0H64.3c-4.1-20.4-8.2-40.9-12.3-61.5l0,0l-0.6-2.7l0,0l-9.3-46.4
	c-2.5-12.2-4.9-24.4-7.3-36.6C24.1,146,13.3,92.2,2.5,38.4c-0.6-1.5-0.5-3.1,0.2-4.6C3.5,32.5,4.6,31.5,6,31h78.3
	c6.3,0.4,12.4,2.1,17.9,5.2c5.5,3.1,10.3,7.4,14,12.5c3.4,4.5,12.5,16.5,26.1,34.5c3.8,5,8,10.5,12.5,16.4
	c4.9,6.5,10.2,13.4,15.8,20.9c21.1,28,47.3,62.7,76.9,101.9c21.4,28,54.3,62,101.9,87.3c9.6,5.1,19.5,9.7,29.6,13.8
	c6.1,2,11.5,6,15.1,11.4c1.4,2.1,2.5,4.4,3.4,6.8C398.2,343.7,398.5,345.5,398.7,346.9z"/>
</svg>
