<?xml version="1.0" encoding="utf-8"?>
<!-- Generator: Adobe Illustrator 27.0.0, SVG Export Plug-In . SVG Version: 6.00 Build 0)  -->
<svg version="1.1" id="Layer_1" xmlns="http://www.w3.org/2000/svg" xmlns:xlink="http://www.w3.org/1999/xlink" x="0px" y="0px"
	 viewBox="0 0 400 400" style="enable-background:new 0 0 400 400;" xml:space="preserve">
<style type="text/css">
	.st0{clip-path:url(#SVGID_00000031907888346917013860000018207733724504762004_);}
	.st1{fill:#D8232A;}
	.st2{fill:#F4BF24;}
	.st3{fill:#41AC4A;}
	.st4{fill:#1B191A;}
	.st5{fill:#FFFFFF;}
	.st6{fill-rule:evenodd;clip-rule:evenodd;fill:#CC2229;}
	.st7{fill-rule:evenodd;clip-rule:evenodd;fill:#FFF22D;}
</style>
<g>
	<g>
		<defs>
			<rect id="SVGID_1_" x="4" y="48.9" width="392.5" height="302.1"/>
		</defs>
		<clipPath id="SVGID_00000104708379973575943810000009617937759983820946_">
			<use xlink:href="#SVGID_1_"  style="overflow:visible;"/>
		</clipPath>
		<g style="clip-path:url(#SVGID_00000104708379973575943810000009617937759983820946_);">
			<path class="st1" d="M271.6,219.1H82.1l20.6,44.9h211.4L271.6,219.1z"/>
			<path class="st2" d="M314.1,264H102.7l19.3,42.1h232L314.1,264z"/>
			<path class="st3" d="M354,306.1H122l20.6,44.9h253.9L354,306.1z"/>
			<path class="st3" d="M24.9,94.4h128.6l-18.8-19.9c-15.5-16.3-37-25.6-59.5-25.6H4L24.9,94.4z"/>
			<path class="st1" d="M45.2,138.7L63.3,178h169.5l-37.3-39.3H45.2z"/>
			<path class="st4" d="M232.7,178H63.3l18.8,41h189.5L232.7,178z"/>
			<path class="st2" d="M45.2,138.7h150.3l-42-44.3H24.9L45.2,138.7z"/>
			<path class="st5" d="M144.3,199.7l241.5,140L193.5,136.6L144.3,199.7z"/>
			<path class="st6" d="M226.9,180.4l-19,14.1l6.7,22.3l-18-13.7l-18.5,12.4l7.6-21.4L167.3,180h23.3l6.9-19l6.5,19.4H226.9
				L226.9,180.4z"/>
			<path class="st7" d="M185.3,192.3l7.2-6.4c8.2,0.8,13.2,4.5,19.3,11.9l-3.5,13.2l-3.8-0.2H187L185.3,192.3L185.3,192.3z"/>
			<path d="M208.2,211.4C208.1,211.4,208.1,211.4,208.2,211.4l-3.8-0.2h-17.5c-0.2,0-0.4-0.2-0.4-0.4l-1.6-18.5c0-0.1,0-0.3,0.1-0.4
				l7.2-6.4c0.1-0.1,0.2-0.1,0.3-0.1c8.9,0.9,13.9,5.1,19.5,12.1c0.1,0.1,0.1,0.3,0.1,0.4l-3.5,13.2
				C208.5,211.3,208.3,211.4,208.2,211.4L208.2,211.4z M211.2,197.8c-6.3-7.8-11.2-10.8-18.6-11.6l-6.9,6.2l1.5,17.9h17.1l3.4,0.2
				L211.2,197.8L211.2,197.8z"/>
			<path d="M204.1,211.2H204c-0.2-0.1-0.4-0.3-0.3-0.5l0.9-3.6c-5-0.5-9.9-0.3-15.1-0.1c-1,0-1.9,0.1-2.9,0.1
				c-0.2,0-0.5-0.2-0.5-0.4s0.2-0.5,0.4-0.5c1,0,2-0.1,2.9-0.1c5.2-0.2,10.2-0.5,15.3,0.1l0.9-3.8c-6.6-0.4-11.2-0.5-18.7,0.3
				c-0.2,0-0.5-0.2-0.5-0.4s0.2-0.5,0.4-0.5c7.7-0.8,12.3-0.7,19-0.3l0.6-2.6c0.1-0.2,0.3-0.4,0.5-0.3s0.4,0.3,0.3,0.5l-1.8,7.3
				c0,0.1,0,0.1,0,0.2c0,0.1-0.1,0.3-0.1,0.3l-0.9,3.8C204.5,211,204.3,211.2,204.1,211.2L204.1,211.2z M185.9,200.6
				c-0.2,0-0.4-0.2-0.4-0.4s0.1-0.5,0.3-0.5c4.1-0.9,17.1-1.8,20-0.5c0.2,0.1,0.3,0.4,0.2,0.6c-0.1,0.2-0.4,0.3-0.6,0.2
				C202.9,198.9,190.3,199.6,185.9,200.6C186,200.6,185.9,200.6,185.9,200.6L185.9,200.6z"/>
			<path class="st7" d="M197.7,200.5c0-0.4,0.4-0.7,0.8-0.7c0.4,0,0.7,0.4,0.6,0.7c0,0.4-0.4,0.8-0.7,0.8
				C198,201.3,197.6,200.9,197.7,200.5z M191.7,200.6c0.1-0.4,0.4-0.7,0.8-0.7c0.4,0,0.7,0.4,0.7,0.7c-0.1,0.4-0.4,0.8-0.8,0.8
				C192,201.3,191.7,201,191.7,200.6z"/>
			<path d="M192.4,201.8c-0.7,0-1.1-0.5-1.1-1.3c0.1-0.5,0.6-1,1.2-1c0.7,0,1.1,0.6,1.1,1.2C193.5,201.3,193,201.8,192.4,201.8
				L192.4,201.8z M192.2,200.6c0,0.1,0,0.4,0.3,0.4c0.1,0,0.3-0.2,0.4-0.4c0-0.1,0-0.3-0.3-0.3C192.4,200.3,192.2,200.5,192.2,200.6
				z M198.4,201.7c-0.4,0-0.7-0.2-0.9-0.4s-0.3-0.6-0.2-0.8c0-0.6,0.6-1.1,1.2-1.1c0.4,0,0.7,0.1,0.9,0.4c0.2,0.2,0.3,0.6,0.2,0.7
				C199.6,201.1,199.1,201.7,198.4,201.7L198.4,201.7z M198.6,200.2c-0.2,0-0.4,0.2-0.4,0.4c0,0.1,0,0.1,0,0.2
				c0,0.1,0.1,0.1,0.2,0.1c0.1,0,0.3-0.1,0.3-0.4v-0.2C198.7,200.2,198.6,200.2,198.6,200.2L198.6,200.2z"/>
			<path class="st7" d="M183,194.8c-2.3,0-1.7-1.2-0.8-1.8c8-7,12-10.6,18.7-14.6c0.2-1.9,3.2-10.4,4.3-11.7
				c1.8-2.9,7.9-2.6,6.6,1.4c2.3,0.1,2.6,0.8,2.8,2.8c-0.7-1.1-2.4-0.4-3.1,0.2c0.1,3.9-1.6,8.6-1,11.8c-1,6.3,7.1,13.6-0.7,19
				c-0.1,0.1-0.3,0.2-0.4,0.3c-0.2,0.1-0.6,1.6-0.6,1.6c-1.1-4.1-0.6,1.1-2,0.6c0.7-5-5.5-9.4-6.3-12.5
				C197.6,193.6,197.2,192.3,183,194.8L183,194.8z"/>
			<path d="M207.1,204.9c-0.1,0-0.2,0-0.3,0c-0.2-0.1-0.3-0.3-0.3-0.5c0.4-3-1.7-5.7-3.7-8.2c-1.1-1.4-2-2.6-2.4-3.7
				c-1.4,0.7-2.4,0.8-4.6,1c-2.2,0.2-5.9,0.5-12.6,1.7c0,0,0,0-0.1,0c-1.2,0-1.8-0.3-2-0.9c-0.2-0.7,0.4-1.3,0.9-1.6l1.9-1.7
				c6.8-5.9,10.6-9.2,16.7-12.9c0.4-2.3,3.2-10.4,4.4-11.6c1.3-2,4.2-2.6,6-1.8c1.2,0.6,1.7,1.7,1.5,3c2.1,0.2,2.5,1.2,2.7,3.2
				c0,0.2-0.1,0.4-0.3,0.5s-0.4,0-0.5-0.2s-0.3-0.3-0.5-0.3c-0.5-0.1-1.2,0.2-1.7,0.5c0,1.7-0.3,3.5-0.6,5.3
				c-0.4,2.3-0.7,4.5-0.4,6.3c0,0,0,0.1,0,0.2c-0.4,2.2,0.5,4.6,1.3,7c1.5,4.3,3,8.7-2.1,12.3c-0.1,0.1-0.3,0.2-0.5,0.3
				c-0.1,0.2-0.3,0.8-0.5,1.4c-0.1,0.2-0.2,0.3-0.4,0.3s-0.4-0.2-0.4-0.3c-0.1-0.2-0.1-0.4-0.2-0.6c-0.2,0.6-0.4,1.2-0.8,1.4
				C207.3,204.9,207.2,204.9,207.1,204.9L207.1,204.9z M208.2,201.8c0.3,0,0.5,0.2,0.6,0.6c0.2-0.4,0.3-0.5,0.4-0.6
				c0.1,0,0.3-0.1,0.4-0.2c4.7-3.2,3.3-7.2,1.9-11.3c-0.8-2.4-1.7-4.9-1.4-7.3c-0.3-1.9,0-4.1,0.4-6.5c0.3-1.8,0.6-3.7,0.6-5.4
				c0-0.2,0.1-0.3,0.2-0.4c0.5-0.3,1.6-0.9,2.6-0.8c0.1,0,0.1,0,0.2,0c-0.2-1.1-0.7-1.4-2.3-1.5c-0.1,0-0.3-0.1-0.3-0.2
				c-0.1-0.1-0.1-0.2-0.1-0.4c0.5-1.5-0.2-2.2-0.9-2.5c-1.4-0.7-3.9-0.2-5,1.5c-1,1.1-4,9.5-4.2,11.4c0,0.1-0.1,0.3-0.2,0.3
				c-6.1,3.7-9.9,7-16.7,12.9l-2,1.7c-0.4,0.2-0.6,0.6-0.6,0.7c0,0.1,0.3,0.3,1.1,0.3c6.8-1.2,10.4-1.5,12.6-1.7
				c2.5-0.2,3.2-0.3,4.7-1.1c0.1-0.1,0.3-0.1,0.4,0c0.1,0,0.2,0.2,0.3,0.3c0.3,1.1,1.3,2.4,2.4,3.9c1.8,2.3,3.8,4.9,3.9,7.8
				c0.1-0.2,0.1-0.4,0.2-0.6C207.7,202.3,207.8,201.8,208.2,201.8L208.2,201.8z"/>
			<path d="M209.9,202.4c-0.2,0-0.4-0.3-0.4-0.5c0.4-2.6-0.3-3.8-1.1-5.1s-1.7-2.8-1.6-6c0-0.2,0.2-0.4,0.4-0.4s0.4,0.2,0.4,0.5
				c-0.1,2.9,0.7,4.2,1.5,5.5c0.9,1.4,1.7,2.8,1.2,5.7C210.3,202.3,210.1,202.4,209.9,202.4L209.9,202.4z M200.8,192.4
				c-0.2,0-0.4-0.2-0.4-0.4s0.1-0.5,0.4-0.5c0.5-0.1,1.3-0.3,1.7-1.1c0.4-0.7,0.3-1.8-0.2-3.1c-0.1-0.2,0-0.5,0.2-0.6s0.5,0,0.6,0.2
				c0.6,1.6,0.7,2.9,0.2,3.9C202.8,191.7,202,192.3,200.8,192.4C200.9,192.4,200.8,192.4,200.8,192.4L200.8,192.4z M210.5,184
				c-0.2,0-0.3-0.1-0.4-0.3c-1.1-2.5-3.9-3.3-8.5-4.5l-0.5-0.1c-0.2-0.1-0.4-0.3-0.3-0.5c0.1-0.2,0.3-0.4,0.5-0.3l0.5,0.1
				c4.9,1.3,7.8,2,9.1,5c0.1,0.2,0,0.5-0.2,0.6C210.7,184,210.5,184,210.5,184L210.5,184z"/>
			<path d="M191.5,207.1l-1.1-1.7l-1.8,1.4l-0.9-1.5l-1.2,1.1l-0.6-0.6l2-1.9l1,1.6l1.8-1.4l1.1,1.7l1.7-1.4l1.4,1.5l1.8-1.5
				l1.1,1.5l2-1.5l1,1.4l1.9-1.6l1,1.3l1.7-1.2l0.5,0.7l-2.4,1.8l-0.9-1.3l-1.8,1.6l-1.1-1.4l-2,1.5l-1-1.5l-1.7,1.5l-1.4-1.5
				L191.5,207.1L191.5,207.1z M191.7,205.2l-1.1-1.6l-1.8,1.3l-0.9-1.5l-1.2,1.1l-0.6-0.7l2-1.8l1,1.5l1.8-1.3l1,1.6l1.7-1.4
				l1.5,1.5l1.7-1.5l1.2,1.5l1.9-1.5l1.1,1.4l1.8-1.5l1.1,1.2l1.6-1.2l0.5,0.7l-2.3,1.8l-1.1-1.2l-1.9,1.5l-1.1-1.4l-1.9,1.5
				l-1.1-1.5l-1.6,1.5l-1.5-1.5L191.7,205.2L191.7,205.2z"/>
			<path d="M208.8,168.6c-0.4,0-0.7-0.1-0.9-0.4c-0.2-0.2-0.2-0.5-0.2-0.7s0.1-0.4,0.3-0.6c0.3-0.2,0.7-0.4,1.1-0.4
				c0.6,0,1.1,0.5,1.1,1C210,168.2,209.4,168.6,208.8,168.6L208.8,168.6z M209,166.9c-0.3,0-0.6,0.1-0.8,0.3
				c-0.1,0.1-0.2,0.2-0.2,0.3c0,0.2,0,0.3,0.1,0.4c0.1,0.2,0.3,0.2,0.6,0.2c0.4,0,0.9-0.3,0.9-0.7
				C209.7,167.2,209.4,166.9,209,166.9L209,166.9z"/>
		</g>
	</g>
</g>
</svg>
