<?xml version="1.0" encoding="utf-8"?>
<!-- Generator: Adobe Illustrator 27.0.0, SVG Export Plug-In . SVG Version: 6.00 Build 0)  -->
<svg version="1.1" id="Layer_1" xmlns="http://www.w3.org/2000/svg" xmlns:xlink="http://www.w3.org/1999/xlink" x="0px" y="0px"
	 viewBox="0 0 400 400" style="enable-background:new 0 0 400 400;" xml:space="preserve">
<style type="text/css">
	.st0{clip-path:url(#SVGID_00000018930098924202112050000002313623398129377710_);}
	.st1{fill:#702B91;}
	.st2{fill:#FFFFFF;}
	.st3{fill:#21B9DA;}
</style>
<g>
	<g>
		<defs>
			<rect id="SVGID_1_" x="3.9" y="48.1" width="393.1" height="304.2"/>
		</defs>
		<clipPath id="SVGID_00000124842069062260287420000002228797901079765163_">
			<use xlink:href="#SVGID_1_"  style="overflow:visible;"/>
		</clipPath>
		<g style="clip-path:url(#SVGID_00000124842069062260287420000002228797901079765163_);">
			<path class="st1" d="M143.5,352.2L3.9,48.1h85.8c13.3,0,26,5.5,35.1,15.2l272.1,289L143.5,352.2L143.5,352.2z"/>
			<path class="st2" d="M272.3,222c0,0-17.5,15.8-20.4,18.1c2.3,5.6,5.2,18,5.3,27.8c15-6,32.8-26,32.8-26s-4.7-4.9-8.9-9.5
				C276.4,227.2,272.3,222,272.3,222L272.3,222z"/>
			<path class="st2" d="M181.6,227.5c-5.5-10.4,16.1-11.1,32.6,10.9s14.3,46.9-10.7,57s-54.2-17.1-54.2-17.1l-16.3,21
				c0,0,34.5,33,75.5,22.2s50.8-52,36.7-82.2s-31.4-38.9-51.2-44.1c-19.9-5.2-53.6,13.3-35.3,45.5s43.9,35.6,56,37.7
				c7.6-9.7,0.2-27,0.2-27S193.6,249.9,181.6,227.5z"/>
			<path class="st3" d="M112.4,282.6l16.7-20.5l15.2,12.5l-16.6,20.9L112.4,282.6z"/>
		</g>
	</g>
</g>
</svg>
