<?xml version="1.0" encoding="utf-8"?>
<!-- Generator: Adobe Illustrator 27.0.0, SVG Export Plug-In . SVG Version: 6.00 Build 0)  -->
<svg version="1.1" id="Layer_1" xmlns="http://www.w3.org/2000/svg" xmlns:xlink="http://www.w3.org/1999/xlink" x="0px" y="0px"
	 viewBox="0 0 400 400" style="enable-background:new 0 0 400 400;" xml:space="preserve">
<style type="text/css">
	.st0{clip-path:url(#SVGID_00000054974312062487960110000005912463808673386422_);}
	.st1{fill:#FEFEFE;stroke:#C6C6C6;stroke-miterlimit:10;}
	.st2{fill:#9E6A30;}
	.st3{fill:#AD4565;}
	.st4{fill:#D87986;}
	.st5{fill:#74A2BA;}
	.st6{fill:#8AB757;}
	.st7{fill:#E77534;}
	.st8{fill:#F6C022;}
	.st9{fill:#6DC6C0;}
	.st10{fill:#2E6085;}
	.st11{fill:#8788B6;}
	.st12{fill:#599B55;}
	.st13{fill:#E7312E;}
	.st14{fill:#4487BD;}
	.st15{fill:#F29B2F;}
</style>
<g>
	<g>
		<defs>
			<rect id="SVGID_1_" x="6" y="48.1" width="389" height="303.8"/>
		</defs>
		<clipPath id="SVGID_00000170998772007190865250000001014862351604856211_">
			<use xlink:href="#SVGID_1_"  style="overflow:visible;"/>
		</clipPath>
		<g style="clip-path:url(#SVGID_00000170998772007190865250000001014862351604856211_);">
			<path class="st1" d="M80.1,48.1c19.1,0,37.4,7.9,50.5,21.9L395,351.9H145.2l-27.7-60.4l-5.2-11.4L6,48.1H80.1z"/>
			<path class="st2" d="M327.4,300.7c0-6.2-5-11.2-11.2-11.2s-11.2,5-11.2,11.2s5,11.2,11.2,11.2
				C322.3,311.9,327.4,306.9,327.4,300.7z"/>
			<path class="st3" d="M210.6,214.7c0-5.6-4.6-10.2-10.2-10.2s-10.2,4.6-10.2,10.2s4.6,10.2,10.2,10.2S210.6,220.4,210.6,214.7z"/>
			<path class="st3" d="M216.1,247.3c0-2.4-1.9-4.3-4.3-4.3c-2.4,0-4.3,1.9-4.3,4.3c0,2.4,1.9,4.3,4.3,4.3
				C214.2,251.6,216.1,249.7,216.1,247.3z"/>
			<path class="st3" d="M210.3,234.7c0-3.7-3-6.6-6.6-6.6c-3.7,0-6.6,3-6.6,6.6c0,3.7,3,6.6,6.6,6.6S210.3,238.3,210.3,234.7z"/>
			<path class="st4" d="M140,159.1c0-3.5-2.9-6.4-6.4-6.4s-6.4,2.9-6.4,6.4s2.9,6.4,6.4,6.4S140,162.6,140,159.1z"/>
			<path class="st5" d="M273.2,299.1c0,5.3,4.3,9.6,9.6,9.6c5.3,0,9.6-4.3,9.6-9.6c0-5.3-4.3-9.6-9.6-9.6S273.2,293.8,273.2,299.1z
				 M277.8,299.1c0-2.8,2.3-5.1,5.1-5.1c2.8,0,5.1,2.3,5.1,5.1c0,2.8-2.3,5.1-5.1,5.1C280,304.2,277.8,301.9,277.8,299.1z"/>
			<path class="st6" d="M272.6,334.7c0,7.1,5.8,12.9,12.9,12.9s12.9-5.8,12.9-12.9c0-3.8-0.4-13.2-0.4-13.2s-9.1,0.3-12.5,0.3
				C278.4,321.8,272.6,327.5,272.6,334.7z M285.5,342.5c-4.3,0-7.9-3.5-7.9-7.9c0-5.3,3.5-7.9,7.9-7.9c2.2,0,5.4-0.7,6.8,0.7
				c1.4,1.4,1.1,5,1.1,7.2C293.4,339,289.9,342.5,285.5,342.5L285.5,342.5z"/>
			<path class="st7" d="M129,127.2c-6.6-0.4-11.8,4.7-12.2,11.3c-0.4,6.6,6,12.4,13.7,11c3.4-0.6,9.3,1.9,9.3,1.9s0.2-8.4,0.4-11.5
				C140.6,133.2,135.6,127.5,129,127.2z M129.1,131.8c4.4,0.2,6.3,3.3,6.1,6.9c-0.1,1.8-0.5,5.9-0.5,5.9s-4.5,0.4-6.2,0.3
				c-3.5-0.2-6.3-3.3-6.1-6.9C122.5,134.4,125.6,131.6,129.1,131.8z"/>
			<path class="st8" d="M104.3,202.3c0,19,15.4,34.3,34.3,34.3c19,0,34.3-15.4,34.3-34.3c0-10.1-0.9-34.2-0.9-34.2
				s-24.6-0.1-33.5-0.1C119.7,167.9,104.3,183.3,104.3,202.3z M113.4,202.3c0-17.2,11.3-25.3,25.3-25.3c7,0,24.9-0.6,24.9-0.6
				s0.4,18.9,0.4,25.9c0,14-11.3,25.3-25.3,25.3C124.7,227.6,113.4,216.2,113.4,202.3z"/>
			<path class="st9" d="M245.3,255.2c-7,0-12.6,5.6-12.6,12.6s5.6,12.6,12.6,12.6s12.6-5.6,12.6-12.6c0-3.7-0.4-12.8-0.4-12.8
				S248.6,255.2,245.3,255.2L245.3,255.2z"/>
			<path class="st10" d="M269.3,252.4c4.8,0.4,9-3.3,9.4-8.1s-3.3-9-8.1-9.4c-4.8-0.4-9,3.3-9.4,8.1c-0.2,2.6-0.4,8.9-0.4,8.9
				S267,252.2,269.3,252.4L269.3,252.4z"/>
			<path class="st11" d="M236,194.8c0.4-6.1-4.1-11.4-10.2-11.8c-6.1-0.4-11.4,4.1-11.8,10.2c-0.2,3.2-0.5,11.3-0.5,11.3
				s7.8,0.4,10.7,0.6C230.3,205.5,235.5,200.9,236,194.8z"/>
			<path class="st12" d="M76.9,188.9c0,5.3,4.3,9.6,9.6,9.6s9.6-4.3,9.6-9.6s-4.3-9.6-9.6-9.6S76.9,183.6,76.9,188.9z M81.5,188.9
				c0-2.8,2.3-5.1,5.1-5.1c2.8,0,5.1,2.3,5.1,5.1s-2.3,5.1-5.1,5.1C83.7,194,81.5,191.7,81.5,188.9z"/>
			<path class="st5" d="M290,265.5c0.8,2.1,1.5,4.5,1.5,6.4c0.1,4.7-0.2,14.4-0.1,16.1c0,1.7-0.7,0.9-2,0.2
				c-1.3-0.7-2.7-2.8-9.4-2.2c-6.7,0.6-16.6-4.9-17.5-9.7c-2.7-10.3-1.8-20.7-0.6-20.5c6.9-1.1,12.4-0.9,16.6-0.1
				C283.8,256.8,288.1,260.5,290,265.5L290,265.5z"/>
			<path class="st13" d="M177.2,167.6c-1.3,0.4-1.8,10.9,0.2,22.4c1,5.3,10,12.9,19.4,11.5c7.4-1.1,9.5,1.4,10.9,2.1
				c1.4,0.7,2.2,1.7,2.2-0.2c-0.1-1.9,0.2-12.6,0.1-17.9c0-2.1-0.8-4.8-1.7-7.1c-2.1-5.5-6.2-8.9-12-10.1
				C191.6,167.4,184.8,166.4,177.2,167.6L177.2,167.6z M185.1,176.2c9.3-0.2,10.9,0.5,14.3,3.2c3.4,2.7,2.4,13.5,2.4,13.5
				c-6.2,0.2-11.9,0.4-15-3.4C183.8,185.7,185.1,177.5,185.1,176.2z"/>
			<path class="st14" d="M213.8,231.6c0.5,2.8,3.8,19.2,21.4,20.3c14.4,0.9,22.1-0.2,22.1-0.2s1.1-18.4,0.2-25.3
				c-0.9-6.9-9.4-17.5-19.7-17.9c-10.2-0.5-24.2-0.6-24.2-0.6S213.4,228.8,213.8,231.6z M222.4,231c-0.3-1.7-0.1-14.4-0.1-14.4
				s8.5,0.1,14.7,0.4c6.2,0.3,11.4,6.7,11.9,10.9c0.6,4.2-0.1,15.4-0.1,15.4s-4.7,0.6-13.4,0.1C224.7,242.7,222.7,232.8,222.4,231
				L222.4,231z"/>
			<path class="st15" d="M143.1,134.1c0,0,9.5,0.1,16.4,0.4c6.9,0.3,12.6,7.4,13.3,12.1c0.6,4.7-0.1,17.1-0.1,17.1s-5.2,0.7-15,0.1
				c-11.9-0.7-14.2-11.8-14.5-13.7C142.9,148.2,143.1,134.1,143.1,134.1z"/>
		</g>
	</g>
</g>
</svg>
