<?xml version="1.0" encoding="utf-8"?>
<!-- Generator: Adobe Illustrator 27.0.0, SVG Export Plug-In . SVG Version: 6.00 Build 0)  -->
<svg version="1.1" id="Layer_1" xmlns="http://www.w3.org/2000/svg" xmlns:xlink="http://www.w3.org/1999/xlink" x="0px" y="0px"
	 viewBox="0 0 400 400" style="enable-background:new 0 0 400 400;" xml:space="preserve">
<style type="text/css">
	.st0{fill:none;}
	.st1{fill:#FEFEFE;stroke:#CCCCCC;stroke-miterlimit:10;}
	.st2{fill:url(#SVGID_1_);stroke:#CCCCCC;stroke-miterlimit:10;}
</style>
<rect x="3.3" y="46.7" class="st0" width="392.7" height="306.6"/>
<g>
	<path class="st1" d="M176.4,221.9c18.5,42.2,73.8,71,113.4,47.4l17.6-10.5l-178.2-190C120.9,60,110.6,53.6,99.3,50L176.4,221.9
		L176.4,221.9z"/>
	<path class="st1" d="M3.3,46.7l107.3,234.1l5.3,11.5l28,61H396l-39.2-41.8l-53.3,23.7c-71.8,31.9-141.6,6.2-184.8-78.1l-95-210.4
		H3.3z"/>
	
		<linearGradient id="SVGID_1_" gradientUnits="userSpaceOnUse" x1="140.7137" y1="343.0389" x2="272.3983" y2="23.2562" gradientTransform="matrix(-1 0 0 1 399.3463 2)">
		<stop  offset="0" style="stop-color:#929FC5"/>
		<stop  offset="1" style="stop-color:#243F8D"/>
	</linearGradient>
	<path class="st2" d="M118.8,257.1c43.2,84.3,113,110,184.8,78.1l53.3-23.7l-49.4-52.6l-17.6,10.5C250.3,293,195,264.1,176.5,222
		L99.4,50c-6.8-2.1-13.9-3.3-21.1-3.3H23.7L118.8,257.1L118.8,257.1z"/>
</g>
</svg>
