<?xml version="1.0" encoding="utf-8"?>
<!-- Generator: Adobe Illustrator 27.0.0, SVG Export Plug-In . SVG Version: 6.00 Build 0)  -->
<svg version="1.1" id="Layer_1" xmlns="http://www.w3.org/2000/svg" xmlns:xlink="http://www.w3.org/1999/xlink" x="0px" y="0px"
	 viewBox="0 0 400 400" style="enable-background:new 0 0 400 400;" xml:space="preserve">
<style type="text/css">
	.st0{fill:#2C71B9;}
	.st1{fill:#FFFFFF;}
</style>
<g id="UX">
	<path class="st0" d="M4,46.9l107.1,233.8l5.3,11.5l27.9,60.9H396L129.6,69C116.4,54.9,98,46.9,78.7,46.9H4z"/>
	<g>
		<g>
			<path class="st1" d="M198.1,264.8c-0.2,6,0.4,11.8,3.1,17.2c3,6.2,8.4,8.8,15.3,7.8c8.9-1.2,15.9-6,22.9-10.9
				c2.2-1.5,4.3-3.1,6.4-4.8c0.9-0.7,1.3-0.7,1.9,0.3c1,1.6,2,3.2,3.1,4.8c0.4,0.6,0.5,1.1-0.1,1.7c-8.5,7.4-16.9,15-27.5,19.2
				c-8.8,3.6-17.9,3.9-27.1,1.3c-6.5-1.8-11.3-6-14.5-12c-1.1-2.1-1.1-2.1-3-0.6c-5.7,4.7-11.7,9-18.7,11.8
				c-5.7,2.3-11.7,3.1-17.7,1.6c-9.3-2.4-14.4-9-16.4-18c-4.5-20.1-0.5-38.4,11.7-55c5.2-7,11.4-12.8,19.5-16.3
				c8.9-3.8,18-4.7,27.3-1.9c4.8,1.5,8.5,4.7,11.9,8.4c2.1,2.4,2,2.4,4.6,0.6c7.4-5.4,15.6-9.3,24.7-10.3c7.2-0.7,14.6-0.5,21.3,3.1
				c5.2,2.8,7.9,7.2,8.8,13c1.4,9.2-2.8,15.6-9.8,20.7c-6.9,5-14.4,9.2-21.5,13.7c-4.8,3-9.6,6-14.4,9c-0.4,0.3-0.9,0.9-1.4,0.5
				c-0.4-0.3-0.2-0.9-0.2-1.3c0-2.1,0.1-4.1,0-6.2c-0.1-1.2,0.4-1.9,1.4-2.6c6.4-4.3,13-8.5,18.9-13.5c3.9-3.3,7.1-7,8-12.2
				c0.6-3.4,0.7-6.7-0.6-9.9c-1.3-3.1-3.6-4.7-6.9-5.1c-7.1-0.8-13,1.8-17.7,7.1c-7.2,8-11,17.6-12.6,28.2
				C198.2,257.8,197.9,261.3,198.1,264.8z M145.1,264.8c-0.2,6.1,0.7,12,3.5,17.5c3.1,6.1,8.2,7.9,14.2,4.7
				c4.6-2.4,8.9-5.1,13.4-7.6c1.1-0.6,1-1.5,0.9-2.4c-1-7.6-0.5-15,1.4-22.4c1.4-5.5,3.6-10.7,5.3-16.1c1.2-4,2.3-8,1.6-12.3
				c-0.5-3.3-2.5-5.9-5.8-6.6c-3.7-0.9-7.3-0.5-10.8,0.9c-6.7,2.8-11.4,7.9-15.3,13.8C147.2,243.4,145.2,253.8,145.1,264.8z"/>
		</g>
	</g>
</g>
</svg>
