<?xml version="1.0" encoding="utf-8"?>
<!-- Generator: Adobe Illustrator 27.0.0, SVG Export Plug-In . SVG Version: 6.00 Build 0)  -->
<svg version="1.1" id="Layer_1" xmlns="http://www.w3.org/2000/svg" xmlns:xlink="http://www.w3.org/1999/xlink" x="0px" y="0px"
	 viewBox="0 0 400 400" style="enable-background:new 0 0 400 400;" xml:space="preserve">
<style type="text/css">
	.st0{clip-path:url(#SVGID_00000101080426751030683870000001475998035411934623_);}
	.st1{fill:#FFFFFF;stroke:#E2E2E2;stroke-miterlimit:10;}
	.st2{fill:#33A457;}
	.st3{fill:#2B3E78;}
</style>
<g>
	<g>
		<defs>
			<rect id="SVGID_1_" x="3.9" y="47" width="391.8" height="306"/>
		</defs>
		<clipPath id="SVGID_00000015319709325912747210000000667102622244172165_">
			<use xlink:href="#SVGID_1_"  style="overflow:visible;"/>
		</clipPath>
		<g style="clip-path:url(#SVGID_00000015319709325912747210000000667102622244172165_);">
			<path class="st1" d="M78.6,47c19.3,0,37.7,8,50.9,22l266.2,284H144.1l-27.9-60.9l-5.3-11.5L3.9,47H78.6z"/>
			<path class="st2" d="M165.4,329.8c1.1-7.3,5.2-13.1,10.1-18.3c7-7.4,14.8-13.9,23.3-19.6c7.2-4.8,13.9-10.2,18.4-17.8
				c4.1-7.1,2-11.8-6.2-13.2c-5.6-1-11.3-1.3-17-1.1c-3.6,0.1-6.3-1.1-8.7-3.8c-4.2-4.6-8.1-9.4-12.9-13.4
				c-6.4-5.4-9.1-5.7-16.2-1.4c-2.9,1.7-5.7,3.1-9.3,2.2c-10.2-2.5-21.3-16-21.6-26.4c-0.2-8.6,0.9-17.2,1.7-25.8
				c1.6-16.6-5.3-32-19.3-42.4c-6.1-4.5-17.5-10.3-22.3-13.1c11.9,4.5,26.7,11.8,37.1,19.3c13.2,9.5,19.9,22.2,16.6,38.9
				c-1.5,7.4-2.9,14.9-3.9,22.4s3,13.1,8.5,17.2c4.8,3.6,7.9-1.5,11.3-3.6c6.9-4,10.3-3.9,16.3,1.4c5.7,5.1,9.8,11.6,14.9,17.2
				c3.4,3.7,7.1,5.4,12.3,5.3c6.7-0.1,13.5-1.2,20.1,0.5c13.4,3.4,17.4,15.5,8.8,26c-1.4,1.7-3,3.3-4.5,4.9
				c-10.1,10.4-22.5,17.6-34.3,25.7c-9.4,6.4-19.6,12-21.7,24.7C166.7,335.8,165.1,331.8,165.4,329.8z"/>
			<path class="st3" d="M118.7,198c-2.9,16.8,0,31.5,13.3,43.1c3.6,3.2,8,5.2,12.9,8.1c-16.9-1.3-32.4-14.3-37.1-30.5
				c-2.2-7.6-2.3-15.3-1.4-23c5.8-44.9-17.5-47.8-18.3-49.7C88.5,145.9,122.2,154.4,118.7,198z"/>
			<path class="st3" d="M156.5,223.2c-9.7-0.4-15.7-8-13.7-16.4c0.9-3.7,1.9-7.3,3-11c2.6-9.3,1.1-17.9-2.9-26.5
				c-5.8-12.3-16.4-18.6-28.2-23.6c-9.2-3.9-18.3-7.6-28.3-11.7c1.3-0.4,31.9,5.8,45.6,12.7c23.5,11.9,30.9,31.4,21.3,55.4
				C150.2,209.5,149.9,216.5,156.5,223.2L156.5,223.2z"/>
			<path class="st3" d="M185.7,183.5c-7.3-1-14.1-3.2-20.2-8.5c-0.1,2.9,1.5,4.1,3.1,5.2c4.9,3.7,10.8,5.3,16.7,6.7
				c2.3,0.6,4.7,1,7,1.7c1.3,0.4,3,0.5,3.3,2.1c0.3,1.7-1.6,1.9-2.6,2.8c-0.8,0.8-2.3,1.2-1.9,2.7c0.5,1.6,2,1.7,3.4,1.7
				c2.9,0,5.9,0,8.8,0c3.2-0.1,6.1,0.6,8.4,3.1c1.5,1.7,3.7,2.4,6.1,2.4c5.5,0.1,11,0.5,16.5,0.6c3.9,0.1,4.9,3.4,6.7,5.8
				c1.3,1.8-0.4,3.2-1.1,4.7c-0.6,1.2-1.4,1.6-2.9,1.1c-5.7-1.9-11.6-0.2-17.5-0.5c-2.6-0.1-4,1.7-5.8,3c-6.6,4.8-13.7,7.5-21.7,4
				c-3.4-1.5-5.6-3.9-4.6-8.1c1-4.1,3.6-5.4,7.6-5.1c4.1,0.3,8.3,0,12.4,0.1c2.7,0,2.8-1,1.7-3.1c-3.4-6.2-14.1-7.6-20.6-2.5
				c-4.6,3.6-8,8.2-6.4,14.2c1.7,6.6,7.5,9.3,13.6,10.6c11.4,2.4,16.3,8,16.8,19.9c0,0.5,0.3,0.9,0.5,1.4c8-5.4,8.9-11.9,2.8-19.6
				c-1.3-1.7-4.6-3-3.6-5c1.1-2.2,3.9-4.5,6.3-5c6.2-1.2,12.5-2.6,18.9-0.8c1.9,0.5,3.9,2.1,5.3-0.7c1.5-2.9,5.2-5.1,3.3-9.1
				c-2.6-5.2-5.6-9.8-12.8-8.8c-3.4,0.5-6.9,0-10.3-0.2c-1.5-0.1-3.6,0-4.5-0.8c-5.6-5.4-12.7-4.7-20.3-5.1c4.9-3.9,4.8-4.9-0.1-7.2
				C194.1,185.4,189.9,184,185.7,183.5L185.7,183.5z M194,205.9c3.9-3.1,7-2.7,10-0.3C200.9,206.7,197.8,206.8,194,205.9z"/>
			<path class="st3" d="M152.9,250.5l8.6-5.5l8.6,5.5l-8.6,5.5L152.9,250.5z"/>
		</g>
	</g>
</g>
</svg>
