<?xml version="1.0" encoding="utf-8"?>
<!-- Generator: Adobe Illustrator 27.0.0, SVG Export Plug-In . SVG Version: 6.00 Build 0)  -->
<svg version="1.1" id="Layer_1" xmlns="http://www.w3.org/2000/svg" xmlns:xlink="http://www.w3.org/1999/xlink" x="0px" y="0px"
	 viewBox="0 0 400 400" style="enable-background:new 0 0 400 400;" xml:space="preserve">
<style type="text/css">
	.st0{fill-rule:evenodd;clip-rule:evenodd;fill:#007BC3;}
	.st1{fill-rule:evenodd;clip-rule:evenodd;fill:#A1C468;}
	.st2{fill:none;}
	.st3{fill:#FFFFFF;}
	.st4{fill-rule:evenodd;clip-rule:evenodd;fill:#FFFFFF;}
</style>
<path class="st0" d="M397,373.6H89.6L46.8,201.2L3,26.2l73.8,0.1c16.4,0,32.4,11.2,43.1,23.6L397,373.6L397,373.6z"/>
<path class="st1" d="M397,373.6h-29L76.8,26.3c18.7-0.2,32.4,11.2,43.1,23.6L397,373.6L397,373.6z"/>
<g>
	
		<rect x="-77.9" y="66.8" transform="matrix(0.1803 -0.9836 0.9836 0.1803 -138.9782 314.2706)" class="st2" width="394" height="347.4"/>
	<path class="st3" d="M224.8,360.6l-13.5-16.8l32.1-45.1l-50.8,21.9l-13.1-16.3l73.2-27.1l14,17.4L224.8,360.6z"/>
	<path class="st3" d="M201.3,271.4l8.4,13.7c-3.1,1.7-5.7,2.7-7.9,3.1c-2.3,0.4-4.6,0.2-7.1-0.6c-1.8-0.5-3.7-1.7-5.8-3.4
		c-2.1-1.7-4.2-3.8-6.1-6.2c-3.1-3.9-5.4-7.2-6.8-10c-1.4-2.8-1.8-5.7-1.4-8.6c0.3-2.1,1.3-4.3,2.9-6.7c1.6-2.4,3.5-4.4,5.4-6
		l18.5-14.9c2-1.6,3.4-2.9,4.4-4s2-2.7,3.2-4.8l9.8,12.2c-0.7,1.4-1.2,2.3-1.7,2.9c-0.5,0.6-1.2,1.4-2.3,2.6
		c3.4,0.1,6.2,0.6,8.4,1.6c3,1.4,5.7,3.6,8.2,6.6c3.3,4.1,4.6,8.1,4,12c-0.6,4-2.6,7.3-6,10c-3.2,2.6-6.4,3.9-9.7,4.1
		c-3.3,0.1-7.1-1.4-11.3-4.7c-5.1-3.9-8.5-6.4-10.2-7.4c-1.7-1.1-3.5-2.1-5.6-3.1c-2,1.6-3.1,3-3.3,4.3c-0.3,1.3,0.3,2.8,1.6,4.4
		c1.7,2.1,3.4,3.4,5.1,3.8C197.3,272.6,199.1,272.3,201.3,271.4L201.3,271.4z M200.6,253.3c2.2,1.2,4.4,2.5,6.6,3.9
		c3,1.9,5.2,2.9,6.6,3c1.5,0,2.7-0.4,3.9-1.3c1.3-1,2-2.2,2.3-3.6c0.2-1.4-0.2-2.7-1.3-4.1c-1.2-1.4-2.7-2.5-4.6-3
		c-1.9-0.5-3.6-0.6-5.3-0.1s-3.5,1.5-5.5,3.2L200.6,253.3L200.6,253.3z"/>
	<path class="st3" d="M146.3,266.1l-10.8-13.4l59.1-47.6l10.8,13.4L146.3,266.1z"/>
	<path class="st3" d="M155.7,156.8l11,13.6l-6.7,5.4c4.4-0.2,8,0.2,10.9,1.4c2.8,1.1,5.5,3.2,7.9,6.2c3.2,4,4.4,8.2,3.6,12.6
		c-0.8,4.4-3.9,8.8-9.4,13.2l-26.6,21.4L134.5,216l23-18.5c2.6-2.1,4.1-4,4.5-5.8s-0.1-3.5-1.3-5c-1.4-1.7-3.3-2.6-5.6-2.5
		c-2.4,0.1-5.4,1.7-9.3,4.7l-20.1,16.2l-11.8-14.6L155.7,156.8L155.7,156.8z"/>
	<path class="st3" d="M109.9,157.8l8.8,14.2c-3.1,1.7-5.7,2.7-8,3s-4.7,0.1-7.2-0.7c-1.8-0.6-3.8-1.8-6-3.6s-4.3-4-6.3-6.5
		c-3.2-4-5.6-7.5-7-10.4s-2-5.8-1.5-8.8c0.3-2.1,1.2-4.4,2.8-6.8c1.6-2.4,3.4-4.4,5.4-6l18.5-14.9c2-1.6,3.4-2.9,4.4-4
		c0.9-1.1,2-2.7,3.2-4.8l10.2,12.6c-0.7,1.4-1.2,2.3-1.6,3c-0.5,0.6-1.2,1.5-2.3,2.6c3.4,0.1,6.3,0.7,8.5,1.8
		c3.1,1.5,5.9,3.8,8.4,6.9c3.4,4.2,4.8,8.3,4.2,12.4c-0.6,4-2.5,7.4-5.9,10.2c-3.2,2.6-6.4,3.9-9.7,4s-7.2-1.6-11.6-5
		c-5.3-4.1-8.8-6.7-10.5-7.8s-3.6-2.2-5.7-3.2c-2,1.6-3.1,3-3.3,4.4c-0.2,1.3,0.3,2.8,1.7,4.6c1.8,2.2,3.5,3.5,5.3,3.9
		C105.8,159.1,107.6,158.8,109.9,157.8L109.9,157.8z M108.9,139.4c2.3,1.2,4.5,2.6,6.8,4.1c3.1,2,5.3,3.1,6.8,3.1
		c1.5,0.1,2.8-0.4,3.9-1.3c1.3-1,2-2.2,2.2-3.6c0.2-1.4-0.3-2.8-1.4-4.2c-1.2-1.5-2.8-2.6-4.7-3.1c-1.9-0.6-3.7-0.6-5.4-0.2
		c-1.7,0.5-3.6,1.5-5.6,3.1L108.9,139.4L108.9,139.4z"/>
	<path class="st3" d="M68.5,134l-10.8-13.4L99.5,87l10.8,13.4L68.5,134z"/>
	<path class="st3" d="M51.6,113.1l-10.2-12.6l6.8-5.5c-3.9,1.2-7,1.6-9.2,1.2s-4-1.5-5.5-3.5c-1.6-2-2.6-4.8-3.1-8.3l14.7-5
		c0.5,2.2,1.1,3.8,1.9,4.7c1.4,1.8,3.4,2.4,5.9,2c3.6-0.6,8.7-3.6,15.4-8.9l14-11.3l10.9,13.6L51.6,113.1L51.6,113.1z"/>
	<path class="st4" d="M42.5,145.6c-3.2-4-2.6-9.9,1.4-13.2c4-3.2,9.9-2.6,13.2,1.4c3.2,4,2.6,9.9-1.4,13.2
		C51.6,150.2,45.7,149.6,42.5,145.6z"/>
</g>
</svg>
