<?xml version="1.0" encoding="utf-8"?>
<!-- Generator: Adobe Illustrator 27.0.0, SVG Export Plug-In . SVG Version: 6.00 Build 0)  -->
<svg version="1.1" id="Layer_1" xmlns="http://www.w3.org/2000/svg" xmlns:xlink="http://www.w3.org/1999/xlink" x="0px" y="0px"
	 viewBox="0 0 400 400" style="enable-background:new 0 0 400 400;" xml:space="preserve">
<style type="text/css">
	.st0{clip-path:url(#SVGID_00000027598498387747664510000013651226291341721012_);}
	.st1{fill:#FF0100;}
	.st2{fill:#FFFFFF;}
</style>
<g>
	<g>
		<defs>
			<rect id="SVGID_1_" x="3.2" y="46.8" width="392.8" height="306.7"/>
		</defs>
		<clipPath id="SVGID_00000147929547380695495750000010288552423940043397_">
			<use xlink:href="#SVGID_1_"  style="overflow:visible;"/>
		</clipPath>
		<g style="clip-path:url(#SVGID_00000147929547380695495750000010288552423940043397_);">
			<path class="st1" d="M78.1,46.8c19.3,0,37.8,8,51,22.1L396,353.6H143.8l-28-61l-5.3-11.5L3.2,46.8H78.1z"/>
			<path class="st2" d="M167.3,247L167.3,247c-0.7-0.7-1.6-0.3-2.4-0.2c-6.1,0.2-12.1,0.2-17.7-2.7c-2.2-1.2-4.7-1.8-7.2-2.4
				c-4-1-8.2-1.9-12,0.3c-1.8,1.1-3.4,1-5.2,0.7c-2.9-0.4-5.4,0.3-7.2,2.8c-0.8,1.1-1,1.8,0.7,2.1c5.3,1.1,9.9,3.8,14.1,7
				c3.1,2.3,5.7,5.1,7.4,8.5c-1.4-1.3-2.8-2.7-4.3-3.9c-5.8-4.8-11.3-10.3-19.5-10.4c-0.5,0-0.8-0.2-0.7-0.9c0.4-3.4,3.9-7,7.3-7.1
				c3.2,0,6.2-0.6,9.3-1.5c5.5-1.6,11,0,16.3,1.9c2.6,0.9,5,2.3,7.6,2.7c3.6,0.6,7.3,0.5,10.9,0.4c4.1-0.1,7.5-1,10.9-3.7
				c6.5-5.3,13.6-9.9,19.8-15.7c5.1-4.8,9.9-10,12.3-16.9c1-2.8,1.1-5.6,1.1-8.6c1,0.2,1.5,0.6,2,1.1c3.2,3.2,3.9,8,1.6,13.1
				c-3.5,7.6-9.4,13.2-15.7,18.5s-13.8,8.9-20,14.4c-4.9,4.4-9,9.4-10.9,15.8c-0.3,1-0.9,1.9-0.4,3.2c0.4-1,0.8-1.7,1.1-2.5
				c3.5-7.7,8.8-13.8,16-18.3c6.6-4.1,13.1-8.4,19.1-13.3c11.8-9.6,21-21,26.3-35.4c0.6-1.5,0.8-3.3,1.9-4.8
				c0.3,0.4,0.4,0.6,0.5,0.8c2.4,4.5,2,8.9-0.2,13.4c-5.7,11.8-13.5,21.8-23.6,30.1c-6.5,5.3-13.8,9.1-21.3,12.6
				c-0.5,0.2-1.2,0.2-1.2,1c4.6-1.1,9-2.7,13.3-4.8c9.1-4.4,16.5-10.9,23.4-18.2c2.5-2.6,4.9-5.2,7.3-7.8c0.8-0.8,1.6-1.5,2.8-0.9
				s1.1,1.7,1.1,2.7c-0.1,1.4-0.8,2.7-1.6,3.8c-9.7,13.4-22.2,23.2-37.7,29c-3.2,1.2-6.4,2.3-9.6,3.5c0.5,0.3,0.9,0.3,1.2,0.3
				c7.6-1.4,14.9-3.8,21.6-7.8c5.1-3,9.8-6.5,14.5-10.2c0.5-0.3,0.9-1,1.5-0.6c0.6,0.3,0.5,1.1,0.4,1.6c-0.7,2.8-1.6,5.5-4,7.3
				c-8.8,6.4-18.4,11-28.9,13.7c-2.4,0.6-4.9,1.3-7.3,2c5.3,0.1,10.4-0.9,15.4-2.5c5.6-1.8,10.8-4.5,15.8-7.4c0.5-0.3,1-0.8,1.6-0.4
				c0.5,0.3,0.5,1,0.3,1.4c-0.8,2.6-2.1,4.9-4.5,6.3c-6.8,3.8-14,6.3-21.5,8c-3.1,0.7-6.1,1.4-9.2,2.1c4.9,0.3,9.7-0.3,14.4-1.5
				c4.9-1.2,9.6-3,14.2-4.9c0.4-0.2,0.8-0.6,1.3-0.1c0.3,0.3,0.1,0.7,0,1.1c-1.1,2.9-2.8,5.3-5.9,6.2c-7.3,2.1-14.8,3.1-22.3,3.4
				c-1.2,0.1-2.5,0-4.2,0.7c2.2,0.2,3.8,0.4,5.4,0.4c6.2,0.2,12.3-0.3,18.4-1.7c0.5-0.1,1.3-0.5,1.7-0.1c0.5,0.6-0.1,1.3-0.5,1.8
				c-1.5,1.8-3.3,3-5.7,3.3c-5.1,0.8-10.2,0.3-15.3-0.3c-1.9-0.2-3.8-0.4-5.7-0.5c0.4,0.6,0.9,0.8,1.4,0.9c5.1,2,10.5,3.2,15.9,4.1
				c0.5,0.1,1.4-0.1,1.6,0.5c0.3,0.8-0.5,1.2-1,1.6c-1.7,1.5-3.7,2.5-6.1,2.6c-4.8,0.1-9.1-1.3-13.2-3.8c-6-3.6-10.4-8.8-14.5-14.3
				c-0.9-1.2-1-2.2-0.5-3.6c2.6-6.9,5.3-13.8,9.9-19.8C168.4,246.4,167.9,247,167.3,247L167.3,247z"/>
			<path class="st2" d="M167.3,247c-0.1,0.2-0.1,0.5-0.2,0.7c-4.9,5.5-7.8,12.1-10.5,18.8c-0.5,1.2-0.7,2.6-1.9,4.2
				c0.2-5.8,0.8-10.9,3.4-15.6C160.2,251.2,162.9,248.1,167.3,247L167.3,247z"/>
			<path class="st2" d="M150.1,272.5c-0.2-0.9-0.4-1.9-0.5-2.8c-0.2-4-0.6-8.1,1.2-11.9c0.8-1.7,2-3.2,4.4-3.7
				C152.4,260.2,151.6,266.4,150.1,272.5L150.1,272.5z"/>
			<path class="st2" d="M133.4,249.1c-0.8,0-1.6-1-1.6-2.4c0-1.5,1-2.3,2.4-2.3c1.4-0.1,2.7,1.2,2.5,2.5
				C136.4,248.3,135.6,249.1,133.4,249.1L133.4,249.1z"/>
		</g>
	</g>
</g>
</svg>
