<?xml version="1.0" encoding="utf-8"?>
<!-- Generator: Adobe Illustrator 27.0.0, SVG Export Plug-In . SVG Version: 6.00 Build 0)  -->
<svg version="1.1" id="Layer_1" xmlns="http://www.w3.org/2000/svg" xmlns:xlink="http://www.w3.org/1999/xlink" x="0px" y="0px"
	 viewBox="0 0 400 400" style="enable-background:new 0 0 400 400;" xml:space="preserve">
<style type="text/css">
	.st0{fill:none;}
	.st1{fill:#006885;}
	.st2{clip-path:url(#SVGID_00000094612256578327052250000000333635693103575474_);}
	.st3{fill:#DBA510;}
</style>
<g>
	<rect x="4.2" y="47.1" class="st0" width="391.6" height="305.8"/>
	<path class="st1" d="M78.9,47.1c19.3,0,37.7,8,50.9,22l266,283.7H144.3L116.4,292l-5.3-11.5L4.2,47.1H78.9z"/>
	<g>
		<defs>
			<path id="SVGID_1_" d="M78.9,47.1c19.3,0,37.7,8,50.9,22l266,283.7H144.3L116.4,292l-5.3-11.5L4.2,47.1H78.9z"/>
		</defs>
		<clipPath id="SVGID_00000016076936127758278270000009631323644912988094_">
			<use xlink:href="#SVGID_1_"  style="overflow:visible;"/>
		</clipPath>
		<g style="clip-path:url(#SVGID_00000016076936127758278270000009631323644912988094_);">
			<path class="st3" d="M195.2,234.7c-0.2-2.9,0.2-6.6,0.7-10.4c1.9-14.2,6.5-27.5,14.3-39.6c2-3.1,4.1-6.1,7.1-8.4
				c1.1-0.9,2.4-2,4-1s1.1,2.5,0.8,4c-1.5,6.6-0.9,12.9,1.6,19.2c1.5,3.7,2.7,7.4,4,11.2c4.1,12.2,5.9,24.6,4.3,37.5
				c-1.7,14-7.9,25.3-19.8,33.2c-0.9,0.6-2.5,1.2-1.8,2.6c0.7,1.3,2.1,0.7,3.2,0.3c0.8-0.3,1.5-0.7,2.2-1.1c1.7-0.9,3.3-2,4.8-3.3
				c7.3-6.2,11.5-14.2,13.9-23.3c1.5-5.7,2-11.6,2.1-17.5c0-4,1.7-7.1,4.8-9.5c1.3-1,2.7-2,4.1-2.8c4.9-3,10.2-5,15.7-6.6
				c7.3-2.2,14.8-2.8,22.4-2.4c0.8,0,1.5,0.2,2.2,0.4c1,0.4,1.8,0.9,2,2.1c0.2,1.3-0.4,2.1-1.5,2.7c-4.3,2.6-7.2,6.5-9.6,10.8
				c-2.3,4-4.1,8.2-6,12.4c-5.9,12.9-14.1,23.9-25.3,32.6c-7.1,5.6-14.9,9.8-24,10.9c-1.1,0.1-2.4,0.4-2.4,1.8
				c0.1,1.2,1.4,1.3,2.4,1.4c3.2,0.2,6.2-0.4,9.2-1.4c10.3-3.3,18.6-9.5,25.8-17.3c2.8-3,5.8-4.1,9.8-3.5c13.8,2,24,9.2,31,21.1
				c0.8,1.3,1.8,2.9,0.6,4.3c-1.2,1.4-2.9,0.7-4.4,0.2c-2-0.7-4.1-1.2-6.2-0.9c-2.8,0.4-5.6,1-8.3,1.8c-6.5,2-13,3.9-19.5,5.9
				c-6.2,1.8-12.5,3.1-18.9,3.5c-6.8,0.4-13.6,0.3-20.3-1c-8.7-1.7-16.8-4.6-24.2-9.6c-2.7-1.9-2.7-1.9-5.5,0
				c-13.8,9.2-29.2,11.8-45.3,10.6c-7.6-0.6-15-2.5-22.3-4.6c-6.5-1.9-12.9-4.2-19.5-5.9c-3.6-0.9-7.1-1-10.5,0.3
				c-1,0.3-2,0.6-3,0.4c-1.3-0.2-2-1.3-1.7-2.6c0.1-0.5,0.4-1,0.7-1.5c7.3-13,18.3-20.6,33.2-22.1c2.6-0.3,5.1,0.4,7,2.6
				c0.8,1,1.7,1.9,2.6,2.8c5.5,5.5,11.6,10.2,18.7,13.5c4.5,2.1,9.1,3.4,14.1,3.5c1.9,0,3.3-0.7,3.1-1.6c-0.4-1.4-1.7-1.5-2.9-1.7
				c-5.6-0.7-10.7-2.6-15.5-5.4c-13.6-7.9-23.6-19.2-30.8-33c-2.5-4.7-4.5-9.7-6.9-14.4c-2.8-5.5-6-10.7-11.6-14
				c-1.9-1.1-1.7-3,0.2-4.1c0.7-0.4,1.5-0.7,2.3-0.8c4-0.3,8.1-0.4,12.1,0.1c9,1.1,17.6,3.9,25.5,8.3c2.5,1.4,4.9,2.9,6.9,5.1
				c1.9,2,3,4.4,3,7.2s0.2,5.5,0.5,8.2c0.7,7.6,2.6,14.8,6.2,21.6c3.2,5.8,7.4,10.7,13.1,14.3c1.3,0.8,2.5,1.5,4,1.8
				c0.8,0.2,2,0.5,2.5-0.5s-0.4-1.7-1.1-2.2c-0.5-0.4-1.1-0.7-1.6-1.1c-9.2-6.3-15.1-14.9-17.6-25.8c-2.7-11.7-2.4-23.3,0.4-35
				c1.8-7.4,4.4-14.6,7.1-21.8c2.1-5.8,2.7-11.6,1.2-17.6c-0.2-0.6-0.3-1.3-0.3-1.9c0-2.4,1.6-3.4,3.6-2.2c1.4,0.8,2.5,1.8,3.6,3
				c4.7,5.3,8.1,11.4,11,17.7c4.1,8.8,6.7,18.1,7.9,27.7c0.8,6.4,1.3,12.8,0.5,19.2c-0.6,4.8-2.7,8.3-7.2,10.2
				c-2,0.9-3.9,2.1-5.5,3.6c-5.7,5.2-4.9,13.6,1.7,17.5c2.5,1.5,5.3,2.2,8.2,1.9c0.7-0.1,1.3-0.3,1.5-1c0.2-0.9-0.4-1.4-1.1-1.6
				c-0.6-0.2-1.2-0.4-1.8-0.6c-1.6-0.4-3.1-1.1-4.5-2c-2.9-1.8-4.2-4.5-3.5-7.7c0.5-2.7,2.5-4.2,4.7-5.4c4.6-2.3,9.5-2.5,14.5-1.8
				c2.5,0.3,4.9,1.1,7,2.5c1.9,1.3,3.4,2.9,3.7,5.2c0.4,2.9-0.8,5.2-3.1,6.9c-2,1.4-4.2,2.2-6.5,2.8c-0.8,0.3-1.6,0.7-1.4,1.7
				c0.2,0.8,1,0.9,1.8,1c4.9,0.5,10.4-2.5,12.5-7c1.7-3.6,1.3-7.1-1-10.4c-1.4-2-3.3-3.4-5.4-4.6c-1.1-0.6-2.3-1.2-3.4-1.8
				c-3.2-1.8-4.9-4.5-5.6-8.1C195.3,241.5,195.3,238.6,195.2,234.7L195.2,234.7z"/>
		</g>
	</g>
</g>
</svg>
