<?xml version="1.0" encoding="utf-8"?>
<!-- Generator: Adobe Illustrator 27.0.0, SVG Export Plug-In . SVG Version: 6.00 Build 0)  -->
<svg version="1.1" id="Layer_1" xmlns="http://www.w3.org/2000/svg" xmlns:xlink="http://www.w3.org/1999/xlink" x="0px" y="0px"
	 viewBox="0 0 400 400" style="enable-background:new 0 0 400 400;" xml:space="preserve">
<style type="text/css">
	.st0{fill:#CF2537;}
	.st1{fill:#FFFFFF;}
</style>
<g id="VS_00000036246683048795313020000004467487853180022177_">
	<path id="VS" class="st0" d="M5.1,47.8l106.5,232.4l5.2,11.4l27.7,60.5h250.3L130.1,69.8c-13.1-14-31.5-21.9-50.6-21.9H5.1z"/>
	<g>
		<path class="st1" d="M123.3,279.7l7.7-14.3c0.1-0.2,0.5-0.2,0.5,0c0.5,1.4,1.8,5.7,2.5,17.4c0.8,12.4,3,34.6,3.7,42.2
			c0.1,1.5,1.4,2.7,2.9,2.8h0c1.5,0.1,2.9-0.9,3.2-2.3c2.2-8.5,9.4-37,16.9-63.8c8.9-32.1,18.9-46.4,21.1-49.6
			c2.1-3.1,4.5-5.7,6.5-7.2c2-1.5,6.2-7.3,2.6-11.3c-4.6-5.1-10.3-1.7-14.8,7c-4.5,8.7-13.5,30.3-20.8,51.2
			c-6.3,18-12.7,42.6-11.8,41.6c-1-5-3.1-38.9-4.2-44.6c-1-5.6-2-5.7-3.9-5.7s-4.8,0.1-6.8,6.4s-7.2,17-8.7,20.4
			c-1,2.2-1.5,5.8-2.2,8.2c-0.3,1.3,0.3,2.7,1.5,3.2l0,0C120.8,281.8,122.5,281.2,123.3,279.7z"/>
		<path class="st1" d="M161.1,297c-0.2-3.9,2.1-20.7,3.7-24.5c1.6-3.8,3.6-6.6,7.9-5.7c1.4,0.5,1.2,7.7,0.5,10.1s-3.2,14-3.3,16.7
			s-3,6.5-5.7,6.5C161.4,300,161.2,299.2,161.1,297z"/>
		<path class="st1" d="M230.7,268.1c-0.1-2,1.3-6.7,2.1-12c0.7-4.2,0.8-7.9,1.5-9.5c1.5-3.5,2.9-6.2,7-5.3c1.3,0.4,1.1,6.1,0.4,8.3
			c-0.7,2.2-2,12.2-2.4,15.3c-0.3,2.5-3.2,6.8-5.9,6.8C230.8,271.7,230.8,270.1,230.7,268.1z"/>
		<path class="st1" d="M178.6,288.4c0.3-3.1,0.9-11.2,1.6-15.7c0.7-4.5,0.7-9.5,3.9-10.9c3.2-1.4,7.1-2.1,8.6-2.7
			c1.5-0.6,5.8-0.8,4.9,2.2c-0.9,3-2.2,3.8-4.6,5.4c-2.5,1.5-4.7,6.7-5.1,11.8c-0.4,5.1-1,11.2-3.6,12.8s-5.5,1-5.5,1L178.6,288.4z"
			/>
		<path class="st1" d="M199.8,267.8c2-7.4,6.4-15.7,10.5-16.9s6,0.9,4.2,3.5S207,265.1,207,273s6.3,5,7.5,0.7
			c1.2-4.3,3.5-19.3,4.4-22.3s2.2-5,5.5-4.7c3.3,0.3,2.4,5.4,1.9,9.3c-0.5,3.9-3.9,27.4-3.9,27.4s39.2-20.6,44.4-21.2
			c-0.6-1.8-2-6.7-0.9-11.7c1.1-5,0.7-12.3,0.7-12.3s-6.6,0.3-8.1,4.3c-1.5,4-2.5,13.5-3.1,15.8c-0.6,2.3-1.3,6.1-4.7,6.7
			c-3.5,0.6-3.8,0.2-3.8,0.2s0.6-16.8,2.3-22.7s2.6-6.6,5.3-6.9s5,0.7,8.7-1.4c3.7-2.1,5.7-3.4,6.1-4.5c0.4-1.2,7.1,0.8,6.3,6.3
			s-2.4,14.6-2.4,17c0,2.4,0.5,5.4,4.4,4.4c3.8-1,6-3.4,9.5-3.7c3.5-0.4,5.9,0.1,4.7,4.3s-8.6,5.8-11.7,6.5
			c-5.2,1.3-39.9,14.4-58.7,27.8c0,0-3.1,21.8-2.1,42.4c0.2,3.8,2.1,12.2-4,13.3c-6.2,1.1-6.3-6.6-6-9.9c0.3-3.3,4-40.6,4-40.6
			s-7.1,1.4-47,34.7c-3.3,2.7-7.3,8.7-11.8,6.5c-4.9-2.4,0.3-8.9,2.1-10.4c2.9-2.4,38-29.9,53.3-36.8c3.1-1.4,4-2.4,4.2-4.2
			c0.3-1.9,0.1-3.4,0.1-3.4s-5.8,2.2-8.5,2.2c-2.7,0-5.5,0.3-6.3-5.4C198.4,274,199.8,267.8,199.8,267.8z"/>
	</g>
</g>
</svg>
