<?xml version="1.0" encoding="utf-8"?>
<!-- Generator: Adobe Illustrator 27.0.0, SVG Export Plug-In . SVG Version: 6.00 Build 0)  -->
<svg version="1.1" id="Layer_1" xmlns="http://www.w3.org/2000/svg" xmlns:xlink="http://www.w3.org/1999/xlink" x="0px" y="0px"
	 viewBox="0 0 400 400" style="enable-background:new 0 0 400 400;" xml:space="preserve">
<style type="text/css">
	.st0{clip-path:url(#SVGID_00000171688070992424825020000008422378479972330175_);}
	.st1{fill:#005DBA;}
	.st2{fill:#2DCCD3;}
	.st3{fill:#FEFEFE;}
</style>
<g>
	<g>
		<defs>
			<rect id="SVGID_1_" x="3.6" y="47" width="392.4" height="306.4"/>
		</defs>
		<clipPath id="SVGID_00000168099231754901874280000011800348981464777394_">
			<use xlink:href="#SVGID_1_"  style="overflow:visible;"/>
		</clipPath>
		<g style="clip-path:url(#SVGID_00000168099231754901874280000011800348981464777394_);">
			<path class="st1" d="M238.4,353.4h61.4c23.7-19.2,36-44.3,41.5-58.3l-24.2-25.8C311.2,288.6,292.7,328.5,238.4,353.4z"/>
			<path class="st2" d="M299.9,353.4h23c12.6-13.1,23.4-34.3,29.2-46.9l-10.6-11.4C335.9,309.1,323.5,334.2,299.9,353.4z"/>
			<path class="st1" d="M172.9,115.5c-20.8-2.3-72.1-1.4-113.3,53.6L110.8,281l5.3,11.5l27.9,60.9h78.5
				c63.9-21.3,84.3-68.5,90.3-88.7L172.9,115.5L172.9,115.5z"/>
			<path class="st2" d="M222.5,353.4h16c54.2-24.9,72.8-64.8,78.7-84.1l-4.4-4.7C306.8,284.9,286.4,332.1,222.5,353.4z"/>
			<path class="st2" d="M387.4,344.2l-5.6,9.2H396L387.4,344.2z"/>
			<path class="st1" d="M367,322.5l-15-16c-5.8,12.6-16.6,33.8-29.2,46.9h25.1C354.2,344.8,361.8,331.8,367,322.5L367,322.5z"/>
			<path class="st1" d="M380,336.4l-8.3,17h10.1l5.6-9.2L380,336.4z"/>
			<path class="st2" d="M367,322.5c-5.2,9.3-12.8,22.3-19.1,30.9h23.8l8.3-17L367,322.5z"/>
			<path class="st2" d="M25.4,94.5l5.4,11.7c32.3-35.3,76.6-41.3,93.1-42.3c-5.1-4.3-10.7-7.9-16.7-10.6
				C90.4,56.6,47.9,67.5,25.4,94.5z"/>
			<path class="st2" d="M14,69.6l6.9,15.1C53.3,59.2,81.5,51.4,95,49c-5.4-1.3-10.9-2-16.5-2H48.8C38,52.2,22.9,60.5,14,69.6z"/>
			<path class="st2" d="M163.4,105.4c-20.9,0.2-75.7,5.3-108.9,52.7l5,11c41.3-55,92.6-55.9,113.3-53.6L163.4,105.4L163.4,105.4z"/>
			<path class="st1" d="M37,47c-7.3,3.6-18.1,9.7-25.8,16.5l2.8,6c9-9,24.1-17.3,34.8-22.5H37L37,47z"/>
			<path class="st1" d="M95,49c-13.5,2.4-41.7,10.2-74.1,35.7l4.5,9.8c22.5-27,65-37.9,81.8-41.3C103.3,51.4,99.2,50,95,49z"/>
			<path class="st2" d="M3.6,47l7.6,16.5C18.9,56.7,29.7,50.6,37,47H3.6L3.6,47z"/>
			<path class="st1" d="M146.8,87.7C129.3,87.3,82.6,91,43.9,135l10.6,23.1c33.2-47.4,88-52.6,108.9-52.7L146.8,87.7L146.8,87.7z"/>
			<path class="st2" d="M39.1,124.5L44,135c38.7-44.1,85.4-47.7,102.9-47.3l-9.4-10.1C118.8,79.1,67,86.8,39.1,124.5z"/>
			<path class="st1" d="M123.9,63.8c-16.5,1-60.8,7-93.1,42.3l8.4,18.3c27.9-37.7,79.6-45.4,98.2-46.9l-8-8.5
				C127.7,67.2,125.8,65.5,123.9,63.8L123.9,63.8z"/>
			<path class="st3" d="M157,245.7c0.2-0.9,0.6-1.4,1.6-1.4c1.5-0.9,2.3-2.5,3.5-3.7c0.8-0.7,1.7-1.5,2.7-1.2
				c2.1,0.9,3.8-0.1,5.6-0.7c0.5-0.2,1-0.4,1.4-0.8c2.1-2.4,1.3-6-1.6-7.1c-1.1-0.4-1.9-0.8-2.2-2.1c-0.1-0.6-0.6-1.1-1.2-1.4
				c-1.2-0.8-2.1-1.9-2.9-3.1c-1.6-2.4-2.9-4.9-4-7.6c-2.6-6.3-5.5-12.5-9.1-18.3c-2.5-4-4-8.3-4.6-13c-0.9-7.7,0.8-14.7,6-20.6
				c0.9-1,1.7-1,2.7-0.3c0.6,0.5,1.1,1,1.7,1.6c1.9,2.1,3.5,4.4,4.8,6.9c5.8,10.8,9.8,22.3,13.4,34c1.8,5.8,2.5,11.6,0.5,17.5
				c-0.1,0.1-0.1,0.1,0,0.2c0.1,0.1,0.2,0.2,0.3,0.1c2-3.9,3.7-8,5.4-12.1c4.5-10.9,9-21.9,14.5-32.3c2.1-4,4.8-7.5,8.4-10.3
				c3.1-2.5,6.3-2.1,8.8,1c2.1,2.7,3.4,5.7,3.7,9.2c0.4,5.8-1.6,11-4.9,15.7c-2.5,3.7-5.4,7.1-8.1,10.6c-3.3,4.2-7.3,8-10.2,12.6
				c-1.9,3.1-4.5,5.6-7.7,7.5c-0.1,0.1-0.1,0.2,0,0.3c0.1,0,0.2,0,0.2,0c7.8-3.2,15.5-6.7,23-10.5c6.9-3.5,13.6-7.3,20.8-10.2
				c5.4-2.2,11-3.2,16.9-2.6c4.1,0.4,6,2.9,5.1,6.9c-0.3,1.2-0.7,2.3-1.2,3.4c-3.9,7.2-9,13.3-16,17.6c-7.1,4.4-14.8,6.9-22.9,8.7
				c-8.9,2-17.9,3.2-27.1,2c-1.4-0.2-2.8-0.5-4.4-0.8c0.4,0.7,0.9,0.7,1.4,0.8c2.5,0.6,5,1.4,7.3,2.5c1.7,0.8,3.4,1.6,5.1,2.3
				c9,3.7,17.9,7.3,26.2,12.5c5.9,3.7,11,8.1,14.4,14.2c0.9,1.6,1.6,3.4,1.9,5.2c0.2,1.2-0.2,2.2-1.1,3c-1.4,1.2-3.1,2-4.9,2.3
				c-7.8,1.3-15.5,0.6-22.8-2.6c-6-2.7-11.3-6.5-16.2-10.8c-7.3-6.4-14.3-13.1-19.7-21.3c-0.4-0.6-0.8-1.3-1.5-1.8
				c-0.2,0.7,0.3,1.1,0.5,1.5c0.9,1.3,1.6,2.8,2.3,4.2c0.8,1.9,1.2,3.8,0.8,5.9c-1,4.8-2,9.7-3.1,14.5c-1.6,7-3.8,13.8-7.8,20
				c-2,3.1-4.4,6-7.5,8.2c-2.2,1.5-4.5,2.5-7.3,2.1c-1.4-0.2-2.2-0.9-2.6-2.3c-0.8-2.6-1.2-5.2-1.5-7.9c-1.3-8.7-0.6-17.3,2.7-25.5
				c2-4.9,4.4-9.7,6.8-14.4C154.6,251.3,155.3,248.2,157,245.7L157,245.7z"/>
			<path class="st3" d="M158.4,244c-0.4,0.5-0.7,1.1-1.4,1.2c-4.9,3.9-10.3,6.8-16,9.4c-6.8,3.1-13.7,6-21.1,7.7
				c-3.3,0.8-6.6,1.2-10,0.7c-3.8-0.6-5-2.6-3.6-6.2c0-0.1,0-0.2,0.1-0.2c2.3-4.7,5.1-9.1,9.5-12c6.7-4.5,14-7.4,21.7-9.7
				c6.1-1.9,12.5-2.8,18.9-2.1c0.8,0.1,1.6,0.2,2.4,0.3c-0.8-0.7-1.7-0.8-2.6-1.1c-13.5-3.9-26.1-9.6-37.9-17.2
				c-1.9-1.2-3.8-2.6-5.2-4.4c-1.5-2-1.4-3.9,0.3-5.8c1.1-1.3,2.6-2.2,4.1-2.9c8.4-3.7,16.1-2,23,3.5c4.5,3.5,8.8,7.4,13.6,10.5
				c5.2,3.4,8.4,8.6,12.3,13.1c0.3,0.4,0.6,1.1,0.2,1.3c-1.5,0.6-1.9,2.1-3,2.9c-0.9,0.7-0.7,1.7-0.9,2.6c-0.1,0.7,0.8,0.7,1.3,0.9
				c0.6,0.2,1,0.6,1,1.3s-0.5,1-1.1,1.1c-1.1,0.2-2,0.7-2.7,1.6C160.4,241.7,159.4,242.8,158.4,244L158.4,244z"/>
		</g>
	</g>
</g>
</svg>
