<?xml version="1.0" encoding="utf-8"?>
<!-- Generator: Adobe Illustrator 27.0.0, SVG Export Plug-In . SVG Version: 6.00 Build 0)  -->
<svg version="1.1" id="Layer_1" xmlns="http://www.w3.org/2000/svg" xmlns:xlink="http://www.w3.org/1999/xlink" x="0px" y="0px"
	 viewBox="0 0 400 400" style="enable-background:new 0 0 400 400;" xml:space="preserve">
<style type="text/css">
	.st0{fill:#99C53D;}
	.st1{fill:#FFFFFF;stroke:#CECECE;stroke-miterlimit:10;}
	.st2{fill:#E57931;}
</style>
<g>
	<path class="st0" d="M204,352.1h111.9c-48.2-6.7-136.1-27.8-207.1-93.2C121.1,285.4,146.8,332.4,204,352.1z"/>
	<path class="st1" d="M174,212.9c100.5,93.6,188.5,128.6,221,139.2l-264.4-282c-13.1-14-31.4-21.9-50.5-21.9h-5.3
		C79.7,84.8,135.1,176.7,174,212.9z"/>
	<path class="st1" d="M365.5,352.1C191.8,321,102.3,224,67.1,181.9l45.1,98.4l5.2,11.4l27.7,60.4H204
		c-57.2-19.7-82.9-66.7-95.2-93.2c71,65.4,158.9,86.4,207.1,93.2L365.5,352.1L365.5,352.1z"/>
	<path class="st2" d="M5.9,48.3l61.2,133.6C102.3,224,191.8,321,365.5,352.1H395c-32.5-10.6-120.5-45.6-221-139.2
		C135.1,176.7,79.7,84.8,74.7,48.3H5.9z"/>
</g>
</svg>
