<?xml version="1.0" encoding="utf-8"?>
<!-- Generator: Adobe Illustrator 27.0.0, SVG Export Plug-In . SVG Version: 6.00 Build 0)  -->
<svg version="1.1" id="Layer_1" xmlns="http://www.w3.org/2000/svg" xmlns:xlink="http://www.w3.org/1999/xlink" x="0px" y="0px"
	 viewBox="0 0 400 400" style="enable-background:new 0 0 400 400;" xml:space="preserve">
<style type="text/css">
	.st0{fill:#FFFFFF;}
	.st1{display:none;fill:#FFFFFF;stroke:#00504D;stroke-width:6.8201;stroke-miterlimit:10;}
	.st2{fill:none;}
	.st3{fill:#757575;}
	.st4{fill:#FFC301;}
</style>
<polygon class="st0" points="7.8,51.9 143.3,346.7 388.1,346.7 111,51.9 "/>
<path class="st1" d="M134.3,304.6c-0.6-0.8-1.3-1.6-2-2.2C132.9,303.2,133.6,303.9,134.3,304.6z"/>
<g>
	<rect x="7.8" y="51.9" class="st2" width="383.6" height="296"/>
	<path class="st0" d="M70.8,101.5c1.1,2.2,1.8,4.7,1.8,7.3c0,0.6,0,1.2-0.1,1.8c2.2,0.1,4.2,0.6,6.1,1.5c-0.5-1.5-0.7-3-0.7-4.6
		c0-2.6,0.6-5,1.8-7.1c-2,0.9-4.1,1.3-6.4,1.3C72.3,101.7,71.5,101.6,70.8,101.5L70.8,101.5z"/>
	<path class="st0" d="M95.2,240.7c-0.2,0.1-0.3,0.2-0.5,0.3l0.1,0.1C94.9,241,95,240.8,95.2,240.7z"/>
	<circle class="st0" cx="362.2" cy="327.9" r="5.6"/>
	<circle class="st0" cx="321.6" cy="323.2" r="7"/>
	<path class="st0" d="M154.9,234.4c0-7,5.7-12.7,12.7-12.7s12.7,5.7,12.7,12.7s-5.7,12.7-12.7,12.7
		C160.6,247.1,154.9,241.4,154.9,234.4z"/>
	<circle class="st0" cx="168.9" cy="193.6" r="11.6"/>
	<circle class="st0" cx="149.8" cy="172.4" r="12.6"/>
	<path class="st0" d="M187.3,204.1c5.9,0,10.7,4.8,10.7,10.7s-4.8,10.7-10.7,10.7s-10.7-4.8-10.7-10.7
		C176.6,208.9,181.4,204.1,187.3,204.1z"/>
	<circle class="st0" cx="206.6" cy="236.1" r="10.1"/>
	<circle class="st0" cx="206" cy="277.9" r="11.4"/>
	<circle class="st0" cx="186.8" cy="256.3" r="11"/>
	<path class="st0" d="M136.3,212.9c0-6.7,5.4-12.1,12.1-12.1s12.1,5.4,12.1,12.1c0,6.7-5.4,12.1-12.1,12.1S136.3,219.6,136.3,212.9z
		"/>
	<path class="st0" d="M129,178.5c7,0,12.6,5.6,12.6,12.6s-5.6,12.6-12.6,12.6s-12.6-5.6-12.6-12.6
		C116.4,184.2,122.1,178.5,129,178.5z"/>
	<circle class="st0" cx="130.6" cy="150.7" r="11.8"/>
	<path class="st0" d="M144,109.3c0,7.2-5.8,13-13,13s-13-5.8-13-13s5.8-13,13-13S144,102.1,144,109.3z"/>
	<path class="st0" d="M161.7,131.1c0,5.9-4.8,10.6-10.6,10.6c-5.9,0-10.6-4.8-10.6-10.6c0-5.9,4.8-10.6,10.6-10.6
		C157,120.5,161.7,125.2,161.7,131.1z"/>
	<circle class="st0" cx="169.6" cy="152.6" r="10.6"/>
	<path class="st0" d="M199.5,174.8c0,5.9-4.8,10.6-10.6,10.6c-5.9,0-10.6-4.8-10.6-10.6c0-5.9,4.8-10.6,10.6-10.6
		C194.8,164.2,199.5,168.9,199.5,174.8z"/>
	<circle class="st0" cx="208.5" cy="195.9" r="9.8"/>
	<path class="st0" d="M235.7,217.7c0,4.8-3.9,8.8-8.8,8.8s-8.8-3.9-8.8-8.8c0-4.8,3.9-8.8,8.8-8.8S235.7,212.8,235.7,217.7z"/>
	<path class="st0" d="M237.2,257.8c0,5.6-4.5,10.1-10.1,10.1s-10.1-4.5-10.1-10.1s4.5-10.1,10.1-10.1
		C232.6,247.7,237.2,252.3,237.2,257.8z"/>
	<path class="st0" d="M255.2,238.4c0,4.8-3.9,8.8-8.8,8.8c-4.8,0-8.8-3.9-8.8-8.8c0-4.8,3.9-8.8,8.8-8.8
		C251.3,229.7,255.2,233.6,255.2,238.4z"/>
	<path class="st0" d="M296.9,302.5c0-3.9,3.1-7,7-7s7,3.1,7,7s-3.1,7-7,7S296.9,306.3,296.9,302.5z"/>
	<path class="st0" d="M292.7,282.3c0,4.5-3.6,8.1-8.1,8.1s-8.1-3.6-8.1-8.1s3.6-8.1,8.1-8.1C289,274.2,292.7,277.8,292.7,282.3z"/>
	<path class="st0" d="M276,322.8c0-4.4,3.6-8,8-8s8,3.6,8,8s-3.6,8-8,8S276,327.2,276,322.8z"/>
	<path class="st0" d="M274.7,261.8c0,4.8-3.9,8.7-8.7,8.7c-4.8,0-8.7-3.9-8.7-8.7c0-4.8,3.9-8.7,8.7-8.7
		C270.8,253,274.7,256.9,274.7,261.8z"/>
	<path class="st0" d="M255.9,300.1c0.4-4.8,4.6-8.3,9.4-7.9s8.3,4.6,7.9,9.4s-4.6,8.3-9.4,7.9C259.1,309.1,255.5,304.9,255.9,300.1z
		"/>
	<circle class="st0" cx="245.7" cy="280.1" r="9.6"/>
	<path class="st0" d="M235.5,319.7c0.4-5.2,5-9,10.1-8.6c5.2,0.4,9,5,8.6,10.1c-0.4,5.2-5,9-10.1,8.6
		C238.9,329.4,235.1,324.9,235.5,319.7z"/>
	<path class="st0" d="M215,298.8c0-5.8,4.7-10.6,10.6-10.6c5.8,0,10.6,4.7,10.6,10.6c0,5.8-4.7,10.6-10.6,10.6
		C219.7,309.3,215,304.6,215,298.8z"/>
	<path class="st0" d="M192.6,318.5c0-6.4,5.2-11.6,11.6-11.6c6.4,0,11.6,5.2,11.6,11.6s-5.2,11.6-11.6,11.6S192.6,324.9,192.6,318.5
		z"/>
	<path class="st0" d="M173.1,297.2c0-6.8,5.5-12.2,12.2-12.2c6.8,0,12.2,5.5,12.2,12.2c0,6.8-5.5,12.2-12.2,12.2
		C178.5,309.4,173.1,303.9,173.1,297.2z"/>
	<path class="st0" d="M163.7,303.5c7.1,0,12.9,5.8,12.9,12.9s-5.8,12.9-12.9,12.9c-7.1,0-12.9-5.8-12.9-12.9
		C150.8,309.2,156.5,303.5,163.7,303.5z"/>
	<path class="st0" d="M153.4,275.3c0-6.8,5.5-12.2,12.2-12.2s12.2,5.5,12.2,12.2s-5.5,12.2-12.2,12.2S153.4,282.1,153.4,275.3z"/>
	<path class="st0" d="M106,226.5c-1.5,0-3-0.2-4.4-0.7c0.2,0.9,0.2,1.7,0.2,2.7c0,4.1-1.7,7.9-4.5,10.5c2.3-1.5,5.1-2.4,8-2.4
		c2.4,0,4.6,0.6,6.6,1.6c-0.6-1.5-0.9-3.2-0.9-4.9c0-3.7,1.4-7.1,3.7-9.7C112.3,225.4,109.3,226.5,106,226.5z"/>
	<path class="st0" d="M109,272c0.4-3.1,1.7-5.9,3.6-8.1c-1.9,1.1-4.2,1.8-6.5,1.9L109,272L109,272z"/>
	<path class="st0" d="M119.3,76.5c-0.7-1.6-1.1-3.3-1.1-5.2c0-3.3,1.3-6.2,3.3-8.5l-0.7-0.8c-2,1.4-4.5,2.2-7.1,2.2
		c-1.8,0-3.4-0.4-4.9-1c0.4,1.4,0.7,2.8,0.7,4.3c0,3.3-1.1,6.3-3,8.8c1.9-1,4-1.6,6.4-1.6C115.1,74.8,117.4,75.4,119.3,76.5
		L119.3,76.5z"/>
	<path class="st0" d="M81.6,71.4c-0.3-1.2-0.5-2.4-0.5-3.7c0-1.8,0.4-3.6,1-5.2c-2.2,1.4-4.8,2.2-7.6,2.2c-1.3,0-2.5-0.2-3.7-0.5
		c0,0.2,0,0.4,0,0.6c0,1.6-0.2,3.1-0.6,4.6c1-0.2,2-0.3,3-0.3C76.2,69,79.1,69.9,81.6,71.4L81.6,71.4z"/>
	<path class="st3" d="M43.1,51.9H7.8l37,80.5c1.9-0.8,4-1.2,6.2-1.2c1.6,0,3.1,0.2,4.6,0.7c-0.4-1.5-0.6-3-0.6-4.6
		c0-0.8,0.1-1.5,0.2-2.3c-8.4-0.6-15-7.2-15-16.2s7.3-16.2,16.2-16.2c0.8,0,1.6,0.1,2.3,0.2c-1.1-2.2-1.8-4.8-1.8-7.4
		c0-1.5,0.2-2.8,0.5-4.2c-1.1,0.2-2.3,0.4-3.4,0.4c-9.3,0-16.8-7.5-16.8-16.8C37.1,59.6,39.4,55,43.1,51.9z"/>
	<path class="st0" d="M101.6,55c-0.3-1-0.4-2-0.4-3.1H88.6c-0.1,1.3-0.4,2.6-0.9,3.8c2.2-1.4,4.8-2.2,7.6-2.2
		C97.5,53.5,99.7,54,101.6,55L101.6,55z"/>
	<path class="st0" d="M66.6,143.2c0.4,1.3,0.6,2.8,0.6,4.2c0,1.6-0.2,3.1-0.7,4.6c0.9-0.2,1.9-0.3,2.8-0.3c2.5,0,4.9,0.6,7.1,1.6
		c-0.5-1.5-0.8-3.1-0.8-4.8c0-1.9,0.4-3.8,1-5.5c-1.6,0.5-3.4,0.8-5.1,0.8C69.9,143.9,68.2,143.6,66.6,143.2L66.6,143.2z"/>
	<path class="st0" d="M89.5,85.3c0,2.9-0.8,5.7-2.1,8c1.7-0.7,3.6-1.1,5.6-1.1c2.7,0,5.3,0.7,7.6,2c-0.9-1.8-1.4-3.8-1.4-5.9
		c0-3.1,1.1-6,2.9-8.3c-2,1.1-4.3,1.7-6.7,1.7c-2.4,0-4.6-0.6-6.6-1.6C89.2,81.8,89.5,83.5,89.5,85.3z"/>
	<path class="st0" d="M87.7,205.7c-4.5,0-8.6-1.8-11.5-4.8l6.3,13.7c1.5-0.5,3-0.7,4.6-0.7c1.5,0,3,0.2,4.4,0.7
		c-0.2-0.9-0.2-1.7-0.2-2.7c0-2.5,0.7-5,1.8-7C91.5,205.4,89.7,205.7,87.7,205.7L87.7,205.7z"/>
	<path class="st0" d="M69.4,184.1c-0.3,0-0.6,0-0.8,0l3.1,6.7c0-0.4-0.1-0.9-0.1-1.3c0-2,0.4-3.9,1-5.7
		C71.5,184,70.5,184.1,69.4,184.1z"/>
	<path class="st3" d="M346,305.7c1.5,0,2.9-0.5,4.1-1.3l-9.7-10.2c-1,1.2-1.5,2.7-1.5,4.4C338.9,302.5,342.1,305.7,346,305.7z"/>
	<path class="st3" d="M367.8,327.9c0-3.1-2.5-5.6-5.6-5.6s-5.6,2.5-5.6,5.6s2.5,5.6,5.6,5.6S367.8,331,367.8,327.9z"/>
	<path class="st3" d="M339.9,336.9c-3.9,0-7,3.1-7,7c0,1.5,0.4,2.8,1.2,4h11.6c0.8-1.1,1.2-2.5,1.2-4
		C346.9,340.1,343.7,336.9,339.9,336.9L339.9,336.9z"/>
	<path class="st3" d="M307.1,340.2c-3.9,0-7,3.1-7,7c0,0.2,0,0.5,0,0.7h14c0-0.2,0-0.5,0-0.7C314.1,343.3,311,340.2,307.1,340.2
		L307.1,340.2z"/>
	<path class="st3" d="M314.6,323.2c0,3.9,3.1,7,7,7s7-3.1,7-7s-3.1-7-7-7S314.6,319.3,314.6,323.2z"/>
	<path class="st3" d="M296.9,302.5c0,3.9,3.1,7,7,7s7-3.1,7-7s-3.1-7-7-7S296.9,298.6,296.9,302.5z"/>
	<path class="st3" d="M276,322.8c0,4.4,3.6,8,8,8s8-3.6,8-8s-3.6-8-8-8S276,318.4,276,322.8z"/>
	<path class="st3" d="M257.4,347.9h10.4c2.2-1.6,3.6-4.2,3.6-7c0-4.8-3.9-8.8-8.8-8.8c-4.8,0-8.8,3.9-8.8,8.8
		C253.9,343.8,255.3,346.3,257.4,347.9z"/>
	<path class="st3" d="M292.7,282.3c0-4.5-3.6-8.1-8.1-8.1s-8.1,3.6-8.1,8.1s3.6,8.1,8.1,8.1C289,290.5,292.7,286.8,292.7,282.3z"/>
	<path class="st3" d="M274.8,261.8c0-4.8-3.9-8.7-8.7-8.7c-4.8,0-8.7,3.9-8.7,8.7s3.9,8.7,8.7,8.7S274.8,266.6,274.8,261.8z"/>
	<path class="st3" d="M255.3,280.1c0-5.3-4.3-9.6-9.6-9.6s-9.6,4.3-9.6,9.6c0,5.3,4.3,9.6,9.6,9.6
		C251,289.6,255.3,285.4,255.3,280.1z"/>
	<path class="st3" d="M215,298.8c0,5.8,4.7,10.6,10.6,10.6c5.8,0,10.6-4.7,10.6-10.6c0-5.8-4.7-10.6-10.6-10.6
		C219.7,288.2,215,293,215,298.8z"/>
	<path class="st3" d="M215.8,318.5c0-6.4-5.2-11.6-11.6-11.6c-6.4,0-11.6,5.2-11.6,11.6s5.2,11.6,11.6,11.6S215.8,324.9,215.8,318.5
		z"/>
	<path class="st3" d="M173.8,347.9h17c2.9-2.4,4.7-6.1,4.7-10.1c0-7.3-5.9-13.2-13.2-13.2s-13.2,5.9-13.2,13.2
		C169.1,341.9,170.9,345.5,173.8,347.9z"/>
	<path class="st3" d="M141.8,320.3c-3.5,0-6.6,1.4-9,3.6l10.5,22.8c6.6-0.7,11.7-6.3,11.7-13.1C155,326.3,149.1,320.3,141.8,320.3z"
		/>
	<path class="st3" d="M176.5,317.3c0.5-7.1-4.8-13.3-12-13.8c-7.1-0.5-13.3,4.8-13.8,12c-0.5,7.1,4.8,13.3,12,13.8
		C169.8,329.7,176,324.4,176.5,317.3z"/>
	<path class="st3" d="M197.5,297.2c0-6.8-5.5-12.2-12.2-12.2s-12.2,5.5-12.2,12.2c0,6.8,5.5,12.2,12.2,12.2S197.5,304,197.5,297.2z"
		/>
	<path class="st3" d="M153.5,275.3c0,6.8,5.5,12.2,12.2,12.2c6.8,0,12.2-5.5,12.2-12.2s-5.5-12.2-12.2-12.2
		C158.9,263.1,153.5,268.5,153.5,275.3z"/>
	<path class="st3" d="M135.5,244.1c-2.2,2.4-3.6,5.6-3.6,9.2c0,7.4,6,13.4,13.4,13.4s13.4-6,13.4-13.4s-6-13.4-13.4-13.4
		c-3.5,0-6.6,1.3-9,3.5C136.1,243.5,135.8,243.8,135.5,244.1z"/>
	<path class="st3" d="M134.3,304.6c2.4,2.1,5.5,3.4,8.9,3.4c7.4,0,13.4-6,13.4-13.4s-6-13.4-13.4-13.4s-13.4,6-13.4,13.4
		c0,2.9,0.9,5.6,2.5,7.8C133.1,303,133.8,303.8,134.3,304.6z"/>
	<path class="st3" d="M112.6,263.9c-1.9,2.2-3.3,5-3.6,8.1l6.5,14.2c2.4,1.6,5.2,2.5,8.3,2.5c8.3,0,15-6.7,15-15s-6.7-15-15-15
		c-2.7,0-5.3,0.7-7.4,2C115.3,262,114,263.1,112.6,263.9z"/>
	<path class="st3" d="M94.7,241.1l11.3,24.7c2.4-0.1,4.6-0.8,6.5-1.9c1.1-1.2,2.4-2.3,3.8-3.1c2.3-2.6,3.6-5.9,3.6-9.6
		c0-1.7-0.3-3.4-0.9-4.9c-3.3-1.7-5.9-4.6-7.2-8.1c-2-1-4.2-1.6-6.6-1.6c-3,0-5.7,0.9-8,2.4c-0.7,0.6-1.4,1.2-2.2,1.7
		C95,240.8,94.9,241,94.7,241.1z"/>
	<path class="st3" d="M116.4,260.8c-1.4,0.8-2.7,1.9-3.8,3.1C114,263.1,115.3,262,116.4,260.8z"/>
	<path class="st3" d="M91.6,214.5c-1.4-0.4-2.9-0.7-4.4-0.7c-1.6,0-3.2,0.3-4.6,0.7L94.7,241c0.2-0.1,0.3-0.2,0.5-0.3
		c0.7-0.6,1.4-1.2,2.2-1.7c2.7-2.7,4.5-6.4,4.5-10.5c0-0.9-0.1-1.8-0.2-2.7C96.4,224.2,92.6,219.8,91.6,214.5L91.6,214.5z"/>
	<path class="st3" d="M95.2,240.7c0.8-0.5,1.5-1.1,2.2-1.7C96.6,239.5,95.8,240,95.2,240.7z"/>
	<path class="st3" d="M114.8,223.5c-2.3,2.6-3.7,6-3.7,9.7c0,1.7,0.3,3.4,0.9,4.9c3.3,1.7,5.9,4.6,7.2,8.1c2,1,4.2,1.6,6.6,1.6
		c3.8,0,7.2-1.4,9.8-3.8c0.3-0.3,0.5-0.5,0.8-0.8c2.5-2.6,4-6.2,4-10.1c0-8.1-6.5-14.6-14.6-14.6c-3.3,0-6.4,1.1-8.8,2.9
		C116.3,222.3,115.5,222.9,114.8,223.5L114.8,223.5z"/>
	<path class="st3" d="M135.5,244.1c0.3-0.3,0.5-0.5,0.8-0.8C136,243.5,135.8,243.8,135.5,244.1z"/>
	<path class="st3" d="M112,238.1c1.3,3.5,3.9,6.4,7.2,8.1C117.9,242.7,115.3,239.8,112,238.1z"/>
	<path class="st3" d="M120.6,211.8c0-8.1-6.5-14.6-14.6-14.6c-1.5,0-2.9,0.2-4.3,0.6c-1.9,3.2-4.9,5.7-8.5,6.9
		c-1.2,2.1-1.8,4.5-1.8,7c0,0.9,0.1,1.8,0.2,2.7c5.1,1.6,9,5.9,10,11.3c1.4,0.4,2.9,0.7,4.4,0.7c3.3,0,6.4-1.1,8.8-2.9
		c0.7-0.7,1.4-1.4,2.2-2C119.2,218.9,120.6,215.5,120.6,211.8L120.6,211.8z"/>
	<path class="st3" d="M91.6,214.5c1,5.3,4.9,9.7,10,11.3C100.6,220.4,96.7,216.1,91.6,214.5z"/>
	<path class="st3" d="M116.9,221.5c-0.8,0.6-1.5,1.3-2.2,2C115.5,222.9,116.3,222.2,116.9,221.5z"/>
	<path class="st3" d="M76.3,200.9l-4.7-10.1C71.9,194.7,73.6,198.3,76.3,200.9z"/>
	<path class="st3" d="M72.6,183.8c-0.7,1.8-1,3.7-1,5.7c0,0.4,0,0.9,0.1,1.3l4.7,10.1c2.9,3,7,4.8,11.5,4.8c1.9,0,3.7-0.3,5.4-0.9
		c1.8-3.3,4.9-5.8,8.5-6.9c1.5-2.4,2.3-5.2,2.3-8.4c0-3.1-0.9-6.1-2.4-8.6c-1.3-1-2.5-2.3-3.3-3.8c-2.8-2.4-6.5-3.8-10.5-3.8
		c-1.1,0-2.2,0.1-3.2,0.3C82.6,178.8,78.1,182.7,72.6,183.8L72.6,183.8z"/>
	<path class="st3" d="M101.7,197.9c-3.7,1.1-6.7,3.6-8.5,6.9C96.7,203.5,99.7,201.1,101.7,197.9z"/>
	<path class="st3" d="M66.5,152c-1.3,4.3-4.3,7.9-8.2,9.9l10.3,22.3c0.3,0,0.5,0,0.8,0c1.1,0,2.2-0.1,3.2-0.3
		c1.9-5.2,6.5-9.1,12-10.2c0.7-1.8,1-3.8,1-5.7s-0.3-3.7-0.9-5.4c-3.9-1.8-6.8-5.1-8.2-9.1c-2.1-1-4.5-1.6-7.1-1.6
		C68.4,151.7,67.5,151.8,66.5,152L66.5,152z"/>
	<path class="st3" d="M84.6,173.6c-5.5,1.1-10.1,5-12,10.2C78.1,182.7,82.6,178.8,84.6,173.6z"/>
	<path class="st3" d="M51,131.2c-2.2,0-4.3,0.4-6.2,1.2L56.5,158c2.4-3.1,5.9-5.3,10-6.1c0.4-1.5,0.7-3,0.7-4.6
		c0-1.5-0.2-2.9-0.6-4.2c-5.3-1.7-9.5-5.9-11-11.3C54.1,131.4,52.6,131.2,51,131.2z"/>
	<path class="st3" d="M56.5,158l1.8,3.8c3.9-2,7-5.6,8.2-9.9C62.5,152.7,59,154.9,56.5,158z"/>
	<path class="st3" d="M70.8,101.5c-5.3-0.8-9.8-4.1-12.1-8.7c-0.8-0.1-1.5-0.2-2.3-0.2c-9,0-16.2,7.7-16.2,16.2s6.6,15.5,15,16.2
		c1.1-8.1,8.1-14.4,16.5-14.4c0.3,0,0.6,0,0.8,0c0.1-0.6,0.1-1.2,0.1-1.8C72.5,106.2,71.9,103.7,70.8,101.5L70.8,101.5z"/>
	<path class="st3" d="M70.7,64.2c-5.6-1.5-9.8-6.4-10.3-12.3H43.1c-3.6,3.1-5.9,7.7-5.9,12.8c0,9.3,7.5,16.8,16.8,16.8
		c1.2,0,2.3-0.1,3.4-0.4c1.6-6,6.5-10.7,12.7-11.8c0.4-1.5,0.6-3,0.6-4.6C70.7,64.5,70.7,64.3,70.7,64.2L70.7,64.2z"/>
	<path class="st3" d="M217.4,277.9c0-6.3-5.1-11.4-11.4-11.4c-6.3,0-11.4,5.1-11.4,11.4s5.1,11.4,11.4,11.4
		C212.3,289.3,217.4,284.2,217.4,277.9z"/>
	<path class="st3" d="M197.8,256.3c0-6.1-4.9-11-11-11s-11,4.9-11,11s4.9,11,11,11C192.9,267.2,197.8,262.3,197.8,256.3z"/>
	<path class="st3" d="M154.9,234.4c0,7,5.7,12.7,12.7,12.7s12.7-5.7,12.7-12.7s-5.7-12.7-12.7-12.7
		C160.6,221.7,154.9,227.4,154.9,234.4z"/>
	<path class="st3" d="M160.5,212.9c0-6.7-5.4-12.1-12.1-12.1c-6.7,0-12.1,5.4-12.1,12.1s5.4,12.1,12.1,12.1S160.5,219.6,160.5,212.9
		z"/>
	<path class="st3" d="M141.6,191.1c0-7-5.6-12.6-12.6-12.6s-12.6,5.6-12.6,12.6s5.6,12.6,12.6,12.6
		C136,203.7,141.6,198.1,141.6,191.1z"/>
	<path class="st3" d="M109.2,158.4c-7,0-12.6,5.6-12.6,12.6c0,2.2,0.6,4.3,1.6,6.2c1.3,1.1,2.4,2.4,3.3,3.8c2.1,1.6,4.8,2.6,7.7,2.6
		c7,0,12.6-5.6,12.6-12.6C121.8,164,116.2,158.4,109.2,158.4L109.2,158.4z"/>
	<path class="st3" d="M98.2,177.1c0.8,1.5,1.9,2.8,3.3,3.8C100.6,179.5,99.5,178.2,98.2,177.1z"/>
	<path class="st3" d="M237.2,257.9c0-5.6-4.5-10.1-10.1-10.1s-10.1,4.5-10.1,10.1s4.5,10.1,10.1,10.1
		C232.6,268,237.2,263.4,237.2,257.9z"/>
	<path class="st3" d="M216.7,236.1c0-5.6-4.5-10.1-10.1-10.1s-10.1,4.5-10.1,10.1s4.5,10.1,10.1,10.1
		C212.2,246.2,216.7,241.7,216.7,236.1z"/>
	<path class="st3" d="M198,214.8c0-5.9-4.8-10.7-10.7-10.7s-10.7,4.8-10.7,10.7s4.8,10.7,10.7,10.7S198,220.7,198,214.8z"/>
	<path class="st3" d="M180.4,193.6c0-6.4-5.2-11.6-11.6-11.6c-6.4,0-11.6,5.2-11.6,11.6c0,6.4,5.2,11.6,11.6,11.6
		C175.2,205.2,180.4,200,180.4,193.6z"/>
	<path class="st3" d="M255.3,238.5c0-4.8-3.9-8.8-8.8-8.8c-4.8,0-8.8,3.9-8.8,8.8c0,4.8,3.9,8.8,8.8,8.8
		C251.3,247.2,255.3,243.3,255.3,238.5z"/>
	<path class="st3" d="M235.7,217.7c0-4.8-3.9-8.8-8.8-8.8c-4.8,0-8.8,3.9-8.8,8.8c0,4.8,3.9,8.8,8.8,8.8S235.7,222.6,235.7,217.7z"
		/>
	<path class="st3" d="M218.2,196c0-5.4-4.4-9.8-9.8-9.8c-5.4,0-9.8,4.4-9.8,9.8c0,5.4,4.4,9.8,9.8,9.8
		C213.9,205.8,218.2,201.4,218.2,196z"/>
	<path class="st3" d="M199.5,174.8c0-5.9-4.8-10.6-10.6-10.6c-5.9,0-10.6,4.8-10.6,10.6c0,5.9,4.8,10.6,10.6,10.6
		C194.8,185.4,199.5,180.7,199.5,174.8z"/>
	<path class="st3" d="M180.2,152.7c0-5.9-4.8-10.6-10.6-10.6c-5.9,0-10.6,4.8-10.6,10.6c0,5.9,4.8,10.6,10.6,10.6
		C175.5,163.3,180.2,158.5,180.2,152.7z"/>
	<path class="st3" d="M161.7,131.1c0-5.9-4.8-10.6-10.6-10.6c-5.9,0-10.6,4.8-10.6,10.6c0,5.9,4.8,10.6,10.6,10.6
		C157,141.7,161.7,137,161.7,131.1z"/>
	<path class="st3" d="M130.6,138.9c-6.5,0-11.8,5.3-11.8,11.8s5.3,11.8,11.8,11.8s11.8-5.3,11.8-11.8
		C142.4,144.2,137.1,138.9,130.6,138.9z"/>
	<path class="st4" d="M162.4,172.4c0-7-5.6-12.6-12.6-12.6s-12.6,5.6-12.6,12.6s5.6,12.6,12.6,12.6S162.4,179.4,162.4,172.4z"/>
	<path class="st3" d="M144,109.4c0-7.2-5.8-13-13-13s-13,5.8-13,13s5.8,13,13,13S144,116.6,144,109.4z"/>
	<path class="st3" d="M100.5,94.3c2.5,1.4,4.5,3.6,5.8,6.1c1.9,1,4.1,1.6,6.4,1.6c7.5,0,13.6-6.1,13.6-13.6c0-2.2-0.5-4.2-1.4-6
		c-2.5-1.3-4.4-3.4-5.6-5.9c-1.9-1.1-4.3-1.7-6.6-1.7c-2.3,0-4.5,0.6-6.4,1.6c-1.2,1.5-2.7,2.8-4.4,3.7c-1.8,2.3-2.9,5.2-2.9,8.3
		C99.1,90.6,99.6,92.6,100.5,94.3L100.5,94.3z"/>
	<path class="st3" d="M78.5,112.1c4,1.8,7.2,5.2,8.7,9.4c1.8,0.7,3.7,1.1,5.7,1.1c8.4,0,15.1-6.8,15.1-15.1c0-2.5-0.6-4.9-1.7-7
		c-2.5-1.3-4.6-3.5-5.8-6.1c-2.2-1.3-4.8-2-7.6-2c-2,0-3.9,0.4-5.6,1.1c-1.8,3.1-4.5,5.5-7.8,6.9c-1.1,2.1-1.8,4.5-1.8,7.1
		C77.8,109.1,78.1,110.6,78.5,112.1L78.5,112.1z"/>
	<path class="st3" d="M106.3,100.4c-1.3-2.5-3.4-4.6-5.8-6.1C101.7,97,103.8,99.1,106.3,100.4z"/>
	<path class="st3" d="M102,80.1c1.2-1.5,2.7-2.8,4.4-3.7c1.9-2.4,3-5.5,3-8.8c0-1.5-0.2-3-0.7-4.3c-3.5-1.5-6.1-4.6-7.1-8.3
		c-1.9-1-4.1-1.5-6.4-1.5c-2.8,0-5.4,0.8-7.6,2.2c-1.1,2.8-3.1,5.2-5.6,6.8c-0.6,1.6-1,3.4-1,5.2c0,1.3,0.2,2.5,0.5,3.7
		c3.3,2,5.8,5.1,7,8.8c2,1,4.2,1.6,6.6,1.6C97.7,81.8,100,81.2,102,80.1L102,80.1z"/>
	<path class="st3" d="M106.4,76.4c-1.7,0.9-3.2,2.2-4.4,3.7C103.7,79.2,105.2,77.9,106.4,76.4z"/>
	<path class="st3" d="M73.2,69c-1,0-2.1,0.1-3,0.3c-1.7,6-6.6,10.6-12.7,11.8c-0.3,1.3-0.5,2.7-0.5,4.2c0,2.7,0.6,5.2,1.8,7.4
		c5.3,0.8,9.8,4.1,12.1,8.7c0.8,0.1,1.6,0.2,2.4,0.2c2.3,0,4.5-0.5,6.4-1.3c1.7-3.1,4.4-5.6,7.8-6.9c1.3-2.4,2.1-5.1,2.1-8
		c0-1.8-0.3-3.6-0.9-5.2c-3.4-1.8-6-5-7-8.8C79.1,69.9,76.2,69,73.2,69z"/>
	<path class="st3" d="M58.6,92.8c2.4,4.6,6.8,7.9,12.1,8.7C68.4,96.9,64,93.5,58.6,92.8z"/>
	<path class="st3" d="M70.1,69.3c-6.2,1.2-11.1,5.8-12.7,11.8C63.5,79.9,68.4,75.3,70.1,69.3z"/>
	<path class="st3" d="M79.6,100.3c3.3-1.4,6-3.9,7.8-6.9C84,94.7,81.2,97.2,79.6,100.3z"/>
	<path class="st3" d="M88.6,80.2c-1.2-3.7-3.7-6.8-7-8.8C82.6,75.2,85.2,78.3,88.6,80.2z"/>
	<path class="st3" d="M87.7,55.7c0.5-1.2,0.8-2.5,0.9-3.8H64.8c3.5,3,5.8,7.3,5.9,12.3c1.2,0.3,2.4,0.5,3.7,0.5
		c2.8,0,5.4-0.8,7.6-2.2C83.2,59.7,85.1,57.3,87.7,55.7z"/>
	<path class="st3" d="M70.7,64.2c-0.2-4.9-2.4-9.3-5.9-12.3h-4.4C61,57.8,65.2,62.6,70.7,64.2z"/>
	<path class="st3" d="M87.7,55.7c-2.5,1.6-4.5,4-5.6,6.8C84.6,60.9,86.6,58.5,87.7,55.7z"/>
	<path class="st3" d="M104.6,141.5c2.2,1.4,4.8,2.2,7.6,2.2c7.6,0,13.8-6.2,13.8-13.8c0-7.6-6.2-13.8-13.8-13.8
		c-7.6,0-13.8,6.2-13.8,13.8c0,2.2,0.5,4.2,1.4,6.1C101.8,137.4,103.4,139.3,104.6,141.5z"/>
	<path class="st3" d="M76.7,143.1c-0.6,1.7-1,3.5-1,5.5c0,1.7,0.3,3.3,0.8,4.8c3.8,1.8,6.8,5.1,8.2,9.1c1.9,0.9,4.1,1.4,6.4,1.4
		c8.5,0,15.3-6.8,15.3-15.3c0-2.6-0.6-5-1.8-7.1c-2.1-1.4-3.7-3.3-4.8-5.5c-2.5-1.7-5.5-2.7-8.7-2.7c-1.4,0-2.8,0.2-4.1,0.6
		C85,138.2,81.3,141.6,76.7,143.1L76.7,143.1z"/>
	<path class="st3" d="M76.5,153.4c1.3,4.1,4.3,7.4,8.2,9.1C83.2,158.5,80.3,155.2,76.5,153.4z"/>
	<path class="st3" d="M104.6,141.5c-1.2-2.2-2.8-4.1-4.8-5.5C100.8,138.2,102.5,140.1,104.6,141.5z"/>
	<path class="st3" d="M76.7,143.1c1.7-4.5,5.5-8,10.2-9.3c0.9-2,1.3-4.2,1.3-6.5c0-2-0.4-4-1-5.8c-4.1-1.7-7.3-5.1-8.7-9.4
		c-1.9-0.9-3.9-1.4-6.1-1.5c-0.9,8.1-7.8,14.4-16.1,14.4c-0.4,0-0.8,0-1.2,0c-0.1,0.7-0.2,1.5-0.2,2.3c0,1.6,0.2,3.1,0.6,4.6
		c5.4,1.6,9.6,5.9,11,11.3c1.6,0.5,3.2,0.7,5,0.7C73.4,143.9,75.1,143.6,76.7,143.1L76.7,143.1z"/>
	<path class="st3" d="M55.6,131.8c1.5,5.4,5.7,9.7,11,11.3C65.2,137.7,61,133.4,55.6,131.8z"/>
	<path class="st3" d="M55.1,125c0.4,0,0.8,0,1.2,0c8.3,0,15.2-6.3,16.1-14.4c-0.3,0-0.5,0-0.8,0C63.2,110.6,56.2,116.9,55.1,125z"/>
	<path class="st3" d="M87.2,121.5c-1.5-4.2-4.7-7.6-8.7-9.4C79.9,116.4,83.1,119.8,87.2,121.5z"/>
	<path class="st3" d="M86.9,133.8c-4.7,1.3-8.5,4.8-10.2,9.3C81.3,141.6,85,138.2,86.9,133.8z"/>
	<path class="st3" d="M256,300.1c-0.4,4.8,3.1,9,7.9,9.4s9-3.1,9.4-7.9s-3.1-9-7.9-9.4C260.6,291.8,256.4,295.3,256,300.1z"/>
	<path class="st3" d="M235.5,319.8c-0.4,5.2,3.4,9.7,8.6,10.1c5.2,0.4,9.7-3.4,10.1-8.6c0.4-5.2-3.4-9.7-8.6-10.1
		C240.5,310.8,236,314.6,235.5,319.8z"/>
	<path class="st3" d="M217.6,347.9h12.2c2.3-1.7,3.9-4.4,4.2-7.5c0.5-5.7-3.7-10.7-9.4-11.2s-10.7,3.7-11.2,9.4
		C213.1,342.5,214.8,345.9,217.6,347.9z"/>
	<path class="st3" d="M330.5,283.6l-9.8-10.3c-1.6,1.3-2.6,3.3-2.6,5.5c0,3.9,3.2,7.1,7.1,7.1C327.3,285.9,329.2,285,330.5,283.6z"
		/>
	<path class="st3" d="M305.2,265.1c2.2,0,4.1-1,5.4-2.5l-9.7-10.3c-1.7,1.3-2.8,3.3-2.8,5.6C298.1,261.9,301.3,265.1,305.2,265.1
		L305.2,265.1z"/>
	<path class="st3" d="M292.1,243L282,232.4c-2.8,1.2-4.7,4-4.7,7.1c0,4.3,3.5,7.8,7.8,7.8C288.2,247.3,290.8,245.6,292.1,243z"/>
	<path class="st3" d="M272.9,222.8l-11.8-12.4c-2.1,1.6-3.6,4.1-3.6,7c0,4.8,3.9,8.6,8.6,8.6C268.9,226,271.3,224.7,272.9,222.8z"/>
	<path class="st3" d="M246.5,206.8c3.1,0,5.8-1.6,7.3-4.1l-11.4-12.1c-2.7,1.5-4.5,4.3-4.5,7.6C237.9,202.9,241.7,206.8,246.5,206.8
		L246.5,206.8z"/>
	<path class="st3" d="M219.5,174.9c0,4.8,3.9,8.6,8.6,8.6c2.1,0,4.1-0.8,5.6-2.1l-11.8-12.5C220.4,170.5,219.5,172.6,219.5,174.9
		L219.5,174.9z"/>
	<path class="st3" d="M199.3,153.8c0,5.2,4.2,9.4,9.4,9.4c2.2,0,4.3-0.8,5.9-2.1l-12.9-13.7C200.2,149.2,199.2,151.4,199.3,153.8
		L199.3,153.8z"/>
	<path class="st3" d="M179.5,132.8c0,5.7,4.6,10.4,10.4,10.4c2.2,0,4.2-0.7,5.9-1.8l-14.1-14.9C180.3,128.2,179.5,130.4,179.5,132.8
		L179.5,132.8z"/>
	<path class="st3" d="M159.5,112.3c0,5.7,4.6,10.4,10.4,10.4c2.3,0,4.5-0.8,6.2-2.1l-14.2-15C160.4,107.4,159.5,109.8,159.5,112.3
		L159.5,112.3z"/>
	<path class="st3" d="M140.4,91.8c0,5.7,4.6,10.4,10.4,10.4c2.3,0,4.4-0.7,6.1-2l-14.2-15C141.2,87,140.4,89.3,140.4,91.8
		L140.4,91.8z"/>
	<path class="st3" d="M130.6,83.8c3,0,5.8-1.1,8-2.9l-17.1-18c-2.1,2.2-3.3,5.2-3.3,8.5c0,1.8,0.4,3.6,1.1,5.2
		c2.4,1.3,4.4,3.4,5.6,5.9C126.6,83.3,128.6,83.8,130.6,83.8z"/>
	<path class="st3" d="M124.9,82.4c-1.2-2.5-3.2-4.5-5.6-5.9C120.5,79.1,122.4,81.1,124.9,82.4z"/>
	<path class="st3" d="M108.7,63.3c1.5,0.6,3.2,1,4.9,1c2.7,0,5.1-0.8,7.1-2.2L111,51.9h-9.9c0,1.1,0.2,2.1,0.4,3.1
		C105,56.7,107.6,59.7,108.7,63.3L108.7,63.3z"/>
	<path class="st3" d="M108.7,63.4c-1.2-3.6-3.7-6.6-7.1-8.3C102.6,58.8,105.2,61.8,108.7,63.4z"/>
	<path class="st3" d="M132.3,302.4c-2.4-2.1-5.5-3.4-8.9-3.4c-0.7,0-1.3,0.1-2,0.2l10.8,23.4c2.8-2.5,4.7-6.1,4.7-10.2
		c0-2.9-0.9-5.6-2.5-7.8C133.6,303.9,132.9,303.2,132.3,302.4L132.3,302.4z"/>
</g>
</svg>
