<?xml version="1.0" encoding="utf-8"?>
<!-- Generator: Adobe Illustrator 27.0.0, SVG Export Plug-In . SVG Version: 6.00 Build 0)  -->
<svg version="1.1" id="Layer_1" xmlns="http://www.w3.org/2000/svg" xmlns:xlink="http://www.w3.org/1999/xlink" x="0px" y="0px"
	 viewBox="0 0 400 400" style="enable-background:new 0 0 400 400;" xml:space="preserve">
<style type="text/css">
	.st0{clip-path:url(#SVGID_00000072958875196074920610000015643950621333427353_);}
	.st1{fill:#FEFEFE;stroke:#D8D8D8;stroke-miterlimit:10;}
	.st2{fill:#073B6B;}
	.st3{fill:#FEFEFE;}
	.st4{fill:#831D2B;}
</style>
<g>
	<g>
		<g>
			<defs>
				<rect id="SVGID_1_" x="5.3" y="49.6" width="389.7" height="301.5"/>
			</defs>
			<clipPath id="SVGID_00000059302259423465613000000005339337030283517118_">
				<use xlink:href="#SVGID_1_"  style="overflow:visible;"/>
			</clipPath>
			<g style="clip-path:url(#SVGID_00000059302259423465613000000005339337030283517118_);">
				<path class="st1" d="M5.3,50.8l36.4,79.4c30.7,2.6,152.1,22.8,314,179.2L131.6,71C118.5,57.1,100.2,49.3,81,49.6L5.3,50.8z"/>
				<path class="st2" d="M242.2,251.4c-70-34.3-144.8-39-162.9-39.6l64,139.3h235.6C353.9,324.2,316.6,287.9,242.2,251.4z"/>
				<path class="st3" d="M372.9,327.7c-58.2-50.2-78.4-61.9-143.6-91.8C166.2,207,90.7,202.6,74.8,202l4.5,9.8
					c18.1,0.6,93,5.3,162.9,39.6c74.4,36.5,111.7,72.8,136.6,99.7H395L372.9,327.7L372.9,327.7z"/>
				<path class="st4" d="M355.8,309.4C193.9,153,72.5,132.8,41.8,130.2l33,71.8c16,0.6,91.5,5,154.6,33.9
					c65.2,29.9,85.5,41.6,143.6,91.8L355.8,309.4z"/>
			</g>
		</g>
	</g>
</g>
</svg>
