<?xml version="1.0" encoding="utf-8"?>
<!-- Generator: Adobe Illustrator 27.0.0, SVG Export Plug-In . SVG Version: 6.00 Build 0)  -->
<svg version="1.1" id="Layer_1" xmlns="http://www.w3.org/2000/svg" xmlns:xlink="http://www.w3.org/1999/xlink" x="0px" y="0px"
	 viewBox="0 0 400 400" style="enable-background:new 0 0 400 400;" xml:space="preserve">
<style type="text/css">
	.st0{clip-path:url(#SVGID_00000023241456967211251620000010062755649437605804_);}
	.st1{fill:#FEFEFE;stroke:#D1D1D1;stroke-miterlimit:10;}
	.st2{fill:#11BA75;}
</style>
<g>
	<g>
		<defs>
			<rect id="SVGID_1_" x="3.6" y="48.3" width="392.4" height="303.2"/>
		</defs>
		<clipPath id="SVGID_00000079453248564686194680000008051539791273928633_">
			<use xlink:href="#SVGID_1_"  style="overflow:visible;"/>
		</clipPath>
		<g style="clip-path:url(#SVGID_00000079453248564686194680000008051539791273928633_);">
			<path class="st1" d="M142.2,351.5h110.1c37.1-13.8,50.2-29.8,51.6-42c2.7-22.7-13.7-51.9-45-84s-40.1-42.2-67.2-64.5
				s-63.5-31.3-74.4-32.4c-10.9-1-50.4-5.5-73.5-30.5C24.9,77.6,8.8,55.8,3.7,48.6L142.2,351.5z"/>
			<path class="st2" d="M252.2,351.5H396L125.7,66C115,54.7,100.1,48.3,84.6,48.3h-81l0.1,0.2c5.2,7.2,21.2,29,40.1,49.5
				c23.1,25,62.6,29.4,73.5,30.5c10.9,1,47.3,10.1,74.4,32.4s35.9,32.4,67.2,64.5s47.7,61.3,45,84
				C302.4,321.7,289.3,337.7,252.2,351.5z"/>
			<path class="st2" d="M78.2,186.3c0,0,30.8,2.7,50.7,6.7s34.4,20.8,42.6,33.2c8.2,12.4,27.7,43.1,40.4,52.8
				c10.4,7.9,37.5,4.8,33.2-16s-30.6-28.9-38.3-31.1c-7.7-2.2-8.4-11.2-9.1-18.7c-0.7-7.6,8.4-7.2,16.8-6.9
				c8.4,0.4,7.7,12.2,7.7,14.8s1.9,4.5,5.7,6.2c14.3,5.7,30.9,38.7,17.9,53.3c-13.1,14.6-34.4,7.6-43.3-3.3
				c-8.9-10.8-21.8-26.1-33.5-39s-37.2-13.2-61-21C84.1,209.3,81.5,194.2,78.2,186.3L78.2,186.3z"/>
			<path class="st2" d="M145.2,229.5c18,5,42.2,32.5,48.9,42.6c6.7,10.2,13.3,14.1,14.5,15.6c-6.1-0.6-10.5-4.3-24.2-20.9
				c-13.8-16.6-22.4-14.2-46.2-19.3s-26.3-22.1-26.5-25.3C111.7,222.1,125.1,223.9,145.2,229.5z"/>
			<path class="st2" d="M187.4,286.8c8.1-13.3-12-25.3-24.7-25.7c-12.7-0.4-16.8,6.9-19,10.2c7-4.3,13.9-1.8,16,1.3
				c2.1,3.1,4.3,6.9,8.8,12.9C173,291.4,183.4,293.3,187.4,286.8L187.4,286.8z"/>
		</g>
	</g>
</g>
</svg>
