<?xml version="1.0" encoding="utf-8"?>
<!-- Generator: Adobe Illustrator 27.0.0, SVG Export Plug-In . SVG Version: 6.00 Build 0)  -->
<svg version="1.1" id="Layer_1" xmlns="http://www.w3.org/2000/svg" xmlns:xlink="http://www.w3.org/1999/xlink" x="0px" y="0px"
	 viewBox="0 0 400 400" style="enable-background:new 0 0 400 400;" xml:space="preserve">
<style type="text/css">
	.st0{fill:none;}
	.st1{fill:#FEFEFE;stroke:#CECECE;stroke-miterlimit:10;}
	.st2{fill:#00A9E7;}
</style>
<rect x="6" y="50.1" class="st0" width="389.2" height="299.7"/>
<path class="st1" d="M6,50.1h69.4c22.8,0,44.6,9.4,60.3,25.9l259.6,273.8H143.7L6,50.1z"/>
<g>
	<path class="st2" d="M218.2,285.6h15.7l-0.2-29.9l10.7,29.9h14.7l10.4-30.1l0.2,30.1h15.2v-41.4h-25.5l-7.3,23.2l-8-23.2h-25.7
		v41.4H218.2z"/>
	<path class="st2" d="M172.6,244.2H188l-0.2,31.2h25.5v10.2h-40.8L172.6,244.2z"/>
	<path class="st2" d="M149.9,262.4l17.4-18.2h-15.5L137,260v-15.9h-16v41.4h16l-0.2-15.2l15.5,15.2h19.5L149.9,262.4z"/>
	<path class="st2" d="M172.5,221.7c5,0,9-4,9-9s-4-9-9-9s-9,4-9,9S167.5,221.7,172.5,221.7z"/>
	<path class="st2" d="M192.9,221.7c5,0,9-4,9-9s-4-9-9-9s-9,4-9,9S188,221.7,192.9,221.7z"/>
	<path class="st2" d="M213.3,221.7c5,0,9-4,9-9s-4-9-9-9s-9,4-9,9S208.4,221.7,213.3,221.7z"/>
	<path class="st2" d="M233.7,221.7c5,0,9-4,9-9s-4-9-9-9s-9,4-9,9S228.8,221.7,233.7,221.7z"/>
	<path class="st2" d="M195.2,199.9v-4.8h15.9v4.8H195.2z M200.8,205.4v-15.9h4.8v15.9H200.8z"/>
	<path class="st2" d="M234.1,223.8h-61.4v11h61.4V223.8z"/>
</g>
</svg>
