<?xml version="1.0" encoding="utf-8"?>
<!-- Generator: Adobe Illustrator 27.0.0, SVG Export Plug-In . SVG Version: 6.00 Build 0)  -->
<svg version="1.1" id="Layer_1" xmlns="http://www.w3.org/2000/svg" xmlns:xlink="http://www.w3.org/1999/xlink" x="0px" y="0px"
	 viewBox="0 0 400 400" style="enable-background:new 0 0 400 400;" xml:space="preserve">
<style type="text/css">
	.st0{clip-path:url(#SVGID_00000116211864050819899430000004601113192912187071_);}
	.st1{fill:#00529B;}
	.st2{fill:#FDE013;}
	.st3{fill:#FFFFFF;}
	.st4{fill:#1EA1DB;}
	.st5{fill:#93C843;}
</style>
<g>
	<g>
		<defs>
			<rect id="SVGID_1_" x="4" y="47.1" width="392" height="306.1"/>
		</defs>
		<clipPath id="SVGID_00000168116455765040241750000015031122534716221338_">
			<use xlink:href="#SVGID_1_"  style="overflow:visible;"/>
		</clipPath>
		<g style="clip-path:url(#SVGID_00000168116455765040241750000015031122534716221338_);">
			<path class="st1" d="M78.7,47.1c19.3,0,37.7,8,50.9,22.1L396,353.3H144.3l-27.9-60.9l-5.3-11.5L4,47.1H78.7z"/>
			<path class="st1" d="M129,261.8c-12.5-34.4,10.1-62.2,50.4-62.2s83.1,27.9,95.6,62.3s-10.1,62.2-50.4,62.2S141.5,296.2,129,261.8
				"/>
			<path class="st2" d="M199.3,232.9l5.5-24.5l2.8,27.5l13-19.9l-5.1,24.7l19.6-14l-12.6,20.2l24.9-7.1l-19.3,14.4l28.5,0.3
				l-24.7,7.5l30.2,7.6l-28.3,0.2l29.7,14.4l-30.1-7.2l27.3,20.3l-29.8-14l23,24.7l-27.5-20l17.1,27.5L220.2,291l10.1,28.4L213,292
				l2.4,27.4L204.9,291l-5.5,24.5l-2.8-27.5l-13,19.9l5.1-24.7l-19.6,14l12.6-20.2l-24.9,7.1l19.3-14.4l-28.5-0.3l24.7-7.5
				l-30.2-7.6l28.3-0.2l-29.7-14.4l30.1,7.2l-27.3-20.3l29.8,14.1l-23-24.7l27.5,20l-17.1-27.5L184,233l-10.1-28.4l17.5,27.4
				l-2.4-27.4L199.3,232.9z"/>
			<path class="st3" d="M209.6,282.6c-11.4,0-24.1-9.3-28.2-20.7c-4.2-11.4,1.8-20.7,13.2-20.7s24.1,9.3,28.2,20.7
				S221,282.6,209.6,282.6z M193.8,239.1c-12.5,0-19.1,10.2-14.5,22.7c4.6,12.5,18.5,22.8,31,22.8c12.6,0,19.1-10.2,14.5-22.7
				C220.3,249.4,206.3,239.1,193.8,239.1z"/>
			<path class="st4" d="M264.1,261.9h24c-11.3-28.3-43.6-55.7-81-63.1c-17.2-3.4-40.2-2-52.8,5.1c2.2-0.8,4.6-1.5,7-2.1
				c1.6-0.4,3.2-0.7,4.8-1c4.2-0.7,8.7-1,13.4-1c0.5,0,1.1,0,1.7,0C215,200.7,251.9,228.2,264.1,261.9L264.1,261.9z"/>
			<path class="st5" d="M140,262h-24c11.3,28.3,43.6,55.7,81,63.1c17.2,3.4,40.2,2,52.8-5.1c-2.2,0.8-4.6,1.5-7,2.1
				c-1.6,0.4-3.2,0.7-4.8,1c-4.2,0.7-8.7,1-13.4,1c-0.5,0-1.1,0-1.7,0C189.2,323.1,152.3,295.6,140,262L140,262z"/>
		</g>
	</g>
</g>
</svg>
