<?xml version="1.0" encoding="utf-8"?>
<!-- Generator: Adobe Illustrator 27.0.0, SVG Export Plug-In . SVG Version: 6.00 Build 0)  -->
<svg version="1.1" id="Layer_1" xmlns="http://www.w3.org/2000/svg" xmlns:xlink="http://www.w3.org/1999/xlink" x="0px" y="0px"
	 viewBox="0 0 400 400" style="enable-background:new 0 0 400 400;" xml:space="preserve">
<style type="text/css">
	.st0{clip-path:url(#SVGID_00000044167456391381397850000001726103046595253641_);}
	.st1{fill:#B9D4DD;}
	.st2{fill:#0E7442;}
	.st3{fill:#50A548;}
	.st4{fill:#4DA247;}
	.st5{fill:#94B739;}
	.st6{fill:#FFFFFF;}
</style>
<g>
	<g>
		<defs>
			<rect id="SVGID_1_" x="3.2" y="50.5" width="392.8" height="299.3"/>
		</defs>
		<clipPath id="SVGID_00000057146193517706167620000001469826261326029481_">
			<use xlink:href="#SVGID_1_"  style="overflow:visible;"/>
		</clipPath>
		<g style="clip-path:url(#SVGID_00000057146193517706167620000001469826261326029481_);">
			<path class="st1" d="M217.5,315.5l34.2-50.6L208,226.2l-38.2,50.7L217.5,315.5z"/>
			<path class="st2" d="M217.5,315.5l42.4,34.3H396L278.4,225.5l-26.6,39.4L217.5,315.5z"/>
			<path class="st3" d="M3.2,50.5L114.5,291l28.7-35.6l26.7,21.6l38.2-50.6l43.7,38.7l26.6-39.4l-143.8-152
				c-14-14.8-33.6-23.3-54-23.3H3.2V50.5z"/>
			<path class="st4" d="M217.5,315.5l-23.2,34.3h65.6L217.5,315.5z"/>
			<path class="st5" d="M143.2,255.3L114.5,291l27.2,58.8h52.6l23.2-34.3l-47.7-38.6L143.2,255.3z"/>
			<path class="st6" d="M169.6,128.2c0,0-35.1-0.4-51.2,2.9c-10.5,2.1-24.4,23.3-24.4,23.3h22.2c0,0,7.7-9.3,15.1-16.1
				C138.7,131.4,169.6,128.2,169.6,128.2L169.6,128.2z"/>
			<path class="st6" d="M79.7,137c-6.5-7-22.9-8.1-33.5-10.6c6.3,0,35.7,3.2,44.2,4.1c7.7,0.9,11.8,8.6,11.8,8.6l-11.8,13.2
				C90.5,152.4,85.7,143.3,79.7,137z"/>
		</g>
	</g>
</g>
</svg>
