<?xml version="1.0" encoding="utf-8"?>
<!-- Generator: Adobe Illustrator 27.0.0, SVG Export Plug-In . SVG Version: 6.00 Build 0)  -->
<svg version="1.1" id="Layer_1" xmlns="http://www.w3.org/2000/svg" xmlns:xlink="http://www.w3.org/1999/xlink" x="0px" y="0px"
	 viewBox="0 0 400 400" style="enable-background:new 0 0 400 400;" xml:space="preserve">
<style type="text/css">
	.st0{clip-path:url(#SVGID_00000088829281563457278440000009152298311660171161_);}
	.st1{fill:#DA374C;}
	.st2{fill-rule:evenodd;clip-rule:evenodd;fill:#FFFFFF;}
	.st3{fill:#3E65AD;}
	.st4{fill-rule:evenodd;clip-rule:evenodd;fill:#616280;}
	.st5{fill:#FFFFFF;}
	.st6{fill-rule:evenodd;clip-rule:evenodd;fill:#FFEB00;}
</style>
<g>
	<g>
		<defs>
			<rect id="SVGID_1_" x="4.8" y="47.5" width="391.2" height="305.5"/>
		</defs>
		<clipPath id="SVGID_00000165197844693073336120000001928648105282725778_">
			<use xlink:href="#SVGID_1_"  style="overflow:visible;"/>
		</clipPath>
		<g style="clip-path:url(#SVGID_00000165197844693073336120000001928648105282725778_);">
			<path class="st1" d="M79.4,47.5c19.2,0,37.6,8,50.8,22L396,352.9H144.8l-27.9-60.8l-5.3-11.5L4.8,47.5H79.4z"/>
			<path class="st2" d="M192.7,301.1c1.3,7.6,1.9,11.4,5.1,14.6c1.9,2.5,5.1,1.9,6.3,0c2.5-3.2,3.8-14.6,3.8-14.6
				s15.2,21.6,36.7,31.7c9.5,4.4,10.8-1.9,8.9-3.8c-4.4-6.3-8.2-13.9-10.8-20.3c-2.5-5.7-3.8-13.9-12.7-22.8
				c8.9,2.5,18.4,1.9,22.8,0c4.4-1.3,4.4-4.4,3.2-7c-3.8-5.1-13.9-9.5-24.1-12c20.3-2.5,24.7-7,36.7-9.5c8.9-1.9,13.9-3.2,15.8-5.7
				c0.6-1.3,1.3-5.1-3.2-7.6c-4.4-1.3-24.1-5.7-32.9-7c-3.8-0.6-12.7-2.5-19.6,5.7c4.4-11.4,10.8-19.6,14.6-26
				c2.5-4.4,0-7.6-5.1-6.3c-5.7,0.6-15.8,8.9-24.7,17.7c-0.6,1.3-2.5,0.6-2.5-0.6c-5.7-16.5-4.4-23.4-5.1-41.8
				c0-5.7-4.4-11.4-11.4-4.4c-10.1,11.4-10.8,33.6-8.9,52.6c-4.4-5.1-10.1-9.5-16.5-12.7c-15.2-7-13.3,3.2-10.8,8.2
				c1.9,3.8,4.4,9.5,12,14.6c-0.6,0.6-6.3-3.2-15.2-3.8c-8.9,0-11.4,0.6-22.8,1.3c-7,0.6-10.1,0.6-13.9,0.6c-4.4,0-9.5,4.4-1.3,12
				c4.4,4.4,17.7,10.1,25.3,12c11.4,3.2,17.7,2.5,21.5,3.8c-1.3,0.6-12.1,3.8-17.1,12.7c-1.3,2.5-1.3,7,2.5,8.2
				c8.2,3.2,18.4-2.5,20.3-3.8c-7,16.5-12.1,22.2-24.1,36.7c-3.8,4.4-3.2,11.4,6.3,10.8C166.6,332.7,187.5,314.4,192.7,301.1
				L192.7,301.1z"/>
			<path class="st3" d="M150.9,336.9c-5.7,0-7.9-2.7-8.8-4.3c-1.5-3-0.7-7,1.9-10l1.8-2.1c9.2-11.2,14.1-17.1,19.5-28.5
				c-4.4,1.8-10.8,3.4-16.5,1.2c-2-0.7-3.4-2-4.2-3.9c-0.9-2.2-0.8-5.1,0.5-7.5c2.9-5.1,7.5-8.4,11.3-10.5c-3.6-0.4-8.3-1-14.4-2.7
				c-7.5-1.9-21.5-7.7-26.3-12.6c-5.5-5.1-5.6-9-4.7-11.3c1.2-3.1,4.6-4.5,7.4-4.5c3.8,0,6.9,0,13.8-0.6c4.3-0.2,7.3-0.5,10-0.7
				c4.3-0.3,7.4-0.6,13.1-0.6c2.3,0.2,4.4,0.5,6.2,1c-2.4-2.9-3.8-5.8-4.9-7.9l-0.3-0.6c-2-3.9-3.1-9.1-0.3-12
				c2.5-2.6,7.1-2.3,14,0.8c4.6,2.3,9,5.3,12.8,8.8c-1.1-16.9,0.1-37.2,10-48.3c4.4-4.4,7.9-4.3,10-3.4c3.1,1.3,5.1,5,5.1,9.3
				c0.1,3.7,0.2,7,0.2,9.9c0.2,11.2,0.3,18.1,4.4,30.3c6.6-6.5,17.9-16.7,25.1-17.6c3.3-0.8,6-0.1,7.6,1.9c1.5,2,1.4,4.8-0.2,7.7
				c-1,1.6-2.1,3.3-3.3,5.1c-2.4,3.6-5.1,7.9-7.7,12.8c5.6-2.5,11.1-1.5,14-1l0.4,0.1c9.1,1.3,28.8,5.8,33.2,7
				c0.2,0,0.3,0.1,0.5,0.2c5.3,3,5.3,7.9,4,10.5c-0.1,0.1-0.1,0.2-0.2,0.3c-2.4,3.2-8.1,4.6-17.1,6.5c-4.4,0.9-7.8,2.1-11.4,3.4
				c-4.3,1.5-9,3.2-16.1,4.6c5.9,2.2,12.8,5.5,16.2,10c0.1,0.1,0.1,0.2,0.2,0.3c1.1,2.2,1.3,4.4,0.5,6.2c-0.6,1.3-1.8,2.9-4.9,3.8
				c-3.8,1.6-10.5,2.3-17.6,1.4c4,5.3,5.7,10.2,7.2,14.3c0.5,1.5,1,2.9,1.6,4.2c2.8,7,6.6,14.2,10.4,19.7c1.5,1.7,1.7,4.5,0.3,6.5
				c-1,1.4-4.1,4.3-11.8,0.7c-16.2-7.6-28.8-21.3-34.4-28.2c-0.7,3.7-1.8,8.3-3.5,10.4c-1.1,1.5-2.9,2.5-4.8,2.6
				c-2,0.1-3.7-0.8-5-2.4c-2.5-2.5-3.5-5.3-4.4-9.3c-8,12.7-25.8,27.2-39.4,29C151.7,336.9,151.3,336.9,150.9,336.9L150.9,336.9z
				 M192.6,298.9c0.1,0,0.1,0,0.2,0c1,0.1,1.8,0.8,2,1.8c1.2,7.3,1.8,10.7,4.5,13.4c0.1,0.1,0.1,0.2,0.2,0.2
				c0.4,0.5,0.9,0.8,1.4,0.8s1-0.3,1.3-0.7c0-0.1,0.1-0.1,0.1-0.2c1.5-1.8,2.8-9,3.3-13.4c0.1-0.9,0.8-1.6,1.6-1.9
				c0.9-0.2,1.8,0.1,2.3,0.9c0.2,0.2,15.1,21.2,35.9,31c4,1.9,5.8,1.4,6.3,0.8c0.3-0.4,0.2-1,0.1-1.1c-0.1-0.1-0.2-0.2-0.3-0.3
				c-4-5.8-8-13.3-11-20.6c-0.6-1.4-1.1-2.9-1.7-4.4c-1.8-5-4-11.2-10.5-17.7c-0.7-0.7-0.8-1.8-0.3-2.7c0.5-0.9,1.5-1.3,2.5-1
				c8.1,2.3,17.2,1.9,21.4,0.1c0.1,0,0.2-0.1,0.3-0.1c0.8-0.2,1.8-0.7,2.2-1.4c0.3-0.5,0.1-1.4-0.3-2.3c-3.2-4.1-12.1-8.4-22.7-11.1
				c-1-0.3-1.7-1.2-1.7-2.3c0.1-1.1,0.9-1.9,1.9-2c12.3-1.5,18.6-3.8,24.6-5.9c3.7-1.3,7.3-2.6,12-3.6c7.4-1.6,12.8-2.9,14.4-4.7
				c0.2-0.6,0.7-2.7-2.1-4.4c-4.8-1.3-23.8-5.6-32.4-6.8l-0.5-0.1c-3.9-0.7-11.3-1.9-17.1,5c-0.7,0.8-1.9,1-2.8,0.5
				c-0.9-0.5-1.3-1.7-0.9-2.7c3.4-8.8,8-15.8,11.6-21.3c1.2-1.8,2.3-3.5,3.1-4.9c0.8-1.5,0.8-2.5,0.5-2.8c-0.3-0.4-1.5-0.7-3.2-0.3
				c-0.1,0-0.2,0-0.3,0c-4.3,0.5-13.2,7-23.2,16.9c-0.8,1.2-2.2,1.8-3.7,1.4c-1.5-0.4-2.6-1.5-2.8-3c-4.6-13.3-4.7-20.5-4.9-32.4
				c0-2.9-0.1-6.2-0.2-9.9c0-2.5-1-4.7-2.4-5.3c-1.3-0.5-3.2,0.4-5.1,2.3c-10,11.2-10,33.9-8.3,50.9c0.1,1-0.4,1.9-1.3,2.2
				c-0.9,0.4-1.9,0.2-2.5-0.6c-4.3-5-9.8-9.2-15.7-12.1c-5.4-2.5-8.2-2.5-9-1.7c-0.9,0.9-0.4,4.1,1,7l0.3,0.6
				c1.8,3.6,4.3,8.6,11,13.1c0.5,0.4,0.9,1,1,1.6c0.1,0.7-0.2,1.3-0.6,1.8c-1.2,1.3-2.7,0.7-4.9-0.2c-2.5-1-6.7-2.6-11.9-3
				c-5.4,0-8.4,0.2-12.6,0.6c-2.7,0.2-5.7,0.5-10,0.7c-7.1,0.6-10.3,0.6-14.1,0.6c-1.3,0-2.9,0.6-3.3,1.8c-0.6,1.5,0.8,3.9,3.6,6.5
				c3.9,3.9,16.6,9.5,24.4,11.5c6.7,1.9,11.6,2.4,15.3,2.8c2.6,0.3,4.6,0.5,6.4,1.1c0.8,0.3,1.4,1,1.5,1.9s-0.4,1.7-1.2,2.1
				c-0.2,0.1-0.6,0.3-1.1,0.5c-2.7,1.1-11,4.3-15,11.2c-0.5,1-0.8,2.6-0.3,3.8c0.3,0.7,0.8,1.1,1.6,1.4c8,3.1,18.2-3.5,18.3-3.6
				c0.8-0.5,1.9-0.5,2.6,0.1c0.8,0.6,1,1.7,0.6,2.5c-6.7,15.9-11.7,22-22.6,35.2l-1.8,2.2c-1.5,1.7-2,3.9-1.4,5.3
				c0.7,1.4,2.8,2.1,5.7,1.9c14.1-1.8,34.1-20,38.8-32.2C190.9,299.4,191.7,298.9,192.6,298.9L192.6,298.9z"/>
			<path class="st4" d="M216,273.2l0.6-19.6l-17.7-9.5l-13.3,10.8l1.9,17.7l12,7.6L216,273.2z"/>
			<path class="st5" d="M186.6,273.1l-2-18.7l14.2-11.5l18.8,10.1l-0.7,20.8l-17.5,7.4L186.6,273.1z M215.1,272.5l0.6-18.4
				l-16.7-8.9l-12.4,10.1l1.8,16.8l11.2,7.1L215.1,272.5L215.1,272.5z"/>
			<path class="st6" d="M190.7,252.3c5.7-1.9,8.2-7,6.3-11.4c-1.3-4.4-7-6.3-12-4.4c-5.1,1.9-7.6,7-6.3,11.4
				C180.5,252.3,185.6,254.2,190.7,252.3L190.7,252.3z"/>
			<path class="st3" d="M186.8,255.2c-4.4,0-8.4-2.4-10.2-6.5c0-0.1-0.1-0.2-0.1-0.3c-1.6-5.7,1.8-11.8,7.7-14.1
				c3.4-1.3,7.2-1.1,10.2,0.4c2.3,1.2,4,3.1,4.7,5.4c1,2.5,1,5.3-0.1,7.8c-1.3,3-4,5.3-7.5,6.4C189.9,254.9,188.3,255.2,186.8,255.2
				L186.8,255.2z M185.8,238.5c-3.8,1.4-5.9,5.2-5,8.6c1.5,3.3,5.3,4.6,9.2,3.1c0,0,0,0,0.1,0c2.4-0.8,4.1-2.3,5-4.1
				c0.6-1.4,0.7-2.9,0-4.4c0-0.1-0.1-0.2-0.1-0.3c-0.4-1.5-1.6-2.4-2.5-2.8c-1-0.5-2.2-0.8-3.4-0.8
				C187.9,237.9,186.8,238.1,185.8,238.5z"/>
			<path class="st6" d="M206.5,250.4c-4.4-3.2-6.3-8.9-4.4-12c1.9-3.8,7.6-3.8,12.7-0.6c4.4,3.2,7,8.9,4.4,12
				C217.3,253.6,211.6,253.6,206.5,250.4L206.5,250.4z"/>
			<path class="st3" d="M213.8,254.9c-2.7,0-5.6-0.9-8.4-2.6c0,0-0.1,0-0.1-0.1c-5.3-3.8-7.6-10.6-5.1-14.9c0.9-1.8,2.5-3.1,4.7-3.7
				c3.2-0.9,7.4-0.1,11.2,2.3c3.4,2.4,5.8,6.1,6.3,9.5c0.3,2.1-0.1,4-1.3,5.5c-1,1.8-2.5,3-4.6,3.6
				C215.6,254.8,214.7,254.9,213.8,254.9L213.8,254.9z M207.5,237.6c-0.6,0-1.1,0.1-1.5,0.2c-0.9,0.3-1.6,0.8-2,1.5
				c0,0,0,0.1-0.1,0.1c-1.2,2,0.2,6.5,3.8,9.1c2.7,1.6,5.5,2.3,7.5,1.7c0.9-0.3,1.6-0.8,2-1.5c0.1-0.1,0.2-0.3,0.3-0.4
				c0.5-0.6,0.6-1.4,0.5-2.3c-0.3-2.2-2.1-4.9-4.4-6.5C211.6,238.3,209.4,237.6,207.5,237.6L207.5,237.6z"/>
			<path class="st6" d="M214.8,263c0.6-5.7,4.4-10.8,8.2-10.1c4.4,0,7.6,5.1,7,11.4c0,5.7-3.8,10.1-8.2,10.1
				C217.3,273.8,214.1,268.7,214.8,263z"/>
			<path class="st3" d="M221.7,276.6c-0.1,0-0.2,0-0.3,0c-5.6-0.8-9.6-7-8.8-13.8c0.5-4.4,2.6-8.4,5.4-10.6c1.6-1.2,3.4-1.8,5.2-1.5
				c2.2,0,4.3,1,5.9,2.8c2.4,2.6,3.5,6.6,3.1,10.9C232.1,271.2,227.4,276.7,221.7,276.6L221.7,276.6z M222.3,255
				c-0.5,0-1.1,0.2-1.7,0.7c-1.9,1.4-3.3,4.4-3.7,7.5c-0.5,4.3,1.8,8.4,4.9,9c3.2-0.1,5.9-3.7,5.9-7.9c0-0.1,0-0.1,0-0.2
				c0.3-3.1-0.4-5.9-1.9-7.6c-0.8-0.9-1.8-1.4-2.8-1.4c-0.1,0-0.2,0-0.4,0C222.5,255.1,222.4,255.1,222.3,255L222.3,255z"/>
			<path class="st6" d="M200.8,287.8c1.9,4.4,8.2,5.7,13.9,3.2s8.9-7.6,7-12.7c-1.9-3.8-8.2-5.7-13.9-3.2
				C202.1,277.6,198.9,283.3,200.8,287.8z"/>
			<path class="st3" d="M208.8,294.4c-1.7,0-3.3-0.3-4.8-0.9c-2.5-1-4.3-2.7-5.3-4.9c-2.4-5.5,1.3-12.5,8.1-15.5
				c6.5-2.9,14.2-1,16.8,4.2l0.1,0.2c2.3,6-1.1,12.3-8.1,15.4C213.4,293.9,211.1,294.4,208.8,294.4L208.8,294.4z M219.7,279.2
				c-1.4-2.6-6.5-4.1-11-2c-4.6,2-7.3,6.5-5.8,9.8c0.6,1.4,1.9,2.2,2.8,2.6c2.3,0.9,5.4,0.7,8.2-0.5
				C217.9,287.1,221.2,283.4,219.7,279.2L219.7,279.2z"/>
			<path class="st6" d="M171,264.3c-0.6-6.3,2.5-12.1,7-12.7c4.4-1.3,8.9,3.8,10.1,10.1c0.6,6.3-1.9,12.1-6.3,12.7
				C176.7,275.1,172.3,270.6,171,264.3z"/>
			<path class="st3" d="M180.8,276.7c-5.6,0-10.5-4.8-12-12c0-0.1,0-0.1,0-0.2c-0.8-7.4,3.1-14.1,8.7-15c2-0.5,4.1-0.2,6,1
				c3.2,2,5.8,6.1,6.7,10.9c0,0.1,0,0.1,0,0.2c0.8,7.8-2.7,14.3-8.2,15.1l0,0C181.7,276.7,181.3,276.7,180.8,276.7L180.8,276.7z
				 M181.5,272.3c3-0.4,4.9-5,4.5-10.2c-0.7-3.5-2.5-6.6-4.7-7.9c-0.9-0.6-1.8-0.7-2.7-0.5c-0.1,0-0.2,0.1-0.3,0.1
				c-3.2,0.5-5.6,5.2-5.1,10.2C174.3,269.3,177.8,272.7,181.5,272.3L181.5,272.3z"/>
			<path class="st6" d="M184.3,289.6c-5.1-3.2-6.3-8.9-4.4-13.3c2.5-3.8,8.9-4.4,13.3-1.3c5.1,2.5,7,8.9,4.4,12.7
				C195.1,292.2,189.4,292.8,184.3,289.6L184.3,289.6z"/>
			<path class="st3" d="M183.2,291.5c-5.5-3.5-7.8-10.2-5.3-16l0.2-0.4c1.4-2.1,3.7-3.5,6.5-4.1c3.4-0.6,6.9,0.2,9.7,2.1
				c3.1,1.6,5.3,4.4,6.2,7.8c0.8,2.9,0.4,5.8-1,7.9c-1.4,2.4-3.5,4-6.1,4.7c-0.9,0.2-1.8,0.3-2.7,0.3
				C188.2,293.8,185.6,293.1,183.2,291.5z M186.9,275.3c-0.5,0-1,0-1.5,0.1c-1.5,0.3-2.8,1-3.6,2c-1.3,3.2-0.6,7.7,3.7,10.4
				c2.3,1.5,4.8,2,6.8,1.5c1.5-0.4,2.6-1.2,3.5-2.7c0.8-1.2,1-2.8,0.5-4.5c-0.6-2.2-2.1-4-4.1-5l-0.3-0.2
				C190.5,275.8,188.6,275.3,186.9,275.3L186.9,275.3z"/>
			<path class="st6" d="M188.8,266.2c-2.5-7,1.3-14.6,8.2-16.5c6.3-1.9,13.9,1.9,15.8,8.9c2.5,7-1.3,14.6-8.2,16.5
				C198.3,277.6,190.7,273.2,188.8,266.2z"/>
			<path class="st3" d="M194.9,276.1c-3.8-1.9-6.7-5.4-7.7-9.3c-1.4-3.8-1.1-8.1,0.7-11.7c1.8-3.5,4.9-6,8.6-7
				c3.6-1.1,7.6-0.6,11,1.3c3.5,1.9,5.9,5,6.9,8.6c1.4,3.8,1.1,8.1-0.7,11.7c-1.8,3.5-4.8,6-8.6,7c-1.4,0.5-2.8,0.8-4.3,0.8
				C198.8,277.5,196.8,277,194.9,276.1z M197.5,251.4c-2.8,0.8-5.2,2.7-6.5,5.3c-1.4,2.7-1.6,6-0.5,9.1c0.8,3.1,3.1,5.8,6,7.3
				c2.5,1.3,5.2,1.4,7.6,0.5l0.2-0.1c2.8-0.8,5.2-2.7,6.5-5.3c1.4-2.7,1.6-6,0.5-9.1c-0.8-2.8-2.7-5.2-5.3-6.6
				c-1.7-1-3.6-1.5-5.5-1.5C199.4,251,198.4,251.1,197.5,251.4z"/>
		</g>
	</g>
</g>
</svg>
