<?xml version="1.0" encoding="utf-8"?>
<!-- Generator: Adobe Illustrator 27.0.0, SVG Export Plug-In . SVG Version: 6.00 Build 0)  -->
<svg version="1.1" id="Layer_1" xmlns="http://www.w3.org/2000/svg" xmlns:xlink="http://www.w3.org/1999/xlink" x="0px" y="0px"
	 viewBox="0 0 400 400" style="enable-background:new 0 0 400 400;" xml:space="preserve">
<style type="text/css">
	.st0{clip-path:url(#SVGID_00000031895792481242193660000009629766726441109684_);}
	.st1{fill:#FBAA18;}
	.st2{fill:#2C439A;}
	.st3{fill:#FEFEFE;}
	.st4{fill:#DE1B23;}
</style>
<g>
	<g>
		<defs>
			<rect id="SVGID_1_" x="5.7" y="48.3" width="389.3" height="304"/>
		</defs>
		<clipPath id="SVGID_00000094596121630318112470000001258039281631243671_">
			<use xlink:href="#SVGID_1_"  style="overflow:visible;"/>
		</clipPath>
		<g style="clip-path:url(#SVGID_00000094596121630318112470000001258039281631243671_);">
			<path class="st1" d="M96.3,50.3l242.6,302h56L130.5,70.2C121.2,60.4,109.3,53.5,96.3,50.3z"/>
			<path class="st2" d="M92.3,237.5l19.7,43l5.2,11.4l27.7,60.5h47.8L92.3,237.5z"/>
			<path class="st3" d="M77.2,48.3l245.2,304H339L96.3,50.3c-5.3-1.3-10.8-2-16.4-2H77.2z"/>
			<path class="st4" d="M77.3,204.6l129.2,147.7h115.9L77.2,48.3H5.7L77.3,204.6z"/>
			<path class="st3" d="M92.3,237.5l100.5,114.9h13.7L77.3,204.6L92.3,237.5z"/>
		</g>
	</g>
</g>
</svg>
