<?xml version="1.0" encoding="utf-8"?>
<!-- Generator: Adobe Illustrator 27.0.0, SVG Export Plug-In . SVG Version: 6.00 Build 0)  -->
<svg version="1.1" id="Layer_1" xmlns="http://www.w3.org/2000/svg" xmlns:xlink="http://www.w3.org/1999/xlink" x="0px" y="0px"
	 viewBox="0 0 400 400" style="enable-background:new 0 0 400 400;" xml:space="preserve">
<style type="text/css">
	.st0{clip-path:url(#SVGID_00000121274812031379231250000010481612721485338814_);}
	.st1{fill:#3F3E98;}
	.st2{fill:#FFFFFF;}
</style>
<g>
	<g>
		<defs>
			<rect id="SVGID_1_" x="6.5" y="48.3" width="387.5" height="302.6"/>
		</defs>
		<clipPath id="SVGID_00000057853960984681143650000001919209666038469283_">
			<use xlink:href="#SVGID_1_"  style="overflow:visible;"/>
		</clipPath>
		<g style="clip-path:url(#SVGID_00000057853960984681143650000001919209666038469283_);">
			<path class="st1" d="M80.4,48.3c19.1,0,37.3,7.9,50.3,21.8L394,350.9H145.1l-27.6-60.2l-5.2-11.4L6.5,48.3H80.4z"/>
			<path class="st2" d="M117.3,216.9h-16c1.7,1.5,3.5,3,5.5,4.5c4.2,2.4,8.9,4.6,14.1,6.5h8.3c-4.1-2.9-7.8-6.1-10.9-9.4
				C117.9,218,117.6,217.4,117.3,216.9L117.3,216.9z"/>
			<path class="st2" d="M122.4,218.5c3.1,3.4,6.8,6.5,10.9,9.4h11.3c-2.8-3.2-5.2-6.7-7.3-10.3c-0.1-0.2-0.2-0.4-0.2-0.6l-15.7-0.1
				C121.7,217.4,122,218,122.4,218.5z"/>
			<path class="st2" d="M142.4,216.9c0.1,0.2,0.2,0.4,0.2,0.6c2.1,3.7,4.5,7.2,7.4,10.4h6.7v-11H142.4L142.4,216.9z"/>
			<path class="st2" d="M174.9,216.9h-14.3v11h6.7c2.8-3.3,5.3-6.7,7.4-10.4C174.7,217.3,174.8,217.1,174.9,216.9L174.9,216.9z"/>
			<path class="st2" d="M180.1,217c-0.1,0.2-0.1,0.4-0.2,0.6c-2,3.7-4.5,7.1-7.3,10.3H184c4.1-2.9,7.8-6.1,10.9-9.4
				c0.3-0.5,0.6-1.1,0.9-1.6L180.1,217z"/>
			<path class="st2" d="M217.1,216.9h-16c-0.3,0.5-0.6,1.1-0.9,1.6c-3.1,3.4-6.8,6.5-10.9,9.4h8.3c5.2-2,9.9-4.2,14.1-6.5
				C213.6,219.9,215.5,218.4,217.1,216.9L217.1,216.9z"/>
			<path class="st2" d="M92.4,201.8c0.6,3.2,1.7,6.3,3.3,9.3c0.8,1.1,1.7,2.2,2.7,3.2c1.1,0,5.1,0,17.4-0.1c-2-4.1-3.3-8.2-4-12.4
				H92.4z"/>
			<path class="st2" d="M115.9,201.8c0.7,4.2,2,8.3,3.9,12.3H136c-1.2-4-2.1-8.1-2.6-12.2h-17.5V201.8z"/>
			<path class="st2" d="M138.7,201.8c0.5,4.1,1.4,8.2,2.6,12.2h15.3v-12.2H138.7z"/>
			<path class="st2" d="M178.5,201.8h-17.9V214h15.3C177.1,210.1,178,206,178.5,201.8L178.5,201.8z"/>
			<path class="st2" d="M183.8,201.8c-0.5,4.1-1.3,8.2-2.6,12.2l16.1,0.2c2-4,3.3-8.2,4-12.4H183.8z"/>
			<path class="st2" d="M206.6,201.8c-0.7,4.2-2.1,8.4-4,12.4c12.2,0.1,16.3,0.1,17.4,0.1c1-1.1,1.9-2.1,2.7-3.2
				c1.6-3.1,2.8-6.2,3.4-9.3H206.6z"/>
			<path class="st2" d="M114.8,186.5h-18c-0.4,0.4-0.7,0.8-1,1.2c-1.8,3.4-3,6.9-3.5,10.4h19.3C112.1,194.2,113.2,190.3,114.8,186.5
				L114.8,186.5z"/>
			<path class="st2" d="M118.8,186.5c-1.6,3.8-2.7,7.8-3.2,11.7l17.6-0.1c0.3-3.9,1-7.8,2-11.6L118.8,186.5L118.8,186.5z"/>
			<path class="st2" d="M140.4,186.5c-1,3.8-1.6,7.7-2,11.6h18.2v-11.6H140.4z"/>
			<path class="st2" d="M160.6,186.5v11.6h18.2c-0.3-3.9-1-7.8-2-11.6H160.6z"/>
			<path class="st2" d="M182.1,186.5c1,3.8,1.6,7.7,2,11.6l17.6,0.1c-0.5-4-1.6-7.9-3.2-11.7L182.1,186.5L182.1,186.5z"/>
			<path class="st2" d="M203.7,186.5c1.6,3.8,2.7,7.7,3.2,11.7h19.3c-0.5-3.5-1.7-7-3.5-10.4c-0.3-0.4-0.7-0.8-1-1.2L203.7,186.5
				L203.7,186.5z"/>
			<path class="st2" d="M119.9,171.2c-4.8,1.9-9.2,3.9-13.1,6.2c-2.5,1.8-4.7,3.7-6.7,5.6h16.3c0.6-1.1,1.2-2.2,1.8-3.2
				c2.8-3,6-5.9,9.7-8.5h-8V171.2z"/>
			<path class="st2" d="M132,171.2c-3.6,2.7-6.9,5.5-9.7,8.5c-0.7,1.1-1.3,2.1-1.9,3.2h15.7c0.4-1.1,0.7-2.2,1.2-3.3
				c1.7-3,3.5-5.8,5.7-8.4H132z"/>
			<path class="st2" d="M148.3,171.2c-2.1,2.7-4,5.5-5.7,8.4c-0.4,1.1-0.8,2.2-1.2,3.3h15.2v-11.8h-8.3V171.2z"/>
			<path class="st2" d="M160.6,171.2V183h15.2c-0.4-1.1-0.7-2.2-1.2-3.3c-1.7-3-3.5-5.8-5.7-8.4h-8.3V171.2z"/>
			<path class="st2" d="M185.2,171.2h-11c2.1,2.7,4,5.5,5.7,8.4c0.4,1.1,0.8,2.2,1.2,3.3h15.7c-0.6-1.1-1.2-2.2-1.9-3.2
				C192.1,176.7,188.8,173.9,185.2,171.2L185.2,171.2z"/>
			<path class="st2" d="M190.5,171.2c3.7,2.7,6.9,5.5,9.7,8.5c0.7,1.1,1.3,2.1,1.8,3.2h16.3c-2-1.9-4.2-3.8-6.7-5.6
				c-3.9-2.2-8.3-4.3-13.1-6.2h-8V171.2z"/>
		</g>
	</g>
</g>
</svg>
