<?xml version="1.0" encoding="utf-8"?>
<!-- Generator: Adobe Illustrator 27.0.0, SVG Export Plug-In . SVG Version: 6.00 Build 0)  -->
<svg version="1.1" id="Layer_1" xmlns="http://www.w3.org/2000/svg" xmlns:xlink="http://www.w3.org/1999/xlink" x="0px" y="0px"
	 viewBox="0 0 400 400" style="enable-background:new 0 0 400 400;" xml:space="preserve">
<style type="text/css">
	.st0{clip-path:url(#SVGID_00000094603191833042518010000002045536504662958991_);}
	.st1{fill:#1E3D6E;}
	.st2{fill:#FFFFFF;}
	.st3{fill:url(#SVGID_00000038382116728755951260000005171683245422681524_);}
	.st4{fill:url(#SVGID_00000080898768116493933970000010318158471494768775_);}
	.st5{fill:#0B739A;}
	.st6{fill:#6CA2C4;}
	.st7{fill:url(#SVGID_00000129898515624900205050000016995133530352828330_);}
</style>
<g>
	<g>
		<defs>
			<rect id="SVGID_1_" x="4.5" y="48.5" width="391.5" height="302.5"/>
		</defs>
		<clipPath id="SVGID_00000012440078770999206400000008003147742826561694_">
			<use xlink:href="#SVGID_1_"  style="overflow:visible;"/>
		</clipPath>
		<g style="clip-path:url(#SVGID_00000012440078770999206400000008003147742826561694_);">
			<path class="st1" d="M141.2,217.4L281.7,351H396L281.6,230.5L141.2,217.4z"/>
			<path class="st2" d="M270.4,218.8L67.3,186.2L69,190l197.8,161h14.8L141.2,217.4l140.4,13.1L270.4,218.8z"/>
			
				<linearGradient id="SVGID_00000160882711784784073380000007183843911590400422_" gradientUnits="userSpaceOnUse" x1="133.578" y1="268.5" x2="331.478" y2="268.5" gradientTransform="matrix(-1 0 0 1 400.478 2)">
				<stop  offset="0" style="stop-color:#A0C3D8"/>
				<stop  offset="1" style="stop-color:#09649B"/>
			</linearGradient>
			<path style="fill:url(#SVGID_00000160882711784784073380000007183843911590400422_);" d="M266.9,351L69,190l73.4,161H266.9z"/>
			
				<linearGradient id="SVGID_00000027598181376267776240000009400376022330875532_" gradientUnits="userSpaceOnUse" x1="342.5812" y1="48.3923" x2="259.3497" y2="164.3374" gradientTransform="matrix(-1 0 0 1 400.478 2)">
				<stop  offset="0" style="stop-color:#8ECAD9"/>
				<stop  offset="1" style="stop-color:#176D88"/>
			</linearGradient>
			<path style="fill:url(#SVGID_00000027598181376267776240000009400376022330875532_);" d="M23.8,90.8l14.9,32.7l43.3,17
				c4,1.6,8.5-1,9.1-5.3l8.5-57.5l62.4,66.9c2.4,2.5,6.2,2.8,9,0.8l17.3-13.2l-59.5-62.7c-12.7-13.4-30.4-21-48.9-21h-8.7l-4.6,54.2
				c-0.3,3-3.3,4.8-6.1,3.7L23.8,90.8z"/>
			<path class="st5" d="M60.4,106.3c2.8,1.2,5.8-0.7,6.1-3.7l4.6-54.1H4.5l19.3,42.3L60.4,106.3L60.4,106.3z"/>
			<path class="st6" d="M248.4,195.6l-9.9,18l31.9,5.1L248.4,195.6z"/>
			<path class="st5" d="M219.3,164.9l15,48.1l4.2,0.7l9.9-18L219.3,164.9z"/>
			
				<linearGradient id="SVGID_00000182520537634795736340000007738338163037121948_" gradientUnits="userSpaceOnUse" x1="328.8888" y1="80.4331" x2="134.298" y2="332.9747" gradientTransform="matrix(-1 0 0 1 400.478 2)">
				<stop  offset="7.000000e-02" style="stop-color:#FFFFFF"/>
				<stop  offset="1" style="stop-color:#09649B"/>
			</linearGradient>
			<path style="fill:url(#SVGID_00000182520537634795736340000007738338163037121948_);" d="M67.3,186.2l167,26.7l-15-48.1
				l-31.1-32.7l-17.3,13.2c-2.7,2.1-6.6,1.8-9-0.8L99.6,77.7l-8.5,57.5c-0.6,4.3-5.1,6.8-9.1,5.3l-43.3-17L67.3,186.2z"/>
		</g>
	</g>
</g>
</svg>
