<?xml version="1.0" encoding="utf-8"?>
<!-- Generator: Adobe Illustrator 27.0.0, SVG Export Plug-In . SVG Version: 6.00 Build 0)  -->
<svg version="1.1" id="Layer_1" xmlns="http://www.w3.org/2000/svg" xmlns:xlink="http://www.w3.org/1999/xlink" x="0px" y="0px"
	 viewBox="0 0 400 400" style="enable-background:new 0 0 400 400;" xml:space="preserve">
<style type="text/css">
	.st0{fill:#FFFFFF;stroke:#C6C6C6;stroke-miterlimit:10;}
	.st1{fill:#CB3429;}
	.st2{fill:#F8E91E;}
</style>
<path class="st0" d="M78.6,46.7c19.3,0,37.7,8,50.9,22l266,283.7H144.1l-27.9-60.8l-5.3-11.5L4,46.7H78.6z"/>
<path class="st1" d="M197.4,337.3l-32.2-31.1l42.8,6.9l-16-38.3l36.9,21.3l3.2-40.4l24.7,34l24.2-34.3l2.9,41.2l33.8-22.3
	l-13.5,39.6l43.8-8l-33.5,31.6l56.1,14.9H144.3L197.4,337.3z"/>
<path class="st2" d="M256.9,314.3c19.2,0,35,15,36.1,34h45l-31-8.2l29.1-27.5l-38.1,6.9l11.8-34.4l-29.3,19.4l-2.5-35.8l-21,29.8
	L235.5,269l-2.8,35.1l-32.1-18.5l13.8,33.2l-37.2-6l27.9,27l-29.6,8.4h45.2C222,329.3,237.7,314.3,256.9,314.3L256.9,314.3z"/>
<path class="st1" d="M256.9,314.3c-19.2,0-35,15-36.1,34H293C291.9,329.3,276.2,314.3,256.9,314.3L256.9,314.3z"/>
</svg>
