<?xml version="1.0" encoding="utf-8"?>
<!-- Generator: Adobe Illustrator 26.0.1, SVG Export Plug-In . SVG Version: 6.00 Build 0)  -->
<svg version="1.1" id="Layer_1" xmlns="http://www.w3.org/2000/svg" xmlns:xlink="http://www.w3.org/1999/xlink" x="0px" y="0px"
	 viewBox="0 0 400 400" style="enable-background:new 0 0 400 400;" xml:space="preserve">
<style type="text/css">
	.st0{fill:#005280;}
	.st1{fill:#BFC3D8;}
	.st2{fill:#B5985A;}
	.st3{fill:none;stroke:#E0E0E0;stroke-width:0.9963;stroke-miterlimit:10;}
	.st4{fill:none;stroke:#333333;stroke-width:3;stroke-miterlimit:10;}
</style>
<path class="st0" d="M399.3,347.5c-92.1-0.2-184,0.1-276.1,0l0,0c-19.4,0-38.9,0-58.3,0c-4.1-20.4-8.2-40.9-12.3-61.5l0,0
	c-0.2-0.9-0.4-1.8-0.6-2.7l0,0c-3.1-15.4-6.2-30.9-9.3-46.3c-2.5-12.2-4.9-24.4-7.3-36.6C24.6,146.7,13.9,92.8,3.1,39
	c-0.1-0.3-0.9-2.4,0.2-4.6c1-2,3-2.6,3.3-2.8h78.3c3.7,0.2,10.6,1.1,17.9,5.2c8,4.4,12.6,10.5,14,12.6c3.4,4.5,12.5,16.5,26.1,34.5
	c3.8,5,8,10.5,12.5,16.4c4.9,6.5,10.2,13.5,15.8,20.9c21.1,28,47.3,62.7,76.9,101.9c21.4,28,54.3,62,101.9,87.3
	c10.1,5.4,20,9.9,29.6,13.7c2.6,0.9,10,3.7,15.1,11.4c1.6,2.4,2.7,4.8,3.4,6.8C398.8,344.3,399.1,346.1,399.3,347.5z"/>
<g>
	<path class="st1" d="M212.3,213.2c0,0-0.5-20.1-13.5-33.4c17,29.7-65.7,77.9-65.7,106.3c0,27.6,39.6,26.3,39.6,26.3
		C172.7,257.8,212.3,252.4,212.3,213.2"/>
	<path class="st1" d="M196.9,177.6c0,0-9.2-14.5-36.9-14.5c-1.9,0-3.8,0.1-5.7,0.2c0,0,13.2,3.8,12.9,17.4
		c-0.5,24.3-58.3,48.4-64.4,79.5v9.7c4.4,19.4,36,33.9,36,33.9c-6.6-3.9-7.5-10.2-7.5-19.1C131.2,258.3,214.5,208.8,196.9,177.6"/>
	<path class="st2" d="M39.8,161.6c3.7,8.6,11.2,17.3,33.5,21.3c18.3,3.2,33.1,2.5,45.2,1.8c11.7-0.6,21.1-1.4,29.1,1.4
		c5.9,2,11.9,8.8,11.9,8.8c12.1-13.2,4.5-30.6-9.7-30.8c-7.1-0.1-45.2,8.1-65.9,8.1C63.3,172,48.8,169,39.8,161.6z"/>
	<path class="st2" d="M72.5,184.3c-10.9-1.9-18.2-4.9-23.4-8.5H49c2.9,7.4,10.7,18.6,29.4,25.2c14.7,5.3,50.8-1.9,56.6,16.4
		c8.9-6,23.6-21.5,23.6-21.5s-5.9-6.3-11.7-8.3c-8.1-2.7-17.5-2.1-29.2-1.4C105.5,186.8,90.8,187.5,72.5,184.3"/>
	<path class="st2" d="M77.5,202.2c-2.8-0.9-13.2-4.9-18.2-10.5c6.6,26,41.8,30.5,48.2,36.9c3.7,3.7,4.6,8.2,4.6,10.9
		c10.4-11.9,21.7-21,21.7-21s-1.4-5.1-6.4-8C115.3,203.4,93.3,207.3,77.5,202.2"/>
</g>
<path class="st3" d="M399.3,347.5c-92.1-0.2-184,0.1-276.1,0l0,0c-19.4,0-38.9,0-58.3,0c-4.1-20.4-8.2-40.9-12.3-61.5l0,0
	c-0.2-0.9-0.4-1.8-0.6-2.7l0,0c-3.1-15.4-6.2-30.9-9.3-46.3c-2.5-12.2-4.9-24.4-7.3-36.6C24.6,146.7,13.9,92.8,3.1,39
	c-0.1-0.3-0.9-2.4,0.2-4.6c1-2,3-2.6,3.3-2.8h78.3c3.7,0.2,10.6,1.1,17.9,5.2c8,4.4,12.6,10.5,14,12.6c3.4,4.5,12.5,16.5,26.1,34.5
	c3.8,5,8,10.5,12.5,16.4c4.9,6.5,10.2,13.5,15.8,20.9c21.1,28,47.3,62.7,76.9,101.9c21.4,28,54.3,62,101.9,87.3
	c10.1,5.4,20,9.9,29.6,13.7c2.6,0.9,10,3.7,15.1,11.4c1.6,2.4,2.7,4.8,3.4,6.8C398.8,344.3,399.1,346.1,399.3,347.5z"/>
<path class="st4" d="M398.7,346.9c-92.1-0.2-184,0.1-276.1,0H64.3c-4.1-20.4-8.2-40.9-12.3-61.5l0,0l-0.6-2.7l0,0l-9.3-46.4
	c-2.5-12.2-4.9-24.4-7.3-36.6C24.1,146,13.3,92.2,2.5,38.4c-0.6-1.5-0.5-3.1,0.2-4.6C3.5,32.5,4.6,31.5,6,31h78.3
	c6.3,0.4,12.4,2.1,17.9,5.2c5.5,3.1,10.3,7.4,14,12.5c3.4,4.5,12.5,16.5,26.1,34.5c3.8,5,8,10.5,12.5,16.4
	c4.9,6.5,10.2,13.4,15.8,20.9c21.1,28,47.3,62.7,76.9,101.9c21.4,28,54.3,62,101.9,87.3c9.6,5.1,19.5,9.7,29.6,13.8
	c6.1,2,11.5,6,15.1,11.4c1.4,2.1,2.5,4.4,3.4,6.8C398.2,343.7,398.5,345.5,398.7,346.9z"/>
</svg>
