<?xml version="1.0" encoding="utf-8"?>
<!-- Generator: Adobe Illustrator 27.0.0, SVG Export Plug-In . SVG Version: 6.00 Build 0)  -->
<svg version="1.1" id="Layer_1" xmlns="http://www.w3.org/2000/svg" xmlns:xlink="http://www.w3.org/1999/xlink" x="0px" y="0px"
	 viewBox="0 0 400 400" style="enable-background:new 0 0 400 400;" xml:space="preserve">
<style type="text/css">
	.st0{clip-path:url(#SVGID_00000179633296388690402470000007349779884224583350_);}
	.st1{fill:#C2E6FA;}
	.st2{fill:#E41917;}
</style>
<g>
	<g>
		<defs>
			<rect id="SVGID_1_" x="4.5" y="46.7" width="391.5" height="305.7"/>
		</defs>
		<clipPath id="SVGID_00000147899849832072409490000015027447326280446126_">
			<use xlink:href="#SVGID_1_"  style="overflow:visible;"/>
		</clipPath>
		<g style="clip-path:url(#SVGID_00000147899849832072409490000015027447326280446126_);">
			<path class="st1" d="M79.1,46.7c19.3,0,37.7,8,50.9,22l266,283.7H144.6l-27.9-60.8l-5.3-11.5L4.5,46.7H79.1z"/>
			<path class="st2" d="M132.4,247.9c-1.8,0.8-7.2,3-5.5,9.1c8.4,31.5,34.6,69.5,73.8,59.6s48-70,48-70l8.7,0.2
				c4.4,0.1,8.1-3.4,8.2-7.8l0.1-4.1c0.1-4.5-3.5-8.1-7.9-8.2l-36.7-0.2c-4.2,0-7.6,3.3-7.8,7.5l-0.2,5.4c-0.1,2.2,1.6,4.1,3.8,4.3
				l13.8,1c0,0-3.6,42.6-38.1,50.2c-27.9,6.2-47.4-36.6-51.3-43.2C138.4,247.1,134.2,247.1,132.4,247.9z"/>
			<path class="st2" d="M136.1,206c0-7.4-6-13.4-13.4-13.4s-13.4,6-13.4,13.4s6,13.4,13.4,13.4C130.1,219.5,136.1,213.5,136.1,206z"
				/>
		</g>
	</g>
</g>
</svg>
