<?xml version="1.0" encoding="utf-8"?>
<!-- Generator: Adobe Illustrator 27.0.0, SVG Export Plug-In . SVG Version: 6.00 Build 0)  -->
<svg version="1.1" id="Layer_1" xmlns="http://www.w3.org/2000/svg" xmlns:xlink="http://www.w3.org/1999/xlink" x="0px" y="0px"
	 viewBox="0 0 400 400" style="enable-background:new 0 0 400 400;" xml:space="preserve">
<style type="text/css">
	.st0{fill:#FFFFFF;stroke:#B2B2B2;stroke-miterlimit:10;}
	.st1{fill-rule:evenodd;clip-rule:evenodd;fill:#FFFFFF;}
	.st2{fill-rule:evenodd;clip-rule:evenodd;fill:#0085C8;}
</style>
<path class="st0" d="M79.1,46.7c19.3,0,37.7,8,50.9,22l266,283.7H144.6l-27.9-60.8l-5.3-11.5L4.5,46.7H79.1z"/>
<path class="st1" d="M219.8,218.3c0,29.5-23.9,53.5-53.5,53.5c-29.5,0-53.5-24-53.5-53.5s24-53.5,53.5-53.5
	C195.9,164.8,219.8,188.8,219.8,218.3z"/>
<path class="st2" d="M214.3,218.3c0,26.4-21.4,47.9-47.9,47.9s-47.9-21.5-47.9-47.9s21.4-47.9,47.9-47.9S214.3,191.9,214.3,218.3z"
	/>
<path class="st1" d="M197.2,195.5h-15.3l-39,66.5l5.6,3.9l35.3-60.3l3,16.4H177l-4.7,8h15.8l1.9,10.8h15.2L197.2,195.5z"/>
<path class="st1" d="M135.2,240.8h15.3l39-66.5l-5.6-3.9l-35.3,60.3l-6.4-35.1h-15.3L135.2,240.8z"/>
</svg>
