<?xml version="1.0" encoding="utf-8"?>
<!-- Generator: Adobe Illustrator 27.0.0, SVG Export Plug-In . SVG Version: 6.00 Build 0)  -->
<svg version="1.1" id="Layer_1" xmlns="http://www.w3.org/2000/svg" xmlns:xlink="http://www.w3.org/1999/xlink" x="0px" y="0px"
	 viewBox="0 0 400 400" style="enable-background:new 0 0 400 400;" xml:space="preserve">
<style type="text/css">
	.st0{fill:#E31836;}
	.st1{fill:#FFFFFF;}
</style>
<path class="st0" d="M79.7,47.5c19.2,0,37.5,7.9,50.6,21.9L395,351.7H144.9l-27.7-60.5l-5.2-11.4L5.5,47.5H79.7z"/>
<g>
	<path class="st1" d="M96.9,160.2c-10.6,0-20.5-4.1-27.9-11.6c-7.5-7.5-11.6-17.4-11.6-27.9c0-10.6,4.1-20.5,11.6-27.9
		c7.5-7.5,17.4-11.6,27.9-11.6c10.6,0,20.5,4.1,27.9,11.6c7.5,7.5,11.6,17.4,11.6,27.9c0,10.6-4.1,20.5-11.6,27.9
		C117.4,156.1,107.5,160.2,96.9,160.2z M96.9,86.6c-18.8,0-34.1,15.3-34.1,34.1s15.3,34.1,34.1,34.1s34.1-15.3,34.1-34.1
		S115.7,86.6,96.9,86.6z"/>
	<path class="st1" d="M83.3,117.7c-3.7-6.3-7.3-12.6-11-18.9H94C90.5,105,87,111.3,83.3,117.7z"/>
	<path class="st1" d="M81.1,130.6h14.5l8.6-15.8l0.4,15.8h12.7l18.6-34.9h-12.5l-9,14.9l-1.3-14.9h-14L81.1,130.6z"/>
</g>
</svg>
