<?xml version="1.0" encoding="utf-8"?>
<!-- Generator: Adobe Illustrator 27.0.0, SVG Export Plug-In . SVG Version: 6.00 Build 0)  -->
<svg version="1.1" id="Layer_1" xmlns="http://www.w3.org/2000/svg" xmlns:xlink="http://www.w3.org/1999/xlink" x="0px" y="0px"
	 viewBox="0 0 400 400" style="enable-background:new 0 0 400 400;" xml:space="preserve">
<style type="text/css">
	.st0{clip-path:url(#SVGID_00000003788997317747427570000004073968460330603683_);}
	.st1{fill:#004180;}
	.st2{fill:#FFFFFF;}
</style>
<g>
	<g>
		<defs>
			<rect id="SVGID_1_" x="5.5" y="47.5" width="389.5" height="304.2"/>
		</defs>
		<clipPath id="SVGID_00000103957064681670388820000014024909220796524417_">
			<use xlink:href="#SVGID_1_"  style="overflow:visible;"/>
		</clipPath>
		<g style="clip-path:url(#SVGID_00000103957064681670388820000014024909220796524417_);">
			<path class="st1" d="M119.8,236.8c-4.9,9.4-10.8,17.4-16.5,23.9l8.7,19l5.2,11.4l27.7,60.5H395L217.5,162.3
				c-12,8.5-30.3,20.7-45.2,27.5C148,201.1,135.1,207.3,119.8,236.8z"/>
			<path class="st2" d="M146.7,168.5c-24.3,11.2-37.2,17.5-52.5,47c-2.1,4-4.3,7.7-6.6,11.1l15.6,34.1c5.8-6.5,11.6-14.5,16.5-23.9
				c15.3-29.5,28.2-35.8,52.5-47c14.8-6.8,33.1-19,45.2-27.5l-22.2-23.7C183.5,147,163,161,146.7,168.5L146.7,168.5z"/>
			<path class="st1" d="M71.4,53.9c6.8-0.5,14.7-2.5,21.6-5.1c-4.3-0.8-8.7-1.3-13.2-1.3H5.5l21.7,47.3c4.8-7,12.2-18.8,14.5-28
				C45.3,52.7,55.3,55.1,71.4,53.9z"/>
			<path class="st2" d="M27.1,94.8l7.6,16.6c4.4-6.2,13.9-20.3,16.6-31C55,66.3,65,68.7,81,67.5c11.4-0.9,25.8-6,33.4-10.7
				c-6.6-3.8-13.9-6.6-21.5-8c-6.9,2.6-14.8,4.6-21.6,5.1c-16,1.2-26.1-1.2-29.7,12.8C39.3,75.9,31.9,87.7,27.1,94.8z"/>
			<path class="st1" d="M64.1,175.4l23.5,51.2c2.3-3.4,4.5-7.1,6.6-11.1c15.3-29.5,28.2-35.8,52.5-47c16.3-7.5,36.8-21.5,48.5-29.9
				L163,104.3c-8.6,5.1-25.2,14.4-37.9,19c-18.1,6.4-27.7,10-40.5,30.1C78.3,163.3,70.4,170.6,64.1,175.4z"/>
			<path class="st1" d="M81.1,67.5C65,68.7,55,66.3,51.4,80.3c-2.8,10.7-12.2,24.8-16.6,31L53.9,153c4.7-4.3,9.7-9.8,13.9-16.5
				c12.8-20.1,22.5-23.7,40.5-30.1c13.1-4.7,30.2-14.3,38.6-19.3l-16.6-17.7c-4.7-5-10.1-9.2-15.9-12.6
				C106.8,61.6,92.4,66.6,81.1,67.5L81.1,67.5z"/>
			<path class="st2" d="M67.8,136.5c-4.3,6.7-9.2,12.2-13.9,16.5l10.3,22.4c6.3-4.8,14.2-12.1,20.5-22.1
				c12.8-20.1,22.5-23.7,40.5-30.1c12.7-4.5,29.3-13.9,37.9-19l-16.2-17.3c-8.4,5-25.5,14.7-38.6,19.3
				C90.3,112.8,80.6,116.5,67.8,136.5L67.8,136.5z"/>
		</g>
	</g>
</g>
</svg>
