<?xml version="1.0" encoding="utf-8"?>
<!-- Generator: Adobe Illustrator 27.0.0, SVG Export Plug-In . SVG Version: 6.00 Build 0)  -->
<svg version="1.1" id="Layer_1" xmlns="http://www.w3.org/2000/svg" xmlns:xlink="http://www.w3.org/1999/xlink" x="0px" y="0px"
	 viewBox="0 0 400 400" style="enable-background:new 0 0 400 400;" xml:space="preserve">
<style type="text/css">
	.st0{clip-path:url(#SVGID_00000013908389597121713460000010129859423386502814_);}
	.st1{fill:#FFFFFF;stroke:#D3D3D3;stroke-miterlimit:10;}
	.st2{fill:#C20000;}
	.st3{fill:#FFFFFF;}
	.st4{fill:#195225;}
</style>
<g>
	<g>
		<defs>
			<rect id="SVGID_1_" x="6.5" y="50.5" width="387.5" height="298.7"/>
		</defs>
		<clipPath id="SVGID_00000099623589096196580680000011280027884536829608_">
			<use xlink:href="#SVGID_1_"  style="overflow:visible;"/>
		</clipPath>
		<g style="clip-path:url(#SVGID_00000099623589096196580680000011280027884536829608_);">
			<path class="st1" d="M144.8,349.2h7.2L42.5,116.5l85.6-0.6c18.8-0.3,36.9,6.3,49.8,18.1l204.3,215.1H394L133.4,73.6
				c-14.3-15.1-34.2-23.5-54.9-23.1l-72,1.2L144.8,349.2z"/>
			<path class="st2" d="M150.6,195.9L218,349.1h78.4L150.6,195.9z"/>
			<path class="st3" d="M296.3,349.1h12.2L132.4,168.6l77.3,180.5h8.3l-67.4-153.2L296.3,349.1z"/>
			<path class="st4" d="M42.5,116.5L152,349.1h57.7l-77.3-180.5l176.1,180.5h73.8l-204.4-215c-12.9-11.8-31-18.4-49.8-18.1
				L42.5,116.5z"/>
		</g>
	</g>
</g>
</svg>
