<?xml version="1.0" encoding="utf-8"?>
<!-- Generator: Adobe Illustrator 27.0.0, SVG Export Plug-In . SVG Version: 6.00 Build 0)  -->
<svg version="1.1" id="Layer_1" xmlns="http://www.w3.org/2000/svg" xmlns:xlink="http://www.w3.org/1999/xlink" x="0px" y="0px"
	 viewBox="0 0 400 400" style="enable-background:new 0 0 400 400;" xml:space="preserve">
<style type="text/css">
	.st0{clip-path:url(#SVGID_00000160178388344865339370000005271089315330888073_);}
	.st1{fill:#D3242F;}
	.st2{fill:#F7F7F7;}
	.st3{fill:#14337F;}
	.st4{fill:#293F92;}
	.st5{fill:#211C1E;}
	.st6{fill:#F6AA14;}
	.st7{fill:#008642;}
</style>
<g>
	<g>
		<defs>
			<rect id="SVGID_1_" x="4.5" y="46.7" width="391.5" height="305.7"/>
		</defs>
		<clipPath id="SVGID_00000142886075932619368650000015734764894165617058_">
			<use xlink:href="#SVGID_1_"  style="overflow:visible;"/>
		</clipPath>
		<g style="clip-path:url(#SVGID_00000142886075932619368650000015734764894165617058_);">
			<path class="st1" d="M50,146h152.5L130,68.7c-13.2-14-31.6-22-50.9-22H4.5L50,146z"/>
			<path class="st2" d="M308.1,258.6l-165.2,90.1l1.7,3.7l174.7-81.9L308.1,258.6z"/>
			<path class="st3" d="M319.2,270.6l-174.7,81.9H396L319.2,270.6z"/>
			<path class="st4" d="M56.3,155.6l-2.4-1l0.4,0.8L56.3,155.6z"/>
			<path class="st2" d="M50,146l4,8.6l2.4,1l166.4,12L202.5,146H50z"/>
			<path class="st5" d="M187.3,259L55.8,158.7l55.7,121.5l5.3,11.5l24.3,52.9L187.3,259z"/>
			<path class="st6" d="M56.3,155.6l-2-0.1l1.5,3.2L187.3,259L141,344.6l1.8,3.9l116.1-110.9L56.3,155.6z"/>
			<path class="st7" d="M258.8,237.6L142.7,348.4l0.1,0.3L308,258.6l-85.3-91l-166.4-12L258.8,237.6z"/>
			<path class="st6" d="M111.7,98.5c0-12.6-10.2-22.9-22.9-22.9S66,85.9,66,98.5s10.2,22.9,22.9,22.9S111.7,111.1,111.7,98.5z"/>
		</g>
	</g>
</g>
</svg>
