<?xml version="1.0" encoding="utf-8"?>
<!-- Generator: Adobe Illustrator 27.0.0, SVG Export Plug-In . SVG Version: 6.00 Build 0)  -->
<svg version="1.1" id="Layer_1" xmlns="http://www.w3.org/2000/svg" xmlns:xlink="http://www.w3.org/1999/xlink" x="0px" y="0px"
	 viewBox="0 0 400 400" style="enable-background:new 0 0 400 400;" xml:space="preserve">
<style type="text/css">
	.st0{clip-path:url(#SVGID_00000030455335929264150550000011670625600358802357_);}
	.st1{fill:#2B2A29;}
	.st2{fill:#B3D5F1;}
	.st3{fill:#D6A6CC;}
	.st4{fill:#6CAEE0;}
	.st5{fill:#8DC73E;}
	.st6{fill:#FFFFFF;}
	.st7{fill:#4C4C4E;}
	.st8{fill:#9C3292;}
	.st9{fill:#DAE7A2;}
</style>
<g>
	<g>
		<defs>
			<rect id="SVGID_1_" x="3.5" y="45.9" width="393.5" height="307.3"/>
		</defs>
		<clipPath id="SVGID_00000008834753977132761390000006995996495071912334_">
			<use xlink:href="#SVGID_1_"  style="overflow:visible;"/>
		</clipPath>
		<g style="clip-path:url(#SVGID_00000008834753977132761390000006995996495071912334_);">
			<path class="st1" d="M78.5,45.9c19.4,0,37.8,8,51.1,22.1l76.9,82l15,15.9l23,24.6l11.7,12.5l26.3,28l9.4,10L397,353.2H144.3
				l-28-61.1l-5.3-11.5L3.5,45.9H78.5z"/>
			<path class="st2" d="M221.4,166l23,24.6V203h-38v-37H221.4z"/>
			<path class="st3" d="M206.5,278.2h38V241h-38V278.2z"/>
			<path class="st4" d="M221.4,166h-15v-16L221.4,166z"/>
			<path class="st5" d="M291.8,241h-9.4v-10L291.8,241z"/>
			<path class="st6" d="M206.5,241h38v-38h-38V241z"/>
			<path class="st7" d="M206.5,353.2h38V316h-38V353.2z"/>
			<path class="st8" d="M206.5,316h38v-38h-38V316z"/>
			<path class="st7" d="M93.3,241h37.2v-38H93.3V241z"/>
			<path class="st8" d="M130.5,241h38v-38h-38V241z"/>
			<path class="st4" d="M206.5,203v-37h-0.6h0.6h-38v37H206.5z"/>
			<path class="st8" d="M206.5,241h-38v37.2h38h-0.6h0.6V241z"/>
			<path class="st3" d="M168.5,241h38v-38h-38V241z"/>
			<path class="st4" d="M256.2,203h-11.7v-12.5L256.2,203z"/>
			<path class="st5" d="M244.4,241v37.2h0.6h-0.6h38V241H244.4z"/>
			<path class="st9" d="M256.2,203l26.3,28v10h-38v-38H256.2z"/>
		</g>
	</g>
</g>
</svg>
