<?xml version="1.0" encoding="utf-8"?>
<!-- Generator: Adobe Illustrator 27.0.0, SVG Export Plug-In . SVG Version: 6.00 Build 0)  -->
<svg version="1.1" id="Layer_1" xmlns="http://www.w3.org/2000/svg" xmlns:xlink="http://www.w3.org/1999/xlink" x="0px" y="0px"
	 viewBox="0 0 400 400" style="enable-background:new 0 0 400 400;" xml:space="preserve">
<style type="text/css">
	.st0{clip-path:url(#SVGID_00000105404753140575064060000004366648590203401379_);}
	.st1{fill:#FEFEFE;}
	.st2{fill:#293F92;}
	.st3{fill:#FFFFFF;}
</style>
<g>
	<g>
		<defs>
			<rect id="SVGID_1_" x="4.5" y="46.7" width="391.5" height="305.7"/>
		</defs>
		<clipPath id="SVGID_00000105390954698359308720000002278516940911180196_">
			<use xlink:href="#SVGID_1_"  style="overflow:visible;"/>
		</clipPath>
		<g style="clip-path:url(#SVGID_00000105390954698359308720000002278516940911180196_);">
			<path class="st1" d="M125,68.7l266,283.7h4.9L130,68.7c-13.2-14-31.6-22-50.9-22h-4.9C93.4,46.7,111.8,54.7,125,68.7z"/>
			<path class="st2" d="M116.7,291.6l27.9,60.8h246.5L125,68.7c-13.2-14-31.6-22-50.9-22H4.5l107,233.4L116.7,291.6z"/>
			<path class="st3" d="M118.2,268.8v-8.6c5.3,2.4,10.5,5.1,15.9,7.1c5.3,2,7,5.9,8.1,11.8C133.8,275.5,126.1,272.2,118.2,268.8z"/>
			<path class="st3" d="M154.9,274.1c-12.8-5.6-24.7-10.8-36.7-16v-8.7c1.1,0.6,2.2,1.2,3.3,1.7c8.5,3.8,17,7.8,25.7,11.2
				C152.6,264.5,153.7,268.6,154.9,274.1L154.9,274.1z"/>
			<path class="st3" d="M118.2,247.4v-8.6c1.2,0.7,2.3,1.3,3.5,1.8c12.7,5.6,25.2,11.4,38,16.5c5.5,2.2,7,6.3,8,12
				C150.9,261.7,134.5,254.6,118.2,247.4z"/>
			<path class="st3" d="M205.9,258.3c12.9,6.8,19.8,17.1,18.4,26.9c-13.5-5.5-13-4.6-28.3,1.2c-13.6,5.2-27,11-40.5,16.5
				c-6.5,2.7-13.1,1.2-19.6,1.5c-0.1-0.6-0.1-1.2-0.2-1.8c25.4-10.2,50.8-20.3,76.6-30.6c-4.1-6.1-11.6-6.8-18.9-8.4
				c-10.7-2.4-21.6-4.4-31.8-8.1c-13.3-4.8-26.1-11.2-39.1-16.9c-1.4-0.6-2.8-1.1-4.3-1.7v-9c0.3,0.4,0.7,0.7,1,0.9
				c16.3,7.3,32.8,14.4,49.9,21.9c7.9-20,15.6-39.1,23.4-58.7h8.3c-8.1,20.3-16.2,40.5-24.3,60.8c0.6,0.2,1.2,0.5,1.9,0.8
				c8.2-20.5,16.3-41,24.5-61.5h8.2c-8.2,20.7-16.5,41.5-24.7,62.2c0.6,0.3,1.3,0.6,1.9,0.8c8.3-21,16.7-42,25-63h8.3
				c-8.5,21.3-17,42.7-25.5,64c0.7,0.3,1.4,0.5,2,0.8c8.6-21.6,17.1-43.2,25.7-64.8h9.2C229.3,199.5,210.5,246.7,205.9,258.3
				L205.9,258.3z"/>
		</g>
	</g>
</g>
</svg>
