<?xml version="1.0" encoding="utf-8"?>
<!-- Generator: Adobe Illustrator 27.0.0, SVG Export Plug-In . SVG Version: 6.00 Build 0)  -->
<svg version="1.1" id="Layer_1" xmlns="http://www.w3.org/2000/svg" xmlns:xlink="http://www.w3.org/1999/xlink" x="0px" y="0px"
	 viewBox="0 0 400 400" style="enable-background:new 0 0 400 400;" xml:space="preserve">
<style type="text/css">
	.st0{clip-path:url(#SVGID_00000126305170805362658330000013062831590067204278_);}
	.st1{fill:#F3D11D;}
	.st2{fill:#750B56;}
</style>
<g>
	<g>
		<defs>
			<rect id="SVGID_1_" x="4.5" y="47.8" width="391" height="305.3"/>
		</defs>
		<clipPath id="SVGID_00000143577422816234530200000012819258061553847986_">
			<use xlink:href="#SVGID_1_"  style="overflow:visible;"/>
		</clipPath>
		<g style="clip-path:url(#SVGID_00000143577422816234530200000012819258061553847986_);">
			<path class="st1" d="M79,47.8c19.2,0,37.6,8,50.8,22l265.7,283.3H144.4l-27.8-60.7l-5.2-11.5L4.5,47.8H79z"/>
			<path class="st2" d="M285.1,296.3c0,0-19.5-46.8-41.3-62.9c-22.5-16.6-47.3-2.4-48.7,2.8c-9-14.5-47.6-44.8-63.3-24.4
				c-26.5,34.5,3.9,71.2,11.4,86.9C92.9,260.2,92.5,187.8,125.1,180c32.6-7.9,44,11,58.2,29.9c7.1-24.4,38.1-22,54.2-9.4
				C282.5,235.5,285.1,296.3,285.1,296.3L285.1,296.3z"/>
			<path class="st2" d="M147.1,291.6c-5.1-13.8-12.2-31.1-2-35.4c10.2-4.3,49.9,0.4,62.1,33c0,0,0.8-61.7-57-76.6
				C139.7,209.9,107.4,231.9,147.1,291.6z M135.4,248c0,0,5.9-16.5,23.2-15.7s35.8,26.3,37.7,29.9
				C198.2,265.7,162.5,238.2,135.4,248z"/>
		</g>
	</g>
</g>
</svg>
