<?xml version="1.0" encoding="utf-8"?>
<!-- Generator: Adobe Illustrator 27.0.0, SVG Export Plug-In . SVG Version: 6.00 Build 0)  -->
<svg version="1.1" id="Layer_1" xmlns="http://www.w3.org/2000/svg" xmlns:xlink="http://www.w3.org/1999/xlink" x="0px" y="0px"
	 viewBox="0 0 400 400" style="enable-background:new 0 0 400 400;" xml:space="preserve">
<style type="text/css">
	.st0{clip-path:url(#SVGID_00000002366701719472635620000015611901342008894897_);}
	.st1{fill:#FFFFFF;stroke:#C9C9C9;stroke-miterlimit:10;}
	.st2{fill:#E42727;}
</style>
<g>
	<g>
		<defs>
			<rect id="SVGID_1_" x="2.5" y="46.2" width="395" height="308.5"/>
		</defs>
		<clipPath id="SVGID_00000070811641715376565250000004127181901016600752_">
			<use xlink:href="#SVGID_1_"  style="overflow:visible;"/>
		</clipPath>
		<g style="clip-path:url(#SVGID_00000070811641715376565250000004127181901016600752_);">
			<path class="st1" d="M77.8,46.2c19.4,0,38,8,51.3,22.2l268.4,286.2H143.8l-28.1-61.4l-5.3-11.6l-42.3-92.3L2.5,46.2H77.8z"/>
			<path class="st2" d="M70.6,135.4l9,47.8l9.3-15.2l8.8,14.9l11.7-48.1l3,46.8l7.8-7.7l2.9,12.1l27.7-43.9l-12.6,53.3l13.9-14
				l-0.3,17.1l33.8-42.7L166,204.7l12.9-4.4l-1.1,8.5l43.6-29.7L192,220.4l10.3-2.4l0.3,9.6l45-22.7l-33.1,34.3l16-2.6l-8.6,15
				l50-15.2l-40.5,32.5l7.3,1l-3.8,9l55.4-6.6l-48.4,25.3l9,0.3l-6.6,9.3l53,1.7l-50.9,14.9l12.5,7.3l-12.1,8l69.6,10.4v5.2H143.8
				l-28.1-61.4l-5.3-11.6l-42.3-92.3L70.6,135.4z"/>
		</g>
	</g>
</g>
</svg>
