<?xml version="1.0" encoding="utf-8"?>
<!-- Generator: Adobe Illustrator 27.0.0, SVG Export Plug-In . SVG Version: 6.00 Build 0)  -->
<svg version="1.1" id="Layer_1" xmlns="http://www.w3.org/2000/svg" xmlns:xlink="http://www.w3.org/1999/xlink" x="0px" y="0px"
	 viewBox="0 0 400 400" style="enable-background:new 0 0 400 400;" xml:space="preserve">
<style type="text/css">
	.st0{clip-path:url(#SVGID_00000153673764589154160450000014316200880123894158_);}
	.st1{fill:#FEFEFE;stroke:#CECECE;stroke-miterlimit:10;}
	.st2{fill:#FDCC00;}
	.st3{fill:#DB0628;}
</style>
<g>
	<g>
		<defs>
			<rect id="SVGID_1_" x="4.5" y="47.8" width="391" height="305.3"/>
		</defs>
		<clipPath id="SVGID_00000034072774339061189930000008578466457079577989_">
			<use xlink:href="#SVGID_1_"  style="overflow:visible;"/>
		</clipPath>
		<g style="clip-path:url(#SVGID_00000034072774339061189930000008578466457079577989_);">
			<path class="st1" d="M241.8,189.1l55.6,59.3c-100.2-73.9-207.5-89.8-243.6-93.2L35,114.1C73.6,118,162.4,132.9,241.8,189.1z"/>
			<path class="st2" d="M79,47.8c19.2,0,37.6,8,50.8,22l111.9,119.4c-79.4-56.2-168.2-71.1-206.9-75L4.5,47.8H79z"/>
			<path class="st3" d="M297.3,248.4l98.2,104.7H144.4l-27.8-60.7l-5.2-11.5L53.7,155.2C89.9,158.6,197.1,174.5,297.3,248.4z"/>
		</g>
	</g>
</g>
</svg>
