<?xml version="1.0" encoding="utf-8"?>
<!-- Generator: Adobe Illustrator 27.0.0, SVG Export Plug-In . SVG Version: 6.00 Build 0)  -->
<svg version="1.1" id="Layer_1" xmlns="http://www.w3.org/2000/svg" xmlns:xlink="http://www.w3.org/1999/xlink" x="0px" y="0px"
	 viewBox="0 0 400 400" style="enable-background:new 0 0 400 400;" xml:space="preserve">
<style type="text/css">
	.st0{fill:#82BC13;}
	.st1{fill:#C1D82F;}
	.st2{fill:#E41815;}
	.st3{fill:#FFFFFF;}
</style>
<g>
	<path class="st0" d="M79,47.8c19.2,0,37.6,8,50.8,22l265.7,283.3H144.4l-27.8-60.7l-5.2-11.5L4.5,47.8H79z"/>
	<path class="st1" d="M36.6,118.2h68.1c17.6,0,34.4,7.3,46.4,20.1l222.7,214.8H144.4L119,297.6l-4.8-10.5L36.6,118.2L36.6,118.2z"/>
</g>
<g>
	<path class="st2" d="M122.1,249.1l18,41.8h4.9l18-41.8h-10.3l-9.6,24.4l-10.5-24.4H122.1z"/>
	<path class="st2" d="M190.1,249.1l18,41.8h4.9l18-41.8h-10.3l-9.6,24.4l-10.5-24.4H190.1z"/>
	<path class="st2" d="M269.3,290.9l-18-41.8h-4.9l-18,41.8h10.3l9.6-24.4l10.5,24.4H269.3z"/>
	<path class="st2" d="M181.7,248.9h-10.1v41.9h10.1V248.9z"/>
	<path class="st2" d="M223.4,275.5l9.1,8.5c0,0,38.1-7.5,45.3-20.8c7.2-13.3,3.4-28.3-16-37.4c-16.8-7.8-63.8-9.5-82.1,0.5
		c-4.3-7.8-9.8-6.2-12.4-2.7c-2.5,3.5-5.9,12.8-6.9,14.1c0,0,7.4,3.5,12.7,4.6c5.2,1.1,10.9-1.2,10.2-7.1c-0.6-3.2-0.2-3.4,3.1-4.1
		c3.3-0.7,19.7-9,61.3-2.1c10.9,1.3,35.7,13.7,29.6,26.1C267.5,275.4,223.4,275.5,223.4,275.5L223.4,275.5z"/>
	<path class="st3" d="M170.5,301.3h3.4l3.5,8.6h0.2l3.5-8.6h3.4v12.9h-2.6v-8.4h-0.1l-3.3,8.3h-1.8l-3.3-8.3h-0.1v8.4h-2.6
		L170.5,301.3L170.5,301.3z"/>
	<path class="st3" d="M197.1,314.2h-2.9l4.4-12.9h3.5l4.4,12.9h-2.9l-3.2-9.9h-0.1L197.1,314.2L197.1,314.2z M196.9,309.1h6.9v2.1
		h-6.9V309.1z"/>
	<path class="st3" d="M227,305.8h-2.7c0-0.4-0.2-0.7-0.3-1c-0.2-0.3-0.4-0.5-0.6-0.7c-0.2-0.2-0.5-0.3-0.8-0.5
		c-0.3-0.1-0.7-0.2-1-0.2c-0.7,0-1.3,0.2-1.7,0.5c-0.5,0.3-0.9,0.8-1.2,1.4s-0.4,1.4-0.4,2.3s0.1,1.7,0.4,2.3
		c0.3,0.6,0.7,1.1,1.2,1.4s1.1,0.5,1.7,0.5c0.4,0,0.7,0,1-0.1s0.6-0.2,0.8-0.4c0.2-0.2,0.5-0.4,0.6-0.7c0.2-0.3,0.3-0.6,0.3-0.9h2.7
		c-0.1,0.6-0.2,1.2-0.5,1.7s-0.7,1-1.1,1.5c-0.5,0.4-1,0.8-1.7,1s-1.4,0.4-2.2,0.4c-1.1,0-2.2-0.3-3.1-0.8c-0.9-0.5-1.6-1.3-2.1-2.2
		c-0.5-1-0.8-2.2-0.8-3.6s0.3-2.6,0.8-3.6s1.2-1.7,2.2-2.2c0.9-0.5,1.9-0.8,3.1-0.8c0.7,0,1.4,0.1,2.1,0.3c0.6,0.2,1.2,0.5,1.7,0.9
		s0.9,0.9,1.2,1.5C226.7,304.5,226.9,305.1,227,305.8L227,305.8z"/>
	<path class="st3" d="M239.1,314.2h-2.9l4.4-12.9h3.5l4.4,12.9h-2.9l-3.2-9.9h-0.1L239.1,314.2L239.1,314.2z M238.9,309.1h6.9v2.1
		h-6.9V309.1z"/>
	<path class="st3" d="M266.2,301.3h2.7v8.4c0,0.9-0.2,1.8-0.7,2.5s-1.1,1.2-1.9,1.6s-1.7,0.6-2.8,0.6s-2-0.2-2.8-0.6
		s-1.4-0.9-1.9-1.6c-0.4-0.7-0.7-1.5-0.7-2.5v-8.4h2.7v8.1c0,0.5,0.1,0.9,0.3,1.3c0.2,0.4,0.5,0.7,0.9,0.9c0.4,0.2,0.9,0.3,1.4,0.3
		s1-0.1,1.4-0.3c0.4-0.2,0.7-0.5,0.9-0.9c0.2-0.4,0.3-0.8,0.3-1.3L266.2,301.3L266.2,301.3z"/>
</g>
</svg>
