<?xml version="1.0" encoding="utf-8"?>
<!-- Generator: Adobe Illustrator 27.0.0, SVG Export Plug-In . SVG Version: 6.00 Build 0)  -->
<svg version="1.1" id="Layer_1" xmlns="http://www.w3.org/2000/svg" xmlns:xlink="http://www.w3.org/1999/xlink" x="0px" y="0px"
	 viewBox="0 0 400 400" style="enable-background:new 0 0 400 400;" xml:space="preserve">
<style type="text/css">
	.st0{clip-path:url(#SVGID_00000173142373062705814900000005658560296221799316_);}
	.st1{fill:#D00A23;}
	.st2{fill:#E7CA7C;}
</style>
<g>
	<g>
		<g>
			<defs>
				<rect id="SVGID_1_" x="3.5" y="47.2" width="393" height="305.7"/>
			</defs>
			<clipPath id="SVGID_00000070815453921789148150000008996696137990163116_">
				<use xlink:href="#SVGID_1_"  style="overflow:visible;"/>
			</clipPath>
			<g style="clip-path:url(#SVGID_00000070815453921789148150000008996696137990163116_);">
				<path class="st1" d="M3.5,47.2h75c19.3,0,37.8,8,51,22l267,283.6H144.2L128,317.7l-7.4-16.1l-2.8-6l-1.6-3.5l-5.3-11.5l-0.4-0.9
					l-2.7-5.9l-6.9-15L3.5,47.2L3.5,47.2z"/>
				<path class="st2" d="M120.9,163c0,0,0.5,11.5,9.6,15.9c12.2,5.5,21.8,2.1,26.8,0.6c5.1-1.5,15.1-5.6,20.6-7s9.7,0.5,10.2,2.3
					c0.8,3.2-4.5,4-7.1,4.6c-4.1,0.9-8.6-0.4-10.3-2c-2.3,3.7,0.4,8.9,5.8,9c5.4,0.1,11.5-3.2,17.6-4.9s13.6-0.8,16.6,0.2
					s1.7,1.6,0.4,1.6c-21.8,1.3-45.7,14.3-51.8,17.2c-24.9,12.8-49.2,43-50.8,46c-1.6,3.1,1,1.7,3.5,0.6
					c29.9-13.3,48.3-16.7,57.8-18.5c15.1-2.8,24,0.6,27,1.6c11,3.6,15.9,18.6,9.7,25.4c-8.3,9.1-16.1,1.6-17.2,0.4
					c-1.1-1.2-2.4-0.9-4.4-0.1c-2,0.7-8.7,2.7-10.4,3.5c-1.1,7,12.2,14.6,17.5,15.3c19.7,2.7,28.2-11.6,29.8-14.3
					c5.3-9.1,6.3-32.7-14.3-43.1c-20.6-10.3-42.7-0.9-49.1,1c3.4-4.7,23.4-14.9,39.2-19.9c15.9-5,23.7-4.4,27.6-3.2
					c1.1-3.6,0.7-10.2-3.2-16.2c-6.9-10.8-18.7-9-25.7-8c4-4.2,2.3-10.5-6.1-12.2s-20.2,2.7-37.1,6.8
					C136.1,169.7,120.9,163,120.9,163L120.9,163z"/>
				<path class="st2" d="M117.8,249.4c30-12.3,51-17.1,65.8-17s18.2,8,20.2,13.3c2,5.4-3.6,6.1-7.5,6.9c0,0-3.2,1.1-5.3,1.7
					c-2.1,0.6-2.6-1-2.7-2.3c-0.2-1.3-2.3-5.3-7.4-4.9c-5,0.5-7.3,2-10.2,6.4c-2.4,3.6-31.2,46.9-42.7,64.2l-7.4-16.1
					c5.5-8.1,32.1-47.6,33.8-50.2c-5.7,1.1-9.8,4.3-11.5,6.7s-5.4,8-7.1,10.5c-1,1.4-9.8,14.7-18,27l-1.6-3.5l-5.3-11.5l-0.4-0.9
					c3.8-5.7,11.7-17.7,11.4-17.5c-9,3.4-11.5,7.9-14,11.5c-0.1,0-0.1,0.1-0.1,0.1l-6.9-15C106.4,253.8,114.4,250.8,117.8,249.4z"/>
			</g>
		</g>
	</g>
</g>
</svg>
