<?xml version="1.0" encoding="utf-8"?>
<!-- Generator: Adobe Illustrator 27.0.0, SVG Export Plug-In . SVG Version: 6.00 Build 0)  -->
<svg version="1.1" id="Layer_1" xmlns="http://www.w3.org/2000/svg" xmlns:xlink="http://www.w3.org/1999/xlink" x="0px" y="0px"
	 viewBox="0 0 400 400" style="enable-background:new 0 0 400 400;" xml:space="preserve">
<style type="text/css">
	.st0{clip-path:url(#SVGID_00000150817403098621458260000010195022407122408336_);}
	.st1{fill:#072F67;}
	.st2{fill:#FEFEFE;stroke:#DBDBDB;stroke-miterlimit:10;}
	.st3{fill:#F37A21;}
</style>
<g>
	<g>
		<defs>
			<rect id="SVGID_1_" x="8.5" y="50.9" width="383" height="299.1"/>
		</defs>
		<clipPath id="SVGID_00000132770046458448028300000011540979539568763558_">
			<use xlink:href="#SVGID_1_"  style="overflow:visible;"/>
		</clipPath>
		<g style="clip-path:url(#SVGID_00000132770046458448028300000011540979539568763558_);">
			<path class="st1" d="M81.5,50.9c18.8,0,36.8,7.8,49.7,21.5L391.5,350h-0.1c-30.4-16.8-138-76.6-180.9-103.1
				c-47.7-29.5-122.4-80.5-161.3-107.2L8.5,50.9H81.5z"/>
			<path class="st2" d="M210.5,246.8c42.9,26.5,150.5,86.3,180.9,103.1c-0.1,0-0.2,0-0.3-0.1l0,0C358.5,336.4,245.4,289.7,200,268
				c-33.7-16.1-80.4-40.3-120.1-61.3l-30.8-67.2C88.1,166.4,162.8,217.3,210.5,246.8z"/>
			<path class="st3" d="M200,268.1c45.4,21.6,158.5,68.4,191.1,81.8c-33.6-8.7-152.4-39.8-200.4-55.5c-23.9-7.8-54.2-18.6-84.2-29.6
				l-26.6-58C119.6,227.8,166.3,252,200,268.1z"/>
			<path class="st2" d="M190.7,294.3c48,15.7,166.8,46.8,200.4,55.5l0,0c0.1,0,0.2,0.1,0.2,0.1H145.5l-27.3-59.5l-5.1-11.2
				l-6.6-14.5C136.6,275.8,166.8,286.5,190.7,294.3z"/>
		</g>
	</g>
</g>
</svg>
