<?xml version="1.0" encoding="utf-8"?>
<!-- Generator: Adobe Illustrator 27.0.0, SVG Export Plug-In . SVG Version: 6.00 Build 0)  -->
<svg version="1.1" id="Layer_1" xmlns="http://www.w3.org/2000/svg" xmlns:xlink="http://www.w3.org/1999/xlink" x="0px" y="0px"
	 viewBox="0 0 400 400" style="enable-background:new 0 0 400 400;" xml:space="preserve">
<style type="text/css">
	.st0{clip-path:url(#SVGID_00000076561548089590758890000004862301916709253786_);}
	.st1{fill:#FEFEFE;stroke:#D3D3D3;stroke-miterlimit:10;}
	.st2{fill:#161946;}
	.st3{fill:#2983BF;}
</style>
<g>
	<g>
		<defs>
			<rect id="SVGID_1_" x="4.8" y="48" width="390.4" height="304.9"/>
		</defs>
		<clipPath id="SVGID_00000134968687663420878590000005457301195950259593_">
			<use xlink:href="#SVGID_1_"  style="overflow:visible;"/>
		</clipPath>
		<g style="clip-path:url(#SVGID_00000134968687663420878590000005457301195950259593_);">
			<path class="st1" d="M79.2,48c19.2,0,37.6,8,50.7,22l265.3,282.9H144.5l-27.8-60.6l-5.2-11.4L4.8,48H79.2z"/>
			<path class="st2" d="M84.8,207.8c0,0,42.1,0,57.5,0L169,239v-55.9c6-2.5,12.5-3.8,19.3-3.8c28.8,0,52.1,24,52.1,53.7
				c0,10.3-2.8,20-7.7,28.1l-27.9-32.6v55.4c-5.2,1.8-10.7,2.7-16.5,2.7c-20.6,0-38.4-12.3-46.9-30.2c-1.6-3.3-15.6-20-28.4-30.6
				C98.4,213.6,84.8,207.7,84.8,207.8L84.8,207.8z"/>
			<path class="st3" d="M204.8,228.4l27.9,32.6c-6.4,10.6-16.2,18.8-27.9,22.8V228.4L204.8,228.4z"/>
			<path class="st3" d="M169,183v55.9l-26.7-31.2C148,196.6,157.5,187.8,169,183z"/>
			<path class="st2" d="M242.9,245.5c3.5-17-0.4-25.4-0.4-25.4l34.7,43.3h-40.3C236.9,263.4,240.7,256.6,242.9,245.5z"/>
		</g>
	</g>
</g>
</svg>
