<?xml version="1.0" encoding="utf-8"?>
<!-- Generator: Adobe Illustrator 27.0.0, SVG Export Plug-In . SVG Version: 6.00 Build 0)  -->
<svg version="1.1" id="Layer_1" xmlns="http://www.w3.org/2000/svg" xmlns:xlink="http://www.w3.org/1999/xlink" x="0px" y="0px"
	 viewBox="0 0 400 400" style="enable-background:new 0 0 400 400;" xml:space="preserve">
<style type="text/css">
	.st0{fill:none;}
	.st1{fill:#FEFEFE;stroke:#D6D6D6;stroke-width:0.9724;stroke-miterlimit:10;}
	.st2{fill:#FFFF00;}
	.st3{fill:#BD1F00;}
	.st4{fill:#7C500D;}
	.st5{fill:#272524;}
</style>
<g>
	<g>
		<rect x="6" y="46.4" class="st0" width="387.9" height="307.2"/>
	</g>
	<g>
		<path class="st1" d="M123.5,163.6L58.4,47.8h73.8c21.2,0,41.4,10.2,54,27.2l91,122.9h-95.1C157.8,197.9,135.4,184.7,123.5,163.6z
			 M180.6,79.1c-11.3-15.3-29.4-24.4-48.4-24.4h-62l59.3,105.6l0,0c10.7,19,30.8,30.7,52.5,30.7h81.4L180.6,79.1z"/>
	</g>
	<g>
		<path class="st2" d="M6,64.6l35.3,98.1l75.1,44.2c11.9,7,25.5,10.7,39.4,10.7H293l-6.5-9.1H176.4c-26.4,0-51.4-11.6-68.4-31.8
			L6,55.7V64.6z"/>
	</g>
	<g>
		<path class="st3" d="M155.9,217.7c-13.9,0-27.5-3.7-39.4-10.7l-75.1-44.2l17.1,47.6c0,0,55.7,14.7,67.7,17.3s30.8,1.8,39.3,1.8
			s136,0.3,136,0.3l-8.6-12h-137V217.7z"/>
	</g>
	<g>
		<path class="st4" d="M108,176.8c17,20.2,42,31.8,68.4,31.8h110.1l-4.2-5.9H176.4c-18.5,0-48.1-17.6-61.3-39.9
			C101.9,140.6,51.2,46.4,51.2,46.4H14.3L108,176.8L108,176.8z"/>
	</g>
	<g>
		<path class="st5" d="M178.2,240.2c-5.3,0-9,5.1-7.4,10.2L204,353.6h41.8l-29.6-80.4c-1.6-5.8,0.2-12,5.5-11.1
			c4.7,0.8,10.7,6.1,12.6,10.5l35.7,81h37.9L271.4,274c-2.1-5.7-0.8-12,4.6-11.5c4.7,0.5,11.2,5.2,13.4,9.5l43.8,81.6h39.1
			l-62.5-113.4h-31.2l1.3,9.3l-14.7-7.3c-2.7-1.3-5.7-2-8.7-2h-26.7c-2.4,0-4.3,1.8-4.4,4.2l-0.3,5.1l-9-6.3c-2.9-2-6.3-3-9.7-3
			L178.2,240.2L178.2,240.2z"/>
	</g>
	<g>
		<path class="st5" d="M64,240.4l48.6,113.2h26.8l-0.5-11.8l10.3,8.7c2.4,2,5.2,3.1,8.1,3.1h40.3l-40-68.7h-41.1
			c-4.2,0-8-2.7-10.2-7.3l-7.4-15.2c-1.9-3.9,0.3-8.8,3.8-8.9l6.4-0.1c1.9,0,3.7,1.1,4.9,3l6.5,10.8h26.9L136.3,248
			c-2.9-4.9-7.3-7.8-12.1-7.8H64V240.4z M114.5,294.8c-1.8-1.8,13.2,1.6,23.3,9.9c10,8.4,16.7,19.7,13.4,26.2
			c-5,9.8-15.8,0.4-20.2-6.8C126.5,316.9,116.3,296.6,114.5,294.8L114.5,294.8z"/>
	</g>
</g>
</svg>
