<?xml version="1.0" encoding="utf-8"?>
<!-- Generator: Adobe Illustrator 27.0.0, SVG Export Plug-In . SVG Version: 6.00 Build 0)  -->
<svg version="1.1" id="Layer_1" xmlns="http://www.w3.org/2000/svg" xmlns:xlink="http://www.w3.org/1999/xlink" x="0px" y="0px"
	 viewBox="0 0 400 400" style="enable-background:new 0 0 400 400;" xml:space="preserve">
<style type="text/css">
	.st0{fill:url(#SVGID_1_);}
	.st1{fill-rule:evenodd;clip-rule:evenodd;fill:#FFFFFF;}
	.st2{fill:#17479D;}
</style>
<linearGradient id="SVGID_1_" gradientUnits="userSpaceOnUse" x1="339.6941" y1="40.5407" x2="82.9177" y2="421.9486" gradientTransform="matrix(-1 0 0 1 400 2)">
	<stop  offset="0.56" style="stop-color:#15489E"/>
	<stop  offset="1" style="stop-color:#0093D8"/>
</linearGradient>
<path class="st0" d="M78.3,47.6c19.2,0,37.6,8,50.8,22l265.7,283.3H143.7l-27.8-60.7l-5.2-11.5L3.8,47.6H78.3z"/>
<g>
	<path class="st1" d="M126.5,97.5l39.8,50l-60.1-1.2l9.7,12.3c19.2-9.5,39.7-0.3,51.3,21.9c15.8-10.5,37.5,0.5,45.1,9.4
		c7.1,8.3,13.8,25.8,1.5,40l6.1-3l14.9,18.8l-26.7,21l37.2-7.8l13.8,17.3l-47.8,38l-12.2-15.4l26.6-21.1l-37,8l-8.9-11.2l25.8-22.6
		L172,264.7l-12.5-15.8l23.7-8.5c-14.8-0.4-26.1-8.6-33.1-23.9c-21.5,6.8-38.6-2.4-46.3-12c-6-7.5-11.4-22-4.9-31.9l-38.2-48
		l62.6,0.6l-15.9-20L126.5,97.5L126.5,97.5z M193.4,202.2c3.8,4.8,2.8,11.8-2.2,15.8s-12.1,3.3-15.9-1.5c-3.8-4.8-2.8-11.8,2.2-15.8
		C182.5,196.8,189.6,197.4,193.4,202.2z M142.6,180.9c3.8,4.8,2.8,11.8-2.2,15.8c-5,3.9-12.1,3.3-15.9-1.5
		c-3.8-4.8-2.8-11.8,2.2-15.8C131.7,175.5,138.8,176.1,142.6,180.9z"/>
	<path class="st2" d="M89.6,124.6c1,11.3,4.4,22,8.9,32c4.6,10,10.4,19.5,16.4,28.3c7.8,11.5,25.4,18.3,45,26
		c23.7,9.3,50,20,66.6,41.2c8.1,10.3,12.6,22.1,14.2,31.5c-3.9-11.9-8.9-21.9-15.6-30.4c-16.1-20.6-42.8-30.5-66.2-39.6
		c-20.1-7.8-38.1-14.9-46.4-27.1c-6-8.9-11.9-18.4-16.6-28.7s-8.1-21.2-9.2-32.9L89.6,124.6L89.6,124.6z"/>
	<path class="st1" d="M127.9,234.8l2.5,3.2l3.1-3.5L127.9,234.8z M119.5,233.7l0.7-0.3c0.4,0.4,0.8,0.6,1.2,0.7
		c0.4,0.1,1.1,0.2,2.1,0.1l10.3-0.6c0,0,0,0,0.1,0c0.3,0,0.5,0,0.6-0.1c0.1,0,0.1-0.1,0.2-0.1c0-0.1,0.1-0.1,0.1-0.2l1.4,1.8
		l-6.3,7.5c-0.4,0.5-0.7,0.9-0.7,1.3c-0.1,0.4,0,0.7,0.3,1.1l-0.7,0.3l-3.7-4.7l0.7-0.3c0.4,0.4,0.8,0.7,1,0.9
		c0.3,0.1,0.5,0.1,0.8,0c0.1-0.1,0.3-0.1,0.4-0.2c0.1-0.1,0.2-0.2,0.3-0.3l1.6-1.8l-3-3.8l-2.4,0.3c-0.2,0-0.4,0.1-0.5,0.1
		c-0.2,0-0.3,0.1-0.4,0.1c-0.3,0.2-0.5,0.4-0.5,0.6c0,0.3,0.1,0.7,0.4,1.2l-0.7,0.3L119.5,233.7L119.5,233.7z M129.4,246.2l0.7-0.3
		c0.6,0.6,1.1,1,1.5,1.1s0.9,0,1.6-0.3l6.5-2.9c0.7-0.3,1-0.6,1.1-0.9c0-0.3-0.2-0.8-0.6-1.5l0.7-0.3l4.2,5.3l-0.7,0.3
		c-0.6-0.6-1.1-1-1.5-1.1s-0.9,0-1.6,0.3l-6.5,2.9c-0.7,0.3-1,0.6-1.1,0.9c0,0.3,0.2,0.8,0.6,1.5l-0.7,0.3L129.4,246.2z
		 M143.8,253.6c0.1,0.1,0.2,0.3,0.3,0.4c0.1,0.1,0.2,0.3,0.4,0.5c0.7,0.9,1.4,1.5,2.3,1.8c0.8,0.3,1.6,0.3,2.3,0
		c0.7-0.3,1-0.8,1-1.5s-0.3-1.5-1-2.3c-0.3-0.4-0.5-0.6-0.7-0.7c-0.2-0.1-0.4-0.1-0.7,0.1l-0.5,0.2L143.8,253.6L143.8,253.6z
		 M134.7,252.9l0.7-0.3c0.5,0.6,1,0.9,1.5,1c0.4,0.1,1,0,1.6-0.3l6.3-2.8c0.8-0.4,1.3-0.7,1.3-1s-0.2-0.8-0.6-1.5l0.7-0.3l3.4,4.3
		c1.3,1.7,2.1,3.1,2.3,4.1c0.2,1-0.2,1.8-1.2,2.2c-0.8,0.3-1.6,0.4-2.5,0.1s-1.8-0.9-2.8-1.8c0,0.3,0,0.6,0,0.9s-0.1,0.6-0.1,0.8
		l-0.8,3.7c0,0,0,0,0,0.1c-0.2,0.9-0.2,1.5,0.1,1.8l0,0l-0.7,0.3L142,262l1.3-5.7c0.2-0.7,0.2-1.1,0.2-1.4c0-0.3-0.2-0.6-0.3-0.8
		c0,0,0-0.1-0.1-0.1l-0.1-0.1l-2.9,1.3c-0.7,0.3-1.1,0.6-1.2,0.9c-0.1,0.3,0.1,0.8,0.5,1.4l-0.7,0.3L134.7,252.9L134.7,252.9z
		 M144.5,265.2l0.7-0.3c0.5,0.6,1,1,1.4,1.1c0.5,0.1,0.9,0.1,1.5-0.1l7.1-3.2c0.5-0.2,0.8-0.5,0.8-0.9c0-0.3-0.2-0.8-0.7-1.4
		l0.7-0.3l4.3,5.4l-0.7,0.3c-0.5-0.6-0.9-1-1.4-1.1c-0.5-0.2-0.9-0.2-1.4,0.1l-6.8,3c-0.8,0.3-1.1,0.7-1.1,1.1s0.4,1.1,1.2,2.1
		s1.7,1.8,2.6,2.3c0.9,0.5,1.9,0.8,3,0.8l0.4,0.9l-3.4,0.5L144.5,265.2L144.5,265.2z M154,277.2l0.7-0.3c0.6,0.6,1.1,1,1.5,1.1
		s0.9,0,1.6-0.3l6.5-2.9c0.7-0.3,1-0.6,1.1-0.9c0-0.3-0.2-0.8-0.6-1.5l0.7-0.3l4.2,5.3l-0.7,0.3c-0.6-0.6-1.1-1-1.5-1.1
		s-0.9,0-1.6,0.3l-6.5,2.9c-0.7,0.3-1,0.6-1.1,0.9c0,0.3,0.2,0.8,0.6,1.5l-0.7,0.3L154,277.2z M159.4,283.9l0.7-0.3l0.2,0.2
		c0.5,0.6,0.9,0.9,1.5,1c0.5,0.1,1.2,0,1.9-0.4l6.6-2.9c0.2-0.5,0.3-0.9,0.2-1.4c0-0.4-0.2-0.9-0.4-1.2l0.7-0.3l2.2,2.8l-3,11
		l6.1-2.7c0.7-0.3,1.1-0.7,1.2-1c0-0.4-0.2-0.9-0.7-1.6l0.7-0.3l3.5,4.4l-0.7,0.3c-0.7-0.6-1.2-1-1.6-1.1c-0.4-0.1-1,0-1.7,0.3
		l-7,3.1c-0.4,0.2-0.8,0.4-1.1,0.5c-0.3,0.2-0.6,0.4-0.9,0.5l-0.8-1c0.1-0.3,0.3-0.7,0.4-1.1c0.1-0.4,0.3-1,0.5-1.8l2.1-8.2
		l-5.7,2.5c-0.8,0.3-1.2,0.7-1.4,1.1c-0.1,0.4,0,0.8,0.4,1.4c0.1,0.1,0.1,0.1,0.1,0.2l0.1,0.1l-0.7,0.3L159.4,283.9L159.4,283.9z
		 M170.2,297.5l0.7-0.3c0.6,0.6,1.1,1,1.5,1.1s0.9,0,1.6-0.3l6.6-2.9c0.7-0.3,1-0.6,1.1-0.9c0-0.3-0.2-0.8-0.6-1.5l0.6-0.3l7.6,9.6
		l-2.4,1.2l-0.6-0.7c0.5-0.5,0.7-1,0.5-1.7c-0.1-0.6-0.7-1.5-1.6-2.7l-1-1.2c-0.2-0.3-0.4-0.4-0.5-0.5c-0.1,0-0.3,0-0.5,0.1
		l-3.8,1.7l1.1,1.4c0.8,1,1.5,1.7,2,1.9c0.5,0.2,1,0.2,1.6,0l0.6,0.7l-3.9,1.7l-0.6-0.7c0.6-0.3,0.8-0.6,0.8-1.1
		c-0.1-0.4-0.5-1.2-1.3-2.2l-1.1-1.4l-3.3,1.5c-0.6,0.3-1,0.6-0.9,1.1c0,0.4,0.3,1.1,1,1.9s1.4,1.5,2.3,1.9c0.8,0.4,1.8,0.7,2.9,0.7
		l0.4,0.8l-3.4,0.5L170.2,297.5L170.2,297.5z M180.4,309.1l2.7-1.2l0.4,0.7c-0.8,0.7-1.2,1.3-1.3,2.1c-0.1,0.7,0.2,1.4,0.7,2.2
		c0.5,0.6,1,1,1.6,1.2c0.7,0.2,1.2,0.2,1.8,0c0.5-0.2,0.8-0.5,0.9-1c0.1-0.5,0.1-1.4-0.1-2.7c-0.2-1.7-0.2-2.8,0-3.3s0.6-1,1.2-1.2
		c0.9-0.4,1.9-0.4,2.9,0s1.9,1.1,2.7,2.1c0.4,0.5,0.7,1,1,1.6s0.5,1.3,0.7,2l-2.4,1.1l-0.6-0.7c0.7-0.5,1.1-1.1,1.2-1.7
		c0.1-0.6-0.2-1.3-0.7-2c-0.5-0.6-1-1-1.5-1.2c-0.6-0.2-1.1-0.2-1.6,0c-0.3,0.1-0.5,0.3-0.6,0.5s-0.2,0.4-0.3,0.7
		c0,0.4,0,1.2,0.2,2.5c0.1,0.7,0.2,1.1,0.2,1.5c0.1,1,0.1,1.7-0.1,2.2c-0.2,0.5-0.6,0.9-1.1,1.1c-1,0.5-2.1,0.5-3.3,0
		c-1.2-0.4-2.2-1.2-3.1-2.4c-0.5-0.6-0.9-1.2-1.2-1.9C180.6,310.5,180.5,309.8,180.4,309.1L180.4,309.1z"/>
</g>
</svg>
