<?xml version="1.0" encoding="utf-8"?>
<!-- Generator: Adobe Illustrator 27.0.0, SVG Export Plug-In . SVG Version: 6.00 Build 0)  -->
<svg version="1.1" id="Layer_1" xmlns="http://www.w3.org/2000/svg" xmlns:xlink="http://www.w3.org/1999/xlink" x="0px" y="0px"
	 viewBox="0 0 400 400" style="enable-background:new 0 0 400 400;" xml:space="preserve">
<style type="text/css">
	.st0{clip-path:url(#SVGID_00000085936118892661078210000017724352838123395775_);}
	.st1{fill:#0000FF;stroke:#0000FF;stroke-width:1.9213;stroke-miterlimit:22.93;}
	.st2{fill-rule:evenodd;clip-rule:evenodd;fill:#FEFEFE;}
</style>
<g>
	<g>
		<defs>
			<rect id="SVGID_1_" x="3.5" y="47.1" width="393" height="306.7"/>
		</defs>
		<clipPath id="SVGID_00000022539456449592412550000007241572078271366588_">
			<use xlink:href="#SVGID_1_"  style="overflow:visible;"/>
		</clipPath>
		<g style="clip-path:url(#SVGID_00000022539456449592412550000007241572078271366588_);">
			<path class="st1" d="M78.6,47.2c19.3,0,37.7,8,51,22.1l266.6,284.3h-252l-27.9-60.9l-5.3-11.5L3.8,47.2H78.6z"/>
			<path class="st2" d="M157,223.4h3.8c5-10.2,12.6-28,14.9-30.7c1-1.7,8.3-6.2,15.1-12.7c6.7-6.6,12.9-15.3,14.5-19.4
				c3.3,6-4.1,11.2-1.9,13.3c1.7,1.6,5,1.1,11.1-2.9c-13.1,11.1-7.3,10.6,3.8,6.8c-21.9,12.5-13.7,12.7,3,9.4
				c-15.3,3.4-15.6,6-4.3,8.1c-14,2.4-10.6,4.4-3,6.4c-10.9,0.8-8.7,3.7-3.8,6.8c-6-0.1-11.9,0.8-17,6.8c3,1.3,4.4,3,4.7,5.1
				c-9.6-3.7-13.8,0.3-16.6,6.4c7.3-1.8,13.1-0.6,11.9,3c6.2,1.4,9.3,3.2,8.1,5.5c-1-2-5.9-2.3-11.9-2.1c-3,4.9-14.6,7.2-17,15.3
				c-0.8,2.8-0.7,6.6,3.8,6.9c7.7,0.5,15.2-0.8,15.3,1.3c-4.7,1.9-7.6,4.5-8.1,8.1c-5.6-2-8.3,0.3-10.2,3.8
				c-6.8-2.5-9.6,0.5-11.9,4.3c-4.3-4-7.4-2.4-9.8,1.7c-3.9-3.5-7.6-5.1-10.2,0c-2.1-4.2-4.7-4.1-7.2,0c-6.2-0.4-23.4-7.1-20.9-10.2
				c6.8-6,15.4-10.9,29-15.1c5.1-1.6,3.8-7.4,2.1-7.9c-1.6-0.5-10.5-0.9-16.2-8.1c0.8-3-0.2-5.8-5.1-8.1c2.4-3.3-1.6-5.4-6.8-7.2
				c2.8-2.6,2.1-4.3-2.1-5.1c1.5-2.4-0.5-4.5-6-6.4c2.6-2.6,1.2-4.3-4.3-5.1c-0.8-3.7-2-6.9-6.8-6c0.4-3.5,1.6-5.9-4.4-5.3
				c2-3.7-1.1-5.1-3.2-5.3c5.1-6.3-3.7-8-9.8-10.6c3,0.2,8.4,1.4,7.7,0c-0.7-1.4-10.2-5.8-11.1-10.2c2.3,2.4,8.1,6.4,8.9,5.5
				s-4-6.6-5.1-10.2c4.5,5.2,14.8,12.5,15.3,10.6s-6.9-9.1-8.9-13.6c4.2,2.6,10.6,10.5,12.4,10.2s-6-9.5-5.1-10.2
				c18.8,16.8,59.8,37.1,63.4,49C158.3,209.3,158,215.8,157,223.4L157,223.4z"/>
		</g>
	</g>
</g>
</svg>
